<?xml version="1.0" encoding="UTF-8" standalone="no"?>
<svg
   width="256"
   height="256"
   version="1.1"
   viewBox="0 0 256 256"
   id="svg9"
   sodipodi:docname="desktop.svg"
   inkscape:version="1.1.2 (0a00cf5339, 2022-02-04)"
   xmlns:inkscape="http://www.inkscape.org/namespaces/inkscape"
   xmlns:sodipodi="http://sodipodi.sourceforge.net/DTD/sodipodi-0.dtd"
   xmlns:xlink="http://www.w3.org/1999/xlink"
   xmlns="http://www.w3.org/2000/svg"
   xmlns:svg="http://www.w3.org/2000/svg"
   xmlns:rdf="http://www.w3.org/1999/02/22-rdf-syntax-ns#"
   xmlns:cc="http://creativecommons.org/ns#"
   xmlns:dc="http://purl.org/dc/elements/1.1/">
  <metadata
     id="metadata13">
    <rdf:RDF>
      <cc:Work
         rdf:about="">
        <dc:format>image/svg+xml</dc:format>
        <dc:type
           rdf:resource="http://purl.org/dc/dcmitype/StillImage" />
      </cc:Work>
    </rdf:RDF>
  </metadata>
  <sodipodi:namedview
     pagecolor="#ffffff"
     bordercolor="#666666"
     borderopacity="1"
     objecttolerance="10"
     gridtolerance="10"
     guidetolerance="10"
     inkscape:pageopacity="0"
     inkscape:pageshadow="2"
     inkscape:window-width="1920"
     inkscape:window-height="1020"
     id="namedview11"
     showgrid="true"
     inkscape:zoom="1.455"
     inkscape:cx="152.92096"
     inkscape:cy="146.04811"
     inkscape:window-x="0"
     inkscape:window-y="32"
     inkscape:window-maximized="1"
     inkscape:current-layer="svg9"
     inkscape:pagecheckerboard="0">
    <inkscape:grid
       type="xygrid"
       id="grid822" />
  </sodipodi:namedview>
  <defs
     id="defs3">
    <linearGradient
       inkscape:collect="always"
       id="linearGradient1615">
      <stop
         style="stop-color:#93cde5;stop-opacity:1;"
         offset="0"
         id="stop1611" />
      <stop
         style="stop-color:#93cde5;stop-opacity:0;"
         offset="1"
         id="stop1613" />
    </linearGradient>
    <linearGradient
       inkscape:collect="always"
       id="linearGradient1453">
      <stop
         style="stop-color:#1d1f7f;stop-opacity:1;"
         offset="0"
         id="stop1449" />
      <stop
         style="stop-color:#1d1f7f;stop-opacity:0;"
         offset="1"
         id="stop1451" />
    </linearGradient>
    <style
       id="current-color-scheme"
       type="text/css">.ColorScheme-Text {
        color:#31363b;
        stop-color:#31363b;
      }
      .ColorScheme-Background {
        color:#eff0f1;
        stop-color:#eff0f1;
      }
      .ColorScheme-Highlight {
        color:#3daee9;
        stop-color:#3daee9;
      }
      .ColorScheme-ViewText {
        color:#31363b;
        stop-color:#31363b;
      }
      .ColorScheme-ViewBackground {
        color:#fcfcfc;
        stop-color:#fcfcfc;
      }
      .ColorScheme-ViewHover {
        color:#93cee9;
        stop-color:#93cee9;
      }
      .ColorScheme-ViewFocus{
        color:#3daee9;
        stop-color:#3daee9;
      }
      .ColorScheme-ButtonText {
        color:#31363b;
        stop-color:#31363b;
      }
      .ColorScheme-ButtonBackground {
        color:#eff0f1;
        stop-color:#eff0f1;
      }
      .ColorScheme-ButtonHover {
        color:#93cee9;
        stop-color:#93cee9;
      }
      .ColorScheme-ButtonFocus{
        color:#3daee9;
        stop-color:#3daee9;
      }</style>
    <linearGradient
       inkscape:collect="always"
       xlink:href="#linearGradient2028"
       id="linearGradient2030"
       x1="215.81831"
       y1="158.07677"
       x2="215.81831"
       y2="121.40042"
       gradientUnits="userSpaceOnUse"
       gradientTransform="matrix(4.2589407,0,0,4.2589407,-864.99706,-475.16875)" />
    <linearGradient
       inkscape:collect="always"
       id="linearGradient2028">
      <stop
         style="stop-color:#676767;stop-opacity:1"
         offset="0"
         id="stop2024" />
      <stop
         style="stop-color:#676767;stop-opacity:1"
         offset="1"
         id="stop2026" />
    </linearGradient>
    <linearGradient
       inkscape:collect="always"
       xlink:href="#linearGradient1453"
       id="linearGradient1455"
       x1="260"
       y1="135.00211"
       x2="-240"
       y2="135.00211"
       gradientUnits="userSpaceOnUse"
       gradientTransform="translate(313.64893,1.8660455)" />
    <linearGradient
       inkscape:collect="always"
       xlink:href="#linearGradient1615"
       id="linearGradient1617"
       x1="-660"
       y1="135.00211"
       x2="-72.83548"
       y2="135.00211"
       gradientUnits="userSpaceOnUse"
       gradientTransform="translate(313.64893,1.8660455)" />
  </defs>
  <g
     id="g2111"
     style="opacity:0.48301"
     transform="matrix(0.99494791,0,0,1,0.07956529,0)">
    <path
       id="path1874"
       style="color:#3daee9;fill:#000000;fill-opacity:0.0586418;stroke-width:1.02111;stop-color:#3daee9"
       d="m 52.556391,39.861874 c -0.255717,0 -0.501642,0.0348 -0.75596,0.04349 -1.06834,-0.01299 -2.508692,-0.06045 -4.629187,-0.02609 -7.411894,0.122642 -19.577531,1.187892 -24.768116,7.712445 -4.158341,5.227069 -5.340055,14.325322 -5.342628,27.766432 0,0.0029 0,0.0043 0,0.0086 0,0.01284 0,0.02169 0,0.03481 v 122.931769 0.0348 c 0,0.003 0,0.004 0,0.008 0.0031,13.44116 1.184287,22.53941 5.342628,27.76648 6.681023,8.39805 24.620463,7.74222 29.405778,7.68696 0.253971,0.004 0.500907,0.0435 0.755961,0.0435 H 207.65443 c 0.25571,0 0.50159,-0.0348 0.75595,-0.0435 1.06834,0.0129 2.50871,0.0605 4.62916,0.026 7.41189,-0.12269 19.57752,-1.18789 24.76812,-7.71244 4.15838,-5.22707 5.34004,-14.32533 5.34265,-27.76647 0,-0.0129 0,-0.026 0,-0.0435 V 75.401901 c 0,-0.01284 0,-0.02611 0,-0.0435 -0.003,-13.441157 -1.18427,-22.53941 -5.34265,-27.76648 -6.68099,-8.398042 -24.62044,-7.742231 -29.40579,-7.68696 -0.25356,-0.0043 -0.50086,-0.04349 -0.75592,-0.04349 z" />
    <path
       id="path2044"
       style="color:#3daee9;fill:#000000;fill-opacity:0.0586418;stroke-width:1.03296;stop-color:#3daee9"
       d="m 51.656679,38.736477 c -0.258684,0 -0.507462,0.0352 -0.76473,0.04399 -1.080735,-0.01314 -2.537798,-0.06115 -4.682895,-0.02639 -7.497885,0.124066 -19.804666,1.201674 -25.055472,7.801924 -4.206585,5.287713 -5.402009,14.491522 -5.404612,28.088574 0,0.0029 0,0.0044 0,0.0087 0,0.01299 0,0.02194 0,0.03521 v 124.358005 0.0352 c 0,0.003 0,0.004 0,0.008 0.0031,13.5971 1.198027,22.80091 5.404612,28.08862 6.758536,8.49549 24.906106,7.83205 29.74694,7.77615 0.256917,0.004 0.506718,0.044 0.764731,0.044 H 208.55414 c 0.25868,0 0.50741,-0.0352 0.76472,-0.044 1.08074,0.013 2.53782,0.0612 4.68287,0.0263 7.49788,-0.12412 19.80466,-1.20167 25.05548,-7.80192 4.20662,-5.28772 5.40199,-14.49153 5.40463,-28.08861 0,-0.0131 0,-0.0263 0,-0.044 V 74.688834 c 0,-0.01299 0,-0.02641 0,-0.044 -0.003,-13.597099 -1.19801,-22.800909 -5.40463,-28.088623 -6.75851,-8.495474 -24.90609,-7.832055 -29.74696,-7.776143 -0.2565,-0.0043 -0.50667,-0.04399 -0.76469,-0.04399 z" />
    <path
       id="path2046"
       style="color:#3daee9;fill:#000000;fill-opacity:0.0586418;stroke-width:1.04469;stop-color:#3daee9"
       d="m 52.064402,38.736482 c -0.261621,0 -0.513224,0.0356 -0.773413,0.04449 -1.093007,-0.01329 -2.566614,-0.06184 -4.736068,-0.02669 -7.583022,0.125475 -20.029543,1.215319 -25.339971,7.890513 -4.25435,5.347754 -5.463347,14.65607 -5.46598,28.407513 0,0.0029 0,0.0045 0,0.0088 0,0.01314 0,0.02219 0,0.03561 v 125.770052 0.0356 c 0,0.003 0,0.004 0,0.008 0.0031,13.75149 1.21163,23.0598 5.46598,28.40755 6.835278,8.59196 25.188909,7.92099 30.084709,7.86445 0.259834,0.004 0.512472,0.0445 0.773414,0.0445 H 210.74339 c 0.26162,0 0.51318,-0.0356 0.77341,-0.0445 1.09301,0.0131 2.56663,0.0619 4.73604,0.0266 7.58302,-0.12553 20.02954,-1.21532 25.33998,-7.89051 4.25438,-5.34776 5.46333,-14.65608 5.466,-28.40755 0,-0.0132 0,-0.0266 0,-0.0445 V 75.097069 c 0,-0.01314 0,-0.02671 0,-0.0445 -0.003,-13.751491 -1.21162,-23.059808 -5.466,-28.407562 -6.83525,-8.591938 -25.18889,-7.920986 -30.08473,-7.86444 -0.25941,-0.0043 -0.51242,-0.04449 -0.77337,-0.04449 z" />
    <path
       id="path2048"
       style="color:#3daee9;fill:#000000;fill-opacity:0.0586418;stroke-width:1.05372;stop-color:#3daee9"
       d="m 52.243266,38.736487 c -0.262909,0 -0.515752,0.03604 -0.777222,0.04504 -1.09839,-0.01345 -2.579255,-0.0626 -4.759395,-0.02702 -7.62037,0.127026 -20.128194,1.230341 -25.464777,7.988045 -4.275304,5.413855 -5.490256,14.837227 -5.492902,28.758647 0,0.0029 0,0.0046 0,0.0089 0,0.0133 0,0.02246 0,0.03605 v 127.324641 0.036 c 0,0.003 0,0.004 0,0.008 0.0031,13.92147 1.217598,23.34484 5.492902,28.75869 6.868943,8.69816 25.312971,8.0189 30.232885,7.96166 0.261113,0.004 0.514996,0.0451 0.777223,0.0451 H 211.7038 c 0.2629,0 0.5157,-0.036 0.77721,-0.0451 1.0984,0.0133 2.57928,0.0627 4.75937,0.0269 7.62037,-0.12709 20.12819,-1.23035 25.46479,-7.98805 4.27533,-5.41386 5.49024,-14.83723 5.49292,-28.75868 0,-0.0134 0,-0.0269 0,-0.0451 V 75.546513 c 0,-0.0133 0,-0.02704 0,-0.04505 -0.003,-13.921468 -1.21759,-23.344841 -5.49292,-28.758697 -6.86892,-8.698139 -25.31295,-8.018894 -30.23291,-7.961649 -0.26069,-0.0044 -0.51494,-0.04504 -0.77718,-0.04504 z" />
    <path
       id="path2050"
       style="color:#3daee9;fill:#000000;fill-opacity:0.0586418;stroke-width:1.06886;stop-color:#3daee9"
       d="m 52.585631,38.736495 c -0.265376,0 -0.520591,0.03674 -0.784514,0.04591 -1.108694,-0.01371 -2.603451,-0.06381 -4.804044,-0.02754 -7.691859,0.129486 -20.317023,1.254171 -25.70367,8.142764 -4.315412,5.518716 -5.541762,15.124608 -5.544433,29.31567 0,0.003 0,0.0047 0,0.0091 0,0.01356 0,0.0229 0,0.03675 v 129.790771 0.0367 c 0,0.003 0,0.004 0,0.008 0.0031,14.19111 1.229021,23.797 5.544433,29.31571 6.933382,8.86663 25.55044,8.17422 30.516509,8.11587 0.263563,0.004 0.519827,0.046 0.784515,0.046 H 213.54212 c 0.26536,0 0.52053,-0.0367 0.7845,-0.046 1.1087,0.0136 2.60347,0.0639 4.80402,0.0274 7.69186,-0.12955 20.31701,-1.25418 25.70368,-8.14277 4.31544,-5.51872 5.54175,-15.12461 5.54445,-29.3157 0,-0.0137 0,-0.0274 0,-0.046 V 76.25949 c 0,-0.01356 0,-0.02756 0,-0.04592 -0.003,-14.191111 -1.22901,-23.797004 -5.54445,-29.31572 -6.93336,-8.866613 -25.55042,-8.174211 -30.51654,-8.115858 -0.26313,-0.0045 -0.51977,-0.04591 -0.78447,-0.04591 z" />
  </g>
  <path
     id="path1949"
     style="fill:currentColor;fill-opacity:1;stop-color:#3daee9"
     d="m 54.160405,41.868439 c -0.25043,0 -0.49127,0.03408 -0.74033,0.04259 -1.04625,-0.01272 -2.45682,-0.0592 -4.53347,-0.02555 -7.25864,0.120107 -19.17273,1.16333 -24.25599,7.552976 -4.07236,5.11899 -5.22964,14.029121 -5.23216,27.192311 0,0.0028 0,0.0042 0,0.0084 0,0.01257 0,0.02124 0,0.03409 v 120.389934 0.0341 c 0,0.003 0,0.004 0,0.008 0.003,13.16324 1.1598,22.07337 5.23216,27.19236 6.54288,8.2244 24.11139,7.58214 28.79776,7.52802 0.24872,0.004 0.49055,0.0426 0.74033,0.0426 H 206.05151 c 0.25042,0 0.49122,-0.0341 0.74032,-0.0426 1.04625,0.0126 2.45683,0.0592 4.53344,0.0255 7.25864,-0.12014 19.17272,-1.16332 24.25599,-7.55297 4.0724,-5.11899 5.22964,-14.02913 5.23219,-27.19235 0,-0.0126 0,-0.0255 0,-0.0426 V 76.67361 c 0,-0.01257 0,-0.02557 0,-0.0426 -0.003,-13.163237 -1.15978,-22.073367 -5.23219,-27.192358 -6.54284,-8.224397 -24.11136,-7.582147 -28.79776,-7.528018 -0.24831,-0.0042 -0.4905,-0.04259 -0.74029,-0.04259 z"
     class="ColorScheme-Highlight" />
  <path
     id="path1537"
     style="color:#3daee9;fill:url(#linearGradient1617);fill-opacity:1;stop-color:#3daee9"
     d="m 54.160405,41.868439 c -0.25043,0 -0.49127,0.03408 -0.74033,0.04259 -1.04625,-0.01272 -2.45682,-0.0592 -4.53347,-0.02555 -7.25864,0.120107 -19.17273,1.16333 -24.25599,7.552976 -4.07236,5.11899 -5.22964,14.029121 -5.23216,27.192311 0,0.0028 0,0.0042 0,0.0084 0,0.01257 0,0.02124 0,0.03409 v 120.389934 0.0341 c 0,0.003 0,0.004 0,0.008 0.003,13.16324 1.1598,22.07337 5.23216,27.19236 6.54288,8.2244 24.11139,7.58214 28.79776,7.52802 0.24872,0.004 0.49055,0.0426 0.74033,0.0426 H 206.05151 c 0.25042,0 0.49122,-0.0341 0.74032,-0.0426 1.04625,0.0126 2.45683,0.0592 4.53344,0.0255 7.25864,-0.12014 19.17272,-1.16332 24.25599,-7.55297 4.0724,-5.11899 5.22964,-14.02913 5.23219,-27.19235 0,-0.0126 0,-0.0255 0,-0.0426 V 76.67361 c 0,-0.01257 0,-0.02557 0,-0.0426 -0.003,-13.163237 -1.15978,-22.073367 -5.23219,-27.192358 -6.54284,-8.224397 -24.11136,-7.582147 -28.79776,-7.528018 -0.24831,-0.0042 -0.4905,-0.04259 -0.74029,-0.04259 z" />
  <path
     id="rect1973"
     style="fill:url(#linearGradient2030);fill-opacity:1;stroke-width:6.81431;stroke-linecap:round;stroke-linejoin:round"
     d="m 54.159295,41.866265 c -0.25042,0 -0.49127,0.03408 -0.74033,0.04259 -1.04625,-0.01271 -2.45681,-0.0592 -4.53343,-0.02555 -7.25868,0.120108 -19.17276,1.163287 -24.25603,7.552975 -4.07235,5.118992 -5.22963,14.029121 -5.23215,27.192318 v 0.0084 0.03408 120.389932 0.0341 0.008 c 0.003,13.16318 1.1598,22.07336 5.23215,27.19235 6.54289,8.22436 24.1114,7.58215 28.79776,7.52798 0.2483,0.004 0.49055,0.0426 0.74034,0.0426 h 19.48133 V 41.869672 Z" />
  <path
     id="path981"
     style="color:#3daee9;fill:url(#linearGradient1455);fill-opacity:1;stop-color:#3daee9"
     d="m 54.160405,41.868439 c -0.25043,0 -0.49127,0.03408 -0.74033,0.04259 -1.04625,-0.01272 -2.45682,-0.0592 -4.53347,-0.02555 -7.25864,0.120107 -19.17273,1.16333 -24.25599,7.552976 -4.07236,5.11899 -5.22964,14.029121 -5.23216,27.192311 0,0.0028 0,0.0042 0,0.0084 0,0.01257 0,0.02124 0,0.03409 v 120.389934 0.0341 c 0,0.003 0,0.004 0,0.008 0.003,13.16324 1.1598,22.07337 5.23216,27.19236 6.54288,8.2244 24.11139,7.58214 28.79776,7.52802 0.24872,0.004 0.49055,0.0426 0.74033,0.0426 H 206.05151 c 0.25042,0 0.49122,-0.0341 0.74032,-0.0426 1.04625,0.0126 2.45683,0.0592 4.53344,0.0255 7.25864,-0.12014 19.17272,-1.16332 24.25599,-7.55297 4.0724,-5.11899 5.22964,-14.02913 5.23219,-27.19235 0,-0.0126 0,-0.0255 0,-0.0426 V 76.67361 c 0,-0.01257 0,-0.02557 0,-0.0426 -0.003,-13.163237 -1.15978,-22.073367 -5.23219,-27.192358 -6.54284,-8.224397 -24.11136,-7.582147 -28.79776,-7.528018 -0.24831,-0.0042 -0.4905,-0.04259 -0.74029,-0.04259 z" />
</svg>
