<?xml version="1.0" encoding="UTF-8" standalone="no"?>
<svg
   width="64"
   height="64"
   version="1.1"
   viewBox="0 0 64 64"
   id="svg9"
   sodipodi:docname="folder_html.svg"
   inkscape:version="1.1.2 (0a00cf5339, 2022-02-04)"
   xmlns:inkscape="http://www.inkscape.org/namespaces/inkscape"
   xmlns:sodipodi="http://sodipodi.sourceforge.net/DTD/sodipodi-0.dtd"
   xmlns:xlink="http://www.w3.org/1999/xlink"
   xmlns="http://www.w3.org/2000/svg"
   xmlns:svg="http://www.w3.org/2000/svg"
   xmlns:rdf="http://www.w3.org/1999/02/22-rdf-syntax-ns#"
   xmlns:cc="http://creativecommons.org/ns#"
   xmlns:dc="http://purl.org/dc/elements/1.1/">
  <metadata
     id="metadata13">
    <rdf:RDF>
      <cc:Work
         rdf:about="">
        <dc:format>image/svg+xml</dc:format>
        <dc:type
           rdf:resource="http://purl.org/dc/dcmitype/StillImage" />
      </cc:Work>
    </rdf:RDF>
  </metadata>
  <sodipodi:namedview
     pagecolor="#ffffff"
     bordercolor="#666666"
     borderopacity="1"
     objecttolerance="10"
     gridtolerance="10"
     guidetolerance="10"
     inkscape:pageopacity="0"
     inkscape:pageshadow="2"
     inkscape:window-width="1920"
     inkscape:window-height="1020"
     id="namedview11"
     showgrid="true"
     inkscape:zoom="8.2307232"
     inkscape:cx="15.126253"
     inkscape:cy="19.864597"
     inkscape:window-x="0"
     inkscape:window-y="32"
     inkscape:window-maximized="1"
     inkscape:current-layer="svg9"
     inkscape:pagecheckerboard="0">
    <inkscape:grid
       type="xygrid"
       id="grid822" />
  </sodipodi:namedview>
  <defs
     id="defs3">
    <linearGradient
       inkscape:collect="always"
       id="linearGradient1450">
      <stop
         style="stop-color:#1d1f7f;stop-opacity:1;"
         offset="0"
         id="stop1446" />
      <stop
         style="stop-color:#1d1f7f;stop-opacity:0;"
         offset="1"
         id="stop1448" />
    </linearGradient>
    <style
       id="current-color-scheme"
       type="text/css">.ColorScheme-Text {
        color:#31363b;
        stop-color:#31363b;
      }
      .ColorScheme-Background {
        color:#eff0f1;
        stop-color:#eff0f1;
      }
      .ColorScheme-Highlight {
        color:#3daee9;
        stop-color:#3daee9;
      }
      .ColorScheme-ViewText {
        color:#31363b;
        stop-color:#31363b;
      }
      .ColorScheme-ViewBackground {
        color:#fcfcfc;
        stop-color:#fcfcfc;
      }
      .ColorScheme-ViewHover {
        color:#93cee9;
        stop-color:#93cee9;
      }
      .ColorScheme-ViewFocus{
        color:#3daee9;
        stop-color:#3daee9;
      }
      .ColorScheme-ButtonText {
        color:#31363b;
        stop-color:#31363b;
      }
      .ColorScheme-ButtonBackground {
        color:#eff0f1;
        stop-color:#eff0f1;
      }
      .ColorScheme-ButtonHover {
        color:#93cee9;
        stop-color:#93cee9;
      }
      .ColorScheme-ButtonFocus{
        color:#3daee9;
        stop-color:#3daee9;
      }</style>
    <linearGradient
       inkscape:collect="always"
       xlink:href="#linearGradient23491"
       id="linearGradient23493"
       x1="468.39737"
       y1="75.014999"
       x2="269.45798"
       y2="75.014999"
       gradientUnits="userSpaceOnUse"
       gradientTransform="matrix(0.26062836,0,0,0.26062836,-61.63683,7.053887)" />
    <linearGradient
       inkscape:collect="always"
       id="linearGradient23491">
      <stop
         style="stop-color:#dd905a;stop-opacity:0.26666668"
         offset="0"
         id="stop23487" />
      <stop
         style="stop-color:#971400;stop-opacity:0;"
         offset="1"
         id="stop23489" />
    </linearGradient>
    <linearGradient
       inkscape:collect="always"
       xlink:href="#linearGradient23938"
       id="linearGradient23940"
       x1="340.8002"
       y1="247.97968"
       x2="340.8002"
       y2="20.230062"
       gradientUnits="userSpaceOnUse"
       gradientTransform="matrix(0.26062836,0,0,0.26062836,-61.63683,7.053887)" />
    <linearGradient
       inkscape:collect="always"
       id="linearGradient23938">
      <stop
         style="stop-color:#283063;stop-opacity:1;"
         offset="0"
         id="stop23934" />
      <stop
         style="stop-color:#283063;stop-opacity:0;"
         offset="1"
         id="stop23936" />
    </linearGradient>
    <linearGradient
       inkscape:collect="always"
       xlink:href="#linearGradient4906"
       id="linearGradient8553"
       gradientUnits="userSpaceOnUse"
       x1="307.27316"
       y1="62.331623"
       x2="469.9902"
       y2="227.97437"
       gradientTransform="matrix(0.26062836,0,0,0.26062836,-61.63683,7.053887)" />
    <linearGradient
       inkscape:collect="always"
       id="linearGradient4906">
      <stop
         style="stop-color:#686868;stop-opacity:1"
         offset="0"
         id="stop4902" />
      <stop
         style="stop-color:#767676;stop-opacity:1"
         offset="0.73028177"
         id="stop8749" />
      <stop
         style="stop-color:#7d7d7d;stop-opacity:1"
         offset="0.73028177"
         id="stop8619" />
      <stop
         style="stop-color:#7f7f7f;stop-opacity:1"
         offset="1"
         id="stop4904" />
    </linearGradient>
    <linearGradient
       inkscape:collect="always"
       xlink:href="#linearGradient1450"
       id="linearGradient1452"
       x1="-347.64877"
       y1="125.82983"
       x2="215"
       y2="125.82983"
       gradientUnits="userSpaceOnUse"
       gradientTransform="matrix(0.26062836,0,0,0.26062836,-1.3517596,-3.0627662)" />
  </defs>
  <g
     id="g25512"
     style="opacity:0.690101"
     transform="matrix(0.25562033,0,0,0.26024142,-60.084767,6.194781)">
    <path
       id="path24886"
       style="opacity:1;fill:#000000;fill-opacity:0.0599543;stroke-width:1.62818;stroke-linecap:round;stroke-linejoin:round"
       d="m 265.88069,1.1605644 c -11.66237,0 -21.05198,9.3876296 -21.05198,21.0499896 v 47.33514 88.330056 31.02145 c 0,0.69264 0.0386,1.37603 0.10335,2.05114 0.003,0.0353 0.002,0.072 0.006,0.10732 0,0 0,0.002 0,0.002 0.0717,0.70871 0.17839,1.40708 0.31801,2.09286 1.95557,9.61068 10.41941,16.79865 20.62465,16.79865 h 184.96387 c 5.83118,0 11.09336,-2.34672 14.89857,-6.15141 3.32937,-3.32938 5.5428,-7.77631 6.04409,-12.74209 0.0714,-0.70877 0.10931,-1.42825 0.10931,-2.15648 V 157.87376 53.571874 38.184374 c 0,-11.66236 -9.38961,-21.05197 -21.05197,-21.05197 H 351.85352 L 336.29112,1.1605644 Z" />
    <path
       id="path25265"
       style="opacity:1;fill:#000000;fill-opacity:0.0599543;stroke-width:1.64192;stroke-linecap:round;stroke-linejoin:round"
       d="m 266.05838,1.1605644 c -11.76081,0 -21.22967,9.4668646 -21.22967,21.2276596 v 47.734667 89.075599 31.28328 c 0,0.69849 0.0389,1.38764 0.10422,2.06845 0.003,0.0356 0.002,0.0726 0.006,0.10823 0,0 0,0.002 0,0.002 0.0723,0.7147 0.1799,1.41896 0.3207,2.11053 1.97207,9.6918 10.50735,16.94044 20.79873,16.94044 h 186.52503 c 5.8804,0 11.187,-2.36653 15.02432,-6.20333 3.35747,-3.35749 5.58959,-7.84195 6.09511,-12.84964 0.072,-0.71475 0.11023,-1.44031 0.11023,-2.17468 V 159.19648 54.014246 38.496869 c 0,-11.760795 -9.46886,-21.229657 -21.22966,-21.229657 H 352.75685 L 337.0631,1.1605644 Z" />
    <path
       id="path25267"
       style="opacity:1;fill:#000000;fill-opacity:0.0599543;stroke-width:1.65613;stroke-linecap:round;stroke-linejoin:round"
       d="m 266.24217,1.1605644 c -11.86262,0 -21.41346,9.5488226 -21.41346,21.4114356 v 48.147925 89.846765 31.55411 c 0,0.70454 0.0392,1.39965 0.10512,2.08636 0.003,0.0359 0.002,0.0732 0.006,0.10916 0,0 0,0.002 0,0.002 0.0729,0.72089 0.18146,1.43125 0.32348,2.1288 1.98914,9.77571 10.59832,17.0871 20.97879,17.0871 h 188.13986 c 5.9313,0 11.28385,-2.38702 15.15439,-6.25703 3.38653,-3.38656 5.63798,-7.90984 6.14787,-12.96089 0.0726,-0.72093 0.11119,-1.45278 0.11119,-2.1935 V 160.56466 54.471821 38.820104 c 0,-11.862613 -9.55084,-21.41345 -21.41345,-21.41345 H 353.69123 L 337.86161,1.1605644 Z" />
    <path
       id="path25269"
       style="opacity:1;fill:#000000;fill-opacity:0.0599543;stroke-width:1.67342;stroke-linecap:round;stroke-linejoin:round"
       d="m 266.46577,1.1605644 c -11.98649,0 -21.63706,9.6485336 -21.63706,21.6350186 v 48.650696 90.784961 31.88361 c 0,0.7119 0.0396,1.41426 0.10622,2.10815 0.003,0.0363 0.002,0.074 0.006,0.1103 0,0 0,0.002 0,0.002 0.0737,0.72841 0.18336,1.44619 0.32686,2.15103 2.00991,9.87779 10.70899,17.26552 21.19785,17.26552 H 456.5701 c 5.99324,0 11.40168,-2.41194 15.31264,-6.32236 3.42189,-3.42193 5.69685,-7.99244 6.21206,-13.09623 0.0734,-0.72846 0.11236,-1.46796 0.11236,-2.21641 V 162.22919 55.028509 39.213353 c 0,-11.986485 -9.65058,-21.637054 -21.63706,-21.637054 H 354.828 L 338.83308,1.1605644 Z" />
    <path
       id="path25271"
       style="opacity:1;fill:#000000;fill-opacity:0.0599543;stroke-width:1.69376;stroke-linecap:round;stroke-linejoin:round"
       d="m 266.72878,1.1605644 c -12.13219,0 -21.90007,9.7658186 -21.90007,21.8980086 v 49.242081 91.888516 32.27118 c 0,0.72056 0.0401,1.43145 0.10751,2.13378 0.003,0.0367 0.002,0.0749 0.006,0.11164 0,0 0,0.002 0,0.002 0.0746,0.73727 0.18559,1.46377 0.33084,2.17718 2.03434,9.99786 10.83916,17.4754 21.45552,17.4754 H 459.1439 c 6.0661,0 11.54028,-2.44126 15.49878,-6.39922 3.46349,-3.46352 5.7661,-8.08959 6.28757,-13.25542 0.0743,-0.73732 0.11373,-1.48581 0.11373,-2.24335 V 164.1871 55.683314 39.675913 c 0,-12.13219 -9.76789,-21.900069 -21.90008,-21.900069 H 356.16512 L 339.97577,1.1605644 Z" />
  </g>
  <path
     id="path21815"
     style="fill:currentColor;stroke-width:0.260628"
     d="m 26.435657,6.967899 3.985782,4.090647 H 55.77472 c 2.98692,0 5.391749,2.404829 5.391749,5.391748 V 47.10445 c 0,0.177396 -0.0099,0.352426 -0.02649,0.52533 -6.15e-4,0.0091 -5.23e-4,0.01848 -0.0019,0.02747 -1.8e-5,1.66e-4 1.2e-5,2.59e-4 0,5.17e-4 -0.01836,0.181518 -0.04571,0.360379 -0.08145,0.536024 -0.500852,2.461449 -2.668582,4.302401 -5.282308,4.302401 H 8.4024451 c -1.4934604,0 -2.8411909,-0.601033 -3.8157632,-1.575476 C 3.7339757,50.068007 3.16708,48.929076 3.0386922,47.657256 3.0203659,47.475739 3.0107013,47.291463 3.0107013,47.104949 V 12.35913 c 0,-2.986918 2.4048303,-5.391243 5.3917486,-5.391243 z"
     class="ColorScheme-Highlight" />
  <path
     id="path1300"
     style="fill:url(#linearGradient1452);fill-opacity:1;stroke-width:0.417006;stroke-linecap:round;stroke-linejoin:round"
     d="m 26.435657,6.967899 3.985782,4.090647 H 55.77472 c 2.98692,0 5.391749,2.404829 5.391749,5.391748 V 47.10445 c 0,0.177396 -0.0099,0.352426 -0.02649,0.52533 -6.15e-4,0.0091 -5.23e-4,0.01848 -0.0019,0.02747 -1.8e-5,1.66e-4 1.2e-5,2.59e-4 0,5.17e-4 -0.01836,0.181518 -0.04571,0.360379 -0.08145,0.536024 -0.500852,2.461449 -2.668582,4.302401 -5.282308,4.302401 H 8.4024451 c -1.4934604,0 -2.8411909,-0.601033 -3.8157632,-1.575476 C 3.7339757,50.068007 3.16708,48.929076 3.0386922,47.657256 3.0203659,47.475739 3.0107013,47.291463 3.0107013,47.104949 V 12.35913 c 0,-2.986918 2.4048303,-5.391243 5.3917486,-5.391243 z"
     sodipodi:nodetypes="ccssscsccsscssssc" />
  <path
     id="path23181"
     style="fill:url(#linearGradient23493);fill-opacity:1;stroke-width:0.417006;stroke-linecap:round;stroke-linejoin:round"
     d="m 26.435657,6.967899 3.985782,4.090647 H 55.77472 c 2.98692,0 5.391749,2.404829 5.391749,5.391748 V 47.10445 c 0,0.177396 -0.0099,0.352426 -0.02649,0.52533 -6.15e-4,0.0091 -5.23e-4,0.01848 -0.0019,0.02747 -1.8e-5,1.66e-4 1.2e-5,2.59e-4 0,5.17e-4 -0.01836,0.181518 -0.04571,0.360379 -0.08145,0.536024 -0.500852,2.461449 -2.668582,4.302401 -5.282308,4.302401 H 8.4024451 c -1.4934604,0 -2.8411909,-0.601033 -3.8157632,-1.575476 C 3.7339757,50.068007 3.16708,48.929076 3.0386922,47.657256 3.0203659,47.475739 3.0107013,47.291463 3.0107013,47.104949 V 12.35913 c 0,-2.986918 2.4048303,-5.391243 5.3917486,-5.391243 z"
     sodipodi:nodetypes="ccssscsccsscssssc" />
  <path
     id="path23841"
     style="fill:url(#linearGradient23940);fill-opacity:1;stroke-width:0.417006;stroke-linecap:round;stroke-linejoin:round"
     d="m 26.435657,6.967899 3.985782,4.090647 H 55.77472 c 2.98692,0 5.391749,2.404829 5.391749,5.391748 V 47.10445 c 0,0.177396 -0.0099,0.352426 -0.02649,0.52533 -6.15e-4,0.0091 -5.23e-4,0.01848 -0.0019,0.02747 -1.8e-5,1.66e-4 1.2e-5,2.59e-4 0,5.17e-4 -0.01836,0.181518 -0.04571,0.360379 -0.08145,0.536024 -0.500852,2.461449 -2.668582,4.302401 -5.282308,4.302401 H 8.4024451 c -1.4934604,0 -2.8411909,-0.601033 -3.8157632,-1.575476 C 3.7339757,50.068007 3.16708,48.929076 3.0386922,47.657256 3.0203659,47.475739 3.0107013,47.291463 3.0107013,47.104949 V 12.35913 c 0,-2.986918 2.4048303,-5.391243 5.3917486,-5.391243 z"
     sodipodi:nodetypes="ccssscsccsscssssc" />
  <path
     id="rect877"
     style="fill:url(#linearGradient8553);fill-opacity:1;stroke-width:0.417006;stroke-linecap:round;stroke-linejoin:round"
     d="m 30,15 -3.985782,4.090646 H 8.4024604 c -2.9869183,0 -5.3917494,2.40483 -5.3917494,5.391749 v 30.567837 c 0,0.177396 0.00988,0.352419 0.02647,0.525329 8.007e-4,0.0091 5.209e-4,0.01848 0.00154,0.02747 1.86e-5,1.73e-4 -1.53e-5,2.66e-4 0,5.24e-4 0.018351,0.181517 0.045686,0.360379 0.081447,0.536018 0.5008514,2.461454 2.6685789,4.302406 5.2823058,4.302406 H 55.774733 c 1.493455,0 2.84119,-0.601033 3.815762,-1.575481 0.852704,-0.852704 1.4196,-1.991634 1.547992,-3.263455 0.01829,-0.181522 0.02797,-0.365793 0.02797,-0.552307 V 20.391238 c 0,-2.98692 -2.40483,-5.391244 -5.39175,-5.391244 z" />
  <path
     id="path20971"
     style="fill:#ffffff;fill-opacity:0.211088;stroke-width:0.417006;stroke-linecap:round;stroke-linejoin:round"
     d="m 30,15 -3.985782,4.090646 H 8.4024604 c -2.9869183,0 -5.3917494,2.40483 -5.3917494,5.391749 v 0.634264 c 0,-2.986918 2.4048311,-5.391748 5.3917494,-5.391748 H 26.271284 l 3.985782,-4.090645 H 55.77472 c 2.98692,0 5.391749,2.404324 5.391749,5.391243 V 20.391243 C 61.166469,17.404325 58.76164,15 55.77472,15 Z" />
  <path
     id="path21575"
     style="fill:#41323a;fill-opacity:0.380437;stroke-width:0.417006;stroke-linecap:round;stroke-linejoin:round"
     d="m 3.010711,53.950707 v 1.099525 c 0,0.177396 0.00988,0.352419 0.02647,0.525329 8.007e-4,0.0091 5.209e-4,0.01848 0.00154,0.02747 0,0 0,5.24e-4 0,5.24e-4 0.018351,0.181517 0.045686,0.360379 0.081447,0.536018 0.5008514,2.461454 2.6685789,4.302406 5.2823058,4.302406 H 55.774733 c 1.493455,0 2.84119,-0.601033 3.815762,-1.575481 0.852704,-0.852704 1.4196,-1.991634 1.547992,-3.263455 0.01829,-0.181522 0.02797,-0.365793 0.02797,-0.552307 v -1.099525 c 0,0.186513 -0.0097,0.370784 -0.02797,0.552307 -0.128392,1.27182 -0.695288,2.41075 -1.547992,3.263454 -0.974572,0.974448 -2.322307,1.575482 -3.815762,1.575482 H 8.4024604 c -2.6137277,0 -4.7814545,-1.840959 -5.2823058,-4.302406 -0.035755,-0.17564 -0.063099,-0.354502 -0.081447,-0.536019 0,0 0,-5.23e-4 0,-5.23e-4 -0.00105,-0.0091 -8.007e-4,-0.01848 -0.00154,-0.02748 -0.016604,-0.17291 -0.02647,-0.347934 -0.02647,-0.525329 z" />
  <path
     id="path24042"
     style="fill:#ffffff;fill-opacity:0.192501;stroke-width:0.417006;stroke-linecap:round;stroke-linejoin:round"
     d="m 8.4024604,6.967862 c -2.9869183,0 -5.3917494,2.404324 -5.3917494,5.391244 v 0.849075 c 0,-2.986919 2.4048311,-5.391237 5.3917494,-5.391237 H 26.080394 l 3.985782,4.090639 H 55.77472 c 2.98692,0 5.391749,2.404831 5.391749,5.391749 v -0.849075 c 0,-2.986918 -2.404829,-5.391749 -5.391749,-5.391749 H 30.421486 L 26.435704,6.967862 Z" />
  <g
     transform="matrix(1.4801339,0,0,1.4801339,15.806896,23.26482)"
     id="g40"
     style="fill:#c5c5c5;fill-opacity:1">
    <path
       d="M 11.004,3 C 10.685,3 10.376,3.027 10.066,3.064 A 8.18,8.18 0 0 0 9.161,3.22 C 9.067,3.242 8.976,3.287 8.88,3.314 8.796,3.337 8.713,3.351 8.63,3.377 8.525,3.41 8.416,3.436 8.317,3.471 8.21,3.509 8.11,3.554 8.004,3.596 7.798,3.679 7.607,3.778 7.41,3.876 7.339,3.912 7.26,3.932 7.19,3.97 6.96,4.091 6.75,4.233 6.535,4.376 6.453,4.431 6.365,4.474 6.285,4.532 6.252,4.556 6.224,4.57 6.191,4.595 6.097,4.666 6,4.737 5.91,4.814 5.803,4.903 5.7,5.001 5.597,5.094 5.565,5.124 5.535,5.159 5.503,5.189 L 5.472,5.219 C 5.456,5.236 5.457,5.267 5.441,5.283 5.231,5.487 5.002,5.682 4.816,5.908 c -0.005,0.01 0.005,0.025 0,0.03 -0.18,0.22 -0.343,0.448 -0.5,0.688 C 4.296,6.658 4.274,6.687 4.253,6.72 4.238,6.744 4.206,6.757 4.19,6.783 4.13,6.881 4.09,6.993 4.034,7.096 4.016,7.129 3.989,7.157 3.971,7.19 3.896,7.336 3.821,7.48 3.752,7.628 c -0.004,0.01 0.004,0.023 0,0.03 A 8.026,8.026 0 0 0 3.439,8.439 C 3.42,8.492 3.394,8.542 3.376,8.595 3.373,8.605 3.379,8.617 3.376,8.626 3.356,8.688 3.332,8.751 3.313,8.814 3.24,9.071 3.173,9.328 3.125,9.595 3.091,9.787 3.051,9.992 3.031,10.189 a 8.104,8.104 0 0 0 -0.03,0.812 c 0,0.404 0.035,0.8 0.093,1.188 0.006,0.04 -0.007,0.085 0,0.125 0.044,0.266 0.118,0.525 0.188,0.78 0.026,0.096 0.064,0.186 0.094,0.281 0.04,0.13 0.08,0.25 0.125,0.375 a 7.9,7.9 0 0 0 0.25,0.625 c 0.05,0.106 0.102,0.21 0.156,0.313 a 8,8 0 0 0 0.5,0.843 c 0.016,0.024 0.046,0.04 0.063,0.063 0.198,0.281 0.394,0.56 0.625,0.813 0.04,0.044 0.084,0.082 0.125,0.125 0.04,0.042 0.084,0.084 0.125,0.125 0.214,0.214 0.45,0.405 0.688,0.594 0.306,0.243 0.629,0.458 0.969,0.655 0.012,0.01 0.019,0.024 0.03,0.031 0.054,0.03 0.104,0.065 0.157,0.094 0.316,0.156 0.692,0.325 0.938,0.438 0.11,0.042 0.23,0.057 0.344,0.094 0.053,0.018 0.103,0.046 0.156,0.063 0.136,0.04 0.268,0.09 0.406,0.125 l 0.125,0.03 c 0.291,0.07 0.601,0.122 0.905,0.157 0.31,0.036 0.618,0.063 0.938,0.063 0.34,0 0.671,-0.021 1,-0.063 0.365,-0.048 0.681,-0.124 1,-0.188 a 7.909,7.909 0 0 0 4.219,-2.749 c 0.028,-0.035 0.067,-0.058 0.094,-0.094 0.009,-0.012 0.022,-0.02 0.03,-0.03 0.015,-0.019 0.019,-0.045 0.032,-0.064 a 7.964,7.964 0 0 0 1.343,-2.812 c 0.056,-0.216 0.118,-0.431 0.156,-0.655 0.005,-0.03 -0.005,-0.063 0,-0.094 0.006,-0.04 0.025,-0.08 0.031,-0.125 0.006,-0.043 0.026,-0.082 0.031,-0.125 h -0.03 C 18.95,11.672 19,11.343 19,11.002 19,10.451 18.95,9.899 18.844,9.378 18.835,9.335 18.822,9.296 18.814,9.253 18.767,9.045 18.689,8.83 18.625,8.628 c -0.003,-0.01 0.003,-0.022 0,-0.03 A 3.439,3.439 0 0 0 18.595,8.503 C 18.555,8.384 18.513,8.245 18.469,8.129 18.457,8.097 18.451,8.065 18.439,8.035 18.395,7.925 18.33,7.829 18.282,7.722 c -0.002,0 0.002,-0.026 0,-0.031 C 18.257,7.637 18.214,7.588 18.188,7.535 A 7.813,7.813 0 0 0 17.875,6.941 C 17.817,6.843 17.781,6.724 17.719,6.628 17.695,6.592 17.65,6.57 17.625,6.534 17.558,6.435 17.478,6.349 17.406,6.254 17.326,6.154 17.266,6.037 17.188,5.94 17.183,5.93 17.193,5.915 17.188,5.91 17.016,5.7 16.818,5.507 16.625,5.316 16.532,5.224 16.441,5.122 16.344,5.035 16.316,5.01 16.279,4.997 16.25,4.972 a 8.131,8.131 0 0 0 -0.656,-0.5 C 15.539,4.434 15.493,4.384 15.438,4.347 15.368,4.301 15.29,4.267 15.218,4.222 15.084,4.138 14.953,4.048 14.813,3.972 A 8.093,8.093 0 0 0 14.438,3.785 7.9,7.9 0 0 0 13.782,3.504 7.649,7.649 0 0 0 12.969,3.254 7.757,7.757 0 0 0 11,3.004 m 0,1 a 7.023,7.023 0 0 1 1.406,0.156 h 0.031 c 0.166,0.035 0.338,0.08 0.5,0.125 0.096,0.027 0.187,0.063 0.281,0.094 0.172,0.057 0.334,0.117 0.5,0.188 0.194,0.08 0.379,0.153 0.563,0.25 l -0.094,0.031 a 0.319,0.319 0 0 0 -0.125,0.125 c -0.02,0.048 0.005,0.115 0,0.188 0.038,0.017 0.06,0.089 0.125,0.125 0.025,0.014 0.04,-0.01 0.063,0 0.038,0.02 0.07,0.087 0.063,0.125 -0.011,0.055 -0.088,0.022 -0.125,0.063 0.006,0.078 -0.043,0.105 -0.063,0.156 0.012,0.033 0.057,0.024 0.063,0.063 -0.007,0.043 -0.08,0.049 -0.063,0.094 0.072,0.056 0.15,-0.022 0.219,-0.031 0.149,-0.02 0.283,0.04 0.375,-0.031 -0.012,-0.071 0.1,-0.092 0.094,-0.156 C 14.807,5.521 14.723,5.508 14.688,5.475 14.668,5.457 14.648,5.415 14.625,5.381 14.599,5.341 14.561,5.294 14.531,5.256 14.491,5.204 14.406,5.139 14.406,5.1 c 0,-0.045 0.052,-0.063 0.063,-0.125 -0.012,-0.057 -0.117,0 -0.125,-0.063 a 0.162,0.162 0 0 1 0.03,-0.063 c 0.15,0.082 0.299,0.179 0.439,0.28 l 0.094,0.064 c 0.108,0.08 0.207,0.17 0.313,0.25 -0.067,0.012 -0.101,0.09 -0.156,0.156 a 0.464,0.464 0 0 1 -0.156,0.125 c -0.028,0.012 -0.068,-0.016 -0.094,0 -0.037,0.025 -0.051,0.096 -0.094,0.125 -0.031,0.02 -0.124,0.094 -0.156,0.094 -0.038,0 -0.098,-0.04 -0.125,-0.031 -0.04,0.013 -0.017,0.077 -0.063,0.094 -0.088,0.03 -0.25,-0.07 -0.281,0.063 0.038,0.076 0.153,0.05 0.219,0.094 a 0.475,0.475 0 0 1 0.125,0.187 0.644,0.644 0 0 1 0,0.22 c -0.041,0.105 -0.16,0.096 -0.281,0.093 h -0.094 c -0.207,-0.014 -0.407,-0.085 -0.5,0.063 0.007,0.113 0.025,0.183 0,0.281 -0.018,0.072 -0.097,0.125 -0.094,0.188 0.002,0.032 0.055,0.082 0.063,0.125 0.005,0.023 -0.011,0.073 0,0.094 0.034,0.066 0.127,-0.01 0.188,0 0.059,0.01 0.126,0.12 0.125,0.188 a 0.346,0.346 0 0 1 -0.063,0.156 c -0.058,0.089 -0.167,0.077 -0.25,0.125 -0.07,0.039 -0.084,0.119 -0.125,0.188 -0.044,0.074 -0.081,0.11 -0.063,0.219 a 0.485,0.485 0 0 1 -0.25,0.25 C 13.058,8.556 13.003,8.578 12.97,8.602 a 0.63,0.63 0 0 0 -0.094,0.094 c -0.047,0.052 -0.1,0.085 -0.125,0.125 -0.019,0.031 -0.01,0.084 -0.031,0.125 -0.029,0.056 -0.088,0.1 -0.125,0.156 -0.017,0.026 -0.043,0.06 -0.063,0.094 -0.042,0.077 -0.101,0.151 -0.094,0.22 0.007,0.065 0.089,0.067 0.094,0.124 0.004,0.032 -0.033,0.059 -0.031,0.094 0.001,0.051 0.027,0.086 0.031,0.125 0.01,0.099 -0.044,0.12 -0.063,0.188 -0.009,0.032 0.008,0.068 0,0.094 -0.016,0.05 -0.093,0.098 -0.094,0.156 -10e-4,0.042 0.059,0.097 0.063,0.156 0.002,0.04 -0.038,0.057 -0.031,0.094 0.014,0.073 0.162,0.162 0.219,0.219 0.075,0.075 0.155,0.139 0.188,0.219 0.027,0.067 0.041,0.168 0.094,0.219 0.039,0.037 0.106,0.054 0.156,0.094 0.047,0.036 0.107,0.055 0.156,0.094 0.08,0.064 0.183,0.196 0.313,0.187 0.068,-0.01 0.142,-0.05 0.219,-0.063 0.079,-0.014 0.17,-0.039 0.25,-0.03 0.06,0.01 0.124,0.065 0.188,0.062 0.067,0 0.143,-0.06 0.219,-0.094 0.132,-0.057 0.339,-0.152 0.53,-0.124 0.147,0.02 0.15,0.216 0.25,0.28 0.119,0.01 0.22,-0.054 0.314,-0.03 0.07,0.016 0.149,0.131 0.156,0.187 0.007,0.058 -0.054,0.121 -0.063,0.156 -0.018,0.078 -0.017,0.17 -0.031,0.22 -0.011,0.037 -0.032,0.085 -0.031,0.124 a 0.54,0.54 0 0 0 0.094,0.188 c 0.044,0.056 0.103,0.096 0.156,0.156 a 1.8,1.8 0 0 1 0.219,0.375 c 0.017,0.037 -0.016,0.077 0,0.125 -0.03,0.224 -0.103,0.377 -0.25,0.624 -0.07,0.08 -0.158,0.15 -0.156,0.25 -0.005,0.24 0.136,0.393 0.125,0.625 -0.024,0.312 0.024,0.333 0,0.5 0.105,0.053 0.03,0.233 0,0.344 -0.045,0.132 -0.1,0.162 -0.125,0.25 0.07,0.03 0.17,0.019 0.25,0 0,0 0.096,0.4 0.094,0.405 a 7.003,7.003 0 0 1 -2.938,1.719 c -0.55,0.132 -0.713,0.132 -0.969,0.187 a 6.383,6.383 0 0 1 -1.03,0.094 c -0.244,0 -0.484,-0.01 -0.72,-0.03 C 10.102,17.96 9.93,17.916 9.754,17.884 a 7.17,7.17 0 0 1 -0.157,-0.03 c -0.163,-0.056 -0.35,-0.089 -0.5,-0.125 a 7.067,7.067 0 0 1 -0.5,-0.156 c 0.015,-0.013 0.028,-0.011 0.032,-0.031 0.009,-0.04 0.002,-0.062 0,-0.125 0.015,-0.065 0.08,-0.058 0.094,-0.125 C 8.695,17.244 8.64,17.254 8.598,17.229 A 0.133,0.133 0 0 1 8.535,17.104 c 0.07,-0.03 0.2,0.066 0.25,-0.031 0.025,-0.046 -0.034,-0.141 0,-0.188 0.023,-0.031 0.168,-0.055 0.218,-0.063 0.071,-0.012 0.148,-0.01 0.188,-0.031 A 0.223,0.223 0 0 0 9.285,16.603 C 9.281,16.563 9.252,16.543 9.222,16.509 9.197,16.479 9.209,16.443 9.192,16.415 9.16,16.368 9.112,16.357 9.097,16.29 c 0.096,-0.02 0.236,0.102 0.375,0.063 0.066,-0.02 0.157,-0.188 0.188,-0.25 0.01,-0.019 -0.01,-0.04 0,-0.063 0.012,-0.026 0.06,-0.049 0.063,-0.063 0.01,-0.036 -0.008,-0.071 0,-0.094 0.024,-0.068 0.085,-0.075 0.125,-0.125 0.03,-0.038 0.065,-0.087 0.094,-0.125 0.031,-0.04 0.042,-0.089 0.063,-0.125 0.02,-0.122 -0.06,-0.206 -0.03,-0.313 0.031,-0.12 0.195,-0.165 0.312,-0.219 0.04,-0.019 0.092,-0.05 0.125,-0.063 0.08,-0.028 0.176,-0.036 0.25,-0.063 0.125,-0.046 0.157,-0.166 0.22,-0.28 a 0.611,0.611 0 0 0 0.062,-0.156 c 0.005,-0.035 -0.007,-0.053 0,-0.094 0.006,-0.04 0.02,-0.081 0.031,-0.125 a 1.1,1.1 0 0 0 0.031,-0.22 c 0,-0.052 -0.029,-0.077 -0.03,-0.124 -0.01,-0.173 0.06,-0.218 0.124,-0.313 0.032,-0.047 0.04,-0.09 0.063,-0.125 0.108,-0.16 0.295,-0.226 0.281,-0.469 -0.005,-0.08 -0.035,-0.255 -0.094,-0.28 -0.034,-0.015 -0.107,-0.011 -0.156,-0.031 -0.158,-0.06 -0.274,-0.27 -0.438,-0.281 -0.035,0 -0.055,0.03 -0.094,0.03 -0.065,0 -0.147,-0.052 -0.219,-0.062 -0.046,-0.01 -0.129,0.013 -0.156,0 C 10.245,12.3 10.258,12.218 10.224,12.195 10.197,12.177 10.14,12.18 10.099,12.164 10.033,12.139 9.987,12.108 9.911,12.101 c -0.023,-0.001 -0.067,0 -0.094,0 -0.042,-0.01 -0.086,-0.04 -0.125,-0.063 A 0.208,0.208 0 0 1 9.598,11.944 C 9.642,11.8 9.502,11.777 9.473,11.694 c -0.014,-0.04 0.013,-0.09 0,-0.125 C 9.456,11.519 9.403,11.485 9.348,11.444 9.251,11.37 9.174,11.305 9.035,11.288 c -0.06,-0.01 -0.145,0 -0.219,0 A 0.367,0.367 0 0 1 8.598,11.163 C 8.542,11.098 8.522,11.038 8.473,11.007 8.426,10.977 8.349,10.977 8.317,10.944 8.303,10.93 8.3,10.914 8.286,10.881 8.263,10.833 8.225,10.783 8.255,10.725 8.202,10.698 8.22,10.797 8.161,10.788 8.109,10.714 8.06,10.673 7.941,10.694 7.888,10.704 7.849,10.754 7.786,10.757 7.734,10.757 7.698,10.704 7.63,10.694 7.578,10.684 7.51,10.73 7.474,10.725 7.417,10.715 7.401,10.666 7.349,10.631 7.311,10.606 7.245,10.536 7.224,10.537 c -0.067,0 -0.126,0.143 -0.22,0.094 -0.044,-0.057 0.086,-0.07 0.032,-0.125 -0.04,-0.04 -0.061,0.01 -0.094,0.031 A 0.666,0.666 0 0 1 6.817,10.6 c -0.092,0.034 -0.147,0.025 -0.22,0.063 -0.065,0.034 -0.086,0.088 -0.124,0.156 -0.031,0.056 -0.08,0.153 -0.125,0.156 -0.056,0 -0.106,-0.072 -0.156,-0.094 -0.153,-0.066 -0.248,0.03 -0.375,0.031 -0.118,0 -0.287,-0.17 -0.281,-0.28 0.004,-0.068 0.054,-0.167 0.063,-0.25 0.006,-0.067 0.062,-0.128 0.063,-0.189 0,-0.08 -0.135,-0.147 -0.188,-0.156 -0.125,-0.023 -0.295,0.061 -0.438,0 C 5.009,9.992 5.083,9.957 5.099,9.913 5.108,9.888 5.089,9.879 5.099,9.85 5.115,9.808 5.173,9.77 5.193,9.725 5.208,9.691 5.209,9.643 5.223,9.6 5.241,9.55 5.283,9.509 5.287,9.475 5.292,9.43 5.26,9.38 5.224,9.35 5.113,9.36 5.037,9.35 4.974,9.38 4.83,9.447 4.868,9.647 4.724,9.694 4.674,9.71 4.591,9.714 4.536,9.724 4.489,9.734 4.429,9.757 4.38,9.756 A 0.354,0.354 0 0 1 4.192,9.662 0.174,0.174 0 0 1 4.162,9.599 C 4.163,9.589 4.159,9.578 4.162,9.568 4.207,9.345 4.254,9.124 4.317,8.912 4.32,8.902 4.314,8.89 4.317,8.881 4.359,8.742 4.42,8.611 4.473,8.475 4.486,8.465 4.492,8.452 4.504,8.445 4.581,8.391 4.66,8.325 4.754,8.319 c 0.057,0 0.164,0.02 0.219,0.031 0.05,0.01 0.082,0.06 0.125,0.063 0.123,0.01 0.149,-0.103 0.25,-0.156 0.104,0.015 0.156,-0.01 0.25,0 0.064,0.01 0.138,0.09 0.188,0.094 0.042,0 0.053,-0.069 0.094,-0.063 0.04,0.01 0.119,0.108 0.125,0.156 0.007,0.06 -0.048,0.122 -0.031,0.188 0.063,0.064 0.19,0.056 0.28,0.094 0.06,-0.048 0.01,-0.118 0,-0.188 -10e-4,-0.03 0.005,-0.066 0,-0.094 C 6.249,8.396 6.224,8.36 6.224,8.319 6.223,8.129 6.378,8.019 6.504,7.944 6.56,7.911 6.613,7.875 6.661,7.85 6.728,7.816 6.761,7.787 6.817,7.756 6.917,7.699 7.019,7.664 7.097,7.601 7.135,7.515 7.094,7.405 7.097,7.32 c 0.038,-0.022 0.056,0 0.095,0 C 7.252,7.307 7.282,7.229 7.317,7.195 7.337,7.175 7.386,7.152 7.411,7.132 7.471,7.084 7.483,7.028 7.536,7.007 7.555,6.997 7.6,6.99 7.63,6.976 7.67,6.965 7.722,6.936 7.786,6.913 7.828,6.899 7.926,6.898 7.942,6.882 7.962,6.862 7.936,6.787 7.942,6.757 7.974,6.606 8.214,6.589 8.348,6.537 8.442,6.502 8.526,6.424 8.628,6.444 8.608,6.516 8.518,6.482 8.535,6.569 8.558,6.689 8.711,6.556 8.754,6.538 8.834,6.504 8.99,6.483 9.097,6.444 9.191,6.41 9.342,6.364 9.253,6.256 9.179,6.256 9.161,6.322 9.097,6.35 9.053,6.36 9.041,6.323 9.003,6.319 8.967,6.319 8.946,6.357 8.909,6.349 8.872,6.339 8.821,6.268 8.815,6.225 8.8,6.114 8.925,6.089 8.971,6.006 8.941,5.906 8.805,5.982 8.721,5.943 A 0.148,0.148 0 0 1 8.846,5.818 c 0.057,-0.01 0.185,0.01 0.22,0.031 0.02,0.017 0,0.066 0.03,0.094 0.034,0.031 0.081,0.01 0.125,0 C 9.237,5.867 9.115,5.9 9.127,5.849 9.217,5.79 9.392,5.833 9.502,5.819 9.565,5.809 9.633,5.756 9.69,5.724 9.744,5.694 9.79,5.644 9.846,5.694 9.862,5.747 9.814,5.759 9.783,5.787 A 2.182,2.182 0 0 0 9.503,6.1 c 0.048,0.048 0.135,0.022 0.218,0.031 0.032,0 0.06,0.025 0.094,0.031 0.04,0.01 0.094,-0.012 0.125,0 0.056,0.014 0.07,0.094 0.125,0.094 0.091,0 0.083,-0.125 0.031,-0.188 0.016,-0.063 0.053,-0.08 0.031,-0.125 C 10.087,5.861 9.917,5.957 9.908,5.849 9.903,5.782 9.978,5.774 10.002,5.724 9.992,5.595 10.108,5.589 10.096,5.474 10.09,5.426 10.036,5.425 10.002,5.38 9.985,5.357 9.992,5.304 9.972,5.286 9.902,5.227 9.762,5.242 9.752,5.13 9.748,5.064 9.762,5.015 9.752,4.942 9.743,4.875 9.686,4.675 9.627,4.662 9.552,4.646 9.498,4.775 9.408,4.817 A 0.389,0.389 0 0 1 9.22,4.848 C 9.188,4.838 9.131,4.816 9.126,4.754 9.12,4.684 9.176,4.672 9.189,4.599 9.179,4.555 9.139,4.569 9.095,4.536 9.046,4.499 9.005,4.42 8.939,4.411 8.906,4.411 8.846,4.44 8.814,4.441 A 0.475,0.475 0 0 1 8.659,4.411 C 8.679,4.401 8.699,4.387 8.722,4.38 8.843,4.338 8.972,4.32 9.096,4.286 9.118,4.276 9.137,4.261 9.159,4.255 9.19,4.288 9.215,4.358 9.253,4.38 9.278,4.394 9.316,4.37 9.347,4.38 9.445,4.41 9.521,4.465 9.628,4.443 9.665,4.378 9.554,4.369 9.598,4.318 9.669,4.328 9.729,4.358 9.785,4.381 9.862,4.325 9.913,4.315 9.91,4.225 9.91,4.179 9.848,4.162 9.816,4.131 9.879,4.12 9.94,4.109 10.004,4.1 c 0.005,0.017 0.021,0.03 0.031,0.03 0.038,0.01 0.165,-0.05 0.188,-0.062 0.004,0 -0.006,-0.027 0,-0.031 0.253,-0.027 0.521,-0.031 0.781,-0.031 m -2.5,0.469 C 8.482,4.518 8.458,4.554 8.411,4.569 8.423,4.634 8.327,4.673 8.317,4.724 8.311,4.759 8.315,4.818 8.317,4.849 8.337,5.169 8.066,5.326 7.754,5.319 7.693,5.376 7.724,5.488 7.691,5.568 7.663,5.635 7.571,5.698 7.503,5.693 7.453,5.693 7.378,5.613 7.378,5.568 7.378,5.511 7.458,5.477 7.408,5.412 7.416,5.368 7.515,5.326 7.503,5.256 7.491,5.182 7.407,5.237 7.315,5.226 A 0.923,0.923 0 0 1 7.127,5.162 C 7.227,5.095 7.332,5.036 7.44,4.974 7.534,4.918 7.625,4.869 7.72,4.818 A 8.67,8.67 0 0 1 8.502,4.475 m 5.374,0.749 c -0.027,0 -0.04,0.018 -0.063,0.031 -0.051,0.031 -0.054,0.079 -0.094,0.094 -0.054,0.021 -0.117,0.01 -0.125,0.063 -0.006,0.041 0.033,0.055 0.03,0.094 -0.02,0.049 -0.052,0.066 -0.062,0.125 0.068,0.11 0.229,-0.01 0.313,-0.031 0.038,-0.011 0.073,0 0.094,-0.031 0.023,-0.035 0.013,-0.105 0.03,-0.156 0.02,-0.056 0.07,-0.043 0.064,-0.094 -0.006,-0.05 -0.106,-0.102 -0.188,-0.094 m -7.312,0.78 c 0.06,0.017 0.196,0.194 0.063,0.25 A 0.931,0.931 0 0 1 6.406,6.287 C 6.361,6.277 6.329,6.201 6.282,6.193 6.19,6.177 6.064,6.293 6.001,6.193 6.017,6.133 6.087,6.15 6.157,6.13 6.282,6.096 6.455,5.977 6.563,6.005 m 0.25,0.312 c 0.03,0 0.056,0.06 0.094,0.063 0.036,0 0.072,-0.036 0.094,-0.03 0.056,0.014 0.084,0.114 0.03,0.155 -0.043,0 -0.06,-0.037 -0.093,-0.03 C 6.847,6.49 6.818,6.667 6.75,6.662 6.686,6.652 6.654,6.522 6.719,6.474 6.721,6.434 6.686,6.42 6.688,6.38 6.708,6.355 6.76,6.314 6.813,6.317 M 6.5,6.348 H 6.53 C 6.522,6.419 6.492,6.439 6.437,6.473 A 0.378,0.378 0 0 0 6.249,6.723 C 6.239,6.759 6.138,6.857 6.093,6.848 5.987,6.826 6.131,6.628 6.156,6.598 6.183,6.565 6.218,6.542 6.25,6.504 6.28,6.467 6.283,6.399 6.313,6.379 A 0.441,0.441 0 0 1 6.501,6.349 M 16,6.379 c 0.048,0.013 0.058,0.07 0.094,0.094 0.027,0.018 0.064,0.012 0.094,0.031 0.035,0.022 0.054,0.06 0.094,0.094 0.056,0.047 0.14,0.088 0.219,0.125 0.016,0.01 0.044,0.023 0.063,0.031 0.055,0.071 0.104,0.145 0.156,0.22 0.006,0.04 0.012,0.098 0.03,0.124 0.053,0.071 0.132,0.132 0.189,0.219 -0.001,0.083 0.036,0.133 0.094,0.156 0.073,0.124 0.149,0.248 0.219,0.375 0.029,0.058 0.035,0.129 0.063,0.188 -0.021,0 -0.043,0.01 -0.063,0 -0.066,-0.116 -0.41,-0.14 -0.438,0.03 -0.013,0.076 0.049,0.176 -0.063,0.189 -0.071,0.01 -0.153,-0.073 -0.25,-0.094 -0.04,-0.01 -0.094,0.014 -0.125,0 C 16.303,8.136 16.314,8.049 16.251,8.005 A 0.547,0.547 0 0 0 16.063,7.942 H 15.969 C 15.924,7.932 15.851,7.932 15.813,7.911 15.777,7.889 15.697,7.849 15.688,7.817 15.674,7.767 15.778,7.703 15.782,7.661 15.784,7.63 15.759,7.616 15.751,7.567 c -0.005,-0.03 0.006,-0.074 0,-0.094 -0.01,-0.034 -0.071,-0.062 -0.125,-0.063 -0.048,0 -0.084,0.03 -0.125,0.03 -0.06,0.002 -0.177,-0.036 -0.25,-0.03 -0.044,0 -0.084,0.028 -0.125,0.03 -0.116,0.01 -0.191,-0.01 -0.281,0 a 0.76,0.76 0 0 0 -0.25,0.064 c -0.031,0.014 -0.054,0.043 -0.094,0.063 a 0.619,0.619 0 0 1 -0.063,0.03 c -0.038,0.018 -0.09,0.054 -0.125,0.064 -0.052,0.013 -0.124,0 -0.22,0 -0.067,0 -0.186,-0.014 -0.187,-0.094 C 13.905,7.444 14.133,7.495 14.25,7.473 14.294,7.463 14.323,7.41 14.375,7.379 14.4,7.364 14.414,7.364 14.438,7.348 14.478,7.32 14.557,7.255 14.563,7.223 14.569,7.193 14.528,7.151 14.532,7.129 c 0.005,-0.028 0.057,-0.058 0.094,-0.094 0.056,-0.055 0.087,-0.12 0.156,-0.156 0.047,-0.025 0.135,-0.024 0.156,-0.063 0.005,-0.043 -0.001,-0.055 0,-0.094 0.029,-0.027 0.038,-0.058 0.063,-0.063 0.072,-0.016 0.135,0.035 0.219,0.031 0.036,0 0.086,-0.01 0.125,-0.031 0.033,-0.022 0.062,-0.045 0.094,-0.063 0.035,-0.018 0.05,-0.059 0.094,-0.063 0.105,-0.01 0.17,0.124 0.219,0.188 0.04,0.053 0.153,0.119 0.219,0.156 0.037,0.02 0.084,0.045 0.125,0.063 0.087,0.039 0.247,0.165 0.25,0.25 0.002,0.042 -0.038,0.054 -0.031,0.094 0.066,0.01 0.123,-0.06 0.125,-0.125 0,-0.041 -0.04,-0.05 -0.031,-0.094 0.03,-0.066 0.148,-0.01 0.188,-0.031 C 16.59,6.959 16.473,6.948 16.409,6.909 16.375,6.888 16.351,6.861 16.315,6.846 16.263,6.825 16.199,6.814 16.159,6.783 16.121,6.753 16.102,6.703 16.065,6.658 16.011,6.594 15.907,6.585 15.94,6.439 15.956,6.417 15.977,6.37 16.003,6.376 M 7.191,6.595 h 0.094 c 0.034,0.001 0.08,-0.018 0.094,0 C 7.357,6.683 7.167,6.658 7.098,6.626 7.102,6.593 7.148,6.599 7.192,6.595 M 6.879,6.751 c 0.023,0 0.039,-0.01 0.063,0 A 0.71,0.71 0 0 1 6.692,6.876 C 6.641,6.892 6.576,6.901 6.567,6.845 6.556,6.775 6.614,6.789 6.661,6.782 6.719,6.772 6.811,6.752 6.88,6.751 m 8.687,0 c -0.043,0.014 -0.066,0.113 0,0.125 0.03,-0.018 0.039,-0.068 0.03,-0.125 -0.016,-0.018 -0.016,0 -0.03,0 m -0.031,0.188 c -0.021,0.01 -0.04,0.01 -0.063,0.03 0,0.076 0.015,0.124 0,0.189 0.043,0.082 0.134,0.026 0.156,-0.031 0.026,-0.14 -0.03,-0.205 -0.094,-0.188 m 0.438,0.375 a 0.36,0.36 0 0 0 0.25,0.156 c 0.04,-0.03 0.044,-0.105 0.063,-0.156 H 16.13 c -0.06,0 -0.122,-0.028 -0.156,0 M 4.286,10 c 0.164,-0.01 0.212,0.216 0.344,0.281 0.033,0.017 0.082,0.022 0.125,0.031 0.035,0.01 0.061,0.02 0.094,0.031 0.071,0.024 0.162,0.01 0.22,0.031 0.084,0.038 0.145,0.207 0.218,0.25 0.004,0.043 -0.013,0.093 0,0.125 0.035,0.047 0.1,0.064 0.156,0.094 0.068,0.037 0.092,0.127 0.156,0.156 0.022,0.01 0.06,-0.01 0.094,0 0.088,0.027 0.112,0.147 0.188,0.125 0.05,-0.014 0.055,-0.078 0.063,-0.125 0.033,-0.036 0.074,-0.093 0.125,-0.094 0.083,0 0.095,0.075 0.125,0.156 0.017,0.046 0.051,0.108 0.063,0.156 0.021,0.083 0.017,0.325 0,0.375 -0.021,0.06 -0.106,0.089 -0.156,0.156 -0.024,0.03 -0.044,0.07 -0.063,0.094 -0.032,0.04 -0.069,0.057 -0.094,0.094 -0.014,0.02 -0.018,0.066 -0.031,0.094 -0.04,0.085 -0.096,0.148 -0.063,0.25 0.014,0.041 0.062,0.075 0.063,0.124 0,0.058 -0.115,0.093 -0.125,0.156 -0.007,0.047 0.048,0.126 0.063,0.188 0.011,0.047 0.097,0.094 0.125,0.125 0.047,0.053 0.082,0.121 0.125,0.188 0.085,0.13 0.136,0.28 0.219,0.406 0.043,0.066 0.127,0.119 0.156,0.188 0.015,0.035 -0.014,0.094 0,0.125 0.048,0.108 0.266,0.228 0.375,0.28 0.05,0.026 0.11,0 0.156,0.032 a 0.919,0.919 0 0 1 0.25,0.219 c 0.032,0.056 0.047,0.193 0.063,0.28 0.02,0.117 -0.005,0.217 0,0.344 0.004,0.07 0.03,0.12 0.03,0.188 0,0.024 0.002,0.07 0,0.094 -10e-4,0.083 0.008,0.166 0,0.25 a 0.744,0.744 0 0 0 0,0.125 c 0.005,0.041 0.029,0.057 0.032,0.094 0.002,0.039 -0.035,0.095 -0.031,0.125 0.009,0.084 0.077,0.142 0.094,0.219 0.013,0.06 0.039,0.208 0.03,0.28 -0.004,0.04 -0.024,0.084 -0.03,0.126 -0.004,0.033 0.005,0.062 0,0.094 -0.006,0.047 -0.034,0.08 -0.031,0.125 0.006,0.09 0.08,0.16 0.094,0.25 0.005,0.03 -0.001,0.065 0,0.094 0,0.027 0.023,0.038 0.03,0.063 A 6.979,6.979 0 0 1 6.789,16.562 7.065,7.065 0 0 1 6.133,15.999 L 6.102,15.968 A 7.23,7.23 0 0 1 5.508,15.312 C 5.404,15.18 5.29,15.045 5.195,14.907 5.139,14.824 5.091,14.743 5.039,14.657 5.007,14.606 4.976,14.553 4.945,14.501 A 6.577,6.577 0 0 1 4.695,14.032 C 4.646,13.931 4.615,13.824 4.57,13.719 A 6.742,6.742 0 0 1 4.29,12.969 C 4.235,12.785 4.203,12.599 4.164,12.407 4.134,12.261 4.091,12.117 4.07,11.969 4.06,11.888 4.047,11.801 4.04,11.719 a 7.108,7.108 0 0 1 0.031,-1.593 v -0.031 c 0.063,0 0.15,-0.092 0.22,-0.094 m 2.687,0.75 c 0.064,-0.03 0.084,0.117 0.03,0.125 -0.05,0.01 -0.08,-0.102 -0.03,-0.125"
       fill="#bcbcb2"
       color="#bcbcb2"
       id="path38"
       style="fill:#c5c5c5;fill-opacity:1" />
  </g>
</svg>
