<?xml version="1.0" encoding="UTF-8" standalone="no"?>
<svg
   width="64"
   height="64"
   version="1.1"
   viewBox="0 0 64 64"
   id="svg9"
   sodipodi:docname="folder-download.svg"
   inkscape:version="1.1.2 (0a00cf5339, 2022-02-04)"
   xmlns:inkscape="http://www.inkscape.org/namespaces/inkscape"
   xmlns:sodipodi="http://sodipodi.sourceforge.net/DTD/sodipodi-0.dtd"
   xmlns:xlink="http://www.w3.org/1999/xlink"
   xmlns="http://www.w3.org/2000/svg"
   xmlns:svg="http://www.w3.org/2000/svg"
   xmlns:rdf="http://www.w3.org/1999/02/22-rdf-syntax-ns#"
   xmlns:cc="http://creativecommons.org/ns#"
   xmlns:dc="http://purl.org/dc/elements/1.1/">
  <metadata
     id="metadata13">
    <rdf:RDF>
      <cc:Work
         rdf:about="">
        <dc:format>image/svg+xml</dc:format>
        <dc:type
           rdf:resource="http://purl.org/dc/dcmitype/StillImage" />
      </cc:Work>
    </rdf:RDF>
  </metadata>
  <sodipodi:namedview
     pagecolor="#ffffff"
     bordercolor="#666666"
     borderopacity="1"
     objecttolerance="10"
     gridtolerance="10"
     guidetolerance="10"
     inkscape:pageopacity="0"
     inkscape:pageshadow="2"
     inkscape:window-width="1920"
     inkscape:window-height="1020"
     id="namedview11"
     showgrid="true"
     inkscape:zoom="8.2307232"
     inkscape:cx="26.546877"
     inkscape:cy="50.481591"
     inkscape:window-x="0"
     inkscape:window-y="32"
     inkscape:window-maximized="1"
     inkscape:current-layer="svg9"
     inkscape:pagecheckerboard="0">
    <inkscape:grid
       type="xygrid"
       id="grid822" />
  </sodipodi:namedview>
  <defs
     id="defs3">
    <linearGradient
       inkscape:collect="always"
       id="linearGradient1450">
      <stop
         style="stop-color:#1d1f7f;stop-opacity:1;"
         offset="0"
         id="stop1446" />
      <stop
         style="stop-color:#1d1f7f;stop-opacity:0;"
         offset="1"
         id="stop1448" />
    </linearGradient>
    <style
       id="current-color-scheme"
       type="text/css">.ColorScheme-Text {
        color:#31363b;
        stop-color:#31363b;
      }
      .ColorScheme-Background {
        color:#eff0f1;
        stop-color:#eff0f1;
      }
      .ColorScheme-Highlight {
        color:#3daee9;
        stop-color:#3daee9;
      }
      .ColorScheme-ViewText {
        color:#31363b;
        stop-color:#31363b;
      }
      .ColorScheme-ViewBackground {
        color:#fcfcfc;
        stop-color:#fcfcfc;
      }
      .ColorScheme-ViewHover {
        color:#93cee9;
        stop-color:#93cee9;
      }
      .ColorScheme-ViewFocus{
        color:#3daee9;
        stop-color:#3daee9;
      }
      .ColorScheme-ButtonText {
        color:#31363b;
        stop-color:#31363b;
      }
      .ColorScheme-ButtonBackground {
        color:#eff0f1;
        stop-color:#eff0f1;
      }
      .ColorScheme-ButtonHover {
        color:#93cee9;
        stop-color:#93cee9;
      }
      .ColorScheme-ButtonFocus{
        color:#3daee9;
        stop-color:#3daee9;
      }</style>
    <linearGradient
       inkscape:collect="always"
       xlink:href="#linearGradient23491"
       id="linearGradient23493"
       x1="468.39737"
       y1="75.014999"
       x2="269.45798"
       y2="75.014999"
       gradientUnits="userSpaceOnUse"
       gradientTransform="matrix(0.26062836,0,0,0.26062836,-61.63683,7.053887)" />
    <linearGradient
       inkscape:collect="always"
       id="linearGradient23491">
      <stop
         style="stop-color:#dd905a;stop-opacity:0.26666668"
         offset="0"
         id="stop23487" />
      <stop
         style="stop-color:#971400;stop-opacity:0;"
         offset="1"
         id="stop23489" />
    </linearGradient>
    <linearGradient
       inkscape:collect="always"
       xlink:href="#linearGradient23938"
       id="linearGradient23940"
       x1="340.8002"
       y1="247.97968"
       x2="340.8002"
       y2="20.230062"
       gradientUnits="userSpaceOnUse"
       gradientTransform="matrix(0.26062836,0,0,0.26062836,-61.63683,7.053887)" />
    <linearGradient
       inkscape:collect="always"
       id="linearGradient23938">
      <stop
         style="stop-color:#283063;stop-opacity:1;"
         offset="0"
         id="stop23934" />
      <stop
         style="stop-color:#283063;stop-opacity:0;"
         offset="1"
         id="stop23936" />
    </linearGradient>
    <linearGradient
       inkscape:collect="always"
       xlink:href="#linearGradient4906"
       id="linearGradient8553"
       gradientUnits="userSpaceOnUse"
       x1="307.27316"
       y1="62.331623"
       x2="469.9902"
       y2="227.97437"
       gradientTransform="matrix(0.26062836,0,0,0.26062836,-61.63683,7.053887)" />
    <linearGradient
       inkscape:collect="always"
       id="linearGradient4906">
      <stop
         style="stop-color:#686868;stop-opacity:1"
         offset="0"
         id="stop4902" />
      <stop
         style="stop-color:#767676;stop-opacity:1"
         offset="0.73028177"
         id="stop8749" />
      <stop
         style="stop-color:#7d7d7d;stop-opacity:1"
         offset="0.73028177"
         id="stop8619" />
      <stop
         style="stop-color:#7f7f7f;stop-opacity:1"
         offset="1"
         id="stop4904" />
    </linearGradient>
    <linearGradient
       inkscape:collect="always"
       xlink:href="#linearGradient1450"
       id="linearGradient1452"
       x1="-347.64877"
       y1="125.82983"
       x2="215"
       y2="125.82983"
       gradientUnits="userSpaceOnUse"
       gradientTransform="matrix(0.26062836,0,0,0.26062836,-1.3517596,-3.0627662)" />
  </defs>
  <g
     id="g25512"
     style="opacity:0.690101"
     transform="matrix(0.25562033,0,0,0.26024142,-60.084767,6.194781)">
    <path
       id="path24886"
       style="opacity:1;fill:#000000;fill-opacity:0.0599543;stroke-width:1.62818;stroke-linecap:round;stroke-linejoin:round"
       d="m 265.88069,1.1605644 c -11.66237,0 -21.05198,9.3876296 -21.05198,21.0499896 v 47.33514 88.330056 31.02145 c 0,0.69264 0.0386,1.37603 0.10335,2.05114 0.003,0.0353 0.002,0.072 0.006,0.10732 0,0 0,0.002 0,0.002 0.0717,0.70871 0.17839,1.40708 0.31801,2.09286 1.95557,9.61068 10.41941,16.79865 20.62465,16.79865 h 184.96387 c 5.83118,0 11.09336,-2.34672 14.89857,-6.15141 3.32937,-3.32938 5.5428,-7.77631 6.04409,-12.74209 0.0714,-0.70877 0.10931,-1.42825 0.10931,-2.15648 V 157.87376 53.571874 38.184374 c 0,-11.66236 -9.38961,-21.05197 -21.05197,-21.05197 H 351.85352 L 336.29112,1.1605644 Z" />
    <path
       id="path25265"
       style="opacity:1;fill:#000000;fill-opacity:0.0599543;stroke-width:1.64192;stroke-linecap:round;stroke-linejoin:round"
       d="m 266.05838,1.1605644 c -11.76081,0 -21.22967,9.4668646 -21.22967,21.2276596 v 47.734667 89.075599 31.28328 c 0,0.69849 0.0389,1.38764 0.10422,2.06845 0.003,0.0356 0.002,0.0726 0.006,0.10823 0,0 0,0.002 0,0.002 0.0723,0.7147 0.1799,1.41896 0.3207,2.11053 1.97207,9.6918 10.50735,16.94044 20.79873,16.94044 h 186.52503 c 5.8804,0 11.187,-2.36653 15.02432,-6.20333 3.35747,-3.35749 5.58959,-7.84195 6.09511,-12.84964 0.072,-0.71475 0.11023,-1.44031 0.11023,-2.17468 V 159.19648 54.014246 38.496869 c 0,-11.760795 -9.46886,-21.229657 -21.22966,-21.229657 H 352.75685 L 337.0631,1.1605644 Z" />
    <path
       id="path25267"
       style="opacity:1;fill:#000000;fill-opacity:0.0599543;stroke-width:1.65613;stroke-linecap:round;stroke-linejoin:round"
       d="m 266.24217,1.1605644 c -11.86262,0 -21.41346,9.5488226 -21.41346,21.4114356 v 48.147925 89.846765 31.55411 c 0,0.70454 0.0392,1.39965 0.10512,2.08636 0.003,0.0359 0.002,0.0732 0.006,0.10916 0,0 0,0.002 0,0.002 0.0729,0.72089 0.18146,1.43125 0.32348,2.1288 1.98914,9.77571 10.59832,17.0871 20.97879,17.0871 h 188.13986 c 5.9313,0 11.28385,-2.38702 15.15439,-6.25703 3.38653,-3.38656 5.63798,-7.90984 6.14787,-12.96089 0.0726,-0.72093 0.11119,-1.45278 0.11119,-2.1935 V 160.56466 54.471821 38.820104 c 0,-11.862613 -9.55084,-21.41345 -21.41345,-21.41345 H 353.69123 L 337.86161,1.1605644 Z" />
    <path
       id="path25269"
       style="opacity:1;fill:#000000;fill-opacity:0.0599543;stroke-width:1.67342;stroke-linecap:round;stroke-linejoin:round"
       d="m 266.46577,1.1605644 c -11.98649,0 -21.63706,9.6485336 -21.63706,21.6350186 v 48.650696 90.784961 31.88361 c 0,0.7119 0.0396,1.41426 0.10622,2.10815 0.003,0.0363 0.002,0.074 0.006,0.1103 0,0 0,0.002 0,0.002 0.0737,0.72841 0.18336,1.44619 0.32686,2.15103 2.00991,9.87779 10.70899,17.26552 21.19785,17.26552 H 456.5701 c 5.99324,0 11.40168,-2.41194 15.31264,-6.32236 3.42189,-3.42193 5.69685,-7.99244 6.21206,-13.09623 0.0734,-0.72846 0.11236,-1.46796 0.11236,-2.21641 V 162.22919 55.028509 39.213353 c 0,-11.986485 -9.65058,-21.637054 -21.63706,-21.637054 H 354.828 L 338.83308,1.1605644 Z" />
    <path
       id="path25271"
       style="opacity:1;fill:#000000;fill-opacity:0.0599543;stroke-width:1.69376;stroke-linecap:round;stroke-linejoin:round"
       d="m 266.72878,1.1605644 c -12.13219,0 -21.90007,9.7658186 -21.90007,21.8980086 v 49.242081 91.888516 32.27118 c 0,0.72056 0.0401,1.43145 0.10751,2.13378 0.003,0.0367 0.002,0.0749 0.006,0.11164 0,0 0,0.002 0,0.002 0.0746,0.73727 0.18559,1.46377 0.33084,2.17718 2.03434,9.99786 10.83916,17.4754 21.45552,17.4754 H 459.1439 c 6.0661,0 11.54028,-2.44126 15.49878,-6.39922 3.46349,-3.46352 5.7661,-8.08959 6.28757,-13.25542 0.0743,-0.73732 0.11373,-1.48581 0.11373,-2.24335 V 164.1871 55.683314 39.675913 c 0,-12.13219 -9.76789,-21.900069 -21.90008,-21.900069 H 356.16512 L 339.97577,1.1605644 Z" />
  </g>
  <path
     id="path21815"
     style="fill:currentColor;stroke-width:0.260628"
     d="m 26.435657,6.967899 3.985782,4.090647 H 55.77472 c 2.98692,0 5.391749,2.404829 5.391749,5.391748 V 47.10445 c 0,0.177396 -0.0099,0.352426 -0.02649,0.52533 -6.15e-4,0.0091 -5.23e-4,0.01848 -0.0019,0.02747 -1.8e-5,1.66e-4 1.2e-5,2.59e-4 0,5.17e-4 -0.01836,0.181518 -0.04571,0.360379 -0.08145,0.536024 -0.500852,2.461449 -2.668582,4.302401 -5.282308,4.302401 H 8.4024451 c -1.4934604,0 -2.8411909,-0.601033 -3.8157632,-1.575476 C 3.7339757,50.068007 3.16708,48.929076 3.0386922,47.657256 3.0203659,47.475739 3.0107013,47.291463 3.0107013,47.104949 V 12.35913 c 0,-2.986918 2.4048303,-5.391243 5.3917486,-5.391243 z"
     class="ColorScheme-Highlight" />
  <path
     id="path1300"
     style="fill:url(#linearGradient1452);fill-opacity:1;stroke-width:0.417006;stroke-linecap:round;stroke-linejoin:round"
     d="m 26.435657,6.967899 3.985782,4.090647 H 55.77472 c 2.98692,0 5.391749,2.404829 5.391749,5.391748 V 47.10445 c 0,0.177396 -0.0099,0.352426 -0.02649,0.52533 -6.15e-4,0.0091 -5.23e-4,0.01848 -0.0019,0.02747 -1.8e-5,1.66e-4 1.2e-5,2.59e-4 0,5.17e-4 -0.01836,0.181518 -0.04571,0.360379 -0.08145,0.536024 -0.500852,2.461449 -2.668582,4.302401 -5.282308,4.302401 H 8.4024451 c -1.4934604,0 -2.8411909,-0.601033 -3.8157632,-1.575476 C 3.7339757,50.068007 3.16708,48.929076 3.0386922,47.657256 3.0203659,47.475739 3.0107013,47.291463 3.0107013,47.104949 V 12.35913 c 0,-2.986918 2.4048303,-5.391243 5.3917486,-5.391243 z"
     sodipodi:nodetypes="ccssscsccsscssssc" />
  <path
     id="path23181"
     style="fill:url(#linearGradient23493);fill-opacity:1;stroke-width:0.417006;stroke-linecap:round;stroke-linejoin:round"
     d="m 26.435657,6.967899 3.985782,4.090647 H 55.77472 c 2.98692,0 5.391749,2.404829 5.391749,5.391748 V 47.10445 c 0,0.177396 -0.0099,0.352426 -0.02649,0.52533 -6.15e-4,0.0091 -5.23e-4,0.01848 -0.0019,0.02747 -1.8e-5,1.66e-4 1.2e-5,2.59e-4 0,5.17e-4 -0.01836,0.181518 -0.04571,0.360379 -0.08145,0.536024 -0.500852,2.461449 -2.668582,4.302401 -5.282308,4.302401 H 8.4024451 c -1.4934604,0 -2.8411909,-0.601033 -3.8157632,-1.575476 C 3.7339757,50.068007 3.16708,48.929076 3.0386922,47.657256 3.0203659,47.475739 3.0107013,47.291463 3.0107013,47.104949 V 12.35913 c 0,-2.986918 2.4048303,-5.391243 5.3917486,-5.391243 z"
     sodipodi:nodetypes="ccssscsccsscssssc" />
  <path
     id="path23841"
     style="fill:url(#linearGradient23940);fill-opacity:1;stroke-width:0.417006;stroke-linecap:round;stroke-linejoin:round"
     d="m 26.435657,6.967899 3.985782,4.090647 H 55.77472 c 2.98692,0 5.391749,2.404829 5.391749,5.391748 V 47.10445 c 0,0.177396 -0.0099,0.352426 -0.02649,0.52533 -6.15e-4,0.0091 -5.23e-4,0.01848 -0.0019,0.02747 -1.8e-5,1.66e-4 1.2e-5,2.59e-4 0,5.17e-4 -0.01836,0.181518 -0.04571,0.360379 -0.08145,0.536024 -0.500852,2.461449 -2.668582,4.302401 -5.282308,4.302401 H 8.4024451 c -1.4934604,0 -2.8411909,-0.601033 -3.8157632,-1.575476 C 3.7339757,50.068007 3.16708,48.929076 3.0386922,47.657256 3.0203659,47.475739 3.0107013,47.291463 3.0107013,47.104949 V 12.35913 c 0,-2.986918 2.4048303,-5.391243 5.3917486,-5.391243 z"
     sodipodi:nodetypes="ccssscsccsscssssc" />
  <path
     id="rect877"
     style="fill:url(#linearGradient8553);fill-opacity:1;stroke-width:0.417006;stroke-linecap:round;stroke-linejoin:round"
     d="m 30,15 -3.985782,4.090646 H 8.4024604 c -2.9869183,0 -5.3917494,2.40483 -5.3917494,5.391749 v 30.567837 c 0,0.177396 0.00988,0.352419 0.02647,0.525329 8.007e-4,0.0091 5.209e-4,0.01848 0.00154,0.02747 1.86e-5,1.73e-4 -1.53e-5,2.66e-4 0,5.24e-4 0.018351,0.181517 0.045686,0.360379 0.081447,0.536018 0.5008514,2.461454 2.6685789,4.302406 5.2823058,4.302406 H 55.774733 c 1.493455,0 2.84119,-0.601033 3.815762,-1.575481 0.852704,-0.852704 1.4196,-1.991634 1.547992,-3.263455 0.01829,-0.181522 0.02797,-0.365793 0.02797,-0.552307 V 20.391238 c 0,-2.98692 -2.40483,-5.391244 -5.39175,-5.391244 z" />
  <path
     id="path20971"
     style="fill:#ffffff;fill-opacity:0.211088;stroke-width:0.417006;stroke-linecap:round;stroke-linejoin:round"
     d="m 30,15 -3.985782,4.090646 H 8.4024604 c -2.9869183,0 -5.3917494,2.40483 -5.3917494,5.391749 v 0.634264 c 0,-2.986918 2.4048311,-5.391748 5.3917494,-5.391748 H 26.271284 l 3.985782,-4.090645 H 55.77472 c 2.98692,0 5.391749,2.404324 5.391749,5.391243 V 20.391243 C 61.166469,17.404325 58.76164,15 55.77472,15 Z" />
  <path
     id="path21575"
     style="fill:#41323a;fill-opacity:0.380437;stroke-width:0.417006;stroke-linecap:round;stroke-linejoin:round"
     d="m 3.010711,53.950707 v 1.099525 c 0,0.177396 0.00988,0.352419 0.02647,0.525329 8.007e-4,0.0091 5.209e-4,0.01848 0.00154,0.02747 0,0 0,5.24e-4 0,5.24e-4 0.018351,0.181517 0.045686,0.360379 0.081447,0.536018 0.5008514,2.461454 2.6685789,4.302406 5.2823058,4.302406 H 55.774733 c 1.493455,0 2.84119,-0.601033 3.815762,-1.575481 0.852704,-0.852704 1.4196,-1.991634 1.547992,-3.263455 0.01829,-0.181522 0.02797,-0.365793 0.02797,-0.552307 v -1.099525 c 0,0.186513 -0.0097,0.370784 -0.02797,0.552307 -0.128392,1.27182 -0.695288,2.41075 -1.547992,3.263454 -0.974572,0.974448 -2.322307,1.575482 -3.815762,1.575482 H 8.4024604 c -2.6137277,0 -4.7814545,-1.840959 -5.2823058,-4.302406 -0.035755,-0.17564 -0.063099,-0.354502 -0.081447,-0.536019 0,0 0,-5.23e-4 0,-5.23e-4 -0.00105,-0.0091 -8.007e-4,-0.01848 -0.00154,-0.02748 -0.016604,-0.17291 -0.02647,-0.347934 -0.02647,-0.525329 z" />
  <path
     id="path24042"
     style="fill:#ffffff;fill-opacity:0.192501;stroke-width:0.417006;stroke-linecap:round;stroke-linejoin:round"
     d="m 8.4024604,6.967862 c -2.9869183,0 -5.3917494,2.404324 -5.3917494,5.391244 v 0.849075 c 0,-2.986919 2.4048311,-5.391237 5.3917494,-5.391237 H 26.080394 l 3.985782,4.090639 H 55.77472 c 2.98692,0 5.391749,2.404831 5.391749,5.391749 v -0.849075 c 0,-2.986918 -2.404829,-5.391749 -5.391749,-5.391749 H 30.421486 L 26.435704,6.967862 Z" />
  <g
     transform="matrix(1.3125,0,0,1.3125,17.651084,23.283486)"
     id="g40"
     style="fill:#c5c5c5;fill-opacity:1">
    <path
       d="M 8,3 V 9 H 9 V 4 h 4 v 5 h 1 V 3 Z M 5.793,10 5,10.816 11,17 17,10.816 16.207,10 11,15.367 Z M 4,17 v 2 h 14 v -2 h -1 v 1 H 5 v -1 z"
       fill="#bcbcb2"
       color="#bcbcb2"
       id="path38"
       style="fill:#c5c5c5;fill-opacity:1" />
  </g>
</svg>
