<?xml version="1.0" encoding="UTF-8" standalone="no"?>
<svg
   width="256"
   height="256"
   viewBox="0 0 67.73 67.73"
   version="1.1"
   id="svg54"
   sodipodi:docname="7zip.svg"
   inkscape:version="1.1.2 (0a00cf5339, 2022-02-04)"
   xmlns:inkscape="http://www.inkscape.org/namespaces/inkscape"
   xmlns:sodipodi="http://sodipodi.sourceforge.net/DTD/sodipodi-0.dtd"
   xmlns:xlink="http://www.w3.org/1999/xlink"
   xmlns="http://www.w3.org/2000/svg"
   xmlns:svg="http://www.w3.org/2000/svg">
  <sodipodi:namedview
     id="namedview56"
     pagecolor="#ffffff"
     bordercolor="#666666"
     borderopacity="1.0"
     inkscape:pageshadow="2"
     inkscape:pageopacity="0.0"
     inkscape:pagecheckerboard="0"
     showgrid="false"
     inkscape:zoom="1.7401456"
     inkscape:cx="82.177032"
     inkscape:cy="144.2408"
     inkscape:window-width="1920"
     inkscape:window-height="995"
     inkscape:window-x="0"
     inkscape:window-y="0"
     inkscape:window-maximized="1"
     inkscape:current-layer="svg54" />
  <defs
     id="defs28">
    <linearGradient
       id="f"
       x1="296"
       x2="296"
       y1="-212"
       y2="236"
       gradientUnits="userSpaceOnUse">
      <stop
         offset="0"
         stop-color="#FFFEFE"
         id="stop2" />
      <stop
         offset=".125"
         stop-color="#FFFEFE"
         stop-opacity=".098"
         id="stop4" />
      <stop
         offset=".925"
         stop-opacity=".098"
         id="stop6" />
      <stop
         offset="1"
         stop-opacity=".498"
         id="stop8" />
    </linearGradient>
    <clipPath
       id="e">
      <path
         d="M361.938-212C507.235-212 528-191.287 528-46.125v116.25C528 215.286 507.235 236 361.937 236H214.063C68.766 236 48 215.286 48 70.125v-116.25C48-191.287 68.765-212 214.063-212z"
         fill="#9F4AC8"
         id="path11" />
    </clipPath>
    <filter
       id="d"
       x="-0.2775"
       y="-0.032647059"
       width="1.555"
       height="1.0652941"
       color-interpolation-filters="sRGB">
      <feGaussianBlur
         stdDeviation="1.85"
         id="feGaussianBlur14" />
    </filter>
    <linearGradient
       id="c"
       x1="32"
       x2="272"
       y1="156"
       y2="156"
       gradientTransform="matrix(0 .2697 -.2697 0 75.941 221.64)"
       gradientUnits="userSpaceOnUse">
      <stop
         offset="0"
         stop-color="#EEEDED"
         id="stop17" />
      <stop
         offset="1"
         stop-color="#EEEDED"
         id="stop19" />
    </linearGradient>
    <filter
       id="b"
       x="-0.023199999"
       y="-0.024857142"
       width="1.0464"
       height="1.0497143"
       color-interpolation-filters="sRGB">
      <feGaussianBlur
         stdDeviation="2.32"
         id="feGaussianBlur22" />
    </filter>
    <filter
       id="a"
       x="-0.0116"
       y="-0.012428571"
       width="1.0232"
       height="1.0248571"
       color-interpolation-filters="sRGB">
      <feGaussianBlur
         stdDeviation="1.16"
         id="feGaussianBlur25" />
    </filter>
    <filter
       inkscape:collect="always"
       style="color-interpolation-filters:sRGB"
       id="filter4346"
       x="-0.014454287"
       width="1.0289086"
       y="-0.011357288"
       height="1.0227146">
      <feGaussianBlur
         inkscape:collect="always"
         stdDeviation="2.120027"
         id="feGaussianBlur4348" />
    </filter>
    <filter
       inkscape:collect="always"
       style="color-interpolation-filters:sRGB"
       id="filter4380"
       x="-0.057817147"
       width="1.1156343"
       y="-0.045429151"
       height="1.0908583">
      <feGaussianBlur
         inkscape:collect="always"
         stdDeviation="8.4801079"
         id="feGaussianBlur4382" />
    </filter>
    <linearGradient
       gradientUnits="userSpaceOnUse"
       y2="119.09284"
       x2="-35.310345"
       y1="401.58368"
       x1="529.65515"
       id="linearGradient4226"
       xlink:href="#linearGradient1021"
       inkscape:collect="always"
       gradientTransform="matrix(0,-0.11988342,-0.11987999,0,66.92596,62.967963)" />
    <linearGradient
       inkscape:collect="always"
       id="linearGradient1021">
      <stop
         style="stop-color:#bf60ea;stop-opacity:1"
         offset="0"
         id="stop1017" />
      <stop
         style="stop-color:#e694ef;stop-opacity:1"
         offset="1"
         id="stop1019" />
    </linearGradient>
    <linearGradient
       inkscape:collect="always"
       xlink:href="#linearGradient3150"
       id="linearGradient3152"
       x1="144.0004"
       y1="156"
       x2="144.0004"
       y2="556.92957"
       gradientUnits="userSpaceOnUse"
       gradientTransform="matrix(0.26457031,0,0,0.26457031,-6.6133145,-7.9368805)" />
    <linearGradient
       inkscape:collect="always"
       id="linearGradient3150">
      <stop
         style="stop-color:#e8c4f7;stop-opacity:1"
         offset="0"
         id="stop3146" />
      <stop
         style="stop-color:#de89ee;stop-opacity:1"
         offset="1"
         id="stop3148" />
    </linearGradient>
  </defs>
  <path
     style="color:#000000;display:inline;overflow:visible;visibility:visible;opacity:0.1;fill:#000000;fill-opacity:1;fill-rule:nonzero;stroke:none;stroke-width:2;marker:none;filter:url(#filter4346);enable-background:accumulate"
     d="M 189.84323,74 C 119.24979,74 111.65402,81.250835 112,151.98706 V 298 444.01294 C 111.65402,514.74917 119.24979,522 189.84323,522 H 386.15677 C 456.75021,522 462.16345,514.72616 464,444.01294 V 298 151.98706 C 464,81.249993 456.75021,74 386.15677,74 Z"
     id="rect4158-9"
     inkscape:connector-curvature="0"
     sodipodi:nodetypes="scccssscsss"
     transform="matrix(0.13228515,0,0,0.13228515,-4.4967525,-5.8203185)" />
  <path
     sodipodi:nodetypes="scccssscsss"
     inkscape:connector-curvature="0"
     id="path4350"
     d="M 189.84323,74 C 119.24979,74 111.65402,81.250835 112,151.98706 V 298 444.01294 C 111.65402,514.74917 119.24979,522 189.84323,522 H 386.15677 C 456.75021,522 464,514.75001 464,444.01294 V 298 151.98706 C 464,81.249993 456.75021,74 386.15677,74 Z"
     style="color:#000000;display:inline;overflow:visible;visibility:visible;opacity:0.1;fill:#000000;fill-opacity:1;fill-rule:nonzero;stroke:none;stroke-width:2;marker:none;filter:url(#filter4380);enable-background:accumulate"
     transform="matrix(0.13228515,0,0,0.13228515,-4.4967525,-5.8203185)" />
  <path
     style="color:#000000;display:inline;overflow:visible;visibility:visible;opacity:0.1;fill:#000000;fill-opacity:1;fill-rule:nonzero;stroke:none;stroke-width:0.269938;marker:none;enable-background:accumulate"
     d="m 20.323012,3.1750725 c -9.550674,0 -10.5783154,0.9763063 -10.5315071,10.5007535 V 33.336088 52.99635 C 9.7446969,62.5208 10.772338,63.497104 20.323012,63.497104 h 26.559504 c 9.550673,0 10.531507,-0.976193 10.531507,-10.500754 V 33.336088 13.675826 c 0,-9.5245607 -0.980834,-10.5007535 -10.531507,-10.5007535 z"
     id="rect4158-7"
     inkscape:connector-curvature="0"
     sodipodi:nodetypes="scccssscsss" />
  <path
     style="color:#000000;display:inline;overflow:visible;visibility:visible;fill:url(#linearGradient4226);fill-opacity:1;fill-rule:nonzero;stroke:none;stroke-width:0.26457;marker:none;enable-background:accumulate"
     d="m 46.584731,3.7042131 c 9.338467,0 10.343274,0.959178 10.297506,10.3165309 v 19.315344 19.315345 c 0.04577,9.357354 -0.959039,10.31653 -10.297506,10.31653 H 20.615367 c -9.338464,0 -10.297505,-0.959067 -10.297505,-10.31653 V 33.336088 14.020744 c 0,-9.3574642 0.959041,-10.3165309 10.297505,-10.3165309 z"
     id="rect4158"
     inkscape:connector-curvature="0"
     sodipodi:nodetypes="scccssscsss" />
  <rect
     style="color:#000000;display:inline;overflow:visible;visibility:visible;opacity:0.6;fill:url(#linearGradient3152);fill-opacity:1;fill-rule:nonzero;stroke:none;stroke-width:4.23312;stroke-linecap:butt;stroke-linejoin:miter;stroke-miterlimit:4;stroke-dasharray:none;stroke-dashoffset:0;stroke-opacity:1;marker:none;enable-background:accumulate"
     id="rect4233"
     width="4.2331247"
     height="59.263748"
     x="31.484917"
     y="3.7042131" />
  <rect
     style="color:#000000;display:inline;overflow:visible;visibility:visible;fill:#f9f9f9;fill-opacity:1;fill-rule:nonzero;stroke:none;stroke-width:4.23312;stroke-linecap:butt;stroke-linejoin:miter;stroke-miterlimit:4;stroke-dasharray:none;stroke-dashoffset:0;stroke-opacity:1;marker:none;enable-background:accumulate"
     id="rect4223"
     width="13.757656"
     height="8.4662495"
     x="14.552415"
     y="46.035465" />
  <path
     style="color:#000000;display:inline;overflow:visible;visibility:visible;fill:#5d5d5d;fill-opacity:1;fill-rule:nonzero;stroke:none;stroke-width:4.23312;stroke-linecap:butt;stroke-linejoin:miter;stroke-miterlimit:4;stroke-dasharray:none;stroke-dashoffset:0;stroke-opacity:1;marker:none;enable-background:accumulate"
     d="m 15.610696,48.152026 v 4.233125 h 2.116563 v -4.233125 z m 3.174844,0 v 4.233125 h 1.058282 v -4.233125 z m 2.116563,0 v 4.233125 h 2.116563 v -4.233125 z m 3.174844,0 v 4.233125 h 1.058281 v -4.233125 z m 2.116562,0 v 4.233125 h 1.058282 v -4.233125 z"
     id="rect4225"
     inkscape:connector-curvature="0" />
  <path
     style="color:#000000;display:inline;overflow:visible;visibility:visible;fill:#ffffff;fill-opacity:0.485981;fill-rule:nonzero;stroke:none;stroke-width:4.23312;stroke-linecap:butt;stroke-linejoin:miter;stroke-miterlimit:4;stroke-dasharray:none;stroke-dashoffset:0;stroke-opacity:1;marker:none;enable-background:accumulate"
     d="m 39.951165,47.093744 v 1.058282 H 52.65054 v -1.058282 z m 0,2.116563 v 1.058281 h 10.582813 v -1.058281 z m 0,2.116562 v 1.058282 H 52.65054 v -1.058282 z m 0,2.116563 v 1.058281 h 8.46625 v -1.058281 z"
     id="path1075"
     inkscape:connector-curvature="0" />
  <path
     style="color:#000000;display:inline;overflow:visible;visibility:visible;opacity:0.08;fill:#ffffff;fill-opacity:1;fill-rule:nonzero;stroke:none;stroke-width:0.26457;marker:none;enable-background:accumulate"
     d="M 33.601478,3.7042131 V 62.967963 h 12.984613 c 9.338465,0 10.054627,-0.962123 10.297574,-10.316435 V 33.336088 14.020647 c 0,-9.3574641 -0.959109,-10.3164339 -10.297574,-10.3164339 z"
     id="path4231"
     inkscape:connector-curvature="0"
     sodipodi:nodetypes="ccsscssc" />
  <path
     style="color:#000000;display:inline;overflow:visible;visibility:visible;opacity:0.3;fill:#ffffff;fill-opacity:1;fill-rule:nonzero;stroke:none;stroke-width:0.26457;marker:none;enable-background:accumulate"
     d="m 20.616759,3.7042131 c -9.338466,0 -10.343342,0.9593397 -10.297574,10.3166919 v 0.529141 C 10.273417,5.1926934 11.278293,4.2333538 20.616759,4.2333538 h 25.969227 c 9.338466,0 10.297573,0.9592282 10.297573,10.3166922 v -0.529141 c 0,-9.3574636 -0.959107,-10.3166919 -10.297573,-10.3166919 z"
     id="path931"
     inkscape:connector-curvature="0" />
  <path
     style="color:#000000;display:inline;overflow:visible;visibility:visible;opacity:0.2;fill:#000000;fill-opacity:1;fill-rule:nonzero;stroke:none;stroke-width:0.26457;marker:none;enable-background:accumulate"
     d="m 20.618187,62.967963 c -9.338466,0 -10.343342,-0.95934 -10.297574,-10.316692 v -0.52914 c -0.04577,9.357352 0.959108,10.316691 10.297574,10.316691 h 25.969227 c 9.338467,0 10.297574,-0.959228 10.297574,-10.316691 v 0.52914 c 0,9.357463 -0.959107,10.316692 -10.297574,10.316692 z"
     id="path931-8"
     inkscape:connector-curvature="0" />
</svg>
