<?xml version="1.0" encoding="UTF-8" standalone="no"?>
<svg
   width="256"
   height="256"
   version="1.1"
   id="svg32"
   sodipodi:docname="accessibility.svg"
   inkscape:version="1.1.2 (0a00cf5339, 2022-02-04)"
   xmlns:inkscape="http://www.inkscape.org/namespaces/inkscape"
   xmlns:sodipodi="http://sodipodi.sourceforge.net/DTD/sodipodi-0.dtd"
   xmlns:xlink="http://www.w3.org/1999/xlink"
   xmlns="http://www.w3.org/2000/svg"
   xmlns:svg="http://www.w3.org/2000/svg">
  <sodipodi:namedview
     id="namedview34"
     pagecolor="#ffffff"
     bordercolor="#666666"
     borderopacity="1.0"
     inkscape:pageshadow="2"
     inkscape:pageopacity="0.0"
     inkscape:pagecheckerboard="0"
     showgrid="false"
     inkscape:zoom="1.2402344"
     inkscape:cx="101.19055"
     inkscape:cy="124.17008"
     inkscape:window-width="1920"
     inkscape:window-height="1022"
     inkscape:window-x="0"
     inkscape:window-y="0"
     inkscape:window-maximized="1"
     inkscape:current-layer="svg32" />
  <defs
     id="defs22">
    <linearGradient
       id="d"
       x1="296"
       x2="296"
       y1="-212"
       y2="236"
       gradientUnits="userSpaceOnUse">
      <stop
         offset="0"
         stop-color="#FFFEFE"
         id="stop2" />
      <stop
         offset=".125"
         stop-color="#FFFEFE"
         stop-opacity=".098"
         id="stop4" />
      <stop
         offset=".925"
         stop-opacity=".098"
         id="stop6" />
      <stop
         offset="1"
         stop-opacity=".498"
         id="stop8" />
    </linearGradient>
    <clipPath
       id="c">
      <path
         d="M361.938-212C507.235-212 528-191.287 528-46.125v116.25C528 215.286 507.235 236 361.937 236H214.063C68.766 236 48 215.286 48 70.125v-116.25C48-191.287 68.765-212 214.063-212z"
         fill="#9F4AC8"
         id="path11" />
    </clipPath>
    <linearGradient
       id="b"
       x1="32"
       x2="272"
       y1="156"
       y2="156"
       gradientTransform="rotate(60 162.659 119.325)"
       gradientUnits="userSpaceOnUse">
      <stop
         offset="0"
         stop-color="#006FF4"
         id="stop14" />
      <stop
         offset="1"
         stop-color="#0984FE"
         id="stop16" />
    </linearGradient>
    <filter
       id="a"
       x="-0.023199999"
       y="-0.024857142"
       width="1.0464"
       height="1.0497143"
       color-interpolation-filters="sRGB">
      <feGaussianBlur
         stdDeviation="2.32"
         id="feGaussianBlur19" />
    </filter>
    <filter
       inkscape:collect="always"
       style="color-interpolation-filters:sRGB"
       id="filter4346"
       x="-0.011351265"
       width="1.0227025"
       y="-0.011357288"
       height="1.0227146">
      <feGaussianBlur
         inkscape:collect="always"
         stdDeviation="2.120027"
         id="feGaussianBlur4348" />
    </filter>
    <filter
       inkscape:collect="always"
       style="color-interpolation-filters:sRGB"
       id="filter4380"
       x="-0.045405058"
       width="1.0908101"
       y="-0.045429151"
       height="1.0908583">
      <feGaussianBlur
         inkscape:collect="always"
         stdDeviation="8.4801079"
         id="feGaussianBlur4382" />
    </filter>
    <linearGradient
       inkscape:collect="always"
       xlink:href="#linearGradient916"
       id="linearGradient1694"
       x1="39.997299"
       y1="155.99969"
       x2="263.99731"
       y2="155.99969"
       gradientUnits="userSpaceOnUse"
       gradientTransform="rotate(90,152.45454,130.07741)" />
    <linearGradient
       inkscape:collect="always"
       id="linearGradient916">
      <stop
         style="stop-color:#2f5fdd;stop-opacity:1"
         offset="0"
         id="stop912" />
      <stop
         style="stop-color:#5884f4;stop-opacity:1"
         offset="1"
         id="stop914" />
    </linearGradient>
  </defs>
  <path
     style="color:#000000;display:inline;overflow:visible;visibility:visible;opacity:0.1;fill:#000000;fill-opacity:1;fill-rule:nonzero;stroke:none;stroke-width:2;marker:none;filter:url(#filter4346);enable-background:accumulate"
     d="M 141.84323,74 C 71.24979,74 63.65402,81.250835 64,151.98706 V 298 444.01294 C 63.65402,514.74917 71.24979,522 141.84323,522 H 434.15677 C 504.75021,522 513.9371,514.72348 512,444.01294 V 298 151.98706 C 512,81.249993 504.75021,74 434.15677,74 Z"
     id="rect4158-9"
     inkscape:connector-curvature="0"
     sodipodi:nodetypes="scccssscsss"
     transform="matrix(0.5,0,0,0.5,-17.465052,-18.379833)" />
  <path
     sodipodi:nodetypes="scccssscsss"
     inkscape:connector-curvature="0"
     id="path4350"
     d="M 141.84323,74 C 71.24979,74 63.65402,81.250835 64,151.98706 V 298 444.01294 C 63.65402,514.74917 71.24979,522 141.84323,522 H 434.15677 C 504.75021,522 513.9371,514.72348 512,444.01294 V 298 151.98706 C 512,81.249993 504.75021,74 434.15677,74 Z"
     style="color:#000000;display:inline;overflow:visible;visibility:visible;opacity:0.1;fill:#000000;fill-opacity:1;fill-rule:nonzero;stroke:none;stroke-width:2;marker:none;filter:url(#filter4380);enable-background:accumulate"
     transform="matrix(0.5,0,0,0.5,-17.465052,-18.379531)" />
  <path
     style="color:#000000;display:inline;overflow:visible;visibility:visible;opacity:0.1;fill:#000000;fill-opacity:1;fill-rule:nonzero;stroke:none;stroke-width:1.02029;marker:none;enable-background:accumulate"
     d="m 52.346548,15.620167 c -36.098811,0 -39.983003,3.69016 -39.806081,39.68984 v 74.310163 74.31016 c -0.176922,35.99969 3.70727,39.68984 39.806081,39.68984 H 200.73386 c 36.09881,0 40.77464,-3.70276 39.80608,-39.68984 V 129.62017 55.310007 c 0,-36.00011 -3.70727,-39.68984 -39.80608,-39.68984 z"
     id="rect4158-7"
     inkscape:connector-curvature="0"
     sodipodi:nodetypes="scccssscsss" />
  <path
     style="color:#000000;display:inline;overflow:visible;visibility:visible;fill:url(#linearGradient1694);fill-opacity:1;fill-rule:nonzero;stroke:none;stroke-width:1;marker:none;enable-background:accumulate"
     d="m 199.60791,17.620163 c 35.29673,0 39.09461,3.62542 38.92162,38.99353 v 73.006467 73.00648 c 0.17299,35.36812 -3.62489,38.99353 -38.92162,38.99353 H 53.451166 c -35.29671,0 -38.92161,-3.625 -38.92161,-38.99353 V 129.62016 56.613693 c 0,-35.36853 3.6249,-38.99353 38.92161,-38.99353 z"
     id="rect4158"
     inkscape:connector-curvature="0"
     sodipodi:nodetypes="scccssscsss" />
  <path
     style="color:#000000;display:inline;overflow:visible;visibility:visible;opacity:0.05;fill:#ffffff;fill-opacity:1;fill-rule:nonzero;stroke:none;stroke-width:1;marker:none;enable-background:accumulate"
     d="m 14.529089,129.62047 v 8 65.00586 c 0,35.36853 3.625165,38.99414 38.921875,38.99414 H 199.60721 c 35.29673,0 39.09486,-3.62602 38.92187,-38.99414 v -65.00586 -8 z"
     id="rect4158-5"
     inkscape:connector-curvature="0"
     sodipodi:nodetypes="ccssscccc" />
  <path
     inkscape:connector-curvature="0"
     style="font-style:normal;font-variant:normal;font-weight:normal;font-stretch:normal;font-size:15px;line-height:125%;font-family:Ubuntu;-inkscape-font-specification:Ubuntu;text-align:center;letter-spacing:0px;word-spacing:0px;writing-mode:lr-tb;text-anchor:middle;display:inline;fill:#faf8f6;fill-opacity:1;stroke:none;stroke-width:1;enable-background:new"
     d="m 126.53495,45.622369 c -46.345652,0 -84.000002,37.65498 -84.000002,83.998061 0,46.34307 37.65435,83.99804 84.000002,83.99804 46.34563,0 83.99999,-37.65497 83.99999,-83.99804 0,-46.343081 -37.65436,-83.998061 -83.99999,-83.998061 z m 0,7.996094 c 42.01955,0 75.99999,33.979836 75.99999,76.001967 0,42.02213 -33.98044,76.00194 -75.99999,76.00194 -42.019572,0 -76.000002,-33.97981 -76.000002,-76.00194 0,-42.022131 33.98043,-76.001967 76.000002,-76.001967 z m -0.002,20.003906 a 16,16 0 0 0 -16.00001,16 16,16 0 0 0 16.00001,16.000011 16,16 0 0 0 15.99999,-16.000011 16,16 0 0 0 -15.99999,-16 z M 78.532988,113.62238 v 8 l 9.91797,0.0156 c 4.16942,-4e-5 7.71221,0.6015 10.62892,1.87891 2.865072,1.19041 5.214972,2.94566 6.941402,5.24219 1.76905,2.20337 2.99745,4.85456 3.6875,7.89061 0.69475,3.05702 0.79505,6.28531 1.00781,9.69922 l 0.004,0.0469 -0.0743,39.22656 h 7.88672 v -28 c 0,-4.41827 3.58172,-8 8,-8 4.41827,0 7.99999,3.58173 7.99999,8 v 28 h 8 l 0.0742,-39.17968 c 0.007,-3.53983 0.33676,-6.8059 1.01562,-9.79297 0.69118,-3.04108 1.92156,-5.69683 3.69532,-7.90235 1.72652,-2.29138 4.07562,-4.04619 6.9375,-5.23437 2.91528,-1.27518 7.04264,-1.875 10.62109,-1.875 h 9.65627 v -8.01562 z"
     id="path4525" />
  <path
     style="color:#000000;display:inline;overflow:visible;visibility:visible;opacity:0.3;fill:#ffffff;fill-opacity:1;fill-rule:nonzero;stroke:none;stroke-width:1;marker:none;enable-background:accumulate"
     d="m 53.456828,17.620167 c -35.296728,0 -39.09487,3.62603 -38.92188,38.99414 v 2 c -0.17299,-35.36811 3.625152,-38.99414 38.92188,-38.99414 H 199.61306 c 35.29673,0 38.92188,3.62561 38.92188,38.99414 v -2 c 0,-35.36853 -3.62515,-38.99414 -38.92188,-38.99414 z"
     id="path931"
     inkscape:connector-curvature="0"
     sodipodi:nodetypes="sccsscsss" />
  <path
     style="color:#000000;display:inline;overflow:visible;visibility:visible;opacity:0.2;fill:#000000;fill-opacity:1;fill-rule:nonzero;stroke:none;stroke-width:1;marker:none;enable-background:accumulate"
     d="m 53.462228,241.62017 c -35.296731,0 -39.094875,-3.62603 -38.921885,-38.99414 v -2 c -0.17299,35.36811 3.625154,38.99414 38.921885,38.99414 H 199.61846 c 35.29673,0 38.92188,-3.62561 38.92188,-38.99414 v 2 c 0,35.36853 -3.62515,38.99414 -38.92188,38.99414 z"
     id="path931-8"
     inkscape:connector-curvature="0"
     sodipodi:nodetypes="sccsscsss" />
</svg>
