<?xml version="1.0" encoding="UTF-8" standalone="no"?>
<svg
   width="256"
   height="256"
   viewBox="0 0 67.73 67.73"
   version="1.1"
   id="svg44"
   sodipodi:docname="Amazon-www.amazon.fr.svg"
   inkscape:version="1.1.2 (0a00cf5339, 2022-02-04)"
   xmlns:inkscape="http://www.inkscape.org/namespaces/inkscape"
   xmlns:sodipodi="http://sodipodi.sourceforge.net/DTD/sodipodi-0.dtd"
   xmlns:xlink="http://www.w3.org/1999/xlink"
   xmlns="http://www.w3.org/2000/svg"
   xmlns:svg="http://www.w3.org/2000/svg">
  <sodipodi:namedview
     id="namedview46"
     pagecolor="#ffffff"
     bordercolor="#666666"
     borderopacity="1.0"
     inkscape:pageshadow="2"
     inkscape:pageopacity="0.0"
     inkscape:pagecheckerboard="0"
     showgrid="false"
     inkscape:zoom="2.5664062"
     inkscape:cx="128"
     inkscape:cy="128"
     inkscape:window-width="1920"
     inkscape:window-height="1030"
     inkscape:window-x="0"
     inkscape:window-y="24"
     inkscape:window-maximized="1"
     inkscape:current-layer="svg44" />
  <defs
     id="defs24">
    <linearGradient
       id="a">
      <stop
         offset="0"
         stop-color="#138EFE"
         id="stop2" />
      <stop
         offset="1"
         stop-color="#138EFE"
         id="stop4" />
    </linearGradient>
    <linearGradient
       id="e"
       x1="296"
       x2="296"
       y1="-212"
       y2="202.4"
       gradientUnits="userSpaceOnUse">
      <stop
         offset="0"
         stop-color="#FFFEFE"
         id="stop7" />
      <stop
         offset=".135"
         stop-color="#FFFEFE"
         stop-opacity=".098"
         id="stop9" />
      <stop
         offset="1"
         stop-color="#FFFEFE"
         stop-opacity="0"
         id="stop11" />
    </linearGradient>
    <clipPath
       id="d">
      <path
         d="M361.938-212C507.235-212 528-191.287 528-46.125v116.25C528 215.286 507.235 236 361.937 236H214.063C68.766 236 48 215.286 48 70.125v-116.25C48-191.287 68.765-212 214.063-212z"
         fill="#9F4AC8"
         id="path14" />
    </clipPath>
    <filter
       id="c"
       width="1.0464"
       height="1.0497143"
       x="-0.023199999"
       y="-0.024857142"
       color-interpolation-filters="sRGB">
      <feGaussianBlur
         stdDeviation="2.32"
         id="feGaussianBlur17" />
    </filter>
    <filter
       id="b"
       width="1.0232"
       height="1.0248571"
       x="-0.0116"
       y="-0.012428571"
       color-interpolation-filters="sRGB">
      <feGaussianBlur
         stdDeviation="1.16"
         id="feGaussianBlur20" />
    </filter>
    <linearGradient
       id="f"
       x1="160.305"
       x2="161.33"
       y1="240.139"
       y2="135.579"
       gradientUnits="userSpaceOnUse"
       xlink:href="#a" />
    <filter
       inkscape:collect="always"
       style="color-interpolation-filters:sRGB"
       id="filter58492"
       x="-0.011999856"
       width="1.0239997"
       y="-0.012000144"
       height="1.0240003">
      <feGaussianBlur
         inkscape:collect="always"
         stdDeviation="1.1200135"
         id="feGaussianBlur58494" />
    </filter>
    <filter
       inkscape:collect="always"
       style="color-interpolation-filters:sRGB"
       id="filter58449"
       x="-0.047999425"
       width="1.0959989"
       y="-0.048000575"
       height="1.0960012">
      <feGaussianBlur
         inkscape:collect="always"
         stdDeviation="4.4800539"
         id="feGaussianBlur58451" />
    </filter>
    <linearGradient
       inkscape:collect="always"
       xlink:href="#linearGradient36942"
       id="linearGradient1694"
       x1="38.309559"
       y1="270.69043"
       x2="263.99759"
       y2="267.99701"
       gradientUnits="userSpaceOnUse"
       gradientTransform="matrix(0,0.26457031,-0.26457031,0,74.860828,-6.2842296)" />
    <linearGradient
       id="linearGradient36942"
       inkscape:collect="always">
      <stop
         id="stop36938"
         offset="0"
         style="stop-color:#ffffff;stop-opacity:1" />
      <stop
         id="stop36940"
         offset="1"
         style="stop-color:#ffffff;stop-opacity:1" />
    </linearGradient>
    <linearGradient
       inkscape:collect="always"
       xlink:href="#linearGradient1013"
       id="linearGradient1108"
       x1="296"
       y1="-212"
       x2="296"
       y2="202.40001"
       gradientUnits="userSpaceOnUse" />
    <linearGradient
       id="linearGradient1013"
       inkscape:collect="always">
      <stop
         id="stop1005"
         offset="0"
         style="stop-color:#ffffff;stop-opacity:1;" />
      <stop
         style="stop-color:#ffffff;stop-opacity:0.09803922"
         offset="0.13513513"
         id="stop1007" />
      <stop
         style="stop-color:#ffffff;stop-opacity:0"
         offset="1"
         id="stop1009" />
    </linearGradient>
    <clipPath
       clipPathUnits="userSpaceOnUse"
       id="clipPath1082-3">
      <path
         sodipodi:nodetypes="sssssssss"
         inkscape:connector-curvature="0"
         id="path1084-6"
         d="M 361.9375,-212 C 507.2348,-212 528,-191.28677 528,-46.125 V 70.125 C 528,215.28618 507.2348,236 361.9375,236 H 214.0625 C 68.7652,236 48,215.28618 48,70.125 V -46.125 C 48,-191.28677 68.7652,-212 214.0625,-212 Z"
         style="display:inline;opacity:1;fill:#8c59d9;fill-opacity:1;stroke:none;stroke-width:2;stroke-linecap:round;stroke-linejoin:round;stroke-miterlimit:4;stroke-dasharray:none;stroke-dashoffset:0;stroke-opacity:1;enable-background:new" />
    </clipPath>
    <linearGradient
       inkscape:collect="always"
       xlink:href="#linearGradient1018"
       id="linearGradient2054"
       gradientUnits="userSpaceOnUse"
       x1="184"
       y1="164"
       x2="184"
       y2="268"
       gradientTransform="matrix(0.26457031,0,0,0.26457031,-6.626033,-7.3431458)" />
    <linearGradient
       inkscape:collect="always"
       id="linearGradient1018">
      <stop
         id="stop1016"
         offset="0"
         style="stop-color:#37a6e6;stop-opacity:1" />
      <stop
         id="stop1014"
         offset="1"
         style="stop-color:#1a7fd4;stop-opacity:1;" />
    </linearGradient>
  </defs>
  <path
     style="color:#000000;display:inline;overflow:visible;visibility:visible;opacity:0.1;fill:#000000;fill-opacity:1;fill-rule:nonzero;stroke:none;stroke-width:1;marker:none;filter:url(#filter58492);enable-background:accumulate"
     d="m 225.07297,44.99999 c 35.29673,0 39.09461,3.62542 38.92162,38.99353 v 73.00647 73.00648 C 264.16758,265.37459 260.3697,269 225.07297,269 H 78.916218 c -35.29671,0 -38.92161,-3.625 -38.92161,-38.99353 V 156.99999 83.99352 c 0,-35.36853 3.6249,-38.99353 38.92161,-38.99353 z"
     id="rect4158-7"
     inkscape:connector-curvature="0"
     sodipodi:nodetypes="scccssscsss"
     transform="matrix(0.26457031,0,0,0.26457031,-6.626033,-7.3431458)" />
  <path
     style="color:#000000;display:inline;overflow:visible;visibility:visible;opacity:0.2;fill:#000000;fill-opacity:1;fill-rule:nonzero;stroke:none;stroke-width:1;marker:none;filter:url(#filter58449);enable-background:accumulate"
     d="m 225.07297,44.99999 c 35.29673,0 39.09461,3.62542 38.92162,38.99353 v 73.00647 73.00648 C 264.16758,265.37459 260.3697,269 225.07297,269 H 78.916218 c -35.29671,0 -38.92161,-3.625 -38.92161,-38.99353 V 156.99999 83.99352 c 0,-35.36853 3.6249,-38.99353 38.92161,-38.99353 z"
     id="rect4158-1"
     inkscape:connector-curvature="0"
     sodipodi:nodetypes="scccssscsss"
     transform="matrix(0.26457031,0,0,0.26457031,-6.626033,-7.3431458)" />
  <path
     style="color:#000000;display:inline;overflow:visible;visibility:visible;fill:url(#linearGradient1694);fill-opacity:1;fill-rule:nonzero;stroke:none;stroke-width:0.26457;marker:none;enable-background:accumulate"
     d="m 52.921592,4.2978671 c 9.338467,0 10.343273,0.959178 10.297505,10.3165299 V 33.92974 53.245087 c 0.04577,9.357355 -0.959038,10.316531 -10.297505,10.316531 H 14.252855 c -9.3384612,0 -10.2975022,-0.959068 -10.2975022,-10.316531 V 33.92974 14.614397 c 0,-9.3574629 0.959041,-10.3165299 10.2975022,-10.3165299 z"
     id="rect4158"
     inkscape:connector-curvature="0"
     sodipodi:nodetypes="scccssscsss" />
  <path
     sodipodi:nodetypes="sssssssss"
     inkscape:connector-curvature="0"
     id="path1068"
     d="M 361.9375,-212 C 507.2348,-212 528,-191.28677 528,-46.125 V 70.125 C 528,215.28618 507.2348,236 361.9375,236 H 214.0625 C 68.7652,236 48,215.28618 48,70.125 V -46.125 C 48,-191.28677 68.7652,-212 214.0625,-212 Z"
     style="display:inline;opacity:0.5;fill:none;fill-opacity:1;stroke:url(#linearGradient1108);stroke-width:8;stroke-linecap:round;stroke-linejoin:round;stroke-miterlimit:4;stroke-dasharray:none;stroke-dashoffset:0;stroke-opacity:1;enable-background:new"
     clip-path="url(#clipPath1082-3)"
     transform="matrix(0.13228515,0,0,0.13228515,-4.5094705,32.342401)" />
  <g
     transform="matrix(0.07555643,0,0,0.07555643,22.291173,-31.54794)"
     id="g845"
     style="display:inline;stroke-width:3.50163;enable-background:new">
    <path
       inkscape:connector-curvature="0"
       style="fill:#ff9900;fill-opacity:1;fill-rule:evenodd;stroke:none;stroke-width:3.50163"
       id="path8"
       d="m 222.02642,784.73404 c -34.99948,25.79739 -85.72909,39.56123 -129.406339,39.56123 -61.24255,0 -116.37656,-22.65135 -158.08757,-60.32496 -3.2771,-2.96252 -0.34083,-6.9999 3.59171,-4.69283 45.01431,26.19064 100.67269,41.94697 158.16623,41.94697 38.774689,0 81.429499,-8.02237 120.649899,-24.67006 5.92501,-2.51683 10.87999,3.88009 5.08607,8.17965" />
    <path
       inkscape:connector-curvature="0"
       style="fill:#ff9900;fill-opacity:1;fill-rule:evenodd;stroke:none;stroke-width:3.50163"
       id="path10"
       d="m 236.57678,768.08635 c -4.45688,-5.71527 -29.57261,-2.70033 -40.84585,-1.36327 -3.43442,0.41947 -3.95874,-2.56925 -0.86517,-4.71905 20.00346,-14.07844 52.82696,-10.01483 56.65462,-5.2958 3.82764,4.74526 -0.99624,37.64741 -19.79373,53.35128 -2.88385,2.41195 -5.63662,1.12734 -4.35198,-2.07113 4.2209,-10.53917 13.68519,-34.16054 9.20211,-39.90203" />
    <path
       inkscape:connector-curvature="0"
       style="fill:#221f1f;fill-rule:evenodd;stroke:none;stroke-width:3.50163"
       id="path12"
       d="m 196.51744,662.61598 v -13.68519 c 0,-2.07113 1.57301,-3.46062 3.46062,-3.46062 h 61.26875 c 1.96628,0 3.53929,1.41571 3.53929,3.46062 v 11.71893 c -0.0262,1.96626 -1.67788,4.53551 -4.61418,8.59912 l -31.74859,45.32893 c 11.79759,-0.28837 24.25059,1.46814 34.94706,7.49802 2.41195,1.36327 3.06737,3.35575 3.25089,5.32203 v 14.60278 c 0,1.99248 -2.20222,4.32576 -4.5093,3.1198 -18.84992,-9.88376 -43.887,-10.95865 -64.72939,0.10487 -2.12356,1.15354 -4.35199,-1.15354 -4.35199,-3.14602 v -13.86871 c 0,-2.22843 0.0262,-6.02989 2.25463,-9.41186 l 36.78224,-52.74829 h -32.01076 c -1.96626,0 -3.53927,-1.38948 -3.53927,-3.43441" />
    <path
       inkscape:connector-curvature="0"
       style="fill:#221f1f;fill-rule:evenodd;stroke:none;stroke-width:3.50163"
       id="path14-3"
       d="m -26.981169,748.00424 h -18.64017 c -1.78273,-0.13107 -3.19845,-1.46813 -3.32954,-3.17224 v -95.66524 c 0,-1.91383 1.59923,-3.43442 3.59171,-3.43442 h 17.38176 c 1.80898,0.0786 3.25089,1.46814 3.38199,3.19845 v 12.50545 h 0.34082 c 4.53551,-12.08598 13.05597,-17.7226 24.53896043,-17.7226 11.66648957,0 18.95476957,5.63662 24.19813957,17.7226 4.5093,-12.08598 14.76008,-17.7226 25.74495,-17.7226 7.81262,0 16.35931,3.22467 21.57646,10.46052 5.89879,8.04857 4.69281,19.74128 4.69281,29.99208 l -0.02621,60.37739 c 0,1.91383 -1.59923,3.46061 -3.59171,3.46061 h -18.61397 c -1.86138,-0.13107 -3.35574,-1.62543 -3.35574,-3.46061 v -50.70338 c 0,-4.03739 0.36702,-14.10466 -0.52434,-17.93233 -1.38949,-6.42311 -5.55797,-8.23209 -10.95865,-8.23209 -4.5093,0 -9.22833,3.01494 -11.14216,7.83885 -1.91383,4.8239 -1.73031,12.89867 -1.73031,18.32557 v 50.70338 c 0,1.91383 -1.59923,3.46061 -3.59171,3.46061 H 4.3479714 c -1.88761,-0.13107 -3.35575997,-1.62543 -3.35575997,-3.46061 l -0.02621,-50.70338 c 0,-10.67025 1.75650997,-26.37415 -11.48298043,-26.37415 -13.39682,0 -12.87248,15.31063 -12.87248,26.37415 v 50.70338 c 0,1.91383 -1.59923,3.46061 -3.59171,3.46061" />
    <path
       inkscape:connector-curvature="0"
       style="fill:#221f1f;fill-rule:evenodd;stroke:none;stroke-width:3.50163"
       id="path16"
       d="m 317.53439,643.71364 c 27.65877,0 42.62858,23.75246 42.62858,53.95427 0,29.17934 -16.54284,52.32881 -42.62858,52.32881 -27.16066,0 -41.94697,-23.75246 -41.94697,-53.35127 0,-29.78234 14.96983,-52.93181 41.94697,-52.93181 m 0.15729,19.53156 c -13.73761,0 -14.60278,18.71881 -14.60278,30.38532 0,11.69271 -0.18352,36.65114 14.44549,36.65114 14.44548,0 15.12712,-20.13452 15.12712,-32.40403 0,-8.07477 -0.34082,-17.72257 -2.779,-25.3779 -2.09735,-6.65906 -6.26581,-9.25453 -12.19083,-9.25453" />
    <path
       inkscape:connector-curvature="0"
       style="fill:#221f1f;fill-rule:evenodd;stroke:none;stroke-width:3.50163"
       id="path18"
       d="M 396.02762,748.00424 H 377.4661 c -1.86141,-0.13107 -3.35577,-1.62543 -3.35577,-3.46061 l -0.0262,-95.69149 c 0.1573,-1.75653 1.7041,-3.1198 3.59171,-3.1198 h 17.27691 c 1.62543,0.0786 2.96249,1.17976 3.32954,2.67412 v 14.62899 h 0.3408 c 5.21717,-13.0822 12.53165,-19.32181 25.40412,-19.32181 8.36317,0 16.51662,3.01494 21.75999,11.27324 4.87633,7.65532 4.87633,20.5278 4.87633,29.78233 v 60.22011 c -0.20973,1.67786 -1.75653,3.01492 -3.59169,3.01492 h -18.69262 c -1.70411,-0.13107 -3.11982,-1.38948 -3.30332,-3.01492 v -51.96179 c 0,-10.46052 1.20597,-25.77117 -11.66651,-25.77117 -4.5355,0 -8.70399,3.04117 -10.77512,7.65532 -2.62167,5.84637 -2.96249,11.66651 -2.96249,18.11585 v 51.5161 c -0.0262,1.91383 -1.65166,3.46061 -3.64414,3.46061" />
    <path
       inkscape:connector-curvature="0"
       style="fill:#221f1f;fill-rule:evenodd;stroke:none;stroke-width:3.50163"
       id="path28"
       d="m 147.67545,702.30829 c 0,7.26206 0.18352,13.31815 -3.48684,19.7675 -2.9625,5.24338 -7.68153,8.46805 -12.89868,8.46805 -7.1572,0 -11.35189,-5.45312 -11.35189,-13.50169 0,-15.8874 14.23574,-18.77125 27.73741,-18.77125 v 4.03739 m 18.79748,45.43378 c -1.23218,1.10111 -3.01494,1.17976 -4.40443,0.4457 -6.18718,-5.1385 -7.3145,-7.52423 -10.69647,-12.42678 -10.22457,10.4343 -17.48665,13.55409 -30.72615,13.55409 -15.70389,0 -27.894719,-9.67401 -27.894719,-29.04824 0,-15.12713 8.179669,-25.43035 19.872379,-30.46398 10.1197,-4.45688 24.25056,-5.24337 35.05191,-6.47556 v -2.41195 c 0,-4.43066 0.34082,-9.67403 -2.28086,-13.50167 -2.25465,-3.43442 -6.60666,-4.85013 -10.46052,-4.85013 -7.10478,0 -13.42302,3.64414 -14.96983,11.19459 -0.3146,1.67789 -1.54678,3.32955 -3.25089,3.4082 l -18.063399,-1.94006 c -1.52058,-0.3408 -3.22467,-1.57301 -2.77898,-3.90629 4.142259,-21.91728 23.962199,-28.52394 41.684769,-28.52394 9.07104,0 20.92105,2.41195 28.07825,9.28076 9.07102,8.46804 8.20587,19.7675 8.20587,32.06321 v 29.04826 c 0,8.73022 3.61792,12.55786 7.02611,17.27691 1.17977,1.67786 1.44194,3.69656 -0.0787,4.95497 -3.80144,3.17225 -10.56539,9.07104 -14.28818,12.37436 l -0.0262,-0.0525" />
    <path
       inkscape:connector-curvature="0"
       style="fill:#221f1f;fill-rule:evenodd;stroke:none;stroke-width:3.50163"
       id="path30"
       d="m -96.691739,702.30829 c 0,7.26206 0.1835,13.31815 -3.486841,19.7675 -2.96252,5.24338 -7.65533,8.46805 -12.8987,8.46805 -7.1572,0 -11.32567,-5.45312 -11.32567,-13.50169 0,-15.8874 14.23574,-18.77125 27.711211,-18.77125 v 4.03739 m 18.79747,45.43378 c -1.23219,1.10111 -3.01495,1.17976 -4.40444,0.4457 -6.18716,-5.1385 -7.28828,-7.52423 -10.69647,-12.42678 -10.224571,10.4343 -17.460401,13.55409 -30.726141,13.55409 -15.67768,0 -27.89471,-9.67401 -27.89471,-29.04824 0,-15.12713 8.20587,-25.43035 19.87236,-30.46398 10.1197,-4.45688 24.25058,-5.24337 35.051931,-6.47556 v -2.41195 c 0,-4.43066 0.34082,-9.67403 -2.25465,-13.50167 -2.280881,-3.43442 -6.632861,-4.85013 -10.460531,-4.85013 -7.10475,0 -13.44924,3.64414 -14.99603,11.19459 -0.31461,1.67789 -1.5468,3.32955 -3.22467,3.4082 l -18.08962,-1.94006 c -1.52058,-0.3408 -3.19846,-1.57301 -2.77899,-3.90629 4.16848,-21.91728 23.96219,-28.52394 41.68479,-28.52394 9.071011,0 20.921021,2.41195 28.078221,9.28076 9.07104,8.46804 8.20587,19.7675 8.20587,32.06321 v 29.04826 c 0,8.73022 3.61794,12.55786 7.02613,17.27691 1.20597,1.67786 1.46814,3.69656 -0.05244,4.95497 -3.80144,3.17225 -10.56538,9.07104 -14.28819,12.37436 l -0.05242,-0.0525" />
  </g>
  <path
     inkscape:connector-curvature="0"
     style="color:#000000;font-style:normal;font-variant:normal;font-weight:normal;font-stretch:normal;font-size:medium;line-height:normal;font-family:sans-serif;font-variant-ligatures:normal;font-variant-position:normal;font-variant-caps:normal;font-variant-numeric:normal;font-variant-alternates:normal;font-feature-settings:normal;text-indent:0;text-align:start;text-decoration:none;text-decoration-line:none;text-decoration-style:solid;text-decoration-color:#000000;letter-spacing:normal;word-spacing:normal;text-transform:none;writing-mode:lr-tb;direction:ltr;text-orientation:mixed;dominant-baseline:auto;baseline-shift:baseline;text-anchor:start;white-space:normal;shape-padding:0;clip-rule:nonzero;display:inline;overflow:visible;visibility:visible;isolation:auto;mix-blend-mode:normal;color-interpolation:sRGB;color-interpolation-filters:linearRGB;solid-color:#000000;solid-opacity:1;vector-effect:none;fill:url(#linearGradient2054);fill-opacity:1;fill-rule:evenodd;stroke:none;stroke-width:4.23312;stroke-linecap:round;stroke-linejoin:miter;stroke-miterlimit:4;stroke-dasharray:none;stroke-dashoffset:0;stroke-opacity:1;color-rendering:auto;image-rendering:auto;shape-rendering:auto;text-rendering:auto;enable-background:accumulate"
     d="m 14.539591,36.046385 a 2.1167741,2.1167741 0 1 0 0,4.233125 h 4.556605 l 3.27974,19.678967 -0.118331,0.118332 0.165872,0.165875 0.553426,3.319013 h 5.758539 l -1.76053,-1.76053 -0.101796,-0.610268 3.540694,-3.540695 3.79493,3.794931 -2.116562,2.116562 h 2.992951 l 0.620087,-0.620086 0.620087,0.620086 h 2.992951 l -2.116562,-2.116562 3.79493,-3.794931 3.794931,3.794931 -2.116563,2.116562 h 2.992952 l 0.620086,-0.620086 0.620087,0.620086 h 2.992952 l -2.116563,-2.116562 3.794931,-3.794931 3.79493,3.794931 -2.113978,2.113977 c 1.143114,-0.0032 2.167466,-0.02244 3.066328,-0.07338 l 0.544126,-0.544125 0.469715,0.469715 c 0.835577,-0.08011 1.552967,-0.20006 2.171855,-0.374637 l 0.223229,-0.223228 -1.368323,-1.368326 3.79493,-3.794931 0.827817,0.827817 c 0.180863,-1.279018 0.231414,-2.886446 0.227879,-4.876465 l -1.055696,1.055697 -3.79493,-3.794931 3.79493,-3.79493 1.056731,1.056731 V 41.337791 H 23.564436 l -0.882074,-5.291406 z m 9.553986,8.46625 h 3.765476 l 1.058281,1.058281 -3.79493,3.79493 -0.264055,-0.264054 z m 8.87499,0 h 5.473298 l 1.058281,1.058281 -3.79493,3.79493 -3.79493,-3.79493 z m 10.582812,0 h 5.473299 l 1.058281,1.058281 -3.794931,3.79493 -3.79493,-3.79493 z m 10.582813,0 h 5.473298 l 1.058281,1.058281 -3.79493,3.79493 -3.79493,-3.79493 z m -23.720382,2.554757 3.79493,3.79493 -3.79493,3.794931 -3.79493,-3.794931 z m 10.582812,0 3.794931,3.79493 -3.794931,3.794931 -3.79493,-3.794931 z m 10.582813,0 3.79493,3.79493 -3.79493,3.794931 -3.794931,-3.794931 z m -15.874219,5.291406 3.79493,3.79493 -3.79493,3.794931 -3.79493,-3.794931 z m 10.582812,0 3.794931,3.79493 -3.794931,3.794931 -3.79493,-3.794931 z m 10.582813,0 3.79493,3.79493 -3.79493,3.794931 -3.79493,-3.794931 z m -31.414108,0.33433 3.460601,3.4606 -2.472079,2.472079 z"
     id="path964-6" />
  <path
     style="color:#000000;display:inline;overflow:visible;visibility:visible;opacity:0.3;fill:#ffffff;fill-opacity:1;fill-rule:nonzero;stroke:none;stroke-width:0.26457;marker:none;enable-background:accumulate"
     d="m 14.254353,4.2978681 c -9.338466,0 -10.3433416,0.95934 -10.2975736,10.3166919 V 15.1437 C 3.9110114,5.7863481 4.915887,4.8270081 14.254353,4.8270081 h 38.668601 c 9.338467,0 10.297574,0.959229 10.297574,10.3166919 v -0.52914 c 0,-9.3574629 -0.959107,-10.3166919 -10.297574,-10.3166919 z"
     id="path931"
     inkscape:connector-curvature="0"
     sodipodi:nodetypes="sccsscsss" />
  <path
     style="color:#000000;display:inline;overflow:visible;visibility:visible;opacity:0.2;fill:#000000;fill-opacity:1;fill-rule:nonzero;stroke:none;stroke-width:0.26457;marker:none;enable-background:accumulate"
     d="m 14.255781,63.561618 c -9.3384661,0 -10.3433423,-0.95934 -10.2975742,-10.316692 v -0.529141 c -0.045768,9.357352 0.9591081,10.316692 10.2975742,10.316692 h 38.668602 c 9.338467,0 10.297574,-0.959229 10.297574,-10.316692 v 0.529141 c 0,9.357463 -0.959107,10.316692 -10.297574,10.316692 z"
     id="path931-8"
     inkscape:connector-curvature="0"
     sodipodi:nodetypes="sccsscsss" />
</svg>
