<?xml version="1.0" encoding="UTF-8" standalone="no"?>
<svg
   width="256"
   height="256"
   viewBox="0 0 67.73 67.73"
   version="1.1"
   id="svg48"
   sodipodi:docname="accessories-archiver.svg"
   inkscape:version="1.1.2 (0a00cf5339, 2022-02-04)"
   xmlns:inkscape="http://www.inkscape.org/namespaces/inkscape"
   xmlns:sodipodi="http://sodipodi.sourceforge.net/DTD/sodipodi-0.dtd"
   xmlns:xlink="http://www.w3.org/1999/xlink"
   xmlns="http://www.w3.org/2000/svg"
   xmlns:svg="http://www.w3.org/2000/svg">
  <sodipodi:namedview
     id="namedview50"
     pagecolor="#ffffff"
     bordercolor="#666666"
     borderopacity="1.0"
     inkscape:pageshadow="2"
     inkscape:pageopacity="0.0"
     inkscape:pagecheckerboard="0"
     showgrid="false"
     inkscape:zoom="1.7246094"
     inkscape:cx="193.66704"
     inkscape:cy="130.75425"
     inkscape:window-width="1920"
     inkscape:window-height="1002"
     inkscape:window-x="0"
     inkscape:window-y="0"
     inkscape:window-maximized="1"
     inkscape:current-layer="svg48" />
  <defs
     id="defs28">
    <linearGradient
       id="f"
       x1="296"
       x2="296"
       y1="-212"
       y2="236"
       gradientUnits="userSpaceOnUse">
      <stop
         offset="0"
         stop-color="#FFFEFE"
         id="stop2" />
      <stop
         offset=".125"
         stop-color="#FFFEFE"
         stop-opacity=".098"
         id="stop4" />
      <stop
         offset=".925"
         stop-opacity=".098"
         id="stop6" />
      <stop
         offset="1"
         stop-opacity=".498"
         id="stop8" />
    </linearGradient>
    <clipPath
       id="e">
      <path
         d="M361.938-212C507.235-212 528-191.287 528-46.125v116.25C528 215.286 507.235 236 361.937 236H214.063C68.766 236 48 215.286 48 70.125v-116.25C48-191.287 68.765-212 214.063-212z"
         fill="#9F4AC8"
         id="path11" />
    </clipPath>
    <filter
       id="d"
       x="-0.2775"
       y="-0.032647059"
       width="1.555"
       height="1.0652941"
       color-interpolation-filters="sRGB">
      <feGaussianBlur
         stdDeviation="1.85"
         id="feGaussianBlur14" />
    </filter>
    <linearGradient
       id="c"
       x1="32"
       x2="272"
       y1="156"
       y2="156"
       gradientTransform="rotate(90 -74.267 148.764) scale(.26458)"
       gradientUnits="userSpaceOnUse">
      <stop
         offset="0"
         stop-color="#EEEDED"
         id="stop17" />
      <stop
         offset="1"
         stop-color="#EEEDED"
         id="stop19" />
    </linearGradient>
    <filter
       id="b"
       x="-0.023199999"
       y="-0.024857142"
       width="1.0464"
       height="1.0497143"
       color-interpolation-filters="sRGB">
      <feGaussianBlur
         stdDeviation="2.32"
         id="feGaussianBlur22" />
    </filter>
    <filter
       id="a"
       x="-0.0116"
       y="-0.012428571"
       width="1.0232"
       height="1.0248571"
       color-interpolation-filters="sRGB">
      <feGaussianBlur
         stdDeviation="1.16"
         id="feGaussianBlur25" />
    </filter>
    <filter
       inkscape:collect="always"
       style="color-interpolation-filters:sRGB"
       id="filter4346"
       x="-0.014454287"
       width="1.0289086"
       y="-0.011357288"
       height="1.0227146">
      <feGaussianBlur
         inkscape:collect="always"
         stdDeviation="2.120027"
         id="feGaussianBlur4348" />
    </filter>
    <filter
       inkscape:collect="always"
       style="color-interpolation-filters:sRGB"
       id="filter4380"
       x="-0.057817147"
       width="1.1156343"
       y="-0.045429151"
       height="1.0908583">
      <feGaussianBlur
         inkscape:collect="always"
         stdDeviation="8.4801079"
         id="feGaussianBlur4382" />
    </filter>
    <linearGradient
       gradientUnits="userSpaceOnUse"
       y2="169.65668"
       x2="4.4137931"
       y1="386.29544"
       x1="494.34482"
       id="linearGradient4226"
       xlink:href="#linearGradient876"
       inkscape:collect="always"
       gradientTransform="matrix(0,-0.11988342,-0.11987999,0,66.92173,63.270655)" />
    <linearGradient
       inkscape:collect="always"
       id="linearGradient876">
      <stop
         style="stop-color:#aea795;stop-opacity:1"
         offset="0"
         id="stop872" />
      <stop
         style="stop-color:#c8c4b7;stop-opacity:1"
         offset="1"
         id="stop874" />
    </linearGradient>
    <filter
       inkscape:collect="always"
       style="color-interpolation-filters:sRGB"
       id="filter946"
       x="-0.2775"
       width="1.555"
       y="-0.032647057"
       height="1.0652941">
      <feGaussianBlur
         inkscape:collect="always"
         stdDeviation="1.85"
         id="feGaussianBlur948" />
    </filter>
  </defs>
  <path
     style="color:#000000;display:inline;overflow:visible;visibility:visible;opacity:0.1;fill:#000000;fill-opacity:1;fill-rule:nonzero;stroke:none;stroke-width:2;marker:none;filter:url(#filter4346);enable-background:accumulate"
     d="M 189.84323,74 C 119.24979,74 111.65402,81.250835 112,151.98706 V 298 444.01294 C 111.65402,514.74917 119.24979,522 189.84323,522 H 386.15677 C 456.75021,522 462.16345,514.72616 464,444.01294 V 298 151.98706 C 464,81.249993 456.75021,74 386.15677,74 Z"
     id="rect4158-9"
     inkscape:connector-curvature="0"
     sodipodi:nodetypes="scccssscsss"
     transform="matrix(0.13228515,0,0,0.13228515,-4.5008771,-5.5176251)" />
  <path
     sodipodi:nodetypes="scccssscsss"
     inkscape:connector-curvature="0"
     id="path4350"
     d="M 189.84323,74 C 119.24979,74 111.65402,81.250835 112,151.98706 V 298 444.01294 C 111.65402,514.74917 119.24979,522 189.84323,522 H 386.15677 C 456.75021,522 464,514.75001 464,444.01294 V 298 151.98706 C 464,81.249993 456.75021,74 386.15677,74 Z"
     style="color:#000000;display:inline;overflow:visible;visibility:visible;opacity:0.1;fill:#000000;fill-opacity:1;fill-rule:nonzero;stroke:none;stroke-width:2;marker:none;filter:url(#filter4380);enable-background:accumulate"
     transform="matrix(0.13228515,0,0,0.13228515,-4.5008771,-5.5176251)" />
  <path
     style="color:#000000;display:inline;overflow:visible;visibility:visible;opacity:0.1;fill:#000000;fill-opacity:1;fill-rule:nonzero;stroke:none;stroke-width:0.269938;marker:none;enable-background:accumulate"
     d="m 20.318887,3.4777655 c -9.550673,0 -10.5783152,0.976306 -10.5315072,10.5007535 V 33.63878 53.299042 c -0.04681,9.524449 0.9808342,10.500754 10.5315072,10.500754 h 26.559505 c 9.550673,0 10.531506,-0.976193 10.531506,-10.500754 V 33.63878 13.978519 c 0,-9.5245605 -0.980833,-10.5007535 -10.531506,-10.5007535 z"
     id="rect4158-7"
     inkscape:connector-curvature="0"
     sodipodi:nodetypes="scccssscsss" />
  <path
     style="color:#000000;display:inline;overflow:visible;visibility:visible;fill:url(#linearGradient4226);fill-opacity:1;fill-rule:nonzero;stroke:none;stroke-width:0.26457;marker:none;enable-background:accumulate"
     d="m 46.580501,4.0069065 c 9.338467,0 10.343273,0.959178 10.297505,10.3165295 V 33.63878 52.954125 c 0.04577,9.357354 -0.959038,10.31653 -10.297505,10.31653 H 20.611137 c -9.338464,0 -10.297505,-0.959067 -10.297505,-10.31653 V 33.63878 14.323436 c 0,-9.3574635 0.959041,-10.3165295 10.297505,-10.3165295 z"
     id="rect4158"
     inkscape:connector-curvature="0"
     sodipodi:nodetypes="scccssscsss" />
  <path
     style="color:#000000;display:inline;overflow:visible;visibility:visible;opacity:0.3;fill:#ffffff;fill-opacity:1;fill-rule:nonzero;stroke:none;stroke-width:0.26457;marker:none;enable-background:accumulate"
     d="m 20.612634,4.0069065 c -9.338467,0 -10.343342,0.959339 -10.297574,10.3166915 v 0.52914 C 10.269292,5.4953865 11.274167,4.5360465 20.612634,4.5360465 h 25.969227 c 9.338467,0 10.297574,0.959228 10.297574,10.3166915 v -0.52914 c 0,-9.3574635 -0.959107,-10.3166915 -10.297574,-10.3166915 z"
     id="path931"
     inkscape:connector-curvature="0" />
  <path
     style="color:#000000;display:inline;overflow:visible;visibility:visible;opacity:0.1;fill:#ffffff;fill-opacity:1;fill-rule:nonzero;stroke:none;stroke-width:0.26457;marker:none;enable-background:accumulate"
     d="M 33.597248,4.0069065 V 63.270655 h 12.983065 c 9.338467,0 10.34334,-0.959337 10.297572,-10.316692 V 33.63878 14.323598 C 56.923653,4.9662455 55.91878,4.0069065 46.580313,4.0069065 Z"
     id="rect4158-3"
     inkscape:connector-curvature="0" />
  <path
     inkscape:connector-curvature="0"
     id="rect4185"
     d="m 33.597248,4.0069045 v 2.116562 h 2.116562 v -2.116562 z m 0,2.116562 h -2.116563 v 2.116563 h 2.116563 z m 0,2.116563 V 10.356591 H 35.71381 V 8.2400295 Z m 0,2.1165615 h -2.116563 v 2.116563 h 2.116563 z m 0,2.116563 v 2.116562 h 2.116562 v -2.116562 z m 0,2.116562 h -2.116563 v 2.116563 h 2.116563 z m 0,2.116563 v 2.116562 h 2.116562 v -2.116562 z m 0,2.116562 h -2.116563 v 2.116562 h 2.116563 z m 0,2.116562 v 2.116562 h 2.116562 v -2.116562 z m 0,2.116562 h -2.116563 v 2.116563 h 2.116563 z m 0,2.116563 v 2.116562 h 2.116562 v -2.116562 z m 0,2.116562 h -2.116563 v 2.116563 h 2.116563 z m 0,2.116563 v 2.116565 h 2.116562 v -2.116565 z"
     style="color:#000000;display:inline;overflow:visible;visibility:visible;opacity:0.1;fill:#000000;fill-opacity:1;fill-rule:nonzero;stroke:none;stroke-width:3.96855;stroke-linecap:butt;stroke-linejoin:miter;stroke-miterlimit:4;stroke-dasharray:none;stroke-dashoffset:0;stroke-opacity:1;marker:none;enable-background:accumulate"
     sodipodi:nodetypes="ccccccccccccccccccccccccccccccccccccccccccccccccccccccccccccccccc" />
  <path
     style="color:#000000;display:inline;overflow:visible;visibility:visible;opacity:0.2;fill:#000000;fill-opacity:1;fill-rule:nonzero;stroke:none;stroke-width:15;stroke-linecap:butt;stroke-linejoin:miter;stroke-miterlimit:4;stroke-dasharray:none;stroke-dashoffset:0;stroke-opacity:1;marker:none;filter:url(#filter946);enable-background:accumulate"
     d="m 144,45.999991 v 8 h 8 v -8 z m 8,8 v 8 h 8 v -8 z m 0,8 h -8 v 8 h 8 z m 0,8 v 8 h 8 v -8 z m 0,8 h -8 v 8 h 8 z m 0,8 v 8 h 8 v -8 z m 0,8 h -8 v 7.999999 h 8 z m 0,7.999999 v 8 h 8 v -8 z m 0,8 h -8 v 8 h 8 z m 0,8 v 8 h 8 v -8 z m 0,8 h -8 v 8 h 8 z m 0,8 V 142 h 8 v -8.00001 z M 152,142 h -8 v 8 30 c 0,1.108 0.892,2 2,2 h 12 c 1.108,0 2,-0.892 2,-2 v -30 h -8 z m -4,28 h 8 v 8 h -8 z"
     id="path941"
     inkscape:connector-curvature="0"
     sodipodi:nodetypes="cccccccccccccccccccccccccccccccccccccccccccccccccccccccccccccccsssscccccccc"
     transform="matrix(0.26457031,0,0,0.26457031,-6.6174396,-7.6341876)" />
  <path
     inkscape:connector-curvature="0"
     style="color:#000000;display:inline;overflow:visible;visibility:visible;fill:#faf8f6;fill-opacity:1;fill-rule:nonzero;stroke:none;stroke-width:3.96855;stroke-linecap:butt;stroke-linejoin:miter;stroke-miterlimit:4;stroke-dasharray:none;stroke-dashoffset:0;stroke-opacity:1;marker:none;enable-background:accumulate"
     d="m 31.480685,31.522218 v 7.937109 c 0,0.293144 0.235997,0.529141 0.529141,0.529141 h 3.174844 c 0.293143,0 0.52914,-0.235997 0.52914,-0.529141 v -7.937109 z m 1.058281,5.291406 h 2.116563 v 2.116562 h -2.116563 z"
     id="path4783"
     sodipodi:nodetypes="cssssccccccc" />
  <path
     style="color:#000000;display:inline;overflow:visible;visibility:visible;fill:#f1f0e9;fill-opacity:1;fill-rule:nonzero;stroke:none;stroke-width:3.96855;stroke-linecap:butt;stroke-linejoin:miter;stroke-miterlimit:4;stroke-dasharray:none;stroke-dashoffset:0;stroke-opacity:1;marker:none;enable-background:accumulate"
     d="m 33.597248,4.0069045 v 2.116562 h -2.116563 v -2.116562 z m 0,2.116562 h 2.116562 v 2.116563 h -2.116562 z m 0,2.116563 V 10.356591 H 31.480685 V 8.2400295 Z m 0,2.1165615 h 2.116562 v 2.116563 h -2.116562 z m 0,2.116563 v 2.116562 h -2.116563 v -2.116562 z m 0,2.116562 h 2.116562 v 2.116563 h -2.116562 z m 0,2.116563 v 2.116562 h -2.116563 v -2.116562 z m 0,2.116562 h 2.116562 v 2.116562 h -2.116562 z m 0,2.116562 v 2.116562 h -2.116563 v -2.116562 z m 0,2.116562 h 2.116562 v 2.116563 h -2.116562 z m 0,2.116563 v 2.116562 h -2.116563 v -2.116562 z m 0,2.116562 h 2.116562 v 2.116563 h -2.116562 z m 0,2.116563 v 2.116565 h -2.116563 v -2.116565 z"
     id="path937"
     inkscape:connector-curvature="0"
     sodipodi:nodetypes="ccccccccccccccccccccccccccccccccccccccccccccccccccccccccccccccccc" />
  <path
     style="color:#000000;display:inline;overflow:visible;visibility:visible;opacity:0.2;fill:#000000;fill-opacity:1;fill-rule:nonzero;stroke:none;stroke-width:0.26457;marker:none;enable-background:accumulate"
     d="m 20.614063,63.270655 c -9.338468,0 -10.343343,-0.95934 -10.297575,-10.316692 v -0.52914 c -0.04577,9.357351 0.959107,10.316691 10.297575,10.316691 H 46.58329 c 9.338467,0 10.297574,-0.959228 10.297574,-10.316691 v 0.52914 c 0,9.357463 -0.959107,10.316692 -10.297574,10.316692 z"
     id="path931-8"
     inkscape:connector-curvature="0" />
</svg>
