<?xml version="1.0" encoding="UTF-8" standalone="no"?>
<svg
   width="256"
   height="256"
   viewBox="0 0 67.73 67.73"
   version="1.1"
   id="svg90"
   sodipodi:docname="calibre-ebook-edit.svg"
   inkscape:version="1.1.2 (0a00cf5339, 2022-02-04)"
   xmlns:inkscape="http://www.inkscape.org/namespaces/inkscape"
   xmlns:sodipodi="http://sodipodi.sourceforge.net/DTD/sodipodi-0.dtd"
   xmlns:xlink="http://www.w3.org/1999/xlink"
   xmlns="http://www.w3.org/2000/svg"
   xmlns:svg="http://www.w3.org/2000/svg">
  <sodipodi:namedview
     id="namedview92"
     pagecolor="#ffffff"
     bordercolor="#666666"
     borderopacity="1.0"
     inkscape:pageshadow="2"
     inkscape:pageopacity="0.0"
     inkscape:pagecheckerboard="0"
     showgrid="false"
     inkscape:zoom="2.5664062"
     inkscape:cx="122.93455"
     inkscape:cy="128"
     inkscape:window-width="1920"
     inkscape:window-height="1030"
     inkscape:window-x="0"
     inkscape:window-y="24"
     inkscape:window-maximized="1"
     inkscape:current-layer="svg90" />
  <defs
     id="defs38">
    <linearGradient
       id="e"
       x1="296"
       x2="296"
       y1="-212"
       y2="236"
       gradientUnits="userSpaceOnUse">
      <stop
         offset="0"
         stop-color="#FFFEFE"
         id="stop2" />
      <stop
         offset=".125"
         stop-color="#FFFEFE"
         stop-opacity=".098"
         id="stop4" />
      <stop
         offset=".925"
         stop-opacity=".098"
         id="stop6" />
      <stop
         offset="1"
         stop-opacity=".498"
         id="stop8" />
    </linearGradient>
    <clipPath
       id="d">
      <path
         d="M361.938-212C507.235-212 528-191.287 528-46.125v116.25C528 215.286 507.235 236 361.937 236H214.063C68.766 236 48 215.286 48 70.125v-116.25C48-191.287 68.765-212 214.063-212z"
         fill="#9F4AC8"
         id="path11" />
    </clipPath>
    <linearGradient
       id="c"
       x1="93.46"
       x2="248"
       y1="69.921"
       y2="263.092"
       gradientTransform="matrix(.26458 0 0 .26458 -6.993 221.973)"
       gradientUnits="userSpaceOnUse">
      <stop
         offset="0"
         stop-color="#9F4AC8"
         id="stop14" />
      <stop
         offset="1"
         stop-color="#9F4AC8"
         id="stop16" />
    </linearGradient>
    <filter
       id="b"
       width="1.0232"
       height="1.0248571"
       x="-0.0116"
       y="-0.012428571"
       color-interpolation-filters="sRGB">
      <feGaussianBlur
         stdDeviation="1.16"
         id="feGaussianBlur19" />
    </filter>
    <filter
       id="a"
       width="1.0464"
       height="1.0497143"
       x="-0.023199999"
       y="-0.024857142"
       color-interpolation-filters="sRGB">
      <feGaussianBlur
         stdDeviation="2.32"
         id="feGaussianBlur22" />
    </filter>
    <linearGradient
       id="f"
       x1="624"
       x2="688"
       y1="369.239"
       y2="369.239"
       gradientTransform="rotate(45.001 100.443 -66.218) scale(.18614 .20187)"
       gradientUnits="userSpaceOnUse">
      <stop
         offset="0"
         stop-color="#F43125"
         id="stop25" />
      <stop
         offset=".278"
         stop-color="#F43125"
         id="stop27" />
      <stop
         offset=".278"
         stop-color="#FE4F44"
         id="stop29" />
      <stop
         offset=".707"
         stop-color="#FE4F44"
         id="stop31" />
      <stop
         offset=".709"
         stop-color="#FE4F44"
         id="stop33" />
      <stop
         offset="1"
         stop-color="#FE4F44"
         id="stop35" />
    </linearGradient>
    <filter
       inkscape:collect="always"
       style="color-interpolation-filters:sRGB"
       id="filter4346"
       x="-0.014454287"
       width="1.0289086"
       y="-0.011357288"
       height="1.0227146">
      <feGaussianBlur
         inkscape:collect="always"
         stdDeviation="2.120027"
         id="feGaussianBlur4348" />
    </filter>
    <filter
       inkscape:collect="always"
       style="color-interpolation-filters:sRGB"
       id="filter4380"
       x="-0.057817147"
       width="1.1156343"
       y="-0.045429151"
       height="1.0908583">
      <feGaussianBlur
         inkscape:collect="always"
         stdDeviation="8.4801079"
         id="feGaussianBlur4382" />
    </filter>
    <linearGradient
       inkscape:collect="always"
       xlink:href="#linearGradient4245"
       id="linearGradient7182"
       x1="101.8116"
       y1="42"
       x2="201.07227"
       y2="268"
       gradientUnits="userSpaceOnUse"
       gradientTransform="matrix(0.26457031,0,0,0.26457031,-6.6059934,-7.4836697)" />
    <linearGradient
       id="linearGradient4245"
       inkscape:collect="always">
      <stop
         id="stop4241"
         offset="0"
         style="stop-color:#e8e8e8;stop-opacity:1" />
      <stop
         id="stop4243"
         offset="1"
         style="stop-color:#f5f5f5;stop-opacity:1" />
    </linearGradient>
    <linearGradient
       inkscape:collect="always"
       xlink:href="#linearGradient9037"
       id="linearGradient9039"
       x1="64"
       y1="92"
       x2="64"
       y2="108"
       gradientUnits="userSpaceOnUse"
       gradientTransform="matrix(0.26457031,0,0,0.26457031,-6.6059934,-7.4836697)" />
    <linearGradient
       inkscape:collect="always"
       id="linearGradient9037">
      <stop
         style="stop-color:#000000;stop-opacity:1"
         offset="0"
         id="stop9033" />
      <stop
         style="stop-color:#f1f0e9;stop-opacity:0;"
         offset="1"
         id="stop9035" />
    </linearGradient>
  </defs>
  <path
     style="color:#000000;display:inline;overflow:visible;visibility:visible;opacity:0.1;fill:#000000;fill-opacity:1;fill-rule:nonzero;stroke:none;stroke-width:2;marker:none;filter:url(#filter4346);enable-background:accumulate"
     d="M 189.84323,74 C 119.24979,74 111.65402,81.250835 112,151.98706 V 298 444.01294 C 111.65402,514.74917 119.24979,522 189.84323,522 H 386.15677 C 456.75021,522 462.16345,514.72616 464,444.01294 V 298 151.98706 C 464,81.249993 456.75021,74 386.15677,74 Z"
     id="rect4158-9"
     inkscape:connector-curvature="0"
     sodipodi:nodetypes="scccssscsss"
     transform="matrix(0.13228515,0,0,0.13228515,-4.4894309,-5.3671072)" />
  <path
     sodipodi:nodetypes="scccssscsss"
     inkscape:connector-curvature="0"
     id="path4350"
     d="M 189.84323,74 C 119.24979,74 111.65402,81.250835 112,151.98706 V 298 444.01294 C 111.65402,514.74917 119.24979,522 189.84323,522 H 386.15677 C 456.75021,522 464,514.75001 464,444.01294 V 298 151.98706 C 464,81.249993 456.75021,74 386.15677,74 Z"
     style="color:#000000;display:inline;overflow:visible;visibility:visible;opacity:0.1;fill:#000000;fill-opacity:1;fill-rule:nonzero;stroke:none;stroke-width:2;marker:none;filter:url(#filter4380);enable-background:accumulate"
     transform="matrix(0.13228515,0,0,0.13228515,-4.4894309,-5.3671072)" />
  <path
     style="color:#000000;display:inline;overflow:visible;visibility:visible;opacity:0.1;fill:#000000;fill-opacity:1;fill-rule:nonzero;stroke:none;stroke-width:0.269938;marker:none;enable-background:accumulate"
     d="m 20.330334,3.6282833 c -9.550674,0 -10.5783163,0.9763063 -10.531508,10.5007547 v 19.660261 19.660262 c -0.046808,9.524449 0.980834,10.500753 10.531508,10.500753 h 26.559504 c 9.550673,0 10.531507,-0.976193 10.531507,-10.500753 V 33.789299 14.129038 c 0,-9.5245619 -0.980834,-10.5007547 -10.531507,-10.5007547 z"
     id="rect4158-7"
     inkscape:connector-curvature="0"
     sodipodi:nodetypes="scccssscsss" />
  <path
     style="color:#000000;display:inline;overflow:visible;visibility:visible;fill:url(#linearGradient7182);fill-opacity:1;fill-rule:nonzero;stroke:none;stroke-width:0.26457;marker:none;enable-background:accumulate"
     d="m 46.591948,4.1574239 c 9.338466,0 10.343273,0.959178 10.297505,10.3165311 v 19.315344 19.315345 c 0.04577,9.357354 -0.959039,10.31653 -10.297505,10.31653 H 20.622583 c -9.338463,0 -10.297504,-0.959067 -10.297504,-10.31653 V 33.789299 14.473955 c 0,-9.3574645 0.959041,-10.3165311 10.297504,-10.3165311 z"
     id="rect4158"
     inkscape:connector-curvature="0"
     sodipodi:nodetypes="scccssscsss" />
  <path
     inkscape:connector-curvature="0"
     style="color:#000000;display:inline;overflow:visible;visibility:visible;fill:#ffffff;fill-opacity:1;fill-rule:nonzero;stroke:none;stroke-width:0.26457;marker:none;enable-background:accumulate"
     d="M 56.889331,49.665068 43.133225,63.421174 h 3.458535 c 9.338467,0 10.343339,-0.959337 10.297571,-10.316692 z"
     id="rect4158-6" />
  <path
     style="color:#000000;display:inline;overflow:visible;visibility:visible;opacity:0.2;fill:#000000;fill-opacity:1;fill-rule:nonzero;stroke:none;stroke-width:0.26457;marker:none;enable-background:accumulate"
     d="m 20.625509,63.421174 c -9.338467,0 -10.343343,-0.95934 -10.297575,-10.316692 v -0.52914 c -0.04577,9.357351 0.959108,10.316691 10.297575,10.316691 h 25.969227 c 9.338467,0 10.297574,-0.959229 10.297574,-10.316691 v 0.52914 c 0,9.357463 -0.959107,10.316692 -10.297574,10.316692 z"
     id="path931-8"
     inkscape:connector-curvature="0" />
  <path
     style="color:#000000;display:inline;overflow:visible;visibility:visible;opacity:0.2;fill:#ffffff;fill-opacity:1;fill-rule:nonzero;stroke:none;stroke-width:0.26457;marker:none;enable-background:accumulate"
     d="m 10.324956,33.789299 v 19.315183 c 0,9.357463 0.95911,10.316692 10.297574,10.316692 h 25.96923 c 9.338467,0 10.343339,-0.959337 10.297571,-10.316692 V 33.789299 Z"
     id="rect4158-8"
     inkscape:connector-curvature="0" />
  <path
     style="display:inline;fill:#f76363;fill-opacity:1;stroke:none;stroke-width:0.678983;stroke-linecap:round;stroke-linejoin:round;stroke-miterlimit:4;stroke-dasharray:none;stroke-dashoffset:0;stroke-opacity:1;enable-background:new"
     d="m 20.62253,4.1574239 c -9.338464,0 -10.297574,0.9592283 -10.297574,10.3166921 v 2.382683 H 56.889331 V 14.474116 C 56.935099,5.1167636 55.930227,4.1574239 46.59176,4.1574239 Z"
     id="path1151" />
  <path
     style="color:#000000;display:inline;overflow:visible;visibility:visible;opacity:0.2;fill:#ffffff;fill-opacity:1;fill-rule:nonzero;stroke:none;stroke-width:0.26457;marker:none;enable-background:accumulate"
     d="M 33.608694,4.1574239 V 63.421174 H 46.59176 c 9.338467,0 10.343339,-0.959337 10.297571,-10.316692 V 33.789299 14.474116 C 56.935099,5.1167636 55.930227,4.1574239 46.59176,4.1574239 Z"
     id="rect4158-3"
     inkscape:connector-curvature="0" />
  <path
     inkscape:connector-curvature="0"
     style="display:inline;opacity:0.5;fill:#f76363;fill-opacity:1;stroke:none;stroke-width:0.678983;stroke-linecap:round;stroke-linejoin:round;stroke-miterlimit:4;stroke-dasharray:none;stroke-dashoffset:0;stroke-opacity:1;enable-background:new"
     d="m 20.62253,4.1574239 c -9.338464,0 -10.297574,0.9592283 -10.297574,10.3166921 v 2.382683 H 56.889331 V 14.474116 C 56.935099,5.1167636 55.930227,4.1574239 46.59176,4.1574239 Z"
     id="path1151-3" />
  <path
     style="color:#000000;display:inline;overflow:visible;visibility:visible;opacity:0.2;fill:#000000;fill-opacity:1;fill-rule:nonzero;stroke:none;stroke-width:0.26457;marker:none;enable-background:accumulate"
     d="m 20.625509,63.421174 c -9.338467,0 -10.343343,-0.95934 -10.297575,-10.316692 v -0.52914 c -0.04577,9.357351 0.959108,10.316691 10.297575,10.316691 h 25.969227 c 9.338467,0 10.297574,-0.959229 10.297574,-10.316691 v 0.52914 c 0,9.357463 -0.959107,10.316692 -10.297574,10.316692 z"
     id="path931-8-6"
     inkscape:connector-curvature="0" />
  <path
     sodipodi:nodetypes="ccccccccccccccccccccc"
     inkscape:connector-curvature="0"
     d="m 23.179592,22.167548 -5.220893,13.757728 h -1.282505 v 1.058278 h 3.703948 V 35.925276 H 19.1943 l 1.237068,-3.177064 h 6.138433 l 1.235602,3.177064 h -1.602032 v 1.058278 h 5.313233 V 35.925276 H 30.050885 L 24.828526,22.167548 Z m 0.320992,2.381794 2.702787,7.145018 h -5.360136 z"
     font-size="13.717"
     font-weight="400"
     letter-spacing="0"
     overflow="visible"
     style="color:#bebebe;font-weight:400;font-size:13.717px;line-height:125%;font-family:'DejaVu Serif';-inkscape-font-specification:'DejaVu Serif';letter-spacing:0;word-spacing:0;display:inline;overflow:visible;fill:#5d5d5d;stroke-width:0.26457;marker:none;enable-background:new"
     word-spacing="0"
     id="path3233" />
  <path
     style="color:#000000;display:inline;overflow:visible;visibility:visible;fill:#e3dfd5;fill-opacity:0.996078;fill-rule:nonzero;stroke:none;stroke-width:0.793711;marker:none;enable-background:accumulate"
     d="m 33.608694,23.226123 v 1.058281 h 16.9325 v -1.058281 z"
     id="path9053"
     inkscape:connector-curvature="0"
     sodipodi:nodetypes="ccccc" />
  <path
     style="color:#000000;display:inline;overflow:visible;visibility:visible;fill:#e3dfd5;fill-opacity:0.996078;fill-rule:nonzero;stroke:none;stroke-width:0.793711;marker:none;enable-background:accumulate"
     d="m 33.608694,27.459248 v 1.058281 h 16.9325 v -1.058281 z"
     id="path9051"
     inkscape:connector-curvature="0"
     sodipodi:nodetypes="ccccc" />
  <path
     style="color:#000000;display:inline;overflow:visible;visibility:visible;fill:#e3dfd5;fill-opacity:0.996078;fill-rule:nonzero;stroke:none;stroke-width:0.793711;marker:none;enable-background:accumulate"
     d="m 33.608694,31.672737 v 1.058281 h 16.9325 v -1.058281 z"
     id="path9049"
     inkscape:connector-curvature="0"
     sodipodi:nodetypes="ccccc" />
  <path
     style="color:#000000;display:inline;overflow:visible;visibility:visible;fill:#e3dfd5;fill-opacity:0.996078;fill-rule:nonzero;stroke:none;stroke-width:0.793711;marker:none;enable-background:accumulate"
     d="m 33.608694,35.905862 v 1.058281 h 16.9325 v -1.058281 z"
     id="path9047"
     inkscape:connector-curvature="0"
     sodipodi:nodetypes="ccccc" />
  <path
     style="color:#000000;display:inline;overflow:visible;visibility:visible;fill:#e3dfd5;fill-opacity:0.996078;fill-rule:nonzero;stroke:none;stroke-width:0.793711;marker:none;enable-background:accumulate"
     d="m 16.676194,40.138987 v 1.058281 l 33.865,0.01963 v -1.05828 z"
     id="path9045"
     inkscape:connector-curvature="0"
     sodipodi:nodetypes="ccccc" />
  <path
     style="color:#000000;display:inline;overflow:visible;visibility:visible;fill:#e3dfd5;fill-opacity:0.996078;fill-rule:nonzero;stroke:none;stroke-width:0.793711;marker:none;enable-background:accumulate"
     d="m 16.676194,44.372112 v 1.058281 h 33.865 v -1.058281 z"
     id="path9043"
     inkscape:connector-curvature="0"
     sodipodi:nodetypes="ccccc" />
  <path
     style="color:#000000;display:inline;overflow:visible;visibility:visible;fill:#e3dfd5;fill-opacity:0.996078;fill-rule:nonzero;stroke:none;stroke-width:0.793711;marker:none;enable-background:accumulate"
     d="m 16.676194,52.838361 v 1.058282 h 23.282188 v -1.058282 z"
     id="path1032"
     inkscape:connector-curvature="0"
     sodipodi:nodetypes="ccccc" />
  <path
     style="color:#000000;display:inline;overflow:visible;visibility:visible;opacity:0.3;fill:#ffffff;fill-opacity:1;fill-rule:nonzero;stroke:none;stroke-width:0.26457;marker:none;enable-background:accumulate"
     d="m 20.624081,4.1574239 c -9.338467,0 -10.343343,0.9593397 -10.297575,10.3166921 v 0.529141 C 10.280738,5.6459042 11.285614,4.6865646 20.624081,4.6865646 h 25.969227 c 9.338466,0 10.297573,0.9592282 10.297573,10.3166924 v -0.529141 c 0,-9.3574638 -0.959107,-10.3166921 -10.297573,-10.3166921 z"
     id="path931"
     inkscape:connector-curvature="0" />
  <rect
     style="display:inline;opacity:0.15;vector-effect:none;fill:url(#linearGradient9039);fill-opacity:1;stroke:none;stroke-width:0.529141;stroke-linecap:butt;stroke-linejoin:miter;stroke-miterlimit:4;stroke-dasharray:none;stroke-dashoffset:0;stroke-opacity:1;marker:none;enable-background:new"
     id="rect9031"
     width="46.564373"
     height="4.2331247"
     x="10.326507"
     y="16.856798" />
  <path
     inkscape:connector-curvature="0"
     style="color:#000000;display:inline;overflow:visible;visibility:visible;fill:#e3dfd5;fill-opacity:0.996078;fill-rule:nonzero;stroke:none;stroke-width:0.793711;marker:none;enable-background:accumulate"
     d="m 16.676194,48.605237 v 1.058281 h 33.865 v -1.058281 z"
     id="path9043-4"
     sodipodi:nodetypes="ccccc" />
</svg>
