<?xml version="1.0" encoding="UTF-8" standalone="no"?>
<svg
   width="256"
   height="256"
   viewBox="0 0 67.73 67.73"
   version="1.1"
   id="svg39"
   sodipodi:docname="gnome-aisleriot.svg"
   inkscape:version="1.1.2 (0a00cf5339, 2022-02-04)"
   xmlns:inkscape="http://www.inkscape.org/namespaces/inkscape"
   xmlns:sodipodi="http://sodipodi.sourceforge.net/DTD/sodipodi-0.dtd"
   xmlns:xlink="http://www.w3.org/1999/xlink"
   xmlns="http://www.w3.org/2000/svg"
   xmlns:svg="http://www.w3.org/2000/svg">
  <sodipodi:namedview
     id="namedview41"
     pagecolor="#ffffff"
     bordercolor="#666666"
     borderopacity="1.0"
     inkscape:pageshadow="2"
     inkscape:pageopacity="0.0"
     inkscape:pagecheckerboard="0"
     showgrid="false"
     inkscape:zoom="2.5585938"
     inkscape:cx="128"
     inkscape:cy="128"
     inkscape:window-width="1920"
     inkscape:window-height="1032"
     inkscape:window-x="0"
     inkscape:window-y="24"
     inkscape:window-maximized="1"
     inkscape:current-layer="svg39" />
  <defs
     id="defs21">
    <linearGradient
       id="e"
       x1="296"
       x2="296"
       y1="-212"
       y2="236"
       gradientUnits="userSpaceOnUse"
       xlink:href="#a" />
    <linearGradient
       id="a">
      <stop
         offset="0"
         stop-color="#FFFEFE"
         id="stop3" />
      <stop
         offset=".125"
         stop-color="#FFFEFE"
         stop-opacity=".098"
         id="stop5" />
      <stop
         offset=".925"
         stop-opacity=".098"
         id="stop7" />
      <stop
         offset="1"
         stop-opacity=".498"
         id="stop9" />
    </linearGradient>
    <clipPath
       id="d"
       clipPathUnits="userSpaceOnUse">
      <path
         d="M361.938-212C507.235-212 528-191.287 528-46.125v116.25C528 215.286 507.235 236 361.937 236H214.063C68.766 236 48 215.286 48 70.125v-116.25C48-191.287 68.765-212 214.063-212z"
         fill="#9F4AC8"
         id="path12" />
    </clipPath>
    <filter
       id="c"
       width="1.0232"
       height="1.0248571"
       x="-0.0116"
       y="-0.012428571"
       color-interpolation-filters="sRGB">
      <feGaussianBlur
         stdDeviation="1.16"
         id="feGaussianBlur15" />
    </filter>
    <filter
       id="b"
       width="1.0464"
       height="1.0497143"
       x="-0.023199999"
       y="-0.024857142"
       color-interpolation-filters="sRGB">
      <feGaussianBlur
         stdDeviation="2.32"
         id="feGaussianBlur18" />
    </filter>
    <filter
       inkscape:collect="always"
       style="color-interpolation-filters:sRGB"
       id="filter58492"
       x="-0.011999856"
       width="1.0239997"
       y="-0.012000144"
       height="1.0240003">
      <feGaussianBlur
         inkscape:collect="always"
         stdDeviation="1.1200135"
         id="feGaussianBlur58494" />
    </filter>
    <filter
       inkscape:collect="always"
       style="color-interpolation-filters:sRGB"
       id="filter58449"
       x="-0.047999425"
       width="1.0959989"
       y="-0.048000575"
       height="1.0960012">
      <feGaussianBlur
         inkscape:collect="always"
         stdDeviation="4.4800539"
         id="feGaussianBlur58451" />
    </filter>
    <linearGradient
       inkscape:collect="always"
       xlink:href="#linearGradient18571"
       id="linearGradient1694"
       x1="39.997601"
       y1="203.99699"
       x2="263.99759"
       y2="107.997"
       gradientUnits="userSpaceOnUse"
       gradientTransform="matrix(0,-0.26457031,0.26457031,0,-7.9853839,73.993721)" />
    <linearGradient
       id="linearGradient18571">
      <stop
         id="stop18567"
         offset="0"
         style="stop-color:#fafafa;stop-opacity:1" />
      <stop
         id="stop18569"
         offset="1"
         style="stop-color:#f0f0f0;stop-opacity:1" />
    </linearGradient>
    <linearGradient
       inkscape:collect="always"
       xlink:href="#linearGradient2310"
       id="linearGradient2312"
       x1="107.46364"
       y1="156"
       x2="90.637886"
       y2="156"
       gradientUnits="userSpaceOnUse"
       gradientTransform="matrix(0.26457031,0,0,0.26457031,-6.9264649,-7.4931383)" />
    <linearGradient
       inkscape:collect="always"
       id="linearGradient2310">
      <stop
         style="stop-color:#000000;stop-opacity:1;"
         offset="0"
         id="stop2306" />
      <stop
         style="stop-color:#000000;stop-opacity:0;"
         offset="1"
         id="stop2308" />
    </linearGradient>
    <linearGradient
       inkscape:collect="always"
       xlink:href="#linearGradient2310"
       id="linearGradient2341"
       gradientUnits="userSpaceOnUse"
       x1="107.46364"
       y1="156"
       x2="90.637886"
       y2="156"
       gradientTransform="matrix(0.26457031,0,0,0.26457031,-15.392715,-7.4931383)" />
  </defs>
  <path
     style="color:#000000;display:inline;overflow:visible;visibility:visible;opacity:0.1;fill:#000000;fill-opacity:1;fill-rule:nonzero;stroke:none;stroke-width:1;marker:none;filter:url(#filter58492);enable-background:accumulate"
     d="m 225.07297,44.99999 c 35.29673,0 39.09461,3.62542 38.92162,38.99353 v 73.00647 73.00648 C 264.16758,265.37459 260.3697,269 225.07297,269 H 78.916218 c -35.29671,0 -38.92161,-3.625 -38.92161,-38.99353 V 156.99999 83.99352 c 0,-35.36853 3.6249,-38.99353 38.92161,-38.99353 z"
     id="rect4158-7"
     inkscape:connector-curvature="0"
     sodipodi:nodetypes="scccssscsss"
     transform="matrix(0.26457031,0,0,0.26457031,-6.9264649,-7.4931383)" />
  <path
     style="color:#000000;display:inline;overflow:visible;visibility:visible;opacity:0.2;fill:#000000;fill-opacity:1;fill-rule:nonzero;stroke:none;stroke-width:1;marker:none;filter:url(#filter58449);enable-background:accumulate"
     d="m 225.07297,44.99999 c 35.29673,0 39.09461,3.62542 38.92162,38.99353 v 73.00647 73.00648 C 264.16758,265.37459 260.3697,269 225.07297,269 H 78.916218 c -35.29671,0 -38.92161,-3.625 -38.92161,-38.99353 V 156.99999 83.99352 c 0,-35.36853 3.6249,-38.99353 38.92161,-38.99353 z"
     id="rect4158-1"
     inkscape:connector-curvature="0"
     sodipodi:nodetypes="scccssscsss"
     transform="matrix(0.26457031,0,0,0.26457031,-6.9264649,-7.4931383)" />
  <path
     style="color:#000000;display:inline;overflow:visible;visibility:visible;fill:url(#linearGradient1694);fill-opacity:1;fill-rule:nonzero;stroke:none;stroke-width:0.26457;marker:none;enable-background:accumulate"
     d="m 13.953854,63.411625 c -9.3384669,0 -10.3432739,-0.959178 -10.2975059,-10.31653 V 33.779751 14.464405 C 3.6105781,5.10705 4.6153871,4.147874 13.953854,4.147874 h 38.668738 c 9.338461,0 10.297502,0.959068 10.297502,10.316531 v 19.315346 19.315344 c 0,9.357463 -0.959041,10.31653 -10.297502,10.31653 z"
     id="rect4158"
     inkscape:connector-curvature="0"
     sodipodi:nodetypes="scccssscsss" />
  <path
     id="rect4158-9-2"
     style="color:#000000;display:inline;overflow:visible;visibility:visible;opacity:0.05;fill:#000000;fill-opacity:1;fill-rule:nonzero;stroke:none;stroke-width:0.26457;marker:none;enable-background:accumulate"
     d="m 30.933949,4.147955 c -9.338467,0 -10.343342,0.95934 -10.297574,10.316692 V 33.77983 53.095013 c -0.04577,9.357355 0.959099,10.316692 10.297574,10.316692 h -4.233125 -4.233125 c -9.338471,0 -10.343341,-0.959337 -10.297573,-10.316692 V 33.77983 14.464647 C 12.124358,5.107295 13.129233,4.147955 22.467699,4.147955 h 4.233125 z" />
  <path
     style="color:#000000;display:inline;overflow:visible;visibility:visible;fill:#ffffff;fill-opacity:1;fill-rule:nonzero;stroke:none;stroke-width:0.26457;marker:none;enable-background:accumulate"
     d="m 52.67005,4.147955 c 9.338467,0 10.343342,0.95934 10.297574,10.316692 v 0.529141 C 63.013392,5.636436 62.008517,4.677096 52.67005,4.677096 H 30.933949 c -9.338467,0 -10.297574,0.959228 -10.297574,10.316692 v -0.529141 c 0,-9.357463 0.959107,-10.316692 10.297574,-10.316692 z"
     id="path931"
     inkscape:connector-curvature="0"
     sodipodi:nodetypes="sccsscsss" />
  <path
     id="rect4158-9-2-2"
     style="color:#000000;display:inline;overflow:visible;visibility:visible;opacity:0.25;fill:#000000;fill-opacity:1;fill-rule:nonzero;stroke:none;stroke-width:0.26457;marker:none;enable-background:accumulate"
     d="m 30.933949,4.147955 c -9.338467,0 -10.343342,0.95934 -10.297574,10.316692 V 33.77983 53.095013 c -0.04577,9.357355 0.959099,10.316692 10.297574,10.316692 h -0.529141 c -9.338475,0 -10.343342,-0.959337 -10.297574,-10.316692 V 33.77983 14.464647 C 20.061466,5.107295 21.066341,4.147955 30.404808,4.147955 Z" />
  <path
     id="rect4158-9"
     style="color:#000000;display:inline;overflow:visible;visibility:visible;opacity:0.1;fill:#000000;fill-opacity:1;fill-rule:nonzero;stroke:none;stroke-width:0.26457;marker:none;enable-background:accumulate"
     d="m 22.467699,4.147955 c -9.338466,0 -10.343341,0.95934 -10.297573,10.316692 V 33.77983 53.095013 c -0.04577,9.357355 0.959099,10.316692 10.297573,10.316692 H 18.234575 14.00145 c -9.3384689,0 -10.3433419,-0.959337 -10.2975739,-10.316692 V 33.77983 14.464647 C 3.6581061,5.107295 4.6629831,4.147955 14.00145,4.147955 h 4.233125 z" />
  <path
     id="rect4158-9-2-2-2"
     style="color:#000000;display:inline;overflow:visible;visibility:visible;opacity:0.25;fill:#000000;fill-opacity:1;fill-rule:nonzero;stroke:none;stroke-width:0.26457;marker:none;enable-background:accumulate"
     d="m 22.467699,4.147955 c -9.338466,0 -10.343341,0.95934 -10.297573,10.316692 V 33.77983 53.095013 c -0.04577,9.357355 0.959099,10.316692 10.297573,10.316692 h -0.529141 c -9.338473,0 -10.34334,-0.959337 -10.297572,-10.316692 V 33.77983 14.464647 C 11.595218,5.107295 12.600093,4.147955 21.938558,4.147955 Z" />
  <path
     id="rect4158-9-2-8"
     style="color:#000000;display:inline;overflow:visible;visibility:visible;opacity:0.125;fill:url(#linearGradient2312);fill-opacity:1;fill-rule:nonzero;stroke:none;stroke-width:0.26457;marker:none;enable-background:accumulate"
     d="m 30.88785,4.147956 c -9.338467,0 -10.343342,0.95934 -10.297574,10.316694 v 19.31518 19.315183 c -0.04577,9.357355 0.959099,10.316692 10.297574,10.316692 H 26.654725 22.4216 c -9.338473,0 -10.343343,-0.959337 -10.297575,-10.316692 V 33.77983 14.46465 C 12.078257,5.107296 13.083132,4.147956 22.4216,4.147956 h 4.233125 z" />
  <path
     id="rect4158-9-2-8-6"
     style="color:#000000;display:inline;overflow:visible;visibility:visible;opacity:0.125;fill:url(#linearGradient2341);fill-opacity:1;fill-rule:nonzero;stroke:none;stroke-width:0.26457;marker:none;enable-background:accumulate"
     d="m 22.4216,4.147954 c -9.338467,0 -10.343342,0.95934 -10.297574,10.316693 V 33.77983 53.095013 c -0.04577,9.357352 0.959099,10.316689 10.297574,10.316689 h -4.233126 -4.233125 c -9.3384719,0 -10.3433419,-0.959337 -10.2975739,-10.316689 V 33.77983 14.464647 C 3.6120051,5.107294 4.6168821,4.147954 13.955349,4.147954 h 4.233125 z" />
  <path
     style="display:inline;vector-effect:none;fill:#da1636;fill-opacity:1;stroke:none;stroke-width:1.31129;stroke-linecap:round;stroke-linejoin:round;stroke-miterlimit:4;stroke-dasharray:none;stroke-dashoffset:0;stroke-opacity:0;enable-background:new"
     d="m 23.884224,13.672955 c -0.593661,0.04112 -1.107534,0.517421 -1.171454,1.145834 -0.03498,0.424089 0.05382,0.849564 0.284199,1.212924 0.706744,1.03479 1.562928,1.982011 2.352295,2.932182 h 0.02627 c 0.748919,-0.99248 1.63646,-1.913076 2.353448,-2.932182 0.240243,-0.444848 0.345534,-0.948021 0.20405,-1.440535 -0.214665,-0.509984 -0.527104,-0.934776 -1.091305,-0.918223 -0.647025,0.0025 -1.326373,0.574165 -1.478758,1.179379 -0.182585,-0.490501 -0.77962,-1.130703 -1.340556,-1.179379 z"
     id="rect3090-0-7-5-6"
     inkscape:connector-curvature="0"
     inkscape:export-xdpi="96"
     inkscape:export-ydpi="96" />
  <text
     xml:space="preserve"
     style="font-size:7.49676px;line-height:1.25;font-family:Ubuntu;-inkscape-font-specification:Ubuntu;text-align:end;letter-spacing:0px;word-spacing:0px;text-anchor:end;display:inline;fill:#da1636;fill-opacity:1;stroke:none;stroke-width:0.187419;stroke-opacity:1;enable-background:new"
     x="28.30549"
     y="12.384987"
     id="text3755-3"
     transform="scale(0.98182765,1.0185087)"><tspan
       sodipodi:role="line"
       id="tspan3753-9"
       x="28.30549"
       y="12.384987"
       style="stroke:none;stroke-width:0.187419;stroke-opacity:1">A</tspan></text>
  <path
     style="display:inline;vector-effect:none;fill:#da1636;fill-opacity:1;stroke:none;stroke-width:1.31129;stroke-linecap:round;stroke-linejoin:round;stroke-miterlimit:4;stroke-dasharray:none;stroke-dashoffset:0;stroke-opacity:0;enable-background:new"
     d="m 6.5666211,16.31819 1.825709,2.645703 h 0.02628 L 10.270602,16.31819 8.4186101,13.672486 Z"
     id="rect3090-0-7-5-6-4-2"
     inkscape:connector-curvature="0"
     inkscape:export-xdpi="96"
     inkscape:export-ydpi="96"
     sodipodi:nodetypes="cccccc" />
  <text
     xml:space="preserve"
     style="font-size:7.1276px;line-height:1.25;font-family:Ubuntu;-inkscape-font-specification:Ubuntu;text-align:end;letter-spacing:0px;word-spacing:0px;text-anchor:end;display:inline;fill:#da1636;fill-opacity:1;stroke:#da1636;stroke-width:0.17819;stroke-opacity:1;enable-background:new"
     x="10.568661"
     y="12.254395"
     id="text3755-3-8-9"
     transform="scale(0.9869221,1.0132512)"><tspan
       sodipodi:role="line"
       id="tspan3753-9-1-3"
       x="10.568661"
       y="12.254395"
       style="stroke:#da1636;stroke-width:0.17819;stroke-opacity:1">5</tspan></text>
  <path
     style="display:inline;vector-effect:none;fill:#da1636;fill-opacity:1;stroke:none;stroke-width:1.31129;stroke-linecap:round;stroke-linejoin:round;stroke-miterlimit:4;stroke-dasharray:none;stroke-dashoffset:0;stroke-opacity:0;enable-background:new"
     d="m 56.690942,53.886711 c -0.593661,-0.04112 -1.107533,-0.517421 -1.171453,-1.145833 -0.03498,-0.424091 0.05382,-0.849565 0.284198,-1.212925 0.706744,-1.03479 1.562928,-1.98201 2.352295,-2.932183 h 0.02627 c 0.748919,0.99248 1.63646,1.913076 2.353448,2.932183 0.240243,0.444848 0.345534,0.948021 0.20405,1.440535 -0.214665,0.509985 -0.527104,0.934777 -1.091305,0.918223 -0.647025,-0.0024 -1.326373,-0.574166 -1.478758,-1.179378 -0.182585,0.4905 -0.77962,1.130702 -1.340556,1.179378 z"
     id="rect3090-0-7-5-6-0"
     inkscape:connector-curvature="0"
     inkscape:export-xdpi="96"
     inkscape:export-ydpi="96" />
  <text
     xml:space="preserve"
     style="font-size:7.49676px;line-height:1.25;font-family:Ubuntu;-inkscape-font-specification:Ubuntu;text-align:end;letter-spacing:0px;word-spacing:0px;text-anchor:end;display:inline;fill:#da1636;fill-opacity:1;stroke:none;stroke-width:0.187419;stroke-opacity:1;enable-background:new"
     x="61.719368"
     y="-53.946877"
     id="text3755-3-88"
     transform="scale(0.98182794,-1.0185084)"><tspan
       sodipodi:role="line"
       id="tspan3753-9-5"
       x="61.719368"
       y="-53.946877"
       style="stroke:none;stroke-width:0.187419;stroke-opacity:1">A</tspan></text>
  <path
     style="display:inline;vector-effect:none;fill:#da1636;fill-opacity:1;stroke:none;stroke-width:5.24516;stroke-linecap:round;stroke-linejoin:round;stroke-miterlimit:4;stroke-dasharray:none;stroke-dashoffset:0;stroke-opacity:0;enable-background:new"
     d="m 35.934457,23.198891 c -2.374648,0.164488 -4.430129,2.069683 -4.685813,4.583336 -0.13992,1.696357 0.215292,3.398255 1.136795,4.851696 2.826971,4.13916 6.25171,7.928045 9.409171,11.728719 h 0.105132 c 2.995674,-3.969909 6.54584,-7.652296 9.413796,-11.728719 0.960967,-1.779391 1.382136,-3.792086 0.816204,-5.762143 -0.858663,-2.039935 -2.108421,-3.739103 -4.365222,-3.672889 -2.588098,0.0099 -5.305492,2.296661 -5.915033,4.717516 -0.730341,-1.962006 -3.118474,-4.522811 -5.362229,-4.717516 z"
     id="rect3090-0-7"
     inkscape:connector-curvature="0"
     inkscape:export-xdpi="96"
     inkscape:export-ydpi="96" />
  <path
     inkscape:connector-curvature="0"
     style="display:inline;opacity:0.08;vector-effect:none;fill:#ffffff;fill-opacity:1;stroke:none;stroke-width:5.25323;stroke-linecap:round;stroke-linejoin:round;stroke-miterlimit:4;stroke-dasharray:none;stroke-dashoffset:0;stroke-opacity:0;enable-background:new"
     d="m 31.725852,30.783741 c 0.191473,0.743622 0.488199,1.460888 0.908051,2.125137 2.826973,4.151891 6.251714,7.952428 9.409173,11.764791 h 0.105132 c 2.334045,-3.102624 5.000924,-6.032407 7.423248,-9.108222 z"
     id="rect3090-0-5-5"
     inkscape:export-xdpi="96"
     inkscape:export-ydpi="96" />
  <path
     id="rect3090-0-7-5-6-4"
     style="display:inline;opacity:0.7;vector-effect:none;fill:#000000;fill-opacity:1;stroke:none;stroke-width:1.18609;stroke-linecap:round;stroke-linejoin:round;stroke-miterlimit:4;stroke-dasharray:none;stroke-dashoffset:0;stroke-opacity:0;enable-background:new"
     d="m 16.883099,13.672486 c -0.789356,0.777402 -1.645691,1.640648 -2.352425,2.487283 -0.230373,0.297291 -0.319183,0.645148 -0.284202,0.992126 0.06392,0.514149 0.578035,0.903988 1.17169,0.937634 h 0.137795 c 0.289111,-0.02053 0.58663,-0.170377 0.833231,-0.365001 -0.157308,0.503264 -0.626631,0.802123 -1.157911,0.80226 -0.03681,-6.2e-5 -0.07359,-0.0018 -0.110236,-0.0052 v 0.442196 h 1.76378 1.76378 V 18.52162 c -0.03665,0.0034 -0.07343,0.0051 -0.110236,0.0052 -0.524236,-9e-6 -0.989104,-0.289876 -1.152314,-0.783939 0.280738,0.20525 0.638534,0.345584 0.989543,0.34668 0.564194,0.01354 0.876504,-0.333887 1.091167,-0.751141 0.14148,-0.402961 0.03613,-0.814657 -0.204109,-1.178619 -0.716982,-0.833835 -1.604377,-1.675297 -2.353286,-2.487315 z"
     sodipodi:nodetypes="ccccccccccccccccccc" />
  <text
     xml:space="preserve"
     style="font-size:7.72188px;line-height:1.25;font-family:Ubuntu;-inkscape-font-specification:Ubuntu;text-align:end;letter-spacing:0px;word-spacing:0px;text-anchor:end;display:inline;opacity:0.7;fill:#000000;fill-opacity:1;stroke:none;stroke-width:0.193047;stroke-opacity:1;enable-background:new"
     x="18.158688"
     y="13.211721"
     id="text3755-3-8"
     transform="scale(1.0565505,0.9464763)"><tspan
       sodipodi:role="line"
       id="tspan3753-9-1"
       x="18.158688"
       y="13.211721"
       style="fill:#000000;stroke:none;stroke-width:0.193047;stroke-opacity:1">8</tspan></text>
  <path
     style="color:#000000;display:inline;overflow:visible;visibility:visible;opacity:0.2;fill:#000000;fill-opacity:1;fill-rule:nonzero;stroke:none;stroke-width:0.26457;marker:none;enable-background:accumulate"
     d="m 13.95535,63.411625 c -9.3384669,0 -10.3433429,-0.959339 -10.2975749,-10.316691 v -0.529141 c -0.04577,9.357352 0.959108,10.316692 10.2975749,10.316692 h 38.668602 c 9.338466,0 10.297574,-0.959229 10.297574,-10.316692 v 0.529141 c 0,9.357463 -0.959108,10.316691 -10.297574,10.316691 z"
     id="path931-8"
     inkscape:connector-curvature="0"
     sodipodi:nodetypes="sccsscsss" />
</svg>
