<?xml version="1.0" encoding="UTF-8" standalone="no"?>
<svg
   width="256"
   height="256"
   version="1.0"
   enable-background="new"
   id="svg74"
   sodipodi:docname="password-manager.svg"
   inkscape:version="1.1.2 (0a00cf5339, 2022-02-04)"
   xmlns:inkscape="http://www.inkscape.org/namespaces/inkscape"
   xmlns:sodipodi="http://sodipodi.sourceforge.net/DTD/sodipodi-0.dtd"
   xmlns:xlink="http://www.w3.org/1999/xlink"
   xmlns="http://www.w3.org/2000/svg"
   xmlns:svg="http://www.w3.org/2000/svg">
  <sodipodi:namedview
     id="namedview76"
     pagecolor="#ffffff"
     bordercolor="#666666"
     borderopacity="1.0"
     inkscape:pageshadow="2"
     inkscape:pageopacity="0.0"
     inkscape:pagecheckerboard="0"
     showgrid="false"
     inkscape:zoom="1.7246094"
     inkscape:cx="118.57758"
     inkscape:cy="108.14043"
     inkscape:window-width="1920"
     inkscape:window-height="1032"
     inkscape:window-x="0"
     inkscape:window-y="0"
     inkscape:window-maximized="1"
     inkscape:current-layer="svg74" />
  <defs
     id="defs44">
    <linearGradient
       id="b">
      <stop
         offset="0"
         stop-color="#FFFEFE"
         id="stop2" />
      <stop
         offset=".125"
         stop-color="#FFFEFE"
         stop-opacity=".098"
         id="stop4" />
      <stop
         offset=".925"
         stop-opacity=".098"
         id="stop6" />
      <stop
         offset="1"
         stop-opacity=".498"
         id="stop8" />
    </linearGradient>
    <linearGradient
       id="d">
      <stop
         offset="0"
         stop-color="#9F4AC8"
         id="stop11" />
      <stop
         offset="1"
         stop-color="#9F4AC8"
         id="stop13" />
    </linearGradient>
    <linearGradient
       id="a">
      <stop
         offset="0"
         stop-color="#111110"
         id="stop16" />
      <stop
         offset=".351"
         stop-color="#EEEDED"
         id="stop18" />
      <stop
         offset=".602"
         stop-color="#EEEDED"
         id="stop20" />
      <stop
         offset="1"
         stop-color="#111110"
         id="stop22" />
    </linearGradient>
    <linearGradient
       id="c">
      <stop
         offset="0"
         stop-color="#EEEDED"
         id="stop25" />
      <stop
         offset="1"
         stop-color="#EEEDED"
         id="stop27" />
    </linearGradient>
    <filter
       id="e"
       width="1.0464"
       height="1.0497143"
       x="-0.023199999"
       y="-0.024857142"
       color-interpolation-filters="sRGB">
      <feGaussianBlur
         stdDeviation="2.32"
         id="feGaussianBlur30" />
    </filter>
    <filter
       id="f"
       width="1.0232"
       height="1.0248571"
       x="-0.0116"
       y="-0.012428571"
       color-interpolation-filters="sRGB">
      <feGaussianBlur
         stdDeviation="1.16"
         id="feGaussianBlur33" />
    </filter>
    <clipPath
       id="g"
       clipPathUnits="userSpaceOnUse">
      <path
         d="M361.938-212C507.235-212 528-191.287 528-46.125v116.25C528 215.286 507.235 236 361.937 236H214.063C68.766 236 48 215.286 48 70.125v-116.25C48-191.287 68.765-212 214.063-212z"
         fill="#9F4AC8"
         id="path36" />
    </clipPath>
    <linearGradient
       id="j"
       x1="60"
       x2="68"
       y1="199.856"
       y2="199.856"
       gradientTransform="matrix(.68299 0 0 .63745 239.692 126.724)"
       gradientUnits="userSpaceOnUse"
       xlink:href="#a" />
    <linearGradient
       id="h"
       x1="296"
       x2="296"
       y1="-212"
       y2="236"
       gradientUnits="userSpaceOnUse"
       xlink:href="#b" />
    <linearGradient
       id="i"
       x1="60"
       x2="68"
       y1="199.856"
       y2="199.856"
       gradientTransform="matrix(.68299 0 0 .63745 239.692 99.857)"
       gradientUnits="userSpaceOnUse"
       xlink:href="#a" />
    <linearGradient
       id="l"
       x1="-254"
       x2="-206"
       y1="64"
       y2="64"
       gradientTransform="translate(-11.754 263.646)"
       gradientUnits="userSpaceOnUse"
       xlink:href="#c" />
    <radialGradient
       id="k"
       cx="-223"
       cy="64"
       r="24"
       fx="-223"
       fy="64"
       gradientTransform="matrix(1.55555 0 0 1.55555 115.635 228.09)"
       gradientUnits="userSpaceOnUse"
       xlink:href="#d" />
    <filter
       inkscape:collect="always"
       style="color-interpolation-filters:sRGB"
       id="filter48967"
       x="-0.012"
       width="1.024"
       y="-0.012"
       height="1.024">
      <feGaussianBlur
         inkscape:collect="always"
         stdDeviation="1.12"
         id="feGaussianBlur48969" />
    </filter>
    <filter
       inkscape:collect="always"
       style="color-interpolation-filters:sRGB"
       id="filter48952"
       x="-0.048"
       width="1.096"
       y="-0.048"
       height="1.096">
      <feGaussianBlur
         inkscape:collect="always"
         stdDeviation="4.48"
         id="feGaussianBlur48954" />
    </filter>
    <filter
       inkscape:collect="always"
       style="color-interpolation-filters:sRGB"
       id="filter4323"
       x="-0.011999999"
       width="1.024"
       y="-0.011999999"
       height="1.024">
      <feGaussianBlur
         inkscape:collect="always"
         stdDeviation="1.7599998"
         id="feGaussianBlur4325" />
    </filter>
    <linearGradient
       inkscape:collect="always"
       xlink:href="#linearGradient4295"
       id="linearGradient4301"
       x1="-434"
       y1="-256"
       x2="-82.000046"
       y2="-256"
       gradientUnits="userSpaceOnUse" />
    <linearGradient
       id="linearGradient4295"
       inkscape:collect="always">
      <stop
         id="stop4365"
         offset="0"
         style="stop-color:#000000;stop-opacity:0" />
      <stop
         style="stop-color:#000000;stop-opacity:1"
         offset="0.49903455"
         id="stop4367" />
      <stop
         id="stop4369"
         offset="1"
         style="stop-color:#000000;stop-opacity:0" />
    </linearGradient>
    <filter
       inkscape:collect="always"
       style="color-interpolation-filters:sRGB"
       id="filter4291"
       x="-0.096000001"
       width="1.192"
       y="-0.096000001"
       height="1.192">
      <feGaussianBlur
         inkscape:collect="always"
         stdDeviation="14.079999"
         id="feGaussianBlur4293" />
    </filter>
    <filter
       inkscape:collect="always"
       style="color-interpolation-filters:sRGB"
       id="filter1013"
       x="-0.060000002"
       width="1.12"
       y="-0.060000002"
       height="1.12">
      <feGaussianBlur
         inkscape:collect="always"
         stdDeviation="3.4"
         id="feGaussianBlur1015" />
    </filter>
    <radialGradient
       inkscape:collect="always"
       xlink:href="#linearGradient4398"
       id="radialGradient4404"
       cx="-256"
       cy="-256.20001"
       fx="-256"
       fy="-256.20001"
       r="96"
       gradientUnits="userSpaceOnUse"
       gradientTransform="matrix(0,-0.8333347,-0.83333471,0,-86.51521,-85.608873)" />
    <linearGradient
       inkscape:collect="always"
       id="linearGradient4398">
      <stop
         id="stop4402"
         offset="0"
         style="stop-color:#000000;stop-opacity:0;" />
      <stop
         style="stop-color:#000000;stop-opacity:0"
         offset="0.89867342"
         id="stop4408" />
      <stop
         id="stop4410"
         offset="0.94933045"
         style="stop-color:#000000;stop-opacity:0.26165804" />
      <stop
         id="stop4400"
         offset="1"
         style="stop-color:#000000;stop-opacity:1;" />
    </linearGradient>
  </defs>
  <circle
     style="display:inline;opacity:0.1;fill:#000000;fill-opacity:1;stroke:none;stroke-width:1;stroke-linecap:round;stroke-linejoin:round;stroke-miterlimit:4;stroke-dasharray:none;stroke-opacity:1;filter:url(#filter48967);enable-background:new"
     id="path11042-4"
     r="112"
     cy="128.72481"
     cx="126.98528" />
  <circle
     style="display:inline;opacity:0.2;fill:#000000;fill-opacity:1;stroke:none;stroke-width:1;stroke-linecap:round;stroke-linejoin:round;stroke-miterlimit:4;stroke-dasharray:none;stroke-opacity:1;filter:url(#filter48952);enable-background:new"
     id="path11042-9"
     r="112"
     cy="128.72481"
     cx="126.98528" />
  <circle
     style="display:inline;fill:#c8c4b7;fill-opacity:1;stroke:none;stroke-width:1;stroke-linecap:round;stroke-linejoin:round;stroke-miterlimit:4;stroke-dasharray:none;stroke-opacity:1;enable-background:new"
     id="path11042"
     r="112"
     cy="127.72479"
     cx="126.98528" />
  <path
     style="display:inline;opacity:0.25;fill:#ffffff;fill-opacity:1;stroke:none;stroke-width:1;stroke-linecap:round;stroke-linejoin:round;stroke-miterlimit:4;stroke-dasharray:none;stroke-opacity:1;enable-background:new"
     d="M 126.98528,15.724807 A 112,112 0 0 0 14.985282,127.72481 a 112,112 0 0 0 111.999998,112 z"
     id="path11042-2"
     inkscape:connector-curvature="0" />
  <circle
     r="175.99998"
     cy="-256"
     cx="-258.00003"
     transform="matrix(0,-0.5,-0.50000001,0,-1.014722,-0.27519893)"
     id="circle4305"
     style="color:#000000;display:inline;overflow:visible;visibility:visible;opacity:0.1;fill:#000000;fill-opacity:0.996078;stroke:none;stroke-width:4.96;marker:none;filter:url(#filter4323);enable-background:accumulate" />
  <circle
     r="175.99998"
     cy="-256"
     cx="-258.00003"
     transform="matrix(0,-0.5,-0.50000001,0,-1.014722,-0.27519893)"
     id="circle4345"
     style="color:#000000;display:inline;overflow:visible;visibility:visible;opacity:0.4;fill:url(#linearGradient4301);fill-opacity:1;stroke:none;stroke-width:4.96;marker:none;filter:url(#filter4291);enable-background:accumulate" />
  <circle
     style="color:#000000;display:inline;overflow:visible;visibility:visible;fill:#f7f7f7;fill-opacity:1;stroke:none;stroke-width:2.48;marker:none;enable-background:accumulate"
     id="path4389-5"
     transform="matrix(0,-1,-1,0,0,0)"
     cx="-127.72484"
     cy="-126.9853"
     r="87.999992" />
  <circle
     style="color:#000000;display:inline;overflow:visible;visibility:visible;fill:#ffffff;fill-opacity:1;stroke:none;stroke-width:2;marker:none;enable-background:accumulate"
     id="circle4191"
     transform="matrix(0,-1,-1,0,0,0)"
     cx="-128.72481"
     cy="-126.9853"
     r="80" />
  <circle
     r="80"
     cy="-126.9853"
     cx="-127.72478"
     transform="matrix(0,-1,-1,0,0,0)"
     id="circle4371"
     style="color:#000000;display:inline;overflow:visible;visibility:visible;fill:#aea795;fill-opacity:1;stroke:none;stroke-width:2;marker:none;enable-background:accumulate" />
  <circle
     style="color:#000000;display:inline;overflow:visible;visibility:visible;opacity:0.1;fill:#000000;fill-opacity:1;stroke:none;stroke-width:2;marker:none;filter:url(#filter1013);enable-background:accumulate"
     id="circle1011"
     transform="matrix(0,-1,-1,0,-25.014722,-28.275187)"
     cx="-157"
     cy="-152"
     r="68" />
  <path
     style="color:#000000;display:inline;overflow:visible;visibility:visible;opacity:0.05;fill:url(#radialGradient4404);fill-opacity:1;stroke:none;stroke-width:2;marker:none;enable-background:accumulate"
     d="m 126.98458,47.724108 a 80.000136,80.000135 0 0 0 -79.999302,80.000692 80.000136,80.000135 0 0 0 79.999302,80.0007 80.000136,80.000135 0 0 0 80.0007,-80.0007 80.000136,80.000135 0 0 0 -80.0007,-80.000692 z m 0,28.622579 A 51.378131,51.37813 0 0 1 178.36269,127.7248 51.378131,51.37813 0 0 1 126.98458,179.10291 51.378131,51.37813 0 0 1 75.606472,127.7248 51.378131,51.37813 0 0 1 126.98458,76.346687 Z"
     id="circle4396"
     inkscape:connector-curvature="0" />
  <circle
     r="68"
     cy="-126.9853"
     cx="-127.72481"
     transform="matrix(0,-1,-1,0,0,0)"
     id="circle4269"
     style="color:#000000;display:inline;overflow:visible;visibility:visible;fill:#f7f7f7;fill-opacity:1;stroke:none;stroke-width:2;marker:none;enable-background:accumulate" />
  <circle
     style="color:#000000;display:inline;overflow:visible;visibility:visible;opacity:0.1;fill:#000000;fill-opacity:1;stroke:none;stroke-width:2;marker:none;enable-background:accumulate"
     id="circle4201"
     transform="matrix(0,-1,-1,0,0,0)"
     cx="-127.72478"
     cy="-126.9853"
     r="60" />
  <circle
     r="32"
     cy="-126.9853"
     cx="-127.72478"
     transform="matrix(0,-1,-1,0,0,0)"
     id="circle1084"
     style="color:#000000;display:inline;overflow:visible;visibility:visible;opacity:0.1;fill:#000000;fill-opacity:1;stroke:none;stroke-width:2;marker:none;enable-background:accumulate" />
  <path
     style="color:#000000;display:inline;overflow:visible;visibility:visible;fill:#ffffff;fill-opacity:1;stroke:none;stroke-width:2.48;marker:none;enable-background:accumulate"
     d="m 126.98528,39.724811 a 87.999993,87.999992 0 0 0 -88.000002,87.999999 87.999993,87.999992 0 0 0 0.041,0.83008 87.999993,87.999992 0 0 1 87.959002,-86.830079 87.999993,87.999992 0 0 1 87.95898,87.169919 87.999993,87.999992 0 0 0 0.041,-1.16992 87.999993,87.999992 0 0 0 -88,-87.999999 z"
     id="circle1021"
     inkscape:connector-curvature="0" />
  <path
     inkscape:connector-curvature="0"
     style="display:inline;fill:#3b3b3b;fill-opacity:1;stroke:none;stroke-width:1;enable-background:new"
     d="m 118.98528,87.724805 h 16 v 42.499985 l -5.33334,5 5.33334,5 v 27.50002 h -16 v -42.50002 l 5.33332,-5 -5.33332,-5 z"
     id="rect3030"
     sodipodi:nodetypes="ccccccccccc" />
  <path
     inkscape:connector-curvature="0"
     style="color:#000000;display:inline;overflow:visible;visibility:visible;fill:#ffffff;fill-opacity:1;stroke:none;stroke-width:2;marker:none;enable-background:accumulate"
     d="m 126.98528,59.724811 a 68.000001,68 0 0 0 -68.000001,67.999999 68.000001,68 0 0 0 0.041,0.82812 68.000001,68 0 0 1 67.958981,-66.828119 68.000001,68 0 0 1 67.95898,67.171879 68.000001,68 0 0 0 0.041,-1.17188 68.000001,68 0 0 0 -68,-67.999999 z"
     id="circle1017" />
  <path
     inkscape:connector-curvature="0"
     style="display:inline;opacity:0.2;fill:#000000;fill-opacity:1;stroke:none;stroke-width:1;stroke-linecap:round;stroke-linejoin:round;stroke-miterlimit:4;stroke-dasharray:none;stroke-opacity:1;enable-background:new"
     d="m 126.98528,239.7248 a 112,112 0 0 1 -111.999998,-112 112,112 0 0 1 0.04102,-1.16992 112,112 0 0 0 111.958978,111.16992 112,112 0 0 0 111.95898,-110.83008 112,112 0 0 1 0.041,0.83008 112,112 0 0 1 -112,112 z"
     id="path11042-1-7" />
  <path
     style="display:inline;opacity:0.3;fill:#ffffff;fill-opacity:1;stroke:none;stroke-width:1;stroke-linecap:round;stroke-linejoin:round;stroke-miterlimit:4;stroke-dasharray:none;stroke-opacity:1;enable-background:new"
     d="M 126.98528,15.724801 A 112,112 0 0 0 14.985282,127.7248 a 112,112 0 0 0 0.04102,1.16992 112,112 0 0 1 111.958978,-111.169919 112,112 0 0 1 111.95898,110.830079 112,112 0 0 0 0.041,-0.83008 112,112 0 0 0 -112,-111.999999 z"
     id="path11042-1"
     inkscape:connector-curvature="0" />
</svg>
