<?xml version="1.0" encoding="UTF-8" standalone="no"?>
<svg
   width="256"
   height="256"
   version="1.1"
   id="svg32"
   sodipodi:docname="gimp.svg"
   inkscape:version="1.1.2 (0a00cf5339, 2022-02-04)"
   xmlns:inkscape="http://www.inkscape.org/namespaces/inkscape"
   xmlns:sodipodi="http://sodipodi.sourceforge.net/DTD/sodipodi-0.dtd"
   xmlns:xlink="http://www.w3.org/1999/xlink"
   xmlns="http://www.w3.org/2000/svg"
   xmlns:svg="http://www.w3.org/2000/svg">
  <sodipodi:namedview
     id="namedview34"
     pagecolor="#ffffff"
     bordercolor="#666666"
     borderopacity="1.0"
     inkscape:pageshadow="2"
     inkscape:pageopacity="0.0"
     inkscape:pagecheckerboard="0"
     showgrid="false"
     inkscape:zoom="1.2402344"
     inkscape:cx="97.562203"
     inkscape:cy="149.5685"
     inkscape:window-width="1920"
     inkscape:window-height="1032"
     inkscape:window-x="0"
     inkscape:window-y="0"
     inkscape:window-maximized="1"
     inkscape:current-layer="svg32" />
  <defs
     id="defs22">
    <linearGradient
       id="d"
       x1="296"
       x2="296"
       y1="-212"
       y2="236"
       gradientUnits="userSpaceOnUse">
      <stop
         offset="0"
         stop-color="#FFFEFE"
         id="stop2" />
      <stop
         offset=".125"
         stop-color="#FFFEFE"
         stop-opacity=".098"
         id="stop4" />
      <stop
         offset=".925"
         stop-opacity=".098"
         id="stop6" />
      <stop
         offset="1"
         stop-opacity=".498"
         id="stop8" />
    </linearGradient>
    <clipPath
       id="c">
      <path
         d="M361.938-212C507.235-212 528-191.287 528-46.125v116.25C528 215.286 507.235 236 361.937 236H214.063C68.766 236 48 215.286 48 70.125v-116.25C48-191.287 68.765-212 214.063-212z"
         fill="#9F4AC8"
         id="path11" />
    </clipPath>
    <linearGradient
       id="b"
       x1="32"
       x2="272"
       y1="156"
       y2="156"
       gradientTransform="rotate(60 162.659 119.325)"
       gradientUnits="userSpaceOnUse">
      <stop
         offset="0"
         stop-color="#006FF4"
         id="stop14" />
      <stop
         offset="1"
         stop-color="#0984FE"
         id="stop16" />
    </linearGradient>
    <filter
       id="a"
       x="-0.023199999"
       y="-0.024857142"
       width="1.0464"
       height="1.0497143"
       color-interpolation-filters="sRGB">
      <feGaussianBlur
         stdDeviation="2.32"
         id="feGaussianBlur19" />
    </filter>
    <filter
       inkscape:collect="always"
       style="color-interpolation-filters:sRGB"
       id="filter4346"
       x="-0.011351265"
       width="1.0227025"
       y="-0.011357288"
       height="1.0227146">
      <feGaussianBlur
         inkscape:collect="always"
         stdDeviation="2.120027"
         id="feGaussianBlur4348" />
    </filter>
    <filter
       inkscape:collect="always"
       style="color-interpolation-filters:sRGB"
       id="filter4380"
       x="-0.045405058"
       width="1.0908101"
       y="-0.045429151"
       height="1.0908583">
      <feGaussianBlur
         inkscape:collect="always"
         stdDeviation="8.4801079"
         id="feGaussianBlur4382" />
    </filter>
    <linearGradient
       inkscape:collect="always"
       xlink:href="#linearGradient916"
       id="linearGradient1694"
       x1="39.997299"
       y1="155.99969"
       x2="263.99731"
       y2="155.99969"
       gradientUnits="userSpaceOnUse"
       gradientTransform="rotate(90,152.45454,130.07741)" />
    <linearGradient
       inkscape:collect="always"
       id="linearGradient916">
      <stop
         style="stop-color:#2f5fdd;stop-opacity:1"
         offset="0"
         id="stop912" />
      <stop
         style="stop-color:#5884f4;stop-opacity:1"
         offset="1"
         id="stop914" />
    </linearGradient>
  </defs>
  <path
     style="color:#000000;display:inline;overflow:visible;visibility:visible;opacity:0.1;fill:#000000;fill-opacity:1;fill-rule:nonzero;stroke:none;stroke-width:2;marker:none;filter:url(#filter4346);enable-background:accumulate"
     d="M 141.84323,74 C 71.24979,74 63.65402,81.250835 64,151.98706 V 298 444.01294 C 63.65402,514.74917 71.24979,522 141.84323,522 H 434.15677 C 504.75021,522 513.9371,514.72348 512,444.01294 V 298 151.98706 C 512,81.249993 504.75021,74 434.15677,74 Z"
     id="rect4158-9"
     inkscape:connector-curvature="0"
     sodipodi:nodetypes="scccssscsss"
     transform="matrix(0.5,0,0,0.5,-17.465052,-18.379833)" />
  <path
     sodipodi:nodetypes="scccssscsss"
     inkscape:connector-curvature="0"
     id="path4350"
     d="M 141.84323,74 C 71.24979,74 63.65402,81.250835 64,151.98706 V 298 444.01294 C 63.65402,514.74917 71.24979,522 141.84323,522 H 434.15677 C 504.75021,522 513.9371,514.72348 512,444.01294 V 298 151.98706 C 512,81.249993 504.75021,74 434.15677,74 Z"
     style="color:#000000;display:inline;overflow:visible;visibility:visible;opacity:0.1;fill:#000000;fill-opacity:1;fill-rule:nonzero;stroke:none;stroke-width:2;marker:none;filter:url(#filter4380);enable-background:accumulate"
     transform="matrix(0.5,0,0,0.5,-17.465052,-18.379531)" />
  <path
     style="color:#000000;display:inline;overflow:visible;visibility:visible;opacity:0.1;fill:#000000;fill-opacity:1;fill-rule:nonzero;stroke:none;stroke-width:1.02029;marker:none;enable-background:accumulate"
     d="m 52.346548,15.620167 c -36.098811,0 -39.983003,3.69016 -39.806081,39.68984 v 74.310163 74.31016 c -0.176922,35.99969 3.70727,39.68984 39.806081,39.68984 H 200.73386 c 36.09881,0 40.77464,-3.70276 39.80608,-39.68984 V 129.62017 55.310007 c 0,-36.00011 -3.70727,-39.68984 -39.80608,-39.68984 z"
     id="rect4158-7"
     inkscape:connector-curvature="0"
     sodipodi:nodetypes="scccssscsss" />
  <path
     style="color:#000000;display:inline;overflow:visible;visibility:visible;fill:url(#linearGradient1694);fill-opacity:1;fill-rule:nonzero;stroke:none;stroke-width:1;marker:none;enable-background:accumulate"
     d="m 199.60791,17.620163 c 35.29673,0 39.09461,3.62542 38.92162,38.99353 v 73.006467 73.00648 c 0.17299,35.36812 -3.62489,38.99353 -38.92162,38.99353 H 53.451166 c -35.29671,0 -38.92161,-3.625 -38.92161,-38.99353 V 129.62016 56.613693 c 0,-35.36853 3.6249,-38.99353 38.92161,-38.99353 z"
     id="rect4158"
     inkscape:connector-curvature="0"
     sodipodi:nodetypes="scccssscsss" />
  <path
     style="color:#000000;display:inline;overflow:visible;visibility:visible;opacity:0.05;fill:#ffffff;fill-opacity:1;fill-rule:nonzero;stroke:none;stroke-width:1;marker:none;enable-background:accumulate"
     d="m 14.529089,129.62047 v 8 65.00586 c 0,35.36853 3.625165,38.99414 38.921875,38.99414 H 199.60721 c 35.29673,0 39.09486,-3.62602 38.92187,-38.99414 v -65.00586 -8 z"
     id="rect4158-5"
     inkscape:connector-curvature="0"
     sodipodi:nodetypes="ccssscccc" />
  <path
     style="color:#000000;display:inline;overflow:visible;visibility:visible;opacity:0.3;fill:#ffffff;fill-opacity:1;fill-rule:nonzero;stroke:none;stroke-width:1;marker:none;enable-background:accumulate"
     d="m 53.456828,17.620167 c -35.296728,0 -39.09487,3.62603 -38.92188,38.99414 v 2 c -0.17299,-35.36811 3.625152,-38.99414 38.92188,-38.99414 H 199.61306 c 35.29673,0 38.92188,3.62561 38.92188,38.99414 v -2 c 0,-35.36853 -3.62515,-38.99414 -38.92188,-38.99414 z"
     id="path931"
     inkscape:connector-curvature="0"
     sodipodi:nodetypes="sccsscsss" />
  <path
     style="color:#000000;display:inline;overflow:visible;visibility:visible;opacity:0.2;fill:#000000;fill-opacity:1;fill-rule:nonzero;stroke:none;stroke-width:1;marker:none;enable-background:accumulate"
     d="m 53.462228,241.62017 c -35.296731,0 -39.094875,-3.62603 -38.921885,-38.99414 v -2 c -0.17299,35.36811 3.625154,38.99414 38.921885,38.99414 H 199.61846 c 35.29673,0 38.92188,-3.62561 38.92188,-38.99414 v 2 c 0,35.36853 -3.62515,38.99414 -38.92188,38.99414 z"
     id="path931-8"
     inkscape:connector-curvature="0"
     sodipodi:nodetypes="sccsscsss" />
  <path
     style="fill:#b8c9f5;fill-opacity:1;stroke-width:0.210638"
     d="m 132.34373,63.973304 c -3.93435,6.64436 -6.53021,13.98053 -11.20135,20.1733 -3.65579,4.84668 -7.71991,9.49382 -12.96774,13.02602 10.18869,-3.73465 22.44225,-5.36581 30.15742,-8.88789 0.26475,-0.12599 0.54907,-0.26267 0.81993,-0.39189 -1.21078,-8.13293 -3.37334,-16.25412 -6.80826,-23.91954 z"
     id="path3342-7"
     inkscape:connector-curvature="0"
     sodipodi:nodetypes="cacccc" />
  <path
     style="fill:#b3c5f5;fill-opacity:1;stroke-width:0.210638"
     d="m 195.07535,80.334934 c -8.26585,1.43965 1.22125,10.08627 -0.75708,14.80583 7.17458,-1.99749 8.601,-12.81626 0.75708,-14.80583 z m 3.42972,18.28446 c -0.39895,0.005 -0.83797,0.15137 -1.11107,0.34994 -5.15855,3.750686 -1.60589,11.721246 -5.04989,16.394066 2.43419,0.13914 4.87933,-0.66651 7.02766,-1.52442 6.98681,-2.29582 4.42232,-11.77468 -0.23634,-15.058116 -0.1661,-0.11707 -0.39101,-0.16465 -0.63036,-0.16147 z m -10.66787,0.363 c -2.48497,-0.0181 -1.63893,6.515546 1.0914,6.624536 2.30974,0.0922 2.56068,-3.7928 1.59068,-5.50378 -0.42141,-0.743336 -2.04867,-1.116136 -2.68208,-1.120756 z m 2.83866,18.198686 c -8.10521,2.40594 -16.63599,5.09568 -25.34266,5.90742 0.001,-7e-5 0.004,-1.4e-4 0.005,-3e-4 0.0914,-0.004 0.1774,-0.006 0.26366,-0.008 0.0388,-4.6e-4 0.0795,-0.002 0.11726,-0.003 0.0809,-4.7e-4 0.15622,4.6e-4 0.23161,0.002 0.0367,4.6e-4 0.075,4.6e-4 0.11034,0.002 0.0643,0.002 0.12373,0.007 0.18318,0.0116 0.0435,0.004 0.0878,0.006 0.12855,0.011 0.0794,0.009 0.15519,0.0193 0.22323,0.0332 4.6e-4,1.4e-4 0.001,1.5e-4 0.002,3.1e-4 0.003,4.7e-4 0.005,9.3e-4 0.008,0.001 0.0345,0.007 0.0677,0.0153 0.0991,0.024 0.005,9.2e-4 0.01,0.003 0.0149,0.005 0.0303,0.009 0.0596,0.0181 0.0867,0.0285 4.6e-4,1.4e-4 4.6e-4,4.6e-4 0.001,4.6e-4 0.001,4.7e-4 0.004,9.3e-4 0.005,0.002 0.0289,0.0113 0.0562,0.0234 0.0812,0.0365 0.12707,0.0666 0.20128,0.15765 0.21376,0.27811 4.6e-4,0.006 0.002,0.0104 0.002,0.0161 4.6e-4,0.0185 -4.6e-4,0.0383 -0.002,0.0582 -4.6e-4,0.008 -4.6e-4,0.0161 -0.002,0.0247 -0.004,0.0203 -0.008,0.0421 -0.0145,0.0638 -0.002,0.009 -0.005,0.0177 -0.008,0.027 -0.007,0.0215 -0.0164,0.0442 -0.0262,0.0671 -0.005,0.0115 -0.009,0.0228 -0.0149,0.0347 -0.0101,0.0211 -0.0222,0.0431 -0.0346,0.0653 -0.008,0.0152 -0.017,0.0303 -0.0266,0.046 -0.0136,0.0221 -0.0286,0.0451 -0.0445,0.0683 -0.0117,0.0173 -0.0238,0.0346 -0.0368,0.0525 -0.0167,0.0229 -0.0349,0.0464 -0.0536,0.0704 -0.0156,0.0198 -0.0314,0.04 -0.0484,0.0605 -0.0193,0.0233 -0.0396,0.047 -0.0608,0.0712 -0.0195,0.0223 -0.0397,0.0449 -0.0608,0.068 -0.0257,0.0281 -0.0527,0.0568 -0.0808,0.0861 -0.012,0.0124 -0.0247,0.0253 -0.0372,0.038 -0.0856,0.0873 -0.18298,0.18062 -0.2906,0.27871 -0.071,0.0647 -0.15505,0.13582 -0.23599,0.20539 -0.0624,0.0536 -0.11874,0.10426 -0.18717,0.16087 -0.0956,0.0791 -0.20648,0.16572 -0.31428,0.25081 -0.0723,0.0571 -0.13694,0.11023 -0.21485,0.17007 -0.19079,0.14653 -0.39753,0.30108 -0.62309,0.46481 -0.25463,0.27588 -0.48234,0.54992 -0.68391,0.82187 -0.60492,0.81611 -0.97597,1.61341 -1.1453,2.38517 -0.0282,0.12862 -0.0509,0.25632 -0.0681,0.38348 -1e-5,1e-4 2e-5,1.4e-4 0,3.1e-4 -0.0664,0.49223 -0.0491,0.97304 0.0397,1.44132 0.003,0.0156 0.004,0.0314 0.007,0.0469 3e-5,1e-4 -2e-5,1.5e-4 0,3.2e-4 0.0241,0.12065 0.0533,0.24052 0.087,0.35943 0.1014,0.35711 0.2453,0.70608 0.42789,1.04626 0.0608,0.11336 0.12592,0.22552 0.19519,0.33688 8e-5,1.2e-4 3.2e-4,1.4e-4 3.2e-4,3.1e-4 0.0692,0.11124 0.14263,0.22147 0.21995,0.33064 5e-5,9e-5 -5e-5,1.6e-4 0,3.2e-4 0.0774,0.10921 0.1588,0.21732 0.24399,0.32441 0.0853,0.10724 0.17444,0.21343 0.2673,0.31847 0.0928,0.10499 0.18909,0.20864 0.28915,0.31136 1e-4,1.1e-4 1.6e-4,1.5e-4 3.1e-4,3.1e-4 0.20012,0.20546 0.41429,0.40614 0.64165,0.60223 0.9095,0.78435 2.02761,1.49183 3.27932,2.10648 -0.0623,0.1288 -0.13505,0.25877 -0.21741,0.39 -0.0412,0.0656 -0.0849,0.13149 -0.13073,0.19768 -0.0459,0.0663 -0.0936,0.13265 -0.14385,0.19946 -0.10031,0.13345 -0.20904,0.2679 -0.3252,0.40336 -0.1162,0.13554 -0.23968,0.27195 -0.36962,0.40931 -0.25977,0.27454 -0.54501,0.55257 -0.84706,0.83315 -0.30204,0.28056 -0.62084,0.56362 -0.94829,0.84857 -0.81855,0.71234 -1.69047,1.4359 -2.48324,2.15782 -1.1893,1.08303 -2.20093,2.16255 -2.59068,3.19548 -0.026,0.0688 -0.0492,0.13725 -0.0696,0.20568 -0.0203,0.0685 -0.0377,0.13673 -0.0521,0.20481 -0.0288,0.13585 -0.0457,0.27094 -0.0492,0.40484 0,1e-4 1e-5,1.5e-4 0,3.1e-4 -0.004,0.134 0.006,0.26678 0.0302,0.39862 0.0119,0.0659 0.0274,0.13145 0.0466,0.19679 0.0192,0.0654 0.042,0.13047 0.0688,0.1953 0.0534,0.12934 0.12195,0.25759 0.20684,0.38437 8e-5,1.2e-4 3.2e-4,1.4e-4 3.2e-4,3.1e-4 0.0425,0.0633 0.0888,0.12642 0.13947,0.18907 0.0509,0.0629 0.10586,0.12511 0.16534,0.18729 0.11874,0.1241 0.25512,0.2469 0.40968,0.36804 0.0772,0.0605 0.15888,0.12072 0.24545,0.18046 0.17333,0.11962 0.36558,0.23747 0.57793,0.3538 0.21227,0.11628 0.44473,0.23091 0.69811,0.34371 0.21274,0.0947 0.44372,0.18777 0.68681,0.27989 0.0464,0.0176 0.0897,0.0356 0.13729,0.0531 0.29668,0.10915 0.61537,0.21621 0.9574,0.32145 0.1655,0.0119 0.31952,0.0333 0.4654,0.0617 0.0138,0.003 0.0286,0.005 0.0422,0.007 1e-4,2e-5 1.5e-4,-4e-5 3e-4,0 0.0182,0.004 0.0348,0.009 0.0528,0.013 0.13703,0.031 0.26701,0.068 0.38711,0.11308 0.068,0.0255 0.1331,0.0531 0.19592,0.0828 0.0628,0.0298 0.1231,0.0615 0.18099,0.0953 1.3e-4,8e-5 1.6e-4,1.4e-4 3.2e-4,3.1e-4 0.11569,0.0676 0.22179,0.14302 0.319,0.22558 0.0486,0.0412 0.0952,0.0841 0.13948,0.12881 6e-5,6e-5 -6e-5,3.1e-4 0,3.1e-4 0.0443,0.0447 0.0866,0.0909 0.12673,0.13891 6e-5,6e-5 -6e-5,3.1e-4 0,3.1e-4 0.0401,0.048 0.0785,0.0974 0.11471,0.1484 0.0363,0.0512 0.0704,0.10387 0.10306,0.15791 0.0978,0.16188 0.17945,0.3361 0.24763,0.52031 0.0584,0.1578 0.1045,0.3248 0.14494,0.49538 0.007,0.0284 0.0159,0.0552 0.0222,0.084 0.0294,0.13425 0.0539,0.27152 0.0747,0.41138 0.0207,0.13976 0.0376,0.28183 0.0513,0.42563 2e-5,1e-4 -1e-5,1.4e-4 0,3.1e-4 0.0137,0.14369 0.0244,0.28896 0.0328,0.43512 3.1e-4,0.005 3.1e-4,0.0102 4.6e-4,0.0152 0.0161,0.2877 0.0238,0.57837 0.0288,0.8664 0.005,0.29296 0.008,0.58287 0.0142,0.86372 0.01,0.42137 0.0288,0.82193 0.079,1.18071 0.0168,0.11957 0.0371,0.23424 0.0615,0.34371 0.0123,0.0549 0.0255,0.10827 0.0401,0.16027 0.0145,0.0519 0.03,0.10218 0.047,0.15109 0.017,0.049 0.0354,0.0964 0.055,0.14216 0.0195,0.0457 0.0405,0.0895 0.063,0.13179 0.007,0.0138 0.0156,0.0263 0.0233,0.0398 0.0393,0.0689 0.0817,0.13389 0.13001,0.19234 0.0288,0.035 0.0595,0.0677 0.0918,0.0985 0.0969,0.0928 0.20962,0.167 0.34159,0.22024 0.13186,0.0532 0.28279,0.0854 0.4552,0.0938 0.11494,0.006 0.23935,4.6e-4 0.37436,-0.0155 0.0675,-0.008 0.13766,-0.019 0.21049,-0.0329 0.14567,-0.0278 0.30231,-0.0673 0.4705,-0.11931 0.0841,-0.026 0.17107,-0.0552 0.26111,-0.0876 0.36016,-0.12937 0.76857,-0.31029 1.23198,-0.54909 0.11585,-0.0597 0.23515,-0.12294 0.35797,-0.18996 0.23951,-0.19676 0.4571,-0.37124 0.66096,-0.53189 0.079,-0.0622 0.14832,-0.11455 0.22215,-0.17156 0.12162,-0.094 0.24015,-0.18487 0.34814,-0.26504 0.0662,-0.0492 0.12779,-0.0936 0.189,-0.13773 0.0995,-0.0717 0.193,-0.13767 0.27968,-0.19648 0.0741,-0.0503 0.14942,-0.10189 0.2145,-0.14307 0.0129,-0.008 0.027,-0.017 0.0397,-0.0249 0.0921,-0.0573 0.17488,-0.10522 0.24873,-0.14425 0.03,-0.0158 0.0592,-0.0307 0.0863,-0.0437 0.0119,-0.006 0.024,-0.0122 0.0354,-0.0172 0.0363,-0.0164 0.0701,-0.0298 0.10087,-0.0406 0.004,-9.3e-4 0.008,-0.004 0.012,-0.005 0.035,-0.0119 0.0659,-0.02 0.0936,-0.0247 0.004,-4.6e-4 0.007,-3.1e-4 0.0112,-4.6e-4 0.022,-0.003 0.0417,-0.004 0.059,-0.002 0.006,4.6e-4 0.0102,0.002 0.0153,0.003 0.0144,0.003 0.0269,0.007 0.0375,0.0139 0.004,0.002 0.007,0.005 0.01,0.007 0.0104,0.009 0.0187,0.0192 0.0248,0.0321 0.001,0.002 0.002,0.005 0.004,0.007 0.006,0.0164 0.0104,0.0352 0.0105,0.0576 0,0.0233 -0.002,0.0497 -0.008,0.0792 7.48084,-11.99184 15.79297,-24.26339 16.30479,-38.00192 z"
     id="path3344"
     inkscape:connector-curvature="0"
     sodipodi:nodetypes="cccsccccssssscccccccscccccscccccccccccccccccccccccscsscssccccccscccccsccscccscsssscccccsccccccccssccccccscccccccccccsccsccccssscsccccccscccsscccccccccsccccccccccccccc" />
  <path
     style="fill:#c1d0f9;stroke-width:0.210638;fill-opacity:1"
     d="m 55.08586,161.36834 c -4.928189,3.68246 -14.993762,3.68406 -10.800073,11.46878 2.253278,3.48115 3.986224,6.29885 6.758192,8.99875 0.201203,-0.13623 0.369315,-0.26842 0.479247,-0.37134 2.16145,-2.02366 4.897238,-9.23171 4.89366,-15.77106 -9.29e-4,-2.54284 -0.648603,-3.93401 -1.331026,-4.32513 z"
     id="path3340"
     inkscape:connector-curvature="0"
     sodipodi:nodetypes="ccccsc" />
  <path
     inkscape:connector-curvature="0"
     style="fill:#ffffff;fill-opacity:1;stroke-width:0.210638"
     d="m 172.82442,59.662054 c -3.37329,12.96356 -21.63207,22.10226 -33.88489,27.94794 -0.0795,0.038 -0.16174,0.0774 -0.24076,0.11507 -0.1949,0.0933 -0.39215,0.18783 -0.57917,0.27683 -0.22147,0.10111 -0.44796,0.20041 -0.67678,0.29849 -0.0351,0.015 -0.0702,0.0301 -0.10547,0.045 -0.11862,0.0504 -0.24049,0.0995 -0.36098,0.14911 -0.19372,0.0798 -0.38918,0.15898 -0.5876,0.23687 -0.10196,0.04 -0.20448,0.0797 -0.30765,0.11929 -0.21627,0.0829 -0.4355,0.16466 -0.65692,0.2456 -0.0917,0.0335 -0.18254,0.0675 -0.27511,0.10072 -0.29332,0.10523 -0.59006,0.20898 -0.89164,0.31116 -0.0153,0.005 -0.0297,0.0106 -0.0449,0.0157 -0.002,4.6e-4 -0.004,9.3e-4 -0.006,0.002 -0.32973,0.11138 -0.66542,0.22072 -1.00432,0.32888 -0.0647,0.0206 -0.13031,0.0411 -0.19528,0.0616 -0.27373,0.0865 -0.55006,0.17192 -0.82926,0.25659 -0.0888,0.0269 -0.17796,0.0537 -0.26727,0.0805 -0.27963,0.0838 -0.56185,0.16674 -0.84644,0.24898 -0.0631,0.0182 -0.12561,0.0367 -0.18893,0.0548 -0.46466,0.13328 -0.93771,0.26436 -1.41414,0.39443 -0.42062,0.11479 -0.84561,0.22861 -1.27433,0.34154 -0.20792,0.0548 -0.4162,0.10955 -0.62585,0.16402 -0.11653,0.0302 -0.23524,0.0604 -0.35227,0.0906 -0.72238,0.18633 -1.45341,0.3718 -2.19248,0.55648 -2.32028,0.5798 -4.70728,1.15841 -7.09843,1.77858 -3.38562,0.87811 -6.77119,1.8396 -9.95505,3.00661 -1.2e-4,8e-5 -1.5e-4,1.5e-4 0,3.2e-4 -2.49716,0.91532 -4.87215,1.955 -7.0237,3.182146 -9.737833,5.55407 -16.820274,13.1213 -22.334797,21.92067 -7.418703,11.83781 -2.280228,27.06056 -22.576669,38.38427 -0.336242,0.39918 -0.750947,0.76697 -1.221292,1.11183 0.02274,-0.0167 0.04585,-0.033 0.06841,-0.0498 0.682417,0.39113 1.32966,1.78237 1.330974,4.32522 0.0032,6.53935 -2.732154,13.74732 -4.893604,15.77099 -0.109552,0.10256 -0.277344,0.23395 -0.477604,0.36966 7.242524,7.05428 17.724615,11.86134 29.067818,12.83586 5.616635,0.60578 13.534913,0.32188 16.871181,0.31565 28.346433,-0.0706 55.358943,-13.2298 71.586413,-31.89506 1.69217,-2.05312 10.36028,-12.19353 3.34295,-6.42875 -7.86051,4.28997 -1.24334,-6.6327 -7.03937,-7.05134 -10.94114,-3.36656 1.86274,-8.78077 3.85642,-12.90279 -5.00687,-2.45856 -7.87702,-6.40118 -3.80189,-10.81643 7.48401,-5.43229 -4.61918,-1.15772 -6.41591,-3.05697 9.56113,-10.68451 18.63298,-22.34331 20.65106,-35.756056 1.26708,-9.31336 -0.32997,-19.37655 -6.12816,-27.48665 z M 95.035721,124.49842 c 5.783259,-0.007 6.216479,8.98215 6.853469,13.01617 0.96251,6.03532 2.07706,12.81718 -6.839904,15.07694 -0.605863,0.25844 -2.94688,1.75539 -2.259682,-0.0957 2.534905,-4.40737 -1.857685,-15.53314 -8.637629,-10.00084 -0.675502,-6.28091 1.571371,-13.46299 8.061486,-17.40216 1.060741,-0.40887 1.996086,-0.59345 2.82226,-0.59446 z m -40.378859,37.09775 c -0.03926,0.0277 -0.07959,0.055 -0.119632,0.0824 0.04005,-0.0274 0.08016,-0.0546 0.119632,-0.0824 z m -3.995634,20.13954 v 0.004 c 0.02706,0.0267 0.05543,0.0527 0.08257,0.0793 -0.02785,-0.0273 -0.05497,-0.0551 -0.08257,-0.0824 z"
     id="path3342-8"
     sodipodi:nodetypes="ccccccscccccccscccccccccssccsscccccccccccccccccscccccscccccccc" />
  <path
     style="fill:#001a26;fill-opacity:1;fill-rule:evenodd;stroke:#00354e;stroke-width:0.443315;stroke-linecap:butt;stroke-linejoin:round;stroke-miterlimit:4;stroke-dasharray:none;stroke-opacity:1"
     d="m 85.387869,188.085 c 3.262638,-0.33167 4.710548,-0.44673 8.583927,-3.63149 4.252079,-3.91169 7.972854,-8.4878 11.947754,-12.7461 0.22363,-0.78704 -0.96864,-2.71446 -1.34017,-1.43559 -0.0965,0.80457 -0.46347,1.02866 -1.34567,2.17563 -4.079183,4.25487 -8.219654,9.49879 -12.237546,12.76461 -0.52652,0.57832 -3.991377,2.41835 -5.608295,2.87294 z"
     id="path4154"
     inkscape:connector-curvature="0"
     sodipodi:nodetypes="ccccccc" />
  <path
     style="opacity:1;fill:#4f7beb;fill-opacity:1;fill-rule:evenodd;stroke:none;stroke-width:2.39584;stroke-linecap:butt;stroke-linejoin:round;stroke-miterlimit:4;stroke-dasharray:none;stroke-dashoffset:0;stroke-opacity:1"
     id="path4237"
     sodipodi:type="arc"
     sodipodi:cx="129.29944"
     sodipodi:cy="88.787956"
     sodipodi:rx="1.9483086"
     sodipodi:ry="2.4416645"
     sodipodi:start="0.34945506"
     sodipodi:end="0.34612148"
     sodipodi:open="true"
     transform="matrix(0.88433837,0.4668465,-0.30888314,0.9511,0,0)"
     sodipodi:arc-type="arc"
     d="m 131.12999,89.623948 a 1.9483086,2.4416645 0 0 1 -2.4961,1.458793 1.9483086,2.4416645 0 0 1 -1.16611,-3.126951 1.9483086,2.4416645 0 0 1 2.49415,-1.464006 1.9483086,2.4416645 0 0 1 1.17027,3.124511" />
  <path
     style="opacity:0.1;fill:#fdfdfd;fill-opacity:1;stroke-width:0.210638"
     d="m 174.29314,154.98179 c -0.27111,-0.01 -1.05561,0.49022 -2.59065,1.75127 -1.88167,1.02694 -2.92846,1.17595 -3.51975,0.81218 -15.23127,19.35609 -42.55283,32.71719 -69.439037,35.97203 -3.352591,0.43715 -10.543326,1.26931 -16.158132,1.43543 5.226125,0.30918 11.35481,0.10953 14.18779,0.10424 28.346429,-0.0706 55.358669,-13.23007 71.586139,-31.89533 1.32201,-1.604 6.90186,-8.14415 5.93364,-8.17982 z M 82.585571,194.9527 c -0.928439,-0.0549 -2.684003,-0.21211 -2.684003,-0.21211 l -0.518492,-0.0245 0.461384,0.2529 c 0,0 1.760776,0.031 2.741111,-0.0163 z"
     id="path3342-8-0"
     inkscape:connector-curvature="0"
     sodipodi:nodetypes="ccccccccccccc" />
</svg>
