<?xml version="1.0" encoding="UTF-8" standalone="no"?>
<svg
   width="256"
   height="256"
   viewBox="0 0 67.73 67.73"
   version="1.1"
   id="svg61"
   sodipodi:docname="games-app.svg"
   inkscape:version="1.1.2 (0a00cf5339, 2022-02-04)"
   xmlns:inkscape="http://www.inkscape.org/namespaces/inkscape"
   xmlns:sodipodi="http://sodipodi.sourceforge.net/DTD/sodipodi-0.dtd"
   xmlns="http://www.w3.org/2000/svg"
   xmlns:svg="http://www.w3.org/2000/svg">
  <sodipodi:namedview
     id="namedview63"
     pagecolor="#ffffff"
     bordercolor="#666666"
     borderopacity="1.0"
     inkscape:pageshadow="2"
     inkscape:pageopacity="0.0"
     inkscape:pagecheckerboard="0"
     showgrid="false"
     inkscape:zoom="2.5664062"
     inkscape:cx="128"
     inkscape:cy="128"
     inkscape:window-width="1920"
     inkscape:window-height="1030"
     inkscape:window-x="0"
     inkscape:window-y="24"
     inkscape:window-maximized="1"
     inkscape:current-layer="svg61" />
  <defs
     id="defs31">
    <filter
       id="g"
       x="-0.060000002"
       y="-0.060000002"
       width="1.12"
       height="1.12"
       color-interpolation-filters="sRGB">
      <feGaussianBlur
         stdDeviation="1.2"
         id="feGaussianBlur2" />
    </filter>
    <filter
       id="f"
       x="-0.051428573"
       y="-0.072000003"
       width="1.1028571"
       height="1.144"
       color-interpolation-filters="sRGB">
      <feGaussianBlur
         stdDeviation="1.2"
         id="feGaussianBlur5" />
    </filter>
    <linearGradient
       id="e"
       x1="296"
       x2="296"
       y1="-212"
       y2="236"
       gradientUnits="userSpaceOnUse">
      <stop
         offset="0"
         stop-color="#FFFEFE"
         id="stop8" />
      <stop
         offset=".125"
         stop-color="#FFFEFE"
         stop-opacity=".098"
         id="stop10" />
      <stop
         offset=".925"
         stop-opacity=".098"
         id="stop12" />
      <stop
         offset="1"
         stop-opacity=".498"
         id="stop14" />
    </linearGradient>
    <clipPath
       id="d">
      <path
         d="M361.938-212C507.235-212 528-191.287 528-46.125v116.25C528 215.286 507.235 236 361.937 236H214.063C68.766 236 48 215.286 48 70.125v-116.25C48-191.287 68.765-212 214.063-212z"
         fill="#9F4AC8"
         id="path17" />
    </clipPath>
    <linearGradient
       id="c"
       x1="160"
       x2="160"
       y1="28"
       y2="284"
       gradientTransform="matrix(.26458 0 0 .26458 -6.993 221.973)"
       gradientUnits="userSpaceOnUse">
      <stop
         offset="0"
         stop-color="#EEEDED"
         id="stop20" />
      <stop
         offset="1"
         stop-color="#EEEDED"
         id="stop22" />
    </linearGradient>
    <filter
       id="b"
       x="-0.023199999"
       y="-0.024857142"
       width="1.0464"
       height="1.0497143"
       color-interpolation-filters="sRGB">
      <feGaussianBlur
         stdDeviation="2.32"
         id="feGaussianBlur25" />
    </filter>
    <filter
       id="a"
       x="-0.0116"
       y="-0.012428571"
       width="1.0232"
       height="1.0248571"
       color-interpolation-filters="sRGB">
      <feGaussianBlur
         stdDeviation="1.16"
         id="feGaussianBlur28" />
    </filter>
    <filter
       inkscape:collect="always"
       style="color-interpolation-filters:sRGB"
       id="filter4346"
       x="-0.014454287"
       width="1.0289086"
       y="-0.011357288"
       height="1.0227146">
      <feGaussianBlur
         inkscape:collect="always"
         stdDeviation="2.120027"
         id="feGaussianBlur4348" />
    </filter>
    <filter
       inkscape:collect="always"
       style="color-interpolation-filters:sRGB"
       id="filter4380"
       x="-0.057817147"
       width="1.1156343"
       y="-0.045429151"
       height="1.0908583">
      <feGaussianBlur
         inkscape:collect="always"
         stdDeviation="8.4801079"
         id="feGaussianBlur4382" />
    </filter>
    <filter
       inkscape:collect="always"
       style="color-interpolation-filters:sRGB"
       id="filter1496"
       x="-0.051428564"
       width="1.1028571"
       y="-0.072000003"
       height="1.144">
      <feGaussianBlur
         inkscape:collect="always"
         stdDeviation="1.2"
         id="feGaussianBlur1498" />
    </filter>
    <filter
       inkscape:collect="always"
       style="color-interpolation-filters:sRGB"
       id="filter1507"
       x="-0.060000002"
       width="1.12"
       y="-0.060000002"
       height="1.12">
      <feGaussianBlur
         inkscape:collect="always"
         stdDeviation="1.2"
         id="feGaussianBlur1509" />
    </filter>
  </defs>
  <path
     style="color:#000000;display:inline;overflow:visible;visibility:visible;opacity:0.1;fill:#000000;fill-opacity:1;fill-rule:nonzero;stroke:none;stroke-width:2;marker:none;filter:url(#filter4346);enable-background:accumulate"
     d="M 189.84323,74 C 119.24979,74 111.65402,81.250835 112,151.98706 V 298 444.01294 C 111.65402,514.74917 119.24979,522 189.84323,522 H 386.15677 C 456.75021,522 462.16345,514.72616 464,444.01294 V 298 151.98706 C 464,81.249993 456.75021,74 386.15677,74 Z"
     id="rect4158-9"
     inkscape:connector-curvature="0"
     sodipodi:nodetypes="scccssscsss"
     transform="matrix(0.13228515,0,0,0.13228515,-4.020009,-5.2576184)" />
  <path
     sodipodi:nodetypes="scccssscsss"
     inkscape:connector-curvature="0"
     id="path4350"
     d="M 189.84323,74 C 119.24979,74 111.65402,81.250835 112,151.98706 V 298 444.01294 C 111.65402,514.74917 119.24979,522 189.84323,522 H 386.15677 C 456.75021,522 464,514.75001 464,444.01294 V 298 151.98706 C 464,81.249993 456.75021,74 386.15677,74 Z"
     style="color:#000000;display:inline;overflow:visible;visibility:visible;opacity:0.1;fill:#000000;fill-opacity:1;fill-rule:nonzero;stroke:none;stroke-width:2;marker:none;filter:url(#filter4380);enable-background:accumulate"
     transform="matrix(0.13228515,0,0,0.13228515,-4.020009,-5.2576184)" />
  <path
     style="color:#000000;display:inline;overflow:visible;visibility:visible;opacity:0.1;fill:#000000;fill-opacity:1;fill-rule:nonzero;stroke:none;stroke-width:0.269938;marker:none;enable-background:accumulate"
     d="m 20.799755,3.7377726 c -9.550674,0 -10.578315,0.976306 -10.531507,10.5007534 V 33.898788 53.55905 c -0.04681,9.524449 0.980833,10.500753 10.531507,10.500753 h 26.559504 c 9.550674,0 10.531507,-0.976193 10.531507,-10.500753 V 33.898788 14.238526 c 0,-9.5245614 -0.980833,-10.5007534 -10.531507,-10.5007534 z"
     id="rect4158-7"
     inkscape:connector-curvature="0"
     sodipodi:nodetypes="scccssscsss" />
  <path
     style="color:#000000;display:inline;overflow:visible;visibility:visible;fill:#e3dfd5;fill-opacity:1;fill-rule:nonzero;stroke:none;stroke-width:0.26457;marker:none;enable-background:accumulate"
     d="m 47.061369,4.2669126 c 9.338467,0 10.343273,0.959178 10.297505,10.3165304 v 19.315345 19.315344 c 0.04577,9.357355 -0.959038,10.316531 -10.297505,10.316531 H 21.092005 c -9.338463,0 -10.297504,-0.959068 -10.297504,-10.316531 V 33.898788 14.583443 c 0,-9.3574634 0.959041,-10.3165304 10.297504,-10.3165304 z"
     id="rect4158"
     inkscape:connector-curvature="0"
     sodipodi:nodetypes="scccssscsss" />
  <path
     style="display:inline;opacity:0.2;fill:#000000;fill-opacity:1;stroke:none;stroke-width:1;stroke-linecap:butt;stroke-linejoin:miter;stroke-miterlimit:4;stroke-dasharray:none;stroke-dashoffset:1;stroke-opacity:1;filter:url(#filter1496);enable-background:new"
     d="m 208.00001,174 a 12,12 0 0 0 -12,12 12,12 0 0 0 12,12 12,12 0 0 0 12,-12 12,12 0 0 0 -12,-12 z M 176,190 a 12,12 0 0 0 -12,12 12,12 0 0 0 12,12 12,12 0 0 0 12,-12 12,12 0 0 0 -12,-12 z"
     id="circle1487"
     inkscape:connector-curvature="0"
     transform="matrix(0.26457031,0,0,0.26457031,-6.1365715,-7.3741809)" />
  <path
     id="path1501"
     d="m 104,170 c -2.216,0 -4,1.784 -4,4 v 12 H 88 c -2.216,0 -4,1.784 -4,4 v 8 c 0,2.216 1.784,4 4,4 h 12 v 12 c 0,2.216 1.784,4 4,4 h 8 c 2.216,0 4,-1.784 4,-4 v -12 h 12 c 2.216,0 4,-1.784 4,-4 v -8 c 0,-2.216 -1.784,-4 -4,-4 h -12 v -12 c 0,-2.216 -1.784,-4 -4,-4 z"
     style="display:inline;opacity:0.2;fill:#000000;fill-opacity:1;stroke:none;stroke-width:1;stroke-linecap:butt;stroke-linejoin:miter;stroke-miterlimit:4;stroke-dasharray:none;stroke-dashoffset:1;stroke-opacity:1;filter:url(#filter1507);enable-background:new"
     inkscape:connector-curvature="0"
     transform="matrix(0.26457031,0,0,0.26457031,-6.1365715,-7.3741809)" />
  <path
     inkscape:connector-curvature="0"
     style="display:inline;fill:#5d5d5d;fill-opacity:1;stroke:none;stroke-width:0.26457;stroke-linecap:butt;stroke-linejoin:miter;stroke-miterlimit:4;stroke-dasharray:none;stroke-dashoffset:1;stroke-opacity:1;enable-background:new"
     d="m 21.378741,37.073632 c -0.586288,0 -1.058282,0.471993 -1.058282,1.058281 v 3.174844 h -3.174843 c -0.586288,0 -1.058282,0.471993 -1.058282,1.058281 V 44.4816 c 0,0.586288 0.471994,1.058281 1.058282,1.058281 h 3.174843 v 3.174844 c 0,0.586288 0.471994,1.058281 1.058282,1.058281 h 2.116562 c 0.586288,0 1.058281,-0.471993 1.058281,-1.058281 v -3.174844 h 3.174844 c 0.586288,0 1.058281,-0.471993 1.058281,-1.058281 v -2.116562 c 0,-0.586288 -0.471993,-1.058281 -1.058281,-1.058281 h -3.174844 v -3.174844 c 0,-0.586288 -0.471993,-1.058281 -1.058281,-1.058281 z"
     id="rect1426" />
  <path
     style="display:inline;fill:#f22c42;fill-opacity:1;stroke:none;stroke-width:0.26457;stroke-linecap:butt;stroke-linejoin:miter;stroke-miterlimit:4;stroke-dasharray:none;stroke-dashoffset:1;stroke-opacity:1;enable-background:new"
     d="m 48.894056,38.131913 a 3.1748437,3.1748437 0 0 0 -3.174844,3.174844 3.1748437,3.1748437 0 0 0 3.174844,3.174843 3.1748437,3.1748437 0 0 0 3.174843,-3.174843 3.1748437,3.1748437 0 0 0 -3.174843,-3.174844 z m -8.466253,4.233125 a 3.1748437,3.1748437 0 0 0 -3.174844,3.174843 3.1748437,3.1748437 0 0 0 3.174844,3.174844 3.1748437,3.1748437 0 0 0 3.174844,-3.174844 3.1748437,3.1748437 0 0 0 -3.174844,-3.174843 z"
     id="path1432"
     inkscape:connector-curvature="0" />
  <path
     inkscape:connector-curvature="0"
     style="display:inline;opacity:0.5;fill:#aea795;fill-opacity:1;stroke:none;stroke-width:0.26457;stroke-linecap:butt;stroke-linejoin:miter;stroke-miterlimit:4;stroke-dasharray:none;stroke-dashoffset:1;stroke-opacity:1;enable-background:new"
     d="m 28.257569,56.122694 c -0.293144,0 -0.529141,0.235997 -0.529141,0.529141 v 1.058281 c 0,0.293144 0.235997,0.52914 0.529141,0.52914 h 3.174843 c 0.293144,0 0.529141,-0.235996 0.529141,-0.52914 v -1.058281 c 0,-0.293144 -0.235997,-0.529141 -0.529141,-0.529141 z m 8.46625,0 c -0.293144,0 -0.529141,0.235997 -0.529141,0.529141 v 1.058281 c 0,0.293144 0.235997,0.52914 0.529141,0.52914 h 3.174843 c 0.293144,0 0.529141,-0.235996 0.529141,-0.52914 v -1.058281 c 0,-0.293144 -0.235997,-0.529141 -0.529141,-0.529141 z"
     id="rect1443" />
  <rect
     rx="2.1165624"
     style="display:inline;opacity:0.2;fill:#ffffff;fill-opacity:1;stroke:none;stroke-width:0.26457;stroke-linecap:butt;stroke-linejoin:miter;stroke-miterlimit:4;stroke-dasharray:none;stroke-dashoffset:1;stroke-opacity:1;enable-background:new"
     id="rect1511"
     width="35.981564"
     height="21.165625"
     x="16.087336"
     y="10.08746"
     ry="2.1165624" />
  <rect
     y="9.5583191"
     x="16.087336"
     height="21.165625"
     width="35.981564"
     id="rect1481"
     style="display:inline;fill:#5d5d5d;fill-opacity:1;stroke:none;stroke-width:0.26457;stroke-linecap:butt;stroke-linejoin:miter;stroke-miterlimit:4;stroke-dasharray:none;stroke-dashoffset:1;stroke-opacity:1;enable-background:new"
     ry="2.1165624"
     rx="2.1165624" />
  <path
     style="color:#000000;display:inline;overflow:visible;visibility:visible;opacity:0.3;fill:#ffffff;fill-opacity:1;fill-rule:nonzero;stroke:none;stroke-width:0.26457;marker:none;enable-background:accumulate"
     d="m 21.093502,4.2669126 c -9.338466,0 -10.343342,0.95934 -10.297574,10.3166924 v 0.529141 C 10.75016,5.7553926 11.755036,4.7960536 21.093502,4.7960536 h 25.969227 c 9.338467,0 10.297574,0.959228 10.297574,10.3166924 v -0.529141 c 0,-9.3574644 -0.959107,-10.3166924 -10.297574,-10.3166924 z"
     id="path931"
     inkscape:connector-curvature="0" />
  <path
     style="color:#000000;display:inline;overflow:visible;visibility:visible;opacity:0.2;fill:#000000;fill-opacity:1;fill-rule:nonzero;stroke:none;stroke-width:0.26457;marker:none;enable-background:accumulate"
     d="m 21.094931,63.530663 c -9.338467,0 -10.343343,-0.95934 -10.297575,-10.316692 V 52.68483 c -0.04577,9.357352 0.959108,10.316692 10.297575,10.316692 h 25.969227 c 9.338466,0 10.297573,-0.959229 10.297573,-10.316692 v 0.529141 c 0,9.357463 -0.959107,10.316692 -10.297573,10.316692 z"
     id="path931-8"
     inkscape:connector-curvature="0" />
</svg>
