<?xml version="1.0" encoding="UTF-8" standalone="no"?>
<svg
   width="64"
   height="64"
   version="1.1"
   viewBox="0 0 64 64"
   id="svg9"
   sodipodi:docname="xfce4-clipman.svg"
   inkscape:version="1.1.2 (0a00cf5339, 2022-02-04)"
   xmlns:inkscape="http://www.inkscape.org/namespaces/inkscape"
   xmlns:sodipodi="http://sodipodi.sourceforge.net/DTD/sodipodi-0.dtd"
   xmlns:xlink="http://www.w3.org/1999/xlink"
   xmlns="http://www.w3.org/2000/svg"
   xmlns:svg="http://www.w3.org/2000/svg"
   xmlns:rdf="http://www.w3.org/1999/02/22-rdf-syntax-ns#"
   xmlns:cc="http://creativecommons.org/ns#"
   xmlns:dc="http://purl.org/dc/elements/1.1/">
  <metadata
     id="metadata13">
    <rdf:RDF>
      <cc:Work
         rdf:about="">
        <dc:format>image/svg+xml</dc:format>
        <dc:type
           rdf:resource="http://purl.org/dc/dcmitype/StillImage" />
      </cc:Work>
    </rdf:RDF>
  </metadata>
  <sodipodi:namedview
     pagecolor="#ffffff"
     bordercolor="#666666"
     borderopacity="1"
     objecttolerance="10"
     gridtolerance="10"
     guidetolerance="10"
     inkscape:pageopacity="0"
     inkscape:pageshadow="2"
     inkscape:window-width="1920"
     inkscape:window-height="990"
     id="namedview11"
     showgrid="true"
     inkscape:zoom="1.0288404"
     inkscape:cx="52.972259"
     inkscape:cy="-39.85069"
     inkscape:window-x="0"
     inkscape:window-y="0"
     inkscape:window-maximized="1"
     inkscape:current-layer="svg9"
     inkscape:pagecheckerboard="0">
    <inkscape:grid
       type="xygrid"
       id="grid822" />
  </sodipodi:namedview>
  <defs
     id="defs3">
    <linearGradient
       inkscape:collect="always"
       id="linearGradient1111">
      <stop
         style="stop-color:#fffcb9;stop-opacity:0.13099632"
         offset="0"
         id="stop1107" />
      <stop
         style="stop-color:#9e61f3;stop-opacity:0.16789667"
         offset="1"
         id="stop1109" />
    </linearGradient>
    <style
       id="current-color-scheme"
       type="text/css"><![CDATA[
.ColorScheme-Text {
  color:#31363b;
  stop-color:#31363b;
}
.ColorScheme-Background {
  color:#eff0f1;
  stop-color:#eff0f1;
}
.ColorScheme-Highlight {
  color:#3daee9;
  stop-color:#000000;
}
.ColorScheme-ViewText {
  color:#31363b;
  stop-color:#31363b;
}
.ColorScheme-ViewBackground {
  color:#fcfcfc;
  stop-color:#fcfcfc;
}
.ColorScheme-ViewHover {
  color:#93cee9;
  stop-color:#93cee9;
}
.ColorScheme-ViewFocus {
  color:#3daee9;
  stop-color:#3daee9;
}
.ColorScheme-ButtonText {
  color:#31363b;
  stop-color:#31363b;
}
.ColorScheme-ButtonBackground {
  color:#eff0f1;
  stop-color:#eff0f1;
}
.ColorScheme-ButtonHover {
  color:#93cee9;
  stop-color:#93cee9;
}
.ColorScheme-ButtonFocus {
  color:#3daee9;
  stop-color:#3daee9;
}
]]></style>
    <filter
       style="color-interpolation-filters:sRGB;"
       inkscape:label="Nudge RGB"
       id="filter2696"
       x="-0.55"
       y="-2.791545"
       width="1.725"
       height="4.141545">
      <feFlood
         flood-opacity="1"
         flood-color="rgb(0,0,0)"
         result="flood"
         id="feFlood2676" />
      <feColorMatrix
         in="SourceGraphic"
         values="0 0 0 0 1 0 0 0 0 0 0 0 0 0 0 1 0 0 0 0 "
         result="colormatrix1"
         id="feColorMatrix2678" />
      <feOffset
         dy="-55.8309"
         dx="-6"
         result="offset1"
         id="feOffset2680" />
      <feBlend
         in2="flood"
         mode="screen"
         result="blend1"
         id="feBlend2682" />
      <feColorMatrix
         in="SourceGraphic"
         values="0 0 0 0 0 0 0 0 0 1 0 0 0 0 0 0 1 0 0 0 "
         result="colormatrix2"
         id="feColorMatrix2684" />
      <feOffset
         dy="6"
         dx="7"
         result="offset2"
         id="feOffset2686" />
      <feBlend
         in2="blend1"
         mode="screen"
         result="blend2"
         id="feBlend2688" />
      <feOffset
         dy="1"
         dx="-16"
         result="offset3"
         id="feOffset2690" />
      <feColorMatrix
         in="SourceGraphic"
         values="0 0 0 0 0 0 0 0 0 0 0 0 0 0 1 0 0 1 0 0 "
         result="colormatrix3"
         id="feColorMatrix2692" />
      <feBlend
         in2="offset3"
         mode="screen"
         result="blend3"
         id="feBlend2694" />
    </filter>
    <linearGradient
       inkscape:collect="always"
       xlink:href="#linearGradient4338-7"
       id="linearGradient1686"
       x1="320.99991"
       y1="92.000153"
       x2="366.99991"
       y2="76.000153"
       gradientUnits="userSpaceOnUse"
       gradientTransform="matrix(0,1.2302201,-1.2302201,0,135.49424,-391.1271)" />
    <linearGradient
       inkscape:collect="always"
       id="linearGradient4338-7">
      <stop
         id="stop4342-6"
         offset="0"
         style="stop-color:#5884f4;stop-opacity:1" />
      <stop
         id="stop4340-2"
         offset="1"
         style="stop-color:#80a3fa;stop-opacity:1" />
    </linearGradient>
    <linearGradient
       inkscape:collect="always"
       xlink:href="#linearGradient927"
       id="linearGradient1686-0"
       x1="321.99991"
       y1="84.000153"
       x2="365.99991"
       y2="84.000153"
       gradientUnits="userSpaceOnUse"
       gradientTransform="matrix(0,1.2302201,-1.2302201,0,135.49424,-391.12709)" />
    <linearGradient
       inkscape:collect="always"
       id="linearGradient927">
      <stop
         style="stop-color:#ffffff;stop-opacity:1;"
         offset="0"
         id="stop923" />
      <stop
         id="stop933"
         offset="0.125"
         style="stop-color:#ffffff;stop-opacity:0.09803922" />
      <stop
         id="stop931"
         offset="0.92500001"
         style="stop-color:#ffffff;stop-opacity:0.09803922" />
      <stop
         style="stop-color:#ffffff;stop-opacity:0.49803922"
         offset="1"
         id="stop925" />
    </linearGradient>
    <linearGradient
       inkscape:collect="always"
       xlink:href="#linearGradient1111"
       id="linearGradient1113"
       x1="15"
       y1="7.5264521"
       x2="54.417599"
       y2="53.443573"
       gradientUnits="userSpaceOnUse" />
  </defs>
  <path
     style="color:#000000;font-style:normal;font-variant:normal;font-weight:normal;font-stretch:normal;font-size:medium;line-height:normal;font-family:sans-serif;font-variant-ligatures:normal;font-variant-position:normal;font-variant-caps:normal;font-variant-numeric:normal;font-variant-alternates:normal;font-feature-settings:normal;text-indent:0;text-align:start;text-decoration:none;text-decoration-line:none;text-decoration-style:solid;text-decoration-color:#000000;letter-spacing:normal;word-spacing:normal;text-transform:none;writing-mode:lr-tb;direction:ltr;text-orientation:mixed;dominant-baseline:auto;baseline-shift:baseline;text-anchor:start;white-space:normal;shape-padding:0;clip-rule:nonzero;display:inline;overflow:visible;visibility:visible;opacity:0.1;isolation:auto;mix-blend-mode:normal;color-interpolation:sRGB;color-interpolation-filters:linearRGB;solid-color:#000000;solid-opacity:1;vector-effect:none;fill:#000000;fill-opacity:1;fill-rule:nonzero;stroke:none;stroke-width:2.46044;stroke-linecap:butt;stroke-linejoin:miter;stroke-miterlimit:4;stroke-dasharray:none;stroke-dashoffset:0;stroke-opacity:1;marker:none;color-rendering:auto;image-rendering:auto;shape-rendering:auto;text-rendering:auto;enable-background:accumulate"
     d="m 19.432333,5.0036581 c -3.22576,0 -5.765734,0.061622 -7.855706,0.3527471 C 9.4866426,5.6475233 7.7764274,6.1935737 6.523682,7.2306639 5.2709488,8.2677555 4.6097424,9.6862715 4.262193,11.421293 3.9146312,13.156316 3.8467845,15.268616 3.8625928,17.951807 v 15.34677 15.35411 c -0.015624,2.679069 0.052407,4.790296 0.3996002,6.523455 0.3475494,1.735028 1.0087558,3.153546 2.261489,4.190634 1.2527454,1.037087 2.9629606,1.583146 5.052945,1.874252 2.089996,0.291132 4.629946,0.352754 7.855706,0.352754 h 25.448555 c 3.225796,0 5.764417,-0.06151 7.850083,-0.352754 2.085641,-0.291242 3.790628,-0.839133 5.038748,-1.876601 1.248144,-1.037458 1.905426,-2.454967 2.255818,-4.188285 0.350403,-1.733294 0.425089,-3.841316 0.425089,-6.523455 V 33.298577 17.944752 c 0,-2.682139 -0.0748,-4.790149 -0.425089,-6.523459 C 59.675145,9.6879844 59.017851,8.2704817 57.769706,7.2330162 56.521587,6.1955506 54.8166,5.64765 52.730946,5.3564052 50.645305,5.0651592 48.10666,5.0036581 44.880888,5.0036581 Z"
     id="path1020"
     inkscape:connector-curvature="0"
     sodipodi:nodetypes="sccsccccccsscccscsccsss" />
  <path
     style="color:#000000;display:inline;overflow:visible;visibility:visible;fill:url(#linearGradient1686);fill-opacity:1;fill-rule:nonzero;stroke:none;stroke-width:1.23022;marker:none;enable-background:accumulate"
     d="m 19.035477,4.3886083 c -12.3159317,0 -14.6232217,1.11501 -14.5585123,11.9926527 V 32.068499 47.756031 C 4.4121322,58.633675 6.7195453,59.748686 19.035477,59.748686 h 26.241578 c 12.312855,0 14.558486,-1.114888 14.558486,-11.992655 V 32.068499 16.381261 c 0,-10.8777657 -2.245631,-11.9926527 -14.558498,-11.9926527 z"
     id="path964"
     inkscape:connector-curvature="0"
     sodipodi:nodetypes="scccssscsss" />
  <path
     style="display:inline;overflow:visible;visibility:visible;fill-opacity:1;fill-rule:nonzero;stroke:none;stroke-width:1.23022;marker:none;enable-background:accumulate"
     d="m 19.035477,4.3886083 c -12.3159317,0 -14.6232217,1.11501 -14.5585123,11.9926527 V 32.068499 47.756031 C 4.4121322,58.633675 6.7195453,59.748686 19.035477,59.748686 h 26.241578 c 12.312855,0 14.558486,-1.114888 14.558486,-11.992655 V 32.068499 16.381261 c 0,-10.8777657 -2.245631,-11.9926527 -14.558498,-11.9926527 z"
     id="path909"
     inkscape:connector-curvature="0"
     sodipodi:nodetypes="scccssscsss"
     fill="currentColor"
     class="ColorScheme-Highlight" />
  <path
     style="display:inline;overflow:visible;visibility:visible;fill-opacity:1;fill-rule:nonzero;stroke:none;stroke-width:1.23022;marker:none;enable-background:accumulate;fill:url(#linearGradient1113)"
     d="m 19.035477,4.3886083 c -12.3159317,0 -14.6232217,1.11501 -14.5585123,11.9926527 V 32.068499 47.756031 C 4.4121322,58.633675 6.7195453,59.748686 19.035477,59.748686 h 26.241578 c 12.312855,0 14.558486,-1.114888 14.558486,-11.992655 V 32.068499 16.381261 c 0,-10.8777657 -2.245631,-11.9926527 -14.558498,-11.9926527 z"
     id="path1029"
     inkscape:connector-curvature="0"
     sodipodi:nodetypes="scccssscsss" />
  <path
     style="color:#000000;display:inline;overflow:visible;visibility:visible;fill:#ffffff;fill-opacity:0.241697;fill-rule:nonzero;stroke:none;stroke-width:1.23022;marker:none;enable-background:accumulate"
     d="m 32.156265,59.748686 h 13.12079 c 12.312855,0 14.558486,-1.114888 14.558486,-11.992655 V 32.068499 16.381261 C 59.835541,5.5034953 57.58991,4.3886083 45.277043,4.3886083 H 32.156254 Z"
     id="path993"
     inkscape:connector-curvature="0"
     sodipodi:nodetypes="csscsscc" />
  <rect
     style="display:inline;opacity:0.910883;fill:#ffffff;fill-opacity:0.822878;stroke-width:1.84533;stroke-linejoin:round;paint-order:fill markers stroke;enable-background:new"
     id="rect1137"
     width="19.222189"
     height="42.980816"
     x="9.5502682"
     y="10.462759"
     rx="2.0467315"
     ry="2.0467315" />
  <rect
     style="display:inline;opacity:0.910883;fill:#ffffff;fill-opacity:0.666052;stroke-width:1.84533;stroke-linejoin:round;paint-order:fill markers stroke;enable-background:new"
     id="rect1494"
     width="18.417589"
     height="18.453302"
     x="36"
     y="11.154758"
     rx="2.0467296"
     ry="2.0467296" />
  <rect
     style="display:inline;opacity:0.910883;fill:#ffffff;fill-opacity:0.960432;stroke-width:1.84533;stroke-linejoin:round;paint-order:fill markers stroke;enable-background:new"
     id="rect1617"
     width="18.417599"
     height="21.443571"
     x="36"
     y="32"
     rx="2.0467296"
     ry="2.0467296" />
  <path
     style="color:#000000;display:inline;overflow:visible;visibility:visible;opacity:0.4;fill:none;fill-opacity:1;fill-rule:nonzero;stroke:#000000;stroke-width:1.23022;stroke-miterlimit:4;stroke-dasharray:none;stroke-opacity:1;marker:none;enable-background:accumulate"
     d="m 19.035477,4.3886058 c -12.3159317,0 -14.6232217,1.11501 -14.5585123,11.9926522 V 32.0685 47.756032 C 4.4121322,58.633675 6.7195453,59.748686 19.035477,59.748686 h 26.241578 c 12.312855,0 14.558486,-1.114888 14.558486,-11.992654 V 32.0685 16.381258 c 0,-10.8777653 -2.245631,-11.9926522 -14.558498,-11.9926522 z"
     id="path958"
     inkscape:connector-curvature="0"
     sodipodi:nodetypes="scccssscsss" />
  <path
     style="color:#000000;display:inline;overflow:visible;visibility:visible;fill:url(#linearGradient1686-0);fill-opacity:1;fill-rule:nonzero;stroke:none;stroke-width:1.23022;marker:none;enable-background:accumulate"
     d="m 19.036424,5.0036581 c -6.139402,0 -9.6824612,0.3398877 -11.5453338,1.7876635 C 6.5596536,7.515209 5.9685574,8.5179577 5.5904985,10.063899 5.2124519,11.60984 5.0771277,13.680783 5.0931205,16.378388 V 32.0685 47.758611 c -0.016116,2.697602 0.1193314,4.768547 0.497378,6.314491 0.3780589,1.545932 0.9691551,2.548672 1.9005917,3.272582 1.8628852,1.44776 5.4059318,1.787658 11.5453338,1.787658 h 26.240693 c 6.137851,0 9.663403,-0.340377 11.518895,-1.787658 0.927733,-0.723664 1.516775,-1.72798 1.898193,-3.274981 0.381405,-1.547002 0.526202,-3.616219 0.526202,-6.314494 V 32.0685 16.38079 c 0,-2.698276 -0.144797,-4.767487 -0.526202,-6.314489 C 58.312787,8.519301 57.723758,7.5149801 56.796012,6.7913216 54.94052,5.3440058 51.414979,5.0036581 45.277117,5.0036581 Z m 2.955407,1.3503584 c 8.546794,0.00102 17.113136,0.00418 25.649609,0.06728 2.636312,0.1020224 5.492083,-0.1817048 7.902725,1.1461222 1.594475,0.8552834 1.905143,2.7683943 2.17691,4.3850633 0.215917,2.710037 0.112566,5.464918 0.170596,8.205471 0.02793,10.43169 0.09473,20.875596 -0.09855,31.305737 -0.198693,1.824704 -0.469143,4.066854 -2.212943,5.096277 -1.975119,1.019496 -4.275643,1.115108 -6.456258,1.172561 -11.686771,0.0834 -23.404075,0.103704 -35.090109,-0.02165 C 12.092331,57.570475 10.010343,57.415455 8.3344388,56.331693 6.8218627,55.107151 6.6603348,52.976398 6.4843027,51.17293 6.3278186,40.102691 6.3814562,29.023453 6.41947,17.947376 6.5421229,15.017884 6.1175987,11.919296 7.2868736,9.1388095 8.1131513,7.2815213 10.320265,6.8506563 12.133265,6.6086893 15.407717,6.2192237 18.704904,6.4278199 21.991842,6.3539944 Z"
     id="path964-3"
     inkscape:connector-curvature="0" />
</svg>
