<?xml version="1.0" encoding="UTF-8" standalone="no"?>
<svg
   width="256"
   height="256"
   viewBox="0 0 67.73 67.73"
   version="1.1"
   id="svg76"
   sodipodi:docname="nomacs.svg"
   inkscape:version="1.1.2 (0a00cf5339, 2022-02-04)"
   xmlns:inkscape="http://www.inkscape.org/namespaces/inkscape"
   xmlns:sodipodi="http://sodipodi.sourceforge.net/DTD/sodipodi-0.dtd"
   xmlns:xlink="http://www.w3.org/1999/xlink"
   xmlns="http://www.w3.org/2000/svg"
   xmlns:svg="http://www.w3.org/2000/svg">
  <sodipodi:namedview
     id="namedview78"
     pagecolor="#ffffff"
     bordercolor="#666666"
     borderopacity="1.0"
     inkscape:pageshadow="2"
     inkscape:pageopacity="0.0"
     inkscape:pagecheckerboard="0"
     showgrid="false"
     inkscape:zoom="2.4804688"
     inkscape:cx="128"
     inkscape:cy="128"
     inkscape:window-width="1920"
     inkscape:window-height="1030"
     inkscape:window-x="0"
     inkscape:window-y="24"
     inkscape:window-maximized="1"
     inkscape:current-layer="svg76" />
  <defs
     id="defs38">
    <filter
       id="h"
       x="-0.060000002"
       y="-0.060000002"
       width="1.12"
       height="1.12"
       color-interpolation-filters="sRGB">
      <feGaussianBlur
         stdDeviation="1.2"
         id="feGaussianBlur2" />
    </filter>
    <linearGradient
       id="g"
       x1="128"
       x2="185.544"
       y1="100"
       y2="133.849"
       gradientTransform="translate(-26.432 -38.432)"
       gradientUnits="userSpaceOnUse">
      <stop
         offset="0"
         stop-opacity="0"
         id="stop5" />
      <stop
         offset="1"
         id="stop7" />
    </linearGradient>
    <linearGradient
       id="f"
       x1="128"
       x2="264"
       y1="100"
       y2="180"
       gradientTransform="translate(-26.432 -40.432)"
       gradientUnits="userSpaceOnUse">
      <stop
         offset="0"
         stop-opacity="0"
         id="stop10" />
      <stop
         offset=".423"
         id="stop12" />
      <stop
         offset="1"
         stop-opacity="0"
         id="stop14" />
    </linearGradient>
    <linearGradient
       id="e"
       x1="296"
       x2="296"
       y1="-212"
       y2="236"
       gradientUnits="userSpaceOnUse">
      <stop
         offset="0"
         stop-color="#FFFEFE"
         id="stop17" />
      <stop
         offset=".125"
         stop-color="#FFFEFE"
         stop-opacity=".098"
         id="stop19" />
      <stop
         offset=".925"
         stop-opacity=".098"
         id="stop21" />
      <stop
         offset="1"
         stop-opacity=".498"
         id="stop23" />
    </linearGradient>
    <clipPath
       id="d">
      <path
         d="M361.938-212C507.235-212 528-191.287 528-46.125v116.25C528 215.286 507.235 236 361.937 236H214.063C68.766 236 48 215.286 48 70.125v-116.25C48-191.287 68.765-212 214.063-212z"
         fill="#9F4AC8"
         id="path26" />
    </clipPath>
    <clipPath
       id="c">
      <path
         d="M115.031 44C42.383 44 32 54.357 32 126.938v58.124c0 10.166.218 19.071.768 26.938 3.376 48.3 19.79 56 82.263 56h73.938c62.473 0 78.887-7.7 82.263-56 .55-7.867.768-16.772.768-26.938v-58.125C272 54.358 261.617 44 188.969 44z"
         fill="#EEEDED"
         id="path29" />
    </clipPath>
    <filter
       id="b"
       x="-0.023199999"
       y="-0.025081193"
       width="1.0464"
       height="1.0501624"
       color-interpolation-filters="sRGB">
      <feGaussianBlur
         stdDeviation="2.32"
         id="feGaussianBlur32" />
    </filter>
    <filter
       id="a"
       x="-0.0116"
       y="-0.012428571"
       width="1.0232"
       height="1.0248571"
       color-interpolation-filters="sRGB">
      <feGaussianBlur
         stdDeviation="1.16"
         id="feGaussianBlur35" />
    </filter>
    <filter
       inkscape:collect="always"
       style="color-interpolation-filters:sRGB"
       id="filter4346"
       x="-0.014454287"
       width="1.0289086"
       y="-0.011357288"
       height="1.0227146">
      <feGaussianBlur
         inkscape:collect="always"
         stdDeviation="2.120027"
         id="feGaussianBlur4348" />
    </filter>
    <filter
       inkscape:collect="always"
       style="color-interpolation-filters:sRGB"
       id="filter4380"
       x="-0.057817147"
       width="1.1156343"
       y="-0.045429151"
       height="1.0908583">
      <feGaussianBlur
         inkscape:collect="always"
         stdDeviation="8.4801079"
         id="feGaussianBlur4382" />
    </filter>
    <linearGradient
       inkscape:collect="always"
       xlink:href="#linearGradient1129"
       id="linearGradient1091-3"
       x1="128"
       y1="100"
       x2="185.54404"
       y2="133.84943"
       gradientUnits="userSpaceOnUse"
       gradientTransform="translate(4.2e-4,2)" />
    <linearGradient
       inkscape:collect="always"
       id="linearGradient1129">
      <stop
         style="stop-color:#000000;stop-opacity:0"
         offset="0"
         id="stop1123" />
      <stop
         id="stop1125"
         offset="1"
         style="stop-color:#000000;stop-opacity:1" />
    </linearGradient>
    <filter
       inkscape:collect="always"
       style="color-interpolation-filters:sRGB"
       id="filter1101-7"
       x="-0.14"
       width="1.28"
       y="-0.18334825"
       height="1.3666965">
      <feGaussianBlur
         inkscape:collect="always"
         stdDeviation="7"
         id="feGaussianBlur1103-1" />
    </filter>
    <linearGradient
       gradientTransform="translate(4.2e-4)"
       inkscape:collect="always"
       xlink:href="#linearGradient4463"
       id="linearGradient1121-8"
       gradientUnits="userSpaceOnUse"
       x1="128"
       y1="100"
       x2="264"
       y2="180" />
    <linearGradient
       id="linearGradient4463"
       inkscape:collect="always">
      <stop
         id="stop4465"
         offset="0"
         style="stop-color:#000000;stop-opacity:0" />
      <stop
         style="stop-color:#000000;stop-opacity:1"
         offset="0.42311791"
         id="stop4471" />
      <stop
         id="stop4467"
         offset="1"
         style="stop-color:#000000;stop-opacity:0;" />
    </linearGradient>
    <filter
       inkscape:collect="always"
       style="color-interpolation-filters:sRGB"
       id="filter1117-7"
       x="-0.0105"
       width="1.021"
       y="-0.014"
       height="1.028">
      <feGaussianBlur
         inkscape:collect="always"
         stdDeviation="0.7"
         id="feGaussianBlur1119-2" />
    </filter>
    <filter
       inkscape:collect="always"
       style="color-interpolation-filters:sRGB"
       id="filter1001-5"
       x="-0.060000002"
       width="1.12"
       y="-0.060000002"
       height="1.12">
      <feGaussianBlur
         inkscape:collect="always"
         stdDeviation="1.2"
         id="feGaussianBlur1003-2" />
    </filter>
  </defs>
  <path
     style="color:#000000;display:inline;overflow:visible;visibility:visible;opacity:0.1;fill:#000000;fill-opacity:1;fill-rule:nonzero;stroke:none;stroke-width:2;marker:none;filter:url(#filter4346);enable-background:accumulate"
     d="M 189.84323,74 C 119.24979,74 111.65402,81.250835 112,151.98706 V 298 444.01294 C 111.65402,514.74917 119.24979,522 189.84323,522 H 386.15677 C 456.75021,522 462.16345,514.72616 464,444.01294 V 298 151.98706 C 464,81.249993 456.75021,74 386.15677,74 Z"
     id="rect4158-9"
     inkscape:connector-curvature="0"
     sodipodi:nodetypes="scccssscsss"
     transform="matrix(0,0.13228515,-0.13228515,0,72.747085,-3.1381035)" />
  <path
     sodipodi:nodetypes="scccssscsss"
     inkscape:connector-curvature="0"
     id="path4350"
     d="M 189.84323,74 C 119.24979,74 111.65402,81.250835 112,151.98706 V 298 444.01294 C 111.65402,514.74917 119.24979,522 189.84323,522 H 386.15677 C 456.75021,522 464,514.75001 464,444.01294 V 298 151.98706 C 464,81.249993 456.75021,74 386.15677,74 Z"
     style="color:#000000;display:inline;overflow:visible;visibility:visible;opacity:0.1;fill:#000000;fill-opacity:1;fill-rule:nonzero;stroke:none;stroke-width:2;marker:none;filter:url(#filter4380);enable-background:accumulate"
     transform="matrix(0,0.13228515,-0.13228515,0,72.747085,-3.1381035)" />
  <path
     style="color:#000000;display:inline;overflow:visible;visibility:visible;opacity:0.1;fill:#000000;fill-opacity:1;fill-rule:nonzero;stroke:none;stroke-width:0.269938;marker:none;enable-background:accumulate"
     d="m 63.4885,21.415715 c 0,-9.550674 -0.976307,-10.578316 -10.500753,-10.531508 H 33.327485 13.667222 C 4.1427729,10.837399 3.1664689,11.865041 3.1664689,21.415715 v 26.559504 c 0,9.550673 0.976193,10.531507 10.5007531,10.531507 h 19.660263 19.660262 c 9.52456,0 10.500753,-0.980834 10.500753,-10.531507 z"
     id="rect4158-7"
     inkscape:connector-curvature="0"
     sodipodi:nodetypes="scccssscsss" />
  <path
     style="color:#000000;display:inline;overflow:visible;visibility:visible;fill:#a3dbf0;fill-opacity:1;fill-rule:nonzero;stroke:none;stroke-width:0.26457;marker:none;enable-background:accumulate"
     d="m 62.957984,47.678705 c 0,9.338466 -0.959179,10.343273 -10.316531,10.297505 H 33.326109 14.010764 C 4.6534099,58.021978 3.6942339,57.017171 3.6942339,47.678705 V 21.70934 c 0,-9.338463 0.959067,-10.297504 10.3165301,-10.297504 h 19.315345 19.315344 c 9.357463,0 10.316531,0.959041 10.316531,10.297504 z"
     id="rect4158"
     inkscape:connector-curvature="0"
     sodipodi:nodetypes="scccssscsss" />
  <path
     style="display:inline;fill:#8fbf3a;fill-opacity:1;stroke:none;stroke-width:0.529141;stroke-linecap:round;stroke-linejoin:round;stroke-miterlimit:4;stroke-dasharray:none;stroke-dashoffset:0;stroke-opacity:1;enable-background:new"
     d="m 3.7130339,49.510674 c 0.158819,7.632618 1.5953575,8.508298 10.2975731,8.465734 h 19.3157 19.315183 c 8.702212,0.04256 10.138753,-0.833116 10.297571,-8.465734 H 8.0603584 Z"
     id="path1031-0" />
  <path
     style="color:#000000;display:inline;overflow:visible;visibility:visible;opacity:0.1;fill:#ffffff;fill-opacity:1;fill-rule:nonzero;stroke:none;stroke-width:0.529141;stroke-linecap:butt;stroke-linejoin:miter;stroke-miterlimit:4;stroke-dasharray:none;stroke-dashoffset:0;stroke-opacity:1;marker:none;enable-background:accumulate"
     d="M 44.720398,11.412033 20.346858,57.976408 H 33.326307 52.64149 c 9.357352,0.04577 10.316692,-0.959107 10.316692,-10.297574 V 21.709089 c 0,-9.338465 -0.959229,-10.297056 -10.316692,-10.297056 z"
     id="path4390-7" />
  <path
     style="color:#000000;display:inline;overflow:visible;visibility:visible;fill:#b6e2f3;fill-opacity:1;fill-rule:nonzero;stroke:none;stroke-width:0.529141;marker:none;enable-background:accumulate"
     d="M 32.038593,11.412033 12.161198,49.510674 H 24.860573 L 44.737968,11.412033 H 33.326307 Z"
     id="rect4248-4" />
  <path
     style="color:#000000;display:inline;overflow:visible;visibility:visible;fill:#ffda64;fill-opacity:1;fill-rule:nonzero;stroke:none;stroke-width:0.529141;marker:none;enable-background:accumulate"
     d="M 44.737968,11.412033 24.860573,49.510674 H 43.909636 L 62.201159,14.451491 C 61.121688,11.799345 58.566011,11.412033 52.64149,11.412033 Z"
     id="path4266-2" />
  <path
     style="color:#000000;display:inline;overflow:visible;visibility:visible;fill:#b6e2f3;fill-opacity:1;fill-rule:nonzero;stroke:none;stroke-width:0.529141;marker:none;enable-background:accumulate"
     d="M 62.201159,14.451491 43.909636,49.510674 H 56.60901 l 6.349172,-12.1692 V 21.709089 c 0,-3.425971 -0.131529,-5.720823 -0.757023,-7.257598 z"
     id="path1051-6" />
  <path
     style="color:#000000;display:inline;overflow:visible;visibility:visible;opacity:0.3;fill:url(#linearGradient1091-3);fill-opacity:1;fill-rule:nonzero;stroke:none;stroke-width:6;marker:none;filter:url(#filter1101-7);enable-background:accumulate"
     d="M 119.63519,122.37109 72.00042,214 h 95.26953 24.73047 l -36,-69 -12.32227,23.61914 z"
     id="path1078-4"
     inkscape:connector-curvature="0"
     sodipodi:nodetypes="ccccccc"
     transform="matrix(0.26457031,0,0,0.26457031,-6.8878641,-6.5782313)" />
  <path
     inkscape:connector-curvature="0"
     id="path1115-2"
     d="m 208.00042,92 a 24,24 0 0 0 -24,24 24,24 0 0 0 24,24 24,24 0 0 0 24,-24 24,24 0 0 0 -24,-24 z M 119.63519,120.37109 72.00042,212 h 95.26953 24.73047 l -36,-69 -12.32227,23.61914 z"
     style="color:#000000;display:inline;overflow:visible;visibility:visible;opacity:0.1;fill:url(#linearGradient1121-8);fill-opacity:1;fill-rule:nonzero;stroke:none;stroke-width:6;marker:none;filter:url(#filter1117-7);enable-background:accumulate"
     transform="matrix(0.26457031,0,0,0.26457031,-6.8878641,-6.5782313)" />
  <path
     sodipodi:nodetypes="cccc"
     inkscape:connector-curvature="0"
     id="path4244-2-5"
     d="m 12.161309,49.510674 12.60282,-24.242117 12.60282,24.242117 z"
     style="color:#000000;display:inline;overflow:visible;visibility:visible;fill:#f2f2f2;fill-opacity:1;fill-rule:nonzero;stroke:none;stroke-width:1.58742;marker:none;enable-background:accumulate" />
  <path
     style="color:#000000;display:inline;overflow:visible;visibility:visible;fill:#f9f9f9;fill-opacity:1;fill-rule:nonzero;stroke:none;stroke-width:1.58742;marker:none;enable-background:accumulate"
     d="m 24.860684,49.510674 9.524531,-18.255351 9.524532,18.255351 z"
     id="path4246-6-2"
     inkscape:connector-curvature="0"
     sodipodi:nodetypes="cccc" />
  <circle
     r="24"
     cy="118"
     cx="208.00043"
     id="circle967-5"
     style="display:inline;opacity:0.1;fill:#000000;fill-opacity:1;stroke:none;stroke-width:2;stroke-linecap:round;stroke-linejoin:round;stroke-miterlimit:4;stroke-dasharray:none;stroke-dashoffset:0;stroke-opacity:1;filter:url(#filter1001-5);enable-background:new"
     transform="matrix(0.26457031,0,0,0.26457031,-6.8878641,-6.5782313)" />
  <circle
     style="display:inline;fill:#f9f9f9;fill-opacity:1;stroke:none;stroke-width:0.529141;stroke-linecap:round;stroke-linejoin:round;stroke-miterlimit:4;stroke-dasharray:none;stroke-dashoffset:0;stroke-opacity:1;enable-background:new"
     id="path1076-1"
     cx="48.142876"
     cy="24.111925"
     r="6.3496876" />
  <path
     style="color:#000000;display:inline;overflow:visible;visibility:visible;opacity:0.3;fill:#ffffff;fill-opacity:1;fill-rule:nonzero;stroke:none;stroke-width:0.26457;marker:none;enable-background:accumulate"
     d="m 14.010607,11.412033 c -9.3574631,0 -10.3161751,0.958591 -10.3161751,10.297056 v 25.969745 c 0,0.02333 5.02e-4,0.04292 5.29e-4,0.06614 V 22.237713 C 3.6949479,12.899249 4.6541769,11.94014 14.01164,11.94014 h 19.315183 19.315183 c 9.334083,0 10.311348,0.958018 10.316176,10.231431 v -0.462482 c 0,-9.338465 -0.959229,-10.297056 -10.316692,-10.297056 H 33.326307 Z"
     id="rect4158-78"
     inkscape:connector-curvature="0" />
  <path
     style="color:#000000;display:inline;overflow:visible;visibility:visible;opacity:0.2;fill:#000000;fill-opacity:1;fill-rule:nonzero;stroke:none;stroke-width:0.26457;marker:none;enable-background:accumulate"
     d="m 3.6944319,47.149694 v 0.52914 c 0,9.338467 0.95882,10.343342 10.3161751,10.297574 h 19.3157 19.315183 c 9.357352,0.04577 10.316692,-0.959107 10.316692,-10.297574 v -0.52914 c 0,9.338466 -0.95934,10.343341 -10.316692,10.297573 H 33.326307 14.010607 C 4.6532519,57.493035 3.6944319,56.48816 3.6944319,47.149694 Z"
     id="rect4158-6"
     inkscape:connector-curvature="0" />
</svg>
