<?xml version="1.0" encoding="UTF-8" standalone="no"?>
<svg
   width="256"
   height="256"
   viewBox="0 0 67.73 67.73"
   version="1.1"
   id="svg77"
   sodipodi:docname="settings-app.svg"
   inkscape:version="1.1.2 (0a00cf5339, 2022-02-04)"
   xmlns:inkscape="http://www.inkscape.org/namespaces/inkscape"
   xmlns:sodipodi="http://sodipodi.sourceforge.net/DTD/sodipodi-0.dtd"
   xmlns:xlink="http://www.w3.org/1999/xlink"
   xmlns="http://www.w3.org/2000/svg"
   xmlns:svg="http://www.w3.org/2000/svg">
  <sodipodi:namedview
     id="namedview79"
     pagecolor="#ffffff"
     bordercolor="#666666"
     borderopacity="1.0"
     inkscape:pageshadow="2"
     inkscape:pageopacity="0.0"
     inkscape:pagecheckerboard="0"
     showgrid="false"
     inkscape:zoom="1.2332937"
     inkscape:cx="122.03095"
     inkscape:cy="139.05853"
     inkscape:window-width="1920"
     inkscape:window-height="1028"
     inkscape:window-x="0"
     inkscape:window-y="24"
     inkscape:window-maximized="1"
     inkscape:current-layer="svg77" />
  <defs
     id="defs45">
    <linearGradient
       id="k"
       x1="200"
       x2="200"
       y1="268"
       y2="44"
       gradientTransform="matrix(.26458 0 0 .26458 -6.993 221.973)"
       gradientUnits="userSpaceOnUse"
       xlink:href="#a" />
    <linearGradient
       id="a">
      <stop
         offset="0"
         stop-color="#EEEDED"
         id="stop3" />
      <stop
         offset="1"
         stop-color="#EEEDED"
         id="stop5" />
    </linearGradient>
    <linearGradient
       id="j"
       x1="152"
       x2="152"
       y1="100"
       y2="212"
       gradientTransform="translate(-26.432 -40.432)"
       gradientUnits="userSpaceOnUse">
      <stop
         offset="0"
         stop-opacity="0"
         id="stop8" />
      <stop
         offset=".5"
         id="stop10" />
      <stop
         offset="1"
         stop-opacity="0"
         id="stop12" />
    </linearGradient>
    <filter
       id="i"
       x="-0.023999763"
       y="-0.023999923"
       width="1.0479995"
       height="1.0479998"
       color-interpolation-filters="sRGB">
      <feGaussianBlur
         stdDeviation="1.5"
         id="feGaussianBlur15" />
    </filter>
    <linearGradient
       id="h"
       x1="152"
       x2="152"
       y1="124"
       y2="236"
       gradientUnits="userSpaceOnUse">
      <stop
         offset="0"
         id="stop18" />
      <stop
         offset="1"
         stop-opacity="0"
         id="stop20" />
    </linearGradient>
    <clipPath
       id="g">
      <path
         d="M152 68c-48.601 0-88 39.399-88 88s39.399 88 88 88 88-39.399 88-88-39.399-88-88-88z"
         fill="#111110"
         id="path23" />
    </clipPath>
    <linearGradient
       id="f"
       x1="296"
       x2="296"
       y1="-212"
       y2="236"
       gradientUnits="userSpaceOnUse">
      <stop
         offset="0"
         stop-color="#FFFEFE"
         id="stop26" />
      <stop
         offset=".125"
         stop-color="#FFFEFE"
         stop-opacity=".098"
         id="stop28" />
      <stop
         offset=".925"
         stop-opacity="0"
         id="stop30" />
      <stop
         offset="1"
         stop-opacity="0"
         id="stop32" />
    </linearGradient>
    <clipPath
       id="e">
      <path
         d="M361.938-212C507.235-212 528-191.287 528-46.125v116.25C528 215.286 507.235 236 361.937 236H214.063C68.766 236 48 215.286 48 70.125v-116.25C48-191.287 68.765-212 214.063-212z"
         fill="#9F4AC8"
         id="path35" />
    </clipPath>
    <linearGradient
       id="d"
       x1="160"
       x2="160"
       y1="268"
       y2="44"
       gradientTransform="matrix(.26458 0 0 .26458 -6.993 221.973)"
       gradientUnits="userSpaceOnUse"
       xlink:href="#a" />
    <filter
       id="c"
       x="-0.023199999"
       y="-0.024857142"
       width="1.0464"
       height="1.0497143"
       color-interpolation-filters="sRGB">
      <feGaussianBlur
         stdDeviation="2.32"
         id="feGaussianBlur39" />
    </filter>
    <filter
       id="b"
       x="-0.0116"
       y="-0.012428571"
       width="1.0232"
       height="1.0248571"
       color-interpolation-filters="sRGB">
      <feGaussianBlur
         stdDeviation="1.16"
         id="feGaussianBlur42" />
    </filter>
    <filter
       inkscape:collect="always"
       style="color-interpolation-filters:sRGB"
       id="filter48967"
       x="-0.012"
       width="1.024"
       y="-0.012"
       height="1.024">
      <feGaussianBlur
         inkscape:collect="always"
         stdDeviation="1.12"
         id="feGaussianBlur48969" />
    </filter>
    <filter
       inkscape:collect="always"
       style="color-interpolation-filters:sRGB"
       id="filter48952"
       x="-0.048"
       width="1.096"
       y="-0.048"
       height="1.096">
      <feGaussianBlur
         inkscape:collect="always"
         stdDeviation="4.48"
         id="feGaussianBlur48954" />
    </filter>
    <linearGradient
       inkscape:collect="always"
       xlink:href="#linearGradient945"
       id="linearGradient11065"
       x1="104"
       y1="44"
       x2="200"
       y2="268"
       gradientUnits="userSpaceOnUse"
       gradientTransform="matrix(0.26457031,0,0,0.26457031,-74.543545,-75.05666)" />
    <linearGradient
       inkscape:collect="always"
       id="linearGradient945">
      <stop
         id="stop943"
         offset="0"
         style="stop-color:#e6e6e6;stop-opacity:1" />
      <stop
         id="stop941"
         offset="1"
         style="stop-color:#d3d3d3;stop-opacity:1;" />
    </linearGradient>
    <radialGradient
       gradientTransform="matrix(0.26457031,-1.3779704e-8,1.5032405e-8,0.28862216,-5.8858283,-11.433773)"
       inkscape:collect="always"
       xlink:href="#linearGradient2650"
       id="radialGradient2652"
       cx="152"
       cy="164"
       fx="152"
       fy="164"
       r="88"
       gradientUnits="userSpaceOnUse" />
    <linearGradient
       inkscape:collect="always"
       id="linearGradient2650">
      <stop
         style="stop-color:#000000;stop-opacity:0"
         offset="0"
         id="stop2646" />
      <stop
         id="stop2654"
         offset="0.66666669"
         style="stop-color:#000000;stop-opacity:0" />
      <stop
         style="stop-color:#000000;stop-opacity:1"
         offset="1"
         id="stop2648" />
    </linearGradient>
    <filter
       inkscape:collect="always"
       style="color-interpolation-filters:sRGB"
       id="filter1025"
       x="-0.02400002"
       width="1.048"
       y="-0.023999979"
       height="1.048">
      <feGaussianBlur
         inkscape:collect="always"
         stdDeviation="1.5000091"
         id="feGaussianBlur1027" />
    </filter>
    <linearGradient
       gradientTransform="translate(5e-6)"
       inkscape:collect="always"
       xlink:href="#linearGradient1033"
       id="linearGradient1035"
       x1="152"
       y1="100"
       x2="152"
       y2="212"
       gradientUnits="userSpaceOnUse" />
    <linearGradient
       inkscape:collect="always"
       id="linearGradient1033">
      <stop
         style="stop-color:#000000;stop-opacity:0"
         offset="0"
         id="stop1029" />
      <stop
         id="stop1037"
         offset="0.5"
         style="stop-color:#000000;stop-opacity:1" />
      <stop
         style="stop-color:#000000;stop-opacity:0;"
         offset="1"
         id="stop1031" />
    </linearGradient>
    <linearGradient
       gradientTransform="matrix(0.26457031,0,0,0.26457031,-5.8858263,-7.4892717)"
       inkscape:collect="always"
       xlink:href="#linearGradient945"
       id="linearGradient955"
       x1="200"
       y1="268"
       x2="200"
       y2="44"
       gradientUnits="userSpaceOnUse" />
  </defs>
  <circle
     style="display:inline;opacity:0.1;fill:#000000;fill-opacity:1;stroke:none;stroke-width:1;stroke-linecap:round;stroke-linejoin:round;stroke-miterlimit:4;stroke-dasharray:none;stroke-opacity:1;filter:url(#filter48967);enable-background:new"
     id="path11042-4"
     r="112"
     cy="157"
     cx="152"
     transform="matrix(0.26457031,0,0,0.26457031,-5.8858273,-7.4892717)" />
  <circle
     style="display:inline;opacity:0.2;fill:#000000;fill-opacity:1;stroke:none;stroke-width:1;stroke-linecap:round;stroke-linejoin:round;stroke-miterlimit:4;stroke-dasharray:none;stroke-opacity:1;filter:url(#filter48952);enable-background:new"
     id="path11042-9"
     r="112"
     cy="157"
     cx="152"
     transform="matrix(0.26457031,0,0,0.26457031,-5.8858273,-7.4892717)" />
  <circle
     style="display:inline;fill:url(#linearGradient11065);fill-opacity:1;stroke:none;stroke-width:0.26457;stroke-linecap:round;stroke-linejoin:round;stroke-miterlimit:4;stroke-dasharray:none;stroke-opacity:1;enable-background:new"
     id="path11042"
     r="29.631874"
     cy="-33.783691"
     cx="-34.328861"
     transform="scale(-1)" />
  <path
     style="display:inline;opacity:0.25;fill:#ffffff;fill-opacity:1;stroke:none;stroke-width:2.82209;stroke-linecap:round;stroke-linejoin:round;stroke-miterlimit:4;stroke-dasharray:none;stroke-opacity:1;enable-background:new"
     d="M 4.6969847,36.348944 A 29.773288,29.773274 0 0 0 34.322915,63.415571 29.773288,29.773274 0 0 0 63.960735,36.348944 Z"
     id="rect12119"
     inkscape:connector-curvature="0"
     clip-path="none" />
  <circle
     style="color:#000000;display:inline;overflow:visible;visibility:visible;fill:#5d5d5d;fill-opacity:1;fill-rule:nonzero;stroke:none;stroke-width:1.01227;stroke-linecap:butt;stroke-linejoin:miter;stroke-miterlimit:4;stroke-dasharray:3.03682, 3.03682;stroke-dashoffset:0;stroke-opacity:1;marker:none;enable-background:accumulate"
     id="path4238"
     cx="34.328861"
     cy="-33.783691"
     r="23.282187"
     transform="scale(1,-1)"
     clip-path="none" />
  <path
     style="color:#000000;display:inline;overflow:visible;visibility:visible;opacity:0.05;fill:#000000;fill-opacity:1;fill-rule:nonzero;stroke:none;stroke-width:1.01227;stroke-linecap:butt;stroke-linejoin:miter;stroke-miterlimit:4;stroke-dasharray:3.03682, 3.03682;stroke-dashoffset:0;stroke-opacity:1;marker:none;enable-background:accumulate"
     d="M 11.046673,33.783694 A 23.282187,23.282187 0 0 1 34.32886,10.501508 23.282187,23.282187 0 0 1 57.611045,33.783694 Z"
     id="circle1007"
     inkscape:connector-curvature="0"
     clip-path="none" />
  <path
     sodipodi:nodetypes="sssss"
     id="path1001"
     d="m 34.32886,10.501508 c -12.858397,0 -23.282187,10.423788 -23.282187,23.282186 0,12.8584 10.42379,23.28219 23.282187,23.28219 12.858398,0 23.282185,-10.42379 23.282185,-23.28219 0,-12.858398 -10.423787,-23.282186 -23.282185,-23.282186 z"
     style="color:#000000;display:inline;overflow:visible;visibility:visible;fill:#5d5d5d;fill-opacity:1;fill-rule:nonzero;stroke:none;stroke-width:1.01225;stroke-linecap:butt;stroke-linejoin:round;stroke-miterlimit:4;stroke-dasharray:none;stroke-dashoffset:0;stroke-opacity:1;marker:none;enable-background:accumulate"
     inkscape:connector-curvature="0" />
  <path
     sodipodi:nodetypes="sssss"
     id="path1001-7"
     d="m 34.32886,10.501507 c -12.858397,0 -23.282187,10.423789 -23.282187,23.282187 0,12.8584 10.42379,23.28219 23.282187,23.28219 12.858398,0 23.282185,-10.42379 23.282185,-23.28219 0,-12.858398 -10.423787,-23.282187 -23.282185,-23.282187 z"
     style="color:#000000;display:inline;overflow:visible;visibility:visible;opacity:0.2;fill:url(#radialGradient2652);fill-opacity:1;fill-rule:nonzero;stroke:none;stroke-width:1.01225;stroke-linecap:butt;stroke-linejoin:round;stroke-miterlimit:4;stroke-dasharray:none;stroke-dashoffset:0;stroke-opacity:1;marker:none;enable-background:accumulate"
     inkscape:connector-curvature="0" />
  <path
     inkscape:connector-curvature="0"
     style="color:#000000;display:inline;overflow:visible;visibility:visible;opacity:0.2;fill:#000000;fill-opacity:0.714286;fill-rule:nonzero;stroke:none;stroke-width:16.0783;stroke-linecap:butt;stroke-linejoin:miter;stroke-miterlimit:4;stroke-dasharray:none;stroke-dashoffset:0;stroke-opacity:1;marker:none;filter:url(#filter1025);enable-background:accumulate"
     d="m 152,83.005855 c -5.39372,-0.06 -7.28039,0.14029 -8.03906,6.66211 l -0.28906,2.30469 c -0.66573,4.22983 -0.793,6.14517 -4.79493,7.18164 -0.26817,0.0599 -0.53589,0.12007 -0.80273,0.18359 -0.0631,0.013 -0.11886,0.0282 -0.1836,0.041 l 0.008,0.002 c -1.01036,0.24375 -2.00991,0.51443 -3,0.808585 l 0.01,-0.0117 c -0.16537,0.0565 -0.31605,0.10151 -0.47265,0.15039 -0.14986,0.0458 -0.29985,0.0898 -0.44922,0.13672 -4.02147,1.12811 -5.08541,-0.467615 -7.78711,-3.810545 l -1.4043,-1.85156 c -1.95898,-2.63437 -3.36984,-3.75873 -4.87304,-3.88086 -0.18789,-0.0153 -0.37832,-0.0151 -0.57032,0 -1.3439,0.10545 -2.81717,0.93022 -4.84765,2.13281 -4.70108,2.64491 -6.23474,3.7597 -3.63086,9.787105 l 0.90039,2.14062 c 1.65637,4.30254 2.51833,5.96731 -1.30274,9.30469 l 0.10157,-0.0234 c -0.78976,0.74858 -1.55804,1.51883 -2.30665,2.3086 l 0.0215,-0.10157 c -3.33739,3.82107 -5.00215,2.95911 -9.30469,1.30274 l -2.14062,-0.90235 c -1.88356,-0.81371 -3.28745,-1.22275 -4.40821,-1.25781 -2.46566,-0.0772 -3.56052,1.65668 -5.3789,4.88867 -2.7488,4.6411 -3.52069,6.37502 1.74804,10.29297 l 1.85157,1.4043 c 3.34293,2.7017 4.93866,3.76564 3.81054,7.78711 -0.047,0.14937 -0.0909,0.29936 -0.13671,0.44922 -0.0489,0.1566 -0.0919,0.30729 -0.14844,0.47265 l 0.01,-0.01 c -0.29416,0.99009 -0.56485,1.98964 -0.8086,3 l -0.002,-0.008 c -0.0127,0.0647 -0.028,0.12053 -0.041,0.1836 -0.0635,0.26684 -0.12365,0.53456 -0.18359,0.80273 -1.03646,4.00194 -2.95181,4.1292 -7.18164,4.79493 l -2.30469,0.28906 c -6.52182,0.75868 -6.72208,2.64535 -6.66211,8.03906 -0.06,5.39372 0.14029,7.2804 6.66211,8.03906 l 2.30469,0.28906 c 4.22983,0.66573 6.14518,0.793 7.18164,4.79493 0.0599,0.26818 0.12007,0.5359 0.18359,0.80273 0.013,0.0631 0.0282,0.11886 0.041,0.1836 l 0.002,-0.008 c 0.24375,1.01037 0.51444,2.00992 0.8086,3 l -0.0117,-0.01 c 0.0565,0.16537 0.10147,0.31605 0.15039,0.47265 0.0458,0.14985 0.0897,0.29986 0.13672,0.44922 1.12811,4.02147 -0.46762,5.08542 -3.81055,7.78711 l -1.85156,1.4043 c -5.26873,3.91794 -4.49684,5.6499 -1.74805,10.29101 2.64492,4.70109 3.75971,6.23475 9.78711,3.63087 l 2.14063,-0.90039 c 4.30252,-1.65638 5.96729,-2.51833 9.30468,1.30274 l -0.0234,-0.10157 c 0.74858,0.78976 1.51884,1.55807 2.3086,2.30665 l -0.10157,-0.0215 c 3.82107,3.3374 2.95911,5.00215 1.30274,9.30469 l -0.90235,2.14062 c -2.60388,6.0274 -1.07022,7.14414 3.63086,9.78907 4.6411,2.74879 6.37502,3.51873 10.29297,-1.75 l 1.4043,-1.85157 c 2.70169,-3.34294 3.76565,-4.93865 7.78711,-3.81054 0.14937,0.047 0.29936,0.0909 0.44922,0.13672 0.1566,0.0489 0.30728,0.0938 0.47265,0.15039 l -0.01,-0.0117 c 0.99009,0.29416 1.98964,0.56484 3,0.80859 l -0.008,0.002 c 0.0647,0.0128 0.12053,0.028 0.1836,0.041 0.26684,0.0635 0.53456,0.12365 0.80273,0.18359 4.00193,1.03647 4.12919,2.95182 4.79493,7.18164 l 0.28906,2.30469 c 0.75867,6.52182 2.64534,6.72209 8.03906,6.66211 5.39371,0.06 7.28039,-0.14029 8.03906,-6.66211 l 0.28906,-2.30469 c 0.66576,-4.22983 0.79299,-6.14518 4.79493,-7.18164 0.26817,-0.06 0.5359,-0.12007 0.80273,-0.18359 0.0631,-0.0131 0.11886,-0.0281 0.1836,-0.041 l -0.008,-0.002 c 1.01037,-0.24375 2.0099,-0.51443 3,-0.80859 l -0.01,0.0117 c 0.16536,-0.0565 0.31604,-0.10151 0.47265,-0.15039 0.14985,-0.0458 0.29986,-0.0897 0.44922,-0.13672 4.02147,-1.1281 5.08542,0.46761 7.78711,3.81054 l 1.4043,1.85157 c 3.91794,5.26872 5.6499,4.49685 10.29101,1.74804 4.70108,-2.64491 6.23475,-3.7597 3.63086,-9.78711 l -0.90039,-2.14062 c -1.65641,-4.30248 -2.51833,-5.96729 1.30275,-9.30469 l -0.10158,0.0234 c 0.78977,-0.74858 1.55807,-1.51884 2.30665,-2.3086 l -0.0215,0.10157 c 3.3374,-3.82107 5.00215,-2.95913 9.30469,-1.30274 l 2.14062,0.90235 c 6.0274,2.60387 7.14218,1.07022 9.78711,-3.63087 2.74879,-4.64111 3.5207,-6.37503 -1.74804,-10.29297 l -1.85157,-1.4043 c -3.34293,-2.70168 -4.93866,-3.76564 -3.81054,-7.78711 0.047,-0.14936 0.0908,-0.29937 0.13672,-0.44922 0.0489,-0.1566 0.092,-0.30728 0.14843,-0.47265 l -0.01,0.01 c 0.29416,-0.99009 0.56484,-1.98963 0.80859,-3 l 0.002,0.008 c 0.0128,-0.0647 0.028,-0.12052 0.041,-0.1836 0.0635,-0.26683 0.12365,-0.53455 0.18359,-0.80273 1.03647,-4.00193 2.9518,-4.12918 7.18164,-4.79493 l 2.30469,-0.28906 c 6.52182,-0.75867 6.72209,-2.64534 6.66211,-8.03906 0.06,-5.3937 -0.14027,-7.28038 -6.66211,-8.03906 l -2.30469,-0.28906 c -4.22984,-0.66574 -6.14517,-0.79299 -7.18164,-4.79493 -0.06,-0.26816 -0.12007,-0.53589 -0.18359,-0.80273 -0.0131,-0.0631 -0.0281,-0.11887 -0.041,-0.1836 l -0.002,0.008 c -0.24375,-1.01036 -0.51442,-2.0099 -0.80859,-3 l 0.0117,0.01 c -0.0565,-0.16536 -0.10151,-0.31604 -0.15039,-0.47265 -0.0458,-0.14986 -0.0897,-0.29985 -0.13672,-0.44922 -1.12811,-4.02147 0.46762,-5.08541 3.81054,-7.78711 l 1.85157,-1.4043 c 5.26873,-3.91794 4.49684,-5.6499 1.74804,-10.29101 -1.81838,-3.23199 -2.91321,-4.96776 -5.3789,-4.89063 -1.12074,0.0351 -2.52465,0.44605 -4.40821,1.25977 l -2.14062,0.90039 c -4.30247,1.6564 -5.96729,2.51834 -9.30469,-1.30274 l 0.0234,0.10157 c -0.74859,-0.78977 -1.51884,-1.55806 -2.30861,-2.30665 l 0.10157,0.0215 c -3.82105,-3.33739 -2.95911,-5.00215 -1.30273,-9.30469 l 0.90234,-2.14062 c 2.60388,-6.027395 1.07023,-7.142185 -3.63086,-9.787105 -2.32056,-1.3744 -3.91476,-2.25494 -5.41796,-2.13281 -1.50321,0.12213 -2.91604,1.24649 -4.87501,3.88086 l -1.4043,1.85156 c -2.70169,3.34293 -3.76564,4.938645 -7.78711,3.810545 -0.14936,-0.047 -0.29937,-0.0909 -0.44922,-0.13672 -0.15661,-0.0489 -0.30729,-0.0919 -0.47265,-0.14844 l 0.01,0.01 c -0.9901,-0.294155 -1.98963,-0.564845 -3,-0.808585 l 0.008,-0.002 c -0.0647,-0.0127 -0.12052,-0.028 -0.1836,-0.041 -0.26683,-0.0635 -0.53456,-0.12366 -0.80273,-0.1836 -4.00194,-1.03647 -4.12918,-2.95181 -4.79493,-7.18164 l -0.28906,-2.30468 c -0.75866,-6.52207 -2.64534,-6.72234 -8.03905,-6.66236 z m -0.0117,30.994135 c 0.004,-1e-5 0.008,-1e-5 0.0117,0 5.06531,3e-4 9.96082,0.87493 14.53516,2.48047 a 12,12 0 0 0 5.46484,6.87891 12,12 0 0 0 8.66992,1.29101 c 7.20335,6.1907 12.42982,14.70372 14.43946,24.54883 0.50642,2.48002 -1.38873,4.80104 -3.91993,4.80078 h -12.3789 c -1.76926,1.5e-4 -3.32848,-1.16191 -3.83399,-2.85742 -3.03409,-10.17667 -12.3486,-17.12613 -22.96679,-17.14063 -1.86552,0.0101 -3.72427,0.23539 -5.53711,0.67578 -1.72527,0.41898 -3.52028,-0.34928 -4.40821,-1.88671 l -6.17968,-10.70118 c -1.26291,-2.1886 -0.20551,-4.98537 2.18945,-5.79101 4.48467,-1.50955 9.18217,-2.28583 13.91406,-2.29883 z m -26.30664,10.0957 c 1.3611,0.0638 2.59614,0.816 3.27734,1.9961 l 6.17969,10.70117 c 0.88545,1.53347 0.65743,3.4666 -0.56055,4.75195 -4.21283,4.44663 -6.56562,10.3318 -6.57812,16.45703 0.007,6.12872 2.3554,12.01941 6.56836,16.47071 1.21703,1.28501 1.44502,3.21699 0.56055,4.75 l -6.16211,10.67578 c -1.26486,2.19101 -4.22044,2.67244 -6.11524,0.99609 -7.35823,-6.50704 -12.25407,-15.23839 -14.0625,-24.74023 a 12,12 0 0 0 3.21094,-8.1543 12,12 0 0 0 -3.21289,-8.15039 c 1.80449,-9.50615 6.6973,-18.24246 14.05664,-24.75391 0.77978,-0.68994 1.79784,-1.0487 2.83789,-1 z m 53.13867,37.9043 h 12.32813 c 2.53119,-2.4e-4 4.42635,2.32077 3.91992,4.80078 -2.00843,9.83929 -7.23024,18.34897 -14.42774,24.53906 a 12,12 0 0 0 -2.92382,-0.30273 12,12 0 0 0 -5.7168,1.60351 12,12 0 0 0 -5.45312,6.86134 c -4.57562,1.61246 -9.47418,2.49256 -14.54297,2.49805 -0.006,2e-5 -0.0125,2e-5 -0.0195,0 -4.72985,-0.0188 -9.42516,-0.80071 -13.90626,-2.31445 -2.39212,-0.80764 -3.44709,-3.60207 -2.18554,-5.78908 l 6.16992,-10.6875 c 0.88793,-1.53742 2.68293,-2.30567 4.4082,-1.8867 1.81402,0.44067 3.67428,0.66577 5.54102,0.67578 10.62131,-0.0108 19.93962,-6.96097 22.97461,-17.14064 0.50551,-1.6955 2.06472,-2.85757 3.83398,-2.85742 z"
     id="path1039"
     clip-path="none"
     transform="matrix(0.26457031,0,0,0.26457031,-5.8858273,-7.4892717)" />
  <path
     id="path1021"
     d="m 152,85.005855 c -5.39372,-0.06 -7.28039,0.14029 -8.03906,6.66211 l -0.28906,2.30469 c -0.66573,4.22983 -0.793,6.145165 -4.79493,7.181635 -0.26817,0.0599 -0.53589,0.12007 -0.80273,0.18359 -0.0631,0.013 -0.11886,0.0282 -0.1836,0.041 l 0.008,0.002 c -1.01036,0.24375 -2.00991,0.51443 -3,0.80859 l 0.01,-0.0117 c -0.16537,0.0565 -0.31605,0.10151 -0.47265,0.15039 -0.14986,0.0458 -0.29985,0.0898 -0.44922,0.13672 -4.02147,1.12811 -5.08541,-0.46762 -7.78711,-3.810545 l -1.4043,-1.85156 c -1.95898,-2.63437 -3.36984,-3.75873 -4.87304,-3.88086 -0.18789,-0.0153 -0.37832,-0.0151 -0.57032,0 -1.3439,0.10545 -2.81717,0.93022 -4.84765,2.13281 -4.70108,2.64491 -6.23474,3.7597 -3.63086,9.787105 l 0.90039,2.14062 c 1.65637,4.30254 2.51833,5.96731 -1.30274,9.30469 l 0.10157,-0.0234 c -0.78976,0.74858 -1.55804,1.51883 -2.30665,2.3086 l 0.0215,-0.10157 c -3.33739,3.82107 -5.00215,2.95911 -9.30469,1.30274 l -2.14062,-0.90235 c -1.88356,-0.81371 -3.28745,-1.22275 -4.40821,-1.25781 -2.46566,-0.0772 -3.56052,1.65668 -5.3789,4.88867 -2.7488,4.6411 -3.52069,6.37502 1.74804,10.29297 l 1.85157,1.4043 c 3.34293,2.7017 4.93866,3.76564 3.81054,7.78711 -0.047,0.14937 -0.0909,0.29936 -0.13671,0.44922 -0.0489,0.1566 -0.0919,0.30729 -0.14844,0.47265 l 0.01,-0.01 c -0.29416,0.99009 -0.56485,1.98964 -0.8086,3 l -0.002,-0.008 c -0.0127,0.0647 -0.028,0.12053 -0.041,0.1836 -0.0635,0.26684 -0.12365,0.53456 -0.18359,0.80273 -1.03646,4.00194 -2.95181,4.1292 -7.18164,4.79493 l -2.30469,0.28906 c -6.52182,0.75868 -6.72208,2.64535 -6.66211,8.03906 -0.06,5.39372 0.14029,7.2804 6.66211,8.03906 l 2.30469,0.28906 c 4.22983,0.66573 6.14518,0.793 7.18164,4.79493 0.0599,0.26818 0.12007,0.5359 0.18359,0.80273 0.013,0.0631 0.0282,0.11886 0.041,0.1836 l 0.002,-0.008 c 0.24375,1.01037 0.51444,2.00992 0.8086,3 l -0.0117,-0.01 c 0.0565,0.16537 0.10147,0.31605 0.15039,0.47265 0.0458,0.14985 0.0897,0.29986 0.13672,0.44922 1.12811,4.02147 -0.46762,5.08542 -3.81055,7.78711 l -1.85156,1.4043 c -5.26873,3.91794 -4.49684,5.6499 -1.74805,10.29101 2.64492,4.70109 3.75971,6.23475 9.78711,3.63087 l 2.14063,-0.90039 c 4.30252,-1.65637 5.96729,-2.51833 9.30468,1.30274 l -0.0234,-0.10157 c 0.74858,0.78976 1.51884,1.55807 2.3086,2.30665 l -0.10157,-0.0215 c 3.82107,3.3374 2.95911,5.00215 1.30274,9.30469 l -0.90235,2.14062 c -2.60388,6.0274 -1.07022,7.14414 3.63086,9.78907 4.6411,2.74879 6.37502,3.51873 10.29297,-1.75 l 1.4043,-1.85157 c 2.70169,-3.34294 3.76565,-4.93865 7.78711,-3.81054 0.14937,0.047 0.29936,0.0909 0.44922,0.13672 0.1566,0.0489 0.30728,0.0938 0.47265,0.15039 l -0.01,-0.0117 c 0.99009,0.29416 1.98964,0.56484 3,0.80859 l -0.008,0.002 c 0.0647,0.0128 0.12053,0.028 0.1836,0.041 0.26684,0.0635 0.53456,0.12365 0.80273,0.18359 4.00193,1.03647 4.12919,2.95182 4.79493,7.18164 l 0.28906,2.30469 c 0.75867,6.52182 2.64534,6.72209 8.03906,6.66211 5.39371,0.06 7.28039,-0.14029 8.03906,-6.66211 l 0.28906,-2.30469 c 0.66576,-4.22983 0.79299,-6.14518 4.79493,-7.18164 0.26817,-0.06 0.5359,-0.12007 0.80273,-0.18359 0.0631,-0.0131 0.11886,-0.0281 0.1836,-0.041 l -0.008,-0.002 c 1.01037,-0.24375 2.0099,-0.51443 3,-0.80859 l -0.01,0.0117 c 0.16536,-0.0565 0.31604,-0.10151 0.47265,-0.15039 0.14985,-0.0458 0.29986,-0.0897 0.44922,-0.13672 4.02147,-1.1281 5.08542,0.46761 7.78711,3.81054 l 1.4043,1.85157 c 3.91794,5.26872 5.6499,4.49685 10.29101,1.74804 4.70108,-2.64491 6.23475,-3.7597 3.63086,-9.78711 l -0.90039,-2.14062 c -1.65641,-4.30248 -2.51833,-5.96729 1.30275,-9.30469 l -0.10158,0.0234 c 0.78977,-0.74858 1.55807,-1.51884 2.30665,-2.3086 l -0.0215,0.10157 c 3.3374,-3.82107 5.00215,-2.95912 9.30469,-1.30274 l 2.14062,0.90235 c 6.0274,2.60387 7.14218,1.07022 9.78711,-3.63087 2.74879,-4.64111 3.5207,-6.37503 -1.74804,-10.29297 l -1.85157,-1.4043 c -3.34293,-2.70168 -4.93866,-3.76564 -3.81054,-7.78711 0.047,-0.14936 0.0908,-0.29937 0.13672,-0.44922 0.0489,-0.1566 0.092,-0.30728 0.14843,-0.47265 l -0.01,0.01 c 0.29416,-0.99009 0.56484,-1.98963 0.80859,-3 l 0.002,0.008 c 0.0128,-0.0647 0.028,-0.12052 0.041,-0.1836 0.0635,-0.26683 0.12365,-0.53455 0.18359,-0.80273 1.03647,-4.00193 2.9518,-4.12919 7.18164,-4.79493 l 2.30469,-0.28906 c 6.52182,-0.75867 6.72209,-2.64534 6.66211,-8.03906 0.06,-5.3937 -0.14027,-7.28038 -6.66211,-8.03906 l -2.30469,-0.28906 c -4.22984,-0.66574 -6.14517,-0.79299 -7.18164,-4.79493 -0.06,-0.26816 -0.12007,-0.53589 -0.18359,-0.80273 -0.0131,-0.0631 -0.0281,-0.11887 -0.041,-0.1836 l -0.002,0.008 c -0.24375,-1.01036 -0.51442,-2.0099 -0.80859,-3 l 0.0117,0.01 c -0.0565,-0.16536 -0.10151,-0.31604 -0.15039,-0.47265 -0.0458,-0.14986 -0.0897,-0.29985 -0.13672,-0.44922 -1.12811,-4.02147 0.46762,-5.08541 3.81054,-7.78711 l 1.85157,-1.4043 c 5.26873,-3.91794 4.49684,-5.6499 1.74804,-10.29101 -1.81838,-3.23199 -2.91321,-4.96776 -5.3789,-4.89063 -1.12074,0.0351 -2.52465,0.44605 -4.40821,1.25977 l -2.14062,0.90039 c -4.30247,1.6564 -5.96729,2.51834 -9.30469,-1.30274 l 0.0234,0.10157 c -0.74859,-0.78977 -1.51884,-1.55806 -2.30861,-2.30665 l 0.10157,0.0215 c -3.82105,-3.33739 -2.95911,-5.00215 -1.30273,-9.30469 l 0.90234,-2.14062 c 2.60388,-6.027395 1.07023,-7.142185 -3.63086,-9.787105 -2.32056,-1.3744 -3.91476,-2.25494 -5.41796,-2.13281 -1.50321,0.12213 -2.91604,1.24649 -4.87501,3.88086 l -1.4043,1.85156 c -2.70169,3.342925 -3.76564,4.938645 -7.78711,3.810545 -0.14936,-0.047 -0.29937,-0.0909 -0.44922,-0.13672 -0.15661,-0.0489 -0.30729,-0.0919 -0.47265,-0.14844 l 0.01,0.01 c -0.9901,-0.29416 -1.98963,-0.56485 -3,-0.80859 l 0.008,-0.002 c -0.0647,-0.0127 -0.12052,-0.028 -0.1836,-0.041 -0.26683,-0.0635 -0.53456,-0.12366 -0.80273,-0.1836 -4.00194,-1.03647 -4.12918,-2.951805 -4.79493,-7.181635 l -0.28906,-2.30468 c -0.75866,-6.52207 -2.64534,-6.72234 -8.03905,-6.66236 z m -0.0117,30.994135 c 0.004,-1e-5 0.008,-1e-5 0.0117,0 5.06531,3e-4 9.96082,0.87493 14.53516,2.48047 a 12,12 0 0 0 5.46484,6.87891 12,12 0 0 0 8.66992,1.29101 c 7.20335,6.1907 12.42982,14.70372 14.43946,24.54883 0.50642,2.48002 -1.38873,4.80104 -3.91993,4.80078 h -12.3789 c -1.76926,1.5e-4 -3.32848,-1.16191 -3.83399,-2.85742 -3.03409,-10.17667 -12.3486,-17.12613 -22.96679,-17.14063 -1.86552,0.0101 -3.72427,0.23539 -5.53711,0.67578 -1.72527,0.41898 -3.52028,-0.34928 -4.40821,-1.88671 l -6.17968,-10.70118 c -1.26291,-2.1886 -0.20551,-4.98537 2.18945,-5.79101 4.48467,-1.50955 9.18217,-2.28583 13.91406,-2.29883 z m -26.30664,10.0957 c 1.3611,0.0638 2.59614,0.816 3.27734,1.9961 l 6.17969,10.70117 c 0.88545,1.53347 0.65743,3.4666 -0.56055,4.75195 -4.21283,4.44663 -6.56562,10.3318 -6.57812,16.45703 0.007,6.12873 2.3554,12.01941 6.56836,16.47071 1.21703,1.28501 1.44502,3.21699 0.56055,4.75 l -6.16211,10.67578 c -1.26486,2.19101 -4.22044,2.67244 -6.11524,0.99609 -7.35823,-6.50704 -12.25407,-15.23839 -14.0625,-24.74023 a 12,12 0 0 0 3.21094,-8.1543 12,12 0 0 0 -3.21289,-8.15039 c 1.80449,-9.50615 6.6973,-18.24246 14.05664,-24.75391 0.77978,-0.68994 1.79784,-1.0487 2.83789,-1 z m 53.13867,37.9043 h 12.32813 c 2.53119,-2.4e-4 4.42635,2.32077 3.91992,4.80078 -2.00843,9.83928 -7.23024,18.34896 -14.42774,24.53906 a 12,12 0 0 0 -2.92382,-0.30273 12,12 0 0 0 -5.7168,1.60351 12,12 0 0 0 -5.45312,6.86134 c -4.57562,1.61246 -9.47418,2.49256 -14.54297,2.49805 -0.006,2e-5 -0.0125,2e-5 -0.0195,0 -4.72985,-0.0188 -9.42516,-0.80071 -13.90626,-2.31445 -2.39212,-0.80764 -3.44709,-3.60206 -2.18554,-5.78908 l 6.16992,-10.6875 c 0.88793,-1.53742 2.68293,-2.30567 4.4082,-1.8867 1.81402,0.44067 3.67428,0.66577 5.54102,0.67578 10.62131,-0.0108 19.93962,-6.96097 22.97461,-17.14064 0.50551,-1.6955 2.06472,-2.85757 3.83398,-2.85742 z"
     style="color:#000000;display:inline;overflow:visible;visibility:visible;opacity:0.2;fill:url(#linearGradient1035);fill-opacity:1;fill-rule:nonzero;stroke:none;stroke-width:16.0783;stroke-linecap:butt;stroke-linejoin:miter;stroke-miterlimit:4;stroke-dasharray:none;stroke-dashoffset:0;stroke-opacity:1;marker:none;filter:url(#filter1025);enable-background:accumulate"
     inkscape:connector-curvature="0"
     clip-path="none"
     transform="matrix(0.26457031,0,0,0.26457031,-5.8858273,-7.4892717)" />
  <path
     inkscape:connector-curvature="0"
     style="color:#000000;display:inline;overflow:visible;visibility:visible;fill:url(#linearGradient955);fill-opacity:1;fill-rule:nonzero;stroke:none;stroke-width:4.25384;stroke-linecap:butt;stroke-linejoin:miter;stroke-miterlimit:4;stroke-dasharray:none;stroke-dashoffset:0;stroke-opacity:1;marker:none;enable-background:accumulate"
     d="m 34.32886,13.942472 c -1.427018,-0.01587 -1.926175,0.03712 -2.126896,1.762597 l -0.07648,0.609752 c -0.176133,1.119088 -0.209804,1.62583 -1.268596,1.900049 -0.07095,0.01585 -0.141781,0.03177 -0.212379,0.04857 -0.01669,0.0034 -0.03145,0.0075 -0.04857,0.01085 l 0.0021,5.29e-4 c -0.267312,0.06449 -0.531763,0.136103 -0.793711,0.213932 l 0.0026,-0.0031 c -0.04375,0.01495 -0.08362,0.02686 -0.125049,0.03979 -0.03965,0.01212 -0.07933,0.02376 -0.11885,0.03617 -1.063962,0.298464 -1.345449,-0.123718 -2.060238,-1.008158 L 27.131315,17.06359 c -0.518288,-0.696976 -0.89156,-0.994449 -1.289262,-1.026761 -0.04971,-0.004 -0.100092,-0.004 -0.15089,0 -0.355556,0.0279 -0.745339,0.246109 -1.282544,0.564279 -1.243766,0.699764 -1.649527,0.994705 -0.960618,2.589377 l 0.238217,0.566345 c 0.438226,1.138324 0.666275,1.578773 -0.344667,2.461744 l 0.02687,-0.0062 c -0.208947,0.198052 -0.412211,0.401838 -0.610271,0.610787 l 0.0057,-0.02687 c -0.882974,1.010942 -1.32342,0.782893 -2.461745,0.344666 L 19.735752,22.902229 C 19.237418,22.686946 18.86599,22.578726 18.56947,22.56945 c -0.65234,-0.02042 -0.942008,0.438308 -1.423097,1.293397 -0.727251,1.227897 -0.93147,1.686641 0.46248,2.723214 l 0.48987,0.371536 c 0.88444,0.71479 1.306623,0.996277 1.008156,2.060238 -0.01243,0.03952 -0.02405,0.0792 -0.03617,0.118851 -0.01294,0.04143 -0.02431,0.0813 -0.03927,0.125049 l 0.0026,-0.0026 c -0.07783,0.261949 -0.149442,0.5264 -0.213931,0.793711 l -5.29e-4,-0.0021 c -0.0034,0.01712 -0.0074,0.03189 -0.01085,0.04857 -0.0168,0.0706 -0.03271,0.141428 -0.04857,0.212378 -0.274217,1.058795 -0.780962,1.092464 -1.900049,1.268596 l -0.609753,0.07648 c -1.725479,0.200724 -1.778462,0.699881 -1.762596,2.126897 -0.01587,1.427018 0.03712,1.926177 1.762596,2.126896 l 0.609753,0.07648 c 1.119087,0.176132 1.625832,0.209804 1.900049,1.268596 0.01585,0.07095 0.03177,0.141783 0.04857,0.212379 0.0034,0.01669 0.0075,0.03145 0.01085,0.04857 l 5.29e-4,-0.0021 c 0.06449,0.267314 0.136105,0.531763 0.213931,0.793711 l -0.0031,-0.0026 c 0.01495,0.04375 0.02685,0.08362 0.03979,0.125049 0.01212,0.03965 0.02373,0.07934 0.03617,0.118851 0.298464,1.063961 -0.123719,1.345451 -1.008159,2.060238 l -0.489868,0.371536 c -1.393949,1.036571 -1.18973,1.494796 -0.462482,2.722696 0.699768,1.243768 0.994708,1.649529 2.589379,0.960617 l 0.566396,-0.238337 c 1.138319,-0.438226 1.578768,-0.666273 2.461742,0.344666 l -0.0062,-0.02687 c 0.198052,0.20895 0.40184,0.412222 0.610787,0.610274 l -0.02687,-0.0057 c 1.010942,0.882977 0.782892,1.323421 0.344666,2.461745 l -0.238735,0.566345 c -0.688909,1.594671 -0.283148,1.890127 0.960618,2.589897 1.227897,0.727248 1.686641,0.930951 2.723214,-0.462998 l 0.371536,-0.489871 c 0.714787,-0.884442 0.996279,-1.30662 2.060238,-1.008155 0.03952,0.01243 0.0792,0.02405 0.118851,0.03617 0.04143,0.01294 0.0813,0.02482 0.125049,0.03979 l -0.0026,-0.0031 c 0.261949,0.07783 0.5264,0.14944 0.793711,0.213929 l -0.0021,5.29e-4 c 0.01712,0.0034 0.03189,0.0074 0.04858,0.01085 0.0706,0.0168 0.141428,0.03271 0.212378,0.04857 1.058792,0.274219 1.092461,0.780964 1.268596,1.900049 l 0.07648,0.609752 c 0.200721,1.72548 0.699878,1.778466 2.126896,1.762597 1.427016,0.01587 1.926176,-0.03712 2.126897,-1.762597 l 0.07648,-0.609752 c 0.17614,-1.119088 0.209801,-1.625833 1.268596,-1.900049 0.07095,-0.01587 0.141783,-0.03177 0.212378,-0.04857 0.01669,-0.0035 0.03145,-0.0074 0.04858,-0.01085 l -0.0021,-5.29e-4 c 0.267314,-0.06449 0.53176,-0.136103 0.793711,-0.213929 l -0.0026,0.0031 c 0.04375,-0.01495 0.08361,-0.02686 0.125049,-0.03979 0.03965,-0.01212 0.07933,-0.02373 0.118851,-0.03617 1.063961,-0.298462 1.345451,0.123715 2.060238,1.008155 l 0.371536,0.489871 c 1.03657,1.393947 1.494796,1.189733 2.722696,0.462479 1.243766,-0.699764 1.649529,-0.994705 0.960617,-2.589378 l -0.238216,-0.566345 c -0.438237,-1.138308 -0.666276,-1.578768 0.344669,-2.461745 l -0.02688,0.0062 c 0.208949,-0.198052 0.412219,-0.40184 0.610271,-0.610789 l -0.0057,0.02687 c 0.882977,-1.010939 1.32342,-0.782895 2.461744,-0.344666 l 0.566345,0.238735 c 1.594671,0.688909 1.889609,0.283151 2.589381,-0.960618 0.72725,-1.2279 0.93147,-1.686644 -0.462482,-2.723214 l -0.48987,-0.371536 c -0.88444,-0.714785 -1.306623,-0.996277 -1.008156,-2.060238 0.01244,-0.03952 0.02402,-0.0792 0.03617,-0.118851 0.01294,-0.04143 0.02434,-0.0813 0.03927,-0.125049 l -0.0026,0.0026 c 0.07783,-0.261949 0.14944,-0.526397 0.213929,-0.793711 l 5.29e-4,0.0021 c 0.0034,-0.01712 0.0074,-0.03189 0.01085,-0.04857 0.0168,-0.07059 0.03271,-0.141423 0.04857,-0.212378 0.274219,-1.058792 0.780959,-1.092461 1.90005,-1.268596 l 0.60975,-0.07648 c 1.72548,-0.200722 1.77847,-0.699878 1.7626,-2.126897 0.0159,-1.427013 -0.0371,-1.926172 -1.7626,-2.126896 l -0.60975,-0.07648 c -1.119091,-0.176135 -1.625831,-0.209802 -1.90005,-1.268596 -0.01587,-0.07095 -0.03177,-0.141781 -0.04857,-0.212379 -0.0035,-0.01669 -0.0074,-0.03145 -0.01085,-0.04857 l -5.29e-4,0.0021 c -0.06449,-0.267311 -0.1361,-0.53176 -0.213929,-0.793711 l 0.0031,0.0026 c -0.01495,-0.04375 -0.02686,-0.08362 -0.03979,-0.125049 -0.01212,-0.03965 -0.02373,-0.07933 -0.03617,-0.118851 -0.298464,-1.063961 0.123718,-1.345448 1.008156,-2.060238 l 0.48987,-0.371536 c 1.393952,-1.036571 1.189732,-1.494796 0.462482,-2.722696 -0.481092,-0.855088 -0.770751,-1.314321 -1.4231,-1.293915 -0.296514,0.0093 -0.667947,0.118011 -1.166281,0.333298 L 48.3558,23.140828 c -1.138306,0.438234 -1.578768,0.666278 -2.461745,-0.344666 l 0.0062,0.02687 c -0.198055,-0.20895 -0.40184,-0.412216 -0.61079,-0.610271 l 0.02687,0.0057 c -1.010933,-0.882974 -0.78289,-1.32342 -0.344661,-2.461744 l 0.238733,-0.566345 c 0.688909,-1.59467 0.283151,-1.88961 -0.960618,-2.589377 -0.613951,-0.363626 -1.035729,-0.596591 -1.433431,-0.564279 -0.397705,0.03231 -0.771498,0.329785 -1.289783,1.026761 l -0.371536,0.489868 c -0.714787,0.88444 -0.996277,1.30662 -2.060238,1.008158 -0.03952,-0.01243 -0.07921,-0.02405 -0.118851,-0.03617 -0.04143,-0.01294 -0.0813,-0.02431 -0.125049,-0.03927 l 0.0026,0.0026 C 38.59155,18.410833 38.327104,18.33922 38.05979,18.274734 l 0.0021,-5.29e-4 c -0.01712,-0.0034 -0.03189,-0.0074 -0.04858,-0.01085 -0.0706,-0.0168 -0.141428,-0.03271 -0.212378,-0.04857 -1.058795,-0.274219 -1.092459,-0.780961 -1.268596,-1.900048 l -0.07648,-0.60975 c -0.200821,-1.72534 -0.69998,-1.778325 -2.126996,-1.762456 z m -0.0031,8.200128 c 0.0011,-2e-6 0.0021,-2e-6 0.0031,0 1.340131,8e-5 2.635337,0.231481 3.845572,0.656259 a 3.1748437,3.1748437 0 0 0 1.445834,1.819955 3.1748437,3.1748437 0 0 0 2.293804,0.341563 c 1.905792,1.637876 3.288561,3.890168 3.820252,6.494892 0.133984,0.656139 -0.367417,1.270212 -1.037097,1.270144 h -3.275089 c -0.468094,3.9e-5 -0.880617,-0.307407 -1.01436,-0.755989 -0.80273,-2.692445 -3.267073,-4.531065 -6.076331,-4.534902 -0.493561,0.0027 -0.985331,0.06228 -1.464955,0.178792 -0.456455,0.110849 -0.931362,-0.09241 -1.166281,-0.499168 l -1.63496,-2.831214 c -0.334129,-0.579039 -0.05437,-1.318981 0.579263,-1.53213 1.186511,-0.399382 2.42933,-0.604762 3.681248,-0.608202 z m -6.959956,2.671023 c 0.360106,0.01688 0.686861,0.215889 0.867087,0.528109 l 1.634962,2.831211 c 0.234264,0.405711 0.173937,0.91716 -0.148305,1.257225 -1.11459,1.176447 -1.737068,2.733488 -1.740375,4.354042 0.0019,1.621477 0.623169,3.179979 1.737793,4.357661 0.32199,0.339975 0.382309,0.85112 0.148305,1.256709 l -1.630311,2.824494 c -0.334645,0.579676 -1.116604,0.707048 -1.617911,0.263536 -1.94677,-1.72157 -3.242063,-4.031626 -3.72052,-6.54553 a 3.1748437,3.1748437 0 0 0 0.849519,-2.157386 3.1748437,3.1748437 0 0 0 -0.850035,-2.156351 c 0.477414,-2.515045 1.771906,-4.826414 3.718969,-6.54915 0.206307,-0.182538 0.475655,-0.277455 0.750822,-0.26457 z m 14.058914,10.028352 h 3.261657 c 0.669678,-6.3e-5 1.171081,0.614007 1.037095,1.270144 -0.531371,2.603181 -1.912907,4.85459 -3.817152,6.492307 a 3.1748437,3.1748437 0 0 0 -0.773556,-0.08009 3.1748437,3.1748437 0 0 0 -1.512495,0.424241 3.1748437,3.1748437 0 0 0 -1.442734,1.815305 c -1.210573,0.426611 -2.506587,0.65946 -3.847638,0.660912 -0.0016,5e-6 -0.0033,5e-6 -0.0052,0 -1.251378,-0.005 -2.493618,-0.211844 -3.679184,-0.612337 -0.632884,-0.213678 -0.911997,-0.952998 -0.578229,-1.531616 l 1.632378,-2.827595 c 0.23492,-0.406756 0.709824,-0.610012 1.166279,-0.499165 0.479936,0.116588 0.972105,0.176143 1.465989,0.178788 2.810083,-0.0029 5.275432,-1.841663 6.0784,-4.534901 0.133743,-0.448579 0.546263,-0.756029 1.014357,-0.755989 z"
     id="path4356"
     clip-path="none" />
  <path
     inkscape:connector-curvature="0"
     style="color:#000000;display:inline;overflow:visible;visibility:visible;opacity:0.1;fill:#000000;fill-opacity:1;fill-rule:nonzero;stroke:none;stroke-width:1.04146;stroke-linecap:butt;stroke-linejoin:miter;stroke-miterlimit:4;stroke-dasharray:3.12439, 3.12439;stroke-dashoffset:0;stroke-opacity:1;marker:none;enable-background:accumulate"
     d="m 34.32886,20.026038 c -6.510824,0 -11.965078,4.530047 -13.390771,10.607616 a 3.1748437,3.1748437 0 0 1 1.957923,0.993689 c 0.477415,-2.515045 1.771907,-4.826414 3.71897,-6.54915 0.206307,-0.182538 0.475655,-0.277455 0.750821,-0.26457 0.360107,0.01688 0.686862,0.215889 0.867087,0.528109 l 1.634963,2.831211 c 0.234264,0.405711 0.173936,0.91716 -0.148305,1.257225 -1.11459,1.176447 -1.737068,2.733488 -1.740375,4.354042 0.0019,1.621477 0.623169,3.179979 1.737793,4.357661 0.32199,0.339975 0.382309,0.85112 0.148305,1.256709 l -1.630312,2.824494 c -0.334644,0.579676 -1.116603,0.707048 -1.617911,0.263536 -1.946769,-1.72157 -3.242063,-4.031626 -3.72052,-6.54553 a 3.1748437,3.1748437 0 0 1 -1.957923,0.993689 c 1.426092,6.077018 6.879823,10.606584 13.390255,10.606584 1.379896,0 2.711594,-0.205444 3.968555,-0.583915 a 3.1748437,3.1748437 0 0 1 -0.119882,-2.19356 c -1.210574,0.426611 -2.506587,0.65946 -3.847638,0.660912 -0.0016,5e-6 -0.0033,5e-6 -0.0052,0 -1.251377,-0.005 -2.493617,-0.211844 -3.679183,-0.612337 -0.632884,-0.213678 -0.911998,-0.952998 -0.578229,-1.531616 l 1.632378,-2.827595 c 0.23492,-0.406756 0.709823,-0.610012 1.166278,-0.499165 0.479936,0.116588 0.972106,0.176143 1.46599,0.178788 2.810083,-0.0029 5.275431,-1.841663 6.0784,-4.534901 0.133742,-0.448579 0.546263,-0.756029 1.014357,-0.755989 h 3.261657 c 0.669678,-6.3e-5 1.171081,0.614007 1.037094,1.270144 -0.531371,2.603184 -1.912904,4.854593 -3.817151,6.492307 a 3.1748437,3.1748437 0 0 1 1.844759,1.196768 c 2.66703,-2.509606 4.335431,-6.068563 4.335431,-10.0175 0,-3.949728 -1.66902,-7.509365 -4.33699,-10.01905 a 3.1748437,3.1748437 0 0 1 -1.835456,1.195733 c 1.905792,1.637876 3.288558,3.890168 3.820252,6.494892 0.133984,0.656139 -0.367417,1.270212 -1.037097,1.270144 h -3.275089 c -0.468094,3.9e-5 -0.880617,-0.307407 -1.01436,-0.755989 -0.80273,-2.692445 -3.267073,-4.531065 -6.076331,-4.534902 -0.493561,0.0027 -0.985331,0.06228 -1.464955,0.178792 -0.456455,0.110849 -0.931362,-0.09241 -1.166281,-0.499168 l -1.63496,-2.831214 c -0.334129,-0.579039 -0.05437,-1.318981 0.579263,-1.53213 1.186511,-0.399382 2.42933,-0.604762 3.681247,-0.608202 0.0011,-2e-6 0.0021,-2e-6 0.0031,0 1.34013,8e-5 2.635337,0.231481 3.845572,0.656259 a 3.1748437,3.1748437 0 0 1 0.121432,-2.189423 c -1.256497,-0.378168 -2.587672,-0.583398 -3.966999,-0.583398 z m 0,9.524531 a 4.233125,4.233125 0 0 1 4.233125,4.233125 4.233125,4.233125 0 0 1 -4.233125,4.233128 4.233125,4.233125 0 0 1 -4.233125,-4.233128 4.233125,4.233125 0 0 1 4.233125,-4.233125 z"
     id="path4451"
     clip-path="none" />
  <path
     inkscape:connector-curvature="0"
     style="display:inline;fill:#b3b3b3;fill-opacity:1;stroke:none;stroke-width:0.793711;stroke-linecap:round;stroke-linejoin:round;stroke-miterlimit:4;stroke-dasharray:none;stroke-dashoffset:0;stroke-opacity:1;enable-background:new"
     d="m 41.132762,20.283375 a 1.5874219,1.5874219 0 0 0 -1.299599,0.79216 1.5874219,1.5874219 0 0 0 0.580814,2.168236 1.5874219,1.5874219 0 0 0 2.168236,-0.580814 1.5874219,1.5874219 0 0 0 -0.580814,-2.168754 1.5874219,1.5874219 0 0 0 -0.868637,-0.210828 z M 20.571204,32.196272 a 1.5874219,1.5874219 0 0 0 -1.587422,1.587422 1.5874219,1.5874219 0 0 0 1.587422,1.587422 1.5874219,1.5874219 0 0 0 1.587422,-1.587422 1.5874219,1.5874219 0 0 0 -1.587422,-1.587422 z m 20.59928,11.914966 a 1.5874219,1.5874219 0 0 0 -0.756507,0.212379 1.5874219,1.5874219 0 0 0 -0.580814,2.168238 1.5874219,1.5874219 0 0 0 2.168236,0.580817 1.5874219,1.5874219 0 0 0 0.580814,-2.168239 1.5874219,1.5874219 0 0 0 -1.411729,-0.793195 z"
     id="circle1245"
     clip-path="none" />
  <path
     inkscape:connector-curvature="0"
     style="display:inline;opacity:0.2;fill:#000000;fill-opacity:1;stroke:none;stroke-width:0.26457;stroke-linecap:round;stroke-linejoin:round;stroke-miterlimit:4;stroke-dasharray:none;stroke-opacity:1;enable-background:new"
     d="M 34.32886,63.415569 A 29.631875,29.631875 0 0 1 4.6969847,33.783694 a 29.631875,29.631875 0 0 1 0.01085,-0.309526 29.631875,29.631875 0 0 0 29.6210223,29.41226 29.631875,29.631875 0 0 0 29.621028,-29.322349 29.631875,29.631875 0 0 1 0.0108,0.219615 29.631875,29.631875 0 0 1 -29.631873,29.631875 z"
     id="path11042-1-7" />
  <path
     style="display:inline;opacity:0.3;fill:#ffffff;fill-opacity:1;stroke:none;stroke-width:0.26457;stroke-linecap:round;stroke-linejoin:round;stroke-miterlimit:4;stroke-dasharray:none;stroke-opacity:1;enable-background:new"
     d="M 34.32886,4.1518204 A 29.631875,29.631875 0 0 0 4.6969847,33.783694 29.631875,29.631875 0 0 0 4.7078377,34.09322 29.631875,29.631875 0 0 1 34.32886,4.680961 29.631875,29.631875 0 0 1 63.949885,34.003308 29.631875,29.631875 0 0 0 63.960725,33.783694 29.631875,29.631875 0 0 0 34.328855,4.1518204 Z"
     id="path11042-1"
     inkscape:connector-curvature="0" />
</svg>
