<?xml version="1.0" encoding="UTF-8" standalone="no"?>
<svg
   width="256"
   height="256"
   viewBox="0 0 67.73 67.73"
   version="1.1"
   id="svg144"
   sodipodi:docname="inkscape.svg"
   inkscape:version="1.1.2 (0a00cf5339, 2022-02-04)"
   xmlns:inkscape="http://www.inkscape.org/namespaces/inkscape"
   xmlns:sodipodi="http://sodipodi.sourceforge.net/DTD/sodipodi-0.dtd"
   xmlns:xlink="http://www.w3.org/1999/xlink"
   xmlns="http://www.w3.org/2000/svg"
   xmlns:svg="http://www.w3.org/2000/svg">
  <sodipodi:namedview
     id="namedview146"
     pagecolor="#717171"
     bordercolor="#666666"
     borderopacity="1.0"
     inkscape:pageshadow="2"
     inkscape:pageopacity="0"
     inkscape:pagecheckerboard="0"
     showgrid="false"
     inkscape:zoom="1.7539563"
     inkscape:cx="0.28506981"
     inkscape:cy="145.3856"
     inkscape:window-width="1920"
     inkscape:window-height="1002"
     inkscape:window-x="0"
     inkscape:window-y="0"
     inkscape:window-maximized="1"
     inkscape:current-layer="svg144" />
  <defs
     id="defs74">
    <linearGradient
       inkscape:collect="always"
       id="linearGradient971">
      <stop
         style="stop-color:#46515c;stop-opacity:1"
         offset="0"
         id="stop967" />
      <stop
         style="stop-color:#505b66;stop-opacity:0.99672544"
         offset="1"
         id="stop969" />
    </linearGradient>
    <linearGradient
       id="F"
       x1="196"
       x2="132"
       y1="160"
       y2="160"
       gradientTransform="matrix(.26458 0 0 .26458 -6.993 221.973)"
       gradientUnits="userSpaceOnUse">
      <stop
         offset="0"
         stop-color="#FE4F44"
         stop-opacity="0"
         id="stop2" />
      <stop
         offset="1"
         stop-color="#FE4F44"
         id="stop4" />
    </linearGradient>
    <filter
       id="E"
       x="-0.013723349"
       y="-0.010663716"
       width="1.0274467"
       height="1.0213274"
       color-interpolation-filters="sRGB">
      <feGaussianBlur
         stdDeviation=".658"
         id="feGaussianBlur7" />
    </filter>
    <linearGradient
       id="D"
       x1="160"
       x2="160"
       y1="76"
       y2="236"
       gradientTransform="translate(-26.432 -40.432)"
       gradientUnits="userSpaceOnUse">
      <stop
         offset="0"
         stop-opacity="0"
         id="stop10" />
      <stop
         offset=".519"
         id="stop12" />
      <stop
         offset="1"
         stop-opacity="0"
         id="stop14" />
    </linearGradient>
    <linearGradient
       id="C"
       x1="296"
       x2="296"
       y1="-212"
       y2="236"
       gradientUnits="userSpaceOnUse">
      <stop
         offset="0"
         stop-color="#FFFEFE"
         id="stop17" />
      <stop
         offset=".125"
         stop-color="#FFFEFE"
         stop-opacity=".098"
         id="stop19" />
      <stop
         offset=".925"
         stop-opacity=".098"
         id="stop21" />
      <stop
         offset="1"
         stop-opacity=".498"
         id="stop23" />
    </linearGradient>
    <clipPath
       id="B">
      <path
         d="M361.938-212C507.235-212 528-191.287 528-46.125v116.25C528 215.286 507.235 236 361.937 236H214.063C68.766 236 48 215.286 48 70.125v-116.25C48-191.287 68.765-212 214.063-212z"
         fill="#9F4AC8"
         id="path26" />
    </clipPath>
    <linearGradient
       id="q"
       x1="256"
       x2="256"
       y1="232"
       y2="400"
       gradientUnits="userSpaceOnUse"
       xlink:href="#a" />
    <linearGradient
       id="a">
      <stop
         offset="0"
         stop-color="#F4C200"
         id="stop30" />
      <stop
         offset="1"
         stop-color="#F4C200"
         stop-opacity="0"
         id="stop32" />
    </linearGradient>
    <linearGradient
       id="r"
       x1="256"
       x2="256"
       y1="232"
       y2="472"
       gradientTransform="translate(-40)"
       gradientUnits="userSpaceOnUse"
       xlink:href="#a" />
    <linearGradient
       id="s"
       x1="256"
       x2="256"
       y1="200"
       y2="400"
       gradientTransform="translate(-80)"
       gradientUnits="userSpaceOnUse"
       xlink:href="#a" />
    <linearGradient
       id="t"
       x1="256"
       x2="256"
       y1="152"
       y2="368"
       gradientTransform="translate(-120)"
       gradientUnits="userSpaceOnUse"
       xlink:href="#a" />
    <linearGradient
       id="u"
       x1="256"
       x2="256"
       y1="112"
       y2="408"
       gradientTransform="translate(-160)"
       gradientUnits="userSpaceOnUse"
       xlink:href="#a" />
    <linearGradient
       id="v"
       x1="256"
       x2="256"
       y1="160"
       y2="312"
       gradientTransform="translate(-200)"
       gradientUnits="userSpaceOnUse"
       xlink:href="#a" />
    <linearGradient
       id="w"
       x1="256"
       x2="256"
       y1="160"
       y2="544"
       gradientTransform="translate(40)"
       gradientUnits="userSpaceOnUse"
       xlink:href="#a" />
    <linearGradient
       id="x"
       x1="256"
       x2="256"
       y1="208"
       y2="456"
       gradientTransform="translate(80)"
       gradientUnits="userSpaceOnUse"
       xlink:href="#a" />
    <linearGradient
       id="y"
       x1="256"
       x2="256"
       y1="176"
       y2="368"
       gradientTransform="translate(120)"
       gradientUnits="userSpaceOnUse"
       xlink:href="#a" />
    <linearGradient
       id="z"
       x1="256"
       x2="256"
       y1="185.898"
       y2="376"
       gradientTransform="translate(160)"
       gradientUnits="userSpaceOnUse"
       xlink:href="#a" />
    <linearGradient
       id="A"
       x1="256"
       x2="256"
       y1="128"
       y2="352"
       gradientTransform="translate(200)"
       gradientUnits="userSpaceOnUse"
       xlink:href="#a" />
    <linearGradient
       id="f"
       x1="288"
       x2="288"
       y1="296"
       y2="72"
       gradientUnits="userSpaceOnUse"
       xlink:href="#b" />
    <linearGradient
       id="b">
      <stop
         offset="0"
         stop-color="#FE4F44"
         id="stop46" />
      <stop
         offset="1"
         stop-color="#FE4F44"
         stop-opacity="0"
         id="stop48" />
    </linearGradient>
    <linearGradient
       id="g"
       x1="216"
       x2="218"
       y1="326.102"
       y2="-32"
       gradientUnits="userSpaceOnUse"
       xlink:href="#b" />
    <linearGradient
       id="h"
       x1="177.6"
       x2="176"
       y1="264"
       y2="136"
       gradientUnits="userSpaceOnUse"
       xlink:href="#b" />
    <linearGradient
       id="i"
       x1="136"
       x2="136"
       y1="312"
       y2="80"
       gradientUnits="userSpaceOnUse"
       xlink:href="#b" />
    <linearGradient
       id="j"
       x1="96.8"
       x2="96.8"
       y1="352"
       y2="162.4"
       gradientUnits="userSpaceOnUse"
       xlink:href="#b" />
    <linearGradient
       id="k"
       x1="56"
       x2="56"
       y1="360"
       y2="184"
       gradientUnits="userSpaceOnUse"
       xlink:href="#b" />
    <linearGradient
       id="l"
       x1="296"
       x2="296"
       y1="280"
       y2="72"
       gradientUnits="userSpaceOnUse"
       xlink:href="#b" />
    <linearGradient
       id="m"
       x1="336"
       x2="336"
       y1="288"
       y2="152"
       gradientUnits="userSpaceOnUse"
       xlink:href="#b" />
    <linearGradient
       id="n"
       x1="376"
       x2="376"
       y1="304"
       y2="96"
       gradientUnits="userSpaceOnUse"
       xlink:href="#b" />
    <linearGradient
       id="o"
       x1="416"
       x2="416"
       y1="336"
       y2="128"
       gradientUnits="userSpaceOnUse"
       xlink:href="#b" />
    <linearGradient
       id="p"
       x1="456"
       x2="456"
       y1="368"
       y2="192"
       gradientUnits="userSpaceOnUse"
       xlink:href="#b" />
    <linearGradient
       id="e"
       x1="24"
       x2="280"
       y1="28"
       y2="284"
       gradientTransform="matrix(.26458 0 0 .26458 -6.993 221.973)"
       gradientUnits="userSpaceOnUse">
      <stop
         offset="0"
         stop-color="#FE4068"
         id="stop61" />
      <stop
         offset=".483"
         stop-color="#F4234A"
         id="stop63" />
      <stop
         offset="1"
         stop-color="#FE4F44"
         id="stop65" />
    </linearGradient>
    <filter
       id="d"
       x="-0.023199999"
       y="-0.024857142"
       width="1.0464"
       height="1.0497143"
       color-interpolation-filters="sRGB">
      <feGaussianBlur
         stdDeviation="2.32"
         id="feGaussianBlur68" />
    </filter>
    <filter
       id="c"
       x="-0.0116"
       y="-0.012428571"
       width="1.0232"
       height="1.0248571"
       color-interpolation-filters="sRGB">
      <feGaussianBlur
         stdDeviation="1.16"
         id="feGaussianBlur71" />
    </filter>
    <filter
       inkscape:collect="always"
       style="color-interpolation-filters:sRGB"
       id="filter58492"
       x="-0.011999856"
       width="1.0239997"
       y="-0.012000144"
       height="1.0240003">
      <feGaussianBlur
         inkscape:collect="always"
         stdDeviation="1.1200135"
         id="feGaussianBlur58494" />
    </filter>
    <filter
       inkscape:collect="always"
       style="color-interpolation-filters:sRGB"
       id="filter58449"
       x="-0.047999425"
       width="1.0959989"
       y="-0.048000575"
       height="1.0960012">
      <feGaussianBlur
         inkscape:collect="always"
         stdDeviation="4.4800539"
         id="feGaussianBlur58451" />
    </filter>
    <linearGradient
       inkscape:collect="always"
       xlink:href="#linearGradient4290"
       id="linearGradient1694"
       x1="39.997601"
       y1="267.99701"
       x2="263.99759"
       y2="43.997002"
       gradientUnits="userSpaceOnUse"
       gradientTransform="matrix(0,0.26457031,-0.26457031,0,75.027692,-6.5830107)" />
    <linearGradient
       inkscape:collect="always"
       id="linearGradient4290">
      <stop
         style="stop-color:#666789;stop-opacity:1"
         offset="0"
         id="stop4292" />
      <stop
         style="stop-color:#1b1f2d;stop-opacity:1"
         offset="1"
         id="stop4294" />
    </linearGradient>
    <linearGradient
       gradientTransform="translate(3.38e-4)"
       inkscape:collect="always"
       xlink:href="#linearGradient4338"
       id="linearGradient1272"
       x1="196"
       y1="160"
       x2="132"
       y2="160"
       gradientUnits="userSpaceOnUse" />
    <linearGradient
       inkscape:collect="always"
       id="linearGradient4338">
      <stop
         style="stop-color:#ef5145;stop-opacity:0"
         offset="0"
         id="stop4340" />
      <stop
         id="stop4346"
         offset="1"
         style="stop-color:#ef5145;stop-opacity:1" />
    </linearGradient>
    <linearGradient
       id="a-3"
       gradientTransform="matrix(0.07067868,0.07067868,-0.07067868,0.07067868,8.3399263,30.476438)"
       gradientUnits="userSpaceOnUse"
       x1="344.71454"
       x2="52.856232"
       y1="-14.495687"
       y2="-306.354">
      <stop
         offset="0"
         stop-color="#424242"
         id="stop2-6"
         style="stop-color:#293254;stop-opacity:1" />
      <stop
         offset="1"
         stop-color="#616161"
         id="stop4-7"
         style="stop-color:#484848;stop-opacity:1" />
    </linearGradient>
    <linearGradient
       id="b-5"
       gradientUnits="userSpaceOnUse"
       x1="31.753056"
       x2="31.753056"
       y1="52.098766"
       y2="5.7922249"
       gradientTransform="matrix(0.84269301,0,0,0.84269301,6.9703846,8.7406663)">
      <stop
         offset="0"
         stop-color="#bdbdbd"
         id="stop7" />
      <stop
         offset="1"
         stop-color="#e0e0e0"
         id="stop9" />
    </linearGradient>
    <linearGradient
       id="c-3"
       gradientTransform="matrix(0.07182726,0,0,0.10534673,15.4843,31.390208)"
       gradientUnits="userSpaceOnUse"
       x1="254"
       x2="254"
       y1="233.5"
       y2="254.66667">
      <stop
         offset="0"
         stop-opacity=".27451"
         id="stop12-5" />
      <stop
         offset="1"
         stop-opacity="0"
         id="stop14-6" />
    </linearGradient>
    <radialGradient
       id="e-2"
       cx="450.90894"
       cy="189.57936"
       gradientTransform="matrix(2.0224632e-7,-0.13168343,-0.16161166,-1.685386e-7,65.126729,115.92335)"
       gradientUnits="userSpaceOnUse"
       r="21.166656"
       xlink:href="#d-9" />
    <linearGradient
       id="d-9">
      <stop
         offset="0"
         stop-opacity=".313726"
         id="stop17-1" />
      <stop
         offset=".222222"
         stop-opacity=".27451"
         id="stop19-2" />
      <stop
         offset="1"
         stop-opacity="0"
         id="stop21-7" />
    </linearGradient>
    <radialGradient
       id="f-0"
       cx="450.90894"
       cy="189.57936"
       gradientTransform="matrix(-2.0224632e-7,0.13168343,0.16161166,1.685386e-7,2.3301605,-3.9460413)"
       gradientUnits="userSpaceOnUse"
       r="21.166656"
       xlink:href="#d-9" />
    <radialGradient
       id="g-9"
       cx="450.90894"
       cy="189.57936"
       gradientTransform="matrix(-2.0224632e-7,-0.13168343,0.16161166,-1.685386e-7,2.3301605,115.92335)"
       gradientUnits="userSpaceOnUse"
       r="21.166656"
       xlink:href="#d-9" />
    <radialGradient
       id="h-3"
       cx="450.90894"
       cy="189.57936"
       gradientTransform="matrix(2.0224632e-7,0.13168343,-0.16161166,1.685386e-7,65.126727,-3.9460436)"
       gradientUnits="userSpaceOnUse"
       r="21.166656"
       xlink:href="#d-9" />
    <linearGradient
       inkscape:collect="always"
       xlink:href="#linearGradient971"
       id="linearGradient973"
       x1="33.847027"
       y1="39.845139"
       x2="33.847027"
       y2="21.855114"
       gradientUnits="userSpaceOnUse" />
  </defs>
  <path
     style="color:#000000;display:inline;overflow:visible;visibility:visible;opacity:0.1;fill:#000000;fill-opacity:1;fill-rule:nonzero;stroke:none;stroke-width:1;marker:none;filter:url(#filter58492);enable-background:accumulate"
     d="m 225.07297,44.99999 c 35.29673,0 39.09461,3.62542 38.92162,38.99353 v 73.00647 73.00648 C 264.16758,265.37459 260.3697,269 225.07297,269 H 78.916218 c -35.29671,0 -38.92161,-3.625 -38.92161,-38.99353 V 156.99999 83.99352 c 0,-35.36853 3.6249,-38.99353 38.92161,-38.99353 z"
     id="rect4158-7"
     inkscape:connector-curvature="0"
     sodipodi:nodetypes="scccssscsss"
     transform="matrix(0.26457031,0,0,0.26457031,-6.4591693,-7.6419269)" />
  <path
     style="color:#000000;display:inline;overflow:visible;visibility:visible;opacity:0.2;fill:#000000;fill-opacity:1;fill-rule:nonzero;stroke:none;stroke-width:1;marker:none;filter:url(#filter58449);enable-background:accumulate"
     d="m 225.07297,44.99999 c 35.29673,0 39.09461,3.62542 38.92162,38.99353 v 73.00647 73.00648 C 264.16758,265.37459 260.3697,269 225.07297,269 H 78.916218 c -35.29671,0 -38.92161,-3.625 -38.92161,-38.99353 V 156.99999 83.99352 c 0,-35.36853 3.6249,-38.99353 38.92161,-38.99353 z"
     id="rect4158-1"
     inkscape:connector-curvature="0"
     sodipodi:nodetypes="scccssscsss"
     transform="matrix(0.26457031,0,0,0.26457031,-6.4591693,-7.6419269)" />
  <path
     style="color:#000000;display:inline;overflow:visible;visibility:visible;fill:url(#linearGradient1694);fill-opacity:1;fill-rule:nonzero;stroke:none;stroke-width:0.26457;marker:none;enable-background:accumulate"
     d="m 53.088456,3.9990858 c 9.338466,0 10.343273,0.9591785 10.297505,10.3165302 v 19.315343 19.315347 c 0.04577,9.357355 -0.959039,10.31653 -10.297505,10.31653 H 14.419718 c -9.3384604,0 -10.2975014,-0.959067 -10.2975014,-10.31653 V 33.630959 14.315616 c 0,-9.3574628 0.959041,-10.3165302 10.2975014,-10.3165302 z"
     id="rect4158"
     inkscape:connector-curvature="0"
     sodipodi:nodetypes="scccssscsss" />
  <path
     style="color:#000000;display:inline;overflow:visible;visibility:visible;opacity:0.3;fill:#ffffff;fill-opacity:1;fill-rule:nonzero;stroke:none;stroke-width:0.26457;marker:none;enable-background:accumulate"
     d="m 14.421216,3.9990868 c -9.3384654,0 -10.3433414,0.9593399 -10.2975734,10.3166912 v 0.529141 C 4.0778746,5.4875673 5.0827506,4.5282275 14.421216,4.5282275 h 38.668602 c 9.338467,0 10.297574,0.9592287 10.297574,10.3166915 v -0.529141 c 0,-9.3574624 -0.959107,-10.3166912 -10.297574,-10.3166912 z"
     id="path931"
     inkscape:connector-curvature="0"
     sodipodi:nodetypes="sccsscsss" />
  <path
     style="color:#000000;display:inline;overflow:visible;visibility:visible;opacity:0.2;fill:#000000;fill-opacity:1;fill-rule:nonzero;stroke:none;stroke-width:0.26457;marker:none;enable-background:accumulate"
     d="m 14.422645,63.262836 c -9.3384664,0 -10.3433424,-0.959339 -10.2975744,-10.316691 v -0.529141 c -0.04577,9.357352 0.959108,10.316692 10.2975744,10.316692 h 38.668602 c 9.338467,0 10.297574,-0.959229 10.297574,-10.316692 v 0.529141 c 0,9.357463 -0.959107,10.316691 -10.297574,10.316691 z"
     id="path931-8"
     inkscape:connector-curvature="0"
     sodipodi:nodetypes="sccsscsss" />
  <path
     style="color:#000000;display:inline;overflow:visible;visibility:visible;fill:#ffffff;fill-opacity:0.04686171;fill-rule:nonzero;stroke:none;stroke-width:0.26457;marker:none;enable-background:accumulate"
     d="M 33.754087,63.262836 H 14.419718 c -9.3384604,0 -10.2975014,-0.959067 -10.2975014,-10.31653 V 33.630959 14.315616 c 0,-9.3574628 0.959041,-10.3165302 10.2975014,-10.3165302 h 19.334369 z"
     id="path1392"
     inkscape:connector-curvature="0"
     sodipodi:nodetypes="csscsscc" />
  <path
     d="m 35.210477,14.152335 18.137648,18.140943 c 0.819652,0.81636 0.819652,2.142943 0,2.9593 L 35.210477,53.393521 c -0.819652,0.816357 -2.146235,0.816357 -2.962595,0 L 14.106942,35.252578 c -0.81636,-0.816357 -0.81636,-2.14294 0,-2.9593 l 18.14094,-18.140943 c 0.81636,-0.816357 2.142943,-0.816357 2.962595,0 z m 0,0"
     id="path28"
     style="fill:url(#linearGradient973);fill-opacity:1" />
  <path
     d="m 49.088577,28.030435 c -0.171161,0.164592 -0.348928,0.306134 -0.526685,0.424638 l 4.786233,4.786233 c 0.289678,0.289678 0.474016,0.638603 0.559601,1.007282 0.161296,-0.681394 -0.02632,-1.425336 -0.559601,-1.95531 z m -31.301437,0.582644 -3.680198,3.680199 c -0.529975,0.529974 -0.717607,1.273916 -0.559601,1.95531 0.08559,-0.368679 0.273215,-0.717604 0.559601,-1.007282 l 4.052167,-4.052167 c -0.128377,-0.184348 -0.250173,-0.375262 -0.371969,-0.57606 z m 0,0"
     fill="#ebebeb"
     fill-opacity="0.392157"
     id="path30"
     style="stroke-width:0.842692" />
  <path
     d="m 33.729179,13.536775 c -0.536558,0 -1.069824,0.20408 -1.481297,0.61556 L 17.78714,28.613079 c 3.008676,5.059451 8.923986,4.868527 11.297353,2.709127 4.085086,-5.438003 5.279997,0.2798 6.892966,-4.239799 1.971769,-5.54334 8.970071,4.947528 13.111118,0.948028 l -13.8781,-13.8781 c -0.411471,-0.411471 -0.948031,-0.61556 -1.481298,-0.61556 z m 0,0"
     fill-rule="evenodd"
     id="path32"
     style="fill:#eeeef8;fill-opacity:1" />
  <path
     d="m 33.729179,13.536775 c -0.536558,0 -1.069824,0.20408 -1.481297,0.61556 L 17.78714,28.613079 c 0.121784,0.200807 0.243589,0.39172 0.371969,0.57606 L 32.247882,15.103658 c 0.819652,-0.822944 2.139651,-0.822944 2.962595,0 l 13.351415,13.351415 c 0.177755,-0.118511 0.355512,-0.260048 0.526685,-0.424638 l -13.8781,-13.8781 c -0.411471,-0.411471 -0.948031,-0.61556 -1.481298,-0.61556 z m 0,0"
     fill="#ebebeb"
     id="path44"
     style="stroke-width:0.842692" />
  <g
     fill="#ef5350"
     id="g58"
     transform="matrix(0.84269301,0,0,0.84269301,6.9703846,8.7406663)">
    <path
       d="m 31.753906,48.128906 c 2.191406,0 3.96875,1.777344 3.96875,3.96875 0,2.191406 -1.777344,3.96875 -3.96875,3.96875 -2.191406,0 -3.96875,-1.777344 -3.96875,-3.96875 0,-2.191406 1.777344,-3.96875 3.96875,-3.96875 z m 0,0"
       id="path48" />
    <path
       d="m 7.9375,26.960938 c 1.460938,0 2.648438,1.183593 2.648438,2.644531 0,1.464843 -1.1875,2.648437 -2.648438,2.648437 -1.460938,0 -2.644531,-1.183594 -2.644531,-2.648437 0,-1.460938 1.183593,-2.644531 2.644531,-2.644531 z m 0,0"
       id="path50" />
    <path
       d="m 7.664062,30.929688 0.9375,-0.933594 24.320313,24.320312 -0.933594,0.9375 z m 0,0"
       id="path52" />
    <path
       d="m 55.84375,30.929688 -0.9375,-0.933594 -24.324219,24.320312 0.9375,0.9375 z m 0,0"
       id="path54" />
    <path
       d="m 55.566406,26.960938 c 1.460938,0 2.648438,1.183593 2.648438,2.644531 0,1.464843 -1.1875,2.648437 -2.648438,2.648437 -1.460937,0 -2.644531,-1.183594 -2.644531,-2.648437 0,-1.460938 1.183594,-2.644531 2.644531,-2.644531 z m 0,0"
       id="path56" />
  </g>
  <path
     d="m 15.877914,33.455271 c -0.04938,0.470724 -0.2403,0.89207 -0.529977,1.22783 l 0.19751,0.197511 c 0.217267,-0.342342 0.345636,-0.750523 0.345636,-1.19162 0,-0.079 -0.0067,-0.154702 -0.01314,-0.233726 z m 35.702531,0 c -0.0098,0.079 -0.01314,0.154726 -0.01314,0.233726 0,0.441097 0.12508,0.849278 0.342341,1.19162 l 0.197511,-0.197511 c -0.289706,-0.335765 -0.480628,-0.757111 -0.526714,-1.227835 z m -40.139837,0.0033 c -0.0067,0.0757 -0.0098,0.154726 -0.0098,0.230428 0,1.237706 0.994114,2.23182 2.228528,2.23182 0.266632,0 0.520099,-0.04608 0.753815,-0.131673 l 15.994708,15.994713 c 0.01648,-0.13497 0.03949,-0.266632 0.06913,-0.395011 L 14.413164,35.325058 c -0.233725,0.08559 -0.487183,0.131674 -0.753817,0.131674 -1.15541,0 -2.103441,-0.872319 -2.21865,-1.998104 z m 44.573851,0 c -0.115215,1.125785 -1.059949,1.998104 -2.218653,1.998104 -0.26334,0 -0.516807,-0.04608 -0.753815,-0.131674 L 36.978157,51.388883 c 0.03292,0.128377 0.05597,0.260051 0.07243,0.395012 L 53.042001,35.789191 c 0.236998,0.08559 0.490475,0.131673 0.753815,0.131673 1.237705,0 2.23182,-0.994114 2.23182,-2.23182 0,-0.0757 -0.0033,-0.154702 -0.01314,-0.230428 z m -18.950717,18.95406 c -0.118511,1.744638 -1.560299,3.110723 -3.334563,3.110723 -1.774263,0 -3.21935,-1.366085 -3.337854,-3.110723 -0.0033,0.0757 -0.0067,0.154702 -0.0067,0.230429 0,1.853268 1.49117,3.344438 3.344436,3.344438 1.853268,0 3.344438,-1.49117 3.344438,-3.344438 0,-0.0757 -0.0033,-0.154702 -0.0098,-0.230429 z m 0,0"
     fill-opacity="0.235294"
     id="path60"
     style="stroke-width:0.842692" />
  <path
     d="m 14.989136,31.411084 -0.302842,0.302842 c 0.648478,0.332469 1.106034,0.974363 1.188328,1.734762 0.0098,-0.0823 0.01648,-0.161296 0.01648,-0.243589 0,-0.737358 -0.355512,-1.389128 -0.901945,-1.794015 z m 37.480087,0 c -0.549725,0.404887 -0.901945,1.056657 -0.901945,1.794015 0,0.0823 0.0033,0.161295 0.01314,0.243589 0.0823,-0.760399 0.543141,-1.402293 1.188328,-1.734762 z M 15.55532,34.870732 c -0.06254,0.09876 -0.131673,0.194213 -0.207376,0.283093 l 15.612865,15.609573 c 0.602394,-0.882197 1.612966,-1.461549 2.768378,-1.461549 1.15212,0 2.165985,0.579352 2.768378,1.461549 l 15.60957,-15.609573 c -0.0757,-0.08889 -0.144836,-0.184348 -0.207376,-0.283093 l -15.40219,15.405483 c -0.602392,-0.885486 -1.616257,-1.461546 -2.768378,-1.461546 -1.155412,0 -2.165983,0.57606 -2.768378,1.461546 z m 0,0"
     fill-opacity="0.235294"
     id="path62"
     style="stroke-width:0.842692" />
  <path
     d="m 13.659261,31.460461 c -1.234414,0 -2.228528,0.994112 -2.228528,2.228526 0,0.08559 0.0033,0.164592 0.01314,0.246883 0.121784,-1.119201 1.063241,-1.984936 2.215361,-1.984936 1.152121,0 2.093565,0.865735 2.215361,1.981645 0.0098,-0.079 0.01648,-0.161296 0.01648,-0.243592 0,-1.234414 -0.997406,-2.228526 -2.23182,-2.228526 z m 40.136545,0 c -1.234414,0 -2.228528,0.994112 -2.228528,2.228526 0,0.0823 0.0033,0.164592 0.01314,0.243592 0.121783,-1.11591 1.06324,-1.981645 2.21536,-1.981645 1.152121,0 2.096857,0.865735 2.218653,1.984936 0.0067,-0.0823 0.01314,-0.161295 0.01314,-0.246883 0,-1.234414 -0.994114,-2.228526 -2.23182,-2.228526 z M 15.55532,35.354623 c -0.06254,0.102051 -0.131673,0.194213 -0.207376,0.283093 l 15.612865,15.612862 c 0.602394,-0.882194 1.612966,-1.461546 2.768378,-1.461546 1.15212,0 2.165985,0.579352 2.768378,1.461546 l 15.60957,-15.612862 c -0.0757,-0.08889 -0.144836,-0.181051 -0.207376,-0.283093 L 36.497569,50.760104 C 35.895165,49.877909 34.8813,49.29856 33.729179,49.29856 c -1.155412,0 -2.165983,0.579349 -2.768378,1.461544 z m 21.498547,16.916404 -0.0757,0.07243 c 0.04278,0.177755 0.07243,0.358804 0.08559,0.546434 0.0067,-0.079 0.0098,-0.161296 0.0098,-0.246883 0,-0.125081 -0.0067,-0.250175 -0.01983,-0.371969 z m -6.649375,0 c -0.01314,0.121784 -0.01983,0.246884 -0.01983,0.371969 0,0.08559 0.0033,0.167888 0.0067,0.246883 0.01314,-0.187621 0.04278,-0.368677 0.08559,-0.546434 z m 0,0"
     fill="#ffffff"
     fill-opacity="0.392157"
     id="path64"
     style="stroke-width:0.842692" />
  <path
     d="m 13.659266,31.46048 c -1.234414,0 -2.228528,0.994117 -2.228528,2.228531 0,1.237706 0.994114,2.231822 2.228528,2.231822 0.266634,0 0.520101,-0.04608 0.753817,-0.131673 l 16.063849,16.063849 c -0.05924,0.253469 -0.09216,0.516809 -0.09216,0.790027 0,1.853268 1.491173,3.344438 3.344441,3.344438 1.853267,0 3.34444,-1.49117 3.34444,-3.344438 0,-0.273218 -0.03292,-0.536558 -0.09546,-0.790027 L 53.042042,35.78916 c 0.236998,0.08559 0.490474,0.131673 0.753817,0.131673 1.237705,0 2.231822,-0.994116 2.231822,-2.231822 0,-1.234414 -0.994117,-2.228531 -2.231822,-2.228531 -1.234414,0 -2.228531,0.994117 -2.228531,2.228531 0,0.559601 0.20408,1.069827 0.53985,1.458254 L 36.497591,50.760144 c -0.602392,-0.882194 -1.61626,-1.461548 -2.76838,-1.461548 -1.155413,0 -2.165986,0.579354 -2.768381,1.461548 L 15.347954,35.147265 c 0.339052,-0.388427 0.543141,-0.898653 0.543141,-1.458254 0,-1.234414 -0.997406,-2.228531 -2.231822,-2.228531 z m 0,0"
     fill="none"
     stroke="#212121"
     stroke-linecap="round"
     stroke-linejoin="round"
     stroke-width="0.316041"
     id="path66"
     style="stroke:#ad3c3a;stroke-opacity:1" />
  <path
     d="m 33.739055,13.536775 h -0.0033 c 0.533266,0.0033 1.063243,0.207376 1.474713,0.61556 l 13.874809,13.8781 c -4.13776,3.996209 -11.136062,-6.491368 -13.111123,-0.95132 -1.609677,4.522891 -2.804589,-1.194912 -6.889674,4.243091 -2.373367,2.1594 -8.285386,2.34703 -11.294061,-2.712419 l 14.45745,-14.457452 c 0.256759,-0.256757 0.559601,-0.431222 0.882194,-0.526683 -0.339052,0.09876 -0.661645,0.283091 -0.928277,0.549726 L 17.174813,29.202307 c 3.127181,5.256954 9.272913,5.059448 11.741741,2.814461 4.243092,-5.648676 5.484089,0.292969 7.1596,-4.404387 2.050771,-5.760596 9.322292,5.138453 13.624634,0.984239 L 35.279603,14.175378 c -0.42793,-0.424638 -0.984239,-0.638603 -1.540548,-0.638603 z m 0,0"
     fill-opacity="0.235294"
     fill-rule="evenodd"
     id="path68"
     style="stroke-width:0.842692" />
</svg>
