<?xml version="1.0" encoding="UTF-8" standalone="no"?>
<svg
   width="256"
   height="256"
   viewBox="0 0 67.73 67.73"
   version="1.1"
   id="svg37"
   sodipodi:docname="librewolf.svg"
   inkscape:version="1.1.2 (0a00cf5339, 2022-02-04)"
   xmlns:inkscape="http://www.inkscape.org/namespaces/inkscape"
   xmlns:sodipodi="http://sodipodi.sourceforge.net/DTD/sodipodi-0.dtd"
   xmlns:xlink="http://www.w3.org/1999/xlink"
   xmlns="http://www.w3.org/2000/svg"
   xmlns:svg="http://www.w3.org/2000/svg">
  <sodipodi:namedview
     id="namedview39"
     pagecolor="#ffffff"
     bordercolor="#666666"
     borderopacity="1.0"
     inkscape:pageshadow="2"
     inkscape:pageopacity="0.0"
     inkscape:pagecheckerboard="0"
     showgrid="false"
     inkscape:zoom="0.64160155"
     inkscape:cx="-518.23441"
     inkscape:cy="125.46728"
     inkscape:window-width="1920"
     inkscape:window-height="1022"
     inkscape:window-x="0"
     inkscape:window-y="24"
     inkscape:window-maximized="1"
     inkscape:current-layer="svg37" />
  <defs
     id="defs25">
    <linearGradient
       id="e"
       x1="296"
       x2="296"
       y1="-212"
       y2="236"
       gradientUnits="userSpaceOnUse">
      <stop
         offset="0"
         stop-color="#FFFEFE"
         id="stop2" />
      <stop
         offset=".125"
         stop-color="#FFFEFE"
         stop-opacity=".098"
         id="stop4" />
      <stop
         offset=".925"
         stop-opacity=".098"
         id="stop6" />
      <stop
         offset="1"
         stop-opacity=".498"
         id="stop8" />
    </linearGradient>
    <clipPath
       id="d">
      <path
         d="M361.938-212C507.235-212 528-191.287 528-46.125v116.25C528 215.286 507.235 236 361.937 236H214.063C68.766 236 48 215.286 48 70.125v-116.25C48-191.287 68.765-212 214.063-212z"
         fill="#9F4AC8"
         id="path11" />
    </clipPath>
    <linearGradient
       id="c"
       x1="32"
       x2="272"
       y1="156"
       y2="156"
       gradientTransform="scale(.26458) rotate(60 -587.77 552.585)"
       gradientUnits="userSpaceOnUse">
      <stop
         offset="0"
         stop-color="#138EFE"
         id="stop14" />
      <stop
         offset="1"
         stop-color="#138EFE"
         id="stop16" />
    </linearGradient>
    <filter
       id="b"
       x="-0.0116"
       y="-0.012428571"
       width="1.0232"
       height="1.0248571"
       color-interpolation-filters="sRGB">
      <feGaussianBlur
         stdDeviation="1.16"
         id="feGaussianBlur19" />
    </filter>
    <filter
       id="a"
       x="-0.023199999"
       y="-0.024857142"
       width="1.0464"
       height="1.0497143"
       color-interpolation-filters="sRGB">
      <feGaussianBlur
         stdDeviation="2.32"
         id="feGaussianBlur22" />
    </filter>
    <filter
       inkscape:collect="always"
       style="color-interpolation-filters:sRGB"
       id="filter48967"
       x="-0.012"
       width="1.024"
       y="-0.012"
       height="1.024">
      <feGaussianBlur
         inkscape:collect="always"
         stdDeviation="1.12"
         id="feGaussianBlur48969" />
    </filter>
    <filter
       inkscape:collect="always"
       style="color-interpolation-filters:sRGB"
       id="filter48952"
       x="-0.048"
       width="1.096"
       y="-0.048"
       height="1.096">
      <feGaussianBlur
         inkscape:collect="always"
         stdDeviation="4.48"
         id="feGaussianBlur48954" />
    </filter>
    <linearGradient
       inkscape:collect="always"
       xlink:href="#linearGradient876"
       id="linearGradient11065"
       x1="104"
       y1="44"
       x2="200"
       y2="268"
       gradientUnits="userSpaceOnUse"
       gradientTransform="matrix(0.26457031,0,0,0.26457031,-6.4112158,-7.3566297)" />
    <linearGradient
       inkscape:collect="always"
       id="linearGradient876">
      <stop
         style="stop-color:#1a7fd4;stop-opacity:1;"
         offset="0"
         id="stop872" />
      <stop
         style="stop-color:#37a6e6;stop-opacity:1"
         offset="1"
         id="stop874" />
    </linearGradient>
  </defs>
  <circle
     style="display:inline;opacity:0.1;fill:#000000;fill-opacity:1;stroke:none;stroke-width:1;stroke-linecap:round;stroke-linejoin:round;stroke-miterlimit:4;stroke-dasharray:none;stroke-opacity:1;filter:url(#filter48967);enable-background:new"
     id="path11042-4"
     r="112"
     cy="157"
     cx="152"
     transform="matrix(0.26457031,0,0,0.26457031,-6.4112158,-7.3566297)" />
  <circle
     style="display:inline;opacity:0.2;fill:#000000;fill-opacity:1;stroke:none;stroke-width:1;stroke-linecap:round;stroke-linejoin:round;stroke-miterlimit:4;stroke-dasharray:none;stroke-opacity:1;filter:url(#filter48952);enable-background:new"
     id="path11042-9"
     r="112"
     cy="157"
     cx="152"
     transform="matrix(0.26457031,0,0,0.26457031,-6.4112158,-7.3566297)" />
  <circle
     style="display:inline;fill:url(#linearGradient11065);fill-opacity:1;stroke:none;stroke-width:0.26457;stroke-linecap:round;stroke-linejoin:round;stroke-miterlimit:4;stroke-dasharray:none;stroke-opacity:1;enable-background:new"
     id="path11042"
     r="29.631874"
     cy="33.916336"
     cx="33.803471" />
  <path
     inkscape:connector-curvature="0"
     style="display:inline;opacity:0.2;fill:#000000;fill-opacity:1;stroke:none;stroke-width:0.26457;stroke-linecap:round;stroke-linejoin:round;stroke-miterlimit:4;stroke-dasharray:none;stroke-opacity:1;enable-background:new"
     d="M 33.803471,63.548211 A 29.631875,29.631875 0 0 1 4.1715966,33.916336 29.631875,29.631875 0 0 1 4.1824493,33.60681 29.631875,29.631875 0 0 0 33.803471,63.01907 29.631875,29.631875 0 0 0 63.424493,33.696722 a 29.631875,29.631875 0 0 1 0.01085,0.219614 29.631875,29.631875 0 0 1 -29.631875,29.631875 z"
     id="path11042-1-7" />
  <path
     style="display:inline;opacity:0.3;fill:#ffffff;fill-opacity:1;stroke:none;stroke-width:0.26457;stroke-linecap:round;stroke-linejoin:round;stroke-miterlimit:4;stroke-dasharray:none;stroke-opacity:1;enable-background:new"
     d="M 33.803471,4.2844624 A 29.631875,29.631875 0 0 0 4.1715966,33.916336 29.631875,29.631875 0 0 0 4.1824493,34.225862 29.631875,29.631875 0 0 1 33.803471,4.813603 29.631875,29.631875 0 0 1 63.424493,34.135951 29.631875,29.631875 0 0 0 63.435341,33.916336 29.631875,29.631875 0 0 0 33.803466,4.2844624 Z"
     id="path11042-1"
     inkscape:connector-curvature="0" />
  <path
     style="fill:#ffffff;fill-opacity:0.45265067;stroke:none;stroke-width:0.216999px;stroke-linecap:butt;stroke-linejoin:miter;stroke-opacity:1"
     d="M 46.105364,39.436897 C 34.964181,43.726939 34.830942,32.739378 19.656497,34.430786 l 2.223542,-2.388761 c -5.417799,0.126338 -9.514703,0.987762 -11.32235,6.480463 -1.5269297,4.639719 3.249499,13.58964 13.899651,15.615744 L 35.923713,44.004295 Z"
     id="path4547"
     sodipodi:nodetypes="cccsc" />
  <path
     id="path867-3"
     style="fill:#f6f6f6;fill-opacity:1;stroke:none;stroke-width:0.216999px;stroke-linecap:butt;stroke-linejoin:miter;stroke-opacity:1"
     d="m 22.495679,12.283062 c -0.296486,0.0263 -0.464026,0.749001 -0.178432,1.394811 0,0 1.253843,4.314692 8.596903,9.120328 7.343061,4.805643 6.124126,7.92744 9.865415,10.410035 3.741292,2.482597 5.219746,3.439128 2.78242,5.646644 -6.335148,5.737837 -12.250347,-0.758131 -19.425248,0.806544 -2.465754,0.502107 -3.694603,1.645666 -4.745589,3.496994 -1.293084,2.323417 -2.164148,5.968737 2.120405,9.148299 6.938066,5.14873 8.780579,0.58038 11.506895,-1.931378 2.726314,-2.51176 10.252816,-7.501296 16.881445,-7.418664 6.62863,0.08264 7.809298,0.294164 9.634428,-2.428102 1.825133,-2.722265 0.144012,-3.203697 -1.669452,-3.911497 C 56.05141,35.909273 53.973283,35.162634 52.302565,34.209739 49.914092,32.847478 50.810845,31.115956 46.251593,28.647013 43.43141,27.119818 34.898789,18.595718 35.074008,18.481527 c -0.444053,1.955861 0.993246,3.303066 2.112352,4.753219 0,0 -6.411574,-2.933032 -9.275447,-4.954112 -4.015857,-2.834055 -5.087615,-5.763197 -5.087615,-5.763196 -0.11547,-0.174727 -0.228791,-0.243143 -0.327619,-0.234376 z m 9.174999,15.371773 c 0.141785,1.875665 2.496303,2.502771 2.741737,1.586808 0.154346,-0.57603 -1.547452,-1.488548 -2.741737,-1.586808 z" />
  <path
     style="display:inline;opacity:0.1;fill:#ffffff;fill-opacity:1;stroke:none;stroke-width:2.82209;stroke-linecap:round;stroke-linejoin:round;stroke-miterlimit:4;stroke-dasharray:none;stroke-opacity:1;enable-background:new"
     d="M 4.1715966,36.481589 A 29.773288,29.773274 0 0 0 33.797526,63.548213 29.773288,29.773274 0 0 0 63.435346,36.481589 Z"
     id="rect12119"
     inkscape:connector-curvature="0" />
  <path
     style="fill:#ffffff;fill-opacity:0.52590907;stroke:none;stroke-width:0.216999px;stroke-linecap:butt;stroke-linejoin:miter;stroke-opacity:1"
     d="m 20.885482,12.375315 c 0.159726,2.152292 1.056743,4.027793 1.829529,5.949933 0.169366,0.407191 -0.09092,0.678096 -0.670167,0.687864 -3.741761,0.09764 -4.261211,-3.923733 -1.159362,-6.637797 z"
     id="path5574"
     sodipodi:nodetypes="cccc" />
</svg>
