<?xml version="1.0" encoding="UTF-8" standalone="no"?>
<svg
   width="256"
   height="256"
   version="1.0"
   enable-background="new"
   id="svg226"
   sodipodi:docname="libreoffice-writer.svg"
   inkscape:version="1.1.2 (0a00cf5339, 2022-02-04)"
   xmlns:inkscape="http://www.inkscape.org/namespaces/inkscape"
   xmlns:sodipodi="http://sodipodi.sourceforge.net/DTD/sodipodi-0.dtd"
   xmlns:xlink="http://www.w3.org/1999/xlink"
   xmlns="http://www.w3.org/2000/svg"
   xmlns:svg="http://www.w3.org/2000/svg"
   xmlns:rdf="http://www.w3.org/1999/02/22-rdf-syntax-ns#"
   xmlns:cc="http://creativecommons.org/ns#"
   xmlns:dc="http://purl.org/dc/elements/1.1/">
  <metadata
     id="metadata230">
    <rdf:RDF>
      <cc:Work
         rdf:about="">
        <dc:format>image/svg+xml</dc:format>
        <dc:type
           rdf:resource="http://purl.org/dc/dcmitype/StillImage" />
      </cc:Work>
    </rdf:RDF>
  </metadata>
  <sodipodi:namedview
     pagecolor="#ffffff"
     bordercolor="#666666"
     borderopacity="1"
     objecttolerance="10"
     gridtolerance="10"
     guidetolerance="10"
     inkscape:pageopacity="0"
     inkscape:pageshadow="2"
     inkscape:window-width="1920"
     inkscape:window-height="995"
     id="namedview228"
     showgrid="false"
     inkscape:zoom="1.84375"
     inkscape:cx="5.6949153"
     inkscape:cy="175.45763"
     inkscape:window-x="0"
     inkscape:window-y="0"
     inkscape:window-maximized="1"
     inkscape:current-layer="svg226"
     inkscape:pagecheckerboard="0" />
  <defs
     id="defs124">
    <filter
       id="g"
       x="-0.023199999"
       y="-0.024857142"
       width="1.0464"
       height="1.0497143"
       color-interpolation-filters="sRGB">
      <feGaussianBlur
         stdDeviation="2.32"
         id="feGaussianBlur2" />
    </filter>
    <filter
       id="h"
       x="-0.0116"
       y="-0.012428571"
       width="1.0232"
       height="1.0248571"
       color-interpolation-filters="sRGB">
      <feGaussianBlur
         stdDeviation="1.16"
         id="feGaussianBlur5" />
    </filter>
    <linearGradient
       id="L"
       x1="296"
       x2="296"
       y1="-212"
       y2="236"
       gradientUnits="userSpaceOnUse">
      <stop
         offset="0"
         stop-color="#FFFEFE"
         id="stop8" />
      <stop
         offset=".125"
         stop-color="#FFFEFE"
         stop-opacity=".098"
         id="stop10" />
      <stop
         offset=".925"
         stop-opacity=".098"
         id="stop12" />
      <stop
         offset="1"
         stop-opacity=".498"
         id="stop14" />
    </linearGradient>
    <clipPath
       id="K">
      <path
         d="M361.938-212C507.235-212 528-191.287 528-46.125v116.25C528 215.286 507.235 236 361.937 236H214.063C68.766 236 48 215.286 48 70.125v-116.25C48-191.287 68.765-212 214.063-212z"
         fill="#9F4AC8"
         id="path17" />
    </clipPath>
    <linearGradient
       id="f">
      <stop
         offset="0"
         stop-opacity="0"
         id="stop20" />
      <stop
         offset=".493"
         id="stop22" />
      <stop
         offset="1"
         stop-opacity="0"
         id="stop24" />
    </linearGradient>
    <linearGradient
       id="k"
       x1="58.663"
       x2="3.612"
       y1="224.971"
       y2="301.548"
       gradientTransform="matrix(2.83677 0 0 2.83465 31.39 -573.782)"
       gradientUnits="userSpaceOnUse">
      <stop
         offset="0"
         stop-color="#EEEDED"
         id="stop27" />
      <stop
         offset="1"
         stop-color="#FFFEFE"
         id="stop29" />
    </linearGradient>
    <filter
       id="j"
       x="-0.0116"
       y="-0.012428571"
       width="1.0232"
       height="1.0248571"
       color-interpolation-filters="sRGB">
      <feGaussianBlur
         stdDeviation=".87"
         id="feGaussianBlur32" />
    </filter>
    <linearGradient
       id="i"
       x1="120.551"
       x2="120.468"
       y1="104.433"
       y2="238.961"
       gradientUnits="userSpaceOnUse">
      <stop
         offset="0"
         stop-opacity="0"
         id="stop35" />
      <stop
         offset=".505"
         id="stop37" />
      <stop
         offset="1"
         stop-opacity="0"
         id="stop39" />
    </linearGradient>
    <linearGradient
       id="c">
      <stop
         offset="0"
         stop-color="#138EFE"
         id="stop42" />
      <stop
         offset="1"
         stop-color="#138EFE"
         id="stop44" />
    </linearGradient>
    <linearGradient
       id="l"
       x1="298"
       x2="298"
       y1="-1587.638"
       y2="-1507.638"
       gradientUnits="userSpaceOnUse">
      <stop
         offset="0"
         stop-color="#138EFE"
         id="stop47" />
      <stop
         offset="1"
         stop-color="#138EFE"
         id="stop49" />
    </linearGradient>
    <linearGradient
       id="m"
       x1="298"
       x2="298"
       y1="-1571.179"
       y2="-1497.572"
       gradientUnits="userSpaceOnUse"
       xlink:href="#a" />
    <linearGradient
       id="a">
      <stop
         offset="0"
         stop-color="#138EFE"
         id="stop53" />
      <stop
         offset="1"
         stop-color="#138EFE"
         id="stop55" />
    </linearGradient>
    <linearGradient
       id="n"
       x1="516.05"
       x2="495.666"
       y1="192.985"
       y2="192.985"
       gradientTransform="translate(-123 -1753.64)"
       gradientUnits="userSpaceOnUse"
       xlink:href="#b" />
    <linearGradient
       id="b">
      <stop
         offset="0"
         stop-color="#9F4AC8"
         id="stop59" />
      <stop
         offset="1"
         stop-color="#111110"
         stop-opacity="0"
         id="stop61" />
    </linearGradient>
    <linearGradient
       id="o"
       x1="230"
       x2="230"
       y1="-581.638"
       y2="-577.573"
       gradientTransform="matrix(9.81802 0 0 8 -1867.87 3054.46)"
       gradientUnits="userSpaceOnUse">
      <stop
         offset="0"
         stop-color="#138EFE"
         id="stop64" />
      <stop
         offset="1"
         stop-color="#EEEDED"
         id="stop66" />
    </linearGradient>
    <linearGradient
       id="p"
       x1="345"
       x2="345"
       y1="1173"
       y2="1178"
       gradientTransform="matrix(-8.86632 0 0 8.1065 3447.88 -11110.2)"
       gradientUnits="userSpaceOnUse">
      <stop
         offset="0"
         stop-color="#111110"
         id="stop69" />
      <stop
         offset="1"
         stop-color="#111110"
         id="stop71" />
    </linearGradient>
    <linearGradient
       id="q"
       x1="346.696"
       x2="361.368"
       y1="-1313.519"
       y2="-1303.796"
       gradientTransform="translate(0 -263)"
       gradientUnits="userSpaceOnUse">
      <stop
         offset="0"
         stop-color="#FFFEFE"
         id="stop74" />
      <stop
         offset="1"
         stop-color="#FFFEFE"
         stop-opacity="0"
         id="stop76" />
    </linearGradient>
    <linearGradient
       id="r"
       x1="345"
       x2="345"
       y1="1173.911"
       y2="1178"
       gradientTransform="matrix(8.86632 0 0 8.1065 -2745.88 -11107.7)"
       gradientUnits="userSpaceOnUse">
      <stop
         offset="0"
         stop-color="#111110"
         id="stop79" />
      <stop
         offset="1"
         stop-color="#111110"
         id="stop81" />
    </linearGradient>
    <linearGradient
       id="s"
       x1="298.188"
       x2="298.188"
       y1="-631.149"
       y2="-634.268"
       gradientTransform="translate(-398.851 44.412) scale(2.53328)"
       gradientUnits="userSpaceOnUse">
      <stop
         offset="0"
         stop-color="#1EC337"
         id="stop84" />
      <stop
         offset="1"
         stop-color="#1EC337"
         id="stop86" />
    </linearGradient>
    <linearGradient
       id="t"
       x1="345"
       x2="345"
       y1="1173"
       y2="1178"
       gradientTransform="matrix(8.86632 0 0 8.1065 -2745.88 -11097.6)"
       gradientUnits="userSpaceOnUse"
       xlink:href="#c" />
    <linearGradient
       id="u"
       x1="337.375"
       x2="337.375"
       y1="-1311.359"
       y2="-1304.402"
       gradientTransform="translate(0 -263)"
       gradientUnits="userSpaceOnUse"
       xlink:href="#d" />
    <linearGradient
       id="d">
      <stop
         offset="0"
         stop-color="#111110"
         id="stop91" />
      <stop
         offset="1"
         stop-color="#111110"
         stop-opacity=".5"
         id="stop93" />
    </linearGradient>
    <radialGradient
       id="v"
       cx="-1535.304"
       cy="-842.908"
       r="10"
       gradientTransform="matrix(-3.31574 0 0 -7.58441 -3491.73 -6782.31)"
       gradientUnits="userSpaceOnUse">
      <stop
         offset="0"
         stop-color="#FFFEFE"
         id="stop96" />
      <stop
         offset="1"
         stop-color="#138EFE"
         stop-opacity="0"
         id="stop98" />
    </radialGradient>
    <linearGradient
       id="w"
       x1="337.375"
       x2="337.375"
       y1="-1311.359"
       y2="-1299.649"
       gradientTransform="translate(0 -263)"
       gradientUnits="userSpaceOnUse"
       xlink:href="#d" />
    <linearGradient
       id="x"
       x1="349.55"
       x2="349.55"
       y1="-1308.946"
       y2="-1302.726"
       gradientTransform="translate(0 -263)"
       gradientUnits="userSpaceOnUse"
       xlink:href="#e" />
    <linearGradient
       id="e">
      <stop
         offset="0"
         stop-color="gray"
         id="stop103" />
      <stop
         offset="1"
         stop-color="#111110"
         id="stop105" />
    </linearGradient>
    <linearGradient
       id="y"
       x1="349.55"
       x2="349.55"
       y1="-1307.696"
       y2="-1301.226"
       gradientTransform="translate(0 -263)"
       gradientUnits="userSpaceOnUse"
       xlink:href="#e" />
    <linearGradient
       id="z"
       x1="337.375"
       x2="337.375"
       y1="-1293.638"
       y2="-1287.512"
       gradientTransform="translate(0 -263)"
       gradientUnits="userSpaceOnUse"
       xlink:href="#c" />
    <linearGradient
       id="A"
       x1="445.695"
       x2="441.388"
       y1="1103.578"
       y2="1099.82"
       gradientUnits="userSpaceOnUse">
      <stop
         offset="0"
         stop-color="#F4C200"
         id="stop110" />
      <stop
         offset="1"
         stop-color="#FEDF13"
         id="stop112" />
    </linearGradient>
    <linearGradient
       id="B"
       x1="-17"
       x2="144"
       y1="-1194.638"
       y2="-1194.638"
       gradientTransform="matrix(.52407 0 0 1 318.409 -356)"
       gradientUnits="userSpaceOnUse"
       xlink:href="#f" />
    <linearGradient
       id="C"
       x1="-17"
       x2="144"
       y1="-1194.638"
       y2="-1194.638"
       gradientTransform="matrix(.52407 0 0 1 318.409 -405)"
       gradientUnits="userSpaceOnUse"
       xlink:href="#f" />
    <linearGradient
       id="D"
       x1="387.495"
       x2="405.172"
       y1="192.985"
       y2="192.985"
       gradientTransform="translate(-123 -1753.64)"
       gradientUnits="userSpaceOnUse"
       xlink:href="#b" />
    <linearGradient
       id="F"
       x1="-17"
       x2="144"
       y1="-1194.638"
       y2="-1194.638"
       gradientTransform="matrix(.29814 0 0 1 -1593.57 881.638)"
       gradientUnits="userSpaceOnUse"
       xlink:href="#f" />
    <linearGradient
       id="G"
       x1="-17"
       x2="144"
       y1="-1194.638"
       y2="-1194.638"
       gradientTransform="matrix(.29814 0 0 1 -1593.57 804.638)"
       gradientUnits="userSpaceOnUse"
       xlink:href="#f" />
    <linearGradient
       id="H"
       x1="-17"
       x2="144"
       y1="-1194.638"
       y2="-1194.638"
       gradientTransform="matrix(.29814 0 0 1 -1593.57 884.638)"
       gradientUnits="userSpaceOnUse"
       xlink:href="#f" />
    <linearGradient
       id="I"
       x1="-17"
       x2="144"
       y1="-1194.638"
       y2="-1194.638"
       gradientTransform="matrix(.52407 0 0 1 318.409 -353)"
       gradientUnits="userSpaceOnUse"
       xlink:href="#f" />
    <linearGradient
       id="J"
       x1="-17"
       x2="144"
       y1="-1194.638"
       y2="-1194.638"
       gradientTransform="matrix(.29814 0 0 1 -1593.57 801.638)"
       gradientUnits="userSpaceOnUse"
       xlink:href="#f" />
    <linearGradient
       id="E"
       x1="-17"
       x2="144"
       y1="-1194.638"
       y2="-1194.638"
       gradientTransform="matrix(.19255 0 0 1 277.273 -408)"
       gradientUnits="userSpaceOnUse"
       xlink:href="#f" />
    <filter
       inkscape:collect="always"
       style="color-interpolation-filters:sRGB"
       id="filter6668"
       x="-0.054544515"
       width="1.109089"
       y="-0.043243822"
       height="1.0864876">
      <feGaussianBlur
         inkscape:collect="always"
         stdDeviation="4.000054"
         id="feGaussianBlur6670" />
    </filter>
    <filter
       inkscape:collect="always"
       style="color-interpolation-filters:sRGB"
       id="filter6646"
       x="-0.013636129"
       width="1.0272723"
       y="-0.010762476"
       height="1.021525">
      <feGaussianBlur
         inkscape:collect="always"
         stdDeviation="1.0000135"
         id="feGaussianBlur6648" />
    </filter>
    <linearGradient
       gradientUnits="userSpaceOnUse"
       y2="169.66859"
       x2="4.4137931"
       y1="386.30838"
       x1="494.34482"
       id="linearGradient4226-1"
       xlink:href="#linearGradient4338"
       inkscape:collect="always"
       gradientTransform="matrix(0,-0.453125,-0.45311204,0,255.89839,241.21466)" />
    <linearGradient
       inkscape:collect="always"
       id="linearGradient4338">
      <stop
         style="stop-color:#f2f2f2;stop-opacity:1"
         offset="0"
         id="stop4340" />
      <stop
         style="stop-color:#ffffff;stop-opacity:1"
         offset="1"
         id="stop4342" />
    </linearGradient>
    <linearGradient
       inkscape:collect="always"
       xlink:href="#linearGradient19846"
       id="linearGradient18820-3"
       x1="201.07812"
       y1="269.99988"
       x2="102.92188"
       y2="45.999878"
       gradientUnits="userSpaceOnUse"
       gradientTransform="translate(-22.064477,-26.785341)" />
    <linearGradient
       id="linearGradient19846">
      <stop
         id="stop19848"
         style="stop-color:#259dd2;stop-opacity:1"
         offset="0" />
      <stop
         id="stop19850"
         style="stop-color:#065d8d;stop-opacity:1"
         offset="1" />
    </linearGradient>
  </defs>
  <path
     style="color:#000000;display:inline;overflow:visible;visibility:visible;opacity:0.3;fill:#000000;fill-opacity:1;fill-rule:nonzero;stroke:none;stroke-width:1;marker:none;filter:url(#filter6668);enable-background:accumulate"
     d="m 80.857405,19.214659 c -35.296732,0 -38.921882,3.625611 -38.921882,38.994141 v 71.00586 2 71.00586 c 0,35.36853 3.625145,38.99414 38.921882,38.99414 h 98.156245 c 35.29673,0 39.09487,-3.62602 38.92188,-38.99414 V 101.45488 c -0.044,-9.732891 -8.17907,-17.955611 -14.76172,-24.162101 l -0.0488,-0.0508 L 162.60158,34.83378 C 151.92469,24.27262 144.54376,19.214639 129.93556,19.214639 Z m 96.982425,0.08984 c -2.16918,2.775877 -2.38539,7.403545 0.20898,9.912109 l 28.4961,30.386719 c 3.72332,3.695483 11.11677,0.569048 11.38085,-4.777344 -0.11515,-29.584532 -4.14219,-34.875862 -31.35937,-35.521484 z"
     id="path5316-1" />
  <path
     style="color:#000000;display:inline;overflow:visible;visibility:visible;opacity:0.1;fill:#000000;fill-opacity:1;fill-rule:nonzero;stroke:none;stroke-width:1;marker:none;filter:url(#filter6646);enable-background:accumulate"
     d="m 80.857405,18.214659 c -35.296732,0 -38.921882,3.625611 -38.921882,38.994141 v 72.00586 1 72.00586 c 0,35.36853 3.625145,38.99414 38.921882,38.99414 h 98.156245 c 35.29673,0 39.09487,-3.62602 38.92188,-38.99414 V 100.45488 c -0.044,-9.732891 -8.17907,-17.955601 -14.76172,-24.162101 l -0.0488,-0.0508 L 162.60158,33.83378 C 151.92469,23.27262 144.54376,18.214639 129.93556,18.214639 Z m 97.968745,0.08984 c -3.03973,2.502305 -3.72055,8.066242 -0.77734,10.912109 l 28.4961,30.386719 c 3.72846,3.700585 11.14006,0.561079 11.38476,-4.798828 -0.032,-30.448516 -3.84872,-35.847323 -31.36328,-36.5 z"
     id="path5316-84" />
  <path
     style="color:#000000;display:inline;overflow:visible;visibility:visible;opacity:0.1;fill:none;fill-opacity:1;fill-rule:nonzero;stroke:#000000;stroke-width:4;stroke-miterlimit:4;stroke-dasharray:none;marker:none;enable-background:accumulate"
     d="m 80.857405,17.214659 c -2.17574,0 -4.22636,0.01469 -6.167976,0.04883 -29.48187,0.527845 -32.667968,5.787316 -32.667968,38.945313 v 73.005858 73.00586 c 0,33.158 3.186098,38.41747 32.667968,38.94531 1.941616,0.0341 3.992236,0.0488 6.167976,0.0488 0.0303,1e-5 0.0556,0 0.0859,0 h 98.070315 c 2.20605,0 4.28918,-0.0136 6.25586,-0.0488 29.50026,-0.52789 32.8282,-5.7877 32.66602,-38.94531 V 99.454884 c -0.044,-9.732895 -8.17907,-17.955615 -14.76172,-24.162105 l -0.0488,-0.0508 -40.52343,-42.408197 C 151.9246,22.272651 144.54373,17.214641 129.93553,17.214641 Z m 99.732425,0.08984 c -4.47461,1.4924 -5.99062,8.576599 -2.54102,11.912109 l 28.4961,30.386719 c 3.74098,3.713002 11.1935,0.541237 11.39062,-4.851563 v -7.191406 c -0.63801,-24.955042 -5.76605,-29.650563 -31.2832,-30.255859 h -3.95313 z"
     id="path5316-3" />
  <path
     style="color:#000000;display:inline;overflow:visible;visibility:visible;fill:url(#linearGradient4226-1);fill-opacity:1;fill-rule:nonzero;stroke:none;stroke-width:1;marker:none;enable-background:accumulate"
     d="m 80.857405,17.21466 c -35.296722,0 -38.921882,3.62561 -38.921882,38.99414 v 73.00586 73.00586 c 0,35.36853 3.62516,38.99414 38.921882,38.99414 h 98.156255 c 35.29673,0 39.09486,-3.62602 38.92187,-38.99414 V 99.454884 c -0.044,-9.732895 -8.17907,-17.955615 -14.76172,-24.162105 l -0.0488,-0.0508 L 162.60158,32.83378 C 151.92472,22.2726 144.54373,17.21466 129.93553,17.21466 Z"
     id="path5316"
     inkscape:connector-curvature="0" />
  <path
     style="color:#000000;display:inline;overflow:visible;visibility:visible;fill:url(#linearGradient18820-3);fill-opacity:1;fill-rule:nonzero;stroke:none;stroke-width:1;marker:none;enable-background:accumulate"
     d="m 80.857405,17.214659 c -35.296737,0 -38.921882,3.625611 -38.921882,38.994141 v 73.00586 73.00586 c 0,35.36853 3.625145,38.99414 38.921882,38.99414 h 98.156245 c 15.44232,0 24.85551,-0.69497 30.54493,-4.4375 0.40638,-0.26732 0.79483,-0.54837 1.16406,-0.84766 2.21537,-1.79573 3.77587,-4.183 4.86523,-7.3457 1.99716,-5.79828 2.40713,-14.20549 2.34766,-26.36328 V 99.454884 c -0.044,-9.732895 -8.17907,-17.955615 -14.76172,-24.162105 l -0.0488,-0.0508 L 162.60158,32.83378 C 151.92463,22.272649 144.54376,17.214639 129.93556,17.214639 Z m 99.732425,0.08984 c -4.47461,1.4924 -5.99062,8.576599 -2.54102,11.912109 l 28.4961,30.386719 c 3.73355,3.705631 11.16128,0.552964 11.38671,-4.820313 0.0482,-31.329014 -3.55328,-36.818783 -31.36523,-37.478515 h -3.86719 z"
     id="rect4158-92-3"
     sodipodi:nodetypes="sscsssssscccccssccccccc" />
  <path
     id="rect4396"
     style="display:inline;opacity:0.1;fill:#ffffff;fill-opacity:1;stroke-width:2;stroke-linejoin:round;stroke-dasharray:3, 3;enable-background:new"
     d="M 129.93553,17.214659 V 241.21466 h 49.07812 c 15.44232,0 24.85551,-0.69497 30.54493,-4.4375 0.40638,-0.26732 0.79483,-0.54837 1.16406,-0.84766 2.21537,-1.79573 3.77587,-4.183 4.86523,-7.3457 1.99716,-5.79828 2.40713,-14.20549 2.34766,-26.36328 V 99.454884 c -0.044,-9.732895 -8.17907,-17.955605 -14.76172,-24.162105 l -0.0488,-0.0508 L 162.60158,32.83378 C 151.92463,22.272649 144.54376,17.214639 129.93556,17.214639 Z m 50.6543,0.08984 c -4.47461,1.4924 -5.99062,8.576599 -2.54102,11.912109 l 28.4961,30.386719 c 3.73355,3.705631 11.16128,0.552964 11.38671,-4.820313 0.0482,-31.329014 -3.55328,-36.818783 -31.36523,-37.478515 h -3.86719 z" />
  <path
     inkscape:connector-curvature="0"
     style="color:#000000;display:inline;overflow:visible;visibility:visible;opacity:0.1;fill:#ffffff;fill-opacity:1;fill-rule:nonzero;stroke:none;stroke-width:1;marker:none;enable-background:accumulate"
     d="m 41.935918,129.21466 v 73.00683 c -0.17299,35.36812 3.62515,38.99317 38.921887,38.99317 h 98.156245 c 35.29672,0 38.00361,-3.63655 38.92188,-38.99317 v -73.00683 z"
     id="path4255"
     sodipodi:nodetypes="ccssscc" />
  <path
     id="path419"
     style="clip-rule:evenodd;display:inline;opacity:0.25;fill:#000000;fill-rule:nonzero;enable-background:new"
     d="m 74.935525,99.214654 c -2.760999,0 -5.000002,2.238996 -5.000002,4.999996 0,2.761 2.239003,5 5.000002,5 h 30.000005 c 2.761,0 5,-2.239 5,-5 0,-2.761 -2.239,-4.999996 -5,-4.999996 z m 56.000005,0 c -6.07499,0 -11,4.925006 -11,10.999996 v 28.00001 c 0,6.07499 4.92501,11 11,11 h 48 c 6.07499,0 11,-4.92501 11,-11 v -28.00001 c 0,-6.07499 -4.92501,-10.999996 -11,-10.999996 z M 74.935525,119.21465 c -2.760999,0 -5.000002,2.239 -5.000002,5 0,2.76101 2.239003,5.00001 5.000002,5.00001 h 30.000005 c 2.761,0 5,-2.239 5,-5.00001 0,-2.761 -2.239,-5 -5,-5 z m 0,20.00001 c -2.760999,0 -5.000002,2.239 -5.000002,5 0,2.761 2.239003,5 5.000002,5 h 30.000005 c 2.761,0 5,-2.239 5,-5 0,-2.761 -2.239,-5 -5,-5 z m 0,20 c -2.760999,0 -5.000002,2.239 -5.000002,5 0,2.761 2.239003,5 5.000002,5 H 184.93553 c 2.761,0 5,-2.239 5,-5 0,-2.761 -2.239,-5 -5,-5 z m 0,20 c -2.760999,0 -5.000002,2.239 -5.000002,5 0,2.761 2.239003,5 5.000002,5 H 184.93553 c 2.761,0 5,-2.239 5,-5 0,-2.761 -2.239,-5 -5,-5 z m 0,20 c -2.760999,0 -5.000002,2.239 -5.000002,5 0,2.761 2.239003,5 5.000002,5 h 80.000005 c 2.761,0 5,-2.239 5,-5 0,-2.761 -2.239,-5 -5,-5 z" />
  <path
     d="m 74.935525,97.214659 c -2.761002,0 -5.000002,2.238995 -5.000002,4.999991 0,2.761 2.239,5 5.000002,5 h 30.000005 c 2.761,0 5,-2.239 5,-5 0,-2.760996 -2.239,-4.999991 -5,-4.999991 z m 56.000005,0 c -6.075,0 -11,4.924991 -11,10.999991 v 28.00001 c 0,6.075 4.925,11 11,11 h 48 c 6.075,0 11,-4.925 11,-11 v -28.00001 c 0,-6.075 -4.925,-10.999991 -11,-10.999991 z M 74.935525,117.21465 c -2.761002,0 -5.000002,2.239 -5.000002,5 0,2.761 2.239,5.00001 5.000002,5.00001 h 30.000005 c 2.761,0 5,-2.23901 5,-5.00001 0,-2.761 -2.239,-5 -5,-5 z m 0,20.00001 c -2.761002,0 -5.000002,2.239 -5.000002,5 0,2.761 2.239,5 5.000002,5 h 30.000005 c 2.761,0 5,-2.239 5,-5 0,-2.761 -2.239,-5 -5,-5 z m 0,20 c -2.761002,0 -5.000002,2.239 -5.000002,5 0,2.761 2.239,5 5.000002,5 H 184.93553 c 2.761,0 5,-2.239 5,-5 0,-2.761 -2.239,-5 -5,-5 z m 0,20 c -2.761002,0 -5.000002,2.239 -5.000002,5 0,2.761 2.239,5 5.000002,5 H 184.93553 c 2.761,0 5,-2.239 5,-5 0,-2.761 -2.239,-5 -5,-5 z m 0,20 c -2.761002,0 -5.000002,2.239 -5.000002,5 0,2.761 2.239,5 5.000002,5 h 80.000005 c 2.761,0 5,-2.239 5,-5 0,-2.761 -2.239,-5 -5,-5 z"
     style="clip-rule:evenodd;display:inline;fill:#ffffff;fill-rule:nonzero;enable-background:new"
     id="path162" />
  <path
     id="path166"
     style="clip-rule:evenodd;display:inline;fill:#43b8ef;fill-opacity:1;fill-rule:nonzero;enable-background:new"
     d="m 129.92967,102.21465 c -2.761,0 -5,2.239 -5,5 v 30.00001 c 0,2.41675 1.71593,4.43231 3.99414,4.89844 -2.27636,-0.46774 -3.98828,-2.48388 -3.98828,-4.89844 l 12.16797,-19.11915 c 2.599,-4.084 8.45769,-4.36006 11.42969,-0.53906 l 10.67382,13.72266 c 0.38,0.489 1.1113,0.5166 1.5293,0.0586 l 4.42578,-4.84961 c 2.811,-3.08001 7.67474,-3.03631 10.42774,0.0957 l 9.33984,10.62695 v -29.9961 c 0,-2.761 -2.239,-5 -5,-5 z m 54.98633,35.2754 c -0.0142,0.25841 -0.0437,0.51328 -0.0957,0.75977 0.052,-0.24684 0.0816,-0.50097 0.0957,-0.75977 z m -0.32813,1.50586 c -0.0232,0.0606 -0.0351,0.12612 -0.0605,0.18555 0.0255,-0.0594 0.0374,-0.12496 0.0605,-0.18555 z m -0.47265,0.94141 c -0.0164,0.0251 -0.0281,0.0533 -0.0449,0.0781 0.0169,-0.0249 0.0285,-0.0529 0.0449,-0.0781 z m -0.56446,0.70898 c -0.0334,0.0352 -0.0593,0.0771 -0.0937,0.11133 0.0345,-0.0343 0.0603,-0.076 0.0937,-0.11133 z m -0.67773,0.59375 c -0.0547,0.04 -0.1018,0.0891 -0.1582,0.12695 0.0564,-0.0379 0.10349,-0.0869 0.1582,-0.12695 z m -0.81445,0.48438 c -0.0648,0.0306 -0.12321,0.0718 -0.18946,0.0996 0.0663,-0.0279 0.12464,-0.069 0.18946,-0.0996 z" />
  <path
     style="color:#000000;display:inline;overflow:visible;visibility:visible;opacity:0.3;fill:#ffffff;fill-opacity:1;fill-rule:nonzero;stroke:none;stroke-width:1;marker:none;enable-background:accumulate"
     d="m 80.857405,17.214659 c -2.50815,0 -4.81171,0.02551 -7.011726,0.07227 -1.569122,0.03332 -3.08576,0.07667 -4.505859,0.142578 -0.892728,0.04133 -1.761123,0.08803 -2.597656,0.144531 -0.07361,0.005 -0.155337,0.0086 -0.228516,0.01367 -0.03977,0.0028 -0.07364,0.0069 -0.113281,0.0098 -1.116046,0.0793 -2.169724,0.179402 -3.1875,0.291016 -0.281403,0.03076 -0.565733,0.06033 -0.839844,0.09375 -0.275699,0.03373 -0.547991,0.06893 -0.816406,0.105469 -0.386447,0.0524 -0.76317,0.107595 -1.134766,0.166015 -0.245075,0.0387 -0.493706,0.07575 -0.732422,0.117188 -0.386714,0.06682 -0.756639,0.14256 -1.126953,0.216797 -0.50787,0.102283 -1.000729,0.211021 -1.478515,0.328125 -0.190936,0.04659 -0.386033,0.09158 -0.572266,0.140625 -0.3252,0.08602 -0.638123,0.17771 -0.949219,0.271484 -0.174106,0.05225 -0.347814,0.105413 -0.517578,0.160157 -0.331564,0.107381 -0.657357,0.218707 -0.972656,0.335937 -0.08071,0.02989 -0.158622,0.06125 -0.238281,0.0918 -1.560013,0.600541 -2.923471,1.324701 -4.107422,2.205078 -0.0015,0.0011 -0.0024,0.0028 -0.0039,0.0039 -5.393508,4.01375 -7.137225,11.222093 -7.615234,23.919922 -0.02276,0.605632 -0.04136,1.232203 -0.05859,1.863281 -0.03025,1.104715 -0.05874,2.209903 -0.07422,3.394532 C 42.45305,22.388956 48.02086,19.214659 80.857405,19.214659 H 143.3867 c -0.85989,-0.295464 -1.74582,-0.553137 -2.65429,-0.783203 -0.15701,-0.03958 -0.31205,-0.08153 -0.47071,-0.119141 -0.38771,-0.0924 -0.78156,-0.17709 -1.17969,-0.257812 -0.28362,-0.0571 -0.57205,-0.108998 -0.86132,-0.160156 -0.33217,-0.05924 -0.66192,-0.122415 -1.00196,-0.173829 -0.61547,-0.09216 -1.24344,-0.171651 -1.88672,-0.238281 -0.25531,-0.02678 -0.51929,-0.04563 -0.77929,-0.06836 -0.49344,-0.04258 -0.99476,-0.07925 -1.50586,-0.107422 -0.26087,-0.01459 -0.52138,-0.03022 -0.78711,-0.04102 -0.75738,-0.03032 -1.52534,-0.05078 -2.32422,-0.05078 z"
     id="path7814" />
  <path
     style="color:#000000;display:inline;overflow:visible;visibility:visible;opacity:0.4;fill:#ffffff;fill-opacity:1;fill-rule:nonzero;stroke:none;stroke-width:1;marker:none;enable-background:accumulate"
     d="m 180.58983,17.304503 c -1.07122,0.357279 -1.96732,1.040077 -2.67188,1.910156 h 1.0957 c 34.15314,4e-6 38.64071,3.485189 38.89649,35.746094 0.003,-0.03836 0.0116,-0.07469 0.0137,-0.113282 -0.0538,-17.791919 -1.16737,-27.311888 -7.19531,-32.285156 -0.0612,-0.04994 -0.12336,-0.0994 -0.18555,-0.148437 -0.26948,-0.214754 -0.5509,-0.419295 -0.83984,-0.617188 -0.15131,-0.102604 -0.30423,-0.202591 -0.46094,-0.300781 -0.20346,-0.128728 -0.41408,-0.251698 -0.62695,-0.373047 -0.23799,-0.13444 -0.47866,-0.268909 -0.72852,-0.394531 -0.14196,-0.07198 -0.28962,-0.139823 -0.43555,-0.208984 -0.33143,-0.155843 -0.66556,-0.307266 -1.01757,-0.449219 -0.0474,-0.01925 -0.0968,-0.03764 -0.14453,-0.05664 -4.59757,-1.815644 -10.95134,-2.500623 -19.70704,-2.708984 h -0.0195 -3.86328 z"
     id="path7812" />
  <path
     style="color:#000000;display:inline;overflow:visible;visibility:visible;opacity:0.3;fill:#ffffff;fill-opacity:1;fill-rule:nonzero;stroke:none;stroke-width:1;marker:none;enable-background:accumulate"
     d="m 41.947242,54.755675 c -0.0028,0.490545 -0.01172,0.940456 -0.01172,1.453125 v 2 c -0.006,-1.21826 0.0063,-2.314584 0.01172,-3.453125 z"
     id="rect4158-92-3-3" />
  <path
     style="color:#000000;display:inline;overflow:visible;visibility:visible;opacity:0.2;fill:#000000;fill-opacity:1;fill-rule:nonzero;stroke:none;stroke-width:1;marker:none;enable-background:accumulate"
     d="m 41.935918,200.22052 v 2 c -0.17299,35.36812 3.62515,38.99414 38.921887,38.99414 h 98.156245 c 35.29672,0 38.00361,-3.63752 38.92188,-38.99414 v -2 c -0.91827,35.35662 -3.62516,38.99414 -38.92188,38.99414 H 80.857805 c -35.296737,0 -39.094877,-3.62602 -38.921887,-38.99414 z"
     id="path945"
     inkscape:connector-curvature="0" />
  <path
     style="color:#000000;display:inline;overflow:visible;visibility:visible;opacity:0.08;fill:#ffffff;fill-opacity:1;fill-rule:nonzero;stroke:none;stroke-width:8;stroke-linecap:butt;stroke-linejoin:miter;stroke-miterlimit:4;stroke-dasharray:none;stroke-dashoffset:0;stroke-opacity:1;marker:none;enable-background:accumulate"
     d="m 157.93593,241.21466 60,-60 v 22.48388 c -0.0523,33.99581 -3.80268,37.51612 -38.1741,37.51612 z"
     id="path4254"
     inkscape:connector-curvature="0"
     sodipodi:nodetypes="cccsc" />
</svg>
