<?xml version="1.0" encoding="UTF-8" standalone="no"?>
<svg
   width="256"
   height="256"
   version="1.0"
   enable-background="new"
   id="svg204"
   sodipodi:docname="libreoffice-draw.svg"
   inkscape:version="1.1.2 (0a00cf5339, 2022-02-04)"
   xmlns:inkscape="http://www.inkscape.org/namespaces/inkscape"
   xmlns:sodipodi="http://sodipodi.sourceforge.net/DTD/sodipodi-0.dtd"
   xmlns:xlink="http://www.w3.org/1999/xlink"
   xmlns="http://www.w3.org/2000/svg"
   xmlns:svg="http://www.w3.org/2000/svg">
  <sodipodi:namedview
     id="namedview206"
     pagecolor="#ffffff"
     bordercolor="#666666"
     borderopacity="1.0"
     inkscape:pageshadow="2"
     inkscape:pageopacity="0.0"
     inkscape:pagecheckerboard="0"
     showgrid="false"
     inkscape:zoom="1.7539563"
     inkscape:cx="100.62965"
     inkscape:cy="148.52138"
     inkscape:window-width="1920"
     inkscape:window-height="995"
     inkscape:window-x="0"
     inkscape:window-y="0"
     inkscape:window-maximized="1"
     inkscape:current-layer="svg204" />
  <defs
     id="defs126">
    <filter
       id="d"
       x="-0.023199999"
       y="-0.024857142"
       width="1.0464"
       height="1.0497143"
       color-interpolation-filters="sRGB">
      <feGaussianBlur
         stdDeviation="2.32"
         id="feGaussianBlur2" />
    </filter>
    <filter
       id="e"
       x="-0.0116"
       y="-0.012428571"
       width="1.0232"
       height="1.0248571"
       color-interpolation-filters="sRGB">
      <feGaussianBlur
         stdDeviation="1.16"
         id="feGaussianBlur5" />
    </filter>
    <linearGradient
       id="D"
       x1="296"
       x2="296"
       y1="-212"
       y2="236"
       gradientUnits="userSpaceOnUse">
      <stop
         offset="0"
         stop-color="#FFFEFE"
         id="stop8" />
      <stop
         offset=".125"
         stop-color="#FFFEFE"
         stop-opacity=".098"
         id="stop10" />
      <stop
         offset=".925"
         stop-opacity=".098"
         id="stop12" />
      <stop
         offset="1"
         stop-opacity=".498"
         id="stop14" />
    </linearGradient>
    <clipPath
       id="C">
      <path
         d="M361.938-212C507.235-212 528-191.287 528-46.125v116.25C528 215.286 507.235 236 361.937 236H214.063C68.766 236 48 215.286 48 70.125v-116.25C48-191.287 68.765-212 214.063-212z"
         fill="#9F4AC8"
         id="path17" />
    </clipPath>
    <linearGradient
       id="h"
       x1="58.663"
       x2="3.612"
       y1="224.971"
       y2="301.548"
       gradientTransform="matrix(2.83677 0 0 2.83465 31.39 -573.782)"
       gradientUnits="userSpaceOnUse">
      <stop
         offset="0"
         stop-color="#EEEDED"
         id="stop20" />
      <stop
         offset="1"
         stop-color="#FFFEFE"
         id="stop22" />
    </linearGradient>
    <filter
       id="g"
       x="-0.0116"
       y="-0.012428571"
       width="1.0232"
       height="1.0248571"
       color-interpolation-filters="sRGB">
      <feGaussianBlur
         stdDeviation=".87"
         id="feGaussianBlur25" />
    </filter>
    <linearGradient
       id="f"
       x1="120.551"
       x2="120.468"
       y1="104.433"
       y2="238.961"
       gradientUnits="userSpaceOnUse">
      <stop
         offset="0"
         stop-opacity="0"
         id="stop28" />
      <stop
         offset=".505"
         id="stop30" />
      <stop
         offset="1"
         stop-opacity="0"
         id="stop32" />
    </linearGradient>
    <linearGradient
       id="i"
       x1="1180.158"
       x2="1180.158"
       y1="688.526"
       y2="658.132"
       gradientTransform="translate(-2554.712 -1226.58) scale(2.04712)"
       gradientUnits="userSpaceOnUse">
      <stop
         offset="0"
         stop-color="#EEEDED"
         id="stop35" />
      <stop
         offset="1"
         stop-color="#EEEDED"
         id="stop37" />
    </linearGradient>
    <linearGradient
       id="j"
       x1="1183.469"
       x2="1168"
       y1="671.49"
       y2="686.958"
       gradientTransform="translate(-2427.087 -1153.8) scale(1.93938)"
       gradientUnits="userSpaceOnUse">
      <stop
         offset="0"
         stop-color="#F58B00"
         id="stop40" />
      <stop
         offset=".472"
         stop-color="#F58B00"
         id="stop42" />
      <stop
         offset="1"
         stop-color="#F58B00"
         id="stop44" />
    </linearGradient>
    <radialGradient
       id="k"
       cx="-2578.688"
       cy="-1363.409"
       r="10"
       gradientTransform="matrix(1.90105 -.00002 .00002 1.96856 4783.018 2825.93)"
       gradientUnits="userSpaceOnUse">
      <stop
         offset="0"
         stop-color="#FFFEFE"
         id="stop47" />
      <stop
         offset="1"
         stop-color="#EEEDED"
         stop-opacity="0"
         id="stop49" />
    </radialGradient>
    <linearGradient
       id="l"
       x1="1079.546"
       x2="1079.546"
       y1="-2650.276"
       y2="-2617.534"
       gradientTransform="matrix(1.77776 0 0 1.80512 -1973.216 4926.972)"
       gradientUnits="userSpaceOnUse">
      <stop
         offset="0"
         stop-color="#FEA914"
         id="stop52" />
      <stop
         offset="1"
         stop-color="#F48B00"
         id="stop54" />
    </linearGradient>
    <linearGradient
       id="m"
       x1="1171.25"
       x2="1171.25"
       y1="-1513.388"
       y2="-1575.638"
       gradientTransform="translate(-1095.89 1545.256) scale(.88888)"
       gradientUnits="userSpaceOnUse">
      <stop
         offset="0"
         stop-color="#F4C200"
         id="stop57" />
      <stop
         offset="1"
         stop-color="#F4C200"
         id="stop59" />
    </linearGradient>
    <linearGradient
       id="n"
       x1="1171"
       x2="1138"
       y1="-1562.104"
       y2="-1504.947"
       gradientTransform="translate(-1095.89 1545.256) scale(.88888)"
       gradientUnits="userSpaceOnUse">
      <stop
         offset="0"
         stop-color="#F4C200"
         id="stop62" />
      <stop
         offset="1"
         stop-color="#FEA914"
         id="stop64" />
    </linearGradient>
    <linearGradient
       id="o"
       x1="529.25"
       x2="535"
       y1="-1568.638"
       y2="-1574.638"
       gradientTransform="matrix(2.2222 0 0 4.44443 -1120.538 7170.617)"
       gradientUnits="userSpaceOnUse"
       xlink:href="#a" />
    <linearGradient
       id="a">
      <stop
         offset="0"
         stop-color="#F43125"
         id="stop68" />
      <stop
         offset="1"
         stop-color="#F4C200"
         stop-opacity="0"
         id="stop70" />
    </linearGradient>
    <linearGradient
       id="p"
       x1="529.25"
       x2="535"
       y1="-1568.638"
       y2="-1574.638"
       gradientTransform="matrix(2.2222 0 0 4.44443 -1283.888 7170.617)"
       gradientUnits="userSpaceOnUse"
       xlink:href="#a" />
    <linearGradient
       id="q"
       x1="1065.75"
       x2="1065.75"
       y1="-1561.392"
       y2="-1495.638"
       gradientTransform="translate(-1096.11 1544.367) scale(.88888)"
       gradientUnits="userSpaceOnUse">
      <stop
         offset="0"
         stop-color="#F4C200"
         id="stop74" />
      <stop
         offset="1"
         stop-color="#FEA914"
         id="stop76" />
    </linearGradient>
    <linearGradient
       id="r"
       x1="1162.591"
       x2="1162.591"
       y1="900.186"
       y2="887.434"
       gradientTransform="matrix(4.1343 0 0 3.83167 -4925.068 -3238.103)"
       gradientUnits="userSpaceOnUse">
      <stop
         offset="0"
         stop-color="#F4C200"
         id="stop79" />
      <stop
         offset="1"
         stop-color="#EEEDED"
         id="stop81" />
    </linearGradient>
    <linearGradient
       id="s"
       x1="1162.175"
       x2="1162.175"
       y1="900.717"
       y2="887.071"
       gradientTransform="matrix(3.9711 0 0 3.64323 -4735.434 -3069.26)"
       gradientUnits="userSpaceOnUse">
      <stop
         offset="0"
         stop-color="#F4C200"
         id="stop84" />
      <stop
         offset="1"
         stop-color="#EEEDED"
         id="stop86" />
    </linearGradient>
    <linearGradient
       id="t"
       x1="1155.005"
       x2="1165.548"
       y1="899.985"
       y2="893.35"
       gradientTransform="matrix(1.3237 0 0 1.2144 -1680.778 -881.588)"
       gradientUnits="userSpaceOnUse"
       xlink:href="#b" />
    <linearGradient
       id="b">
      <stop
         offset="0"
         stop-color="#F48B00"
         id="stop90" />
      <stop
         offset="1"
         stop-color="#F48B00"
         stop-opacity="0"
         id="stop92" />
    </linearGradient>
    <linearGradient
       id="u"
       x1="1155.005"
       x2="1165.548"
       y1="899.985"
       y2="893.35"
       gradientTransform="matrix(-1.3237 0 0 1.2144 1438.617 -881.588)"
       gradientUnits="userSpaceOnUse"
       xlink:href="#b" />
    <radialGradient
       id="v"
       cx="-1535.455"
       cy="-853"
       r="10"
       gradientTransform="matrix(-2.30259 0 0 -2.2222 -3321.818 -1773.646)"
       gradientUnits="userSpaceOnUse">
      <stop
         offset="0"
         stop-color="#FFFEFE"
         id="stop96" />
      <stop
         offset="1"
         stop-color="#EEEDED"
         stop-opacity="0"
         id="stop98" />
    </radialGradient>
    <linearGradient
       id="w"
       x1="1162"
       x2="1162"
       y1="889.006"
       y2="900.717"
       gradientTransform="matrix(.97917 0 0 .9108 -1258.81 -646.79)"
       gradientUnits="userSpaceOnUse"
       xlink:href="#b" />
    <linearGradient
       id="x"
       x1="-17"
       x2="144"
       y1="-1194.638"
       y2="-1194.638"
       gradientTransform="matrix(.15459 0 0 .88888 -91.488 1259.925)"
       gradientUnits="userSpaceOnUse"
       xlink:href="#c" />
    <linearGradient
       id="c">
      <stop
         offset="0"
         stop-color="#F43125"
         stop-opacity="0"
         id="stop103" />
      <stop
         offset=".493"
         stop-color="#F43125"
         id="stop105" />
      <stop
         offset="1"
         stop-color="#F43125"
         stop-opacity="0"
         id="stop107" />
    </linearGradient>
    <linearGradient
       id="z"
       x1="-17"
       x2="144"
       y1="-1194.638"
       y2="-1194.638"
       gradientTransform="matrix(.39751 0 0 .88888 -148.028 1273.258)"
       gradientUnits="userSpaceOnUse"
       xlink:href="#c" />
    <linearGradient
       id="A"
       x1="1171.25"
       x2="1171.25"
       y1="-1513.388"
       y2="-1575.638"
       gradientTransform="translate(-1095.89 1545.744) scale(.88888)"
       gradientUnits="userSpaceOnUse">
      <stop
         offset="0"
         stop-color="#F4C200"
         id="stop111" />
      <stop
         offset="1"
         stop-color="#F4C200"
         id="stop113" />
    </linearGradient>
    <radialGradient
       id="B"
       cx="-1535.213"
       cy="-848.917"
       r="10"
       gradientTransform="matrix(-2.7631 0 0 -4.02198 -4386.639 -3343.535)"
       gradientUnits="userSpaceOnUse">
      <stop
         offset="0"
         stop-color="#FEDF13"
         id="stop116" />
      <stop
         offset="1"
         stop-color="#FEA914"
         stop-opacity="0"
         id="stop118" />
    </radialGradient>
    <linearGradient
       id="y"
       x1="529.25"
       x2="535.438"
       y1="-1568.638"
       y2="-1574.826"
       gradientTransform="matrix(.59259 0 0 .59259 -473.597 1147.144)"
       gradientUnits="userSpaceOnUse">
      <stop
         offset="0"
         stop-color="green"
         id="stop121" />
      <stop
         offset="1"
         stop-color="#3BE154"
         stop-opacity="0"
         id="stop123" />
    </linearGradient>
    <filter
       inkscape:collect="always"
       style="color-interpolation-filters:sRGB"
       id="filter6668"
       x="-0.054544518"
       width="1.109089"
       y="-0.043243821"
       height="1.0864876">
      <feGaussianBlur
         inkscape:collect="always"
         stdDeviation="4.000054"
         id="feGaussianBlur6670" />
    </filter>
    <filter
       inkscape:collect="always"
       style="color-interpolation-filters:sRGB"
       id="filter6646"
       x="-0.01363613"
       width="1.0272723"
       y="-0.010762476"
       height="1.021525">
      <feGaussianBlur
         inkscape:collect="always"
         stdDeviation="1.0000135"
         id="feGaussianBlur6648" />
    </filter>
    <linearGradient
       gradientUnits="userSpaceOnUse"
       y2="169.66859"
       x2="4.4137931"
       y1="386.30838"
       x1="494.34482"
       id="linearGradient4226-1"
       xlink:href="#linearGradient4338"
       inkscape:collect="always"
       gradientTransform="matrix(0,-0.453125,-0.45311204,0,251.39088,240.99185)" />
    <linearGradient
       inkscape:collect="always"
       id="linearGradient4338">
      <stop
         style="stop-color:#f2f2f2;stop-opacity:1"
         offset="0"
         id="stop4340" />
      <stop
         style="stop-color:#ffffff;stop-opacity:1"
         offset="1"
         id="stop4342" />
    </linearGradient>
    <linearGradient
       inkscape:collect="always"
       xlink:href="#linearGradient2221"
       id="linearGradient18820-3"
       x1="201.07812"
       y1="269.99988"
       x2="102.92188"
       y2="45.999878"
       gradientUnits="userSpaceOnUse"
       gradientTransform="translate(-26.571976,-27.008154)" />
    <linearGradient
       id="linearGradient2221">
      <stop
         offset="0"
         style="stop-color:#f8b921;stop-opacity:1;"
         id="stop2217" />
      <stop
         offset="1"
         style="stop-color:#cf8b2c;stop-opacity:1;"
         id="stop2219" />
    </linearGradient>
  </defs>
  <path
     style="color:#000000;display:inline;overflow:visible;visibility:visible;opacity:0.3;fill:#ffffff;fill-opacity:1;fill-rule:nonzero;stroke:none;stroke-width:1;marker:none;enable-background:accumulate"
     d="m 76.349775,16.991701 c -2.50815,0 -4.811706,0.02551 -7.011724,0.07227 -1.569122,0.03332 -3.08576,0.07667 -4.505859,0.142578 -0.892728,0.04133 -1.761123,0.08803 -2.597656,0.144531 -0.07361,0.005 -0.155337,0.0086 -0.228516,0.01367 -0.03977,0.0028 -0.07364,0.0069 -0.113281,0.0098 -1.116046,0.0793 -2.169724,0.179402 -3.1875,0.291016 -0.281403,0.03076 -0.565733,0.06033 -0.839844,0.09375 -0.275699,0.03373 -0.547991,0.06893 -0.816406,0.105469 -0.386447,0.0524 -0.76317,0.107595 -1.134766,0.166015 -0.245075,0.0387 -0.493706,0.07575 -0.732422,0.117188 -0.386714,0.06682 -0.756639,0.14256 -1.126953,0.216797 -0.50787,0.102283 -1.000729,0.211021 -1.478515,0.328125 -0.190936,0.04659 -0.386033,0.09158 -0.572266,0.140625 -0.3252,0.08602 -0.638123,0.17771 -0.949219,0.271484 -0.174106,0.05225 -0.347814,0.105413 -0.517578,0.160157 -0.331564,0.107381 -0.657357,0.218707 -0.972656,0.335937 -0.08071,0.02989 -0.158622,0.06125 -0.238281,0.0918 -1.560013,0.600541 -2.923471,1.324701 -4.107422,2.205078 -0.0015,0.0011 -0.0024,0.0028 -0.0039,0.0039 -5.393508,4.01375 -7.137225,11.222093 -7.615234,23.919926 -0.02276,0.60563 -0.04136,1.2322 -0.05859,1.86328 -0.03025,1.10471 -0.05874,2.2099 -0.07422,3.39453 0.478455,-28.913629 6.046265,-32.087926 38.882808,-32.087926 h 62.529285 c -0.85989,-0.295464 -1.74582,-0.553137 -2.65429,-0.783203 -0.15701,-0.03958 -0.31205,-0.08153 -0.47071,-0.119141 -0.38771,-0.0924 -0.78156,-0.17709 -1.17969,-0.257812 -0.28362,-0.0571 -0.57205,-0.108998 -0.86132,-0.160156 -0.33217,-0.05924 -0.66192,-0.122415 -1.00196,-0.173829 -0.61547,-0.09216 -1.24344,-0.171651 -1.88672,-0.238281 -0.25531,-0.02678 -0.51929,-0.04563 -0.77929,-0.06836 -0.49344,-0.04258 -0.99476,-0.07925 -1.50586,-0.107422 -0.26087,-0.01459 -0.52138,-0.03022 -0.78711,-0.04102 -0.75738,-0.03032 -1.52534,-0.05078 -2.32422,-0.05078 z"
     id="path7814" />
  <path
     style="color:#000000;display:inline;overflow:visible;visibility:visible;opacity:0.4;fill:#ffffff;fill-opacity:1;fill-rule:nonzero;stroke:none;stroke-width:1;marker:none;enable-background:accumulate"
     d="m 176.08219,17.081545 c -1.07122,0.357279 -1.96732,1.040077 -2.67188,1.910156 h 1.0957 c 34.15314,4e-6 38.64071,3.485189 38.89649,35.746096 0.003,-0.0384 0.0116,-0.0747 0.0137,-0.11328 -0.0538,-17.791923 -1.16737,-27.311892 -7.19531,-32.28516 -0.0612,-0.04994 -0.12336,-0.0994 -0.18555,-0.148437 -0.26948,-0.214754 -0.5509,-0.419295 -0.83984,-0.617188 -0.15131,-0.102604 -0.30423,-0.202591 -0.46094,-0.300781 -0.20346,-0.128728 -0.41408,-0.251698 -0.62695,-0.373047 -0.23799,-0.13444 -0.47866,-0.268909 -0.72852,-0.394531 -0.14196,-0.07198 -0.28962,-0.139823 -0.43555,-0.208984 -0.33143,-0.155843 -0.66556,-0.307266 -1.01757,-0.449219 -0.0474,-0.01925 -0.0968,-0.03764 -0.14453,-0.05664 -4.59757,-1.815644 -10.95134,-2.500623 -19.70704,-2.708984 h -0.0195 -3.86328 z"
     id="path7812" />
  <path
     style="color:#000000;display:inline;overflow:visible;visibility:visible;opacity:0.3;fill:#ffffff;fill-opacity:1;fill-rule:nonzero;stroke:none;stroke-width:1;marker:none;enable-background:accumulate"
     d="m 37.439614,54.532717 c -0.0028,0.49054 -0.01172,0.94046 -0.01172,1.45312 v 2 c -0.006,-1.21826 0.0063,-2.31458 0.01172,-3.45312 z"
     id="rect4158-92-3-3" />
  <path
     style="color:#000000;display:inline;overflow:visible;visibility:visible;opacity:0.2;fill:#000000;fill-opacity:1;fill-rule:nonzero;stroke:none;stroke-width:1;marker:none;enable-background:accumulate"
     d="m 37.42829,199.99756 v 2 c -0.17299,35.36812 3.62515,38.99414 38.921885,38.99414 h 98.156235 c 35.29672,0 38.00361,-3.63752 38.92188,-38.99414 v -2 c -0.91827,35.35662 -3.62516,38.99414 -38.92188,38.99414 H 76.350175 c -35.296735,0 -39.094875,-3.62602 -38.921885,-38.99414 z"
     id="path945-3"
     inkscape:connector-curvature="0" />
  <path
     style="color:#000000;display:inline;overflow:visible;visibility:visible;opacity:0.08;fill:#ffffff;fill-opacity:1;fill-rule:nonzero;stroke:none;stroke-width:8;stroke-linecap:butt;stroke-linejoin:miter;stroke-miterlimit:4;stroke-dasharray:none;stroke-dashoffset:0;stroke-opacity:1;marker:none;enable-background:accumulate"
     d="m 153.42829,240.9917 60,-60 v 22.48388 c -0.0523,33.99581 -3.80268,37.51612 -38.1741,37.51612 z"
     id="path4254-5"
     inkscape:connector-curvature="0"
     sodipodi:nodetypes="cccsc" />
  <path
     style="color:#000000;display:inline;overflow:visible;visibility:visible;opacity:0.3;fill:#000000;fill-opacity:1;fill-rule:nonzero;stroke:none;stroke-width:1;marker:none;filter:url(#filter6668);enable-background:accumulate"
     d="m 76.349905,18.991846 c -35.296731,0 -38.921881,3.625611 -38.921881,38.994141 v 71.005863 2 71.00586 c 0,35.36853 3.62514,38.99414 38.921881,38.99414 h 98.156235 c 35.29673,0 39.09487,-3.62602 38.92188,-38.99414 V 101.23208 c -0.044,-9.732901 -8.17907,-17.955623 -14.76172,-24.162113 l -0.0488,-0.0508 -40.52343,-42.4082 C 147.41718,24.049807 140.03625,18.991826 125.42805,18.991826 Z m 96.982415,0.0898 c -2.16918,2.775877 -2.38539,7.403545 0.20898,9.912109 l 28.4961,30.386719 c 3.72332,3.695483 11.11677,0.569048 11.38085,-4.777344 -0.11515,-29.584532 -4.14219,-34.875864 -31.35937,-35.521484 z"
     id="path5316-1" />
  <path
     style="color:#000000;display:inline;overflow:visible;visibility:visible;opacity:0.1;fill:#000000;fill-opacity:1;fill-rule:nonzero;stroke:none;stroke-width:1;marker:none;filter:url(#filter6646);enable-background:accumulate"
     d="m 76.349905,17.991846 c -35.296731,0 -38.921881,3.625611 -38.921881,38.994141 v 72.005863 1 72.00586 c 0,35.36853 3.62514,38.99414 38.921881,38.99414 h 98.156235 c 35.29673,0 39.09487,-3.62602 38.92188,-38.99414 V 100.23208 c -0.044,-9.732901 -8.17907,-17.955613 -14.76172,-24.162113 l -0.0488,-0.0508 -40.52343,-42.4082 C 147.41718,23.049807 140.03625,17.991826 125.42805,17.991826 Z m 97.968735,0.0898 c -3.03973,2.502305 -3.72055,8.066242 -0.77734,10.912109 l 28.4961,30.386719 c 3.72846,3.700585 11.14006,0.561079 11.38476,-4.798828 -0.032,-30.448516 -3.84872,-35.84732 -31.36328,-36.5 z"
     id="path5316-84" />
  <path
     style="color:#000000;display:inline;overflow:visible;visibility:visible;opacity:0.1;fill:none;fill-opacity:1;fill-rule:nonzero;stroke:#000000;stroke-width:4;stroke-miterlimit:4;stroke-dasharray:none;marker:none;enable-background:accumulate"
     d="m 76.349905,16.991846 c -2.17574,0 -4.226351,0.0147 -6.167971,0.0488 -29.48187,0.52784 -32.66797,5.787316 -32.66797,38.945313 v 73.005861 73.00586 c 0,33.158 3.1861,38.41747 32.66797,38.94531 1.94162,0.0341 3.992231,0.0488 6.167971,0.0488 0.0303,1e-5 0.0556,0 0.0859,0 h 98.070305 c 2.20605,0 4.28918,-0.0136 6.25586,-0.0488 29.50026,-0.52789 32.8282,-5.7877 32.66602,-38.94531 V 99.232049 c -0.044,-9.7329 -8.17907,-17.955622 -14.76172,-24.162112 l -0.0488,-0.0508 -40.52343,-42.408198 C 147.41709,22.049808 140.03622,16.991796 125.42802,16.991796 Z m 99.732415,0.0898 c -4.47461,1.4924 -5.99062,8.576599 -2.54102,11.912109 l 28.4961,30.386719 c 3.74098,3.713002 11.1935,0.541237 11.39062,-4.851563 v -7.191406 c -0.63801,-24.955042 -5.76605,-29.650559 -31.2832,-30.255859 h -3.95313 z"
     id="path5316-3" />
  <path
     style="color:#000000;display:inline;overflow:visible;visibility:visible;fill:url(#linearGradient4226-1);fill-opacity:1;fill-rule:nonzero;stroke:none;stroke-width:1;marker:none;enable-background:accumulate"
     d="m 76.349905,16.991846 c -35.296721,0 -38.921881,3.625611 -38.921881,38.994141 v 73.005863 73.00586 c 0,35.36853 3.62516,38.99414 38.921881,38.99414 h 98.156245 c 35.29673,0 39.09486,-3.62602 38.92187,-38.99414 V 99.232079 c -0.044,-9.7329 -8.17907,-17.955622 -14.76172,-24.162112 l -0.0488,-0.0508 -40.52343,-42.4082 C 147.41721,22.049787 140.03622,16.991846 125.42802,16.991846 Z"
     id="path5316"
     inkscape:connector-curvature="0" />
  <path
     style="color:#000000;display:inline;overflow:visible;visibility:visible;fill:url(#linearGradient18820-3);fill-opacity:1;fill-rule:nonzero;stroke:none;stroke-width:1;marker:none;enable-background:accumulate"
     d="m 76.349905,16.991846 c -35.296741,0 -38.921881,3.625611 -38.921881,38.994141 v 73.005863 73.00586 c 0,35.36853 3.62514,38.99414 38.921881,38.99414 h 98.156235 c 15.44232,0 24.85551,-0.69497 30.54493,-4.4375 0.40638,-0.26732 0.79483,-0.54837 1.16406,-0.84766 2.21537,-1.79573 3.77587,-4.183 4.86523,-7.3457 1.99716,-5.79828 2.40713,-14.20549 2.34766,-26.36328 V 99.232079 c -0.044,-9.7329 -8.17907,-17.955622 -14.76172,-24.162112 l -0.0488,-0.0508 -40.52343,-42.4082 C 147.41712,22.049836 140.03625,16.991826 125.42805,16.991826 Z m 99.732415,0.0898 c -4.47461,1.4924 -5.99062,8.576599 -2.54102,11.912109 l 28.4961,30.386719 c 3.73355,3.705631 11.16128,0.552964 11.38671,-4.820313 0.0482,-31.329014 -3.55328,-36.818785 -31.36523,-37.478515 h -3.86719 z"
     id="rect4158-92-3"
     sodipodi:nodetypes="sscsssssscccccssccccccc" />
  <path
     id="rect4396"
     style="display:inline;opacity:0.1;fill:#ffffff;fill-opacity:1;stroke-width:2;stroke-linejoin:round;stroke-dasharray:3, 3;enable-background:new"
     d="M 125.42802,16.991846 V 240.99185 h 49.07812 c 15.44232,0 24.85551,-0.69497 30.54493,-4.4375 0.40638,-0.26732 0.79483,-0.54837 1.16406,-0.84766 2.21537,-1.79573 3.77587,-4.183 4.86523,-7.3457 1.99716,-5.79828 2.40713,-14.20549 2.34766,-26.36328 V 99.232079 c -0.044,-9.7329 -8.17907,-17.955612 -14.76172,-24.162112 l -0.0488,-0.0508 -40.52343,-42.4082 C 147.41712,22.049836 140.03625,16.991826 125.42805,16.991826 Z m 50.6543,0.0898 c -4.47461,1.4924 -5.99062,8.576599 -2.54102,11.912109 l 28.4961,30.386719 c 3.73355,3.705631 11.16128,0.552964 11.38671,-4.820313 0.0482,-31.329014 -3.55328,-36.818785 -31.36523,-37.478515 h -3.86719 z" />
  <path
     inkscape:connector-curvature="0"
     style="color:#000000;display:inline;overflow:visible;visibility:visible;opacity:0.1;fill:#ffffff;fill-opacity:1;fill-rule:nonzero;stroke:none;stroke-width:1;marker:none;enable-background:accumulate"
     d="m 37.428414,128.99185 v 73.00683 c -0.17299,35.36812 3.62515,38.99317 38.921891,38.99317 h 98.156235 c 35.29672,0 38.00361,-3.63655 38.92188,-38.99317 v -73.00683 z"
     id="path4255-6"
     sodipodi:nodetypes="ccssscc" />
  <g
     transform="translate(-440.57911,-19.011303)"
     id="g2960"
     style="clip-rule:evenodd;display:inline;opacity:0.25;fill:#000000;fill-opacity:1;fill-rule:evenodd;stroke:#000000;enable-background:new">
    <path
       d="m 543.507,190.517 c 19.33,0 35,-15.67 35,-35 0,-19.33 -15.67,-35 -35,-35 -19.33,0 -35,15.67 -35,35 0,19.33 15.67,35 35,35 z"
       style="fill:#000000;fill-opacity:1;fill-rule:nonzero;stroke:#000000;stroke-width:5px"
       id="path2958" />
  </g>
  <g
     transform="translate(-440.57911,-19.011303)"
     id="g2964"
     style="clip-rule:evenodd;display:inline;opacity:0.25;fill:#000000;fill-opacity:1;fill-rule:evenodd;stroke:#000000;enable-background:new">
    <path
       d="m 614.508,195.5 h -37 c -4.97,0 -9,-4.029 -9,-9 v -37 c 0,-4.971 4.03,-9 9,-9 h 37 c 4.971,0 9,4.029 9,9 v 37 c 0,4.971 -4.029,9 -9,9 z"
       style="fill:#000000;fill-opacity:1;fill-rule:nonzero;stroke:#000000;stroke-width:5px;stroke-linecap:round;stroke-linejoin:round"
       id="path2962" />
  </g>
  <g
     transform="translate(-440.57911,-19.011303)"
     id="g2968"
     style="clip-rule:evenodd;display:inline;opacity:0.25;fill:#000000;fill-opacity:1;fill-rule:evenodd;stroke:#000000;enable-background:new">
    <path
       d="m 585.067,206.783 c 3.69,5.997 -0.624,13.717 -7.665,13.717 h -47.787 c -7.041,0 -11.356,-7.72 -7.665,-13.717 l 23.894,-38.828 c 3.514,-5.71 11.815,-5.71 15.329,10e-4 z"
       style="fill:#000000;fill-opacity:1;fill-rule:nonzero;stroke:#000000;stroke-width:5px;stroke-linecap:round;stroke-linejoin:round"
       id="path2966" />
  </g>
  <path
     inkscape:connector-curvature="0"
     style="color:#000000;display:inline;overflow:visible;visibility:visible;opacity:0.1;fill:#ffffff;fill-opacity:1;fill-rule:nonzero;stroke:none;stroke-width:1;marker:none;enable-background:accumulate"
     d="m 37.42829,128.9917 v 73.00683 c -0.17299,35.36812 3.62515,38.99317 38.921885,38.99317 h 98.156235 c 35.29672,0 38.00361,-3.63655 38.92188,-38.99317 V 128.9917 Z"
     id="path4255"
     sodipodi:nodetypes="ccssscc" />
  <path
     style="color:#000000;display:inline;overflow:visible;visibility:visible;opacity:0.2;fill:#000000;fill-opacity:1;fill-rule:nonzero;stroke:none;stroke-width:1;marker:none;enable-background:accumulate"
     d="m 37.42829,199.99756 v 2 c -0.17299,35.36812 3.62515,38.99414 38.921885,38.99414 h 98.156235 c 35.29672,0 38.00361,-3.63752 38.92188,-38.99414 v -2 c -0.91827,35.35662 -3.62516,38.99414 -38.92188,38.99414 H 76.350175 c -35.296735,0 -39.094875,-3.62602 -38.921885,-38.99414 z"
     id="path945"
     inkscape:connector-curvature="0" />
  <path
     style="color:#000000;display:inline;overflow:visible;visibility:visible;opacity:0.15;fill:#ffffff;fill-opacity:1;fill-rule:nonzero;stroke:none;stroke-width:8;stroke-linecap:butt;stroke-linejoin:miter;stroke-miterlimit:4;stroke-dasharray:none;stroke-dashoffset:0;stroke-opacity:1;marker:none;enable-background:accumulate"
     d="m 153.42829,240.9917 60,-60 v 22.48388 c -0.0523,33.99581 -3.80268,37.51612 -38.1741,37.51612 z"
     id="path4254"
     inkscape:connector-curvature="0"
     sodipodi:nodetypes="cccsc" />
  <g
     transform="translate(-440.57911,-21.011303)"
     id="g216"
     style="clip-rule:evenodd;display:inline;fill:#e4904e;fill-opacity:1;fill-rule:evenodd;stroke:#ffffff;enable-background:new">
    <path
       d="m 543.507,190.517 c 19.33,0 35,-15.67 35,-35 0,-19.33 -15.67,-35 -35,-35 -19.33,0 -35,15.67 -35,35 0,19.33 15.67,35 35,35 z"
       style="fill:#ebb447;fill-opacity:1;fill-rule:nonzero;stroke:#ffffff;stroke-width:5px"
       id="path214" />
  </g>
  <g
     transform="translate(-440.57911,-21.011303)"
     id="g224"
     style="clip-rule:evenodd;display:inline;fill:#e78227;fill-opacity:1;fill-rule:evenodd;stroke:#ffffff;enable-background:new">
    <path
       d="m 614.508,195.5 h -37 c -4.97,0 -9,-4.029 -9,-9 v -37 c 0,-4.971 4.03,-9 9,-9 h 37 c 4.971,0 9,4.029 9,9 v 37 c 0,4.971 -4.029,9 -9,9 z"
       style="fill:#eda921;fill-opacity:1;fill-rule:nonzero;stroke:#ffffff;stroke-width:5px;stroke-linecap:round;stroke-linejoin:round"
       id="path222" />
  </g>
  <g
     transform="translate(-440.57911,-21.011303)"
     id="g232"
     style="clip-rule:evenodd;display:inline;fill:#e67319;fill-opacity:1;fill-rule:evenodd;stroke:#ffffff;enable-background:new">
    <path
       d="m 585.067,206.783 c 3.69,5.997 -0.624,13.717 -7.665,13.717 h -47.787 c -7.041,0 -11.356,-7.72 -7.665,-13.717 l 23.894,-38.828 c 3.514,-5.71 11.815,-5.71 15.329,10e-4 z"
       style="fill:#e2a112;fill-opacity:1;fill-rule:nonzero;stroke:#ffffff;stroke-width:5px;stroke-linecap:round;stroke-linejoin:round"
       id="path230" />
  </g>
</svg>
