<?xml version="1.0" encoding="UTF-8" standalone="no"?>
<svg
   width="256"
   height="256"
   version="1.0"
   enable-background="new"
   id="svg55"
   sodipodi:docname="libreoffice-main.svg"
   inkscape:version="1.1.2 (0a00cf5339, 2022-02-04)"
   xmlns:inkscape="http://www.inkscape.org/namespaces/inkscape"
   xmlns:sodipodi="http://sodipodi.sourceforge.net/DTD/sodipodi-0.dtd"
   xmlns:xlink="http://www.w3.org/1999/xlink"
   xmlns="http://www.w3.org/2000/svg"
   xmlns:svg="http://www.w3.org/2000/svg">
  <sodipodi:namedview
     id="namedview57"
     pagecolor="#ffffff"
     bordercolor="#666666"
     borderopacity="1.0"
     inkscape:pageshadow="2"
     inkscape:pageopacity="0.0"
     inkscape:pagecheckerboard="0"
     showgrid="false"
     inkscape:zoom="1.7539563"
     inkscape:cx="116.59356"
     inkscape:cy="121.15467"
     inkscape:window-width="1920"
     inkscape:window-height="995"
     inkscape:window-x="0"
     inkscape:window-y="0"
     inkscape:window-maximized="1"
     inkscape:current-layer="svg55" />
  <defs
     id="defs35">
    <filter
       id="a"
       x="-0.023199999"
       y="-0.024857142"
       width="1.0464"
       height="1.0497143"
       color-interpolation-filters="sRGB">
      <feGaussianBlur
         stdDeviation="2.32"
         id="feGaussianBlur2" />
    </filter>
    <filter
       id="b"
       x="-0.0116"
       y="-0.012428571"
       width="1.0232"
       height="1.0248571"
       color-interpolation-filters="sRGB">
      <feGaussianBlur
         stdDeviation="1.16"
         id="feGaussianBlur5" />
    </filter>
    <linearGradient
       id="g"
       x1="296"
       x2="296"
       y1="-212"
       y2="236"
       gradientUnits="userSpaceOnUse">
      <stop
         offset="0"
         stop-color="#FFFEFE"
         id="stop8" />
      <stop
         offset=".125"
         stop-color="#FFFEFE"
         stop-opacity=".098"
         id="stop10" />
      <stop
         offset=".925"
         stop-opacity=".098"
         id="stop12" />
      <stop
         offset="1"
         stop-opacity=".498"
         id="stop14" />
    </linearGradient>
    <clipPath
       id="f">
      <path
         d="M361.938-212C507.235-212 528-191.287 528-46.125v116.25C528 215.286 507.235 236 361.937 236H214.063C68.766 236 48 215.286 48 70.125v-116.25C48-191.287 68.765-212 214.063-212z"
         fill="#9F4AC8"
         id="path17" />
    </clipPath>
    <linearGradient
       id="e"
       x1="58.663"
       x2="3.612"
       y1="224.971"
       y2="301.548"
       gradientTransform="matrix(2.83677 0 0 2.83465 31.39 -573.782)"
       gradientUnits="userSpaceOnUse">
      <stop
         offset="0"
         stop-color="#EEEDED"
         id="stop20" />
      <stop
         offset="1"
         stop-color="#FFFEFE"
         id="stop22" />
    </linearGradient>
    <filter
       id="d"
       x="-0.0116"
       y="-0.012428571"
       width="1.0232"
       height="1.0248571"
       color-interpolation-filters="sRGB">
      <feGaussianBlur
         stdDeviation=".87"
         id="feGaussianBlur25" />
    </filter>
    <linearGradient
       id="c"
       x1="120.551"
       x2="120.468"
       y1="104.433"
       y2="238.961"
       gradientUnits="userSpaceOnUse">
      <stop
         offset="0"
         stop-opacity="0"
         id="stop28" />
      <stop
         offset=".505"
         id="stop30" />
      <stop
         offset="1"
         stop-opacity="0"
         id="stop32" />
    </linearGradient>
    <filter
       inkscape:collect="always"
       style="color-interpolation-filters:sRGB"
       id="filter6668"
       x="-0.054545033"
       width="1.1090901"
       y="-0.043243825"
       height="1.0864877">
      <feGaussianBlur
         inkscape:collect="always"
         stdDeviation="4.000054"
         id="feGaussianBlur6670" />
    </filter>
    <filter
       inkscape:collect="always"
       style="color-interpolation-filters:sRGB"
       id="filter6646"
       x="-0.013636258"
       width="1.0272725"
       y="-0.010762477"
       height="1.021525">
      <feGaussianBlur
         inkscape:collect="always"
         stdDeviation="1.0000135"
         id="feGaussianBlur6648" />
    </filter>
    <linearGradient
       inkscape:collect="always"
       xlink:href="#linearGradient3976"
       id="linearGradient18820-3"
       x1="201.07812"
       y1="269.99988"
       x2="102.92188"
       y2="45.999878"
       gradientUnits="userSpaceOnUse"
       gradientTransform="translate(-24.860725,-25.297743)" />
    <linearGradient
       id="linearGradient3976">
      <stop
         offset="0"
         style="stop-color:#626262;stop-opacity:1"
         id="stop3972" />
      <stop
         offset="1"
         style="stop-color:#4e4e4e;stop-opacity:1"
         id="stop3974" />
    </linearGradient>
  </defs>
  <path
     style="color:#000000;display:inline;overflow:visible;visibility:visible;opacity:0.3;fill:#000000;fill-opacity:1;fill-rule:nonzero;stroke:none;stroke-width:1;marker:none;filter:url(#filter6668);enable-background:accumulate"
     d="m 78.061155,20.702257 c -35.29673,0 -38.92188,3.625611 -38.92188,38.994141 v 71.005862 2 71.00586 c 0,15.47373 0.693319,24.87213 4.429688,30.54883 0.533765,0.81095 1.130124,1.54501 1.794921,2.21093 5.31838,5.32748 15.048901,6.23438 32.697271,6.23438 H 176.2174 c 2.05464,0 3.9874,-0.0148 5.83399,-0.0449 0.6589,-0.0108 1.26119,-0.0352 1.89453,-0.0508 1.14935,-0.0283 2.29189,-0.0591 3.35938,-0.10547 1.26994,-0.0552 2.50934,-0.11952 3.66796,-0.20508 0.47389,-0.035 0.93478,-0.0745 1.39063,-0.11523 0.22056,-0.0197 0.44963,-0.0375 0.66601,-0.0586 0.72759,-0.0709 1.43573,-0.14684 2.11719,-0.23437 0.66796,-0.0858 1.31051,-0.18193 1.93555,-0.28516 0.22197,-0.0367 0.43176,-0.0802 0.64844,-0.11914 0.39648,-0.0713 0.79087,-0.14326 1.16992,-0.22266 0.24847,-0.052 0.4874,-0.10842 0.72851,-0.16406 0.31951,-0.0737 0.63656,-0.15017 0.94336,-0.23047 0.25892,-0.0678 0.51169,-0.13834 0.76172,-0.21094 0.28349,-0.0823 0.56172,-0.16909 0.83399,-0.25781 0.22709,-0.074 0.45245,-0.1499 0.67187,-0.22851 0.28508,-0.10213 0.5616,-0.20821 0.83399,-0.31836 0.19615,-0.0793 0.39429,-0.15856 0.58398,-0.24219 0.27476,-0.12111 0.53736,-0.25048 0.79883,-0.38086 0.17443,-0.087 0.3548,-0.17048 0.52344,-0.26172 0.40967,-0.22161 0.80523,-0.45357 1.18164,-0.70117 0.40638,-0.26732 0.79483,-0.54837 1.16406,-0.84766 0.33966,-0.27532 0.65922,-0.56925 0.96875,-0.87304 0.0745,-0.0731 0.14592,-0.14979 0.21875,-0.22461 0.22962,-0.23599 0.45095,-0.48113 0.66406,-0.73438 0.077,-0.0915 0.15554,-0.18158 0.23047,-0.27539 0.54111,-0.67772 1.02765,-1.41677 1.46484,-2.2207 0.0553,-0.10155 0.10843,-0.20689 0.16211,-0.31055 0.15861,-0.30642 0.3098,-0.62208 0.45508,-0.94726 0.0614,-0.1373 0.12454,-0.27336 0.1836,-0.41407 0.1819,-0.4336 0.35679,-0.8789 0.51757,-1.3457 0.16052,-0.46603 0.30667,-0.95474 0.44727,-1.45508 0.0408,-0.14516 0.08,-0.29328 0.11914,-0.4414 0.0645,-0.24379 0.12339,-0.50007 0.18359,-0.75196 0.14384,-0.60169 0.27581,-1.22778 0.39649,-1.87695 0.0319,-0.17177 0.0674,-0.3385 0.0976,-0.51367 0.14069,-0.8111 0.26747,-1.65503 0.37696,-2.54102 0.022,-0.17777 0.0398,-0.36992 0.0605,-0.55078 0.0825,-0.71822 0.15576,-1.46049 0.22071,-2.22851 0.0255,-0.30185 0.0493,-0.60826 0.0723,-0.91797 0.057,-0.7684 0.10605,-1.56297 0.14844,-2.38086 0.0132,-0.25434 0.0311,-0.49859 0.043,-0.75782 0.007,-0.14749 0.009,-0.31184 0.0156,-0.46093 0.0622,-1.46308 0.10249,-3.01983 0.12891,-4.64063 0.007,-0.4186 0.0128,-0.84593 0.0176,-1.27539 0.0196,-1.77364 0.0291,-3.60559 0.0195,-5.57031 V 102.94249 c -0.044,-9.7329 -8.17907,-17.95562 -14.76172,-24.162113 l -0.0488,-0.0508 -40.52343,-42.408199 c -10.67687,-10.56114 -18.0578,-15.619121 -32.666,-15.619121 z m 96.982425,0.08984 c -2.16918,2.775877 -2.38539,7.403545 0.20898,9.912109 l 28.4961,30.386719 c 3.72376,3.695922 11.11845,0.568263 11.38085,-4.779297 -0.002,-0.42002 10e-4,-0.861231 -0.002,-1.271484 -9e-4,-0.49135 -0.009,-0.953362 -0.0117,-1.431641 -0.36165,-27.253999 -4.96046,-32.190518 -31.3457,-32.816406 z"
     id="path5316-1" />
  <path
     style="color:#000000;display:inline;overflow:visible;visibility:visible;opacity:0.1;fill:#000000;fill-opacity:1;fill-rule:nonzero;stroke:none;stroke-width:1;marker:none;filter:url(#filter6646);enable-background:accumulate"
     d="m 78.061155,19.702257 c -35.29673,0 -38.92188,3.625611 -38.92188,38.994141 v 72.005862 1 72.00586 c 0,15.47373 0.693319,24.87213 4.429688,30.54883 0.533765,0.81095 1.130124,1.54501 1.794921,2.21093 5.31838,5.32748 15.048901,6.23438 32.697271,6.23438 H 176.2174 c 2.05464,0 3.9874,-0.0148 5.83399,-0.0449 0.6589,-0.0108 1.26119,-0.0352 1.89453,-0.0508 1.14935,-0.0283 2.29189,-0.0591 3.35938,-0.10547 1.26994,-0.0552 2.50934,-0.11952 3.66796,-0.20508 0.47389,-0.035 0.93478,-0.0745 1.39063,-0.11523 0.22056,-0.0197 0.44963,-0.0375 0.66601,-0.0586 0.72759,-0.0709 1.43573,-0.14684 2.11719,-0.23437 0.66796,-0.0858 1.31051,-0.18193 1.93555,-0.28516 0.22197,-0.0367 0.43176,-0.0802 0.64844,-0.11914 0.39648,-0.0713 0.79087,-0.14326 1.16992,-0.22266 0.24847,-0.052 0.4874,-0.10842 0.72851,-0.16406 0.31951,-0.0737 0.63656,-0.15017 0.94336,-0.23047 0.25892,-0.0678 0.51169,-0.13834 0.76172,-0.21094 0.28349,-0.0823 0.56172,-0.16909 0.83399,-0.25781 0.22709,-0.074 0.45245,-0.1499 0.67187,-0.22851 0.28508,-0.10213 0.5616,-0.20821 0.83399,-0.31836 0.19615,-0.0793 0.39429,-0.15856 0.58398,-0.24219 0.27476,-0.12111 0.53736,-0.25048 0.79883,-0.38086 0.17443,-0.087 0.3548,-0.17048 0.52344,-0.26172 0.40967,-0.22161 0.80523,-0.45357 1.18164,-0.70117 0.40638,-0.26732 0.79483,-0.54837 1.16406,-0.84766 0.33966,-0.27532 0.65922,-0.56925 0.96875,-0.87304 0.0745,-0.0731 0.14592,-0.14979 0.21875,-0.22461 0.22962,-0.23599 0.45095,-0.48113 0.66406,-0.73438 0.077,-0.0915 0.15554,-0.18158 0.23047,-0.27539 0.54111,-0.67772 1.02765,-1.41677 1.46484,-2.2207 0.0553,-0.10155 0.10843,-0.20689 0.16211,-0.31055 0.15861,-0.30642 0.3098,-0.62208 0.45508,-0.94726 0.0614,-0.1373 0.12454,-0.27336 0.1836,-0.41407 0.1819,-0.4336 0.35679,-0.8789 0.51757,-1.3457 0.16052,-0.46603 0.30667,-0.95474 0.44727,-1.45508 0.0408,-0.14516 0.08,-0.29328 0.11914,-0.4414 0.0645,-0.24379 0.12339,-0.50007 0.18359,-0.75196 0.14384,-0.60169 0.27581,-1.22778 0.39649,-1.87695 0.0319,-0.17177 0.0674,-0.3385 0.0976,-0.51367 0.14069,-0.8111 0.26747,-1.65503 0.37696,-2.54102 0.022,-0.17777 0.0398,-0.36992 0.0605,-0.55078 0.0825,-0.71822 0.15576,-1.46049 0.22071,-2.22851 0.0255,-0.30185 0.0493,-0.60826 0.0723,-0.91797 0.057,-0.7684 0.10605,-1.56297 0.14844,-2.38086 0.0132,-0.25434 0.0311,-0.49859 0.043,-0.75782 0.007,-0.14749 0.009,-0.31184 0.0156,-0.46093 0.0622,-1.46308 0.10249,-3.01983 0.12891,-4.64063 0.007,-0.4186 0.0128,-0.84593 0.0176,-1.27539 0.0196,-1.77364 0.0291,-3.60559 0.0195,-5.57031 V 101.94249 c -0.044,-9.7329 -8.17907,-17.955613 -14.76172,-24.162113 l -0.0488,-0.0508 -40.52343,-42.408199 c -10.67687,-10.56114 -18.0578,-15.619121 -32.666,-15.619121 z m 97.968745,0.08984 c -3.03973,2.502305 -3.72055,8.066242 -0.77734,10.912109 l 28.4961,30.386719 c 3.72891,3.701032 11.14177,0.560315 11.38476,-4.800781 -2.2e-4,-0.210853 -0.001,-0.418504 -0.002,-0.626953 -1e-4,-1.198304 -0.0128,-2.328552 -0.0254,-3.451172 -0.40326,-26.889233 -5.08512,-31.797223 -31.33594,-32.419922 z"
     id="path5316-84" />
  <path
     style="color:#000000;display:inline;overflow:visible;visibility:visible;opacity:0.1;fill:none;fill-opacity:1;fill-rule:nonzero;stroke:#000000;stroke-width:4;stroke-miterlimit:4;stroke-dasharray:none;marker:none;enable-background:accumulate"
     d="m 78.061155,18.702257 c -2.17574,0 -4.226351,0.01468 -6.167974,0.04883 -29.48187,0.527845 -32.667968,5.787316 -32.667968,38.945313 v 73.00586 73.00586 c 0,33.158 3.186098,38.41747 32.667968,38.94531 1.941623,0.0342 3.992234,0.0488 6.167974,0.0488 0.0303,1e-5 0.0556,0 0.0859,0 h 98.070315 c 2.05464,0 3.9874,-0.0148 5.83399,-0.0449 0.6589,-0.0108 1.26119,-0.0352 1.89453,-0.0508 1.14935,-0.0283 2.29189,-0.0591 3.35938,-0.10547 1.26994,-0.0552 2.50934,-0.11952 3.66796,-0.20508 0.47389,-0.035 0.93478,-0.0745 1.39063,-0.11523 0.22056,-0.0197 0.44963,-0.0375 0.66601,-0.0586 0.72759,-0.0709 1.43573,-0.14684 2.11719,-0.23437 0.66796,-0.0858 1.31051,-0.18193 1.93555,-0.28516 0.22197,-0.0367 0.43176,-0.0802 0.64844,-0.11914 0.39648,-0.0713 0.79087,-0.14326 1.16992,-0.22266 0.24847,-0.052 0.4874,-0.10842 0.72851,-0.16406 0.31951,-0.0737 0.63656,-0.15017 0.94336,-0.23047 0.25892,-0.0678 0.51169,-0.13834 0.76172,-0.21094 0.28349,-0.0823 0.56172,-0.16909 0.83399,-0.25781 0.22709,-0.074 0.45245,-0.1499 0.67187,-0.22851 0.28508,-0.10213 0.5616,-0.20821 0.83399,-0.31836 0.19615,-0.0793 0.39429,-0.15856 0.58398,-0.24219 0.27476,-0.12111 0.53736,-0.25048 0.79883,-0.38086 0.17443,-0.087 0.3548,-0.17048 0.52344,-0.26172 0.40967,-0.22161 0.80523,-0.45357 1.18164,-0.70117 0.40638,-0.26732 0.79483,-0.54837 1.16406,-0.84766 0.33966,-0.27532 0.65922,-0.56925 0.96875,-0.87304 0.0745,-0.0731 0.14592,-0.14979 0.21875,-0.22461 0.22962,-0.23599 0.45095,-0.48113 0.66406,-0.73438 0.077,-0.0915 0.15554,-0.18158 0.23047,-0.27539 0.54111,-0.67772 1.02765,-1.41677 1.46484,-2.2207 0.0553,-0.10155 0.10843,-0.20689 0.16211,-0.31055 0.15861,-0.30642 0.3098,-0.62208 0.45508,-0.94726 0.0614,-0.1373 0.12454,-0.27336 0.1836,-0.41407 0.1819,-0.4336 0.35679,-0.8789 0.51757,-1.3457 0.16052,-0.46603 0.30667,-0.95474 0.44727,-1.45508 0.0408,-0.14516 0.08,-0.29328 0.11914,-0.4414 0.0645,-0.24379 0.12339,-0.50007 0.18359,-0.75196 0.14384,-0.60169 0.27581,-1.22778 0.39649,-1.87695 0.0319,-0.17177 0.0674,-0.3385 0.0976,-0.51367 0.14069,-0.8111 0.26747,-1.65503 0.37696,-2.54102 0.022,-0.17777 0.0398,-0.36992 0.0605,-0.55078 0.0825,-0.71822 0.15576,-1.46049 0.22071,-2.22851 0.0255,-0.30185 0.0493,-0.60826 0.0723,-0.91797 0.057,-0.7684 0.10605,-1.56297 0.14844,-2.38086 0.0132,-0.25434 0.0311,-0.49859 0.043,-0.75782 0.007,-0.14749 0.009,-0.31184 0.0156,-0.46093 0.0622,-1.46308 0.10249,-3.01983 0.12891,-4.64063 0.007,-0.4186 0.0128,-0.84593 0.0176,-1.27539 0.0196,-1.77364 0.0291,-3.60559 0.0195,-5.57031 v -102.7656 c -0.044,-9.7329 -8.17907,-17.955623 -14.76172,-24.162113 l -0.0488,-0.0508 -40.52343,-42.408199 C 149.12846,23.760238 141.74748,18.702257 127.13928,18.702257 Z m 99.732425,0.08984 c -4.47461,1.4924 -5.99062,8.576599 -2.54102,11.912109 l 28.4961,30.386719 c 3.73355,3.705631 11.16128,0.552964 11.38671,-4.820313 0.0482,-31.329014 -3.55328,-36.818783 -31.36523,-37.478515 z"
     id="path5316-3" />
  <path
     style="color:#000000;display:inline;overflow:visible;visibility:visible;fill:url(#linearGradient18820-3);fill-opacity:1;fill-rule:nonzero;stroke:none;stroke-width:1;marker:none;enable-background:accumulate"
     d="m 78.061155,18.702257 c -12.133256,0 -20.524924,0.428807 -26.312505,2.427734 -2.103582,0.726592 -3.86351,1.661084 -5.333984,2.857422 -6.99e-4,5.68e-4 -0.0013,0.0014 -0.002,0.002 -1.102245,0.897465 -2.04362,1.942559 -2.84375,3.158203 -0.25536,0.38797 -0.493017,0.797219 -0.720704,1.220704 -0.05742,0.106782 -0.110296,0.220977 -0.166015,0.330078 -0.160525,0.314347 -0.31609,0.634772 -0.462891,0.96875 -0.07313,0.166359 -0.141108,0.340381 -0.210937,0.511718 -0.121003,0.2969 -0.240173,0.598017 -0.351563,0.910157 -0.07072,0.198194 -0.138107,0.401007 -0.205078,0.605469 -0.09969,0.304302 -0.195472,0.615147 -0.287109,0.933593 -0.06012,0.208926 -0.119021,0.41964 -0.175782,0.634766 -0.0932,0.353219 -0.18116,0.717644 -0.265625,1.087891 -0.04767,0.208948 -0.09564,0.414437 -0.140625,0.628906 -0.0813,0.387531 -0.155661,0.791385 -0.228515,1.197265 -0.03799,0.21171 -0.08141,0.416025 -0.117188,0.632813 -0.10327,0.625522 -0.197396,1.268747 -0.283203,1.9375 -8.5e-5,6.6e-4 8.5e-5,0.0013 0,0.002 -0.08424,0.656719 -0.159764,1.339307 -0.228515,2.039063 -0.02783,0.283412 -0.05073,0.582421 -0.07617,0.873046 -0.03812,0.435294 -0.0744,0.872494 -0.107422,1.324219 -0.08166,1.116973 -0.143662,2.302819 -0.197266,3.523438 -0.05039,1.146541 -0.08575,2.367502 -0.115234,3.609375 -0.01378,0.580741 -0.03511,1.124373 -0.04492,1.726562 -0.03028,1.853743 -0.04492,3.787114 -0.04492,5.851563 v 73.005858 73.00586 c 0,2.06445 0.01464,3.99782 0.04492,5.85156 0.0098,0.60219 0.03114,1.14582 0.04492,1.72656 0.02949,1.24188 0.06484,2.46284 0.115234,3.60938 0.0536,1.22062 0.115607,2.40646 0.197266,3.52344 0.03302,0.45172 0.0693,0.88892 0.107422,1.32422 0.02544,0.29062 0.04834,0.58963 0.07617,0.87304 0.06875,0.69976 0.144274,1.38235 0.228515,2.03906 8e-5,6.3e-4 -8e-5,0.001 0,0.002 0.08581,0.66875 0.179933,1.31198 0.283203,1.9375 0.03578,0.21679 0.0792,0.4211 0.117188,0.63281 0.07285,0.40588 0.147218,0.80973 0.228515,1.19727 0.04498,0.21447 0.09296,0.41995 0.140625,0.6289 0.08446,0.37025 0.172428,0.73467 0.265625,1.08789 0.05676,0.21513 0.115665,0.42584 0.175782,0.63477 0.09164,0.31845 0.187417,0.62929 0.287109,0.93359 0.06697,0.20446 0.134353,0.40728 0.205078,0.60547 0.11139,0.31214 0.23056,0.61326 0.351563,0.91016 0.06983,0.17134 0.137808,0.34536 0.210937,0.51172 0.146801,0.33397 0.302366,0.6544 0.462891,0.96875 0.05572,0.1091 0.108595,0.22329 0.166015,0.33007 0.227687,0.42349 0.465344,0.83274 0.720704,1.22071 0.533766,0.81095 1.130124,1.545 1.794921,2.21093 0.332399,0.33297 0.681104,0.64798 1.048829,0.94727 7.16e-4,5.8e-4 0.0012,0.001 0.002,0.002 1.470474,1.19634 3.230402,2.13083 5.333984,2.85743 5.787581,1.99892 14.179249,2.42773 26.312505,2.42773 H 176.2174 c 2.05728,0 3.98527,-0.0147 5.83399,-0.0449 0.0115,-1.9e-4 0.0217,2e-4 0.0332,0 0.64544,-0.0111 1.23908,-0.0355 1.86133,-0.0508 0.45706,-0.0113 0.88533,-0.0281 1.33594,-0.041 0.67375,-0.0212 1.37929,-0.0364 2.02344,-0.0644 0.007,-3e-4 0.0127,-0.002 0.0195,-0.002 1.25269,-0.0546 2.47469,-0.11709 3.61914,-0.20118 0.01,-7.3e-4 0.0193,-0.001 0.0293,-0.002 0.47389,-0.035 0.93478,-0.0745 1.39063,-0.11523 0.011,-9.8e-4 0.0222,-9.9e-4 0.0332,-0.002 0.21035,-0.0186 0.42719,-0.0366 0.63281,-0.0566 0.72759,-0.0709 1.43573,-0.14684 2.11719,-0.23437 0.66835,-0.0858 1.31017,-0.18189 1.93555,-0.28516 0.002,-3.4e-4 0.004,-0.002 0.006,-0.002 0.21969,-0.0365 0.42791,-0.0786 0.64258,-0.11719 0.39648,-0.0713 0.79087,-0.14326 1.16992,-0.22266 0.23853,-0.0499 0.4679,-0.10473 0.69922,-0.1582 0.01,-0.002 0.0195,-0.004 0.0293,-0.006 0.31951,-0.0737 0.63656,-0.15017 0.94336,-0.23047 0.25225,-0.0661 0.49847,-0.13446 0.74219,-0.20508 0.007,-0.002 0.0129,-0.004 0.0195,-0.006 0.28349,-0.0823 0.56172,-0.16909 0.83399,-0.25781 0.22709,-0.074 0.45245,-0.1499 0.67187,-0.22851 0.14966,-0.0536 0.29192,-0.11216 0.4375,-0.16797 0.13234,-0.0505 0.267,-0.098 0.39649,-0.15039 0.0111,-0.005 0.0221,-0.009 0.0332,-0.0137 0.18519,-0.0748 0.37186,-0.14964 0.55078,-0.22852 0.16735,-0.0738 0.32551,-0.15417 0.48633,-0.23242 0.10425,-0.0496 0.21026,-0.0975 0.3125,-0.14844 0.007,-0.004 0.0142,-0.008 0.0215,-0.0117 0.16707,-0.0828 0.33885,-0.16289 0.5,-0.25 5e-4,-2.7e-4 0.001,2.7e-4 0.002,0 0.40967,-0.22161 0.80523,-0.45357 1.18164,-0.70117 0.78027,-0.51326 1.48668,-1.08669 2.13281,-1.7207 0.001,-0.001 0.003,-0.003 0.004,-0.004 0.0711,-0.07 0.13943,-0.14323 0.20898,-0.21484 0.002,-0.002 0.004,-0.004 0.006,-0.006 0.22962,-0.23599 0.45095,-0.48113 0.66406,-0.73438 0.077,-0.0915 0.15554,-0.18158 0.23047,-0.27539 0.54111,-0.67772 1.02765,-1.41677 1.46484,-2.2207 0.0553,-0.10155 0.10843,-0.20689 0.16211,-0.31055 0.15861,-0.30642 0.3098,-0.62208 0.45508,-0.94726 0.0608,-0.13598 0.12307,-0.27089 0.18164,-0.41016 5.5e-4,-0.001 0.001,-0.003 0.002,-0.004 0.1819,-0.4336 0.35679,-0.8789 0.51757,-1.3457 0.16046,-0.46586 0.30672,-0.95495 0.44727,-1.45508 5.5e-4,-0.002 0.001,-0.004 0.002,-0.006 0.0402,-0.14328 0.0786,-0.28942 0.11719,-0.43554 0.036,-0.13607 0.0678,-0.27901 0.10156,-0.41993 0.0274,-0.10971 0.0554,-0.22073 0.082,-0.33203 6.1e-4,-0.003 0.001,-0.005 0.002,-0.008 0.14313,-0.59937 0.27435,-1.22269 0.39453,-1.86914 0.0258,-0.13905 0.0523,-0.27642 0.0781,-0.41602 0.006,-0.0333 0.0137,-0.0642 0.0195,-0.0976 1.1e-4,-6.1e-4 -1e-4,-0.001 0,-0.002 0.14057,-0.81053 0.26755,-1.65373 0.37696,-2.53906 0.006,-0.0479 0.0102,-0.099 0.0156,-0.14844 0.0159,-0.1309 0.0297,-0.26977 0.0449,-0.40234 0.002,-0.0201 0.004,-0.0423 0.006,-0.0625 0.079,-0.69309 0.15019,-1.40716 0.21289,-2.14648 5.5e-4,-0.006 10e-4,-0.0131 0.002,-0.0195 0.0255,-0.30185 0.0493,-0.60826 0.0723,-0.91797 0.057,-0.7684 0.10605,-1.56297 0.14844,-2.38086 0.008,-0.15603 0.0182,-0.31062 0.0273,-0.46485 0.005,-0.0998 0.011,-0.19246 0.0156,-0.29297 4.1e-4,-0.009 -3.8e-4,-0.0185 0,-0.0273 0.006,-0.12849 0.009,-0.2663 0.0137,-0.39648 5e-4,-0.0117 0.001,-0.0254 0.002,-0.0371 0.0622,-1.46308 0.10249,-3.01983 0.12891,-4.64063 1.8e-4,-0.0109 -1.8e-4,-0.0223 0,-0.0332 0.007,-0.40814 0.0129,-0.82391 0.0176,-1.24219 0.0196,-1.77364 0.0291,-3.60559 0.0195,-5.57031 V 100.94174 c -0.008,-1.82491 -0.30087,-3.5971 -0.81445,-5.3125 -0.34239,-1.14359 -0.78284,-2.26106 -1.30274,-3.35351 -2.85943,-6.00849 -8.11896,-11.229133 -12.64453,-15.496103 l -0.0488,-0.0508 -40.52343,-42.408195 C 149.129,23.759502 141.74813,18.701491 127.13993,18.701491 Z m 99.732425,0.08984 c -4.47461,1.4924 -5.99062,8.576599 -2.54102,11.912109 l 28.4961,30.386719 c 3.73355,3.705631 11.16128,0.552964 11.38671,-4.820313 0.003,-1.914857 -0.01,-3.726528 -0.0391,-5.453125 -0.003,-0.166807 -0.009,-0.319279 -0.0117,-0.484375 -0.0297,-1.557123 -0.0723,-3.047825 -0.13672,-4.457031 -0.0471,-1.032097 -0.1048,-2.024485 -0.17382,-2.980469 -1.15298,-15.945663 -5.54827,-21.536882 -19.66211,-23.361328 -1.29676,-0.167627 -2.6748,-0.302733 -4.14063,-0.412109 -0.70955,-0.05295 -1.44245,-0.09955 -2.19336,-0.140625 -0.009,-4.69e-4 -0.0187,-0.0015 -0.0273,-0.002 -1.56796,-0.085 -3.22479,-0.145853 -4.98047,-0.1875 z"
     id="rect4158-92-3"
     sodipodi:nodetypes="scscsssssscssssscscssscscscsssssssscsssssssssssssssccssscscscscssssscssscsscsscssscscscsscscscsssscsssscscscscscscscsscssscsscccsscccssccccssccsssccc" />
  <path
     id="rect449"
     style="display:inline;opacity:0.1;fill:#ffffff;stroke-linecap:round;stroke-linejoin:round;stroke-dasharray:3, 3;enable-background:new"
     d="M 127.13928,18.702257 V 242.70226 h 49.07812 c 2.05728,0 3.98527,-0.0147 5.83399,-0.0449 0.0115,-1.9e-4 0.0217,2e-4 0.0332,0 0.64544,-0.0111 1.23908,-0.0355 1.86133,-0.0508 0.45706,-0.0113 0.88533,-0.0281 1.33594,-0.041 0.67375,-0.0212 1.37929,-0.0365 2.02344,-0.0644 0.007,-3e-4 0.0127,-0.002 0.0195,-0.002 1.25269,-0.0546 2.47469,-0.11709 3.61914,-0.20118 0.01,-7.3e-4 0.0193,-9.5e-4 0.0293,-0.002 0.47389,-0.035 0.93478,-0.0745 1.39063,-0.11523 0.011,-9.8e-4 0.0222,-9.5e-4 0.0332,-0.002 0.21035,-0.0186 0.4272,-0.0366 0.63281,-0.0566 0.72759,-0.0709 1.43573,-0.14684 2.11719,-0.23437 0.66835,-0.0858 1.31017,-0.18189 1.93555,-0.28516 0.002,-3.4e-4 0.004,-0.002 0.006,-0.002 0.21969,-0.0365 0.42791,-0.0786 0.64258,-0.11719 0.39648,-0.0713 0.79087,-0.14326 1.16992,-0.22266 0.23853,-0.0499 0.4679,-0.10473 0.69922,-0.1582 0.01,-0.002 0.0195,-0.004 0.0293,-0.006 0.31951,-0.0737 0.63656,-0.15017 0.94336,-0.23047 0.25225,-0.0661 0.49847,-0.13446 0.74219,-0.20508 0.007,-0.002 0.0129,-0.004 0.0195,-0.006 0.28349,-0.0823 0.56172,-0.16909 0.83399,-0.25781 0.22709,-0.074 0.45245,-0.1499 0.67187,-0.22851 0.14966,-0.0536 0.29192,-0.11216 0.4375,-0.16797 0.13234,-0.0505 0.267,-0.098 0.39649,-0.15039 0.0111,-0.005 0.0221,-0.009 0.0332,-0.0137 0.18519,-0.0748 0.37186,-0.14964 0.55078,-0.22852 0.16735,-0.0738 0.32551,-0.15417 0.48633,-0.23242 0.10425,-0.0496 0.21026,-0.0975 0.3125,-0.14844 0.007,-0.004 0.0142,-0.008 0.0215,-0.0117 0.16707,-0.0828 0.33885,-0.16289 0.5,-0.25 h 0.002 c 0.40967,-0.22161 0.80523,-0.45357 1.18164,-0.70117 0.78027,-0.51326 1.48668,-1.08669 2.13281,-1.7207 l 0.004,-0.004 c 0.0711,-0.07 0.13943,-0.14323 0.20898,-0.21484 l 0.006,-0.006 c 0.22962,-0.23599 0.45095,-0.48113 0.66406,-0.73438 0.077,-0.0915 0.15554,-0.18158 0.23047,-0.27539 0.54111,-0.67772 1.02765,-1.41677 1.46484,-2.2207 0.0553,-0.10155 0.10843,-0.20689 0.16211,-0.31055 0.15861,-0.30642 0.3098,-0.62208 0.45508,-0.94726 0.0608,-0.13598 0.12307,-0.27089 0.18164,-0.41016 5.5e-4,-0.001 9.6e-4,-0.003 0.002,-0.004 0.1819,-0.4336 0.35679,-0.8789 0.51757,-1.3457 0.16046,-0.46586 0.30672,-0.95495 0.44727,-1.45508 5.5e-4,-0.002 9.5e-4,-0.004 0.002,-0.006 0.0402,-0.14328 0.0786,-0.28942 0.11719,-0.43554 0.036,-0.13607 0.0678,-0.27901 0.10156,-0.41993 0.0274,-0.10971 0.0554,-0.22073 0.082,-0.33203 6.1e-4,-0.003 9.6e-4,-0.005 0.002,-0.008 0.14313,-0.59937 0.27435,-1.22269 0.39453,-1.86914 0.0258,-0.13905 0.0523,-0.27642 0.0781,-0.41602 0.006,-0.0333 0.0137,-0.0642 0.0195,-0.0976 v -0.002 c 0.14057,-0.81052 0.26755,-1.65373 0.37696,-2.53906 0.006,-0.0479 0.0102,-0.099 0.0156,-0.14844 0.0159,-0.13089 0.0297,-0.26977 0.0449,-0.40234 0.002,-0.0201 0.004,-0.0423 0.006,-0.0625 0.079,-0.69309 0.15019,-1.40716 0.21289,-2.14648 5.5e-4,-0.006 9.6e-4,-0.0131 0.002,-0.0195 0.0255,-0.30185 0.0493,-0.60826 0.0723,-0.91797 0.057,-0.7684 0.10605,-1.56297 0.14844,-2.38086 0.008,-0.15603 0.0182,-0.31062 0.0273,-0.46485 0.005,-0.0998 0.011,-0.19246 0.0156,-0.29297 4.1e-4,-0.009 -3.8e-4,-0.0185 0,-0.0273 0.006,-0.12849 0.009,-0.2663 0.0137,-0.39648 5e-4,-0.0117 9.5e-4,-0.0254 0.002,-0.0371 0.0622,-1.46308 0.10249,-3.01983 0.12891,-4.64063 1.8e-4,-0.0109 -1.8e-4,-0.0223 0,-0.0332 0.007,-0.40814 0.0129,-0.82391 0.0176,-1.24219 0.0196,-1.77364 0.0291,-3.60559 0.0195,-5.57031 v -102.7647 c -0.008,-1.8249 -0.30087,-3.5971 -0.81445,-5.3125 -0.34239,-1.14358 -0.78284,-2.26106 -1.30274,-3.35351 -2.85942,-6.00849 -8.11896,-11.229133 -12.64453,-15.496103 l -0.0488,-0.0508 -40.52343,-42.408199 C 149.12836,23.760278 141.74747,18.702257 127.13928,18.702257 Z m 50.6543,0.08984 c -4.47461,1.492398 -5.99062,8.576602 -2.54102,11.912109 l 28.4961,30.386719 c 3.73354,3.705627 11.16128,0.552959 11.38671,-4.820313 0.003,-1.914855 -0.01,-3.726529 -0.0391,-5.453125 -0.003,-0.166806 -0.009,-0.319279 -0.0117,-0.484375 -0.0297,-1.557121 -0.0723,-3.047826 -0.13672,-4.457031 -0.0471,-1.032096 -0.1048,-2.024486 -0.17382,-2.980469 -1.15298,-15.945647 -5.54829,-21.536884 -19.66211,-23.361328 -1.29676,-0.167627 -2.6748,-0.302733 -4.14063,-0.412109 -0.70955,-0.05295 -1.44245,-0.09955 -2.19336,-0.140625 -0.009,-4.69e-4 -0.0187,-0.0015 -0.0273,-0.002 -1.56796,-0.085 -3.22479,-0.145853 -4.98047,-0.1875 z" />
  <path
     inkscape:connector-curvature="0"
     style="color:#000000;display:inline;overflow:visible;visibility:visible;opacity:0.1;fill:#ffffff;fill-opacity:1;fill-rule:nonzero;stroke:none;stroke-width:1;marker:none;enable-background:accumulate"
     d="m 39.13967,130.70226 v 73.00683 c -0.17299,35.36812 3.62515,38.99317 38.921885,38.99317 H 176.2178 c 35.29672,0 38.00361,-3.63655 38.92188,-38.99317 v -73.00683 z"
     id="path4255"
     sodipodi:nodetypes="ccssscc" />
  <path
     style="color:#000000;display:inline;overflow:visible;visibility:visible;opacity:0.2;fill:#000000;fill-opacity:1;fill-rule:nonzero;stroke:none;stroke-width:1;marker:none;enable-background:accumulate"
     d="m 39.13967,201.70812 v 2 c -0.17299,35.36812 3.62515,38.99414 38.921885,38.99414 H 176.2178 c 35.29672,0 38.00361,-3.63752 38.92188,-38.99414 v -2 c -0.91827,35.35662 -3.62516,38.99414 -38.92188,38.99414 H 78.061555 c -35.296735,0 -39.094875,-3.62602 -38.921885,-38.99414 z"
     id="path945"
     inkscape:connector-curvature="0" />
  <path
     style="color:#000000;display:inline;overflow:visible;visibility:visible;opacity:0.08;fill:#ffffff;fill-opacity:1;fill-rule:nonzero;stroke:none;stroke-width:8;stroke-linecap:butt;stroke-linejoin:miter;stroke-miterlimit:4;stroke-dasharray:none;stroke-dashoffset:0;stroke-opacity:1;marker:none;enable-background:accumulate"
     d="m 155.13968,242.70226 60,-60 v 22.48388 c -0.0523,33.99581 -3.80268,37.51612 -38.1741,37.51612 z"
     id="path4254"
     inkscape:connector-curvature="0"
     sodipodi:nodetypes="cccsc" />
  <path
     style="color:#000000;display:inline;overflow:visible;visibility:visible;opacity:0.3;fill:#ffffff;fill-opacity:1;fill-rule:nonzero;stroke:none;stroke-width:1;marker:none;enable-background:accumulate"
     d="m 78.061155,18.702257 c -2.50815,0 -4.811706,0.02551 -7.011724,0.07227 -1.569123,0.03333 -3.085758,0.07665 -4.505859,0.142578 -0.892728,0.04133 -1.761123,0.08803 -2.597656,0.144531 -0.07361,0.005 -0.155337,0.0086 -0.228516,0.01367 -0.03977,0.0028 -0.07364,0.0069 -0.113281,0.0098 -1.116046,0.0793 -2.169724,0.179402 -3.1875,0.291016 -0.281404,0.03076 -0.565732,0.06033 -0.839844,0.09375 -0.275699,0.03373 -0.547991,0.06893 -0.816406,0.105469 -0.386448,0.05241 -0.763169,0.107586 -1.134766,0.166015 -0.245075,0.0387 -0.493706,0.07575 -0.732422,0.117188 -0.386715,0.06683 -0.756638,0.14255 -1.126953,0.216797 -0.50787,0.102283 -1.000729,0.211021 -1.478515,0.328125 -0.190937,0.04659 -0.386033,0.09158 -0.572266,0.140625 -0.3252,0.08602 -0.638123,0.17771 -0.949219,0.271484 -0.174107,0.05225 -0.347813,0.105409 -0.517578,0.160157 -0.32699,0.105899 -0.647816,0.216555 -0.958984,0.332031 -0.09794,0.0362 -0.19267,0.07416 -0.289063,0.111328 -1.533658,0.593687 -2.876219,1.308506 -4.044922,2.173828 -0.01464,0.01084 -0.03034,0.02036 -0.04492,0.03125 -4.841904,3.613548 -6.740009,9.796263 -7.419922,20.238281 -0.01716,0.264046 -0.02929,0.544903 -0.04492,0.814453 -0.06629,1.140594 -0.126494,2.305415 -0.167969,3.546875 -9.88e-4,0.02958 -9.78e-4,0.06216 -0.002,0.0918 -0.04738,1.439614 -0.07924,2.944486 -0.09961,4.525391 0.472511,-28.9634 6.027958,-32.138712 38.884815,-32.138712 h 62.529295 c -0.85989,-0.295464 -1.74582,-0.553137 -2.65429,-0.783203 -0.15701,-0.03958 -0.31205,-0.08153 -0.47071,-0.119141 -0.38771,-0.0924 -0.78156,-0.17709 -1.17969,-0.257812 -0.28362,-0.0571 -0.57205,-0.108999 -0.86132,-0.160156 -0.33217,-0.05924 -0.66192,-0.122415 -1.00196,-0.173829 -0.61547,-0.09216 -1.24344,-0.171652 -1.88672,-0.238281 -0.25531,-0.02678 -0.51929,-0.04563 -0.77929,-0.06836 -0.49344,-0.04258 -0.99476,-0.07925 -1.50586,-0.107422 -0.26087,-0.01459 -0.52138,-0.03022 -0.78711,-0.04102 -0.75738,-0.03032 -1.52534,-0.05078 -2.32422,-0.05078 z"
     id="path7796" />
  <path
     style="color:#000000;display:inline;overflow:visible;visibility:visible;opacity:0.4;fill:#ffffff;fill-opacity:1;fill-rule:nonzero;stroke:none;stroke-width:1;marker:none;enable-background:accumulate"
     d="m 177.79358,18.792101 c -1.07122,0.357279 -1.96732,1.040077 -2.67188,1.910156 h 1.0957 c 34.15108,4e-6 38.64021,3.484765 38.89649,35.740234 0.003,-0.03712 0.0117,-0.07204 0.0137,-0.109375 -0.0536,-17.671398 -1.15787,-27.178174 -7.08008,-32.177734 -0.31691,-0.265045 -0.64554,-0.519153 -0.99023,-0.759766 -1.34338,-0.937742 -2.91268,-1.68853 -4.71875,-2.296875 -0.14212,-0.04772 -0.27668,-0.09862 -0.42188,-0.144531 -0.31902,-0.101184 -0.65609,-0.192499 -0.99023,-0.285156 -0.25795,-0.07131 -0.51412,-0.144507 -0.78125,-0.210938 -0.32384,-0.08078 -0.65655,-0.156631 -0.99414,-0.230468 -0.32254,-0.07033 -0.65294,-0.136909 -0.98828,-0.201172 -0.32063,-0.06164 -0.64012,-0.123397 -0.97266,-0.179688 -0.46228,-0.07802 -0.94194,-0.148582 -1.42773,-0.216797 -0.21622,-0.03046 -0.42163,-0.06516 -0.64258,-0.09375 -0.003,-3.28e-4 -0.005,-0.0016 -0.008,-0.002 -0.70741,-0.09114 -1.44413,-0.170948 -2.20118,-0.24414 -0.30752,-0.02983 -0.6294,-0.05499 -0.94531,-0.08203 -0.52075,-0.04445 -1.04787,-0.08768 -1.59179,-0.125 -0.34138,-0.02349 -0.68841,-0.04362 -1.03907,-0.06445 -0.36733,-0.02177 -0.74929,-0.04154 -1.12695,-0.06055 -1.40861,-0.07105 -2.86508,-0.128967 -4.42188,-0.166015 -0.006,-1.28e-4 -0.0105,5e-6 -0.0156,0 h -0.004 z"
     id="path7794" />
  <path
     style="color:#000000;display:inline;overflow:visible;visibility:visible;opacity:0.3;fill:#ffffff;fill-opacity:1;fill-rule:nonzero;stroke:none;stroke-width:1;marker:none;enable-background:accumulate"
     d="m 39.150994,56.124132 c -0.0019,0.539192 -0.01172,1.017567 -0.01172,1.572266 v 2 c -0.0062,-1.260292 0.0066,-2.391311 0.01172,-3.572266 z"
     id="path5316-7" />
</svg>
