<?xml version="1.0" encoding="UTF-8" standalone="no"?>
<svg
   width="256"
   height="256"
   version="1.0"
   enable-background="new"
   id="svg50"
   sodipodi:docname="livepatch.svg"
   inkscape:version="1.1.2 (0a00cf5339, 2022-02-04)"
   xmlns:inkscape="http://www.inkscape.org/namespaces/inkscape"
   xmlns:sodipodi="http://sodipodi.sourceforge.net/DTD/sodipodi-0.dtd"
   xmlns:xlink="http://www.w3.org/1999/xlink"
   xmlns="http://www.w3.org/2000/svg"
   xmlns:svg="http://www.w3.org/2000/svg">
  <sodipodi:namedview
     id="namedview52"
     pagecolor="#ffffff"
     bordercolor="#666666"
     borderopacity="1.0"
     inkscape:pageshadow="2"
     inkscape:pageopacity="0.0"
     inkscape:pagecheckerboard="0"
     showgrid="false"
     inkscape:zoom="2.4609375"
     inkscape:cx="127.79683"
     inkscape:cy="127.79683"
     inkscape:window-width="1920"
     inkscape:window-height="1022"
     inkscape:window-x="0"
     inkscape:window-y="0"
     inkscape:window-maximized="1"
     inkscape:current-layer="svg50" />
  <defs
     id="defs28">
    <filter
       id="a"
       width="1.0464"
       height="1.0497143"
       x="-0.023199999"
       y="-0.024857142"
       color-interpolation-filters="sRGB">
      <feGaussianBlur
         stdDeviation="2.32"
         id="feGaussianBlur2" />
    </filter>
    <filter
       id="b"
       width="1.0232"
       height="1.0248571"
       x="-0.0116"
       y="-0.012428571"
       color-interpolation-filters="sRGB">
      <feGaussianBlur
         stdDeviation="1.16"
         id="feGaussianBlur5" />
    </filter>
    <linearGradient
       id="f"
       x1="296"
       x2="296"
       y1="-212"
       y2="236"
       gradientUnits="userSpaceOnUse">
      <stop
         offset="0"
         stop-color="#FFFEFE"
         id="stop8" />
      <stop
         offset=".125"
         stop-color="#FFFEFE"
         stop-opacity=".098"
         id="stop10" />
      <stop
         offset=".925"
         stop-opacity=".098"
         id="stop12" />
      <stop
         offset="1"
         stop-opacity=".498"
         id="stop14" />
    </linearGradient>
    <filter
       id="d"
       width="1.0950861"
       height="1.0970269"
       x="-0.047543048"
       y="-0.048513433"
       color-interpolation-filters="sRGB">
      <feGaussianBlur
         stdDeviation=".283"
         id="feGaussianBlur17" />
    </filter>
    <linearGradient
       id="c"
       x1="186.568"
       x2="55.568"
       y1="292"
       y2="56.864"
       gradientTransform="translate(0 -44)"
       gradientUnits="userSpaceOnUse">
      <stop
         offset="0"
         stop-color="#F48B00"
         id="stop20" />
      <stop
         offset="1"
         stop-color="#F43125"
         id="stop22" />
    </linearGradient>
    <clipPath
       id="e">
      <path
         d="M361.938-212C507.235-212 528-191.287 528-46.125v116.25C528 215.286 507.235 236 361.937 236H214.063C68.766 236 48 215.286 48 70.125v-116.25C48-191.287 68.765-212 214.063-212z"
         fill="#9F4AC8"
         id="path25" />
    </clipPath>
    <filter
       inkscape:collect="always"
       style="color-interpolation-filters:sRGB"
       id="filter48967"
       x="-0.012"
       width="1.024"
       y="-0.012"
       height="1.024">
      <feGaussianBlur
         inkscape:collect="always"
         stdDeviation="1.12"
         id="feGaussianBlur48969" />
    </filter>
    <filter
       inkscape:collect="always"
       style="color-interpolation-filters:sRGB"
       id="filter48952"
       x="-0.048"
       width="1.096"
       y="-0.048"
       height="1.096">
      <feGaussianBlur
         inkscape:collect="always"
         stdDeviation="4.48"
         id="feGaussianBlur48954" />
    </filter>
    <linearGradient
       inkscape:collect="always"
       xlink:href="#linearGradient7537"
       id="linearGradient11065"
       x1="104"
       y1="44"
       x2="200"
       y2="268"
       gradientUnits="userSpaceOnUse"
       gradientTransform="translate(-280,-283.81268)" />
    <linearGradient
       id="linearGradient7537">
      <stop
         style="stop-color:#f37e40;stop-opacity:1"
         offset="0"
         id="stop7539" />
      <stop
         style="stop-color:#f34f17;stop-opacity:1"
         offset="1"
         id="stop7541" />
    </linearGradient>
    <filter
       inkscape:collect="always"
       style="color-interpolation-filters:sRGB"
       id="filter5358"
       x="-0.11333348"
       width="1.226667"
       y="-0.12749981"
       height="1.2549996">
      <feGaussianBlur
         inkscape:collect="always"
         stdDeviation="6.7999903"
         id="feGaussianBlur5360" />
    </filter>
    <filter
       inkscape:collect="always"
       style="color-interpolation-filters:sRGB"
       id="filter5380"
       x="-0.011333349"
       width="1.0226667"
       y="-0.012749982"
       height="1.0255">
      <feGaussianBlur
         inkscape:collect="always"
         stdDeviation="0.67999903"
         id="feGaussianBlur5382" />
    </filter>
  </defs>
  <circle
     style="display:inline;opacity:0.1;fill:#000000;fill-opacity:1;stroke:none;stroke-width:1;stroke-linecap:round;stroke-linejoin:round;stroke-miterlimit:4;stroke-dasharray:none;stroke-opacity:1;filter:url(#filter48967);enable-background:new"
     id="path11042-4"
     r="112"
     cy="128.8127"
     cx="128" />
  <circle
     style="display:inline;opacity:0.2;fill:#000000;fill-opacity:1;stroke:none;stroke-width:1;stroke-linecap:round;stroke-linejoin:round;stroke-miterlimit:4;stroke-dasharray:none;stroke-opacity:1;filter:url(#filter48952);enable-background:new"
     id="path11042-9"
     r="112"
     cy="128.8127"
     cx="128" />
  <circle
     style="display:inline;fill:url(#linearGradient11065);fill-opacity:1;stroke:none;stroke-width:1;stroke-linecap:round;stroke-linejoin:round;stroke-miterlimit:4;stroke-dasharray:none;stroke-opacity:1;enable-background:new"
     id="path11042"
     r="112"
     cy="-127.81268"
     cx="-128"
     transform="scale(-1)" />
  <path
     inkscape:connector-curvature="0"
     style="display:inline;opacity:0.1;fill:#000000;fill-opacity:1;stroke-width:0.8;filter:url(#filter5358);enable-background:new"
     d="m 124,67.812708 c -6.62742,0 -12,5.372584 -12,12.000004 0,6.62742 5.37258,12 12,12 0.45055,-0.005 0.90048,-0.0346 1.34765,-0.0898 0.78676,0.0585 1.66621,0.0898 2.65235,0.0898 a 40,40 0 0 1 40,39.999998 40,40 0 0 1 -40,40 40,40 0 0 1 -39.148435,-32 h 13.746095 c 4.15216,-8.9e-4 6.74675,-2.69417 4.67187,-4.84961 L 82.671885,109.4299 c -0.91856,-0.95362 -2.58271,-1.5614 -4.41797,-1.61328 -2.01601,-0.0565 -3.91674,0.56578 -4.925785,1.61328 l -24.597656,25.5332 c -2.07488,2.15544 0.519711,4.84873 4.671875,4.84961 H 64.51563 c 3.939742,31.56727 30.849733,56 63.48437,56 35.34621,0 64,-28.65378 64,-64 0,-35.346218 -28.65379,-64.000046 -64,-64.000002 -0.90189,10e-7 -1.68057,0.0461 -2.37306,0.125 -0.53885,-0.07853 -1.08242,-0.120296 -1.62694,-0.125 z"
     id="path5281-3" />
  <path
     inkscape:connector-curvature="0"
     style="display:inline;opacity:0.1;fill:#000000;fill-opacity:1;stroke-width:0.8;filter:url(#filter5380);enable-background:new"
     d="m 124,65.812708 c -6.62742,0 -12,5.372583 -12,12.000004 0,6.62742 5.37258,12 12,12 0.45055,-0.005 0.90048,-0.0346 1.34765,-0.0898 0.78676,0.0585 1.66621,0.0898 2.65235,0.0898 a 40,40 0 0 1 40,39.999998 40,40 0 0 1 -40,40 40,40 0 0 1 -39.148435,-32 h 13.746095 c 4.15216,-8.9e-4 6.74675,-2.69417 4.67187,-4.84961 L 82.671885,107.4299 c -0.91856,-0.95362 -2.58271,-1.5614 -4.41797,-1.61328 -2.01601,-0.0565 -3.91674,0.56578 -4.925785,1.61328 l -24.597656,25.5332 c -2.07488,2.15544 0.519711,4.84873 4.671875,4.84961 H 64.51563 c 3.939742,31.56727 30.849733,56 63.48437,56 35.34621,0 64,-28.65378 64,-64 0,-35.346218 -28.65379,-64.000046 -64,-64.000002 -0.90189,10e-7 -1.68057,0.0461 -2.37306,0.125 -0.53885,-0.07853 -1.08242,-0.120296 -1.62694,-0.125 z"
     id="path5281-5" />
  <path
     style="display:inline;fill:#faf8f6;fill-opacity:1;stroke-width:0.8;enable-background:new"
     d="m 124,63.812708 c -6.62742,0 -12,5.372583 -12,12.000004 0,6.62742 5.37258,12 12,12 0.45055,-0.005 0.90048,-0.0346 1.34765,-0.0898 0.78676,0.0585 1.66621,0.0898 2.65235,0.0898 a 40,40 0 0 1 40,39.999998 40,40 0 0 1 -40,40 40,40 0 0 1 -39.148435,-32 h 13.746095 c 4.15216,-8.9e-4 6.74675,-2.69417 4.67187,-4.84961 L 82.671885,105.4299 c -0.91856,-0.95362 -2.58271,-1.5614 -4.41797,-1.61328 -2.01601,-0.0565 -3.91674,0.56578 -4.925785,1.61328 l -24.597656,25.5332 c -2.07488,2.15544 0.519711,4.84873 4.671875,4.84961 H 64.51563 c 3.939742,31.56727 30.849733,56 63.48437,56 35.34621,0 64,-28.65378 64,-64 0,-35.346218 -28.65379,-64.000046 -64,-64.000002 -0.90189,10e-7 -1.68057,0.0461 -2.37306,0.125 -0.53885,-0.07853 -1.08242,-0.120296 -1.62694,-0.125 z"
     id="path5281"
     inkscape:connector-curvature="0" />
  <path
     style="display:inline;opacity:0.1;fill:#ffffff;fill-opacity:1;stroke:none;stroke-width:10.6667;stroke-linecap:round;stroke-linejoin:round;stroke-miterlimit:4;stroke-dasharray:none;stroke-opacity:1;enable-background:new"
     d="M 16.000005,137.50861 A 112.5345,112.53445 0 0 0 127.97753,239.8127 112.5345,112.53445 0 0 0 240,137.50861 Z"
     id="rect12119"
     inkscape:connector-curvature="0" />
  <path
     inkscape:connector-curvature="0"
     style="display:inline;opacity:0.2;fill:#000000;fill-opacity:1;stroke:none;stroke-width:1;stroke-linecap:round;stroke-linejoin:round;stroke-miterlimit:4;stroke-dasharray:none;stroke-opacity:1;enable-background:new"
     d="m 128,239.81269 a 112,112 0 0 1 -111.999995,-112 112,112 0 0 1 0.04102,-1.16992 A 112,112 0 0 0 128,237.81269 112,112 0 0 0 239.95898,126.98261 a 112,112 0 0 1 0.041,0.83008 112,112 0 0 1 -112,112 z"
     id="path11042-1-7" />
  <path
     style="display:inline;opacity:0.3;fill:#ffffff;fill-opacity:1;stroke:none;stroke-width:1;stroke-linecap:round;stroke-linejoin:round;stroke-miterlimit:4;stroke-dasharray:none;stroke-opacity:1;enable-background:new"
     d="M 128,15.812697 A 112,112 0 0 0 16.000005,127.81269 112,112 0 0 0 16.041025,128.98261 112,112 0 0 1 128,17.812697 112,112 0 0 1 239.95898,128.64277 a 112,112 0 0 0 0.041,-0.83008 112,112 0 0 0 -112,-111.999993 z"
     id="path11042-1"
     inkscape:connector-curvature="0" />
</svg>
