<?xml version="1.0" encoding="UTF-8" standalone="no"?>
<svg
   width="256"
   height="256"
   version="1.0"
   enable-background="new"
   id="svg73"
   sodipodi:docname="mine.svg"
   inkscape:version="1.1.2 (0a00cf5339, 2022-02-04)"
   xmlns:inkscape="http://www.inkscape.org/namespaces/inkscape"
   xmlns:sodipodi="http://sodipodi.sourceforge.net/DTD/sodipodi-0.dtd"
   xmlns:xlink="http://www.w3.org/1999/xlink"
   xmlns="http://www.w3.org/2000/svg"
   xmlns:svg="http://www.w3.org/2000/svg">
  <sodipodi:namedview
     id="namedview75"
     pagecolor="#ffffff"
     bordercolor="#666666"
     borderopacity="1.0"
     inkscape:pageshadow="2"
     inkscape:pageopacity="0.0"
     inkscape:pagecheckerboard="0"
     showgrid="false"
     inkscape:zoom="1.2526286"
     inkscape:cx="-11.575658"
     inkscape:cy="146.49194"
     inkscape:window-width="1920"
     inkscape:window-height="1014"
     inkscape:window-x="0"
     inkscape:window-y="32"
     inkscape:window-maximized="1"
     inkscape:current-layer="svg73" />
  <defs
     id="defs21">
    <filter
       id="b"
       width="1.0464"
       height="1.0497143"
       x="-0.023199999"
       y="-0.024857142"
       color-interpolation-filters="sRGB">
      <feGaussianBlur
         stdDeviation="2.32"
         id="feGaussianBlur2" />
    </filter>
    <filter
       id="c"
       width="1.0232"
       height="1.0248571"
       x="-0.0116"
       y="-0.012428571"
       color-interpolation-filters="sRGB">
      <feGaussianBlur
         stdDeviation="1.16"
         id="feGaussianBlur5" />
    </filter>
    <linearGradient
       id="e"
       x1="296"
       x2="296"
       y1="-212"
       y2="236"
       gradientUnits="userSpaceOnUse"
       xlink:href="#a" />
    <linearGradient
       id="a">
      <stop
         offset="0"
         stop-color="#FFFEFE"
         id="stop9" />
      <stop
         offset=".125"
         stop-color="#FFFEFE"
         stop-opacity=".098"
         id="stop11" />
      <stop
         offset=".925"
         stop-opacity=".098"
         id="stop13" />
      <stop
         offset="1"
         stop-opacity=".498"
         id="stop15" />
    </linearGradient>
    <clipPath
       id="d"
       clipPathUnits="userSpaceOnUse">
      <path
         d="M361.938-212C507.235-212 528-191.287 528-46.125v116.25C528 215.286 507.235 236 361.937 236H214.063C68.766 236 48 215.286 48 70.125v-116.25C48-191.287 68.765-212 214.063-212z"
         fill="#9F4AC8"
         id="path18" />
    </clipPath>
    <filter
       inkscape:collect="always"
       style="color-interpolation-filters:sRGB"
       id="filter58492"
       x="-0.011999856"
       width="1.0239997"
       y="-0.012000144"
       height="1.0240003">
      <feGaussianBlur
         inkscape:collect="always"
         stdDeviation="1.1200135"
         id="feGaussianBlur58494" />
    </filter>
    <filter
       inkscape:collect="always"
       style="color-interpolation-filters:sRGB"
       id="filter58449"
       x="-0.047999426"
       width="1.0959989"
       y="-0.048000576"
       height="1.0960012">
      <feGaussianBlur
         inkscape:collect="always"
         stdDeviation="4.4800539"
         id="feGaussianBlur58451" />
    </filter>
    <linearGradient
       inkscape:collect="always"
       xlink:href="#linearGradient4338-7"
       id="linearGradient1694"
       x1="38.309559"
       y1="270.69043"
       x2="263.99759"
       y2="267.99701"
       gradientUnits="userSpaceOnUse"
       gradientTransform="rotate(90,154.09362,130.88062)" />
    <linearGradient
       inkscape:collect="always"
       id="linearGradient4338-7">
      <stop
         style="stop-color:#2b898f;stop-opacity:1"
         offset="0"
         id="stop4340-2" />
      <stop
         style="stop-color:#5bdbc1;stop-opacity:1"
         offset="1"
         id="stop4342-6" />
    </linearGradient>
    <linearGradient
       inkscape:collect="always"
       xlink:href="#linearGradient24047"
       id="linearGradient24049-5-1-9"
       x1="152"
       y1="140"
       x2="153"
       y2="116"
       gradientUnits="userSpaceOnUse"
       gradientTransform="translate(-23.022373,-11.215701)" />
    <linearGradient
       inkscape:collect="always"
       id="linearGradient24047">
      <stop
         style="stop-color:#1a1a1a;stop-opacity:1;"
         offset="0"
         id="stop24043" />
      <stop
         style="stop-color:#1a1a1a;stop-opacity:0;"
         offset="1"
         id="stop24045" />
    </linearGradient>
    <filter
       inkscape:collect="always"
       style="color-interpolation-filters:sRGB"
       id="filter1489"
       x="-0.12707583"
       width="1.2541517"
       y="-0.11367074"
       height="1.2273415">
      <feGaussianBlur
         inkscape:collect="always"
         stdDeviation="7.1044936"
         id="feGaussianBlur1491" />
    </filter>
    <filter
       inkscape:collect="always"
       style="color-interpolation-filters:sRGB"
       id="filter1497"
       x="-0.012707582"
       width="1.0254152"
       y="-0.011367074"
       height="1.0227341">
      <feGaussianBlur
         inkscape:collect="always"
         stdDeviation="0.71044936"
         id="feGaussianBlur1499" />
    </filter>
    <linearGradient
       inkscape:collect="always"
       xlink:href="#linearGradient24047"
       id="linearGradient24049-5-1"
       x1="152"
       y1="140"
       x2="153"
       y2="116"
       gradientUnits="userSpaceOnUse"
       gradientTransform="translate(-23.022373,4.7842991)" />
    <linearGradient
       inkscape:collect="always"
       xlink:href="#linearGradient24047"
       id="linearGradient24049-5-2"
       x1="152"
       y1="140"
       x2="153"
       y2="116"
       gradientUnits="userSpaceOnUse"
       gradientTransform="translate(-23.022373,20.784299)" />
  </defs>
  <path
     style="color:#000000;display:inline;overflow:visible;visibility:visible;opacity:0.1;fill:#000000;fill-opacity:1;fill-rule:nonzero;stroke:none;stroke-width:1;marker:none;filter:url(#filter58492);enable-background:accumulate"
     d="m 202.0502,17.784591 c 35.29673,0 39.09461,3.62542 38.92162,38.99353 v 73.006469 73.00648 c 0.17299,35.36812 -3.62489,38.99353 -38.92162,38.99353 H 55.893448 c -35.296708,0 -38.921608,-3.625 -38.921608,-38.99353 V 129.78459 56.778121 c 0,-35.36853 3.6249,-38.99353 38.921608,-38.99353 z"
     id="rect4158-7"
     inkscape:connector-curvature="0"
     sodipodi:nodetypes="scccssscsss" />
  <path
     style="color:#000000;display:inline;overflow:visible;visibility:visible;opacity:0.2;fill:#000000;fill-opacity:1;fill-rule:nonzero;stroke:none;stroke-width:1;marker:none;filter:url(#filter58449);enable-background:accumulate"
     d="m 202.0502,17.784591 c 35.29673,0 39.09461,3.62542 38.92162,38.99353 v 73.006469 73.00648 c 0.17299,35.36812 -3.62489,38.99353 -38.92162,38.99353 H 55.893448 c -35.296708,0 -38.921608,-3.625 -38.921608,-38.99353 V 129.78459 56.778121 c 0,-35.36853 3.6249,-38.99353 38.921608,-38.99353 z"
     id="rect4158-1"
     inkscape:connector-curvature="0"
     sodipodi:nodetypes="scccssscsss" />
  <path
     style="color:#000000;display:inline;overflow:visible;visibility:visible;fill:url(#linearGradient1694);fill-opacity:1;fill-rule:nonzero;stroke:none;stroke-width:1;marker:none;enable-background:accumulate"
     d="m 202.0502,16.784295 c 35.29673,0 39.09461,3.62542 38.92162,38.99353 v 73.006465 73.00648 c 0.17299,35.36812 -3.62489,38.99353 -38.92162,38.99353 H 55.893448 c -35.296708,0 -38.921608,-3.625 -38.921608,-38.99353 V 128.78429 55.777825 c 0,-35.36853 3.6249,-38.99353 38.921608,-38.99353 z"
     id="rect4158"
     inkscape:connector-curvature="0"
     sodipodi:nodetypes="scccssscsss" />
  <path
     style="color:#000000;display:inline;overflow:visible;visibility:visible;opacity:0.1;fill:url(#linearGradient24049-5-1-9);fill-opacity:1;fill-rule:nonzero;stroke:none;stroke-width:1;marker:none;enable-background:accumulate"
     d="m 72.977628,96.784302 c -18.856181,0 -56.000001,7.999998 -56.000001,7.999998 v 16 c 0,0 37.14382,-8 56.000001,-8 37.712362,0 74.287642,16 112.000002,16 18.85618,0 56,-8 56,-8 v -16 c 0,0 -37.14382,8 -56,8 -37.71236,0 -74.28764,-15.999998 -112.000002,-15.999998 z"
     id="rect4158-97-5-2-1-6-3-6"
     inkscape:connector-curvature="0" />
  <g
     transform="translate(-23.022373,-27.215701)"
     style="display:inline;enable-background:new"
     id="g23767">
    <rect
       y="236"
       x="150"
       height="32"
       width="4"
       id="rect23761"
       style="opacity:1;vector-effect:none;fill:#313131;fill-opacity:1;stroke:none;stroke-width:2;stroke-linecap:butt;stroke-linejoin:miter;stroke-miterlimit:4;stroke-dasharray:none;stroke-dashoffset:0;stroke-opacity:1;marker:none" />
    <rect
       ry="2"
       rx="2"
       y="232"
       x="148"
       height="8"
       width="8"
       id="rect23738"
       style="opacity:1;vector-effect:none;fill:#3b3b3b;fill-opacity:1;stroke:none;stroke-width:2;stroke-linecap:butt;stroke-linejoin:miter;stroke-miterlimit:4;stroke-dasharray:none;stroke-dashoffset:0;stroke-opacity:1;marker:none" />
    <rect
       ry="2"
       rx="2"
       y="244"
       x="148"
       height="8"
       width="8"
       id="rect23738-9"
       style="display:inline;opacity:1;vector-effect:none;fill:#3b3b3b;fill-opacity:1;stroke:none;stroke-width:2;stroke-linecap:butt;stroke-linejoin:miter;stroke-miterlimit:4;stroke-dasharray:none;stroke-dashoffset:0;stroke-opacity:1;marker:none;enable-background:new" />
    <rect
       ry="2"
       rx="2"
       y="256"
       x="148"
       height="8"
       width="8"
       id="rect23738-3"
       style="display:inline;opacity:1;vector-effect:none;fill:#3b3b3b;fill-opacity:1;stroke:none;stroke-width:2;stroke-linecap:butt;stroke-linejoin:miter;stroke-miterlimit:4;stroke-dasharray:none;stroke-dashoffset:0;stroke-opacity:1;marker:none;enable-background:new" />
  </g>
  <path
     inkscape:connector-curvature="0"
     style="display:inline;fill:#b3b3b3;fill-opacity:1;stroke:none;stroke-width:3;stroke-linecap:round;stroke-linejoin:round;stroke-miterlimit:4;stroke-dasharray:none;stroke-dashoffset:0;stroke-opacity:1;enable-background:new"
     d="m 156.514,77.756971 a 6,6 0 0 0 -4.91211,2.99414 6,6 0 0 0 2.19531,8.19531 6,6 0 0 0 8.19531,-2.19531 6,6 0 0 0 -2.19531,-8.19727 6,6 0 0 0 -3.2832,-0.79687 z M 78.797198,122.78431 a 6,6 0 0 0 -6,6 6,6 0 0 0 6,6 6,6 0 0 0 6,-6 6,6 0 0 0 -6,-6 z m 77.859382,45.03515 a 6,6 0 0 0 -2.85938,0.80273 6,6 0 0 0 -2.19531,8.19531 6,6 0 0 0 8.19531,2.19532 6,6 0 0 0 2.19531,-8.19532 6,6 0 0 0 -5.33593,-2.99804 z"
     id="circle1245"
     inkscape:export-xdpi="96"
     inkscape:export-ydpi="96"
     inkscape:export-filename="/home/stuart/Pictures/gnome-mines.svg.png" />
  <path
     inkscape:connector-curvature="0"
     style="color:#000000;display:inline;overflow:visible;visibility:visible;opacity:0.4;fill:#000000;fill-opacity:1;fill-rule:nonzero;stroke:none;stroke-width:16.0783;stroke-linecap:butt;stroke-linejoin:miter;stroke-miterlimit:4;stroke-dasharray:none;stroke-dashoffset:0;stroke-opacity:1;marker:none;filter:url(#filter1489);enable-background:accumulate"
     d="m 128.79732,57.790721 c -5.39372,-0.06 -7.28039,0.14029 -8.03906,6.66211 l -0.28906,2.30468 c -0.66573,4.22983 -0.793,6.14518 -4.79493,7.18165 -0.26817,0.0599 -0.53589,0.12006 -0.80273,0.18359 -0.0631,0.013 -0.11885,0.0282 -0.1836,0.041 l 0.008,0.002 c -0.58868,0.14202 -1.16644,0.31108 -1.74805,0.4707 v 0.26563 a 60,60 0 0 0 -26.351562,15.16406 l -0.1543,-0.0898 c -0.4621,0.45783 -0.93126,0.9086 -1.37891,1.38086 l 0.0215,-0.10157 c -3.33739,3.82107 -5.00215,2.95911 -9.30468,1.30274 l -2.14063,-0.90235 c -1.88356,-0.81371 -3.28745,-1.22275 -4.4082,-1.25781 -2.46567,-0.0772 -3.56053,1.65668 -5.37891,4.88867 -2.74879,4.641101 -3.52068,6.375019 1.74805,10.292969 l 1.85156,1.4043 c 3.34293,2.7017 4.93866,3.76564 3.81055,7.78711 -0.047,0.14937 -0.0909,0.29936 -0.13672,0.44922 -0.0489,0.1566 -0.0919,0.30729 -0.14844,0.47265 l 0.01,-0.01 c -0.14784,0.49761 -0.2707,1.00525 -0.40625,1.50781 l 0.21875,0.12695 a 60,60 0 0 0 -2.10178,15.46695 60,60 0 0 0 2.04101,15.40234 l -0.18164,0.10547 c 0.14251,0.53154 0.27341,1.06776 0.42969,1.59375 l -0.0117,-0.01 c 0.0565,0.16537 0.10147,0.31605 0.15039,0.47265 0.0458,0.14985 0.0897,0.29986 0.13672,0.44922 1.12811,4.02147 -0.46762,5.08542 -3.81055,7.78711 l -1.85156,1.4043 c -5.26873,3.91794 -4.49684,5.6499 -1.74805,10.29101 2.64491,4.70108 3.75971,6.23474 9.78711,3.63086 l 2.14062,-0.90039 c 4.30253,-1.65637 5.9673,-2.51832 9.30469,1.30274 l -0.0234,-0.10157 c 0.42704,0.45053 0.87567,0.87952 1.31641,1.31641 l 0.17969,-0.10352 a 60,60 0 0 0 26.390622,15.18555 v 0.32227 c 0.58161,0.15962 1.15937,0.32868 1.74805,0.4707 l -0.008,0.002 c 0.0647,0.0128 0.12053,0.028 0.1836,0.041 0.26684,0.0635 0.53456,0.12365 0.80273,0.18359 4.00193,1.03647 4.12918,2.95182 4.79493,7.18164 l 0.28906,2.30469 c 0.75867,6.52182 2.64534,6.72209 8.03906,6.66211 5.39371,0.06 7.28039,-0.14029 8.03906,-6.66211 l 0.28906,-2.30469 c 0.66577,-4.22983 0.79299,-6.14518 4.79493,-7.18164 0.26817,-0.06 0.5359,-0.12007 0.80273,-0.18359 0.0631,-0.0131 0.11885,-0.0281 0.1836,-0.041 l -0.008,-0.002 c 0.52168,-0.12585 1.03274,-0.27823 1.54883,-0.41797 v -0.31836 a 60,60 0 0 0 26.625,-15.45703 l 0.29297,0.16992 c 0.38888,-0.38913 0.78745,-0.76857 1.16602,-1.16797 l -0.0215,0.10157 c 3.3374,-3.82106 5.00215,-2.95912 9.30469,-1.30274 l 2.14062,0.90235 c 6.0274,2.60387 7.14218,1.07022 9.78711,-3.63086 2.74879,-4.64111 3.5207,-6.37503 -1.74804,-10.29297 l -1.85157,-1.4043 c -3.34293,-2.70168 -4.93866,-3.76564 -3.81054,-7.78711 0.047,-0.14936 0.0908,-0.29937 0.13672,-0.44922 0.0489,-0.1566 0.092,-0.30728 0.14843,-0.47265 l -0.01,0.01 c 0.17637,-0.59363 0.32563,-1.19811 0.48437,-1.79883 l -0.39648,-0.22851 a 60,60 0 0 0 2.0023,-15.07422 60,60 0 0 0 -1.99023,-15.17969 l 0.36132,-0.20898 c -0.15198,-0.57166 -0.29299,-1.14764 -0.46093,-1.71289 l 0.0117,0.01 c -0.0565,-0.16536 -0.10152,-0.31604 -0.15039,-0.47265 -0.0458,-0.14986 -0.0897,-0.29985 -0.13672,-0.44922 -1.12811,-4.02147 0.46762,-5.08541 3.81054,-7.78711 l 1.85157,-1.4043 c 5.26873,-3.91794 4.49684,-5.649898 1.74804,-10.291009 -1.81838,-3.23199 -2.91322,-4.96776 -5.3789,-4.89063 -1.12074,0.0351 -2.52465,0.44605 -4.40821,1.25977 l -2.14062,0.90039 c -4.30247,1.6564 -5.9673,2.51834 -9.30469,-1.30274 l 0.0234,0.10157 c -0.39948,-0.42146 -0.82093,-0.82098 -1.23242,-1.23047 l -0.29688,0.17189 a 60,60 0 0 0 -26.55658,-15.34008 v -0.375 c -0.51609,-0.13974 -1.02715,-0.29212 -1.54883,-0.41797 l 0.008,-0.002 c -0.0647,-0.0127 -0.12052,-0.028 -0.1836,-0.041 -0.26683,-0.0635 -0.53456,-0.12365 -0.80273,-0.1836 -4.00194,-1.03647 -4.12918,-2.95181 -4.79493,-7.18164 l -0.28906,-2.30468 c -0.75862,-6.52181 -2.64553,-6.72204 -8.03924,-6.66206 z"
     id="path4356-9-1"
     inkscape:export-xdpi="96"
     inkscape:export-ydpi="96"
     inkscape:export-filename="/home/stuart/Pictures/gnome-mines.svg.png" />
  <path
     style="color:#000000;display:inline;overflow:visible;visibility:visible;opacity:0.2;fill:#81e9c0;fill-opacity:1;fill-rule:nonzero;stroke:none;stroke-width:1;marker:none;enable-background:accumulate"
     d="m 16.977637,104.7846 v 97.00586 c -0.17299,35.36812 3.62514,38.99414 38.921871,38.99414 H 202.05576 c 35.29671,0 38.92188,-3.62561 38.92188,-38.99414 V 104.7846 c 0,0 -37.14382,8 -56,8 -37.71236,0 -74.28764,-15.999998 -112.000002,-15.999998 -18.856181,0 -56.000001,7.999998 -56.000001,7.999998 z"
     id="rect4158-97-1-49"
     inkscape:connector-curvature="0"
     sodipodi:nodetypes="ccssscaac" />
  <path
     inkscape:connector-curvature="0"
     style="color:#000000;display:inline;overflow:visible;visibility:visible;opacity:0.1;fill:#000000;fill-opacity:1;fill-rule:nonzero;stroke:none;stroke-width:16.0783;stroke-linecap:butt;stroke-linejoin:miter;stroke-miterlimit:4;stroke-dasharray:none;stroke-dashoffset:0;stroke-opacity:1;marker:none;filter:url(#filter1497);enable-background:accumulate"
     d="m 128.79732,55.790723 c -5.39372,-0.06 -7.28039,0.14029 -8.03906,6.662108 l -0.28906,2.30468 c -0.66573,4.22983 -0.793,6.14518 -4.79493,7.18165 -0.26817,0.0599 -0.53589,0.12006 -0.80273,0.18359 -0.0631,0.013 -0.11885,0.0282 -0.1836,0.041 l 0.008,0.002 c -0.58868,0.14202 -1.16644,0.31108 -1.74805,0.4707 v 0.26563 a 60,60 0 0 0 -26.351562,15.16406 l -0.1543,-0.0898 c -0.4621,0.45783 -0.93126,0.9086 -1.37891,1.38086 l 0.0215,-0.10157 c -3.33739,3.82107 -5.00215,2.95911 -9.30469,1.30274 l -2.14062,-0.90235 c -1.88356,-0.81371 -3.28745,-1.22275 -4.4082,-1.25781 -2.46567,-0.0772 -3.56053,1.65668 -5.37891,4.88867 -2.7488,4.641101 -3.52068,6.375021 1.74805,10.292969 l 1.85156,1.4043 c 3.34293,2.7017 4.93866,3.76564 3.81055,7.78711 -0.047,0.14937 -0.0909,0.29936 -0.13672,0.44922 -0.0489,0.1566 -0.0919,0.30729 -0.14844,0.47265 l 0.01,-0.01 c -0.14784,0.49761 -0.27071,1.00525 -0.40625,1.50781 l 0.21875,0.12695 a 60,60 0 0 0 -2.10179,15.46695 60,60 0 0 0 2.04102,15.40234 l -0.18164,0.10547 c 0.1425,0.53154 0.27341,1.06776 0.42969,1.59375 l -0.0117,-0.01 c 0.0565,0.16537 0.10147,0.31605 0.15039,0.47265 0.0458,0.14985 0.0897,0.29986 0.13672,0.44922 1.12811,4.02147 -0.46762,5.08542 -3.81055,7.78711 l -1.85156,1.4043 c -5.26873,3.91794 -4.49685,5.6499 -1.74805,10.29101 2.64491,4.70108 3.75971,6.23474 9.78711,3.63086 l 2.14062,-0.90039 c 4.30253,-1.65637 5.9673,-2.51832 9.30469,1.30274 l -0.0234,-0.10157 c 0.42704,0.45053 0.87567,0.87952 1.31641,1.31641 l 0.17969,-0.10352 a 60,60 0 0 0 26.390622,15.18555 v 0.32227 c 0.58161,0.15962 1.15937,0.32868 1.74805,0.4707 l -0.008,0.002 c 0.0647,0.0128 0.12053,0.028 0.1836,0.041 0.26684,0.0635 0.53456,0.12365 0.80273,0.18359 4.00193,1.03647 4.12918,2.95182 4.79493,7.18164 l 0.28906,2.30469 c 0.75867,6.52182 2.64534,6.72209 8.03906,6.66211 5.39371,0.06 7.28039,-0.14029 8.03906,-6.66211 l 0.28906,-2.30469 c 0.66577,-4.22983 0.79299,-6.14518 4.79493,-7.18164 0.26817,-0.06 0.5359,-0.12007 0.80273,-0.18359 0.0631,-0.0131 0.11885,-0.0281 0.1836,-0.041 l -0.008,-0.002 c 0.52168,-0.12585 1.03274,-0.27823 1.54883,-0.41797 v -0.31836 a 60,60 0 0 0 26.625,-15.45703 l 0.29297,0.16992 c 0.38888,-0.38913 0.78745,-0.76857 1.16602,-1.16797 l -0.0215,0.10157 c 3.3374,-3.82106 5.00215,-2.95912 9.30469,-1.30274 l 2.14062,0.90235 c 6.0274,2.60387 7.14218,1.07022 9.78711,-3.63086 2.74879,-4.64111 3.5207,-6.37503 -1.74804,-10.29297 l -1.85157,-1.4043 c -3.34293,-2.70168 -4.93866,-3.76564 -3.81054,-7.78711 0.047,-0.14936 0.0908,-0.29937 0.13672,-0.44922 0.0489,-0.1566 0.092,-0.30728 0.14843,-0.47265 l -0.01,0.01 c 0.17637,-0.59363 0.32563,-1.19811 0.48437,-1.79883 l -0.39648,-0.22851 a 60,60 0 0 0 2.0023,-15.07422 60,60 0 0 0 -1.99023,-15.17969 l 0.36132,-0.20898 c -0.15198,-0.57166 -0.29299,-1.14764 -0.46093,-1.71289 l 0.0117,0.01 c -0.0565,-0.16536 -0.10152,-0.31604 -0.15039,-0.47265 -0.0458,-0.14986 -0.0897,-0.29985 -0.13672,-0.44922 -1.12811,-4.02147 0.46762,-5.08541 3.81054,-7.78711 l 1.85157,-1.4043 c 5.26873,-3.917938 4.49684,-5.649898 1.74804,-10.291009 -1.81838,-3.23199 -2.91322,-4.96776 -5.3789,-4.89063 -1.12074,0.0351 -2.52465,0.44605 -4.40821,1.25977 l -2.14062,0.90039 c -4.30247,1.6564 -5.9673,2.51834 -9.30469,-1.30274 l 0.0234,0.10157 c -0.39948,-0.42146 -0.82093,-0.82098 -1.23242,-1.23047 l -0.29688,0.17189 a 60,60 0 0 0 -26.55658,-15.34008 v -0.375 c -0.51609,-0.13974 -1.02715,-0.29212 -1.54883,-0.41797 l 0.008,-0.002 c -0.0647,-0.0127 -0.12052,-0.028 -0.1836,-0.041 -0.26683,-0.0635 -0.53456,-0.12365 -0.80273,-0.1836 -4.00194,-1.03647 -4.12918,-2.95181 -4.79493,-7.18164 l -0.28906,-2.30468 c -0.75862,-6.521808 -2.64553,-6.722038 -8.03924,-6.662058 z"
     id="path4356-9"
     inkscape:export-xdpi="96"
     inkscape:export-ydpi="96"
     inkscape:export-filename="/home/stuart/Pictures/gnome-mines.svg.png" />
  <path
     inkscape:connector-curvature="0"
     style="color:#000000;display:inline;overflow:visible;visibility:visible;opacity:0.3;fill:#ffffff;fill-opacity:1;fill-rule:nonzero;stroke:none;stroke-width:1;marker:none;enable-background:accumulate"
     d="m 72.977628,96.784302 c -18.856181,0 -56.000001,7.999998 -56.000001,7.999998 v 1 c 0,0 37.14382,-7.999998 56.000001,-7.999998 37.712362,0 74.287642,15.999998 112.000002,15.999998 18.85618,0 56,-8 56,-8 v -1 c 0,0 -37.14382,8 -56,8 -37.71236,0 -74.28764,-15.999998 -112.000002,-15.999998 z"
     id="rect4158-97-1-4-5"
     sodipodi:nodetypes="sccssccss" />
  <path
     inkscape:connector-curvature="0"
     style="color:#000000;display:inline;overflow:visible;visibility:visible;fill:#313131;fill-opacity:1;fill-rule:nonzero;stroke:none;stroke-width:16.0783;stroke-linecap:butt;stroke-linejoin:miter;stroke-miterlimit:4;stroke-dasharray:none;stroke-dashoffset:0;stroke-opacity:1;marker:none;enable-background:accumulate"
     d="m 128.7972,53.790369 c -5.39372,-0.05998 -7.28039,0.14029 -8.03906,6.662112 l -0.28906,2.30469 c -0.66573,4.22983 -0.793,6.14517 -4.79493,7.18164 -0.26817,0.0599 -0.53589,0.12007 -0.80273,0.18359 -0.0631,0.013 -0.11885,0.0282 -0.1836,0.041 l 0.008,0.002 c -0.58868,0.14202 -1.16644,0.31108 -1.74805,0.4707 v 0.26563 a 60,60 0 0 0 -26.351562,15.16406 l -0.1543,-0.0898 c -0.4621,0.45783 -0.93126,0.9086 -1.37891,1.38086 l 0.0215,-0.10157 c -3.33739,3.82107 -5.00215,2.95911 -9.30469,1.30274 l -2.14062,-0.90235 c -1.88356,-0.81371 -3.28745,-1.22275 -4.4082,-1.25781 -2.46567,-0.0772 -3.56053,1.65668 -5.37891,4.88867 -2.7488,4.641101 -3.52068,6.375021 1.74805,10.292969 l 1.85156,1.4043 c 3.34293,2.7017 4.93866,3.76564 3.81055,7.78711 -0.047,0.14937 -0.0909,0.29936 -0.13672,0.44922 -0.0489,0.1566 -0.0919,0.30729 -0.14844,0.47265 l 0.01,-0.01 c -0.14784,0.49761 -0.27071,1.00525 -0.40625,1.50781 l 0.21875,0.12695 a 60,60 0 0 0 -2.10179,15.46695 60,60 0 0 0 2.04102,15.40234 l -0.18164,0.10547 c 0.1425,0.53154 0.27341,1.06776 0.42969,1.59375 l -0.0117,-0.01 c 0.0565,0.16537 0.10147,0.31605 0.15039,0.47265 0.0458,0.14985 0.0897,0.29986 0.13672,0.44922 1.12811,4.02147 -0.46762,5.08542 -3.81055,7.78711 l -1.85156,1.4043 c -5.26873,3.91794 -4.49685,5.6499 -1.74805,10.29101 2.64491,4.70108 3.75971,6.23474 9.78711,3.63086 l 2.14062,-0.90039 c 4.30253,-1.65637 5.9673,-2.51832 9.30469,1.30274 l -0.0234,-0.10157 c 0.42704,0.45053 0.87567,0.87952 1.31641,1.31641 l 0.17969,-0.10352 a 60,60 0 0 0 26.390622,15.18555 v 0.32227 c 0.58161,0.15962 1.15937,0.32868 1.74805,0.4707 l -0.008,0.002 c 0.0647,0.0128 0.12053,0.028 0.1836,0.041 0.26684,0.0635 0.53456,0.12365 0.80273,0.18359 4.00193,1.03647 4.12918,2.95182 4.79493,7.18164 l 0.28906,2.30469 c 0.75867,6.52182 2.64534,6.72209 8.03906,6.66211 5.39371,0.06 7.28039,-0.14029 8.03906,-6.66211 l 0.28906,-2.30469 c 0.66577,-4.22983 0.79299,-6.14518 4.79493,-7.18164 0.26817,-0.06 0.5359,-0.12007 0.80273,-0.18359 0.0631,-0.0131 0.11885,-0.0281 0.1836,-0.041 l -0.008,-0.002 c 0.52168,-0.12585 1.03274,-0.27823 1.54883,-0.41797 v -0.31836 a 60,60 0 0 0 26.625,-15.45703 l 0.29297,0.16992 c 0.38888,-0.38913 0.78745,-0.76857 1.16602,-1.16797 l -0.0215,0.10157 c 3.3374,-3.82106 5.00215,-2.95912 9.30469,-1.30274 l 2.14062,0.90235 c 6.0274,2.60387 7.14218,1.07022 9.78711,-3.63086 2.74879,-4.64111 3.5207,-6.37503 -1.74804,-10.29297 l -1.85157,-1.4043 c -3.34293,-2.70168 -4.93866,-3.76564 -3.81054,-7.78711 0.047,-0.14936 0.0908,-0.29937 0.13672,-0.44922 0.0489,-0.1566 0.092,-0.30728 0.14843,-0.47265 l -0.01,0.01 c 0.17637,-0.59363 0.32563,-1.19811 0.48437,-1.79883 l -0.39648,-0.22851 a 60,60 0 0 0 2.00252,-15.07422 60,60 0 0 0 -1.99023,-15.17969 l 0.36132,-0.20898 c -0.15198,-0.57166 -0.29299,-1.14764 -0.46093,-1.71289 l 0.0117,0.01 c -0.0565,-0.16536 -0.10152,-0.31604 -0.15039,-0.47265 -0.0458,-0.14986 -0.0897,-0.29985 -0.13672,-0.44922 -1.12811,-4.02147 0.46762,-5.08541 3.81054,-7.78711 l 1.85157,-1.4043 c 5.26873,-3.917938 4.49684,-5.649898 1.74804,-10.291009 -1.81838,-3.23199 -2.91322,-4.96776 -5.3789,-4.89063 -1.12074,0.0351 -2.52465,0.44605 -4.40821,1.25977 l -2.14062,0.90039 c -4.30247,1.6564 -5.9673,2.51834 -9.30469,-1.30274 l 0.0234,0.10157 c -0.39948,-0.42146 -0.82093,-0.82098 -1.23242,-1.23047 l -0.29688,0.17187 a 60,60 0 0 0 -26.5568,-15.34008 v -0.375 c -0.51609,-0.13974 -1.02715,-0.29212 -1.54883,-0.41797 l 0.008,-0.002 c -0.0647,-0.0127 -0.12052,-0.028 -0.1836,-0.041 -0.26683,-0.0635 -0.53456,-0.12365 -0.80273,-0.1836 -4.00194,-1.03646 -4.12918,-2.95181 -4.79493,-7.18164 l -0.28906,-2.30468 c -0.75862,-6.521806 -2.64553,-6.722039 -8.03924,-6.662062 z"
     id="path4356"
     inkscape:export-xdpi="96"
     inkscape:export-ydpi="96"
     inkscape:export-filename="/home/stuart/Pictures/gnome-mines.svg.png" />
  <path
     inkscape:connector-curvature="0"
     style="color:#000000;display:inline;overflow:visible;visibility:visible;opacity:0.3;fill:#ffffff;fill-opacity:1;fill-rule:nonzero;stroke:none;stroke-width:16.0783;stroke-linecap:butt;stroke-linejoin:miter;stroke-miterlimit:4;stroke-dasharray:none;stroke-dashoffset:0;stroke-opacity:1;marker:none;enable-background:accumulate"
     d="m 128.79794,53.790158 c -5.39372,-0.05998 -7.28039,0.14029 -8.03906,6.662113 l -0.28906,2.30468 c -0.66573,4.22983 -0.79299,6.14518 -4.79492,7.18165 -0.26817,0.0599 -0.5359,0.12006 -0.80274,0.18359 -0.0631,0.013 -0.11884,0.0282 -0.18359,0.041 l 0.008,0.002 c -0.58868,0.14202 -1.16644,0.31108 -1.74805,0.4707 v 0.26563 a 60,60 0 0 0 -26.351562,15.16406 l -0.1543,-0.0898 c -0.4621,0.45783 -0.93125,0.9086 -1.3789,1.38086 l 0.0215,-0.10157 c -3.33739,3.82107 -5.00214,2.95911 -9.30469,1.30274 l -2.14062,-0.90235 c -1.88356,-0.81371 -3.28745,-1.22275 -4.4082,-1.25781 -2.46567,-0.0772 -3.56053,1.65668 -5.37891,4.88867 -1.58217,2.67136 -2.50069,4.3798 -1.99805,6.095711 0.29126,-1.14937 1.01461,-2.435251 1.99805,-4.095711 1.81838,-3.23199 2.91324,-4.96587 5.37891,-4.88867 1.12075,0.0351 2.52464,0.4441 4.4082,1.25781 l 2.14062,0.90235 c 4.30255,1.65637 5.9673,2.51833 9.30469,-1.30274 l -0.0215,0.10157 c 0.44765,-0.47226 0.9168,-0.92303 1.3789,-1.38086 l 0.1543,0.0898 a 60,60 0 0 1 26.351562,-15.16406 v -0.26563 c 0.58161,-0.15962 1.15937,-0.32868 1.74805,-0.4707 l -0.008,-0.002 c 0.0648,-0.0128 0.12049,-0.028 0.18359,-0.041 0.26684,-0.0635 0.53457,-0.12365 0.80274,-0.18359 4.00193,-1.03647 4.12919,-2.95182 4.79492,-7.18165 l 0.28906,-2.30468 c 0.75867,-6.521823 2.64534,-6.722093 8.03906,-6.662113 5.39371,-0.05998 7.28044,0.140308 8.03907,6.662113 l 0.28906,2.30468 c 0.66575,4.22983 0.79298,6.14518 4.79492,7.18165 0.26817,0.0599 0.5359,0.12007 0.80273,0.18359 0.0631,0.0131 0.1189,0.0283 0.1836,0.041 l -0.008,0.002 c 0.52167,0.12585 1.03273,0.27823 1.54882,0.41797 v 0.375 a 60,60 0 0 1 26.55664,15.33984 l 0.29688,-0.17187 c 0.41149,0.40949 0.83294,0.80901 1.23242,1.23047 l -0.0234,-0.10157 c 3.33739,3.82108 5.00222,2.95914 9.30469,1.30274 l 2.14063,-0.90039 c 1.88356,-0.81372 3.28746,-1.22467 4.4082,-1.25977 2.46568,-0.0771 3.56053,1.65864 5.3789,4.89063 0.98447,1.66218 1.70546,2.949661 1.9961,4.099611 0.50547,-1.71682 -0.41259,-3.426011 -1.9961,-6.099611 -1.81837,-3.23199 -2.91322,-4.96776 -5.3789,-4.89063 -1.12074,0.0351 -2.52464,0.44605 -4.4082,1.25977 l -2.14063,0.90039 c -4.30247,1.6564 -5.9673,2.51834 -9.30469,-1.30274 l 0.0234,0.10157 c -0.39948,-0.42146 -0.82093,-0.82098 -1.23242,-1.23047 l -0.29688,0.17187 a 60,60 0 0 0 -26.55645,-15.33987 v -0.375 c -0.51609,-0.13974 -1.02715,-0.29212 -1.54882,-0.41797 l 0.008,-0.002 c -0.0647,-0.0127 -0.12052,-0.028 -0.1836,-0.041 -0.26683,-0.0635 -0.53456,-0.12365 -0.80273,-0.1836 -4.00194,-1.03647 -4.12917,-2.95181 -4.79492,-7.18164 l -0.28906,-2.30468 c -0.75863,-6.521807 -2.64536,-6.722092 -8.03907,-6.662115 z M 71.516688,109.58899 c -0.0595,0.36852 -0.13307,0.75091 -0.2539,1.18164 -0.047,0.14937 -0.0909,0.29936 -0.13672,0.44922 -0.0489,0.1566 -0.0919,0.30729 -0.14844,0.47265 l 0.01,-0.01 c -0.14784,0.49761 -0.27071,1.00525 -0.40625,1.50781 l 0.21875,0.12695 a 60,60 0 0 0 -2.1018,15.46704 60,60 0 0 0 0.041,0.80273 60,60 0 0 1 2.06055,-14.26953 l -0.21875,-0.12695 c 0.13554,-0.50256 0.25841,-1.0102 0.40625,-1.50781 l -0.01,0.01 c 0.0565,-0.16536 0.0995,-0.31605 0.14844,-0.47265 0.0458,-0.14986 0.0897,-0.29985 0.13672,-0.44922 0.37316,-1.33026 0.44148,-2.33229 0.2539,-3.18164 z m 114.562502,0 c -0.18757,0.84935 -0.11926,1.85138 0.25391,3.18164 0.047,0.14937 0.0909,0.29936 0.13672,0.44922 0.0489,0.15661 0.0939,0.30729 0.15039,0.47265 l -0.0117,-0.01 c 0.16794,0.56525 0.30896,1.14123 0.46094,1.71289 l -0.36133,0.20898 a 60,60 0 0 1 1.94922,14.41602 60,60 0 0 0 0.041,-1.23633 60,60 0 0 0 -1.99023,-15.17969 l 0.36133,-0.20898 c -0.15198,-0.57166 -0.293,-1.14764 -0.46094,-1.71289 l 0.0117,0.01 c -0.0565,-0.16536 -0.10152,-0.31604 -0.15039,-0.47265 -0.0458,-0.14986 -0.0897,-0.29985 -0.13672,-0.44922 -0.12083,-0.43073 -0.19437,-0.81312 -0.25391,-1.18164 z m 0.99414,34.48828 a 60,60 0 0 1 -0.0781,0.36523 c 0.0309,-0.11889 0.0643,-0.23676 0.0957,-0.35547 z m -0.99609,5.90234 c -0.49627,3.07208 1.08155,4.19318 4.06641,6.60547 l 1.85156,1.4043 c 2.23612,1.66282 3.37351,2.93202 3.74414,4.19726 0.52283,-2.0632 -0.36041,-3.68105 -3.74414,-6.19726 l -1.85156,-1.4043 c -2.23742,-1.80823 -3.68716,-2.88677 -4.06641,-4.60547 z m -114.560552,0.002 c -0.37993,1.71753 -1.8279,2.79597 -4.06445,4.60351 l -1.85156,1.4043 c -3.38302,2.51568 -4.26821,4.13331 -3.7461,6.19531 0.37118,-1.26426 1.511,-2.53325 3.7461,-4.19531 l 1.85156,-1.4043 c 2.98431,-2.41186 4.55986,-3.53272 4.06445,-6.60351 z"
     id="path4356-5" />
  <path
     style="color:#000000;display:inline;overflow:visible;visibility:visible;opacity:0.2;fill:#81e9c0;fill-opacity:1;fill-rule:nonzero;stroke:none;stroke-width:1;marker:none;enable-background:accumulate"
     d="m 16.977627,120.7843 v 81.00586 c -0.17299,35.36812 3.62514,38.99414 38.921871,38.99414 H 202.05575 c 35.29671,0 38.92188,-3.62561 38.92188,-38.99414 V 120.7843 c 0,0 -37.14382,8 -56,8 -37.71236,0 -74.28764,-16 -112.000002,-16 -18.856181,0 -56.000001,8 -56.000001,8 z"
     id="rect4158-97-5"
     inkscape:connector-curvature="0"
     sodipodi:nodetypes="ccssscaac" />
  <path
     style="color:#000000;display:inline;overflow:visible;visibility:visible;opacity:0.1;fill:url(#linearGradient24049-5-1);fill-opacity:1;fill-rule:nonzero;stroke:none;stroke-width:1;marker:none;enable-background:accumulate"
     d="m 72.977628,112.7843 c -18.856181,0 -56.000001,8 -56.000001,8 v 16 c 0,0 37.14382,-8 56.000001,-8 37.712362,0 74.287642,16 112.000002,16 18.85618,0 56,-8 56,-8 v -16 c 0,0 -37.14382,8 -56,8 -37.71236,0 -74.28764,-16 -112.000002,-16 z"
     id="rect4158-97-5-2-1-6-3"
     inkscape:connector-curvature="0" />
  <path
     inkscape:connector-curvature="0"
     style="color:#000000;display:inline;overflow:visible;visibility:visible;opacity:0.3;fill:#ffffff;fill-opacity:1;fill-rule:nonzero;stroke:none;stroke-width:1;marker:none;enable-background:accumulate"
     d="m 72.977628,112.7843 c -18.856181,0 -56.000001,8 -56.000001,8 v 1 c 0,0 37.14382,-8 56.000001,-8 37.712362,0 74.287642,16 112.000002,16 18.85618,0 56,-8 56,-8 v -1 c 0,0 -37.14382,8 -56,8 -37.71236,0 -74.28764,-16 -112.000002,-16 z"
     id="rect4158-97-1-4-4" />
  <path
     style="color:#000000;display:inline;overflow:visible;visibility:visible;opacity:0.2;fill:#81e9c0;fill-opacity:1;fill-rule:nonzero;stroke:none;stroke-width:1;marker:none;enable-background:accumulate"
     d="m 16.977637,136.7846 v 65.00586 c -0.17299,35.36812 3.62514,38.99414 38.921871,38.99414 H 202.05576 c 35.29671,0 38.92188,-3.62561 38.92188,-38.99414 V 136.7846 c 0,0 -37.14382,8 -56,8 -37.71236,0 -74.28764,-16 -112.000002,-16 -18.856181,0 -56.000001,8 -56.000001,8 z"
     id="rect4158-97"
     inkscape:connector-curvature="0"
     sodipodi:nodetypes="ccssscaac" />
  <path
     style="color:#000000;display:inline;overflow:visible;visibility:visible;opacity:0.2;fill:#81e9c0;fill-opacity:1;fill-rule:nonzero;stroke:none;stroke-width:1;marker:none;enable-background:accumulate"
     d="m 16.977637,152.7846 v 49.00586 c -0.17299,35.36812 3.62514,38.99414 38.921871,38.99414 H 202.05576 c 35.29671,0 38.92188,-3.62561 38.92188,-38.99414 V 152.7846 c 0,0 -37.14382,8 -56,8 -37.71236,0 -74.28764,-16 -112.000002,-16 -18.856181,0 -56.000001,8 -56.000001,8 z"
     id="rect4158-97-1"
     inkscape:connector-curvature="0"
     sodipodi:nodetypes="ccssscaac" />
  <path
     style="color:#000000;display:inline;overflow:visible;visibility:visible;opacity:0.1;fill:url(#linearGradient24049-5-2);fill-opacity:1;fill-rule:nonzero;stroke:none;stroke-width:1;marker:none;enable-background:accumulate"
     d="m 72.977628,128.7843 c -18.856181,0 -56.000001,8 -56.000001,8 v 16 c 0,0 37.14382,-8 56.000001,-8 37.712362,0 74.287642,16 112.000002,16 18.85618,0 56,-8 56,-8 v -16 c 0,0 -37.14382,8 -56,8 -37.71236,0 -74.28764,-16 -112.000002,-16 z"
     id="rect4158-97-5-2-1-6-1"
     inkscape:connector-curvature="0" />
  <path
     inkscape:connector-curvature="0"
     style="color:#000000;display:inline;overflow:visible;visibility:visible;opacity:0.3;fill:#ffffff;fill-opacity:1;fill-rule:nonzero;stroke:none;stroke-width:1;marker:none;enable-background:accumulate"
     d="m 72.977628,144.7843 c -18.856181,0 -56.000001,8 -56.000001,8 v 1 c 0,0 37.14382,-8 56.000001,-8 37.712362,0 74.287642,16 112.000002,16 18.85618,0 56,-8 56,-8 v -1 c 0,0 -37.14382,8 -56,8 -37.71236,0 -74.28764,-16 -112.000002,-16 z"
     id="rect4158-97-1-4" />
  <path
     inkscape:connector-curvature="0"
     style="color:#000000;display:inline;overflow:visible;visibility:visible;opacity:0.3;fill:#ffffff;fill-opacity:1;fill-rule:nonzero;stroke:none;stroke-width:1;marker:none;enable-background:accumulate"
     d="m 72.977628,128.7843 c -18.856181,0 -56.000001,8 -56.000001,8 v 1 c 0,0 37.14382,-8 56.000001,-8 37.712362,0 74.287642,16 112.000002,16 18.85618,0 56,-8 56,-8 v -1 c 0,0 -37.14382,8 -56,8 -37.71236,0 -74.28764,-16 -112.000002,-16 z"
     id="rect4158-97-1-4-1" />
  <path
     style="color:#000000;display:inline;overflow:visible;visibility:visible;opacity:0.3;fill:#ffffff;fill-opacity:1;fill-rule:nonzero;stroke:none;stroke-width:1;marker:none;enable-background:accumulate"
     d="m 55.899108,16.784299 c -35.296724,0 -39.094866,3.62603 -38.921876,38.99414 v 2 c -0.17299,-35.36811 3.625152,-38.99414 38.921876,-38.99414 H 202.05535 c 35.29673,0 38.92188,3.62561 38.92188,38.99414 v -2 c 0,-35.36853 -3.62515,-38.99414 -38.92188,-38.99414 z"
     id="path931"
     inkscape:connector-curvature="0"
     sodipodi:nodetypes="sccsscsss" />
  <path
     style="color:#000000;display:inline;overflow:visible;visibility:visible;opacity:0.2;fill:#000000;fill-opacity:1;fill-rule:nonzero;stroke:none;stroke-width:1;marker:none;enable-background:accumulate"
     d="m 55.904508,240.7843 c -35.296727,0 -39.094871,-3.62603 -38.921881,-38.99414 v -2 c -0.17299,35.36811 3.625154,38.99414 38.921881,38.99414 H 202.06075 c 35.29673,0 38.92188,-3.62561 38.92188,-38.99414 v 2 c 0,35.36853 -3.62515,38.99414 -38.92188,38.99414 z"
     id="path931-8"
     inkscape:connector-curvature="0"
     sodipodi:nodetypes="sccsscsss" />
</svg>
