<?xml version="1.0" encoding="UTF-8" standalone="no"?>
<svg
   width="256"
   height="256"
   viewBox="0 0 67.73 67.73"
   version="1.1"
   id="svg144"
   sodipodi:docname="music.svg"
   inkscape:version="1.1.2 (0a00cf5339, 2022-02-04)"
   xmlns:inkscape="http://www.inkscape.org/namespaces/inkscape"
   xmlns:sodipodi="http://sodipodi.sourceforge.net/DTD/sodipodi-0.dtd"
   xmlns:xlink="http://www.w3.org/1999/xlink"
   xmlns="http://www.w3.org/2000/svg"
   xmlns:svg="http://www.w3.org/2000/svg">
  <sodipodi:namedview
     id="namedview146"
     pagecolor="#ffffff"
     bordercolor="#666666"
     borderopacity="1.0"
     inkscape:pageshadow="2"
     inkscape:pageopacity="0.0"
     inkscape:pagecheckerboard="0"
     showgrid="false"
     inkscape:zoom="2.4804688"
     inkscape:cx="128"
     inkscape:cy="128"
     inkscape:window-width="1920"
     inkscape:window-height="1026"
     inkscape:window-x="0"
     inkscape:window-y="28"
     inkscape:window-maximized="1"
     inkscape:current-layer="svg144" />
  <defs
     id="defs74">
    <linearGradient
       id="F"
       x1="196"
       x2="132"
       y1="160"
       y2="160"
       gradientTransform="matrix(.26458 0 0 .26458 -6.993 221.973)"
       gradientUnits="userSpaceOnUse">
      <stop
         offset="0"
         stop-color="#FE4F44"
         stop-opacity="0"
         id="stop2" />
      <stop
         offset="1"
         stop-color="#FE4F44"
         id="stop4" />
    </linearGradient>
    <filter
       id="E"
       x="-0.013723349"
       y="-0.010663716"
       width="1.0274467"
       height="1.0213274"
       color-interpolation-filters="sRGB">
      <feGaussianBlur
         stdDeviation=".658"
         id="feGaussianBlur7" />
    </filter>
    <linearGradient
       id="D"
       x1="160"
       x2="160"
       y1="76"
       y2="236"
       gradientTransform="translate(-26.432 -40.432)"
       gradientUnits="userSpaceOnUse">
      <stop
         offset="0"
         stop-opacity="0"
         id="stop10" />
      <stop
         offset=".519"
         id="stop12" />
      <stop
         offset="1"
         stop-opacity="0"
         id="stop14" />
    </linearGradient>
    <linearGradient
       id="C"
       x1="296"
       x2="296"
       y1="-212"
       y2="236"
       gradientUnits="userSpaceOnUse">
      <stop
         offset="0"
         stop-color="#FFFEFE"
         id="stop17" />
      <stop
         offset=".125"
         stop-color="#FFFEFE"
         stop-opacity=".098"
         id="stop19" />
      <stop
         offset=".925"
         stop-opacity=".098"
         id="stop21" />
      <stop
         offset="1"
         stop-opacity=".498"
         id="stop23" />
    </linearGradient>
    <clipPath
       id="B">
      <path
         d="M361.938-212C507.235-212 528-191.287 528-46.125v116.25C528 215.286 507.235 236 361.937 236H214.063C68.766 236 48 215.286 48 70.125v-116.25C48-191.287 68.765-212 214.063-212z"
         fill="#9F4AC8"
         id="path26" />
    </clipPath>
    <linearGradient
       id="q"
       x1="256"
       x2="256"
       y1="232"
       y2="400"
       gradientUnits="userSpaceOnUse"
       xlink:href="#a" />
    <linearGradient
       id="a">
      <stop
         offset="0"
         stop-color="#F4C200"
         id="stop30" />
      <stop
         offset="1"
         stop-color="#F4C200"
         stop-opacity="0"
         id="stop32" />
    </linearGradient>
    <linearGradient
       id="r"
       x1="256"
       x2="256"
       y1="232"
       y2="472"
       gradientTransform="translate(-40)"
       gradientUnits="userSpaceOnUse"
       xlink:href="#a" />
    <linearGradient
       id="s"
       x1="256"
       x2="256"
       y1="200"
       y2="400"
       gradientTransform="translate(-80)"
       gradientUnits="userSpaceOnUse"
       xlink:href="#a" />
    <linearGradient
       id="t"
       x1="256"
       x2="256"
       y1="152"
       y2="368"
       gradientTransform="translate(-120)"
       gradientUnits="userSpaceOnUse"
       xlink:href="#a" />
    <linearGradient
       id="u"
       x1="256"
       x2="256"
       y1="112"
       y2="408"
       gradientTransform="translate(-160)"
       gradientUnits="userSpaceOnUse"
       xlink:href="#a" />
    <linearGradient
       id="v"
       x1="256"
       x2="256"
       y1="160"
       y2="312"
       gradientTransform="translate(-200)"
       gradientUnits="userSpaceOnUse"
       xlink:href="#a" />
    <linearGradient
       id="w"
       x1="256"
       x2="256"
       y1="160"
       y2="544"
       gradientTransform="translate(40)"
       gradientUnits="userSpaceOnUse"
       xlink:href="#a" />
    <linearGradient
       id="x"
       x1="256"
       x2="256"
       y1="208"
       y2="456"
       gradientTransform="translate(80)"
       gradientUnits="userSpaceOnUse"
       xlink:href="#a" />
    <linearGradient
       id="y"
       x1="256"
       x2="256"
       y1="176"
       y2="368"
       gradientTransform="translate(120)"
       gradientUnits="userSpaceOnUse"
       xlink:href="#a" />
    <linearGradient
       id="z"
       x1="256"
       x2="256"
       y1="185.898"
       y2="376"
       gradientTransform="translate(160)"
       gradientUnits="userSpaceOnUse"
       xlink:href="#a" />
    <linearGradient
       id="A"
       x1="256"
       x2="256"
       y1="128"
       y2="352"
       gradientTransform="translate(200)"
       gradientUnits="userSpaceOnUse"
       xlink:href="#a" />
    <linearGradient
       id="f"
       x1="288"
       x2="288"
       y1="296"
       y2="72"
       gradientUnits="userSpaceOnUse"
       xlink:href="#b" />
    <linearGradient
       id="b">
      <stop
         offset="0"
         stop-color="#FE4F44"
         id="stop46" />
      <stop
         offset="1"
         stop-color="#FE4F44"
         stop-opacity="0"
         id="stop48" />
    </linearGradient>
    <linearGradient
       id="g"
       x1="216"
       x2="218"
       y1="326.102"
       y2="-32"
       gradientUnits="userSpaceOnUse"
       xlink:href="#b" />
    <linearGradient
       id="h"
       x1="177.6"
       x2="176"
       y1="264"
       y2="136"
       gradientUnits="userSpaceOnUse"
       xlink:href="#b" />
    <linearGradient
       id="i"
       x1="136"
       x2="136"
       y1="312"
       y2="80"
       gradientUnits="userSpaceOnUse"
       xlink:href="#b" />
    <linearGradient
       id="j"
       x1="96.8"
       x2="96.8"
       y1="352"
       y2="162.4"
       gradientUnits="userSpaceOnUse"
       xlink:href="#b" />
    <linearGradient
       id="k"
       x1="56"
       x2="56"
       y1="360"
       y2="184"
       gradientUnits="userSpaceOnUse"
       xlink:href="#b" />
    <linearGradient
       id="l"
       x1="296"
       x2="296"
       y1="280"
       y2="72"
       gradientUnits="userSpaceOnUse"
       xlink:href="#b" />
    <linearGradient
       id="m"
       x1="336"
       x2="336"
       y1="288"
       y2="152"
       gradientUnits="userSpaceOnUse"
       xlink:href="#b" />
    <linearGradient
       id="n"
       x1="376"
       x2="376"
       y1="304"
       y2="96"
       gradientUnits="userSpaceOnUse"
       xlink:href="#b" />
    <linearGradient
       id="o"
       x1="416"
       x2="416"
       y1="336"
       y2="128"
       gradientUnits="userSpaceOnUse"
       xlink:href="#b" />
    <linearGradient
       id="p"
       x1="456"
       x2="456"
       y1="368"
       y2="192"
       gradientUnits="userSpaceOnUse"
       xlink:href="#b" />
    <linearGradient
       id="e"
       x1="24"
       x2="280"
       y1="28"
       y2="284"
       gradientTransform="matrix(.26458 0 0 .26458 -6.993 221.973)"
       gradientUnits="userSpaceOnUse">
      <stop
         offset="0"
         stop-color="#FE4068"
         id="stop61" />
      <stop
         offset=".483"
         stop-color="#F4234A"
         id="stop63" />
      <stop
         offset="1"
         stop-color="#FE4F44"
         id="stop65" />
    </linearGradient>
    <filter
       id="d"
       x="-0.023199999"
       y="-0.024857142"
       width="1.0464"
       height="1.0497143"
       color-interpolation-filters="sRGB">
      <feGaussianBlur
         stdDeviation="2.32"
         id="feGaussianBlur68" />
    </filter>
    <filter
       id="c"
       x="-0.0116"
       y="-0.012428571"
       width="1.0232"
       height="1.0248571"
       color-interpolation-filters="sRGB">
      <feGaussianBlur
         stdDeviation="1.16"
         id="feGaussianBlur71" />
    </filter>
    <filter
       inkscape:collect="always"
       style="color-interpolation-filters:sRGB"
       id="filter58492"
       x="-0.011999856"
       width="1.0239997"
       y="-0.012000144"
       height="1.0240003">
      <feGaussianBlur
         inkscape:collect="always"
         stdDeviation="1.1200135"
         id="feGaussianBlur58494" />
    </filter>
    <filter
       inkscape:collect="always"
       style="color-interpolation-filters:sRGB"
       id="filter58449"
       x="-0.047999425"
       width="1.0959989"
       y="-0.048000575"
       height="1.0960012">
      <feGaussianBlur
         inkscape:collect="always"
         stdDeviation="4.4800539"
         id="feGaussianBlur58451" />
    </filter>
    <linearGradient
       inkscape:collect="always"
       xlink:href="#linearGradient4290"
       id="linearGradient1694"
       x1="39.997601"
       y1="267.99701"
       x2="263.99759"
       y2="43.997002"
       gradientUnits="userSpaceOnUse"
       gradientTransform="matrix(0,0.26457031,-0.26457031,0,75.027692,-6.5830107)" />
    <linearGradient
       inkscape:collect="always"
       id="linearGradient4290">
      <stop
         style="stop-color:#e72662;stop-opacity:1"
         offset="0"
         id="stop4292" />
      <stop
         id="stop4272"
         offset="0.48271722"
         style="stop-color:#ec3c50;stop-opacity:1" />
      <stop
         style="stop-color:#ff7b66;stop-opacity:1"
         offset="1"
         id="stop4294" />
    </linearGradient>
    <linearGradient
       inkscape:collect="always"
       xlink:href="#linearGradient4287"
       id="linearGradient12803"
       gradientUnits="userSpaceOnUse"
       x1="288"
       y1="296"
       x2="288"
       y2="72" />
    <linearGradient
       id="linearGradient4287"
       inkscape:collect="always">
      <stop
         id="stop4424"
         offset="0"
         style="stop-color:#ff9169;stop-opacity:1" />
      <stop
         id="stop4426"
         offset="1"
         style="stop-color:#f09778;stop-opacity:0" />
    </linearGradient>
    <linearGradient
       inkscape:collect="always"
       xlink:href="#linearGradient4287"
       id="linearGradient12805"
       gradientUnits="userSpaceOnUse"
       x1="216"
       y1="326.10156"
       x2="218"
       y2="-32" />
    <linearGradient
       inkscape:collect="always"
       xlink:href="#linearGradient4287"
       id="linearGradient12807"
       gradientUnits="userSpaceOnUse"
       x1="177.60001"
       y1="264"
       x2="176"
       y2="136" />
    <linearGradient
       inkscape:collect="always"
       xlink:href="#linearGradient4287"
       id="linearGradient12809"
       gradientUnits="userSpaceOnUse"
       x1="136"
       y1="312"
       x2="136"
       y2="80" />
    <linearGradient
       inkscape:collect="always"
       xlink:href="#linearGradient4287"
       id="linearGradient12811"
       gradientUnits="userSpaceOnUse"
       x1="96.800003"
       y1="352"
       x2="96.800003"
       y2="162.39999" />
    <linearGradient
       inkscape:collect="always"
       xlink:href="#linearGradient4287"
       id="linearGradient12813"
       gradientUnits="userSpaceOnUse"
       x1="56"
       y1="360"
       x2="56"
       y2="184" />
    <linearGradient
       inkscape:collect="always"
       xlink:href="#linearGradient4287"
       id="linearGradient12815"
       gradientUnits="userSpaceOnUse"
       x1="296"
       y1="280"
       x2="296"
       y2="72" />
    <linearGradient
       id="linearGradient1159"
       inkscape:collect="always"
       gradientTransform="matrix(0.24397398,0,0,0.28690539,-6.4591693,-7.6419269)"
       x1="92.112537"
       y1="87.912412"
       x2="216.90028"
       y2="87.912412"
       gradientUnits="userSpaceOnUse">
      <stop
         id="stop1155"
         offset="0"
         style="stop-color:#ff9169;stop-opacity:1" />
      <stop
         id="stop1157"
         offset="1"
         style="stop-color:#f09778;stop-opacity:0" />
    </linearGradient>
    <linearGradient
       inkscape:collect="always"
       xlink:href="#linearGradient4287"
       id="linearGradient12817"
       gradientUnits="userSpaceOnUse"
       x1="336"
       y1="288"
       x2="336"
       y2="152" />
    <linearGradient
       inkscape:collect="always"
       xlink:href="#linearGradient4287"
       id="linearGradient12819"
       gradientUnits="userSpaceOnUse"
       x1="376"
       y1="304"
       x2="376"
       y2="96" />
    <linearGradient
       inkscape:collect="always"
       xlink:href="#linearGradient4287"
       id="linearGradient12821"
       gradientUnits="userSpaceOnUse"
       x1="416"
       y1="336"
       x2="416"
       y2="128" />
    <linearGradient
       inkscape:collect="always"
       xlink:href="#linearGradient4287"
       id="linearGradient12823"
       gradientUnits="userSpaceOnUse"
       x1="456"
       y1="368"
       x2="456"
       y2="192" />
    <linearGradient
       inkscape:collect="always"
       xlink:href="#linearGradient4319"
       id="linearGradient12825"
       gradientUnits="userSpaceOnUse"
       x1="256"
       y1="232"
       x2="256"
       y2="400" />
    <linearGradient
       inkscape:collect="always"
       id="linearGradient4319">
      <stop
         style="stop-color:#fed965;stop-opacity:1"
         offset="0"
         id="stop4322" />
      <stop
         style="stop-color:#fed965;stop-opacity:0"
         offset="1"
         id="stop4324" />
    </linearGradient>
    <linearGradient
       inkscape:collect="always"
       xlink:href="#linearGradient4319"
       id="linearGradient12827"
       gradientUnits="userSpaceOnUse"
       gradientTransform="translate(-40)"
       x1="256"
       y1="232"
       x2="256"
       y2="472" />
    <linearGradient
       inkscape:collect="always"
       xlink:href="#linearGradient4319"
       id="linearGradient12829"
       gradientUnits="userSpaceOnUse"
       gradientTransform="translate(-80)"
       x1="256"
       y1="200"
       x2="256"
       y2="400" />
    <linearGradient
       inkscape:collect="always"
       xlink:href="#linearGradient4319"
       id="linearGradient12831"
       gradientUnits="userSpaceOnUse"
       gradientTransform="translate(-120)"
       x1="256"
       y1="152"
       x2="256"
       y2="368" />
    <linearGradient
       inkscape:collect="always"
       xlink:href="#linearGradient4319"
       id="linearGradient12833"
       gradientUnits="userSpaceOnUse"
       gradientTransform="translate(-160)"
       x1="256"
       y1="112"
       x2="256"
       y2="408" />
    <linearGradient
       inkscape:collect="always"
       xlink:href="#linearGradient4319"
       id="linearGradient12835"
       gradientUnits="userSpaceOnUse"
       gradientTransform="translate(-200)"
       x1="256"
       y1="160"
       x2="256"
       y2="312" />
    <linearGradient
       inkscape:collect="always"
       xlink:href="#linearGradient4319"
       id="linearGradient12837"
       gradientUnits="userSpaceOnUse"
       gradientTransform="translate(40)"
       x1="256"
       y1="160"
       x2="256"
       y2="544" />
    <linearGradient
       inkscape:collect="always"
       xlink:href="#linearGradient4319"
       id="linearGradient12839"
       gradientUnits="userSpaceOnUse"
       gradientTransform="translate(80)"
       x1="256"
       y1="208"
       x2="256"
       y2="456" />
    <linearGradient
       inkscape:collect="always"
       xlink:href="#linearGradient4319"
       id="linearGradient12841"
       gradientUnits="userSpaceOnUse"
       gradientTransform="translate(120)"
       x1="256"
       y1="176"
       x2="256"
       y2="368" />
    <linearGradient
       inkscape:collect="always"
       xlink:href="#linearGradient4319"
       id="linearGradient12843"
       gradientUnits="userSpaceOnUse"
       gradientTransform="translate(160)"
       x1="256"
       y1="185.89844"
       x2="256"
       y2="376" />
    <linearGradient
       inkscape:collect="always"
       xlink:href="#linearGradient4319"
       id="linearGradient12845"
       gradientUnits="userSpaceOnUse"
       gradientTransform="translate(200)"
       x1="256"
       y1="128"
       x2="256"
       y2="352" />
    <linearGradient
       gradientTransform="translate(3.38e-4)"
       inkscape:collect="always"
       xlink:href="#linearGradient1191"
       id="linearGradient1193"
       x1="160"
       y1="76"
       x2="160"
       y2="236"
       gradientUnits="userSpaceOnUse" />
    <linearGradient
       inkscape:collect="always"
       id="linearGradient1191">
      <stop
         style="stop-color:#000000;stop-opacity:0"
         offset="0"
         id="stop1187" />
      <stop
         id="stop1195"
         offset="0.51875001"
         style="stop-color:#000000;stop-opacity:1" />
      <stop
         style="stop-color:#000000;stop-opacity:0;"
         offset="1"
         id="stop1189" />
    </linearGradient>
    <filter
       inkscape:collect="always"
       style="color-interpolation-filters:sRGB"
       id="filter1197"
       x="-0.10977254"
       width="1.2195451"
       y="-0.085298124"
       height="1.1705962">
      <feGaussianBlur
         inkscape:collect="always"
         stdDeviation="5.2632843"
         id="feGaussianBlur1199" />
    </filter>
    <filter
       inkscape:collect="always"
       style="color-interpolation-filters:sRGB"
       id="filter1178"
       x="-0.013721568"
       width="1.0274431"
       y="-0.010662265"
       height="1.0213245">
      <feGaussianBlur
         inkscape:collect="always"
         stdDeviation="0.65791054"
         id="feGaussianBlur1180" />
    </filter>
    <linearGradient
       gradientTransform="translate(3.38e-4)"
       inkscape:collect="always"
       xlink:href="#linearGradient4338"
       id="linearGradient1272"
       x1="196"
       y1="160"
       x2="132"
       y2="160"
       gradientUnits="userSpaceOnUse" />
    <linearGradient
       inkscape:collect="always"
       id="linearGradient4338">
      <stop
         style="stop-color:#ef5145;stop-opacity:0"
         offset="0"
         id="stop4340" />
      <stop
         id="stop4346"
         offset="1"
         style="stop-color:#ef5145;stop-opacity:1" />
    </linearGradient>
  </defs>
  <path
     style="color:#000000;display:inline;overflow:visible;visibility:visible;opacity:0.1;fill:#000000;fill-opacity:1;fill-rule:nonzero;stroke:none;stroke-width:1;marker:none;filter:url(#filter58492);enable-background:accumulate"
     d="m 225.07297,44.99999 c 35.29673,0 39.09461,3.62542 38.92162,38.99353 v 73.00647 73.00648 C 264.16758,265.37459 260.3697,269 225.07297,269 H 78.916218 c -35.29671,0 -38.92161,-3.625 -38.92161,-38.99353 V 156.99999 83.99352 c 0,-35.36853 3.6249,-38.99353 38.92161,-38.99353 z"
     id="rect4158-7"
     inkscape:connector-curvature="0"
     sodipodi:nodetypes="scccssscsss"
     transform="matrix(0.26457031,0,0,0.26457031,-6.4591693,-7.6419269)" />
  <path
     style="color:#000000;display:inline;overflow:visible;visibility:visible;opacity:0.2;fill:#000000;fill-opacity:1;fill-rule:nonzero;stroke:none;stroke-width:1;marker:none;filter:url(#filter58449);enable-background:accumulate"
     d="m 225.07297,44.99999 c 35.29673,0 39.09461,3.62542 38.92162,38.99353 v 73.00647 73.00648 C 264.16758,265.37459 260.3697,269 225.07297,269 H 78.916218 c -35.29671,0 -38.92161,-3.625 -38.92161,-38.99353 V 156.99999 83.99352 c 0,-35.36853 3.6249,-38.99353 38.92161,-38.99353 z"
     id="rect4158-1"
     inkscape:connector-curvature="0"
     sodipodi:nodetypes="scccssscsss"
     transform="matrix(0.26457031,0,0,0.26457031,-6.4591693,-7.6419269)" />
  <path
     style="color:#000000;display:inline;overflow:visible;visibility:visible;fill:url(#linearGradient1694);fill-opacity:1;fill-rule:nonzero;stroke:none;stroke-width:0.26457;marker:none;enable-background:accumulate"
     d="m 53.088456,3.9990858 c 9.338466,0 10.343273,0.9591785 10.297505,10.3165302 v 19.315343 19.315347 c 0.04577,9.357355 -0.959039,10.31653 -10.297505,10.31653 H 14.419718 c -9.3384604,0 -10.2975014,-0.959067 -10.2975014,-10.31653 V 33.630959 14.315616 c 0,-9.3574628 0.959041,-10.3165302 10.2975014,-10.3165302 z"
     id="rect4158"
     inkscape:connector-curvature="0"
     sodipodi:nodetypes="scccssscsss" />
  <g
     id="g4370"
     style="display:inline;opacity:0.5;stroke-width:4;enable-background:new"
     transform="matrix(0.13228515,0,0,0.13228515,-0.10951936,-0.23395821)">
    <path
       id="rect4273"
       transform="translate(-32,-32)"
       d="m 272,72 v 16 h 32 V 72 Z m 0,24 v 16 h 32 V 96 Z m 0,24 v 16 h 32 v -16 z m 0,24 v 16 h 32 v -16 z m 0,24 v 16 h 32 v -16 z m 0,24 v 16 h 32 v -16 z m 0,24 v 16 h 32 v -16 z m 0,24 v 16 h 32 v -16 z m 0,24 v 16 h 32 v -16 z"
       style="color:#000000;display:inline;overflow:visible;visibility:visible;opacity:1;fill:url(#linearGradient12803);fill-opacity:1;fill-rule:nonzero;stroke:none;stroke-width:128;stroke-linecap:butt;stroke-linejoin:miter;stroke-miterlimit:4;stroke-dasharray:none;stroke-dashoffset:0;stroke-opacity:1;marker:none;enable-background:accumulate"
       inkscape:connector-curvature="0" />
    <path
       inkscape:connector-curvature="0"
       style="color:#000000;display:inline;overflow:visible;visibility:visible;opacity:1;fill:url(#linearGradient12805);fill-opacity:1;fill-rule:nonzero;stroke:none;stroke-width:128;stroke-linecap:butt;stroke-linejoin:miter;stroke-miterlimit:4;stroke-dasharray:none;stroke-dashoffset:0;stroke-opacity:1;marker:none;enable-background:accumulate"
       d="m 200,40 v 16 h 32 V 40 Z m 0,24 v 16 h 32 V 64 Z m 0,24 v 16 h 32 V 88 Z m 0,24 v 16 h 32 v -16 z m 0,24 v 16 h 32 v -16 z m 0,24 v 16 h 32 v -16 z m 0,24 v 16 h 32 v -16 z m 0,24 v 16 h 32 v -16 z m 0,24 v 16 h 32 v -16 z"
       id="path4292" />
    <path
       id="path4294"
       d="m 160,40 v 16 h 32 V 40 Z m 0,24 v 16 h 32 V 64 Z m 0,24 v 16 h 32 V 88 Z m 0,24 v 16 h 32 v -16 z m 0,24 v 16 h 32 v -16 z m 0,24 v 16 h 32 v -16 z m 0,24 v 16 h 32 v -16 z m 0,24 v 16 h 32 v -16 z m 0,24 v 16 h 32 v -16 z"
       style="color:#000000;display:inline;overflow:visible;visibility:visible;opacity:1;fill:url(#linearGradient12807);fill-opacity:1;fill-rule:nonzero;stroke:none;stroke-width:128;stroke-linecap:butt;stroke-linejoin:miter;stroke-miterlimit:4;stroke-dasharray:none;stroke-dashoffset:0;stroke-opacity:1;marker:none;enable-background:accumulate"
       inkscape:connector-curvature="0" />
    <path
       inkscape:connector-curvature="0"
       style="color:#000000;display:inline;overflow:visible;visibility:visible;opacity:1;fill:url(#linearGradient12809);fill-opacity:1;fill-rule:nonzero;stroke:none;stroke-width:128;stroke-linecap:butt;stroke-linejoin:miter;stroke-miterlimit:4;stroke-dasharray:none;stroke-dashoffset:0;stroke-opacity:1;marker:none;enable-background:accumulate"
       d="m 120,40 v 16 h 32 V 40 Z m 0,24 v 16 h 32 V 64 Z m 0,24 v 16 h 32 V 88 Z m 0,24 v 16 h 32 v -16 z m 0,24 v 16 h 32 v -16 z m 0,24 v 16 h 32 v -16 z m 0,24 v 16 h 32 v -16 z m 0,24 v 16 h 32 v -16 z m 0,24 v 16 h 32 v -16 z"
       id="path4296" />
    <path
       id="path4298"
       d="m 80,40 v 16 h 32 V 40 Z m 0,24 v 16 h 32 V 64 Z m 0,24 v 16 h 32 V 88 Z m 0,24 v 16 h 32 v -16 z m 0,24 v 16 h 32 v -16 z m 0,24 v 16 h 32 v -16 z m 0,24 v 16 h 32 v -16 z m 0,24 v 16 h 32 v -16 z m 0,24 v 16 h 32 v -16 z"
       style="color:#000000;display:inline;overflow:visible;visibility:visible;opacity:1;fill:url(#linearGradient12811);fill-opacity:1;fill-rule:nonzero;stroke:none;stroke-width:128;stroke-linecap:butt;stroke-linejoin:miter;stroke-miterlimit:4;stroke-dasharray:none;stroke-dashoffset:0;stroke-opacity:1;marker:none;enable-background:accumulate"
       inkscape:connector-curvature="0" />
    <path
       inkscape:connector-curvature="0"
       style="color:#000000;display:inline;overflow:visible;visibility:visible;opacity:1;fill:url(#linearGradient12813);fill-opacity:1;fill-rule:nonzero;stroke:none;stroke-width:128;stroke-linecap:butt;stroke-linejoin:miter;stroke-miterlimit:4;stroke-dasharray:none;stroke-dashoffset:0;stroke-opacity:1;marker:none;enable-background:accumulate"
       d="M 40,40 V 56 H 72 V 40 Z m 0,24 V 80 H 72 V 64 Z m 0,24 v 16 H 72 V 88 Z m 0,24 v 16 h 32 v -16 z m 0,24 v 16 h 32 v -16 z m 0,24 v 16 h 32 v -16 z m 0,24 v 16 h 32 v -16 z m 0,24 v 16 h 32 v -16 z m 0,24 v 16 h 32 v -16 z"
       id="path4301" />
    <path
       inkscape:connector-curvature="0"
       style="color:#000000;display:inline;overflow:visible;visibility:visible;opacity:1;fill:url(#linearGradient12815);fill-opacity:1;fill-rule:nonzero;stroke:none;stroke-width:128;stroke-linecap:butt;stroke-linejoin:miter;stroke-miterlimit:4;stroke-dasharray:none;stroke-dashoffset:0;stroke-opacity:1;marker:none;enable-background:accumulate"
       d="m 280,40 v 16 h 32 V 40 Z m 0,24 v 16 h 32 V 64 Z m 0,24 v 16 h 32 V 88 Z m 0,24 v 16 h 32 v -16 z m 0,24 v 16 h 32 v -16 z m 0,24 v 16 h 32 v -16 z m 0,24 v 16 h 32 v -16 z m 0,24 v 16 h 32 v -16 z m 0,24 v 16 h 32 v -16 z"
       id="path4303" />
    <path
       id="path4305"
       d="m 320,40 v 16 h 32 V 40 Z m 0,24 v 16 h 32 V 64 Z m 0,24 v 16 h 32 V 88 Z m 0,24 v 16 h 32 v -16 z m 0,24 v 16 h 32 v -16 z m 0,24 v 16 h 32 v -16 z m 0,24 v 16 h 32 v -16 z m 0,24 v 16 h 32 v -16 z m 0,24 v 16 h 32 v -16 z"
       style="color:#000000;display:inline;overflow:visible;visibility:visible;opacity:1;fill:url(#linearGradient12817);fill-opacity:1;fill-rule:nonzero;stroke:none;stroke-width:128;stroke-linecap:butt;stroke-linejoin:miter;stroke-miterlimit:4;stroke-dasharray:none;stroke-dashoffset:0;stroke-opacity:1;marker:none;enable-background:accumulate"
       inkscape:connector-curvature="0" />
    <path
       inkscape:connector-curvature="0"
       style="color:#000000;display:inline;overflow:visible;visibility:visible;opacity:1;fill:url(#linearGradient12819);fill-opacity:1;fill-rule:nonzero;stroke:none;stroke-width:128;stroke-linecap:butt;stroke-linejoin:miter;stroke-miterlimit:4;stroke-dasharray:none;stroke-dashoffset:0;stroke-opacity:1;marker:none;enable-background:accumulate"
       d="m 360,40 v 16 h 32 V 40 Z m 0,24 v 16 h 32 V 64 Z m 0,24 v 16 h 32 V 88 Z m 0,24 v 16 h 32 v -16 z m 0,24 v 16 h 32 v -16 z m 0,24 v 16 h 32 v -16 z m 0,24 v 16 h 32 v -16 z m 0,24 v 16 h 32 v -16 z m 0,24 v 16 h 32 v -16 z"
       id="path4307" />
    <path
       id="path4309"
       d="m 400,40 v 16 h 32 V 40 Z m 0,24 v 16 h 32 V 64 Z m 0,24 v 16 h 32 V 88 Z m 0,24 v 16 h 32 v -16 z m 0,24 v 16 h 32 v -16 z m 0,24 v 16 h 32 v -16 z m 0,24 v 16 h 32 v -16 z m 0,24 v 16 h 32 v -16 z m 0,24 v 16 h 32 v -16 z"
       style="color:#000000;display:inline;overflow:visible;visibility:visible;opacity:1;fill:url(#linearGradient12821);fill-opacity:1;fill-rule:nonzero;stroke:none;stroke-width:128;stroke-linecap:butt;stroke-linejoin:miter;stroke-miterlimit:4;stroke-dasharray:none;stroke-dashoffset:0;stroke-opacity:1;marker:none;enable-background:accumulate"
       inkscape:connector-curvature="0" />
    <path
       inkscape:connector-curvature="0"
       style="color:#000000;display:inline;overflow:visible;visibility:visible;opacity:1;fill:url(#linearGradient12823);fill-opacity:1;fill-rule:nonzero;stroke:none;stroke-width:128;stroke-linecap:butt;stroke-linejoin:miter;stroke-miterlimit:4;stroke-dasharray:none;stroke-dashoffset:0;stroke-opacity:1;marker:none;enable-background:accumulate"
       d="m 440,40 v 16 h 32 V 40 Z m 0,24 v 16 h 32 V 64 Z m 0,24 v 16 h 32 V 88 Z m 0,24 v 16 h 32 v -16 z m 0,24 v 16 h 32 v -16 z m 0,24 v 16 h 32 v -16 z m 0,24 v 16 h 32 v -16 z m 0,24 v 16 h 32 v -16 z m 0,24 v 16 h 32 v -16 z"
       id="path4311" />
  </g>
  <g
     id="g4433"
     style="display:inline;opacity:0.5;stroke-width:4;enable-background:new"
     transform="matrix(0.13228515,0,0,0.13228515,-0.10951936,-0.23395821)">
    <path
       inkscape:connector-curvature="0"
       style="color:#000000;display:inline;overflow:visible;visibility:visible;opacity:0.467;fill:url(#linearGradient12825);fill-opacity:1;fill-rule:nonzero;stroke:none;stroke-width:128;stroke-linecap:butt;stroke-linejoin:miter;stroke-miterlimit:4;stroke-dasharray:none;stroke-dashoffset:0;stroke-opacity:1;marker:none;enable-background:accumulate"
       d="m 240,264 v 16 h 32 v -16 z m 0,24 v 16 h 32 v -16 z m 0,24 v 16 h 32 v -16 z m 0,24 v 16 h 32 v -16 z m 0,24 v 16 h 32 v -16 z m 0,24 v 16 h 32 v -16 z m 0,24 v 16 h 32 v -16 z m 0,24 v 16 h 32 v -16 z m 0,24 v 16 h 32 v -16 z"
       id="path4313" />
    <path
       id="path4392"
       d="m 200,264 v 16 h 32 v -16 z m 0,24 v 16 h 32 v -16 z m 0,24 v 16 h 32 v -16 z m 0,24 v 16 h 32 v -16 z m 0,24 v 16 h 32 v -16 z m 0,24 v 16 h 32 v -16 z m 0,24 v 16 h 32 v -16 z m 0,24 v 16 h 32 v -16 z m 0,24 v 16 h 32 v -16 z"
       style="color:#000000;display:inline;overflow:visible;visibility:visible;opacity:0.467;fill:url(#linearGradient12827);fill-opacity:1;fill-rule:nonzero;stroke:none;stroke-width:128;stroke-linecap:butt;stroke-linejoin:miter;stroke-miterlimit:4;stroke-dasharray:none;stroke-dashoffset:0;stroke-opacity:1;marker:none;enable-background:accumulate"
       inkscape:connector-curvature="0" />
    <path
       inkscape:connector-curvature="0"
       style="color:#000000;display:inline;overflow:visible;visibility:visible;opacity:0.467;fill:url(#linearGradient12829);fill-opacity:1;fill-rule:nonzero;stroke:none;stroke-width:128;stroke-linecap:butt;stroke-linejoin:miter;stroke-miterlimit:4;stroke-dasharray:none;stroke-dashoffset:0;stroke-opacity:1;marker:none;enable-background:accumulate"
       d="m 160,264 v 16 h 32 v -16 z m 0,24 v 16 h 32 v -16 z m 0,24 v 16 h 32 v -16 z m 0,24 v 16 h 32 v -16 z m 0,24 v 16 h 32 v -16 z m 0,24 v 16 h 32 v -16 z m 0,24 v 16 h 32 v -16 z m 0,24 v 16 h 32 v -16 z m 0,24 v 16 h 32 v -16 z"
       id="path4396" />
    <path
       id="path4400"
       d="m 120,264 v 16 h 32 v -16 z m 0,24 v 16 h 32 v -16 z m 0,24 v 16 h 32 v -16 z m 0,24 v 16 h 32 v -16 z m 0,24 v 16 h 32 v -16 z m 0,24 v 16 h 32 v -16 z m 0,24 v 16 h 32 v -16 z m 0,24 v 16 h 32 v -16 z m 0,24 v 16 h 32 v -16 z"
       style="color:#000000;display:inline;overflow:visible;visibility:visible;opacity:0.467;fill:url(#linearGradient12831);fill-opacity:1;fill-rule:nonzero;stroke:none;stroke-width:128;stroke-linecap:butt;stroke-linejoin:miter;stroke-miterlimit:4;stroke-dasharray:none;stroke-dashoffset:0;stroke-opacity:1;marker:none;enable-background:accumulate"
       inkscape:connector-curvature="0" />
    <path
       inkscape:connector-curvature="0"
       style="color:#000000;display:inline;overflow:visible;visibility:visible;opacity:0.467;fill:url(#linearGradient12833);fill-opacity:1;fill-rule:nonzero;stroke:none;stroke-width:128;stroke-linecap:butt;stroke-linejoin:miter;stroke-miterlimit:4;stroke-dasharray:none;stroke-dashoffset:0;stroke-opacity:1;marker:none;enable-background:accumulate"
       d="m 80,264 v 16 h 32 v -16 z m 0,24 v 16 h 32 v -16 z m 0,24 v 16 h 32 v -16 z m 0,24 v 16 h 32 v -16 z m 0,24 v 16 h 32 v -16 z m 0,24 v 16 h 32 v -16 z m 0,24 v 16 h 32 v -16 z m 0,24 v 16 h 32 v -16 z m 0,24 v 16 h 32 v -16 z"
       id="path4404" />
    <path
       id="path4408"
       d="m 40,264 v 16 h 32 v -16 z m 0,24 v 16 h 32 v -16 z m 0,24 v 16 h 32 v -16 z m 0,24 v 16 h 32 v -16 z m 0,24 v 16 h 32 v -16 z m 0,24 v 16 h 32 v -16 z m 0,24 v 16 h 32 v -16 z m 0,24 v 16 h 32 v -16 z m 0,24 v 16 h 32 v -16 z"
       style="color:#000000;display:inline;overflow:visible;visibility:visible;opacity:0.467;fill:url(#linearGradient12835);fill-opacity:1;fill-rule:nonzero;stroke:none;stroke-width:128;stroke-linecap:butt;stroke-linejoin:miter;stroke-miterlimit:4;stroke-dasharray:none;stroke-dashoffset:0;stroke-opacity:1;marker:none;enable-background:accumulate"
       inkscape:connector-curvature="0" />
    <path
       id="path4413"
       d="m 280,264 v 16 h 32 v -16 z m 0,24 v 16 h 32 v -16 z m 0,24 v 16 h 32 v -16 z m 0,24 v 16 h 32 v -16 z m 0,24 v 16 h 32 v -16 z m 0,24 v 16 h 32 v -16 z m 0,24 v 16 h 32 v -16 z m 0,24 v 16 h 32 v -16 z m 0,24 v 16 h 32 v -16 z"
       style="color:#000000;display:inline;overflow:visible;visibility:visible;opacity:0.467;fill:url(#linearGradient12837);fill-opacity:1;fill-rule:nonzero;stroke:none;stroke-width:128;stroke-linecap:butt;stroke-linejoin:miter;stroke-miterlimit:4;stroke-dasharray:none;stroke-dashoffset:0;stroke-opacity:1;marker:none;enable-background:accumulate"
       inkscape:connector-curvature="0" />
    <path
       inkscape:connector-curvature="0"
       style="color:#000000;display:inline;overflow:visible;visibility:visible;opacity:0.467;fill:url(#linearGradient12839);fill-opacity:1;fill-rule:nonzero;stroke:none;stroke-width:128;stroke-linecap:butt;stroke-linejoin:miter;stroke-miterlimit:4;stroke-dasharray:none;stroke-dashoffset:0;stroke-opacity:1;marker:none;enable-background:accumulate"
       d="m 320,264 v 16 h 32 v -16 z m 0,24 v 16 h 32 v -16 z m 0,24 v 16 h 32 v -16 z m 0,24 v 16 h 32 v -16 z m 0,24 v 16 h 32 v -16 z m 0,24 v 16 h 32 v -16 z m 0,24 v 16 h 32 v -16 z m 0,24 v 16 h 32 v -16 z m 0,24 v 16 h 32 v -16 z"
       id="path4417" />
    <path
       id="path4421"
       d="m 360,264 v 16 h 32 v -16 z m 0,24 v 16 h 32 v -16 z m 0,24 v 16 h 32 v -16 z m 0,24 v 16 h 32 v -16 z m 0,24 v 16 h 32 v -16 z m 0,24 v 16 h 32 v -16 z m 0,24 v 16 h 32 v -16 z m 0,24 v 16 h 32 v -16 z m 0,24 v 16 h 32 v -16 z"
       style="color:#000000;display:inline;overflow:visible;visibility:visible;opacity:0.467;fill:url(#linearGradient12841);fill-opacity:1;fill-rule:nonzero;stroke:none;stroke-width:128;stroke-linecap:butt;stroke-linejoin:miter;stroke-miterlimit:4;stroke-dasharray:none;stroke-dashoffset:0;stroke-opacity:1;marker:none;enable-background:accumulate"
       inkscape:connector-curvature="0" />
    <path
       inkscape:connector-curvature="0"
       style="color:#000000;display:inline;overflow:visible;visibility:visible;opacity:0.467;fill:url(#linearGradient12843);fill-opacity:1;fill-rule:nonzero;stroke:none;stroke-width:128;stroke-linecap:butt;stroke-linejoin:miter;stroke-miterlimit:4;stroke-dasharray:none;stroke-dashoffset:0;stroke-opacity:1;marker:none;enable-background:accumulate"
       d="m 400,264 v 16 h 32 v -16 z m 0,24 v 16 h 32 v -16 z m 0,24 v 16 h 32 v -16 z m 0,24 v 16 h 32 v -16 z m 0,24 v 16 h 32 v -16 z m 0,24 v 16 h 32 v -16 z m 0,24 v 16 h 32 v -16 z m 0,24 v 16 h 32 v -16 z m 0,24 v 16 h 32 v -16 z"
       id="path4425" />
    <path
       id="path4429"
       d="m 440,264 v 16 h 32 v -16 z m 0,24 v 16 h 32 v -16 z m 0,24 v 16 h 32 v -16 z m 0,24 v 16 h 32 v -16 z m 0,24 v 16 h 32 v -16 z m 0,24 v 16 h 32 v -16 z m 0,24 v 16 h 32 v -16 z m 0,24 v 16 h 32 v -16 z m 0,24 v 16 h 32 v -16 z"
       style="color:#000000;display:inline;overflow:visible;visibility:visible;opacity:0.467;fill:url(#linearGradient12845);fill-opacity:1;fill-rule:nonzero;stroke:none;stroke-width:128;stroke-linecap:butt;stroke-linejoin:miter;stroke-miterlimit:4;stroke-dasharray:none;stroke-dashoffset:0;stroke-opacity:1;marker:none;enable-background:accumulate"
       inkscape:connector-curvature="0" />
  </g>
  <path
     sodipodi:nodetypes="cccccccccccsccccccccsccsccccccssccccccccsc"
     inkscape:connector-curvature="0"
     id="path1185"
     d="m 194.32065,84.566415 c -1.87857,-0.0209 -4.37616,0.272105 -7.69922,0.771485 l -53.27148,8.455078 c -13.35029,2.84277 -13.30447,3.727015 -13.34961,15.005862 v 22.08594 11.11523 58.31444 c -0.55679,-0.39 -1.10598,-0.78219 -1.68164,-1.16797 v 0.004 c -4.24148,-2.84237 -8.76205,-4.86522 -14.83398,-4.86523 -7.60552,0 -12.1411,2.91223 -14.88673,6.74804 -2.7456,3.83581 -3.65625,8.67073 -3.65625,12.40821 0,4.5069 1.53879,9.31691 4.87695,12.98242 3.33817,3.6655 8.47042,6.23232 15.84962,6.23242 8.3328,0 14.19429,-2.32681 17.50781,-6.87109 2.6089,-3.57788 4.05156,-8.35783 4.56641,-14.25391 v -0.01 -0.006 c 0.0721,-0.7153 0.1244,-1.45005 0.16992,-2.20703 0.0699,-1.16546 0.0547,-3.3457 0.0547,-3.3457 v -70.07226 c 0,-10.01023 -4.9e-4,-10.60779 13.35351,-12.89062 l 37.29883,-6.16797 c 13.37805,-1.75035 13.38085,-0.52302 13.38085,6.98466 v 6.18359 58.12304 c -0.54184,-0.37965 -1.07687,-0.76155 -1.63672,-1.13672 v 0.004 c -4.24148,-2.84237 -8.76009,-4.8652 -14.83203,-4.86522 -7.60555,0 -12.14304,2.91224 -14.88867,6.74804 -2.7456,3.83581 -3.65625,8.6707 -3.65625,12.4082 0,4.50688 1.54074,9.31693 4.8789,12.98242 3.33817,3.6655 8.47036,6.23426 15.84961,6.23438 8.3328,0 14.1943,-2.32877 17.50782,-6.87305 2.6089,-3.57788 4.04961,-8.35586 4.56445,-14.25195 v -0.01 -0.008 c 0.0721,-0.71533 0.12443,-1.44811 0.16992,-2.20508 0.0699,-1.16547 0.0566,-3.34766 0.0566,-3.34766 V 116.3086 96.316415 c 0,-8.77962 -0.0577,-11.68721 -5.69336,-11.75 z"
     style="font-style:normal;font-variant:normal;font-weight:normal;font-stretch:normal;font-size:15px;line-height:125%;font-family:Ubuntu;-inkscape-font-specification:Ubuntu;text-align:center;letter-spacing:0px;word-spacing:0px;writing-mode:lr-tb;text-anchor:middle;display:inline;opacity:0.4;fill:url(#linearGradient1193);fill-opacity:1;stroke:none;stroke-width:1.66771;filter:url(#filter1197);enable-background:new"
     transform="matrix(0.26457031,0,0,0.26457031,-6.4591693,-7.6419269)" />
  <path
     sodipodi:nodetypes="cccccccccccsccccccccsccsccccccssccccccccsc"
     inkscape:connector-curvature="0"
     id="path1164"
     d="m 194.32065,83.566415 c -1.87857,-0.0209 -4.37616,0.272105 -7.69922,0.771485 l -53.27148,8.455078 c -13.35029,2.84277 -13.30447,3.727015 -13.34961,15.005862 v 22.08594 11.11523 58.31444 c -0.55679,-0.39 -1.10598,-0.78219 -1.68164,-1.16797 v 0.004 c -4.24148,-2.84237 -8.76205,-4.86522 -14.83398,-4.86523 -7.60552,0 -12.1411,2.91223 -14.88673,6.74804 -2.7456,3.83581 -3.65625,8.67073 -3.65625,12.40821 0,4.5069 1.53879,9.31691 4.87695,12.98242 3.33817,3.6655 8.47042,6.23232 15.84962,6.23242 8.3328,0 14.19429,-2.32681 17.50781,-6.87109 2.6089,-3.57788 4.05156,-8.35783 4.56641,-14.25391 v -0.01 -0.006 c 0.0721,-0.7153 0.1244,-1.45005 0.16992,-2.20703 0.0699,-1.16546 0.0547,-3.3457 0.0547,-3.3457 v -70.07226 c 0,-10.01023 -4.9e-4,-10.60779 13.35351,-12.89062 l 37.29883,-6.16797 c 13.37805,-1.75035 13.38085,-0.52302 13.38085,6.98466 v 6.18359 58.12304 c -0.54184,-0.37965 -1.07687,-0.76155 -1.63672,-1.13672 v 0.004 c -4.24148,-2.84237 -8.76009,-4.8652 -14.83203,-4.86522 -7.60555,0 -12.14304,2.91224 -14.88867,6.74804 -2.7456,3.83581 -3.65625,8.6707 -3.65625,12.4082 0,4.50688 1.54074,9.31693 4.8789,12.98242 3.33817,3.6655 8.47036,6.23426 15.84961,6.23438 8.3328,0 14.1943,-2.32877 17.50782,-6.87305 2.6089,-3.57788 4.04961,-8.35586 4.56445,-14.25195 v -0.01 -0.008 c 0.0721,-0.71533 0.12443,-1.44811 0.16992,-2.20508 0.0699,-1.16547 0.0566,-3.34766 0.0566,-3.34766 V 115.3086 95.316415 c 0,-8.77962 -0.0577,-11.68721 -5.69336,-11.75 z"
     style="font-style:normal;font-variant:normal;font-weight:normal;font-stretch:normal;font-size:15px;line-height:125%;font-family:Ubuntu;-inkscape-font-specification:Ubuntu;text-align:center;letter-spacing:0px;word-spacing:0px;writing-mode:lr-tb;text-anchor:middle;display:inline;opacity:0.1;fill:#000000;fill-opacity:1;stroke:none;stroke-width:1.66771;filter:url(#filter1178);enable-background:new"
     transform="matrix(0.26457031,0,0,0.26457031,-6.4591693,-7.6419269)" />
  <path
     style="font-style:normal;font-variant:normal;font-weight:normal;font-stretch:normal;font-size:15px;line-height:125%;font-family:Ubuntu;-inkscape-font-specification:Ubuntu;text-align:center;letter-spacing:0px;word-spacing:0px;writing-mode:lr-tb;text-anchor:middle;display:inline;fill:#fef8f8;fill-opacity:1;stroke:none;stroke-width:0.441227;enable-background:new"
     d="m 44.952305,14.202695 c -0.497014,-0.0055 -1.157802,0.07199 -2.036985,0.204112 l -14.094052,2.236962 c -3.532091,0.752113 -3.519968,0.986058 -3.531911,3.970106 v 5.843284 2.94076 15.428269 c -0.14731,-0.103182 -0.292609,-0.206944 -0.444912,-0.30901 v 0.0011 c -1.122169,-0.752006 -2.318178,-1.287192 -3.92463,-1.287195 -2.012195,0 -3.212175,0.770489 -3.938587,1.785331 -0.726404,1.014841 -0.967335,2.294018 -0.967335,3.282844 0,1.192392 0.407118,2.464978 1.290296,3.434763 0.88318,0.969782 2.241021,1.648887 4.193339,1.648913 2.204611,0 3.755387,-0.615605 4.632046,-1.817886 0.690238,-0.946601 1.071923,-2.211234 1.208137,-3.771162 v -0.0026 -0.0016 c 0.01908,-0.189247 0.03291,-0.38364 0.04496,-0.583914 0.01849,-0.308347 0.01447,-0.885173 0.01447,-0.885173 v -18.53904 c 0,-2.64841 -1.3e-4,-2.806506 3.532942,-3.410475 l 9.868163,-1.631862 c 3.539435,-0.463091 3.540176,-0.138376 3.540176,1.847934 V 26.22315 41.600781 C 44.195067,41.500337 44.053514,41.3993 43.905394,41.300038 v 0.0011 c -1.12217,-0.75201 -2.31766,-1.28719 -3.924115,-1.287196 -2.012202,0 -3.212688,0.770492 -3.9391,1.785331 -0.726404,1.014842 -0.967335,2.29401 -0.967335,3.282842 0,1.192386 0.407634,2.464983 1.290812,3.434762 0.883181,0.969783 2.241006,1.649401 4.193336,1.649432 2.204612,0 3.755391,-0.616123 4.63205,-1.818405 0.690237,-0.9466 1.071406,-2.210712 1.207618,-3.770642 v -0.0026 -0.0021 c 0.01908,-0.189255 0.03292,-0.383127 0.04496,-0.583398 0.01849,-0.308349 0.01497,-0.885692 0.01497,-0.885692 V 22.600734 17.311396 c 0,-2.322827 -0.01527,-3.092089 -1.506294,-3.108701 z"
     id="path4393"
     inkscape:connector-curvature="0"
     sodipodi:nodetypes="cccccccccccsccccccccsccsccccccssccccccccsc" />
  <path
     style="font-style:normal;font-variant:normal;font-weight:normal;font-stretch:normal;font-size:15px;line-height:125%;font-family:Ubuntu;-inkscape-font-specification:Ubuntu;text-align:center;letter-spacing:0px;word-spacing:0px;writing-mode:lr-tb;text-anchor:middle;display:inline;opacity:0.1;fill:url(#linearGradient1159);fill-opacity:1;stroke:none;stroke-width:0.441227;enable-background:new"
     d="m 25.959567,17.580617 c -0.660984,0.51889 -0.663371,1.32457 -0.67021,3.033258 v 5.843284 2.94076 15.428269 c -0.14731,-0.103182 -0.292609,-0.206944 -0.444912,-0.30901 v 0.0011 c -1.122169,-0.752006 -2.318178,-1.287192 -3.92463,-1.287195 -2.012198,0 -3.212175,0.770489 -3.938587,1.785331 -0.726404,1.014841 -0.967335,2.294018 -0.967335,3.282844 0,1.192392 0.407118,2.464978 1.290296,3.434763 0.88318,0.969782 2.241021,1.648887 4.193339,1.648913 2.204611,0 3.755387,-0.615605 4.632046,-1.817886 0.690238,-0.946601 1.071923,-2.211234 1.208137,-3.771162 v -0.0026 -0.0016 c 0.01908,-0.189247 0.03291,-0.38364 0.04496,-0.583914 0.01849,-0.308347 0.01447,-0.885173 0.01447,-0.885173 v -18.53904 c 0,-2.64841 -1.3e-4,-2.806506 3.532942,-3.410475 l 9.868163,-1.631862 c 0.900849,-0.117863 1.570378,-0.184117 2.071091,-0.185509 z m 18.118415,5.328612 c 0.256665,0.313809 0.260438,0.849707 0.260438,1.677852 v 1.635994 15.377631 c -0.143355,-0.100444 -0.284908,-0.201481 -0.433028,-0.300743 v 0.0011 c -1.12217,-0.75201 -2.31766,-1.28719 -3.924115,-1.287196 -2.012202,0 -3.212688,0.770492 -3.9391,1.785331 -0.726404,1.014842 -0.967335,2.29401 -0.967335,3.282842 0,1.192386 0.407634,2.464983 1.290812,3.434762 0.883181,0.969783 2.241006,1.649401 4.193336,1.649432 2.204612,0 3.755391,-0.616123 4.63205,-1.818405 0.690237,-0.9466 1.071406,-2.210712 1.207618,-3.770642 v -0.0026 -0.0021 c 0.01908,-0.189255 0.03292,-0.383127 0.04496,-0.583398 0.01849,-0.308349 0.01497,-0.885692 0.01497,-0.885692 V 23.609321 Z"
     id="path1129"
     inkscape:connector-curvature="0" />
  <path
     style="font-style:normal;font-variant:normal;font-weight:normal;font-stretch:normal;font-size:15px;line-height:125%;font-family:Ubuntu;-inkscape-font-specification:Ubuntu;text-align:center;letter-spacing:0px;word-spacing:0px;writing-mode:lr-tb;text-anchor:middle;display:inline;fill:#ffffff;fill-opacity:1;stroke:none;stroke-width:0.441227;enable-background:new"
     d="m 44.952305,14.202695 c -0.497014,-0.0055 -1.157802,0.07199 -2.036985,0.204112 l -14.094052,2.236962 c -3.532091,0.752113 -3.519968,0.986057 -3.531911,3.970106 v 0.529141 c 0.01193,-2.984049 -1.8e-4,-3.217993 3.531911,-3.970106 L 42.91532,14.935947 c 0.879183,-0.132121 1.539971,-0.209641 2.036985,-0.204112 1.491028,0.01661 1.506294,0.785875 1.506294,3.108701 v -0.52914 c 0,-2.322827 -0.01527,-3.092089 -1.506294,-3.108701 z M 39.981277,40.0138 c -2.012202,0 -3.212688,0.770492 -3.9391,1.785333 -0.726404,1.014842 -0.967335,2.29401 -0.967335,3.282842 0,0.07392 0.0061,0.148784 0.0093,0.223231 0.04545,-0.937386 0.304074,-2.063299 0.958036,-2.976932 0.726412,-1.014839 1.926897,-1.785334 3.9391,-1.785334 1.606455,6e-6 2.801945,0.535189 3.924115,1.287196 v -0.0011 c 0.14812,0.09926 0.289673,0.200298 0.433027,0.300742 v -0.529141 c -0.143354,-0.100444 -0.284907,-0.201483 -0.433027,-0.300742 v 0.0011 c -1.12217,-0.752007 -2.31766,-1.28719 -3.924116,-1.287195 z m -19.061462,3.217217 c -2.012198,0 -3.212175,0.77049 -3.938587,1.785331 -0.726404,1.014842 -0.967335,2.294018 -0.967335,3.282844 0,0.07392 0.0062,0.148781 0.0093,0.223231 0.04545,-0.937383 0.304074,-2.063302 0.958036,-2.976934 0.72641,-1.014842 1.926389,-1.785331 3.938584,-1.785331 1.606453,2e-6 2.802461,0.535188 3.924631,1.287195 v -0.0011 c 0.152302,0.102066 0.297602,0.205828 0.444912,0.30901 v -0.529141 c -0.14731,-0.103182 -0.29261,-0.206944 -0.444912,-0.30901 v 0.0011 c -1.12217,-0.752006 -2.318178,-1.287192 -3.924631,-1.287195 z"
     id="path1201"
     inkscape:connector-curvature="0" />
  <path
     style="color:#000000;display:inline;overflow:visible;visibility:visible;opacity:0.1;fill:#ffffff;fill-opacity:1;fill-rule:nonzero;stroke:none;stroke-width:0.26457;marker:none;enable-background:accumulate"
     d="m 4.1220556,33.631041 v 2.116563 17.19862 c 0,9.357463 0.959111,10.316692 10.2975734,10.316692 h 38.668604 c 9.338467,0 10.34334,-0.959337 10.297572,-10.316692 v -17.19862 -2.116563 z"
     id="rect4158-5"
     inkscape:connector-curvature="0"
     sodipodi:nodetypes="ccssscccc" />
  <path
     style="color:#000000;display:inline;overflow:visible;visibility:visible;opacity:0.3;fill:#ffffff;fill-opacity:1;fill-rule:nonzero;stroke:none;stroke-width:0.26457;marker:none;enable-background:accumulate"
     d="m 14.421216,3.9990868 c -9.3384654,0 -10.3433414,0.9593399 -10.2975734,10.3166912 v 0.529141 C 4.0778746,5.4875673 5.0827506,4.5282275 14.421216,4.5282275 h 38.668602 c 9.338467,0 10.297574,0.9592287 10.297574,10.3166915 v -0.529141 c 0,-9.3574624 -0.959107,-10.3166912 -10.297574,-10.3166912 z"
     id="path931"
     inkscape:connector-curvature="0"
     sodipodi:nodetypes="sccsscsss" />
  <path
     style="color:#000000;display:inline;overflow:visible;visibility:visible;opacity:0.2;fill:#000000;fill-opacity:1;fill-rule:nonzero;stroke:none;stroke-width:0.26457;marker:none;enable-background:accumulate"
     d="m 14.422645,63.262836 c -9.3384664,0 -10.3433424,-0.959339 -10.2975744,-10.316691 v -0.529141 c -0.04577,9.357352 0.959108,10.316692 10.2975744,10.316692 h 38.668602 c 9.338467,0 10.297574,-0.959229 10.297574,-10.316692 v 0.529141 c 0,9.357463 -0.959107,10.316691 -10.297574,10.316691 z"
     id="path931-8"
     inkscape:connector-curvature="0"
     sodipodi:nodetypes="sccsscsss" />
</svg>
