<?xml version="1.0" encoding="UTF-8" standalone="no"?>
<svg
   width="256"
   height="256"
   viewBox="0 0 67.73 67.73"
   version="1.1"
   id="svg75"
   sodipodi:docname="yast-disk.svg"
   inkscape:version="1.1.2 (0a00cf5339, 2022-02-04)"
   xmlns:inkscape="http://www.inkscape.org/namespaces/inkscape"
   xmlns:sodipodi="http://sodipodi.sourceforge.net/DTD/sodipodi-0.dtd"
   xmlns:xlink="http://www.w3.org/1999/xlink"
   xmlns="http://www.w3.org/2000/svg"
   xmlns:svg="http://www.w3.org/2000/svg">
  <sodipodi:namedview
     id="namedview77"
     pagecolor="#ffffff"
     bordercolor="#666666"
     borderopacity="1.0"
     inkscape:pageshadow="2"
     inkscape:pageopacity="0.0"
     inkscape:pagecheckerboard="0"
     showgrid="false"
     inkscape:zoom="2.5664062"
     inkscape:cx="128"
     inkscape:cy="128"
     inkscape:window-width="1920"
     inkscape:window-height="1007"
     inkscape:window-x="0"
     inkscape:window-y="0"
     inkscape:window-maximized="1"
     inkscape:current-layer="svg75" />
  <defs
     id="defs41">
    <linearGradient
       id="i"
       x1="296"
       x2="296"
       y1="-212"
       y2="236"
       gradientUnits="userSpaceOnUse">
      <stop
         offset="0"
         stop-color="#FFFEFE"
         id="stop2" />
      <stop
         offset=".125"
         stop-color="#FFFEFE"
         stop-opacity=".098"
         id="stop4" />
      <stop
         offset=".925"
         stop-opacity=".098"
         id="stop6" />
      <stop
         offset="1"
         stop-opacity=".498"
         id="stop8" />
    </linearGradient>
    <clipPath
       id="h">
      <path
         d="M361.938-212C507.235-212 528-191.287 528-46.125v116.25C528 215.286 507.235 236 361.937 236H214.063C68.766 236 48 215.286 48 70.125v-116.25C48-191.287 68.765-212 214.063-212z"
         fill="#9F4AC8"
         id="path11" />
    </clipPath>
    <linearGradient
       id="g"
       x1="77"
       x2="227"
       y1="156"
       y2="156"
       gradientTransform="matrix(0 -.26458 -.26458 0 74.498 303.464)"
       gradientUnits="userSpaceOnUse">
      <stop
         offset="0"
         stop-color="#EEEDED"
         id="stop14" />
      <stop
         offset="1"
         stop-color="#EEEDED"
         id="stop16" />
    </linearGradient>
    <filter
       id="f"
       x="-0.06"
       y="-0.06"
       width="1.12"
       height="1.12"
       color-interpolation-filters="sRGB">
      <feGaussianBlur
         stdDeviation="3.75"
         id="feGaussianBlur19" />
    </filter>
    <linearGradient
       id="e"
       x1="152"
       x2="152"
       y1="124"
       y2="236"
       gradientUnits="userSpaceOnUse">
      <stop
         offset="0"
         id="stop22" />
      <stop
         offset="1"
         stop-opacity="0"
         id="stop24" />
    </linearGradient>
    <clipPath
       id="d">
      <path
         d="M152 68c-48.601 0-88 39.399-88 88s39.399 88 88 88 88-39.399 88-88-39.399-88-88-88z"
         fill="#111110"
         id="path27" />
    </clipPath>
    <linearGradient
       id="c"
       x1="32"
       x2="272"
       y1="156"
       y2="156"
       gradientTransform="matrix(0 .26458 -.26458 0 74.498 223.031)"
       gradientUnits="userSpaceOnUse">
      <stop
         offset="0"
         stop-color="#EEEDED"
         id="stop30" />
      <stop
         offset="1"
         stop-color="#EEEDED"
         id="stop32" />
    </linearGradient>
    <filter
       id="b"
       x="-0.023199999"
       y="-0.024857142"
       width="1.0464"
       height="1.0497143"
       color-interpolation-filters="sRGB">
      <feGaussianBlur
         stdDeviation="2.32"
         id="feGaussianBlur35" />
    </filter>
    <filter
       id="a"
       x="-0.0116"
       y="-0.012428571"
       width="1.0232"
       height="1.0248571"
       color-interpolation-filters="sRGB">
      <feGaussianBlur
         stdDeviation="1.16"
         id="feGaussianBlur38" />
    </filter>
    <filter
       inkscape:collect="always"
       style="color-interpolation-filters:sRGB"
       id="filter48967"
       x="-0.012"
       width="1.024"
       y="-0.012"
       height="1.024">
      <feGaussianBlur
         inkscape:collect="always"
         stdDeviation="1.12"
         id="feGaussianBlur48969" />
    </filter>
    <filter
       inkscape:collect="always"
       style="color-interpolation-filters:sRGB"
       id="filter48952"
       x="-0.048"
       width="1.096"
       y="-0.048"
       height="1.096">
      <feGaussianBlur
         inkscape:collect="always"
         stdDeviation="4.48"
         id="feGaussianBlur48954" />
    </filter>
    <linearGradient
       inkscape:collect="always"
       xlink:href="#linearGradient1392"
       id="linearGradient4103"
       gradientUnits="userSpaceOnUse"
       gradientTransform="matrix(0,-1,-1,0,308.00017,307.99985)"
       x1="77"
       y1="156"
       x2="227"
       y2="156" />
    <linearGradient
       inkscape:collect="always"
       id="linearGradient1392">
      <stop
         style="stop-color:#e6e6e6;stop-opacity:1;"
         offset="0"
         id="stop1388" />
      <stop
         style="stop-color:#f2f2f2;stop-opacity:1"
         offset="1"
         id="stop1390" />
    </linearGradient>
  </defs>
  <circle
     style="display:inline;opacity:0.1;fill:#000000;fill-opacity:1;stroke:none;stroke-width:1;stroke-linecap:round;stroke-linejoin:round;stroke-miterlimit:4;stroke-dasharray:none;stroke-opacity:1;filter:url(#filter48967);enable-background:new"
     id="path11042-4"
     r="112"
     cy="157"
     cx="152"
     transform="matrix(0.26457031,0,0,0.26457031,-6.6455026,-7.7606708)" />
  <circle
     style="display:inline;opacity:0.2;fill:#000000;fill-opacity:1;stroke:none;stroke-width:1;stroke-linecap:round;stroke-linejoin:round;stroke-miterlimit:4;stroke-dasharray:none;stroke-opacity:1;filter:url(#filter48952);enable-background:new"
     id="path11042-9"
     r="112"
     cy="157"
     cx="152"
     transform="matrix(0.26457031,0,0,0.26457031,-6.6455026,-7.7606708)" />
  <g
     transform="matrix(0.3950912,0,0,0.39509123,-26.484713,-28.121902)"
     style="display:inline;stroke-width:0.669644;enable-background:new"
     id="g8831"
     clip-path="none">
    <g
       id="g1160-7-2"
       style="display:inline;stroke-width:0.669644;enable-background:new">
      <g
         style="stroke-width:0.669644"
         id="g1156-0-6">
        <path
           style="opacity:1;fill:#f76363;fill-opacity:1;stroke:none;stroke-width:1.33929;stroke-linecap:butt;stroke-linejoin:miter;stroke-miterlimit:4;stroke-dasharray:1.33929, 1.33929;stroke-dashoffset:1;stroke-opacity:1"
           id="path1148-9-1"
           sodipodi:type="arc"
           sodipodi:cx="152"
           sodipodi:cy="156"
           sodipodi:rx="75"
           sodipodi:ry="75"
           sodipodi:start="1.5526524"
           sodipodi:end="5.703321"
           sodipodi:arc-type="slice"
           d="M 153.36072,230.98766 A 75,75 0 0 1 78.576295,171.29574 75,75 0 0 1 123.30393,86.706885 75,75 0 0 1 214.74028,114.90672 L 152,156 Z" />
        <path
           sodipodi:end="0.57309657"
           sodipodi:start="5.5850536"
           sodipodi:ry="75"
           sodipodi:rx="75"
           sodipodi:cy="156"
           sodipodi:cx="152"
           sodipodi:type="arc"
           id="path1150-3-8"
           style="opacity:1;fill:#5884f4;fill-opacity:1;stroke:none;stroke-width:1.33929;stroke-linecap:butt;stroke-linejoin:miter;stroke-miterlimit:4;stroke-dasharray:1.33929, 1.33929;stroke-dashoffset:1;stroke-opacity:1"
           sodipodi:arc-type="slice"
           d="m 209.45333,107.79093 a 75,75 0 0 1 5.56361,88.8768 L 152,156 Z" />
        <path
           style="opacity:1;fill:#76c22b;fill-opacity:1;stroke:none;stroke-width:1.33929;stroke-linecap:butt;stroke-linejoin:miter;stroke-miterlimit:4;stroke-dasharray:1.33929, 1.33929;stroke-dashoffset:1;stroke-opacity:1"
           id="path1152-6-7"
           sodipodi:type="arc"
           sodipodi:cx="152"
           sodipodi:cy="156"
           sodipodi:rx="75"
           sodipodi:ry="75"
           sodipodi:start="0.9595926"
           sodipodi:end="1.8325957"
           sodipodi:arc-type="slice"
           d="m 195.03903,217.42184 a 75,75 0 0 1 -62.45046,11.0226 L 152,156 Z" />
        <path
           sodipodi:end="1.0471976"
           sodipodi:start="0.43633231"
           sodipodi:ry="75"
           sodipodi:rx="75"
           sodipodi:cy="156"
           sodipodi:cx="152"
           sodipodi:type="arc"
           id="path1154-0-9"
           style="opacity:1;fill:#fdc92b;fill-opacity:1;stroke:none;stroke-width:1.33929;stroke-linecap:butt;stroke-linejoin:miter;stroke-miterlimit:4;stroke-dasharray:1.33929, 1.33929;stroke-dashoffset:1;stroke-opacity:1"
           sodipodi:arc-type="slice"
           d="M 219.97308,187.69637 A 75,75 0 0 1 189.5,220.95191 L 152,156 Z" />
      </g>
    </g>
    <path
       sodipodi:nodetypes="sssss"
       inkscape:connector-curvature="0"
       id="path949"
       d="m 152.00017,80.999836 c -41.42135,0 -75.000002,33.578644 -75.000002,75.000004 0,41.42136 33.578652,75 75.000002,75 41.42135,0 75,-33.57864 75,-75 0,-41.42136 -33.57865,-75.000004 -75,-75.000004 z"
       style="display:inline;opacity:0.2;fill:url(#linearGradient4103);fill-opacity:1;stroke:none;stroke-width:10.7143;stroke-linecap:round;stroke-linejoin:round;stroke-miterlimit:4;stroke-dasharray:none;stroke-dashoffset:0;stroke-opacity:1;enable-background:new" />
  </g>
  <path
     inkscape:connector-curvature="0"
     style="display:inline;opacity:0.2;fill:#000000;fill-opacity:1;stroke:none;stroke-width:0.26457;stroke-linecap:round;stroke-linejoin:round;stroke-miterlimit:4;stroke-dasharray:none;stroke-opacity:1;enable-background:new"
     d="M 33.569184,63.144169 A 29.631875,29.631875 0 0 1 3.9373098,33.512295 29.631875,29.631875 0 0 1 3.9481628,33.202769 29.631875,29.631875 0 0 0 33.569184,62.615029 29.631875,29.631875 0 0 0 63.190206,33.29268 a 29.631875,29.631875 0 0 1 0.01085,0.219615 29.631875,29.631875 0 0 1 -29.631875,29.631874 z"
     id="path11042-1-7" />
  <path
     style="display:inline;opacity:0.3;fill:#ffffff;fill-opacity:1;stroke:none;stroke-width:0.26457;stroke-linecap:round;stroke-linejoin:round;stroke-miterlimit:4;stroke-dasharray:none;stroke-opacity:1;enable-background:new"
     d="M 33.569184,3.8804213 A 29.631875,29.631875 0 0 0 3.9373098,33.512295 29.631875,29.631875 0 0 0 3.9481625,33.821821 29.631875,29.631875 0 0 1 33.569184,4.4095619 29.631875,29.631875 0 0 1 63.190206,33.731909 29.631875,29.631875 0 0 0 63.201054,33.512295 29.631875,29.631875 0 0 0 33.569179,3.8804213 Z"
     id="path11042-1"
     inkscape:connector-curvature="0" />
</svg>
