<?xml version="1.0" encoding="UTF-8" standalone="no"?>
<!-- Created with Inkscape (http://www.inkscape.org/) -->

<svg
   width="64mm"
   height="64mm"
   viewBox="0 0 64 64"
   version="1.1"
   id="svg1128"
   inkscape:version="1.1.2 (0a00cf5339, 2022-02-04)"
   sodipodi:docname="preferences-desktop-plasma-theme.svg"
   xmlns:inkscape="http://www.inkscape.org/namespaces/inkscape"
   xmlns:sodipodi="http://sodipodi.sourceforge.net/DTD/sodipodi-0.dtd"
   xmlns:xlink="http://www.w3.org/1999/xlink"
   xmlns="http://www.w3.org/2000/svg"
   xmlns:svg="http://www.w3.org/2000/svg">
  <sodipodi:namedview
     id="namedview1130"
     pagecolor="#ffffff"
     bordercolor="#666666"
     borderopacity="1.0"
     inkscape:pageshadow="2"
     inkscape:pageopacity="0.0"
     inkscape:pagecheckerboard="0"
     inkscape:document-units="mm"
     showgrid="false"
     inkscape:zoom="0.79553171"
     inkscape:cx="208.03696"
     inkscape:cy="292.25736"
     inkscape:window-width="1920"
     inkscape:window-height="1028"
     inkscape:window-x="0"
     inkscape:window-y="24"
     inkscape:window-maximized="1"
     inkscape:current-layer="layer1" />
  <defs
     id="defs1125">
    <filter
       inkscape:collect="always"
       style="color-interpolation-filters:sRGB"
       id="filter4346"
       x="-0.013249797"
       width="1.0264996"
       y="-0.011357288"
       height="1.0227146">
      <feGaussianBlur
         inkscape:collect="always"
         stdDeviation="2.120027"
         id="feGaussianBlur4348" />
    </filter>
    <filter
       inkscape:collect="always"
       style="color-interpolation-filters:sRGB"
       id="filter965"
       x="-0.025999608"
       width="1.0519992"
       y="-0.022286005"
       height="1.044572">
      <feGaussianBlur
         inkscape:collect="always"
         stdDeviation="4.160054"
         id="feGaussianBlur967" />
    </filter>
    <linearGradient
       gradientUnits="userSpaceOnUse"
       y2="88.496742"
       x2="270.71884"
       y1="452.1864"
       x1="270.71884"
       id="linearGradient4226"
       xlink:href="#linearGradient989"
       inkscape:collect="always"
       gradientTransform="matrix(0.11988932,0,0,0.11988589,2.3800528,1.6802345)" />
    <linearGradient
       inkscape:collect="always"
       id="linearGradient989">
      <stop
         id="stop985"
         offset="0"
         style="stop-color:#3874fb;stop-opacity:1" />
      <stop
         id="stop987"
         offset="1"
         style="stop-color:#2f5fdd;stop-opacity:1" />
    </linearGradient>
    <radialGradient
       inkscape:collect="always"
       xlink:href="#linearGradient15024"
       id="radialGradient15026"
       cx="200"
       cy="131.99759"
       fx="200"
       fy="131.99759"
       r="31.99707"
       gradientTransform="matrix(1,0,0,1.0000752,0,-0.00752081)"
       gradientUnits="userSpaceOnUse" />
    <linearGradient
       inkscape:collect="always"
       id="linearGradient15024">
      <stop
         style="stop-color:#000000;stop-opacity:1;"
         offset="0"
         id="stop15020" />
      <stop
         style="stop-color:#000000;stop-opacity:0;"
         offset="1"
         id="stop15022" />
    </linearGradient>
    <filter
       inkscape:collect="always"
       style="color-interpolation-filters:sRGB"
       id="filter15084"
       x="-0.14400541"
       width="1.2880108"
       y="-0.14399458"
       height="1.2879892">
      <feGaussianBlur
         inkscape:collect="always"
         stdDeviation="3.8397928"
         id="feGaussianBlur15086" />
    </filter>
  </defs>
  <g
     inkscape:label="Capa 1"
     inkscape:groupmode="layer"
     id="layer1">
    <path
       style="color:#000000;display:inline;overflow:visible;visibility:visible;opacity:0.1;fill:#000000;fill-opacity:1;fill-rule:nonzero;stroke:none;stroke-width:2;marker:none;filter:url(#filter4346);enable-background:accumulate"
       d="M 189.84323,74 C 119.24979,74 111.65402,81.250835 112,151.98706 V 298 444.01294 C 111.65402,514.74917 119.24979,522 189.84323,522 H 418.15677 C 488.75021,522 494.0629,514.72348 496,444.01294 V 298 151.98706 C 496,81.249993 488.75021,74 418.15677,74 Z"
       id="rect4158-9"
       inkscape:connector-curvature="0"
       sodipodi:nodetypes="scccssscsss"
       transform="matrix(0,-0.13229166,0.13229166,0,-7.40953,73.37094)" />
    <path
       sodipodi:nodetypes="scccssscsss"
       inkscape:connector-curvature="0"
       id="path4350"
       d="M 189.84323,74 C 119.24979,74 111.65402,81.250835 112,151.98706 V 298 444.01294 C 111.65402,514.74917 119.24979,522 189.84323,522 H 418.15677 C 488.75021,522 496,514.75001 496,444.01294 V 298 151.98706 C 496,81.249993 488.75021,74 418.15677,74 Z"
       style="color:#000000;display:inline;overflow:visible;visibility:visible;opacity:0.2;fill:#000000;fill-opacity:1;fill-rule:nonzero;stroke:none;stroke-width:2;marker:none;filter:url(#filter965);enable-background:accumulate"
       transform="matrix(0,0.13229166,0.13229166,0,-7.40953,-7.0609664)" />
    <path
       style="color:#000000;display:inline;overflow:visible;visibility:visible;fill:url(#linearGradient4226);fill-opacity:1;fill-rule:nonzero;stroke:none;stroke-width:0.264583;marker:none;enable-background:accumulate"
       d="M 12.696933,7.4914385 C 3.3391182,7.4456685 2.3802505,8.5933485 2.3802505,17.931628 v 0.142111 0.264583 29.655037 c 0,9.338924 0.9587592,10.297562 10.3166825,10.297562 h 19.316651 19.316134 c 9.357923,0 10.317199,-0.958638 10.317199,-10.297562 V 18.338322 18.073739 17.931628 c 0,-9.3382795 -0.959387,-10.4859565 -10.317199,-10.4401895 H 32.013584 Z"
       id="rect4158"
       inkscape:export-xdpi="95.996666"
       inkscape:export-ydpi="95.996666" />
    <path
       style="color:#000000;display:inline;overflow:visible;visibility:visible;fill:#94e7fb;fill-opacity:0.19350177;fill-rule:nonzero;stroke:none;stroke-width:0.264583;marker:none;enable-background:accumulate"
       d="m 2.3802505,33.165841 v 14.827518 c 0,9.338924 0.9587592,10.297562 10.3166825,10.297562 h 19.316651 19.316134 c 9.357923,0 10.317199,-0.958638 10.317199,-10.297562 V 33.165841 Z"
       id="path1342"
       inkscape:export-xdpi="95.996666"
       inkscape:export-ydpi="95.996666"
       sodipodi:nodetypes="csscsscc" />
    <path
       style="color:#000000;display:inline;overflow:visible;visibility:visible;opacity:0.2;fill:#000000;fill-opacity:1;fill-rule:nonzero;stroke:none;stroke-width:0.264583;marker:none;enable-background:accumulate"
       d="m 2.3802505,47.464192 v 0.529167 c 0,9.338924 0.9587584,10.297562 10.3166825,10.297562 h 19.316651 19.316134 c 9.357923,0 10.317199,-0.958638 10.317199,-10.297562 v -0.529167 c 0,9.338924 -0.959276,10.297562 -10.317199,10.297562 H 32.013584 12.696933 c -9.3579241,0 -10.3166825,-0.958638 -10.3166825,-10.297562 z"
       id="path1056"
       inkscape:connector-curvature="0"
       sodipodi:nodetypes="csscsscscsc"
       inkscape:export-xdpi="95.996666"
       inkscape:export-ydpi="95.996666" />
    <path
       style="display:inline;opacity:0.3;vector-effect:none;fill:#000000;fill-opacity:1;stroke:none;stroke-width:0.264583;stroke-linecap:butt;stroke-linejoin:miter;stroke-miterlimit:4;stroke-dasharray:none;stroke-dashoffset:0;stroke-opacity:1;enable-background:new"
       d="M 11.592091,7.4914385 C 3.2368988,7.4456685 2.3807672,8.5933495 2.3807672,17.931628 v 0.142111 0.264583 29.655037 c 0,9.338924 0.856035,10.297562 9.2113238,10.297562 h 4.017842 V 7.4914385 Z"
       id="rect1767"
       inkscape:connector-curvature="0"
       sodipodi:nodetypes="csccssccc"
       inkscape:export-xdpi="95.996666"
       inkscape:export-ydpi="95.996666" />
    <path
       style="color:#000000;display:inline;overflow:visible;visibility:visible;fill:#4e525d;fill-opacity:1;fill-rule:nonzero;stroke:none;stroke-width:0.264583;marker:none;enable-background:accumulate"
       d="M 44.715135,7.4914385 61.646917,24.423223 v -6.084901 -0.264583 -0.142111 c 0,-9.3382795 -0.959387,-10.4859565 -10.317199,-10.4401895 z"
       id="rect4158-0"
       inkscape:connector-curvature="0" />
    <path
       inkscape:connector-curvature="0"
       style="color:#000000;display:inline;overflow:visible;visibility:visible;fill:url(#radialGradient15026);fill-opacity:1;fill-rule:nonzero;stroke:none;stroke-width:1;marker:none;filter:url(#filter15084);enable-background:accumulate"
       d="M 263.99805,131.99325 200.00391,67.9991 v 22.99805 1 0.53711 c 0,35.29429 3.62603,39.63197 38.99414,39.45899 z"
       id="rect4158-0-3-6"
       transform="matrix(0.26458333,0,0,0.26458333,-8.202566,-10.501261)" />
    <path
       inkscape:connector-curvature="0"
       style="color:#000000;display:inline;overflow:visible;visibility:visible;fill:#faf8f6;fill-opacity:1;fill-rule:nonzero;stroke:none;stroke-width:0.264583;marker:none;enable-background:accumulate"
       d="M 61.646917,24.421953 44.715135,7.4901665 v 6.0849015 0.264583 0.142111 c 0,9.338281 0.959387,10.485958 10.317199,10.440191 z"
       id="rect4158-0-3" />
    <path
       style="color:#000000;display:inline;overflow:visible;visibility:visible;opacity:0.2;fill:#ffffff;fill-opacity:1;fill-rule:nonzero;stroke:none;stroke-width:0.264583;marker:none;enable-background:accumulate"
       d="M 12.696933,7.4909215 C 3.3391182,7.4451515 2.3802505,8.4500745 2.3802505,17.789002 v 0.529167 c 0,-9.3389275 0.9588677,-10.3438505 10.3166825,-10.2980805 h 19.316651 19.316134 c 9.357812,-0.04577 10.317199,0.959153 10.317199,10.2980805 v -0.529167 c 0,-9.3389275 -0.959387,-10.3438505 -10.317199,-10.2980805 H 32.013584 Z"
       id="path923"
       inkscape:export-xdpi="95.996666"
       inkscape:export-ydpi="95.996666" />
    <path
       id="path933"
       style="color:#000000;font-style:normal;font-variant:normal;font-weight:normal;font-stretch:normal;font-size:medium;line-height:normal;font-family:sans-serif;font-variant-ligatures:normal;font-variant-position:normal;font-variant-caps:normal;font-variant-numeric:normal;font-variant-alternates:normal;font-variant-east-asian:normal;font-feature-settings:normal;font-variation-settings:normal;text-indent:0;text-align:start;text-decoration:none;text-decoration-line:none;text-decoration-style:solid;text-decoration-color:#000000;letter-spacing:normal;word-spacing:normal;text-transform:none;writing-mode:lr-tb;direction:ltr;text-orientation:mixed;dominant-baseline:auto;baseline-shift:baseline;text-anchor:start;white-space:normal;shape-padding:0;shape-margin:0;inline-size:0;clip-rule:nonzero;display:inline;overflow:visible;visibility:visible;isolation:auto;mix-blend-mode:normal;color-interpolation:sRGB;color-interpolation-filters:linearRGB;solid-color:#000000;solid-opacity:1;vector-effect:none;fill:#ffffff;fill-opacity:1;fill-rule:nonzero;stroke:none;stroke-width:1.76544;stroke-linecap:round;stroke-linejoin:round;stroke-miterlimit:4;stroke-dasharray:none;stroke-dashoffset:0;stroke-opacity:1;color-rendering:auto;image-rendering:auto;shape-rendering:auto;text-rendering:auto;enable-background:accumulate;stop-color:#000000"
       d="m 29.076404,18.750815 c -1.290541,0 -2.3572,1.067787 -2.3572,2.358341 0,1.29054 1.066659,2.352637 2.3572,2.352637 1.290538,0 2.353779,-1.062097 2.353779,-2.352637 0,-1.290554 -1.063241,-2.358339 -2.353779,-2.358341 z m 10.29778,0 a 0.88280897,0.88280897 0 0 0 -0.612392,0.258871 l -2.947926,2.947924 a 0.88280897,0.88280897 0 0 0 0,1.246454 l 5.270914,5.266349 -5.270914,5.267493 a 0.88280897,0.88280897 0 0 0 0,1.249873 l 2.947926,2.947925 a 0.88280897,0.88280897 0 0 0 1.249873,0 l 5.89243,-5.892427 2.943362,-2.947926 a 0.88280897,0.88280897 0 0 0 0,-1.245311 l -2.943362,-2.947926 -5.89243,-5.892428 a 0.88280897,0.88280897 0 0 0 -0.637481,-0.258871 z m -14.720237,8.840353 c -2.104019,0 -3.827171,1.723142 -3.827171,3.827171 0,2.104028 1.723146,3.828311 3.827171,3.828311 2.104021,0 3.831731,-1.724285 3.831731,-3.828311 0,-2.104029 -1.727716,-3.827171 -3.831731,-3.827171 z m 7.366961,8.835792 c -2.917511,0 -5.301704,2.384189 -5.301704,5.301702 0,2.917532 2.384193,5.301705 5.301704,5.301705 2.917513,0 5.301703,-2.384173 5.301703,-5.301705 0,-2.917513 -2.38419,-5.301702 -5.301703,-5.301702 z" />
  </g>
</svg>
