<?xml version="1.0" encoding="UTF-8" standalone="no"?>
<svg
   width="256"
   height="256"
   viewBox="0 0 67.73 67.73"
   version="1.1"
   id="svg69"
   sodipodi:docname="qt-creator.svg"
   inkscape:version="1.1.2 (0a00cf5339, 2022-02-04)"
   xmlns:inkscape="http://www.inkscape.org/namespaces/inkscape"
   xmlns:sodipodi="http://sodipodi.sourceforge.net/DTD/sodipodi-0.dtd"
   xmlns:xlink="http://www.w3.org/1999/xlink"
   xmlns="http://www.w3.org/2000/svg"
   xmlns:svg="http://www.w3.org/2000/svg">
  <sodipodi:namedview
     id="namedview71"
     pagecolor="#ffffff"
     bordercolor="#666666"
     borderopacity="1.0"
     inkscape:pageshadow="2"
     inkscape:pageopacity="0.0"
     inkscape:pagecheckerboard="0"
     showgrid="false"
     inkscape:zoom="2.4804688"
     inkscape:cx="120.34016"
     inkscape:cy="135.86142"
     inkscape:window-width="1920"
     inkscape:window-height="1022"
     inkscape:window-x="0"
     inkscape:window-y="0"
     inkscape:window-maximized="1"
     inkscape:current-layer="svg69" />
  <defs
     id="defs43">
    <linearGradient
       id="f"
       x1="296"
       x2="296"
       y1="-212"
       y2="236"
       gradientUnits="userSpaceOnUse">
      <stop
         offset="0"
         stop-color="#FFFEFE"
         id="stop2" />
      <stop
         offset=".125"
         stop-color="#FFFEFE"
         stop-opacity=".098"
         id="stop4" />
      <stop
         offset=".925"
         stop-opacity=".098"
         id="stop6" />
      <stop
         offset="1"
         stop-opacity=".498"
         id="stop8" />
    </linearGradient>
    <clipPath
       id="e">
      <path
         d="M361.938-212C507.235-212 528-191.287 528-46.125v116.25C528 215.286 507.235 236 361.937 236H214.063C68.766 236 48 215.286 48 70.125v-116.25C48-191.287 68.765-212 214.063-212z"
         fill="#9F4AC8"
         id="path11" />
    </clipPath>
    <linearGradient
       id="d"
       x1="32"
       x2="272"
       y1="156"
       y2="156"
       gradientTransform="rotate(60 -153.58 146.183) scale(.26971)"
       gradientUnits="userSpaceOnUse">
      <stop
         offset="0"
         stop-color="#1EC337"
         id="stop14" />
      <stop
         offset="1"
         stop-color="#1EC337"
         id="stop16" />
    </linearGradient>
    <filter
       id="c"
       x="-0.0116"
       y="-0.012428571"
       width="1.0232"
       height="1.0248571"
       color-interpolation-filters="sRGB">
      <feGaussianBlur
         stdDeviation="1.16"
         id="feGaussianBlur19" />
    </filter>
    <filter
       id="b"
       x="-0.023199999"
       y="-0.024857142"
       width="1.0464"
       height="1.0497143"
       color-interpolation-filters="sRGB">
      <feGaussianBlur
         stdDeviation="2.32"
         id="feGaussianBlur22" />
    </filter>
    <linearGradient
       id="a">
      <stop
         offset="0"
         stop-color="#FFFEFE"
         id="stop25" />
      <stop
         offset="1"
         stop-color="#FFFEFE"
         stop-opacity="0"
         id="stop27" />
    </linearGradient>
    <filter
       id="g"
       x="-0.04597747"
       y="-0.050198824"
       width="1.0919549"
       height="1.1003976"
       color-interpolation-filters="sRGB">
      <feGaussianBlur
         stdDeviation="2.682"
         id="feGaussianBlur30" />
    </filter>
    <linearGradient
       id="i"
       x1="-45.877"
       x2="-3.85"
       y1="75.985"
       y2="22.235"
       gradientTransform="translate(67.667 249.41) scale(.5471)"
       gradientUnits="userSpaceOnUse">
      <stop
         offset="0"
         stop-color="#EEEDED"
         id="stop33" />
      <stop
         offset="1"
         stop-color="#EEEDED"
         id="stop35" />
    </linearGradient>
    <linearGradient
       id="j"
       x1="-16.228"
       x2="-49.582"
       y1="38.29"
       y2="66.304"
       gradientTransform="translate(67.667 249.41) scale(.5471)"
       gradientUnits="userSpaceOnUse"
       xlink:href="#a" />
    <filter
       id="h"
       x="-0.052929644"
       y="-0.043904101"
       width="1.1058593"
       height="1.0878082"
       color-interpolation-filters="sRGB">
      <feGaussianBlur
         stdDeviation=".363"
         id="feGaussianBlur39" />
    </filter>
    <linearGradient
       id="k"
       x1="-16.228"
       x2="-49.582"
       y1="38.29"
       y2="66.304"
       gradientTransform="scale(-.5471 .5471) rotate(-81.447 202.938 321.051)"
       gradientUnits="userSpaceOnUse"
       xlink:href="#a" />
    <filter
       inkscape:collect="always"
       style="color-interpolation-filters:sRGB"
       id="filter4346"
       x="-0.014454287"
       width="1.0289086"
       y="-0.011357288"
       height="1.0227146">
      <feGaussianBlur
         inkscape:collect="always"
         stdDeviation="2.120027"
         id="feGaussianBlur4348" />
    </filter>
    <filter
       inkscape:collect="always"
       style="color-interpolation-filters:sRGB"
       id="filter4380"
       x="-0.057817147"
       width="1.1156343"
       y="-0.045429151"
       height="1.0908583">
      <feGaussianBlur
         inkscape:collect="always"
         stdDeviation="8.4801079"
         id="feGaussianBlur4382" />
    </filter>
  </defs>
  <path
     style="color:#000000;display:inline;overflow:visible;visibility:visible;opacity:0.1;fill:#000000;fill-opacity:1;fill-rule:nonzero;stroke:none;stroke-width:2;marker:none;filter:url(#filter4346);enable-background:accumulate"
     d="M 189.84323,74 C 119.24979,74 111.65402,81.250835 112,151.98706 V 298 444.01294 C 111.65402,514.74917 119.24979,522 189.84323,522 H 386.15677 C 456.75021,522 462.16345,514.72616 464,444.01294 V 298 151.98706 C 464,81.249993 456.75021,74 386.15677,74 Z"
     id="rect4158-9"
     inkscape:connector-curvature="0"
     sodipodi:nodetypes="scccssscsss"
     transform="matrix(0,0.13228515,-0.13228515,0,73.232646,-3.8590966)" />
  <path
     sodipodi:nodetypes="scccssscsss"
     inkscape:connector-curvature="0"
     id="path4350"
     d="M 189.84323,74 C 119.24979,74 111.65402,81.250835 112,151.98706 V 298 444.01294 C 111.65402,514.74917 119.24979,522 189.84323,522 H 386.15677 C 456.75021,522 464,514.75001 464,444.01294 V 298 151.98706 C 464,81.249993 456.75021,74 386.15677,74 Z"
     style="color:#000000;display:inline;overflow:visible;visibility:visible;opacity:0.1;fill:#000000;fill-opacity:1;fill-rule:nonzero;stroke:none;stroke-width:2;marker:none;filter:url(#filter4380);enable-background:accumulate"
     transform="matrix(0,0.13228515,-0.13228515,0,73.232646,-3.8590966)" />
  <path
     style="color:#000000;display:inline;overflow:visible;visibility:visible;opacity:0.1;fill:#000000;fill-opacity:1;fill-rule:nonzero;stroke:none;stroke-width:0.269938;marker:none;enable-background:accumulate"
     d="m 63.974061,20.694722 c 0,-9.550674 -0.976307,-10.578316 -10.500753,-10.531507 H 33.813046 14.152784 C 4.6283349,10.116406 3.6520308,11.144048 3.6520308,20.694722 v 26.559504 c 0,9.550674 0.976193,10.531507 10.5007532,10.531507 h 19.660262 19.660262 c 9.52456,0 10.500753,-0.980833 10.500753,-10.531507 z"
     id="rect4158-7"
     inkscape:connector-curvature="0"
     sodipodi:nodetypes="scccssscsss" />
  <path
     style="color:#000000;display:inline;overflow:visible;visibility:visible;fill:#4d4d4d;fill-opacity:1;fill-rule:nonzero;stroke:none;stroke-width:0.26457;marker:none;enable-background:accumulate"
     d="m 63.443545,46.957712 c 0,9.338467 -0.959179,10.343273 -10.316531,10.297505 H 33.81167 14.496326 C 5.1389715,57.300985 4.1797957,56.296179 4.1797957,46.957712 V 20.988347 c 0,-9.338463 0.9590673,-10.297504 10.3165303,-10.297504 H 33.81167 53.127014 c 9.357463,0 10.316531,0.959041 10.316531,10.297504 z"
     id="rect4158"
     inkscape:connector-curvature="0"
     sodipodi:nodetypes="scccssscsss" />
  <path
     style="color:#000000;display:inline;overflow:visible;visibility:visible;opacity:0.3;fill:#ffffff;fill-opacity:1;fill-rule:nonzero;stroke:none;stroke-width:0.26457;marker:none;enable-background:accumulate"
     d="m 14.496168,10.69104 c -9.3574626,0 -10.3161747,0.958592 -10.3161747,10.297056 v 25.969745 c 0,0.02333 5.027e-4,0.04292 5.291e-4,0.06614 V 21.516721 C 4.18051,12.178257 5.139739,11.219147 14.497202,11.219147 h 19.315182 19.315183 c 9.334083,0 10.311348,0.958018 10.316176,10.231431 v -0.462482 c 0,-9.338464 -0.959229,-10.297056 -10.316692,-10.297056 H 33.811868 Z"
     id="rect4158-78" />
  <path
     style="color:#000000;display:inline;overflow:visible;visibility:visible;opacity:0.2;fill:#000000;fill-opacity:1;fill-rule:nonzero;stroke:none;stroke-width:0.26457;marker:none;enable-background:accumulate"
     d="m 4.1799933,46.428701 v 0.52914 c 0,9.338467 0.9588205,10.343342 10.3161747,10.297574 h 19.3157 19.315183 c 9.357352,0.04577 10.316692,-0.959107 10.316692,-10.297574 v -0.52914 c 0,9.338467 -0.95934,10.343342 -10.316692,10.297574 H 33.811868 14.496168 C 5.1388138,56.772043 4.1799933,55.767168 4.1799933,46.428701 Z"
     id="rect4158-6" />
  <path
     style="color:#000000;display:inline;overflow:visible;visibility:visible;opacity:0.05;fill:#ffffff;fill-opacity:1;fill-rule:nonzero;stroke:none;stroke-width:0.26457;marker:none;enable-background:accumulate"
     d="m 4.1799933,31.857181 v 15.10066 c 0,9.338467 0.9588205,10.343342 10.3161747,10.297574 h 19.3157 19.315183 c 9.357352,0.04577 10.316692,-0.959107 10.316692,-10.297574 v -15.10066 z"
     id="rect4158-1" />
  <g
     style="display:inline;enable-background:new"
     id="g962"
     transform="matrix(0.26457031,0,0,0.26457031,-9.3125756,-3.5952401)">
    <path
       inkscape:connector-curvature="0"
       id="path923"
       d="m 91,90 v 8 h 120 v -8 z m 0,12 v 8 h 60 v -8 z"
       style="opacity:1;fill:#5884f4;fill-opacity:1;stroke:none;stroke-width:2;stroke-linecap:square;stroke-linejoin:round;stroke-miterlimit:4;stroke-dasharray:none;stroke-dashoffset:0;stroke-opacity:1"
       sodipodi:nodetypes="cccccccccc" />
    <path
       sodipodi:nodetypes="cccccccccc"
       inkscape:connector-curvature="0"
       id="path925"
       d="m 95,174 v 8 h 112 v -8 z m 0,12 v 8 h 56 v -8 z"
       style="opacity:1;fill:#b3b3b3;fill-opacity:1;stroke:none;stroke-width:2;stroke-linecap:square;stroke-linejoin:round;stroke-miterlimit:4;stroke-dasharray:none;stroke-dashoffset:0;stroke-opacity:1" />
    <path
       sodipodi:nodetypes="cccccccccc"
       inkscape:connector-curvature="0"
       id="path929"
       d="m 135,114 v 8 h 68 v -8 z m 0,12 v 8 h 56 v -8 z"
       style="opacity:1;fill:#c43ac4;fill-opacity:1;stroke:none;stroke-width:2;stroke-linecap:square;stroke-linejoin:round;stroke-miterlimit:4;stroke-dasharray:none;stroke-dashoffset:0;stroke-opacity:1" />
    <path
       inkscape:connector-curvature="0"
       id="path932"
       d="m 95,114 v 8 h 32 v -8 z m 0,12 v 8 h 32 v -8 z"
       style="opacity:1;fill:#8c59d9;fill-opacity:1;stroke:none;stroke-width:2;stroke-linecap:square;stroke-linejoin:round;stroke-miterlimit:4;stroke-dasharray:none;stroke-dashoffset:0;stroke-opacity:1"
       sodipodi:nodetypes="cccccccccc" />
    <path
       sodipodi:nodetypes="cccccccccc"
       inkscape:connector-curvature="0"
       id="path934"
       d="m 135,138 v 8 h 72 v -8 z m 0,12 v 8 h 56 v -8 z"
       style="opacity:1;fill:#76c22b;fill-opacity:1;stroke:none;stroke-width:2;stroke-linecap:square;stroke-linejoin:round;stroke-miterlimit:4;stroke-dasharray:none;stroke-dashoffset:0;stroke-opacity:1" />
    <path
       inkscape:connector-curvature="0"
       id="path936"
       d="m 95,138 v 8 h 32 v -8 z m 0,12 v 8 h 32 v -8 z"
       style="opacity:1;fill:#f22c42;fill-opacity:1;stroke:none;stroke-width:2;stroke-linecap:square;stroke-linejoin:round;stroke-miterlimit:4;stroke-dasharray:none;stroke-dashoffset:0;stroke-opacity:1"
       sodipodi:nodetypes="cccccccccc" />
    <path
       sodipodi:nodetypes="ccccc"
       style="opacity:1;fill:#b3b3b3;fill-opacity:1;stroke:none;stroke-width:2;stroke-linecap:square;stroke-linejoin:round;stroke-miterlimit:4;stroke-dasharray:none;stroke-dashoffset:0;stroke-opacity:1"
       d="m 135,162 v 8 h 72 v -8 z"
       id="path953"
       inkscape:connector-curvature="0" />
  </g>
</svg>
