<?xml version="1.0" encoding="UTF-8" standalone="no"?>
<svg
   width="256"
   height="256"
   viewBox="0 0 67.73 67.73"
   version="1.1"
   id="svg50"
   sodipodi:docname="contact-editor.svg"
   inkscape:version="1.1.2 (0a00cf5339, 2022-02-04)"
   xmlns:inkscape="http://www.inkscape.org/namespaces/inkscape"
   xmlns:sodipodi="http://sodipodi.sourceforge.net/DTD/sodipodi-0.dtd"
   xmlns:xlink="http://www.w3.org/1999/xlink"
   xmlns="http://www.w3.org/2000/svg"
   xmlns:svg="http://www.w3.org/2000/svg">
  <sodipodi:namedview
     id="namedview52"
     pagecolor="#ffffff"
     bordercolor="#666666"
     borderopacity="1.0"
     inkscape:pageshadow="2"
     inkscape:pageopacity="0.0"
     inkscape:pagecheckerboard="0"
     showgrid="false"
     inkscape:zoom="2.4804688"
     inkscape:cx="128"
     inkscape:cy="128"
     inkscape:window-width="1920"
     inkscape:window-height="1022"
     inkscape:window-x="0"
     inkscape:window-y="32"
     inkscape:window-maximized="1"
     inkscape:current-layer="svg50" />
  <defs
     id="defs26">
    <linearGradient
       id="e"
       x1="296"
       x2="296"
       y1="-212"
       y2="236"
       gradientUnits="userSpaceOnUse">
      <stop
         offset="0"
         stop-color="#FFFEFE"
         id="stop2" />
      <stop
         offset=".125"
         stop-color="#FFFEFE"
         stop-opacity=".098"
         id="stop4" />
      <stop
         offset=".925"
         stop-opacity=".098"
         id="stop6" />
      <stop
         offset="1"
         stop-opacity=".498"
         id="stop8" />
    </linearGradient>
    <clipPath
       id="d">
      <path
         d="M361.938-212C507.235-212 528-191.287 528-46.125v116.25C528 215.286 507.235 236 361.937 236H214.063C68.766 236 48 215.286 48 70.125v-116.25C48-191.287 68.765-212 214.063-212z"
         fill="#9F4AC8"
         id="path11" />
    </clipPath>
    <linearGradient
       id="a"
       x1="448"
       x2="448"
       y1="256"
       y2="496"
       gradientUnits="userSpaceOnUse"
       spreadMethod="reflect">
      <stop
         offset="0"
         id="stop14" />
      <stop
         offset="1"
         stop-opacity="0"
         id="stop16" />
    </linearGradient>
    <filter
       id="c"
       width="1.0232"
       height="1.0248571"
       x="-0.0116"
       y="-0.012428571"
       color-interpolation-filters="sRGB">
      <feGaussianBlur
         stdDeviation="1.16"
         id="feGaussianBlur19" />
    </filter>
    <filter
       id="b"
       width="1.0464"
       height="1.0497143"
       x="-0.023199999"
       y="-0.024857142"
       color-interpolation-filters="sRGB">
      <feGaussianBlur
         stdDeviation="2.32"
         id="feGaussianBlur22" />
    </filter>
    <linearGradient
       id="f"
       x1="58.569"
       x2="59.047"
       y1="263.304"
       y2="263.305"
       gradientUnits="userSpaceOnUse"
       spreadMethod="pad"
       xlink:href="#a" />
    <filter
       inkscape:collect="always"
       style="color-interpolation-filters:sRGB"
       id="filter4346"
       x="-0.014454287"
       width="1.0289086"
       y="-0.011357288"
       height="1.0227146">
      <feGaussianBlur
         inkscape:collect="always"
         stdDeviation="2.120027"
         id="feGaussianBlur4348" />
    </filter>
    <filter
       inkscape:collect="always"
       style="color-interpolation-filters:sRGB"
       id="filter4380"
       x="-0.057817147"
       width="1.1156343"
       y="-0.045429151"
       height="1.0908583">
      <feGaussianBlur
         inkscape:collect="always"
         stdDeviation="8.4801079"
         id="feGaussianBlur4382" />
    </filter>
    <linearGradient
       gradientUnits="userSpaceOnUse"
       y2="169.65668"
       x2="4.4137931"
       y1="386.29544"
       x1="494.34482"
       id="linearGradient4226"
       xlink:href="#linearGradient3650-7-9"
       inkscape:collect="always"
       gradientTransform="matrix(0,-0.11988342,-0.11987999,0,66.924317,63.077487)" />
    <linearGradient
       id="linearGradient3650-7-9">
      <stop
         style="stop-color:#5884f4;stop-opacity:1"
         offset="0"
         id="stop4366-9" />
      <stop
         id="stop4368"
         offset="1"
         style="stop-color:#80a3fa;stop-opacity:1" />
    </linearGradient>
    <linearGradient
       inkscape:collect="always"
       xlink:href="#linearGradient1615"
       id="linearGradient1617"
       x1="248"
       y1="156"
       x2="256"
       y2="156"
       gradientUnits="userSpaceOnUse"
       gradientTransform="matrix(0.52914062,0,0,0.26405458,-78.577961,-7.6808887)" />
    <linearGradient
       inkscape:collect="always"
       id="linearGradient1615">
      <stop
         style="stop-color:#000000;stop-opacity:1;"
         offset="0"
         id="stop1611" />
      <stop
         style="stop-color:#000000;stop-opacity:0;"
         offset="1"
         id="stop1613" />
    </linearGradient>
  </defs>
  <path
     style="color:#000000;display:inline;overflow:visible;visibility:visible;opacity:0.1;fill:#000000;fill-opacity:1;fill-rule:nonzero;stroke:none;stroke-width:2;marker:none;filter:url(#filter4346);enable-background:accumulate"
     d="M 189.84323,74 C 119.24979,74 111.65402,81.250835 112,151.98706 V 298 444.01294 C 111.65402,514.74917 119.24979,522 189.84323,522 H 386.15677 C 456.75021,522 462.16345,514.72616 464,444.01294 V 298 151.98706 C 464,81.249993 456.75021,74 386.15677,74 Z"
     id="rect4158-9"
     inkscape:connector-curvature="0"
     sodipodi:nodetypes="scccssscsss"
     transform="matrix(0.13228515,0,0,0.13228515,-4.4982904,-5.7107939)" />
  <path
     sodipodi:nodetypes="scccssscsss"
     inkscape:connector-curvature="0"
     id="path4350"
     d="M 189.84323,74 C 119.24979,74 111.65402,81.250835 112,151.98706 V 298 444.01294 C 111.65402,514.74917 119.24979,522 189.84323,522 H 386.15677 C 456.75021,522 464,514.75001 464,444.01294 V 298 151.98706 C 464,81.249993 456.75021,74 386.15677,74 Z"
     style="color:#000000;display:inline;overflow:visible;visibility:visible;opacity:0.1;fill:#000000;fill-opacity:1;fill-rule:nonzero;stroke:none;stroke-width:2;marker:none;filter:url(#filter4380);enable-background:accumulate"
     transform="matrix(0.13228515,0,0,0.13228515,-4.4982904,-5.7107939)" />
  <path
     style="color:#000000;display:inline;overflow:visible;visibility:visible;opacity:0.1;fill:#000000;fill-opacity:1;fill-rule:nonzero;stroke:none;stroke-width:0.269938;marker:none;enable-background:accumulate"
     d="m 20.321474,3.2845966 c -9.550674,0 -10.5783163,0.9763063 -10.5315073,10.5007544 v 19.660261 19.660262 c -0.04681,9.52445 0.9808333,10.500754 10.5315073,10.500754 h 26.559504 c 9.550674,0 10.531507,-0.976193 10.531507,-10.500754 V 33.445612 13.785351 c 0,-9.5245616 -0.980833,-10.5007544 -10.531507,-10.5007544 z"
     id="rect4158-7"
     inkscape:connector-curvature="0"
     sodipodi:nodetypes="scccssscsss" />
  <path
     style="color:#000000;display:inline;overflow:visible;visibility:visible;fill:url(#linearGradient4226);fill-opacity:1;fill-rule:nonzero;stroke:none;stroke-width:0.26457;marker:none;enable-background:accumulate"
     d="m 46.583088,3.8137372 c 9.338467,0 10.343273,0.959178 10.297505,10.3165308 v 19.315344 19.315345 c 0.04577,9.357354 -0.959038,10.31653 -10.297505,10.31653 H 20.613724 c -9.338463,0 -10.297504,-0.959067 -10.297504,-10.31653 V 33.445612 14.130268 c 0,-9.3574642 0.959041,-10.3165308 10.297504,-10.3165308 z"
     id="rect4158"
     inkscape:connector-curvature="0"
     sodipodi:nodetypes="scccssscsss" />
  <g
     transform="matrix(1.750832,0,0,1.750832,-1089.0336,-367.05138)"
     id="g1044"
     style="display:inline;stroke:#5884f4;stroke-width:0.833333;enable-background:new">
    <ellipse
       style="opacity:1;fill:none;fill-opacity:1;stroke:#5884f4;stroke-width:0.888889;stroke-linecap:round;stroke-linejoin:round;stroke-miterlimit:4;stroke-dasharray:none;stroke-dashoffset:1;stroke-opacity:1"
       id="ellipse1040"
       cx="639.94952"
       cy="224.88889"
       rx="3.2828281"
       ry="3.5555556" />
    <path
       style="opacity:1;fill:none;fill-opacity:1;stroke:#5884f4;stroke-width:0.888889;stroke-linecap:butt;stroke-linejoin:round;stroke-miterlimit:4;stroke-dasharray:none;stroke-dashoffset:1;stroke-opacity:1"
       d="m 633.33333,235.55556 c 0,-3.5 1.66667,-4.44444 6.66667,-4.44444 5,0 6.66667,0.94444 6.66667,4.44444 z"
       id="path1042"
       inkscape:connector-curvature="0"
       sodipodi:nodetypes="csc" />
  </g>
  <g
     style="display:inline;stroke-width:0.833333;enable-background:new"
     id="g2368"
     transform="matrix(1.750832,0,0,1.750832,-1089.0336,-366.52224)">
    <ellipse
       ry="3.5555556"
       rx="3.2828281"
       cy="224.88889"
       cx="639.94952"
       id="path2350"
       style="opacity:1;fill:none;fill-opacity:1;stroke:#ffffff;stroke-width:0.888889;stroke-linecap:round;stroke-linejoin:round;stroke-miterlimit:4;stroke-dasharray:none;stroke-dashoffset:1;stroke-opacity:1" />
    <path
       sodipodi:nodetypes="csc"
       inkscape:connector-curvature="0"
       id="rect2352"
       d="m 633.33333,235.55556 c 0,-3.5 1.66667,-4.44444 6.66667,-4.44444 5,0 6.66667,0.94444 6.66667,4.44444 z"
       style="opacity:1;fill:none;fill-opacity:1;stroke:#ffffff;stroke-width:0.888889;stroke-linecap:butt;stroke-linejoin:round;stroke-miterlimit:4;stroke-dasharray:none;stroke-dashoffset:1;stroke-opacity:1" />
  </g>
  <path
     style="color:#000000;display:inline;overflow:visible;visibility:visible;fill:#f22c42;fill-opacity:1;fill-rule:nonzero;stroke:none;stroke-width:1.05828;stroke-linecap:butt;stroke-linejoin:miter;stroke-miterlimit:4;stroke-dasharray:none;stroke-dashoffset:0;stroke-opacity:1;marker:none;enable-background:accumulate"
     d="M 52.648897,4.2074922 V 19.687956 h 4.231574 V 14.13043 C 56.91336,7.4061156 56.403766,5.0186703 52.648897,4.2074922 Z"
     id="rect4362"
     inkscape:connector-curvature="0" />
  <path
     style="color:#000000;display:inline;overflow:visible;visibility:visible;fill:#76c22b;fill-opacity:1;fill-rule:nonzero;stroke:none;stroke-width:1.05828;stroke-linecap:butt;stroke-linejoin:miter;stroke-miterlimit:4;stroke-dasharray:none;stroke-dashoffset:0;stroke-opacity:1;marker:none;enable-background:accumulate"
     d="m 52.648897,19.687956 v 13.757656 h 4.231574 V 19.687956 Z"
     id="rect4287"
     inkscape:connector-curvature="0" />
  <path
     style="color:#000000;display:inline;overflow:visible;visibility:visible;fill:#f1f0e9;fill-opacity:1;fill-rule:nonzero;stroke:none;stroke-width:1.05828;stroke-linecap:butt;stroke-linejoin:miter;stroke-miterlimit:4;stroke-dasharray:none;stroke-dashoffset:0;stroke-opacity:1;marker:none;enable-background:accumulate"
     d="m 52.648897,45.086706 v 17.597026 c 3.754869,-0.811177 4.264463,-3.19862 4.231574,-9.922937 v -7.674089 z"
     id="rect4289"
     inkscape:connector-curvature="0" />
  <path
     style="color:#000000;display:inline;overflow:visible;visibility:visible;fill:#fdc92b;fill-opacity:1;fill-rule:nonzero;stroke:none;stroke-width:1.05828;stroke-linecap:butt;stroke-linejoin:miter;stroke-miterlimit:4;stroke-dasharray:none;stroke-dashoffset:0;stroke-opacity:1;marker:none;enable-background:accumulate"
     d="m 52.648897,33.445612 v 13.757656 h 4.231574 V 33.445612 Z"
     id="rect4327"
     inkscape:connector-curvature="0" />
  <path
     style="display:inline;opacity:0.1;fill:url(#linearGradient1617);fill-opacity:1;stroke:none;stroke-width:0.529141;stroke-linecap:round;stroke-linejoin:round;stroke-miterlimit:4;stroke-dasharray:none;stroke-opacity:1;enable-background:new"
     d="M 52.648897,4.2074922 V 62.683732 c 3.754869,-0.811177 4.264463,-3.19862 4.231574,-9.922937 V 33.445612 14.13043 C 56.91336,7.4061156 56.403766,5.0186703 52.648897,4.2074922 Z"
     id="rect1609"
     inkscape:connector-curvature="0" />
  <path
     style="color:#000000;display:inline;overflow:visible;visibility:visible;opacity:0.3;fill:#ffffff;fill-opacity:1;fill-rule:nonzero;stroke:none;stroke-width:0.26457;marker:none;enable-background:accumulate"
     d="m 20.615221,3.8137372 c -9.338466,0 -10.343342,0.9593397 -10.297574,10.3166928 v 0.52914 C 10.271879,5.3022175 11.276755,4.3428779 20.615221,4.3428779 h 25.969227 c 9.338467,0 10.297574,0.9592282 10.297574,10.3166921 v -0.52914 c 0,-9.3574645 -0.959107,-10.3166928 -10.297574,-10.3166928 z"
     id="path931"
     inkscape:connector-curvature="0" />
  <path
     style="color:#000000;display:inline;overflow:visible;visibility:visible;opacity:0.2;fill:#000000;fill-opacity:1;fill-rule:nonzero;stroke:none;stroke-width:0.26457;marker:none;enable-background:accumulate"
     d="m 20.61665,63.077487 c -9.338467,0 -10.343343,-0.95934 -10.297575,-10.316692 v -0.52914 c -0.04577,9.357352 0.959108,10.316691 10.297575,10.316691 h 25.969227 c 9.338466,0 10.297573,-0.959228 10.297573,-10.316691 v 0.52914 c 0,9.357463 -0.959107,10.316692 -10.297573,10.316692 z"
     id="path931-8"
     inkscape:connector-curvature="0" />
</svg>
