<?xml version="1.0" encoding="UTF-8" standalone="no"?>
<svg
   width="256"
   height="256"
   viewBox="0 0 67.73 67.73"
   version="1.1"
   id="svg86"
   sodipodi:docname="shotwell.svg"
   inkscape:version="1.1.2 (0a00cf5339, 2022-02-04)"
   xmlns:inkscape="http://www.inkscape.org/namespaces/inkscape"
   xmlns:sodipodi="http://sodipodi.sourceforge.net/DTD/sodipodi-0.dtd"
   xmlns:xlink="http://www.w3.org/1999/xlink"
   xmlns="http://www.w3.org/2000/svg"
   xmlns:svg="http://www.w3.org/2000/svg">
  <sodipodi:namedview
     id="namedview88"
     pagecolor="#ffffff"
     bordercolor="#666666"
     borderopacity="1.0"
     inkscape:pageshadow="2"
     inkscape:pageopacity="0.0"
     inkscape:pagecheckerboard="0"
     showgrid="false"
     inkscape:zoom="2.4609375"
     inkscape:cx="75.174603"
     inkscape:cy="110.93333"
     inkscape:window-width="1920"
     inkscape:window-height="995"
     inkscape:window-x="0"
     inkscape:window-y="0"
     inkscape:window-maximized="1"
     inkscape:current-layer="svg86" />
  <defs
     id="defs34">
    <linearGradient
       id="h"
       x1="296"
       x2="296"
       y1="-212"
       y2="236"
       gradientUnits="userSpaceOnUse">
      <stop
         offset="0"
         stop-color="#FFFEFE"
         id="stop2" />
      <stop
         offset=".125"
         stop-color="#FFFEFE"
         stop-opacity=".098"
         id="stop4" />
      <stop
         offset=".925"
         stop-opacity=".098"
         id="stop6" />
      <stop
         offset="1"
         stop-opacity=".498"
         id="stop8" />
    </linearGradient>
    <clipPath
       id="g">
      <path
         d="M361.938-212C507.235-212 528-191.287 528-46.125v116.25C528 215.286 507.235 236 361.937 236H214.063C68.766 236 48 215.286 48 70.125v-116.25C48-191.287 68.765-212 214.063-212z"
         fill="#9F4AC8"
         id="path11" />
    </clipPath>
    <filter
       id="f"
       x="-0.12"
       y="-0.12"
       width="1.24"
       height="1.24"
       color-interpolation-filters="sRGB">
      <feGaussianBlur
         stdDeviation=".6"
         id="feGaussianBlur14" />
    </filter>
    <filter
       id="e"
       x="-0.14"
       width="1.28"
       height="1.21"
       color-interpolation-filters="sRGB"
       y="-0.105">
      <feGaussianBlur
         stdDeviation=".7"
         id="feGaussianBlur17" />
    </filter>
    <filter
       id="d"
       x="-0.32"
       y="-0.073846155"
       width="1.64"
       height="1.1476923"
       color-interpolation-filters="sRGB">
      <feGaussianBlur
         stdDeviation="1.6"
         id="feGaussianBlur20" />
    </filter>
    <linearGradient
       id="c"
       x1="-11.986"
       x2="-11.986"
       y1="11.5"
       y2="28.977"
       gradientTransform="matrix(1.49815 0 0 1.93027 50.59 215.088)"
       gradientUnits="userSpaceOnUse">
      <stop
         offset="0"
         stop-color="#138EFE"
         id="stop23" />
      <stop
         offset="1"
         stop-color="#138EFE"
         id="stop25" />
    </linearGradient>
    <filter
       id="b"
       x="-0.0116"
       y="-0.012428571"
       width="1.0232"
       height="1.0248571"
       color-interpolation-filters="sRGB">
      <feGaussianBlur
         stdDeviation="1.16"
         id="feGaussianBlur28" />
    </filter>
    <filter
       id="a"
       x="-0.023199999"
       y="-0.024857142"
       width="1.0464"
       height="1.0497143"
       color-interpolation-filters="sRGB">
      <feGaussianBlur
         stdDeviation="2.32"
         id="feGaussianBlur31" />
    </filter>
    <filter
       inkscape:collect="always"
       style="color-interpolation-filters:sRGB"
       id="filter58492"
       x="-0.011999856"
       width="1.0239997"
       y="-0.012000144"
       height="1.0240003">
      <feGaussianBlur
         inkscape:collect="always"
         stdDeviation="1.1200135"
         id="feGaussianBlur58494" />
    </filter>
    <filter
       inkscape:collect="always"
       style="color-interpolation-filters:sRGB"
       id="filter58449"
       x="-0.047999425"
       width="1.0959989"
       y="-0.048000575"
       height="1.0960012">
      <feGaussianBlur
         inkscape:collect="always"
         stdDeviation="4.4800539"
         id="feGaussianBlur58451" />
    </filter>
    <linearGradient
       xlink:href="#linearGradient2523"
       id="linearGradient81638-4"
       gradientUnits="userSpaceOnUse"
       gradientTransform="matrix(1.4980728,0,0,1.9301708,51.516841,-14.340767)"
       x1="-11.986486"
       y1="11.500009"
       x2="-11.986486"
       y2="28.976542" />
    <linearGradient
       id="linearGradient2523">
      <stop
         id="stop2519"
         offset="0"
         style="stop-color:#1463a5;stop-opacity:1" />
      <stop
         id="stop2521"
         offset="1"
         style="stop-color:#37a6e6;stop-opacity:1" />
    </linearGradient>
    <filter
       inkscape:collect="always"
       style="color-interpolation-filters:sRGB"
       id="filter1359"
       x="-0.32"
       width="1.64"
       y="-0.073846155"
       height="1.1476923">
      <feGaussianBlur
         inkscape:collect="always"
         stdDeviation="1.6"
         id="feGaussianBlur1361" />
    </filter>
    <filter
       inkscape:collect="always"
       style="color-interpolation-filters:sRGB"
       id="filter1311"
       x="-0.14"
       width="1.28"
       y="-0.105"
       height="1.21">
      <feGaussianBlur
         inkscape:collect="always"
         stdDeviation="0.7"
         id="feGaussianBlur1313" />
    </filter>
    <filter
       inkscape:collect="always"
       style="color-interpolation-filters:sRGB"
       id="filter1355"
       x="-0.12"
       width="1.24"
       y="-0.12"
       height="1.24">
      <feGaussianBlur
         inkscape:collect="always"
         stdDeviation="0.6"
         id="feGaussianBlur1357" />
    </filter>
  </defs>
  <path
     style="color:#000000;display:inline;overflow:visible;visibility:visible;opacity:0.1;fill:#000000;fill-opacity:1;fill-rule:nonzero;stroke:none;stroke-width:1;marker:none;filter:url(#filter58492);enable-background:accumulate"
     d="m 225.07297,44.99999 c 35.29673,0 39.09461,3.62542 38.92162,38.99353 v 73.00647 73.00648 C 264.16758,265.37459 260.3697,269 225.07297,269 H 78.916218 c -35.29671,0 -38.92161,-3.625 -38.92161,-38.99353 V 156.99999 83.99352 c 0,-35.36853 3.6249,-38.99353 38.92161,-38.99353 z"
     id="rect4158-7"
     inkscape:connector-curvature="0"
     sodipodi:nodetypes="scccssscsss"
     transform="matrix(0.26457031,0,0,0.26457031,-6.4564812,-7.4575215)" />
  <path
     style="color:#000000;display:inline;overflow:visible;visibility:visible;opacity:0.2;fill:#000000;fill-opacity:1;fill-rule:nonzero;stroke:none;stroke-width:1;marker:none;filter:url(#filter58449);enable-background:accumulate"
     d="m 225.07297,44.99999 c 35.29673,0 39.09461,3.62542 38.92162,38.99353 v 73.00647 73.00648 C 264.16758,265.37459 260.3697,269 225.07297,269 H 78.916218 c -35.29671,0 -38.92161,-3.625 -38.92161,-38.99353 V 156.99999 83.99352 c 0,-35.36853 3.6249,-38.99353 38.92161,-38.99353 z"
     id="rect4158-1"
     inkscape:connector-curvature="0"
     sodipodi:nodetypes="scccssscsss"
     transform="matrix(0.26457031,0,0,0.26457031,-6.4564812,-7.4575215)" />
  <rect
     ry="0"
     rx="0"
     y="7.8565755"
     x="7.3237138"
     height="46.324043"
     width="52.473099"
     id="rect6022"
     style="display:inline;fill:url(#linearGradient81638-4);fill-opacity:1;stroke:none;stroke-width:0.16524;enable-background:new"
     transform="rotate(-0.09807901)"
     inkscape:export-xdpi="96"
     inkscape:export-ydpi="96" />
  <path
     inkscape:connector-curvature="0"
     style="display:inline;fill:#aee3f8;fill-opacity:1;stroke:none;stroke-width:0.260904;enable-background:new"
     d="m 27.651558,36.762594 a 11.580294,11.581034 0 0 0 -11.559844,11.601511 11.580294,11.581034 0 0 0 0.630299,3.70181 H 38.625305 A 11.580294,11.581034 0 0 0 39.252331,48.323176 11.580294,11.581034 0 0 0 27.651558,36.762594 Z"
     id="path6030"
     inkscape:export-xdpi="96"
     inkscape:export-ydpi="96" />
  <path
     style="display:inline;opacity:0.07;fill:#faf8f6;fill-opacity:1;stroke:none;stroke-width:0.529141;stroke-linecap:round;stroke-linejoin:round;stroke-miterlimit:4;stroke-dasharray:none;stroke-dashoffset:0;stroke-opacity:1;enable-background:new"
     d="m 23.977433,4.1836383 c -9.478258,0 -14.9487462,0.6679077 -18.0610588,3.6461096 L 61.600157,59.801278 c 3.199173,-3.061187 3.90655,-8.563254 3.90655,-18.29669 V 26.126439 c 0,-19.2027466 -2.746931,-21.9428007 -21.967604,-21.9428007 z"
     id="rect877-60"
     inkscape:connector-curvature="0"
     inkscape:export-xdpi="96"
     inkscape:export-ydpi="96" />
  <rect
     style="display:inline;vector-effect:none;fill:#020b12;fill-opacity:1;stroke:none;stroke-width:0.26457;stroke-linecap:butt;stroke-linejoin:miter;stroke-miterlimit:4;stroke-dasharray:none;stroke-dashoffset:0;stroke-opacity:1;enable-background:new"
     id="rect2246"
     width="52.914062"
     height="5.2914062"
     x="7.3012366"
     y="48.631451"
     inkscape:export-xdpi="96"
     inkscape:export-ydpi="96" />
  <path
     style="display:inline;fill:#ffffff;fill-opacity:1;stroke:none;stroke-width:0.260904;enable-background:new"
     d="m 27.651447,36.762475 a 11.580294,11.581034 0 0 0 -11.559966,11.601821 11.580294,11.581034 0 0 0 0.0036,0.06511 11.580294,11.581034 0 0 1 11.556349,-11.494857 11.580294,11.581034 0 0 1 11.59872,11.521727 11.580294,11.581034 0 0 0 0.0021,-0.13332 11.580294,11.581034 0 0 0 -11.600787,-11.560481 z"
     id="path6030-9"
     inkscape:connector-curvature="0"
     inkscape:export-xdpi="96"
     inkscape:export-ydpi="96" />
  <path
     style="display:inline;vector-effect:none;fill:#020b12;fill-opacity:1;stroke:none;stroke-width:0.132285;stroke-linecap:butt;stroke-linejoin:miter;stroke-miterlimit:4;stroke-dasharray:none;stroke-dashoffset:0;stroke-opacity:1;enable-background:new"
     d="m 31.641707,34.873795 h 6.349688 v 13.757656 l -1.325998,0.52914 -2.806194,-0.52914 h -1.159215 z"
     id="rect1081"
     inkscape:connector-curvature="0"
     sodipodi:nodetypes="ccccccc"
     inkscape:export-xdpi="96"
     inkscape:export-ydpi="96" />
  <path
     style="display:inline;opacity:0.4;vector-effect:none;fill:#000000;fill-opacity:1;stroke:none;stroke-width:0.5;stroke-linecap:butt;stroke-linejoin:miter;stroke-miterlimit:4;stroke-dasharray:none;stroke-dashoffset:0;stroke-opacity:1;filter:url(#filter1359);enable-background:new"
     d="m 152.00024,160.00025 v 52 h 5 v -50 z m 7,4 v 48 l 5,-4 v -48 z"
     id="rect1081-2-2"
     inkscape:connector-curvature="0"
     sodipodi:nodetypes="cccccccccc"
     inkscape:export-xdpi="96"
     inkscape:export-ydpi="96"
     transform="matrix(0.26457031,0,0,0.26457031,-6.4564812,-7.4575215)" />
  <path
     style="display:inline;vector-effect:none;fill:#020b12;fill-opacity:1;stroke:none;stroke-width:0.132285;stroke-linecap:butt;stroke-linejoin:miter;stroke-miterlimit:4;stroke-dasharray:none;stroke-dashoffset:0;stroke-opacity:1;enable-background:new"
     d="m 29.525142,22.17442 6.34969,12.699375 H 30.583426 L 27.40858,21.116138 Z"
     id="rect1081-5-5"
     inkscape:connector-curvature="0"
     sodipodi:nodetypes="ccccc"
     inkscape:export-xdpi="96"
     inkscape:export-ydpi="96" />
  <path
     style="display:inline;vector-effect:none;fill:#051a2d;fill-opacity:1;stroke:none;stroke-width:0.132285;stroke-linecap:butt;stroke-linejoin:miter;stroke-miterlimit:4;stroke-dasharray:none;stroke-dashoffset:0;stroke-opacity:1;enable-background:new"
     d="m 31.641707,34.873795 v 13.757656 l 3.174844,0.52914 -1.058281,-14.286796 z m 4.233125,0 v 14.286796 l 2.116563,-0.52914 V 34.873795 Z"
     id="rect1081-2"
     inkscape:connector-curvature="0"
     sodipodi:nodetypes="cccccccccc"
     inkscape:export-xdpi="96"
     inkscape:export-ydpi="96" />
  <path
     style="display:inline;opacity:0.1;vector-effect:none;fill:#ffffff;fill-opacity:1;stroke:none;stroke-width:0.132285;stroke-linecap:butt;stroke-linejoin:miter;stroke-miterlimit:4;stroke-dasharray:none;stroke-dashoffset:0;stroke-opacity:1;enable-background:new"
     d="M 34.816551,49.160591 33.75827,34.873795 h -0.264571 l 1.058282,14.233882 z"
     id="rect1128-2-9"
     inkscape:connector-curvature="0"
     sodipodi:nodetypes="ccccc"
     inkscape:export-xdpi="96"
     inkscape:export-ydpi="96" />
  <path
     style="display:inline;vector-effect:none;fill:#041524;fill-opacity:1;stroke:none;stroke-width:0.132285;stroke-linecap:butt;stroke-linejoin:miter;stroke-miterlimit:4;stroke-dasharray:none;stroke-dashoffset:0;stroke-opacity:1;enable-background:new"
     d="m 54.923892,26.407545 -5.820544,-0.529141 -1.587422,2.645703 z"
     id="rect1081-5-5-6-9-1"
     inkscape:connector-curvature="0"
     sodipodi:nodetypes="cccc"
     inkscape:export-xdpi="96"
     inkscape:export-ydpi="96" />
  <path
     style="color:#000000;display:inline;overflow:visible;visibility:visible;fill:#f7f7f7;fill-opacity:1;fill-rule:nonzero;stroke:none;stroke-width:0.26457;marker:none;enable-background:accumulate"
     d="m 14.422315,4.1835721 c -9.3384642,0 -10.2975712,0.9592288 -10.2975712,10.3166919 V 33.815447 53.13063 c 0,9.357463 0.959107,10.316692 10.2975712,10.316692 H 53.09092 c 9.338466,0 10.343339,-0.959337 10.297571,-10.316692 V 33.815447 14.500264 C 63.434259,5.142912 62.429386,4.1835721 53.090922,4.1835721 Z m -1.829774,5.2914066 h 5.283657 31.762904 5.284692 c 1.758863,0 3.174844,1.4159803 3.174844,3.1748433 v 37.039844 c 0,1.758863 -1.415981,3.174843 -3.174844,3.174843 H 49.639102 17.876198 12.592541 c -1.758863,0 -3.1748433,-1.41598 -3.1748433,-3.174843 V 45.311337 31.169744 17.028151 12.649822 c 0,-1.758863 1.4159803,-3.1748433 3.1748433,-3.1748433 z"
     id="rect4158"
     inkscape:connector-curvature="0" />
  <path
     style="display:inline;vector-effect:none;fill:#041524;fill-opacity:1;stroke:none;stroke-width:0.132285;stroke-linecap:butt;stroke-linejoin:miter;stroke-miterlimit:4;stroke-dasharray:none;stroke-dashoffset:0;stroke-opacity:1;enable-background:new"
     d="m 21.058892,14.766451 8.46625,7.407969 -2.116562,1.058281 z"
     id="rect1081-5-5-6"
     inkscape:connector-curvature="0"
     sodipodi:nodetypes="cccc"
     inkscape:export-xdpi="96"
     inkscape:export-ydpi="96" />
  <path
     style="display:inline;vector-effect:none;fill:#041524;fill-opacity:1;stroke:none;stroke-width:0.132285;stroke-linecap:butt;stroke-linejoin:miter;stroke-miterlimit:4;stroke-dasharray:none;stroke-dashoffset:0;stroke-opacity:1;enable-background:new"
     d="m 13.650923,27.465826 6.349688,-3.174844 1.058281,3.174844 z"
     id="rect1081-5-5-6-9"
     inkscape:connector-curvature="0"
     sodipodi:nodetypes="cccc"
     inkscape:export-xdpi="96"
     inkscape:export-ydpi="96" />
  <path
     style="display:inline;opacity:0.4;vector-effect:none;fill:#000000;fill-opacity:1;stroke:none;stroke-width:0.5;stroke-linecap:butt;stroke-linejoin:miter;stroke-miterlimit:4;stroke-dasharray:none;stroke-dashoffset:0;stroke-opacity:1;filter:url(#filter1311);enable-background:new"
     d="m 152.00024,160.00025 h 4 l -8,16 -4,-4 z"
     id="rect1081-5-2-7"
     inkscape:connector-curvature="0"
     sodipodi:nodetypes="ccccc"
     inkscape:export-xdpi="96"
     inkscape:export-ydpi="96"
     transform="matrix(0.26457031,0,0,0.26457031,-6.4564812,-7.4575215)" />
  <path
     style="display:inline;vector-effect:none;fill:#062036;fill-opacity:1;stroke:none;stroke-width:0.132285;stroke-linecap:butt;stroke-linejoin:miter;stroke-miterlimit:4;stroke-dasharray:none;stroke-dashoffset:0;stroke-opacity:1;enable-background:new"
     d="M 20.000611,24.290982 34.816551,34.873795 31.641707,39.10692 20.000611,26.407545 Z"
     id="rect1081-5-2"
     inkscape:connector-curvature="0"
     sodipodi:nodetypes="ccccc"
     inkscape:export-xdpi="96"
     inkscape:export-ydpi="96" />
  <path
     style="display:inline;opacity:0.1;vector-effect:none;fill:#ffffff;fill-opacity:1;stroke:none;stroke-width:0.132285;stroke-linecap:butt;stroke-linejoin:miter;stroke-miterlimit:4;stroke-dasharray:none;stroke-dashoffset:0;stroke-opacity:1;enable-background:new"
     d="M 36.139402,49.107677 V 34.873795 h -0.26457 v 14.286796 z"
     id="rect1128-2-9-1"
     inkscape:connector-curvature="0"
     sodipodi:nodetypes="ccccc"
     inkscape:export-xdpi="96"
     inkscape:export-ydpi="96" />
  <path
     style="display:inline;opacity:0.4;vector-effect:none;fill:#000000;fill-opacity:1;stroke:none;stroke-width:0.5;stroke-linecap:butt;stroke-linejoin:miter;stroke-miterlimit:4;stroke-dasharray:none;stroke-dashoffset:0;stroke-opacity:1;filter:url(#filter1355);enable-background:new"
     d="m 156.00024,164.00025 4,-4 8,8 -4,4 z"
     id="rect1081-5-2-7-1"
     inkscape:connector-curvature="0"
     sodipodi:nodetypes="ccccc"
     inkscape:export-xdpi="96"
     inkscape:export-ydpi="96"
     transform="matrix(0.26457031,0,0,0.26457031,-6.4564812,-7.4575215)" />
  <path
     style="display:inline;vector-effect:none;fill:#062036;fill-opacity:1;stroke:none;stroke-width:0.132285;stroke-linecap:butt;stroke-linejoin:miter;stroke-miterlimit:4;stroke-dasharray:none;stroke-dashoffset:0;stroke-opacity:1;enable-background:new"
     d="m 49.103348,25.878404 -14.286797,8.995391 3.174844,3.174843 11.641093,-10.582812 z"
     id="rect1081-5-3"
     inkscape:connector-curvature="0"
     sodipodi:nodetypes="ccccc"
     inkscape:export-xdpi="96"
     inkscape:export-ydpi="96" />
  <path
     style="display:inline;opacity:0.5;vector-effect:none;fill:#ffffff;fill-opacity:1;stroke:none;stroke-width:0.26457;stroke-linecap:butt;stroke-linejoin:miter;stroke-miterlimit:4;stroke-dasharray:none;stroke-dashoffset:0;stroke-opacity:1;enable-background:new"
     d="m 21.058892,14.766451 0.576163,0.768392 7.890087,6.903631 5.985909,11.97232 -0.694503,0.463001 h 0.264571 l 14.022226,-8.731337 5.119332,0.465581 0.701215,-0.200494 -5.820547,-0.529141 -13.48172,8.488469 -6.096483,-12.192453 z m -1.058281,9.524531 -6.349688,3.174844 h 0.528106 l 5.821582,-2.910789 14.55137,10.318758 h 0.26457 z M 7.3012358,48.631451 v 0.264054 H 31.641707 v -0.264054 z m 30.6901592,0 v 0.264054 h 22.223906 v -0.264054 z"
     id="rect2246-6"
     inkscape:connector-curvature="0"
     sodipodi:nodetypes="cccccccccccccccccccccccccccccc"
     inkscape:export-xdpi="96"
     inkscape:export-ydpi="96" />
  <path
     style="display:inline;opacity:0.1;vector-effect:none;fill:#ffffff;fill-opacity:1;stroke:none;stroke-width:0.132285;stroke-linecap:butt;stroke-linejoin:miter;stroke-miterlimit:4;stroke-dasharray:none;stroke-dashoffset:0;stroke-opacity:1;enable-background:new"
     d="m 20.000611,24.555552 0.26457,0.211657 v 1.375765 l -0.26457,0.264571 z"
     id="rect1128"
     inkscape:connector-curvature="0"
     sodipodi:nodetypes="ccccc"
     inkscape:export-xdpi="96"
     inkscape:export-ydpi="96" />
  <path
     style="display:inline;opacity:0.1;vector-effect:none;fill:#ffffff;fill-opacity:1;stroke:none;stroke-width:0.132285;stroke-linecap:butt;stroke-linejoin:miter;stroke-miterlimit:4;stroke-dasharray:none;stroke-dashoffset:0;stroke-opacity:1;enable-background:new"
     d="m 34.551981,34.873795 h 0.26457 l -3.174844,4.233125 -0.158745,-0.158743 z"
     id="rect1128-2"
     inkscape:connector-curvature="0"
     sodipodi:nodetypes="ccccc"
     inkscape:export-xdpi="96"
     inkscape:export-ydpi="96" />
  <path
     style="display:inline;opacity:0.1;vector-effect:none;fill:#ffffff;fill-opacity:1;stroke:none;stroke-width:0.132285;stroke-linecap:butt;stroke-linejoin:miter;stroke-miterlimit:4;stroke-dasharray:none;stroke-dashoffset:0;stroke-opacity:1;enable-background:new"
     d="m 35.081121,34.873795 h -0.26457 l 3.174844,3.174843 0.158739,-0.132285 z"
     id="rect1128-2-2"
     inkscape:connector-curvature="0"
     sodipodi:nodetypes="ccccc"
     inkscape:export-xdpi="96"
     inkscape:export-ydpi="96" />
  <path
     style="display:inline;opacity:0.1;vector-effect:none;fill:#ffffff;fill-opacity:1;stroke:none;stroke-width:0.132285;stroke-linecap:butt;stroke-linejoin:miter;stroke-miterlimit:4;stroke-dasharray:none;stroke-dashoffset:0;stroke-opacity:1;enable-background:new"
     d="m 48.918143,26.248802 0.185205,-0.105828 0.09497,0.01243 0.434165,1.310417 -0.211659,0.224885 z"
     id="rect1128-7"
     inkscape:connector-curvature="0"
     sodipodi:nodetypes="cccccc"
     inkscape:export-xdpi="96"
     inkscape:export-ydpi="96" />
  <path
     style="display:inline;opacity:0.1;vector-effect:none;fill:#ffffff;fill-opacity:1;stroke:none;stroke-width:0.132285;stroke-linecap:butt;stroke-linejoin:miter;stroke-miterlimit:4;stroke-dasharray:none;stroke-dashoffset:0;stroke-opacity:1;enable-background:new"
     d="m 29.154744,22.121506 0.185199,0.132285 -1.931363,0.97891 -0.132286,-0.185199 z"
     id="rect1128-0"
     inkscape:connector-curvature="0"
     sodipodi:nodetypes="ccccc"
     inkscape:export-xdpi="96"
     inkscape:export-ydpi="96" />
  <path
     style="color:#000000;display:inline;overflow:visible;visibility:visible;opacity:0.3;fill:#ffffff;fill-opacity:1;fill-rule:nonzero;stroke:none;stroke-width:0.26457;marker:none;enable-background:accumulate"
     d="m 14.423905,4.1834922 c -9.3384662,0 -10.3433418,0.9593399 -10.2975738,10.3166918 v 0.529141 C 4.0805632,5.6719727 5.0854388,4.7126329 14.423905,4.7126329 h 38.668602 c 9.338467,0 10.297574,0.9592287 10.297574,10.3166921 v -0.529141 c 0,-9.357463 -0.959107,-10.3166918 -10.297574,-10.3166918 z"
     id="path931"
     inkscape:connector-curvature="0"
     sodipodi:nodetypes="sccsscsss" />
  <path
     style="color:#000000;display:inline;overflow:visible;visibility:visible;opacity:0.2;fill:#000000;fill-opacity:1;fill-rule:nonzero;stroke:none;stroke-width:0.26457;marker:none;enable-background:accumulate"
     d="m 14.425334,63.447243 c -9.3384673,0 -10.3433435,-0.95934 -10.2975754,-10.316692 V 52.60141 c -0.045768,9.357352 0.9591081,10.316692 10.2975754,10.316692 h 38.668602 c 9.338466,0 10.297574,-0.959229 10.297574,-10.316692 v 0.529141 c 0,9.357463 -0.959108,10.316692 -10.297574,10.316692 z"
     id="path931-8"
     inkscape:connector-curvature="0"
     sodipodi:nodetypes="sccsscsss" />
</svg>
