<?xml version="1.0" encoding="UTF-8" standalone="no"?>
<svg
   width="256"
   height="256"
   viewBox="0 0 67.73 67.73"
   version="1.1"
   id="svg144"
   sodipodi:docname="spotify.svg"
   inkscape:version="1.1.2 (0a00cf5339, 2022-02-04)"
   xmlns:inkscape="http://www.inkscape.org/namespaces/inkscape"
   xmlns:sodipodi="http://sodipodi.sourceforge.net/DTD/sodipodi-0.dtd"
   xmlns:xlink="http://www.w3.org/1999/xlink"
   xmlns="http://www.w3.org/2000/svg"
   xmlns:svg="http://www.w3.org/2000/svg">
  <sodipodi:namedview
     id="namedview146"
     pagecolor="#717171"
     bordercolor="#666666"
     borderopacity="1.0"
     inkscape:pageshadow="2"
     inkscape:pageopacity="0"
     inkscape:pagecheckerboard="0"
     showgrid="false"
     inkscape:zoom="0.21924454"
     inkscape:cx="-627.15359"
     inkscape:cy="-519.96734"
     inkscape:window-width="1920"
     inkscape:window-height="1050"
     inkscape:window-x="0"
     inkscape:window-y="0"
     inkscape:window-maximized="1"
     inkscape:current-layer="svg144" />
  <defs
     id="defs74">
    <linearGradient
       inkscape:collect="always"
       id="linearGradient4459">
      <stop
         style="stop-color:#9ccd5d;stop-opacity:1;"
         offset="0"
         id="stop4455" />
      <stop
         style="stop-color:#ffffff;stop-opacity:1"
         offset="1"
         id="stop4457" />
    </linearGradient>
    <linearGradient
       id="F"
       x1="196"
       x2="132"
       y1="160"
       y2="160"
       gradientTransform="matrix(.26458 0 0 .26458 -6.993 221.973)"
       gradientUnits="userSpaceOnUse">
      <stop
         offset="0"
         stop-color="#FE4F44"
         stop-opacity="0"
         id="stop2" />
      <stop
         offset="1"
         stop-color="#FE4F44"
         id="stop4" />
    </linearGradient>
    <filter
       id="E"
       x="-0.013723349"
       y="-0.010663716"
       width="1.0274467"
       height="1.0213274"
       color-interpolation-filters="sRGB">
      <feGaussianBlur
         stdDeviation=".658"
         id="feGaussianBlur7" />
    </filter>
    <linearGradient
       id="D"
       x1="160"
       x2="160"
       y1="76"
       y2="236"
       gradientTransform="translate(-26.432 -40.432)"
       gradientUnits="userSpaceOnUse">
      <stop
         offset="0"
         stop-opacity="0"
         id="stop10" />
      <stop
         offset=".519"
         id="stop12" />
      <stop
         offset="1"
         stop-opacity="0"
         id="stop14" />
    </linearGradient>
    <linearGradient
       id="C"
       x1="296"
       x2="296"
       y1="-212"
       y2="236"
       gradientUnits="userSpaceOnUse">
      <stop
         offset="0"
         stop-color="#FFFEFE"
         id="stop17" />
      <stop
         offset=".125"
         stop-color="#FFFEFE"
         stop-opacity=".098"
         id="stop19" />
      <stop
         offset=".925"
         stop-opacity=".098"
         id="stop21" />
      <stop
         offset="1"
         stop-opacity=".498"
         id="stop23" />
    </linearGradient>
    <clipPath
       id="B">
      <path
         d="M361.938-212C507.235-212 528-191.287 528-46.125v116.25C528 215.286 507.235 236 361.937 236H214.063C68.766 236 48 215.286 48 70.125v-116.25C48-191.287 68.765-212 214.063-212z"
         fill="#9F4AC8"
         id="path26" />
    </clipPath>
    <linearGradient
       id="q"
       x1="256"
       x2="256"
       y1="232"
       y2="400"
       gradientUnits="userSpaceOnUse"
       xlink:href="#a" />
    <linearGradient
       id="a">
      <stop
         offset="0"
         stop-color="#F4C200"
         id="stop30" />
      <stop
         offset="1"
         stop-color="#F4C200"
         stop-opacity="0"
         id="stop32" />
    </linearGradient>
    <linearGradient
       id="r"
       x1="256"
       x2="256"
       y1="232"
       y2="472"
       gradientTransform="translate(-40)"
       gradientUnits="userSpaceOnUse"
       xlink:href="#a" />
    <linearGradient
       id="s"
       x1="256"
       x2="256"
       y1="200"
       y2="400"
       gradientTransform="translate(-80)"
       gradientUnits="userSpaceOnUse"
       xlink:href="#a" />
    <linearGradient
       id="t"
       x1="256"
       x2="256"
       y1="152"
       y2="368"
       gradientTransform="translate(-120)"
       gradientUnits="userSpaceOnUse"
       xlink:href="#a" />
    <linearGradient
       id="u"
       x1="256"
       x2="256"
       y1="112"
       y2="408"
       gradientTransform="translate(-160)"
       gradientUnits="userSpaceOnUse"
       xlink:href="#a" />
    <linearGradient
       id="v"
       x1="256"
       x2="256"
       y1="160"
       y2="312"
       gradientTransform="translate(-200)"
       gradientUnits="userSpaceOnUse"
       xlink:href="#a" />
    <linearGradient
       id="w"
       x1="256"
       x2="256"
       y1="160"
       y2="544"
       gradientTransform="translate(40)"
       gradientUnits="userSpaceOnUse"
       xlink:href="#a" />
    <linearGradient
       id="x"
       x1="256"
       x2="256"
       y1="208"
       y2="456"
       gradientTransform="translate(80)"
       gradientUnits="userSpaceOnUse"
       xlink:href="#a" />
    <linearGradient
       id="y"
       x1="256"
       x2="256"
       y1="176"
       y2="368"
       gradientTransform="translate(120)"
       gradientUnits="userSpaceOnUse"
       xlink:href="#a" />
    <linearGradient
       id="z"
       x1="256"
       x2="256"
       y1="185.898"
       y2="376"
       gradientTransform="translate(160)"
       gradientUnits="userSpaceOnUse"
       xlink:href="#a" />
    <linearGradient
       id="A"
       x1="256"
       x2="256"
       y1="128"
       y2="352"
       gradientTransform="translate(200)"
       gradientUnits="userSpaceOnUse"
       xlink:href="#a" />
    <linearGradient
       id="f"
       x1="288"
       x2="288"
       y1="296"
       y2="72"
       gradientUnits="userSpaceOnUse"
       xlink:href="#b" />
    <linearGradient
       id="b">
      <stop
         offset="0"
         stop-color="#FE4F44"
         id="stop46" />
      <stop
         offset="1"
         stop-color="#FE4F44"
         stop-opacity="0"
         id="stop48" />
    </linearGradient>
    <linearGradient
       id="g"
       x1="216"
       x2="218"
       y1="326.102"
       y2="-32"
       gradientUnits="userSpaceOnUse"
       xlink:href="#b" />
    <linearGradient
       id="h"
       x1="177.6"
       x2="176"
       y1="264"
       y2="136"
       gradientUnits="userSpaceOnUse"
       xlink:href="#b" />
    <linearGradient
       id="i"
       x1="136"
       x2="136"
       y1="312"
       y2="80"
       gradientUnits="userSpaceOnUse"
       xlink:href="#b" />
    <linearGradient
       id="j"
       x1="96.8"
       x2="96.8"
       y1="352"
       y2="162.4"
       gradientUnits="userSpaceOnUse"
       xlink:href="#b" />
    <linearGradient
       id="k"
       x1="56"
       x2="56"
       y1="360"
       y2="184"
       gradientUnits="userSpaceOnUse"
       xlink:href="#b" />
    <linearGradient
       id="l"
       x1="296"
       x2="296"
       y1="280"
       y2="72"
       gradientUnits="userSpaceOnUse"
       xlink:href="#b" />
    <linearGradient
       id="m"
       x1="336"
       x2="336"
       y1="288"
       y2="152"
       gradientUnits="userSpaceOnUse"
       xlink:href="#b" />
    <linearGradient
       id="n"
       x1="376"
       x2="376"
       y1="304"
       y2="96"
       gradientUnits="userSpaceOnUse"
       xlink:href="#b" />
    <linearGradient
       id="o"
       x1="416"
       x2="416"
       y1="336"
       y2="128"
       gradientUnits="userSpaceOnUse"
       xlink:href="#b" />
    <linearGradient
       id="p"
       x1="456"
       x2="456"
       y1="368"
       y2="192"
       gradientUnits="userSpaceOnUse"
       xlink:href="#b" />
    <linearGradient
       id="e"
       x1="24"
       x2="280"
       y1="28"
       y2="284"
       gradientTransform="matrix(.26458 0 0 .26458 -6.993 221.973)"
       gradientUnits="userSpaceOnUse">
      <stop
         offset="0"
         stop-color="#FE4068"
         id="stop61" />
      <stop
         offset=".483"
         stop-color="#F4234A"
         id="stop63" />
      <stop
         offset="1"
         stop-color="#FE4F44"
         id="stop65" />
    </linearGradient>
    <filter
       id="d"
       x="-0.023199999"
       y="-0.024857142"
       width="1.0464"
       height="1.0497143"
       color-interpolation-filters="sRGB">
      <feGaussianBlur
         stdDeviation="2.32"
         id="feGaussianBlur68" />
    </filter>
    <filter
       id="c"
       x="-0.0116"
       y="-0.012428571"
       width="1.0232"
       height="1.0248571"
       color-interpolation-filters="sRGB">
      <feGaussianBlur
         stdDeviation="1.16"
         id="feGaussianBlur71" />
    </filter>
    <filter
       inkscape:collect="always"
       style="color-interpolation-filters:sRGB"
       id="filter58492"
       x="-0.011999856"
       width="1.0239997"
       y="-0.012000144"
       height="1.0240003">
      <feGaussianBlur
         inkscape:collect="always"
         stdDeviation="1.1200135"
         id="feGaussianBlur58494" />
    </filter>
    <filter
       inkscape:collect="always"
       style="color-interpolation-filters:sRGB"
       id="filter58449"
       x="-0.047999425"
       width="1.0959989"
       y="-0.048000575"
       height="1.0960012">
      <feGaussianBlur
         inkscape:collect="always"
         stdDeviation="4.4800539"
         id="feGaussianBlur58451" />
    </filter>
    <linearGradient
       inkscape:collect="always"
       xlink:href="#linearGradient4290"
       id="linearGradient1694"
       x1="39.997601"
       y1="267.99701"
       x2="263.99759"
       y2="43.997002"
       gradientUnits="userSpaceOnUse"
       gradientTransform="matrix(0,0.26457031,-0.26457031,0,75.027692,-6.5830107)" />
    <linearGradient
       inkscape:collect="always"
       id="linearGradient4290">
      <stop
         style="stop-color:#9bcc60;stop-opacity:1"
         offset="0"
         id="stop4292" />
      <stop
         style="stop-color:#a6d746;stop-opacity:1"
         offset="1"
         id="stop4294" />
    </linearGradient>
    <linearGradient
       gradientTransform="translate(3.38e-4)"
       inkscape:collect="always"
       xlink:href="#linearGradient4338"
       id="linearGradient1272"
       x1="196"
       y1="160"
       x2="132"
       y2="160"
       gradientUnits="userSpaceOnUse" />
    <linearGradient
       inkscape:collect="always"
       id="linearGradient4338">
      <stop
         style="stop-color:#ef5145;stop-opacity:0"
         offset="0"
         id="stop4340" />
      <stop
         id="stop4346"
         offset="1"
         style="stop-color:#ef5145;stop-opacity:1" />
    </linearGradient>
    <linearGradient
       inkscape:collect="always"
       xlink:href="#linearGradient4459"
       id="linearGradient4461"
       x1="-143.5742"
       y1="66.503586"
       x2="56.311546"
       y2="33.630962"
       gradientUnits="userSpaceOnUse" />
  </defs>
  <path
     style="color:#000000;display:inline;overflow:visible;visibility:visible;opacity:0.1;fill:#000000;fill-opacity:1;fill-rule:nonzero;stroke:none;stroke-width:1;marker:none;filter:url(#filter58492);enable-background:accumulate"
     d="m 225.07297,44.99999 c 35.29673,0 39.09461,3.62542 38.92162,38.99353 v 73.00647 73.00648 C 264.16758,265.37459 260.3697,269 225.07297,269 H 78.916218 c -35.29671,0 -38.92161,-3.625 -38.92161,-38.99353 V 156.99999 83.99352 c 0,-35.36853 3.6249,-38.99353 38.92161,-38.99353 z"
     id="rect4158-7"
     inkscape:connector-curvature="0"
     sodipodi:nodetypes="scccssscsss"
     transform="matrix(0.26457031,0,0,0.26457031,-6.4591693,-7.6419269)" />
  <path
     style="color:#000000;display:inline;overflow:visible;visibility:visible;opacity:0.2;fill:#000000;fill-opacity:1;fill-rule:nonzero;stroke:none;stroke-width:1;marker:none;filter:url(#filter58449);enable-background:accumulate"
     d="m 225.07297,44.99999 c 35.29673,0 39.09461,3.62542 38.92162,38.99353 v 73.00647 73.00648 C 264.16758,265.37459 260.3697,269 225.07297,269 H 78.916218 c -35.29671,0 -38.92161,-3.625 -38.92161,-38.99353 V 156.99999 83.99352 c 0,-35.36853 3.6249,-38.99353 38.92161,-38.99353 z"
     id="rect4158-1"
     inkscape:connector-curvature="0"
     sodipodi:nodetypes="scccssscsss"
     transform="matrix(0.26457031,0,0,0.26457031,-6.4591693,-7.6419269)" />
  <path
     style="color:#000000;display:inline;overflow:visible;visibility:visible;fill:url(#linearGradient1694);fill-opacity:1;fill-rule:nonzero;stroke:none;stroke-width:0.26457;marker:none;enable-background:accumulate"
     d="m 53.088456,3.9990858 c 9.338466,0 10.343273,0.9591785 10.297505,10.3165302 v 19.315343 19.315347 c 0.04577,9.357355 -0.959039,10.31653 -10.297505,10.31653 H 14.419718 c -9.3384604,0 -10.2975014,-0.959067 -10.2975014,-10.31653 V 33.630959 14.315616 c 0,-9.3574628 0.959041,-10.3165302 10.2975014,-10.3165302 z"
     id="rect4158"
     inkscape:connector-curvature="0"
     sodipodi:nodetypes="scccssscsss" />
  <path
     style="color:#000000;display:inline;overflow:visible;visibility:visible;opacity:0.16964861;fill:#ffffff;fill-opacity:1;fill-rule:nonzero;stroke:none;stroke-width:0.26457;marker:none;enable-background:accumulate"
     d="m 4.1220556,33.631041 v 2.116563 17.19862 c 0,9.357463 0.959111,10.316692 10.2975734,10.316692 h 38.668604 c 9.338467,0 10.34334,-0.959337 10.297572,-10.316692 v -17.19862 -2.116563 z"
     id="rect4158-5"
     inkscape:connector-curvature="0"
     sodipodi:nodetypes="ccssscccc" />
  <path
     style="color:#000000;display:inline;overflow:visible;visibility:visible;opacity:0.3;fill:#ffffff;fill-opacity:1;fill-rule:nonzero;stroke:none;stroke-width:0.26457;marker:none;enable-background:accumulate"
     d="m 14.421216,3.9990868 c -9.3384654,0 -10.3433414,0.9593399 -10.2975734,10.3166912 v 0.529141 C 4.0778746,5.4875673 5.0827506,4.5282275 14.421216,4.5282275 h 38.668602 c 9.338467,0 10.297574,0.9592287 10.297574,10.3166915 v -0.529141 c 0,-9.3574624 -0.959107,-10.3166912 -10.297574,-10.3166912 z"
     id="path931"
     inkscape:connector-curvature="0"
     sodipodi:nodetypes="sccsscsss" />
  <path
     style="color:#000000;display:inline;overflow:visible;visibility:visible;opacity:0.2;fill:#000000;fill-opacity:1;fill-rule:nonzero;stroke:none;stroke-width:0.26457;marker:none;enable-background:accumulate"
     d="m 14.422645,63.262836 c -9.3384664,0 -10.3433424,-0.959339 -10.2975744,-10.316691 v -0.529141 c -0.04577,9.357352 0.959108,10.316692 10.2975744,10.316692 h 38.668602 c 9.338467,0 10.297574,-0.959229 10.297574,-10.316692 v 0.529141 c 0,9.357463 -0.959107,10.316691 -10.297574,10.316691 z"
     id="path931-8"
     inkscape:connector-curvature="0"
     sodipodi:nodetypes="sccsscsss" />
  <g
     id="g3085"
     style="opacity:0.25179152"
     transform="translate(0.57170175,0.96327047)">
    <path
       inkscape:connector-curvature="0"
       style="opacity:1;fill:#001600;fill-opacity:0.0382258;stroke-width:0.50156"
       d="m 42.735007,47.63814 c -6.317983,-3.075859 -13.156676,-3.840887 -21.796189,-2.43829 -4.666958,0.75766 -4.781941,0.752502 -5.596163,-0.250951 -1.127114,-1.389174 -0.634687,-2.862376 1.166709,-3.490338 2.76314,-0.963236 10.169573,-1.682058 14.460644,-1.403459 5.451467,0.353921 10.122934,1.537322 14.129442,3.579288 2.653185,1.35221 3.202125,1.85458 3.342872,3.059023 0.110882,0.948287 -0.136296,1.663976 -0.722802,2.092801 -1.116027,0.816042 -0.801235,0.888531 -4.984513,-1.148061 z m 2.878714,-8.830917 c -6.711895,-3.228298 -15.301748,-4.494622 -22.942726,-3.382231 -8.401853,1.223172 -10.080752,0.776825 -8.977832,-2.386799 0.762668,-2.187723 5.554658,-3.270734 14.518229,-3.28119 5.949739,-0.0071 7.76607,0.187983 11.895582,1.276697 2.680537,0.706685 6.517432,2.146162 8.52654,3.198837 3.069078,1.60806 3.678717,2.139237 3.814539,3.323576 0.364954,3.182844 -1.940566,3.604903 -6.834332,1.25111 z m 4.709114,-9.505832 C 41.564256,24.783112 25.576344,23.600864 14.590201,26.65909 c -2.611053,0.726856 -4.391803,-4.031732 -2.052602,-5.485223 3.024017,-1.879007 13.404668,-2.985934 21.677953,-2.311597 10.227569,0.833619 21.89182,4.814344 22.621081,7.720044 0.438058,1.745396 -0.116383,3.055954 -1.574038,3.720092 -1.642297,0.748276 -1.488378,0.77948 -4.93976,-1.001015 z"
       id="path2785" />
    <path
       inkscape:connector-curvature="0"
       style="opacity:1;fill:#001600;fill-opacity:0.0382258;stroke-width:0.505965"
       d="M 43.037541,48.237184 C 36.66407,45.13431 29.765315,44.362564 21.049925,45.777479 c -4.707947,0.764314 -4.823939,0.759111 -5.645312,-0.253155 -1.137013,-1.401375 -0.640262,-2.887515 1.176955,-3.520992 2.787408,-0.971696 10.258889,-1.696831 14.587647,-1.415785 5.499345,0.357029 10.21184,1.550823 14.253535,3.610723 2.676487,1.364086 3.230248,1.870868 3.372232,3.085889 0.111855,0.956616 -0.137493,1.67859 -0.729151,2.111182 -1.125828,0.823209 -0.808271,0.896334 -5.02829,-1.158144 z m 2.903997,-8.908476 C 39.170695,36.072057 30.505401,34.794611 22.797315,35.916772 14.321671,37.150687 12.628027,36.70042 13.740634,33.509011 14.51,31.302074 19.344076,30.209551 28.386371,30.199003 c 6.001993,-0.0072 7.834276,0.189634 12.000056,1.28791 2.704079,0.712892 6.574672,2.165011 8.601426,3.226931 3.096032,1.622183 3.711026,2.158025 3.84804,3.352766 0.36816,3.210798 -1.957609,3.636563 -6.894355,1.262098 z M 50.69201,29.73939 c -8.835502,-4.557962 -24.96383,-5.750593 -36.04646,-2.665508 -2.633985,0.73324 -4.430374,-4.067141 -2.070629,-5.533397 3.050576,-1.89551 13.522396,-3.012159 21.868342,-2.331899 10.317394,0.84094 22.084088,4.856627 22.819754,7.787846 0.441905,1.760725 -0.117406,3.082793 -1.587863,3.752764 -1.65672,0.754848 -1.501449,0.786326 -4.983144,-1.009806 z"
       id="path3039" />
    <path
       inkscape:connector-curvature="0"
       style="opacity:1;fill:#001600;fill-opacity:0.0382258;stroke-width:0.509521"
       d="m 42.936538,48.225253 c -6.41826,-3.124679 -13.365495,-3.901849 -22.142132,-2.476991 -4.741032,0.769686 -4.857839,0.764446 -5.684984,-0.254934 -1.145003,-1.411223 -0.644761,-2.907806 1.185226,-3.545735 2.806996,-0.978525 10.330982,-1.708755 14.69016,-1.425734 5.537992,0.359538 10.283603,1.561721 14.353701,3.636097 2.695296,1.373672 3.252948,1.884015 3.39593,3.107575 0.112641,0.963338 -0.138459,1.690386 -0.734275,2.126018 -1.13374,0.828994 -0.813951,0.902633 -5.063626,-1.166283 z m 2.924404,-8.97108 C 39.042518,35.974637 30.31633,34.688213 22.554076,35.81826 14.01887,37.060846 12.313324,36.607415 13.43375,33.393579 c 0.774772,-2.222446 5.642819,-3.322647 14.748658,-3.333269 6.044172,-0.0073 7.889331,0.190967 12.084385,1.296961 2.723082,0.717902 6.620875,2.180225 8.661872,3.249608 3.117789,1.633583 3.737105,2.17319 3.875082,3.376327 0.370747,3.233362 -1.971366,3.662119 -6.942805,1.270967 z m 4.783856,-9.656706 C 41.747205,25.007475 25.505537,23.806463 14.345025,26.913228 11.69253,27.65162 9.8835169,22.817505 12.259845,21.340945 c 3.072013,-1.90883 13.617423,-3.033326 22.022019,-2.348286 10.389899,0.84685 22.239282,4.890757 22.980118,7.842574 0.445011,1.773099 -0.118231,3.104457 -1.599021,3.779137 -1.668363,0.760152 -1.512001,0.791851 -5.018163,-1.016903 z"
       id="path3041" />
    <path
       inkscape:connector-curvature="0"
       style="opacity:1;fill:#001600;fill-opacity:0.0382258;stroke-width:0.51339"
       d="m 42.826633,48.21227 c -6.466996,-3.148406 -13.466985,-3.931477 -22.310266,-2.4958 -4.777033,0.775531 -4.894727,0.770251 -5.728153,-0.256869 -1.153697,-1.421939 -0.649657,-2.929887 1.194226,-3.57266 2.828311,-0.985955 10.40943,-1.72173 14.801709,-1.43656 5.580044,0.362268 10.36169,1.57358 14.462694,3.663708 2.715763,1.384102 3.277649,1.898321 3.421717,3.131172 0.113496,0.970653 -0.139511,1.703221 -0.739851,2.142161 -1.142349,0.835289 -0.820132,0.909487 -5.102076,-1.175139 z m 2.94661,-9.039201 C 38.903044,35.86863 30.110595,34.572438 22.289399,35.711066 c -8.600018,1.252021 -10.318515,0.795147 -9.189581,-2.443093 0.780655,-2.239322 5.685668,-3.347877 14.860651,-3.35858 6.090068,-0.0074 7.949238,0.192418 12.176147,1.30681 2.743759,0.723353 6.67115,2.19678 8.727645,3.274283 3.141463,1.645988 3.765482,2.189692 3.904507,3.401965 0.373562,3.257914 -1.986336,3.689927 -6.995525,1.280618 z m 4.820182,-9.730033 C 41.628269,24.81819 25.263271,23.608058 14.018013,26.738414 c -2.672637,0.743999 -4.4953862,-4.126823 -2.101014,-5.614595 3.09534,-1.923325 13.720826,-3.05636 22.189242,-2.366118 10.468793,0.853281 22.408153,4.927895 23.154615,7.902126 0.44839,1.786563 -0.119129,3.128031 -1.611163,3.807834 -1.681032,0.765924 -1.523482,0.797863 -5.056268,-1.024625 z"
       id="path3043" />
    <path
       inkscape:connector-curvature="0"
       style="opacity:1;fill:#001600;fill-opacity:0.0382258;stroke-width:0.516621"
       d="m 42.734851,48.201428 c -6.507696,-3.16822 -13.55174,-3.95622 -22.450676,-2.511507 -4.807097,0.780411 -4.925532,0.775098 -5.764203,-0.258486 -1.160958,-1.430888 -0.653746,-2.948326 1.201742,-3.595144 2.846111,-0.992161 10.474941,-1.732566 14.894863,-1.445601 5.615162,0.364547 10.426902,1.583483 14.553715,3.686765 2.732855,1.392813 3.298277,1.910268 3.443252,3.150878 0.11421,0.976762 -0.140389,1.71394 -0.744507,2.155643 -1.149539,0.840546 -0.825294,0.915211 -5.134186,-1.182535 z m 2.965154,-9.096089 c -6.913436,-3.325236 -15.761221,-4.629585 -23.63164,-3.483791 -8.654142,1.2599 -10.383454,0.800151 -9.247415,-2.458469 0.785568,-2.253415 5.721451,-3.368947 14.954176,-3.379717 6.128396,-0.0074 7.999267,0.193629 12.252778,1.315034 2.761027,0.727906 6.713135,2.210606 8.782573,3.29489 3.161233,1.656347 3.78918,2.203473 3.92908,3.423375 0.375913,3.278418 -1.998837,3.71315 -7.039552,1.288678 z m 4.850518,-9.791269 c -9.021578,-4.653953 -25.489569,-5.871701 -36.8056,-2.721644 -2.689457,0.748682 -4.5236775,-4.152795 -2.114236,-5.64993 3.11482,-1.93543 13.807178,-3.075596 22.32889,-2.38101 10.534678,0.858652 22.549179,4.958909 23.300339,7.951859 0.451212,1.797806 -0.119879,3.147717 -1.621303,3.831798 -1.691612,0.770745 -1.53307,0.802885 -5.08809,-1.031073 z"
       id="path3045" />
    <path
       inkscape:connector-curvature="0"
       style="opacity:1;fill:#001600;fill-opacity:0.0382258;stroke-width:0.521528"
       d="m 42.734851,48.771094 c -6.507696,-3.228693 -13.55174,-4.031735 -22.450676,-2.559445 -4.807097,0.795306 -4.925532,0.789892 -5.764203,-0.26342 -1.160958,-1.458201 -0.653746,-3.004602 1.201742,-3.663767 2.846111,-1.011099 10.474941,-1.765637 14.894863,-1.473194 5.615162,0.371506 10.426902,1.613708 14.553715,3.757136 2.732855,1.419399 3.298277,1.946731 3.443252,3.211022 0.11421,0.995405 -0.140389,1.746654 -0.744507,2.196789 -1.149539,0.856589 -0.825294,0.932679 -5.134186,-1.205108 z m 2.965154,-9.269711 c -6.913436,-3.388707 -15.761221,-4.717953 -23.63164,-3.550288 -8.654142,1.283948 -10.383454,0.815424 -9.247415,-2.505396 0.785568,-2.296427 5.721451,-3.433252 14.954176,-3.444227 6.128396,-0.0075 7.999267,0.197324 12.252778,1.340135 2.761027,0.7418 6.713135,2.252801 8.782573,3.357781 3.161233,1.687963 3.78918,2.245532 3.92908,3.488718 0.375913,3.340996 -1.998837,3.784026 -7.039552,1.313277 z m 4.850518,-9.978161 c -9.021578,-4.742786 -25.489569,-5.983778 -36.8056,-2.773593 -2.689457,0.762972 -4.5236775,-4.232062 -2.114236,-5.757774 3.11482,-1.972373 13.807178,-3.134302 22.32889,-2.426458 10.534678,0.875041 22.549179,5.053562 23.300339,8.103641 0.451212,1.832121 -0.119879,3.207799 -1.621303,3.904937 -1.691612,0.785458 -1.53307,0.818211 -5.08809,-1.050753 z"
       id="path3047" />
    <path
       inkscape:connector-curvature="0"
       style="opacity:1;fill:#001600;fill-opacity:0.0382258;stroke-width:0.528266"
       d="m 43.024919,49.283627 c -6.566274,-3.283102 -13.673724,-4.099676 -22.652762,-2.602576 -4.850367,0.808708 -4.969868,0.803203 -5.816089,-0.267859 -1.171408,-1.482774 -0.65963,-3.055234 1.21256,-3.725507 2.87173,-1.028138 10.569229,-1.795391 15.028937,-1.49802 5.665706,0.377767 10.520758,1.640902 14.684718,3.82045 2.757454,1.443318 3.327966,1.979536 3.474246,3.265133 0.115238,1.012179 -0.141653,1.776087 -0.751209,2.233808 -1.159886,0.871024 -0.832723,0.948396 -5.180401,-1.225416 z m 2.991845,-9.425921 C 39.041098,36.411894 30.113671,35.060248 22.172407,36.24759 c -8.732041,1.305585 -10.476919,0.829166 -9.330654,-2.547615 0.792639,-2.335126 5.772952,-3.491108 15.088784,-3.502268 6.18356,-0.0076 8.071271,0.200649 12.363069,1.362718 2.78588,0.754301 6.773563,2.290764 8.861628,3.414365 3.189689,1.716408 3.823288,2.283373 3.964447,3.547509 0.379297,3.397297 -2.016829,3.847792 -7.102917,1.335407 z m 4.894179,-10.146308 c -9.102784,-4.82271 -25.719009,-6.084615 -37.1369,-2.820333 -2.713666,0.775829 -4.5643967,-4.303379 -2.133267,-5.854802 3.142858,-2.00561 13.931461,-3.18712 22.52988,-2.467347 10.629504,0.889787 22.752152,5.138722 23.510074,8.2402 0.455273,1.862995 -0.120958,3.261856 -1.635897,3.970741 -1.706839,0.798695 -1.54687,0.832 -5.13389,-1.068459 z"
       id="path3049" />
    <path
       inkscape:connector-curvature="0"
       style="opacity:1;fill:#001600;fill-opacity:0.0382258;stroke-width:0.538875"
       d="m 43.324486,50.244436 c -6.62677,-3.385098 -13.799702,-4.227041 -22.861466,-2.68343 -4.895054,0.833832 -5.015656,0.828156 -5.869673,-0.276181 -1.182201,-1.528839 -0.665708,-3.15015 1.223731,-3.841246 2.898188,-1.06008 10.666605,-1.851169 15.167402,-1.54456 5.717905,0.389503 10.617687,1.69188 14.820011,3.93914 2.782859,1.488157 3.358627,2.041034 3.506254,3.366571 0.1163,1.043624 -0.142958,1.831264 -0.75813,2.303205 -1.170572,0.898085 -0.840395,0.97786 -5.228129,-1.263486 z m 3.01941,-9.718756 c -7.039934,-3.552863 -16.049611,-4.9465 -24.06404,-3.722271 -8.812491,1.346145 -10.573445,0.854926 -9.416619,-2.626762 0.799942,-2.407671 5.82614,-3.599566 15.2278,-3.611072 6.24053,-0.0079 8.145633,0.206882 12.476972,1.405053 2.811547,0.777735 6.835969,2.361931 8.943272,3.520439 3.219076,1.769732 3.858513,2.35431 4.000972,3.657719 0.382792,3.502841 -2.03541,3.967331 -7.168357,1.376894 z m 4.93927,-10.461522 c -9.18665,-4.972537 -25.955963,-6.273646 -37.479049,-2.907953 -2.738668,0.799932 -4.6064498,-4.437071 -2.152922,-6.036693 3.171814,-2.067918 14.059815,-3.286134 22.737452,-2.543999 10.727436,0.917429 22.961772,5.298366 23.726677,8.496197 0.459468,1.920873 -0.122072,3.363192 -1.650969,4.0941 -1.722564,0.823508 -1.561121,0.857848 -5.181189,-1.101652 z"
       id="path3051" />
    <path
       inkscape:connector-curvature="0"
       style="opacity:1;fill:#001600;fill-opacity:0.0382258;stroke-width:0.538875"
       d="m 43.685786,50.912511 c -6.62677,-3.385098 -13.799702,-4.227041 -22.861466,-2.68343 -4.895054,0.833832 -5.015656,0.828156 -5.869673,-0.276181 -1.182201,-1.528839 -0.665708,-3.15015 1.223731,-3.841246 2.898188,-1.06008 10.666605,-1.851169 15.167402,-1.54456 5.717905,0.389503 10.617687,1.69188 14.820011,3.93914 2.782859,1.488157 3.358627,2.041034 3.506254,3.366571 0.1163,1.043624 -0.142958,1.831264 -0.75813,2.303205 -1.170572,0.898085 -0.840395,0.97786 -5.228129,-1.263486 z m 3.01941,-9.718756 c -7.039934,-3.552863 -16.049611,-4.9465 -24.06404,-3.722271 -8.812491,1.346145 -10.573445,0.854926 -9.416619,-2.626762 0.799942,-2.407671 5.82614,-3.599566 15.2278,-3.611072 6.24053,-0.0079 8.145633,0.206882 12.476972,1.405053 2.811547,0.777735 6.835969,2.361931 8.943272,3.520439 3.219076,1.769732 3.858513,2.35431 4.000972,3.657719 0.382792,3.502841 -2.03541,3.967331 -7.168357,1.376894 z m 4.93927,-10.461522 c -9.18665,-4.972537 -25.955963,-6.273646 -37.479049,-2.907953 -2.738668,0.799932 -4.6064503,-4.437071 -2.152922,-6.036693 3.171814,-2.067918 14.059815,-3.286134 22.737452,-2.543999 10.727436,0.917429 22.961772,5.298366 23.726677,8.496197 0.459468,1.920873 -0.122072,3.363192 -1.650969,4.0941 -1.722564,0.823508 -1.561121,0.857848 -5.181189,-1.101652 z"
       id="path3053" />
    <path
       inkscape:connector-curvature="0"
       style="opacity:1;fill:#001600;fill-opacity:0.0382258;stroke-width:0.538875"
       d="m 44.046413,51.994375 c -6.62677,-3.385098 -13.799702,-4.227041 -22.861466,-2.68343 -4.895054,0.833832 -5.015656,0.828156 -5.869673,-0.276181 -1.182201,-1.528839 -0.665708,-3.15015 1.223731,-3.841246 2.898188,-1.06008 10.666605,-1.851169 15.167402,-1.54456 5.717905,0.389503 10.617687,1.69188 14.820011,3.93914 2.782859,1.488157 3.358627,2.041034 3.506254,3.366571 0.1163,1.043624 -0.142958,1.831264 -0.75813,2.303205 -1.170572,0.898085 -0.840395,0.97786 -5.228129,-1.263486 z m 3.01941,-9.718756 c -7.039934,-3.552863 -16.049611,-4.9465 -24.06404,-3.722271 -8.812491,1.346145 -10.573445,0.854926 -9.416619,-2.626762 0.799942,-2.407671 5.82614,-3.599566 15.2278,-3.611072 6.24053,-0.0079 8.145633,0.206882 12.476972,1.405053 2.811547,0.777735 6.835969,2.361931 8.943272,3.520439 3.219076,1.769732 3.858513,2.35431 4.000972,3.657719 0.382792,3.502841 -2.03541,3.967331 -7.168357,1.376894 z m 4.93927,-10.461522 C 42.818443,26.84156 26.04913,25.540451 14.526044,28.906144 c -2.738668,0.799932 -4.6064499,-4.437071 -2.152922,-6.036693 3.171814,-2.067918 14.059815,-3.286134 22.737452,-2.543999 10.727436,0.917429 22.961772,5.298366 23.726677,8.496197 0.459468,1.920873 -0.122072,3.363192 -1.650969,4.0941 -1.722564,0.823508 -1.561121,0.857848 -5.181189,-1.101652 z"
       id="path3055" />
  </g>
  <path
     inkscape:connector-curvature="0"
     style="opacity:1;fill:url(#linearGradient4461);fill-opacity:1;stroke-width:0.496937"
     d="m 42.195261,47.151069 c -6.25975,-3.047509 -13.03541,-3.805486 -21.595292,-2.415816 -4.623942,0.750676 -4.737865,0.745566 -5.544582,-0.248638 -1.116725,-1.37637 -0.628837,-2.835994 1.155955,-3.458168 2.737672,-0.954357 10.075839,-1.666554 14.327359,-1.390523 5.40122,0.350659 10.02963,1.523153 13.99921,3.546298 2.62873,1.339746 3.17261,1.837486 3.31206,3.030827 0.10986,0.939547 -0.13504,1.648639 -0.71614,2.073512 -1.10574,0.80852 -0.79385,0.880341 -4.93857,-1.137479 z m 2.85218,-8.749522 c -6.65003,-3.198542 -15.16071,-4.453195 -22.73126,-3.351057 -8.324412,1.211898 -9.987837,0.769665 -8.895083,-2.364799 0.755639,-2.167559 5.503461,-3.240588 14.384413,-3.250947 5.8949,-0.007 7.69449,0.18625 11.78594,1.264929 2.65583,0.700172 6.45736,2.126381 8.44795,3.169353 3.04079,1.593239 3.64481,2.11952 3.77938,3.292943 0.36159,3.153507 -1.92268,3.571676 -6.77134,1.239578 z m 4.66571,-9.418216 c -8.67785,-4.476633 -24.5184,-5.647984 -35.403283,-2.617946 -2.586986,0.720156 -4.3513232,-3.994572 -2.033683,-5.434666 2.996145,-1.861688 13.281116,-2.958412 21.478146,-2.29029 10.1333,0.825935 21.69004,4.769969 22.41258,7.648887 0.43402,1.729309 -0.11531,3.027787 -1.55953,3.685804 -1.62716,0.741379 -1.47466,0.772295 -4.89423,-0.991789 z"
     id="path9" />
</svg>
