<?xml version="1.0" encoding="UTF-8" standalone="no"?>
<svg
   width="256"
   height="256"
   viewBox="0 0 67.73 67.73"
   version="1.1"
   id="svg64"
   sodipodi:docname="synaptic.svg"
   inkscape:version="1.1.2 (0a00cf5339, 2022-02-04)"
   xmlns:inkscape="http://www.inkscape.org/namespaces/inkscape"
   xmlns:sodipodi="http://sodipodi.sourceforge.net/DTD/sodipodi-0.dtd"
   xmlns:xlink="http://www.w3.org/1999/xlink"
   xmlns="http://www.w3.org/2000/svg"
   xmlns:svg="http://www.w3.org/2000/svg"
   xmlns:i="http://ns.adobe.com/AdobeIllustrator/10.0/">
  <sodipodi:namedview
     id="namedview66"
     pagecolor="#ffffff"
     bordercolor="#666666"
     borderopacity="1.0"
     inkscape:pageshadow="2"
     inkscape:pageopacity="0.0"
     inkscape:pagecheckerboard="0"
     showgrid="false"
     inkscape:zoom="2.4804688"
     inkscape:cx="128"
     inkscape:cy="128"
     inkscape:window-width="1920"
     inkscape:window-height="1030"
     inkscape:window-x="0"
     inkscape:window-y="24"
     inkscape:window-maximized="1"
     inkscape:current-layer="svg64" />
  <defs
     id="defs36">
    <filter
       id="a"
       x="-0.023199999"
       y="-0.024857142"
       width="1.0464"
       height="1.0497143"
       color-interpolation-filters="sRGB">
      <feGaussianBlur
         stdDeviation="2.32"
         id="feGaussianBlur2" />
    </filter>
    <filter
       id="b"
       x="-0.0116"
       y="-0.012428571"
       width="1.0232"
       height="1.0248571"
       color-interpolation-filters="sRGB">
      <feGaussianBlur
         stdDeviation="1.16"
         id="feGaussianBlur5" />
    </filter>
    <linearGradient
       id="c"
       x1="58.397"
       x2="243.659"
       y1="19"
       y2="302"
       gradientTransform="matrix(2.0393 0 0 2.0393 -83.458 -45.327)"
       gradientUnits="userSpaceOnUse">
      <stop
         offset="0"
         stop-color="#F53126"
         id="stop8" />
      <stop
         offset="1"
         stop-color="#9d1580"
         id="stop10" />
    </linearGradient>
    <linearGradient
       id="d"
       x1="256"
       x2="256"
       y1="24"
       y2="664"
       gradientTransform="matrix(.76474 0 0 1.01965 30.744 19.93)"
       gradientUnits="userSpaceOnUse">
      <stop
         offset="0"
         stop-color="#EEEDED"
         id="stop13" />
      <stop
         offset="1"
         stop-color="#EEEDED"
         id="stop15" />
    </linearGradient>
    <clipPath
       id="e">
      <rect
         x="32"
         y="44"
         width="120"
         height="224"
         rx=".031"
         ry=".014"
         fill="#EEEDED"
         opacity=".1"
         id="rect18" />
    </clipPath>
    <linearGradient
       id="g"
       x1="296"
       x2="296"
       y1="-212"
       y2="236"
       gradientUnits="userSpaceOnUse">
      <stop
         offset="0"
         stop-color="#FFFEFE"
         id="stop21" />
      <stop
         offset=".125"
         stop-color="#FFFEFE"
         stop-opacity=".098"
         id="stop23" />
      <stop
         offset=".925"
         stop-opacity=".098"
         id="stop25" />
      <stop
         offset="1"
         stop-opacity=".498"
         id="stop27" />
    </linearGradient>
    <clipPath
       id="f">
      <path
         d="M361.938-212C507.235-212 528-191.287 528-46.125v116.25C528 215.286 507.235 236 361.937 236H214.063C68.766 236 48 215.286 48 70.125v-116.25C48-191.287 68.765-212 214.063-212z"
         fill="#9F4AC8"
         id="path30" />
    </clipPath>
    <filter
       id="h"
       x="-0.023999999"
       y="-0.023999999"
       width="1.048"
       height="1.048"
       color-interpolation-filters="sRGB">
      <feGaussianBlur
         stdDeviation="1.28"
         id="feGaussianBlur33" />
    </filter>
    <filter
       inkscape:collect="always"
       style="color-interpolation-filters:sRGB"
       id="filter48924"
       x="-0.013636129"
       width="1.0272723"
       y="-0.01071443"
       height="1.0214289">
      <feGaussianBlur
         inkscape:collect="always"
         stdDeviation="1.0000135"
         id="feGaussianBlur48926" />
    </filter>
    <filter
       inkscape:collect="always"
       style="color-interpolation-filters:sRGB"
       id="filter48920"
       x="-0.054544517"
       width="1.109089"
       y="-0.04285772"
       height="1.0857154">
      <feGaussianBlur
         inkscape:collect="always"
         stdDeviation="4.000054"
         id="feGaussianBlur48922" />
    </filter>
    <filter
       inkscape:collect="always"
       style="color-interpolation-filters:sRGB"
       id="filter4346"
       x="-0.014454287"
       width="1.0289086"
       y="-0.011357288"
       height="1.0227146">
      <feGaussianBlur
         inkscape:collect="always"
         stdDeviation="2.120027"
         id="feGaussianBlur4348" />
    </filter>
    <linearGradient
       gradientUnits="userSpaceOnUse"
       y2="169.65668"
       x2="4.4137931"
       y1="386.29544"
       x1="494.34482"
       id="linearGradient4226"
       xlink:href="#linearGradient4338"
       inkscape:collect="always"
       gradientTransform="matrix(0,-0.11988342,-0.11987999,0,65.871032,62.686518)" />
    <linearGradient
       inkscape:collect="always"
       id="linearGradient4338">
      <stop
         style="stop-color:#f8367b;stop-opacity:1"
         offset="0"
         id="stop4340" />
      <stop
         style="stop-color:#f29cbb;stop-opacity:1"
         offset="1"
         id="stop4342" />
    </linearGradient>
    <linearGradient
       inkscape:collect="always"
       xlink:href="#linearGradient4235"
       id="linearGradient4241"
       x1="256"
       y1="24.000002"
       x2="256"
       y2="664"
       gradientUnits="userSpaceOnUse"
       gradientTransform="matrix(0.09921387,0,0,0.13228515,7.1477979,0.24792516)" />
    <linearGradient
       inkscape:collect="always"
       id="linearGradient4235">
      <stop
         style="stop-color:#f29cbb;stop-opacity:1"
         offset="0"
         id="stop4237" />
      <stop
         style="stop-color:#fac4d7;stop-opacity:1"
         offset="1"
         id="stop4239" />
    </linearGradient>
    <filter
       inkscape:collect="always"
       style="color-interpolation-filters:sRGB"
       id="filter29967"
       x="-0.17318182"
       width="1.3463636"
       y="-0.10026316"
       height="1.2005263">
      <feGaussianBlur
         inkscape:collect="always"
         stdDeviation="6.35"
         id="feGaussianBlur29969" />
    </filter>
    <linearGradient
       inkscape:collect="always"
       xlink:href="#linearGradient4235"
       id="linearGradient29716"
       x1="174"
       y1="45"
       x2="175.16797"
       y2="268"
       gradientUnits="userSpaceOnUse"
       gradientTransform="matrix(0.26457031,0,0,0.26457031,-7.6681394,-8.2183247)" />
  </defs>
  <path
     style="color:#000000;display:inline;overflow:visible;visibility:visible;opacity:0.1;fill:#000000;fill-opacity:1;fill-rule:nonzero;stroke:none;stroke-width:1;marker:none;filter:url(#filter48924);enable-background:accumulate"
     d="m 201.07298,45 c 35.29673,0 39.09461,3.625418 38.92162,38.99353 V 157 230.00647 C 240.16759,265.37459 236.36971,269 201.07298,269 H 102.91622 C 67.6195,269 63.9946,265.375 63.9946,230.00647 V 157 83.99353 C 63.9946,48.624997 67.6195,45 102.91622,45 Z"
     id="rect4158-1"
     inkscape:connector-curvature="0"
     sodipodi:nodetypes="scccssscsss"
     transform="matrix(0.26457031,0,0,0.26457031,-7.6681384,-8.2183247)" />
  <path
     style="color:#000000;display:inline;overflow:visible;visibility:visible;opacity:0.2;fill:#000000;fill-opacity:1;fill-rule:nonzero;stroke:none;stroke-width:1;marker:none;filter:url(#filter48920);enable-background:accumulate"
     d="m 201.07298,45 c 35.29673,0 39.09461,3.625418 38.92162,38.99353 V 157 230.00647 C 240.16759,265.37459 236.36971,269 201.07298,269 H 102.91622 C 67.6195,269 63.9946,265.375 63.9946,230.00647 V 157 83.99353 C 63.9946,48.624997 67.6195,45 102.91622,45 Z"
     id="rect4158-1-2"
     inkscape:connector-curvature="0"
     sodipodi:nodetypes="scccssscsss"
     transform="matrix(0.26457031,0,0,0.26457031,-7.6681384,-8.2183247)" />
  <path
     style="color:#000000;display:inline;overflow:visible;visibility:visible;opacity:0.1;fill:#000000;fill-opacity:1;fill-rule:nonzero;stroke:none;stroke-width:2;marker:none;filter:url(#filter4346);enable-background:accumulate"
     d="M 189.84323,74 C 119.24979,74 111.65402,81.250835 112,151.98706 V 298 444.01294 C 111.65402,514.74917 119.24979,522 189.84323,522 H 386.15677 C 456.75021,522 462.16345,514.72616 464,444.01294 V 298 151.98706 C 464,81.249993 456.75021,74 386.15677,74 Z"
     id="rect4158-9"
     inkscape:connector-curvature="0"
     sodipodi:nodetypes="scccssscsss"
     transform="matrix(0.13228515,0,0,0.13228515,-5.5515759,-6.1017622)" />
  <path
     style="color:#000000;display:inline;overflow:visible;visibility:visible;fill:url(#linearGradient4226);fill-opacity:1;fill-rule:nonzero;stroke:none;stroke-width:0.26457;marker:none;enable-background:accumulate"
     d="m 45.529803,3.422769 c 9.338466,0 10.343273,0.959178 10.297505,10.31653 v 19.315345 19.315344 c 0.04577,9.357355 -0.959039,10.31653 -10.297505,10.31653 H 19.560438 c -9.338464,0 -10.2975052,-0.959067 -10.2975052,-10.31653 V 33.054644 13.739299 c 0,-9.357463 0.9590412,-10.31653 10.2975052,-10.31653 z"
     id="rect4158"
     inkscape:connector-curvature="0"
     sodipodi:nodetypes="scccssscsss" />
  <rect
     style="color:#000000;display:inline;overflow:visible;visibility:visible;opacity:0.6;fill:url(#linearGradient4241);fill-opacity:1;fill-rule:nonzero;stroke:none;stroke-width:4.23312;stroke-linecap:butt;stroke-linejoin:miter;stroke-miterlimit:4;stroke-dasharray:none;stroke-dashoffset:0;stroke-opacity:1;marker:none;enable-background:accumulate"
     id="rect4233"
     width="4.2331247"
     height="59.263748"
     x="30.429983"
     y="3.4227691" />
  <path
     inkscape:connector-curvature="0"
     style="color:#000000;display:inline;overflow:visible;visibility:visible;opacity:0.5;fill:#e9578b;fill-opacity:1;fill-rule:nonzero;stroke:none;stroke-width:2.18499;marker:none;filter:url(#filter29967);enable-background:accumulate"
     d="m 130,66 v 72 h -22 c 0,0 18.03868,44.02555 44.02734,80 0.008,0 0.0144,-0.005 0.0234,-0.01 0.0101,-0.004 0.0197,-0.009 0.0293,-0.0156 0.009,-0.007 0.0201,-0.0129 0.0293,-0.0176 0.0101,-0.005 0.0189,-0.01 0.0273,-0.01 C 178.95434,180.00081 196,138 196,138 H 174 V 66 Z"
     id="path4360-1"
     sodipodi:nodetypes="cccccccccccc"
     inkscape:export-xdpi="28.120001"
     inkscape:export-ydpi="28.120001"
     inkscape:export-filename="/home/stuart/Pictures/apt shell.png"
     transform="matrix(0.26457031,0,0,0.26457031,-7.6681384,-8.2183247)" />
  <path
     style="color:#000000;display:inline;overflow:visible;visibility:visible;fill:url(#linearGradient29716);fill-opacity:1;fill-rule:nonzero;stroke:none;stroke-width:0.578083;marker:none;enable-background:accumulate"
     d="m 26.726002,3.422769 v 22.753047 h -5.820547 c 0,0 4.7725,11.647853 11.648327,21.165624 0.0021,0 0.0038,-0.0013 0.0062,-0.0026 0.0027,-0.0011 0.0052,-0.0024 0.0078,-0.0041 0.0024,-0.0019 0.0053,-0.0034 0.0078,-0.0047 0.0027,-0.0013 0.005,-0.0026 0.0072,-0.0026 C 39.677867,37.287983 44.187643,26.175816 44.187643,26.175816 H 38.367096 V 3.422769 Z"
     id="path4360"
     inkscape:connector-curvature="0"
     inkscape:export-xdpi="28.120001"
     inkscape:export-ydpi="28.120001"
     inkscape:export-filename="/home/stuart/Pictures/apt shell.png" />
  <rect
     style="color:#000000;display:inline;overflow:visible;visibility:visible;fill:#f9f9f9;fill-opacity:1;fill-rule:nonzero;stroke:none;stroke-width:4.23312;stroke-linecap:butt;stroke-linejoin:miter;stroke-miterlimit:4;stroke-dasharray:none;stroke-dashoffset:0;stroke-opacity:1;marker:none;enable-background:accumulate"
     id="rect4223"
     width="13.757656"
     height="8.4662495"
     x="13.497487"
     y="45.754021" />
  <path
     style="color:#000000;display:inline;overflow:visible;visibility:visible;fill:#5d5d5d;fill-opacity:1;fill-rule:nonzero;stroke:none;stroke-width:4.23312;stroke-linecap:butt;stroke-linejoin:miter;stroke-miterlimit:4;stroke-dasharray:none;stroke-dashoffset:0;stroke-opacity:1;marker:none;enable-background:accumulate"
     d="m 14.555767,47.870581 v 4.233125 h 2.116562 v -4.233125 z m 3.174844,0 v 4.233125 h 1.058281 v -4.233125 z m 2.116563,0 v 4.233125 h 2.116563 v -4.233125 z m 3.174844,0 v 4.233125 h 1.058281 v -4.233125 z m 2.116562,0 v 4.233125 h 1.058282 v -4.233125 z"
     id="rect4225"
     inkscape:connector-curvature="0" />
  <g
     style="display:inline;overflow:visible;enable-background:new"
     id="Layer_1"
     i:layer="yes"
     i:dimmedPercent="50"
     i:rgbTrio="#4F008000FFFF"
     transform="matrix(0.17528474,0,0,0.17528474,35.739251,42.934771)">
    <g
       id="g7">
      <path
         i:knockout="Off"
         d="m 60.969,47.645 c -1.494,0.02 0.281,0.768 2.232,1.069 0.541,-0.422 1.027,-0.846 1.463,-1.26 -1.213,0.297 -2.449,0.304 -3.695,0.191"
         id="path9"
         inkscape:connector-curvature="0"
         style="fill:#d70751" />
      <path
         i:knockout="Off"
         d="m 68.986,45.646 c 0.893,-1.229 1.541,-2.573 1.77,-3.963 -0.201,0.99 -0.736,1.845 -1.244,2.749 -2.793,1.759 -0.264,-1.044 -0.002,-2.111 -3.002,3.783 -0.414,2.268 -0.524,3.325"
         id="path11"
         inkscape:connector-curvature="0"
         style="fill:#d70751" />
      <path
         i:knockout="Off"
         d="m 71.949,37.942 c 0.182,-2.691 -0.529,-1.839 -0.768,-0.814 0.278,0.146 0.499,1.898 0.768,0.814"
         id="path13"
         inkscape:connector-curvature="0"
         style="fill:#d70751" />
      <path
         i:knockout="Off"
         d="m 55.301,1.163 c 0.798,0.142 1.724,0.252 1.591,0.443 0.876,-0.193 1.073,-0.367 -1.591,-0.443"
         id="path15"
         inkscape:connector-curvature="0"
         style="fill:#d70751" />
      <path
         i:knockout="Off"
         d="M 56.893,1.606 56.332,1.723 56.855,1.675 56.893,1.606"
         id="path17"
         inkscape:connector-curvature="0"
         style="fill:#d70751" />
      <path
         i:knockout="Off"
         d="m 81.762,38.962 c 0.09,2.416 -0.705,3.59 -1.424,5.666 l -1.293,0.643 c -1.057,2.054 0.105,1.304 -0.652,2.937 -1.652,1.467 -5.006,4.589 -6.08,4.875 -0.785,-0.017 0.531,-0.926 0.703,-1.281 -2.209,1.516 -1.773,2.276 -5.152,3.199 L 67.766,54.78 c -8.33,3.92 -19.902,-3.847 -19.75,-14.443 -0.088,0.672 -0.253,0.504 -0.437,0.774 -0.43,-5.451 2.518,-10.926 7.49,-13.165 4.863,-2.406 10.564,-1.42 14.045,1.829 -1.912,-2.506 -5.721,-5.163 -10.232,-4.917 -4.421,0.072 -8.558,2.881 -9.938,5.932 -2.264,1.425 -2.528,5.496 -3.514,6.242 -1.329,9.76 2.497,13.975 8.97,18.936 1.016,0.686 0.286,0.791 0.422,1.313 -2.15,-1.006 -4.118,-2.526 -5.738,-4.387 0.86,1.257 1.787,2.479 2.986,3.439 -2.029,-0.685 -4.738,-4.913 -5.527,-5.085 3.495,6.258 14.178,10.975 19.775,8.634 -2.59,0.096 -5.879,0.053 -8.787,-1.022 -1.225,-0.629 -2.884,-1.93 -2.587,-2.173 7.636,2.851 15.522,2.158 22.128,-3.137 1.682,-1.31 3.518,-3.537 4.049,-3.567 -0.799,1.202 0.137,0.578 -0.477,1.639 1.672,-2.701 -0.729,-1.1 1.73,-4.664 l 0.908,1.25 c -0.34,-2.244 2.785,-4.966 2.467,-8.512 0.717,-1.084 0.799,1.168 0.039,3.662 1.055,-2.767 0.279,-3.212 0.549,-5.496 0.291,0.768 0.678,1.583 0.875,2.394 -0.688,-2.675 0.703,-4.503 1.049,-6.058 -0.342,-0.15 -1.061,1.182 -1.227,-1.976 0.025,-1.372 0.383,-0.719 0.52,-1.057 -0.268,-0.155 -0.975,-1.207 -1.404,-3.224 0.309,-0.475 0.832,1.229 1.256,1.298 -0.273,-1.603 -0.742,-2.826 -0.762,-4.057 -1.24,-2.59 -0.439,0.346 -1.443,-1.112 -1.32,-4.114 1.094,-0.955 1.258,-2.823 1.998,2.895 3.137,7.385 3.662,9.244 -0.4,-2.267 -1.045,-4.464 -1.834,-6.589 0.609,0.257 -0.979,-4.663 0.791,-1.405 C 87.189,15.552 81,9.062 75.305,6.018 76,6.655 76.879,7.455 76.565,7.581 73.731,5.896 74.229,5.763 73.823,5.051 71.518,4.112 71.364,5.128 69.839,5.053 65.489,2.745 64.651,2.99 60.648,1.546 L 60.83,2.398 C 57.949,1.438 57.473,2.76 54.36,2.4 54.171,2.253 55.358,1.864 56.336,1.723 53.55,2.091 53.68,1.173 50.954,1.824 51.625,1.353 52.337,1.04 53.053,0.64 50.782,0.778 47.629,1.962 48.602,0.884 44.897,2.538 38.316,4.859 34.623,8.322 L 34.507,7.546 c -1.692,2.031 -7.379,6.066 -7.832,8.699 l -0.453,0.105 c -0.879,1.491 -1.45,3.18 -2.148,4.713 -1.151,1.963 -1.688,0.756 -1.524,1.064 -2.265,4.592 -3.392,8.45 -4.363,11.616 0.692,1.035 0.017,6.232 0.278,10.391 -1.136,20.544 14.418,40.489 31.42,45.093 2.492,0.893 6.197,0.861 9.349,0.949 -3.718,-1.064 -4.198,-0.563 -7.822,-1.826 -2.613,-1.232 -3.185,-2.637 -5.037,-4.244 l 0.733,1.295 c -3.63,-1.285 -2.111,-1.59 -5.065,-2.525 l 0.783,-1.021 c -1.177,-0.09 -3.117,-1.982 -3.647,-3.033 l -1.288,0.051 c -1.546,-1.906 -2.371,-3.283 -2.31,-4.35 l -0.416,0.742 c -0.471,-0.809 -5.691,-7.158 -2.983,-5.68 -0.503,-0.458 -1.172,-0.747 -1.897,-2.066 l 0.551,-0.629 c -1.301,-1.677 -2.398,-3.826 -2.314,-4.542 0.695,0.938 1.177,1.114 1.655,1.275 -3.291,-8.164 -3.476,-0.449 -5.967,-8.31 l 0.526,-0.042 c -0.403,-0.611 -0.65,-1.27 -0.974,-1.919 l 0.23,-2.285 c -2.368,-2.736 -0.662,-11.645 -0.319,-16.53 0.235,-1.986 1.977,-4.101 3.3,-7.418 l -0.806,-0.138 c 1.542,-2.688 8.802,-10.799 12.166,-10.383 1.629,-2.046 -0.324,-0.008 -0.643,-0.522 3.579,-3.703 4.704,-2.616 7.119,-3.283 2.603,-1.545 -2.235,0.604 -1.001,-0.589 4.503,-1.149 3.19,-2.614 9.063,-3.197 0.62,0.352 -1.437,0.544 -1.953,1.001 3.75,-1.836 11.869,-1.417 17.145,1.018 6.117,2.861 12.994,11.314 13.266,19.267 l 0.309,0.083 c -0.156,3.162 0.484,6.819 -0.627,10.177 l 0.751,-1.591"
         id="path19"
         inkscape:connector-curvature="0"
         style="fill:#d70751" />
      <path
         i:knockout="Off"
         d="m 44.658,49.695 -0.211,1.047 c 0.983,1.335 1.763,2.781 3.016,3.821 -0.902,-1.759 -1.571,-2.486 -2.805,-4.868"
         id="path21"
         inkscape:connector-curvature="0"
         style="fill:#d70751" />
      <path
         i:knockout="Off"
         d="m 46.979,49.605 c -0.52,-0.576 -0.826,-1.268 -1.172,-1.956 0.33,1.211 1.006,2.252 1.633,3.312 l -0.461,-1.356"
         id="path23"
         inkscape:connector-curvature="0"
         style="fill:#d70751" />
      <path
         i:knockout="Off"
         d="m 88.063,40.675 -0.219,0.552 c -0.402,2.858 -1.273,5.686 -2.605,8.309 1.472,-2.767 2.421,-5.794 2.824,-8.861"
         id="path25"
         inkscape:connector-curvature="0"
         style="fill:#d70751" />
      <path
         i:knockout="Off"
         d="M 55.598,0.446 C 56.607,0.077 58.08,0.243 59.154,0 57.756,0.117 56.365,0.187 54.992,0.362 l 0.606,0.084"
         id="path27"
         inkscape:connector-curvature="0"
         style="fill:#d70751" />
      <path
         i:knockout="Off"
         d="m 20.127,19.308 c 0.233,2.154 -1.62,2.991 0.41,1.569 1.09,-2.454 -0.424,-0.677 -0.41,-1.569"
         id="path29"
         inkscape:connector-curvature="0"
         style="fill:#d70751" />
      <path
         i:knockout="Off"
         d="m 17.739,29.282 c 0.469,-1.437 0.553,-2.299 0.732,-3.132 -1.293,1.654 -0.596,2.007 -0.732,3.132"
         id="path31"
         inkscape:connector-curvature="0"
         style="fill:#d70751" />
    </g>
  </g>
  <path
     style="color:#000000;display:inline;overflow:visible;visibility:visible;opacity:0.2;fill:#000000;fill-opacity:1;fill-rule:nonzero;stroke:none;stroke-width:0.26457;marker:none;enable-background:accumulate"
     d="m 19.563364,62.686518 c -9.338468,0 -10.3433432,-0.959339 -10.2975752,-10.316691 v -0.529141 c -0.045768,9.357352 0.9591072,10.316692 10.2975752,10.316692 h 25.969227 c 9.338467,0 10.297574,-0.959229 10.297574,-10.316692 v 0.529141 c 0,9.357463 -0.959107,10.316691 -10.297574,10.316691 z"
     id="path931-8"
     inkscape:connector-curvature="0" />
  <path
     style="color:#000000;display:inline;overflow:visible;visibility:visible;opacity:0.3;fill:#ffffff;fill-opacity:1;fill-rule:nonzero;stroke:none;stroke-width:0.26457;marker:none;enable-background:accumulate"
     d="m 19.561936,3.422769 c -9.338467,0 -10.3433426,0.95934 -10.2975746,10.316692 v 0.529141 C 9.2185934,4.911249 10.223469,3.95191 19.561936,3.95191 h 25.969227 c 9.338466,0 10.297573,0.959228 10.297573,10.316692 v -0.529141 c 0,-9.357464 -0.959107,-10.316692 -10.297573,-10.316692 z"
     id="path931"
     inkscape:connector-curvature="0" />
</svg>
