<?xml version="1.0" encoding="UTF-8" standalone="no"?>
<svg
   width="256"
   height="256"
   viewBox="0 0 67.73 67.73"
   version="1.1"
   id="svg76"
   sodipodi:docname="camara.svg"
   inkscape:version="1.1.2 (0a00cf5339, 2022-02-04)"
   xmlns:inkscape="http://www.inkscape.org/namespaces/inkscape"
   xmlns:sodipodi="http://sodipodi.sourceforge.net/DTD/sodipodi-0.dtd"
   xmlns:xlink="http://www.w3.org/1999/xlink"
   xmlns="http://www.w3.org/2000/svg"
   xmlns:svg="http://www.w3.org/2000/svg">
  <sodipodi:namedview
     id="namedview78"
     pagecolor="#ffffff"
     bordercolor="#666666"
     borderopacity="1.0"
     inkscape:pageshadow="2"
     inkscape:pageopacity="0.0"
     inkscape:pagecheckerboard="0"
     showgrid="false"
     inkscape:zoom="2.4804688"
     inkscape:cx="128"
     inkscape:cy="128"
     inkscape:window-width="1920"
     inkscape:window-height="1028"
     inkscape:window-x="0"
     inkscape:window-y="24"
     inkscape:window-maximized="1"
     inkscape:current-layer="svg76" />
  <defs
     id="defs36">
    <linearGradient
       id="g"
       x1="296"
       x2="296"
       y1="-212"
       y2="202.4"
       gradientUnits="userSpaceOnUse">
      <stop
         offset="0"
         stop-color="#FFFEFE"
         id="stop2" />
      <stop
         offset=".135"
         stop-color="#FFFEFE"
         stop-opacity=".098"
         id="stop4" />
      <stop
         offset="1"
         stop-color="#FFFEFE"
         stop-opacity="0"
         id="stop6" />
    </linearGradient>
    <clipPath
       id="f">
      <path
         d="M361.938-212C507.235-212 528-191.287 528-46.125v116.25C528 215.286 507.235 236 361.937 236H214.063C68.766 236 48 215.286 48 70.125v-116.25C48-191.287 68.765-212 214.063-212z"
         fill="#9F4AC8"
         id="path9" />
    </clipPath>
    <filter
       id="e"
       width="1.0464"
       height="1.0497143"
       x="-0.023199999"
       y="-0.024857142"
       color-interpolation-filters="sRGB">
      <feGaussianBlur
         stdDeviation="2.32"
         id="feGaussianBlur12" />
    </filter>
    <filter
       id="d"
       width="1.0232"
       height="1.0248571"
       x="-0.0116"
       y="-0.012428571"
       color-interpolation-filters="sRGB">
      <feGaussianBlur
         stdDeviation="1.16"
         id="feGaussianBlur15" />
    </filter>
    <radialGradient
       id="i"
       cx="320.707"
       cy="-31.995"
       r="50"
       fx="320.707"
       fy="-31.995"
       gradientTransform="matrix(2.90919 0 0 2.90919 -636.29 14.675)"
       gradientUnits="userSpaceOnUse"
       xlink:href="#a" />
    <linearGradient
       id="a">
      <stop
         offset="0"
         stop-color="#138EFE"
         id="stop19" />
      <stop
         offset="1"
         stop-color="#111110"
         id="stop21" />
    </linearGradient>
    <linearGradient
       id="j"
       x1="320"
       x2="320"
       y1="93"
       y2="13"
       gradientTransform="translate(-24 -46.409)"
       gradientUnits="userSpaceOnUse"
       xlink:href="#b" />
    <linearGradient
       id="b">
      <stop
         offset="0"
         stop-color="#FFFEFE"
         id="stop25" />
      <stop
         offset="1"
         stop-color="#138EFE"
         stop-opacity="0"
         id="stop27" />
    </linearGradient>
    <radialGradient
       id="h"
       cx="256"
       cy="-174.134"
       r="144"
       fx="256"
       fy="-174.134"
       gradientTransform="matrix(.223 0 0 .223 -23.354 -243.374)"
       gradientUnits="userSpaceOnUse"
       xlink:href="#c" />
    <linearGradient
       id="c">
      <stop
         offset="0"
         stop-color="#111110"
         id="stop31" />
      <stop
         offset="1"
         id="stop33" />
    </linearGradient>
    <filter
       inkscape:collect="always"
       style="color-interpolation-filters:sRGB"
       id="filter4346"
       x="-0.014454287"
       width="1.0289086"
       y="-0.011357288"
       height="1.0227146">
      <feGaussianBlur
         inkscape:collect="always"
         stdDeviation="2.120027"
         id="feGaussianBlur4348" />
    </filter>
    <filter
       inkscape:collect="always"
       style="color-interpolation-filters:sRGB"
       id="filter4380"
       x="-0.057817147"
       width="1.1156343"
       y="-0.045429151"
       height="1.0908583">
      <feGaussianBlur
         inkscape:collect="always"
         stdDeviation="8.4801079"
         id="feGaussianBlur4382" />
    </filter>
    <filter
       inkscape:collect="always"
       style="color-interpolation-filters:sRGB"
       id="filter4323"
       x="-0.011999999"
       width="1.024"
       y="-0.011999999"
       height="1.024">
      <feGaussianBlur
         inkscape:collect="always"
         stdDeviation="1.7599998"
         id="feGaussianBlur4325" />
    </filter>
    <linearGradient
       inkscape:collect="always"
       xlink:href="#linearGradient4295"
       id="linearGradient4301"
       x1="-434"
       y1="-256"
       x2="-82.000046"
       y2="-256"
       gradientUnits="userSpaceOnUse" />
    <linearGradient
       id="linearGradient4295"
       inkscape:collect="always">
      <stop
         id="stop4365"
         offset="0"
         style="stop-color:#000000;stop-opacity:0" />
      <stop
         style="stop-color:#000000;stop-opacity:1"
         offset="0.73295462"
         id="stop4367" />
      <stop
         id="stop4369"
         offset="1"
         style="stop-color:#000000;stop-opacity:0" />
    </linearGradient>
    <filter
       inkscape:collect="always"
       style="color-interpolation-filters:sRGB"
       id="filter4291"
       x="-0.096000001"
       width="1.192"
       y="-0.096000001"
       height="1.192">
      <feGaussianBlur
         inkscape:collect="always"
         stdDeviation="14.079999"
         id="feGaussianBlur4293" />
    </filter>
    <radialGradient
       inkscape:collect="always"
       xlink:href="#linearGradient4398"
       id="radialGradient4404"
       cx="-256"
       cy="-256.20001"
       fx="-256"
       fy="-256.20001"
       r="96"
       gradientUnits="userSpaceOnUse"
       gradientTransform="matrix(0,-0.8333347,-0.8333347,0,-461.50049,-57.33369)" />
    <linearGradient
       inkscape:collect="always"
       id="linearGradient4398">
      <stop
         id="stop4402"
         offset="0"
         style="stop-color:#000000;stop-opacity:0;" />
      <stop
         style="stop-color:#000000;stop-opacity:0"
         offset="0.89867342"
         id="stop4408" />
      <stop
         id="stop4410"
         offset="0.94933045"
         style="stop-color:#000000;stop-opacity:0.26165804" />
      <stop
         id="stop4400"
         offset="1"
         style="stop-color:#000000;stop-opacity:1;" />
    </linearGradient>
  </defs>
  <path
     style="color:#000000;display:inline;overflow:visible;visibility:visible;opacity:0.1;fill:#000000;fill-opacity:1;fill-rule:nonzero;stroke:none;stroke-width:2;marker:none;filter:url(#filter4346);enable-background:accumulate"
     d="M 189.84323,74 C 119.24979,74 111.65402,81.250835 112,151.98706 V 298 444.01294 C 111.65402,514.74917 119.24979,522 189.84323,522 H 386.15677 C 456.75021,522 462.16345,514.72616 464,444.01294 V 298 151.98706 C 464,81.249993 456.75021,74 386.15677,74 Z"
     id="rect4158-9"
     inkscape:connector-curvature="0"
     sodipodi:nodetypes="scccssscsss"
     transform="matrix(0,0.13228515,-0.13228515,0,73.279187,-3.374407)" />
  <path
     sodipodi:nodetypes="scccssscsss"
     inkscape:connector-curvature="0"
     id="path4350"
     d="M 189.84323,74 C 119.24979,74 111.65402,81.250835 112,151.98706 V 298 444.01294 C 111.65402,514.74917 119.24979,522 189.84323,522 H 386.15677 C 456.75021,522 464,514.75001 464,444.01294 V 298 151.98706 C 464,81.249993 456.75021,74 386.15677,74 Z"
     style="color:#000000;display:inline;overflow:visible;visibility:visible;opacity:0.1;fill:#000000;fill-opacity:1;fill-rule:nonzero;stroke:none;stroke-width:2;marker:none;filter:url(#filter4380);enable-background:accumulate"
     transform="matrix(0,0.13228515,-0.13228515,0,73.279187,-3.374407)" />
  <path
     style="color:#000000;display:inline;overflow:visible;visibility:visible;opacity:0.1;fill:#000000;fill-opacity:1;fill-rule:nonzero;stroke:none;stroke-width:0.269938;marker:none;enable-background:accumulate"
     d="m 64.020602,21.179412 c 0,-9.550674 -0.976307,-10.578316 -10.500753,-10.531508 H 33.859586 14.199324 C 4.6748756,10.601096 3.6985715,11.628738 3.6985715,21.179412 v 26.559504 c 0,9.550673 0.976193,10.531507 10.5007525,10.531507 h 19.660262 19.660263 c 9.52456,0 10.500753,-0.980834 10.500753,-10.531507 z"
     id="rect4158-7"
     inkscape:connector-curvature="0"
     sodipodi:nodetypes="scccssscsss" />
  <path
     style="color:#000000;display:inline;overflow:visible;visibility:visible;fill:#e6e6e6;fill-opacity:1;fill-rule:nonzero;stroke:none;stroke-width:0.26457;marker:none;enable-background:accumulate"
     d="m 63.490085,47.442402 c 0,9.338466 -0.959178,10.343273 -10.31653,10.297505 H 33.858211 14.542866 C 5.1855122,57.785675 4.2263364,56.780868 4.2263364,47.442402 V 21.473037 c 0,-9.338463 0.9590673,-10.297504 10.3165296,-10.297504 h 19.315345 19.315344 c 9.357463,0 10.31653,0.959041 10.31653,10.297504 z"
     id="rect4158"
     inkscape:connector-curvature="0"
     sodipodi:nodetypes="scccssscsss" />
  <path
     style="display:inline;opacity:0.3;fill:#ffffff;fill-opacity:1;stroke:none;stroke-width:0.529141;stroke-linecap:round;stroke-linejoin:round;stroke-miterlimit:4;stroke-dasharray:none;stroke-dashoffset:0;stroke-opacity:1;enable-background:new"
     d="m 4.226534,23.875621 v 23.56691 c 0,9.338467 0.9588205,10.343342 10.316175,10.297574 h 19.3157 19.315183 c 9.357352,0.04577 10.316692,-0.959107 10.316692,-10.297574 v -23.56691 z"
     id="path932" />
  <circle
     style="color:#000000;display:inline;overflow:visible;visibility:visible;fill:#df382c;fill-opacity:1;fill-rule:nonzero;stroke:none;stroke-width:0.35276;marker:none;enable-background:accumulate"
     id="path5121"
     cy="15.409371"
     cx="55.024548"
     r="2.1165624" />
  <circle
     r="175.99998"
     cy="-256"
     cx="-258.00003"
     transform="matrix(0,-0.12000524,-0.12019615,0,3.1038952,3.6267679)"
     id="circle4305"
     style="color:#000000;display:inline;overflow:visible;visibility:visible;opacity:0.1;fill:#000000;fill-opacity:0.996078;stroke:none;stroke-width:5.4632;marker:none;filter:url(#filter4323);enable-background:accumulate" />
  <circle
     r="175.99998"
     cy="-256"
     cx="-258.00003"
     transform="matrix(0,-0.12000524,-0.12019615,0,3.1038952,3.6267679)"
     id="circle4345"
     style="color:#000000;display:inline;overflow:visible;visibility:visible;opacity:0.4;fill:url(#linearGradient4301);fill-opacity:1;stroke:none;stroke-width:5.4632;marker:none;filter:url(#filter4291);enable-background:accumulate" />
  <g
     style="display:inline;stroke-width:1.10145;enable-background:new"
     id="g1038"
     transform="matrix(0.24039233,0,0,0.24001048,93.491403,-3.0935225)">
    <circle
       r="87.999992"
       cy="248"
       cx="-156.00002"
       transform="matrix(0,-1,-1,0,0,0)"
       id="path4389-5"
       style="color:#000000;display:inline;overflow:visible;visibility:visible;fill:#f2f2f2;fill-opacity:1;stroke:none;stroke-width:2.7316;marker:none;enable-background:accumulate" />
    <circle
       r="80"
       cy="248"
       cx="-157"
       transform="matrix(0,-1,-1,0,0,0)"
       id="circle4191"
       style="color:#000000;display:inline;overflow:visible;visibility:visible;opacity:1;fill:#ffffff;fill-opacity:1;stroke:none;stroke-width:2.2029;marker:none;enable-background:accumulate" />
    <circle
       style="color:#000000;display:inline;overflow:visible;visibility:visible;fill:#46444a;fill-opacity:1;stroke:none;stroke-width:2.2029;marker:none;enable-background:accumulate"
       id="circle4371"
       transform="matrix(0,-1,-1,0,0,0)"
       cx="-155.99998"
       cy="248"
       r="80" />
    <path
       inkscape:connector-curvature="0"
       id="circle4396"
       d="M -248.0007,75.999297 A 80.000135,80.000135 0 0 0 -328,155.99999 80.000135,80.000135 0 0 0 -248.0007,236.00068 80.000135,80.000135 0 0 0 -168,155.99999 80.000135,80.000135 0 0 0 -248.0007,75.999297 Z m 0,28.622583 a 51.37813,51.37813 0 0 1 51.37811,51.37811 51.37813,51.37813 0 0 1 -51.37811,51.37811 51.37813,51.37813 0 0 1 -51.37811,-51.37811 51.37813,51.37813 0 0 1 51.37811,-51.37811 z"
       style="color:#000000;display:inline;overflow:visible;visibility:visible;opacity:0.1;fill:url(#radialGradient4404);fill-opacity:1;stroke:none;stroke-width:2.2029;marker:none;enable-background:accumulate" />
    <circle
       style="color:#000000;display:inline;overflow:visible;visibility:visible;opacity:1;fill:#a7a7f1;fill-opacity:1;stroke:none;stroke-width:2.2029;marker:none;enable-background:accumulate"
       id="circle4269"
       transform="matrix(0,-1,-1,0,0,0)"
       cx="-156"
       cy="248"
       r="64" />
    <circle
       r="60"
       cy="248"
       cx="-155.99998"
       transform="matrix(0,-1,-1,0,0,0)"
       id="circle4201"
       style="color:#000000;display:inline;overflow:visible;visibility:visible;opacity:1;fill:#8f76e4;fill-opacity:1;stroke:none;stroke-width:2.2029;marker:none;enable-background:accumulate" />
    <circle
       style="color:#000000;display:inline;overflow:visible;visibility:visible;opacity:1;fill:#8c59d9;fill-opacity:1;stroke:none;stroke-width:2.2029;marker:none;enable-background:accumulate"
       id="circle4409"
       transform="matrix(0,-1,-1,0,0,0)"
       cx="-156"
       cy="248"
       r="40" />
    <circle
       r="19.999987"
       cy="267.19843"
       cx="-119.98077"
       transform="matrix(-0.1391731,-0.99026807,-0.99026807,0.1391731,0,0)"
       id="circle4411"
       style="color:#000000;display:inline;overflow:visible;visibility:visible;opacity:1;fill:#7839b7;fill-opacity:1;stroke:none;stroke-width:2.2029;marker:none;enable-background:accumulate" />
    <circle
       transform="rotate(-8)"
       style="color:#000000;display:inline;overflow:visible;visibility:visible;opacity:0.3;fill:#ffffff;fill-opacity:1;fill-rule:nonzero;stroke:none;stroke-width:4.40581;stroke-linecap:butt;stroke-linejoin:miter;stroke-miterlimit:4;stroke-dasharray:none;stroke-dashoffset:0;stroke-opacity:1;marker:none;enable-background:accumulate"
       id="path4508"
       cx="-258.26196"
       cy="113.15809"
       r="6" />
    <circle
       transform="rotate(-8)"
       r="2"
       cy="126.77563"
       cx="-276.33298"
       id="circle4195"
       style="color:#000000;display:inline;overflow:visible;visibility:visible;opacity:0.3;fill:#ffffff;fill-opacity:1;fill-rule:nonzero;stroke:none;stroke-width:4.40581;stroke-linecap:butt;stroke-linejoin:miter;stroke-miterlimit:4;stroke-dasharray:none;stroke-dashoffset:0;stroke-opacity:1;marker:none;enable-background:accumulate" />
    <circle
       r="24"
       cy="130"
       cx="-222"
       id="circle4271"
       style="color:#000000;display:inline;overflow:visible;visibility:visible;opacity:0.2;fill:#ffffff;fill-opacity:1;fill-rule:nonzero;stroke:none;stroke-width:4.40581;stroke-linecap:butt;stroke-linejoin:miter;stroke-miterlimit:4;stroke-dasharray:none;stroke-dashoffset:0;stroke-opacity:1;marker:none;enable-background:accumulate" />
    <path
       inkscape:connector-curvature="0"
       id="circle1021"
       d="m -248,68 a 87.999992,87.999992 0 0 0 -88,88 87.999992,87.999992 0 0 0 0.041,0.83008 A 87.999992,87.999992 0 0 1 -248,70 87.999992,87.999992 0 0 1 -160.04102,157.16992 87.999992,87.999992 0 0 0 -160,156 87.999992,87.999992 0 0 0 -248,68 Z"
       style="color:#000000;display:inline;overflow:visible;visibility:visible;opacity:0.4;fill:#ffffff;fill-opacity:1;stroke:none;stroke-width:2.7316;marker:none;enable-background:accumulate" />
  </g>
  <path
     style="color:#000000;display:inline;overflow:visible;visibility:visible;opacity:0.3;fill:#ffffff;fill-opacity:1;fill-rule:nonzero;stroke:none;stroke-width:0.26457;marker:none;enable-background:accumulate"
     d="m 14.542709,11.17573 c -9.3574629,0 -10.316175,0.958591 -10.316175,10.297056 v 25.969745 c 0,0.02334 5.027e-4,0.04292 5.291e-4,0.06614 V 22.00141 C 4.2270507,12.662946 5.1862797,11.703837 14.543742,11.703837 h 19.315183 19.315183 c 9.334083,0 10.311347,0.958018 10.316176,10.231431 v -0.462482 c 0,-9.338465 -0.959229,-10.297056 -10.316692,-10.297056 H 33.858409 Z"
     id="rect4158-78"
     inkscape:connector-curvature="0" />
  <path
     style="color:#000000;display:inline;overflow:visible;visibility:visible;opacity:0.2;fill:#000000;fill-opacity:1;fill-rule:nonzero;stroke:none;stroke-width:0.26457;marker:none;enable-background:accumulate"
     d="m 4.226534,46.913391 v 0.52914 c 0,9.338467 0.9588205,10.343342 10.316175,10.297574 h 19.3157 19.315183 c 9.357352,0.04577 10.316692,-0.959107 10.316692,-10.297574 v -0.52914 c 0,9.338466 -0.95934,10.343341 -10.316692,10.297573 H 33.858409 14.542709 C 5.1853545,57.256732 4.226534,56.251857 4.226534,46.913391 Z"
     id="rect4158-6"
     inkscape:connector-curvature="0" />
</svg>
