<?xml version="1.0" encoding="UTF-8" standalone="no"?>
<svg
   width="256"
   height="256"
   viewBox="0 0 67.73 67.73"
   version="1.1"
   id="svg90"
   sodipodi:docname="usb-creator-gtk.svg"
   inkscape:version="1.1.2 (0a00cf5339, 2022-02-04)"
   xmlns:inkscape="http://www.inkscape.org/namespaces/inkscape"
   xmlns:sodipodi="http://sodipodi.sourceforge.net/DTD/sodipodi-0.dtd"
   xmlns:xlink="http://www.w3.org/1999/xlink"
   xmlns="http://www.w3.org/2000/svg"
   xmlns:svg="http://www.w3.org/2000/svg">
  <sodipodi:namedview
     id="namedview92"
     pagecolor="#ffffff"
     bordercolor="#666666"
     borderopacity="1.0"
     inkscape:pageshadow="2"
     inkscape:pageopacity="0.0"
     inkscape:pagecheckerboard="0"
     showgrid="false"
     inkscape:zoom="2.4804688"
     inkscape:cx="128"
     inkscape:cy="128"
     inkscape:window-width="1920"
     inkscape:window-height="1030"
     inkscape:window-x="0"
     inkscape:window-y="24"
     inkscape:window-maximized="1"
     inkscape:current-layer="svg90" />
  <defs
     id="defs48">
    <linearGradient
       id="d"
       x1="296"
       x2="296"
       y1="-212"
       y2="236"
       gradientUnits="userSpaceOnUse">
      <stop
         offset="0"
         stop-color="#FFFEFE"
         id="stop2" />
      <stop
         offset=".125"
         stop-color="#FFFEFE"
         stop-opacity=".098"
         id="stop4" />
      <stop
         offset=".925"
         stop-opacity=".098"
         id="stop6" />
      <stop
         offset="1"
         stop-opacity=".498"
         id="stop8" />
    </linearGradient>
    <clipPath
       id="c">
      <path
         d="M361.938-212C507.235-212 528-191.287 528-46.125v116.25C528 215.286 507.235 236 361.937 236H214.063C68.766 236 48 215.286 48 70.125v-116.25C48-191.287 68.765-212 214.063-212z"
         fill="#9F4AC8"
         id="path11" />
    </clipPath>
    <filter
       id="b"
       x="-0.0116"
       y="-0.012428571"
       width="1.0232"
       height="1.0248571"
       color-interpolation-filters="sRGB">
      <feGaussianBlur
         stdDeviation="1.16"
         id="feGaussianBlur14" />
    </filter>
    <filter
       id="a"
       x="-0.023199999"
       y="-0.024857142"
       width="1.0464"
       height="1.0497143"
       color-interpolation-filters="sRGB">
      <feGaussianBlur
         stdDeviation="2.32"
         id="feGaussianBlur17" />
    </filter>
    <filter
       id="j"
       x="-0.023999999"
       y="-0.023999999"
       width="1.048"
       height="1.048"
       color-interpolation-filters="sRGB">
      <feGaussianBlur
         stdDeviation="1.28"
         id="feGaussianBlur20" />
    </filter>
    <filter
       id="e"
       x="-0.017666004"
       y="-0.013677419"
       width="1.035332"
       height="1.0273548"
       color-interpolation-filters="sRGB">
      <feGaussianBlur
         stdDeviation="2.12"
         id="feGaussianBlur23" />
    </filter>
    <linearGradient
       id="f"
       x1="88"
       x2="488"
       y1="88"
       y2="488"
       gradientUnits="userSpaceOnUse">
      <stop
         offset="0"
         stop-opacity=".588"
         id="stop26" />
      <stop
         offset=".88"
         stop-opacity="0"
         id="stop28" />
      <stop
         offset="1"
         id="stop30" />
    </linearGradient>
    <filter
       id="g"
       x="-0.018999999"
       y="-0.032571428"
       width="1.038"
       height="1.0651429"
       color-interpolation-filters="sRGB">
      <feGaussianBlur
         stdDeviation=".152"
         id="feGaussianBlur33" />
    </filter>
    <linearGradient
       id="h"
       x1="529.655"
       x2="-35.31"
       y1="295.638"
       y2="295.638"
       gradientTransform="matrix(0 -.70784 -.70782 0 1021.235 471.461)"
       gradientUnits="userSpaceOnUse">
      <stop
         offset="0"
         stop-color="#EEEDED"
         id="stop36" />
      <stop
         offset=".613"
         stop-color="#EEEDED"
         id="stop38" />
      <stop
         offset="1"
         stop-color="#EEEDED"
         id="stop40" />
    </linearGradient>
    <linearGradient
       id="i"
       x1="192"
       x2="192"
       y1="68"
       y2="212"
       gradientTransform="translate(599.525 65.305) scale(1.56214)"
       gradientUnits="userSpaceOnUse">
      <stop
         offset="0"
         stop-color="gray"
         id="stop43" />
      <stop
         offset="1"
         stop-color="#EEEDED"
         id="stop45" />
    </linearGradient>
    <filter
       inkscape:collect="always"
       style="color-interpolation-filters:sRGB"
       id="filter4346"
       x="-0.01766623"
       width="1.0353325"
       y="-0.013677594"
       height="1.0273552">
      <feGaussianBlur
         inkscape:collect="always"
         stdDeviation="2.120027"
         id="feGaussianBlur4348" />
    </filter>
    <filter
       inkscape:collect="always"
       style="color-interpolation-filters:sRGB"
       id="filter4380"
       x="-0.070664921"
       width="1.1413298"
       y="-0.054710376"
       height="1.1094208">
      <feGaussianBlur
         inkscape:collect="always"
         stdDeviation="8.4801079"
         id="feGaussianBlur4382" />
    </filter>
    <filter
       inkscape:collect="always"
       style="color-interpolation-filters:sRGB"
       id="filter1169"
       x="-0.018999997"
       width="1.038"
       y="-0.032571436"
       height="1.0651429">
      <feGaussianBlur
         inkscape:collect="always"
         stdDeviation="0.15200007"
         id="feGaussianBlur1171" />
    </filter>
    <linearGradient
       gradientUnits="userSpaceOnUse"
       y2="295.6377"
       x2="-35.310345"
       y1="295.6377"
       x1="529.65515"
       id="linearGradient4226"
       xlink:href="#linearGradient4338-3"
       inkscape:collect="always"
       gradientTransform="matrix(0,-0.11988342,-0.11987999,0,67.065667,63.376841)" />
    <linearGradient
       inkscape:collect="always"
       id="linearGradient4338-3">
      <stop
         id="stop4342-7"
         offset="0"
         style="stop-color:#999999;stop-opacity:1" />
      <stop
         style="stop-color:#b7b7b7;stop-opacity:1"
         offset="0.61328125"
         id="stop932" />
      <stop
         id="stop4340-0"
         offset="1"
         style="stop-color:#dbdbdb;stop-opacity:1" />
    </linearGradient>
    <linearGradient
       inkscape:collect="always"
       xlink:href="#linearGradient928"
       id="linearGradient1157"
       x1="192"
       y1="68"
       x2="192"
       y2="212"
       gradientUnits="userSpaceOnUse"
       gradientTransform="matrix(0.26457031,0,0,0.26457031,-4.3569398,-5.4114399)" />
    <linearGradient
       inkscape:collect="always"
       id="linearGradient928">
      <stop
         style="stop-color:#808080;stop-opacity:1"
         offset="0"
         id="stop924" />
      <stop
         style="stop-color:#999999;stop-opacity:1"
         offset="1"
         id="stop926" />
    </linearGradient>
    <filter
       inkscape:collect="always"
       style="color-interpolation-filters:sRGB"
       id="filter1345"
       x="-0.023999999"
       width="1.048"
       y="-0.023999999"
       height="1.048">
      <feGaussianBlur
         inkscape:collect="always"
         stdDeviation="1.28"
         id="feGaussianBlur1347" />
    </filter>
  </defs>
  <path
     style="color:#000000;display:inline;overflow:visible;visibility:visible;opacity:0.1;fill:#000000;fill-opacity:1;fill-rule:nonzero;stroke:none;stroke-width:2;marker:none;filter:url(#filter4346);enable-background:accumulate"
     d="M 237.84323,90 C 167.24979,90 159.65402,97.250835 160,167.98706 V 286 384.01294 C 159.65402,454.74917 167.24979,462 237.84323,462 H 370.15677 C 440.75021,462 448,454.75001 448,384.01294 V 286 167.98706 C 448,97.249993 440.75021,90 370.15677,90 Z"
     id="rect4158-9"
     inkscape:connector-curvature="0"
     sodipodi:nodetypes="scccssscsss"
     transform="matrix(0.13228515,0,0,0.13228515,-4.3569398,-5.4114399)" />
  <path
     sodipodi:nodetypes="scccssscsss"
     inkscape:connector-curvature="0"
     id="path4350"
     d="M 237.84323,90 C 167.24979,90 159.65402,97.250835 160,167.98706 V 286 384.01294 C 159.65402,454.74917 167.24979,462 237.84323,462 H 370.15677 C 440.75021,462 448,454.75001 448,384.01294 V 286 167.98706 C 448,97.249993 440.75021,90 370.15677,90 Z"
     style="color:#000000;display:inline;overflow:visible;visibility:visible;opacity:0.1;fill:#000000;fill-opacity:1;fill-rule:nonzero;stroke:none;stroke-width:2;marker:none;filter:url(#filter4380);enable-background:accumulate"
     transform="matrix(0.13228515,0,0,0.13228515,-4.3569398,-5.4114399)" />
  <g
     id="g1143"
     transform="matrix(1.3228515,0,0,1.3228515,-118.38675,-327.39351)"
     style="display:inline;stroke-width:0.2;enable-background:new">
    <g
       id="g1109"
       style="display:inline;stroke:none;stroke-width:0.04;enable-background:new"
       transform="translate(-228,192)">
      <rect
         style="display:inline;opacity:0.2;fill:#000000;fill-opacity:1;stroke:none;stroke-width:0.2;stroke-linecap:round;stroke-linejoin:round;stroke-miterlimit:4;stroke-dasharray:none;stroke-dashoffset:1;stroke-opacity:0.4;filter:url(#filter1169);enable-background:new"
         id="rect1163"
         width="19.200012"
         height="11.200003"
         x="335"
         y="94.199997" />
      <rect
         y="97.400002"
         x="335"
         height="8"
         width="19.200001"
         id="rect941-5"
         style="display:inline;opacity:1;fill:#c0bfbc;fill-opacity:1;stroke:none;stroke-width:0.2;stroke-linecap:round;stroke-linejoin:round;stroke-miterlimit:4;stroke-dasharray:none;stroke-dashoffset:1;stroke-opacity:0.4;enable-background:new" />
      <rect
         style="opacity:1;fill:#f6f5f4;fill-opacity:1;stroke:none;stroke-width:0.2;stroke-linecap:round;stroke-linejoin:round;stroke-miterlimit:4;stroke-dasharray:none;stroke-dashoffset:1;stroke-opacity:0.4"
         id="rect951-3"
         width="19.200001"
         height="8.5999985"
         x="335"
         y="96.400002" />
      <rect
         style="opacity:1;fill:#9a9996;fill-opacity:1;stroke:none;stroke-width:0.2;stroke-linecap:round;stroke-linejoin:round;stroke-miterlimit:4;stroke-dasharray:none;stroke-dashoffset:1;stroke-opacity:0.4"
         id="rect943-5"
         width="4.799994"
         height="2.3999932"
         x="-342.19998"
         y="100.2"
         transform="scale(-1,1)" />
      <rect
         y="100.2"
         x="347"
         height="2.4000001"
         width="4.7999878"
         id="rect949-6"
         style="opacity:1;fill:#9a9996;fill-opacity:1;stroke:none;stroke-width:0.2;stroke-linecap:round;stroke-linejoin:round;stroke-miterlimit:4;stroke-dasharray:none;stroke-dashoffset:1;stroke-opacity:0.4" />
    </g>
  </g>
  <path
     style="color:#000000;display:inline;overflow:visible;visibility:visible;fill:url(#linearGradient4226);fill-opacity:1;fill-rule:nonzero;stroke:none;stroke-width:0.26457;marker:none;enable-background:accumulate"
     d="m 44.607876,6.2296537 c 9.338467,0 10.343273,0.959178 10.297505,10.3165313 v 15.61136 12.965657 c 0.04577,9.357354 -0.959038,10.31653 -10.297505,10.31653 H 27.104761 c -9.338464,0 -10.297505,-0.959067 -10.297505,-10.31653 V 32.157545 16.546185 c 0,-9.3574647 0.959041,-10.3165313 10.297505,-10.3165313 z"
     id="rect4158"
     inkscape:connector-curvature="0"
     sodipodi:nodetypes="scccssscsss" />
  <path
     sodipodi:nodetypes="cccccccsssccccccccsccsccccccccccccccccc"
     style="display:inline;opacity:0.2;fill:#ffffff;fill-opacity:1;stroke:none;stroke-width:0.26457;enable-background:new"
     d="m 35.858806,13.638681 -2.444175,4.232088 h 1.743476 v 20.044302 l -4.450157,-4.21142 c -0.287324,-0.358461 -0.489037,-0.827994 -0.500202,-1.310448 0,-1.95173 3.2e-5,-3.110966 -0.0011,-3.537596 0.82394,-0.289186 1.417932,-1.065981 1.417932,-1.989447 0,-1.168242 -0.947891,-2.115526 -2.116562,-2.115526 -1.169179,0 -2.116563,0.947199 -2.116563,2.115526 0,0.923466 0.594696,1.700261 1.417933,1.989447 l -0.0011,3.496254 c 0,0.94749 0.520177,1.940417 1.129588,2.572327 v 0.0011 c 0.01503,0.01339 4.720929,4.468757 4.720929,4.468757 0.2869,0.357699 0.487667,0.826264 0.49917,1.308385 v 3.719483 c -1.149317,0.315185 -1.946049,1.35988 -1.945988,2.551632 0,1.461182 1.184521,2.645703 2.645703,2.645703 1.461182,0 2.645703,-1.184521 2.645703,-2.645703 -0.0011,-1.191593 -0.79868,-2.235399 -1.948105,-2.54959 v -3.679178 c 0,-0.0061 2.64e-4,-0.01233 0,-0.01863 v -4.258963 c 0.01228,-0.481184 0.212963,-0.949987 0.500202,-1.307347 0,0 4.7057,-4.453936 4.720923,-4.467725 0.609332,-0.631911 1.129594,-1.6257 1.129594,-2.573359 l -0.0011,-3.369139 h 1.418964 v -4.233163 h -4.233125 v 4.233125 h 1.416896 c 0,0 -0.0011,0.88748 -0.0011,3.410481 -0.01106,0.482539 -0.212879,0.952156 -0.500202,1.310448 l -4.451189,4.212457 V 17.870748 h 1.746577 z"
     id="path1159"
     inkscape:connector-curvature="0" />
  <path
     inkscape:connector-curvature="0"
     id="path1334"
     d="m 35.858806,13.109541 -2.444175,4.232087 h 1.743476 V 37.38593 L 30.70795,33.174511 c -0.287324,-0.358461 -0.489037,-0.827994 -0.500202,-1.310449 0,-1.95173 3.2e-5,-3.110966 -0.0011,-3.537596 0.82394,-0.289186 1.417932,-1.06598 1.417932,-1.989447 0,-1.168242 -0.947891,-2.115525 -2.116562,-2.115525 -1.169179,0 -2.116563,0.947198 -2.116563,2.115525 0,0.923467 0.594696,1.700261 1.417933,1.989447 l -0.0011,3.496254 c 0,0.94749 0.520177,1.940417 1.129588,2.572327 v 0.0011 c 0.01503,0.01339 4.720929,4.468756 4.720929,4.468756 0.2869,0.357699 0.487667,0.826264 0.49917,1.308385 v 3.719483 c -1.149317,0.315185 -1.946049,1.359881 -1.945988,2.551633 0,1.461182 1.184521,2.645703 2.645703,2.645703 1.461182,0 2.645703,-1.184521 2.645703,-2.645703 -0.0011,-1.191593 -0.79868,-2.2354 -1.948105,-2.54959 v -3.679179 c 0,-0.0061 2.64e-4,-0.01233 0,-0.01863 v -4.258963 c 0.01228,-0.481185 0.212963,-0.949988 0.500202,-1.307348 0,0 4.7057,-4.453935 4.720923,-4.467725 0.609332,-0.63191 1.129594,-1.6257 1.129594,-2.573359 l -0.0011,-3.369139 h 1.418964 v -4.233125 h -4.233125 v 4.233125 h 1.416896 c 0,0 -0.0011,0.88748 -0.0011,3.410481 -0.01106,0.482539 -0.212879,0.952157 -0.500202,1.310448 l -4.451021,4.212421 V 17.341607 h 1.746577 z"
     style="display:inline;fill:url(#linearGradient1157);fill-opacity:1;stroke:none;stroke-width:0.26457;enable-background:new"
     sodipodi:nodetypes="cccccccsssccccccccsccsccccccccccccccccc" />
  <path
     style="color:#000000;display:inline;overflow:visible;visibility:visible;opacity:0.2;fill:#000000;fill-opacity:1;fill-rule:nonzero;stroke:none;stroke-width:0.26457;marker:none;enable-background:accumulate"
     d="m 16.808685,44.5939 v 0.52914 c -0.04577,9.357355 0.959107,10.316692 10.297574,10.316692 h 17.502977 c 9.338464,0 10.054627,-0.96238 10.297574,-10.316692 V 44.5939 C 54.663863,53.948211 53.9477,54.910591 44.609236,54.910591 H 27.106259 c -9.338467,0 -10.343342,-0.959337 -10.297574,-10.316691 z"
     id="path945"
     inkscape:connector-curvature="0"
     clip-path="none"
     sodipodi:nodetypes="ccssccssc" />
  <circle
     r="64"
     cy="95.010704"
     cx="90.921616"
     id="circle1327"
     style="display:inline;opacity:0.2;fill:#000000;fill-opacity:1;stroke:none;stroke-width:1;stroke-linecap:round;stroke-linejoin:round;stroke-miterlimit:4;stroke-dasharray:none;stroke-dashoffset:1;stroke-opacity:0.4;filter:url(#filter1345);enable-background:new"
     transform="matrix(0.26457031,0,0,0.26457031,-4.3569398,-5.4114399)" />
  <circle
     style="display:inline;fill:#5884f4;fill-opacity:1;stroke:none;stroke-width:0.26457;stroke-linecap:round;stroke-linejoin:round;stroke-miterlimit:4;stroke-dasharray:none;stroke-dashoffset:1;stroke-opacity:0.4;enable-background:new"
     id="path1173-9"
     cx="19.698221"
     cy="19.196432"
     r="16.932499" />
  <path
     style="color:#000000;display:inline;overflow:visible;visibility:visible;fill:#ffffff;fill-opacity:1;fill-rule:nonzero;stroke:none;stroke-width:0.264518;marker:none;enable-background:accumulate"
     d="m 16.523376,8.6136174 6.349689,-0.00283 v 7.4108006 l 2.406971,0.0013 c -0.984225,1.964514 -2.758138,5.412844 -5.581816,9.617771 -2.824259,-4.205596 -4.597517,-7.655826 -5.581817,-9.620514 l 2.406973,0.0014 z M 12.290251,27.66268 v 1.587422 H 27.10619 V 27.66268 Z"
     id="path1351"
     inkscape:connector-curvature="0"
     sodipodi:nodetypes="ccccccccccccc" />
</svg>
