<svg width="256" height="256" viewBox="0 0 67.73 67.73" xmlns="http://www.w3.org/2000/svg">
    <defs>
        <linearGradient id="d" x1="296" x2="296" y1="-212" y2="236" gradientUnits="userSpaceOnUse">
            <stop offset="0" stop-color="#fff"/>
            <stop offset=".125" stop-color="#fff" stop-opacity=".098"/>
            <stop offset=".925" stop-opacity=".098"/>
            <stop offset="1" stop-opacity=".498"/>
        </linearGradient>
        <clipPath id="c">
            <path d="M361.938-212C507.235-212 528-191.287 528-46.125v116.25C528 215.286 507.235 236 361.937 236H214.063C68.766 236 48 215.286 48 70.125v-116.25C48-191.287 68.765-212 214.063-212z" fill="#8c59d9"/>
        </clipPath>
        <filter id="b" x="-.01" y="-.01" width="1.023" height="1.025" color-interpolation-filters="sRGB">
            <feGaussianBlur stdDeviation="1.16"/>
        </filter>
        <filter id="a" x="-.02" y="-.03" width="1.046" height="1.05" color-interpolation-filters="sRGB">
            <feGaussianBlur stdDeviation="2.32"/>
        </filter>
    </defs>
    <path transform="matrix(.26458 0 0 .26458 0 3.404)" d="M162.537 5.568c72.648 0 83.031 10.357 83.031 82.938v58.124c0 72.581-10.383 82.938-83.031 82.938H88.599c-72.648 0-83.031-10.357-83.031-82.938V88.505c0-72.58 10.383-82.937 83.031-82.937z" filter="url(#a)" opacity=".2"/>
    <path transform="matrix(.26458 0 0 .26458 0 3.404)" d="M162.537 4.568c72.648 0 83.031 10.357 83.031 82.938v58.124c0 72.581-10.383 82.938-83.031 82.938H88.599c-72.648 0-83.031-10.357-83.031-82.938V87.505c0-72.58 10.383-82.937 83.031-82.937z" filter="url(#b)" opacity=".1"/>
    <path d="M42.832 4.348c19.222 0 21.969 2.74 21.969 21.944V41.67c0 19.204-2.747 21.944-21.97 21.944H23.27c-19.221 0-21.968-2.74-21.968-21.944V26.292C1.3 7.088 4.048 4.348 23.269 4.348z" fill="#121212"/>
    <path d="M1.473 33.981v7.69c0 19.203 2.747 21.943 21.969 21.943h19.563c19.221 0 21.968-2.74 21.968-21.944v-7.689z" fill="#fff" opacity=".2"/>
    <path transform="matrix(.1323 0 0 .1323 -4.877 32.393)" d="M361.938-212C507.235-212 528-191.287 528-46.125v116.25C528 215.286 507.235 236 361.937 236H214.063C68.766 236 48 215.286 48 70.125v-116.25C48-191.287 68.765-212 214.063-212z" clip-path="url(#c)" fill="none" opacity=".4" stroke-linecap="round" stroke-linejoin="round" stroke-width="8" stroke="url(#d)"/>
    <path d="M13.21 27.108l-3.972-6.874 7.94-.003z" fill="#20acd9"/>
    <path d="M13.208 27.108l3.97-6.876 3.97 6.876z" fill="#27a7d4"/>
    <path d="M17.18 33.985l-3.972-6.875 7.94-.002z" fill="#259ed2"/>
    <path d="M17.178 33.984l3.97-6.876 3.97 6.876z" fill="#2a8ece"/>
    <path d="M21.15 40.862l-3.972-6.875 7.94-.002z" fill="#3088c8"/>
    <path d="M21.147 40.861l3.97-6.876 3.97 6.876z" fill="#357abe"/>
    <path d="M25.12 47.738l-3.972-6.874 7.94-.003z" fill="#3a6db3"/>
    <path d="M25.117 47.738l3.97-6.876 3.97 6.876z" fill="#22697d"/>
    <path d="M33.059 47.738l-3.972-6.874 7.94-.003z" fill="#3a9ab1"/>
    <path d="M29.087 40.861l3.97-6.876 3.97 6.876z" fill="#3aa6ae"/>
    <path d="M37.029 40.86l-3.972-6.874 7.94-.002z" fill="#3bacac"/>
    <path d="M33.057 33.984l3.97-6.876 3.97 6.876z" fill="#3daaa0"/>
    <path d="M40.998 33.985l-3.971-6.875 7.94-.002z" fill="#3faa8d"/>
    <path d="M37.027 27.108l3.97-6.876 3.97 6.876z" fill="#40ab86"/>
    <path d="M37.044 40.854l-3.971-6.875 7.94-.002z" fill="#2f6b54"/>
    <path d="M33.073 33.976l3.97-6.876 3.97 6.876z" fill="#44b496"/>
    <path d="M41.014 33.977l-3.971-6.875 7.94-.002z" fill="#52b89b"/>
    <path d="M37.043 27.1l3.97-6.876 3.97 6.876z" fill="#5cba9d"/>
    <path d="M44.984 27.1l-3.971-6.874 7.94-.002z" fill="#6fc0a6"/>
    <path d="M44.953 27.108l3.97-6.876 3.97 6.876z" fill="#88c9b2"/>
    <path d="M52.892 27.1l-3.968-6.876h7.94z" fill="#99d0bb"/>
    <path d="M37.024 40.83l4.008-6.853 3.932 6.898z" fill="#37a084"/>
    <path d="M40.984 47.729l3.97-6.876 3.97 6.876z" fill="#35896c"/>
    <path d="M48.925 47.73l-3.971-6.875 7.94-.002z" fill="#379b7f"/>
    <path d="M48.924 47.728l3.97-6.876 3.97 6.876z" fill="#3bad91"/>
    <path d="M40.986 47.73l-3.972-6.875 7.94-.002z" fill="#368f74"/>
</svg>
