<?xml version="1.0" encoding="UTF-8" standalone="no"?>
<svg
   width="256"
   height="256"
   version="1.0"
   enable-background="new"
   id="svg49"
   sodipodi:docname="wine.svg"
   inkscape:version="1.1.2 (0a00cf5339, 2022-02-04)"
   xmlns:inkscape="http://www.inkscape.org/namespaces/inkscape"
   xmlns:sodipodi="http://sodipodi.sourceforge.net/DTD/sodipodi-0.dtd"
   xmlns:xlink="http://www.w3.org/1999/xlink"
   xmlns="http://www.w3.org/2000/svg"
   xmlns:svg="http://www.w3.org/2000/svg">
  <sodipodi:namedview
     id="namedview51"
     pagecolor="#ffffff"
     bordercolor="#666666"
     borderopacity="1.0"
     inkscape:pageshadow="2"
     inkscape:pageopacity="0.0"
     inkscape:pagecheckerboard="0"
     showgrid="false"
     inkscape:zoom="2.4804688"
     inkscape:cx="128"
     inkscape:cy="128"
     inkscape:window-width="1920"
     inkscape:window-height="1028"
     inkscape:window-x="0"
     inkscape:window-y="26"
     inkscape:window-maximized="1"
     inkscape:current-layer="svg49" />
  <defs
     id="defs35">
    <filter
       id="a"
       x="-0.023199999"
       y="-0.024857142"
       width="1.0464"
       height="1.0497143"
       color-interpolation-filters="sRGB">
      <feGaussianBlur
         stdDeviation="2.32"
         id="feGaussianBlur2" />
    </filter>
    <filter
       id="b"
       x="-0.0116"
       y="-0.012428571"
       width="1.0232"
       height="1.0248571"
       color-interpolation-filters="sRGB">
      <feGaussianBlur
         stdDeviation="1.16"
         id="feGaussianBlur5" />
    </filter>
    <linearGradient
       id="g"
       x1="296"
       x2="296"
       y1="-212"
       y2="236"
       gradientUnits="userSpaceOnUse">
      <stop
         offset="0"
         stop-color="#FFFEFE"
         id="stop8" />
      <stop
         offset=".125"
         stop-color="#FFFEFE"
         stop-opacity=".098"
         id="stop10" />
      <stop
         offset=".925"
         stop-opacity=".098"
         id="stop12" />
      <stop
         offset="1"
         stop-opacity=".498"
         id="stop14" />
    </linearGradient>
    <clipPath
       id="f">
      <path
         d="M361.938-212C507.235-212 528-191.287 528-46.125v116.25C528 215.286 507.235 236 361.937 236H214.063C68.766 236 48 215.286 48 70.125v-116.25C48-191.287 68.765-212 214.063-212z"
         fill="#9F4AC8"
         id="path17" />
    </clipPath>
    <radialGradient
       id="d"
       cx="34.115"
       cy="282.914"
       r="32.388"
       gradientTransform="matrix(4.8058 -3.43886 2.33514 3.34772 -697.352 -595.277)"
       gradientUnits="userSpaceOnUse">
      <stop
         offset="0"
         stop-color="#FE4068"
         id="stop20" />
      <stop
         offset=".5"
         stop-color="#FE4068"
         id="stop22" />
      <stop
         offset="1"
         stop-color="#FE4068"
         id="stop24" />
    </radialGradient>
    <filter
       id="e"
       x="-0.5991146"
       y="-0.10592225"
       width="2.1982292"
       height="1.2118445"
       color-interpolation-filters="sRGB">
      <feGaussianBlur
         stdDeviation="2.03"
         id="feGaussianBlur27" />
    </filter>
    <linearGradient
       id="c"
       x1="70.533"
       x2="39.067"
       y1="138.028"
       y2="98.522"
       gradientUnits="userSpaceOnUse">
      <stop
         offset="0"
         stop-color="#EEEDED"
         id="stop30" />
      <stop
         offset="1"
         stop-color="#EEEDED"
         id="stop32" />
    </linearGradient>
    <filter
       inkscape:collect="always"
       style="color-interpolation-filters:sRGB"
       id="filter58492"
       x="-0.011999856"
       width="1.0239997"
       y="-0.012000144"
       height="1.0240003">
      <feGaussianBlur
         inkscape:collect="always"
         stdDeviation="1.1200135"
         id="feGaussianBlur58494" />
    </filter>
    <filter
       inkscape:collect="always"
       style="color-interpolation-filters:sRGB"
       id="filter58449"
       x="-0.047999424"
       width="1.0959988"
       y="-0.048000576"
       height="1.0960012">
      <feGaussianBlur
         inkscape:collect="always"
         stdDeviation="4.4800539"
         id="feGaussianBlur58451" />
    </filter>
    <linearGradient
       inkscape:collect="always"
       xlink:href="#linearGradient956"
       id="linearGradient943"
       gradientUnits="userSpaceOnUse"
       gradientTransform="rotate(90,151.57938,128.97071)"
       x1="39.997601"
       y1="155.99699"
       x2="263.99759"
       y2="155.99699" />
    <linearGradient
       inkscape:collect="always"
       id="linearGradient956">
      <stop
         id="stop952"
         offset="0"
         style="stop-color:#e6e6e6;stop-opacity:1" />
      <stop
         id="stop954"
         offset="1"
         style="stop-color:#f7f7f7;stop-opacity:1" />
    </linearGradient>
    <linearGradient
       inkscape:collect="always"
       xlink:href="#linearGradient962"
       id="linearGradient964"
       x1="160"
       y1="136"
       x2="160"
       y2="268"
       gradientUnits="userSpaceOnUse"
       gradientTransform="translate(-27.446906,-26.611068)" />
    <linearGradient
       inkscape:collect="always"
       id="linearGradient962">
      <stop
         style="stop-color:#7b0619;stop-opacity:1;"
         offset="0"
         id="stop958" />
      <stop
         style="stop-color:#bb0212;stop-opacity:1"
         offset="1"
         id="stop960" />
    </linearGradient>
  </defs>
  <path
     style="color:#000000;display:inline;overflow:visible;visibility:visible;opacity:0.2;fill:#000000;fill-opacity:1;fill-rule:nonzero;stroke:#000000;stroke-width:4;stroke-miterlimit:4;stroke-dasharray:none;marker:none;enable-background:accumulate"
     d="m 197.62607,17.388622 c 35.29673,0 39.09461,3.62542 38.92162,38.99353 v 73.006468 73.00648 c 0.17299,35.36812 -3.62489,38.99353 -38.92162,38.99353 H 51.469312 c -35.29671,0 -38.92161,-3.625 -38.92161,-38.99353 V 129.38862 56.382152 c 0,-35.36853 3.6249,-38.99353 38.92161,-38.99353 z"
     id="rect4158-9"
     inkscape:connector-curvature="0"
     sodipodi:nodetypes="scccssscsss" />
  <path
     style="color:#000000;display:inline;overflow:visible;visibility:visible;opacity:0.1;fill:#000000;fill-opacity:1;fill-rule:nonzero;stroke:none;stroke-width:1;marker:none;filter:url(#filter58492);enable-background:accumulate"
     d="m 197.62607,18.388922 c 35.29673,0 39.09461,3.62542 38.92162,38.99353 v 73.006468 73.00648 c 0.17299,35.36812 -3.62489,38.99353 -38.92162,38.99353 H 51.469312 c -35.29671,0 -38.92161,-3.625 -38.92161,-38.99353 V 130.38892 57.382452 c 0,-35.36853 3.6249,-38.99353 38.92161,-38.99353 z"
     id="rect4158-7"
     inkscape:connector-curvature="0"
     sodipodi:nodetypes="scccssscsss" />
  <path
     style="color:#000000;display:inline;overflow:visible;visibility:visible;opacity:0.2;fill:#000000;fill-opacity:1;fill-rule:nonzero;stroke:none;stroke-width:1;marker:none;filter:url(#filter58449);enable-background:accumulate"
     d="m 197.62607,18.388922 c 35.29673,0 39.09461,3.62542 38.92162,38.99353 v 73.006468 73.00648 c 0.17299,35.36812 -3.62489,38.99353 -38.92162,38.99353 H 51.469312 c -35.29671,0 -38.92161,-3.625 -38.92161,-38.99353 V 130.38892 57.382452 c 0,-35.36853 3.6249,-38.99353 38.92161,-38.99353 z"
     id="rect4158-1"
     inkscape:connector-curvature="0"
     sodipodi:nodetypes="scccssscsss" />
  <path
     id="path938"
     style="color:#000000;display:inline;overflow:visible;visibility:visible;fill:url(#linearGradient943);fill-opacity:1;fill-rule:nonzero;stroke:none;stroke-width:1;marker:none;enable-background:accumulate"
     d="m 51.46325,17.388932 c -35.29671,0 -38.922359,3.625611 -38.921875,38.994141 l 0.02344,133.005857 H 236.5531 l -0.0117,-133.005857 c 0.17299,-35.36811 -3.62319,-38.994141 -38.91992,-38.994141 z"
     sodipodi:nodetypes="sscccss" />
  <path
     id="path948"
     style="color:#000000;display:inline;overflow:visible;visibility:visible;fill:url(#linearGradient964);fill-opacity:1;fill-rule:nonzero;stroke:none;stroke-width:1;marker:none;enable-background:accumulate"
     d="m 51.46325,241.38893 c -35.29671,0 -38.922359,-3.62561 -38.921875,-38.99414 l 0.01172,-73.00586 c 0,0 24,28 80,28 56.000005,0 88.000005,-48 116.000005,-48 28,0 27.98828,20 27.98828,20 v 73.00586 c 0.17299,35.36811 -3.62319,38.99414 -38.91992,38.99414 z"
     sodipodi:nodetypes="ssczzccss" />
  <path
     style="color:#000000;display:inline;overflow:visible;visibility:visible;opacity:0.15;fill:#ffffff;fill-opacity:1;fill-rule:nonzero;stroke:none;stroke-width:0.999998;marker:none;enable-background:accumulate"
     d="m 124.54768,241.38862 h 8.00001 65.00586 c 35.36853,0 38.99414,-3.62508 38.99414,-38.92094 V 56.31497 c 0,-35.295889 -3.62602,-39.093927 -38.99414,-38.920941 h -65.00586 -8.00001 z"
     id="rect4158-5"
     inkscape:connector-curvature="0"
     sodipodi:nodetypes="ccssscccc" />
  <path
     style="color:#000000;display:inline;overflow:visible;visibility:visible;opacity:0.3;fill:#ffffff;fill-opacity:1;fill-rule:nonzero;stroke:none;stroke-width:1;marker:none;enable-background:accumulate"
     d="m 51.474974,17.38863 c -35.296728,0 -39.09487,3.62603 -38.92188,38.99414 v 2 C 12.380104,23.01466 16.178246,19.38863 51.474974,19.38863 H 197.63122 c 35.29673,0 38.92188,3.62561 38.92188,38.99414 v -2 c 0,-35.36853 -3.62515,-38.99414 -38.92188,-38.99414 z"
     id="path931"
     inkscape:connector-curvature="0"
     sodipodi:nodetypes="sccsscsss" />
  <path
     style="color:#000000;display:inline;overflow:visible;visibility:visible;opacity:0.2;fill:#000000;fill-opacity:1;fill-rule:nonzero;stroke:none;stroke-width:1;marker:none;enable-background:accumulate"
     d="m 51.480374,241.38863 c -35.296731,0 -39.094875,-3.62603 -38.921885,-38.99414 v -2 c -0.17299,35.36811 3.625154,38.99414 38.921885,38.99414 H 197.63662 c 35.29673,0 38.92188,-3.62561 38.92188,-38.99414 v 2 c 0,35.36853 -3.62515,38.99414 -38.92188,38.99414 z"
     id="path931-8"
     inkscape:connector-curvature="0"
     sodipodi:nodetypes="sccsscsss" />
</svg>
