<?xml version="1.0" encoding="UTF-8" standalone="no"?>
<svg
   width="256"
   height="256"
   viewBox="0 0 67.73 67.73"
   version="1.1"
   id="svg72"
   sodipodi:docname="winetricks.svg"
   inkscape:version="1.1.2 (0a00cf5339, 2022-02-04)"
   xmlns:inkscape="http://www.inkscape.org/namespaces/inkscape"
   xmlns:sodipodi="http://sodipodi.sourceforge.net/DTD/sodipodi-0.dtd"
   xmlns:xlink="http://www.w3.org/1999/xlink"
   xmlns="http://www.w3.org/2000/svg"
   xmlns:svg="http://www.w3.org/2000/svg">
  <sodipodi:namedview
     id="namedview74"
     pagecolor="#ffffff"
     bordercolor="#666666"
     borderopacity="1.0"
     inkscape:pageshadow="2"
     inkscape:pageopacity="0.0"
     inkscape:pagecheckerboard="0"
     showgrid="false"
     inkscape:zoom="2.4804688"
     inkscape:cx="119.53386"
     inkscape:cy="149.97165"
     inkscape:window-width="1920"
     inkscape:window-height="1006"
     inkscape:window-x="0"
     inkscape:window-y="0"
     inkscape:window-maximized="1"
     inkscape:current-layer="svg72" />
  <defs
     id="defs44">
    <clipPath
       id="f">
      <path
         d="M361.938-212C507.235-212 528-191.287 528-46.125v116.25C528 215.286 507.235 236 361.937 236H214.063C68.766 236 48 215.286 48 70.125v-116.25C48-191.287 68.765-212 214.063-212z"
         fill="#9F4AC8"
         id="path2" />
    </clipPath>
    <filter
       id="b"
       x="-0.0116"
       y="-0.012428571"
       width="1.0232"
       height="1.0248571"
       color-interpolation-filters="sRGB">
      <feGaussianBlur
         stdDeviation="1.16"
         id="feGaussianBlur5" />
    </filter>
    <filter
       id="a"
       x="-0.023199999"
       y="-0.024857142"
       width="1.0464"
       height="1.0497143"
       color-interpolation-filters="sRGB">
      <feGaussianBlur
         stdDeviation="2.32"
         id="feGaussianBlur8" />
    </filter>
    <linearGradient
       id="g"
       x1="296"
       x2="296"
       y1="-212"
       y2="236"
       gradientUnits="userSpaceOnUse">
      <stop
         offset="0"
         stop-color="#FFFEFE"
         id="stop11" />
      <stop
         offset=".125"
         stop-color="#FFFEFE"
         stop-opacity=".098"
         id="stop13" />
      <stop
         offset=".925"
         stop-opacity=".098"
         id="stop15" />
      <stop
         offset="1"
         stop-opacity=".498"
         id="stop17" />
    </linearGradient>
    <radialGradient
       id="d"
       cx="34.115"
       cy="282.914"
       r="32.388"
       gradientTransform="matrix(1.29327 -.90987 .6284 .88575 -187.588 60.016)"
       gradientUnits="userSpaceOnUse">
      <stop
         offset="0"
         stop-color="#FE4068"
         id="stop20" />
      <stop
         offset=".5"
         stop-color="#FE4068"
         id="stop22" />
      <stop
         offset="1"
         stop-color="#FE4068"
         id="stop24" />
    </radialGradient>
    <filter
       id="e"
       x="-0.5991146"
       y="-0.10592225"
       width="2.1982292"
       height="1.2118445"
       color-interpolation-filters="sRGB">
      <feGaussianBlur
         stdDeviation="2.03"
         id="feGaussianBlur27" />
    </filter>
    <linearGradient
       id="c"
       x1="18.521"
       x2="15.875"
       y1="254.667"
       y2="244.083"
       gradientUnits="userSpaceOnUse">
      <stop
         offset="0"
         stop-color="#EEEDED"
         id="stop30" />
      <stop
         offset="1"
         stop-color="#EEEDED"
         id="stop32" />
    </linearGradient>
    <filter
       id="h"
       x="-0.37123826"
       y="-0.36256074"
       width="1.7424765"
       height="1.7251215"
       color-interpolation-filters="sRGB">
      <feGaussianBlur
         stdDeviation="1.032"
         id="feGaussianBlur35" />
    </filter>
    <filter
       id="i"
       x="-0.15604028"
       y="-0.15604027"
       width="1.3120806"
       height="1.3120805"
       color-interpolation-filters="sRGB">
      <feGaussianBlur
         stdDeviation="1.032"
         id="feGaussianBlur38" />
    </filter>
    <filter
       id="j"
       x="-0.28364825"
       y="-0.28217426"
       width="1.5672965"
       height="1.5643485"
       color-interpolation-filters="sRGB">
      <feGaussianBlur
         stdDeviation="1.032"
         id="feGaussianBlur41" />
    </filter>
    <filter
       inkscape:collect="always"
       style="color-interpolation-filters:sRGB"
       id="filter58492"
       x="-0.011999856"
       width="1.0239997"
       y="-0.012000144"
       height="1.0240003">
      <feGaussianBlur
         inkscape:collect="always"
         stdDeviation="1.1200135"
         id="feGaussianBlur58494" />
    </filter>
    <filter
       inkscape:collect="always"
       style="color-interpolation-filters:sRGB"
       id="filter58449"
       x="-0.047999425"
       width="1.0959989"
       y="-0.048000575"
       height="1.0960012">
      <feGaussianBlur
         inkscape:collect="always"
         stdDeviation="4.4800539"
         id="feGaussianBlur58451" />
    </filter>
    <linearGradient
       inkscape:collect="always"
       xlink:href="#linearGradient956"
       id="linearGradient943"
       gradientUnits="userSpaceOnUse"
       gradientTransform="matrix(0,0.26457031,-0.26457031,0,75.191219,-6.4536291)"
       x1="39.997601"
       y1="155.99699"
       x2="263.99759"
       y2="155.99699" />
    <linearGradient
       inkscape:collect="always"
       id="linearGradient956">
      <stop
         id="stop952"
         offset="0"
         style="stop-color:#e6e6e6;stop-opacity:1" />
      <stop
         id="stop954"
         offset="1"
         style="stop-color:#f7f7f7;stop-opacity:1" />
    </linearGradient>
    <linearGradient
       inkscape:collect="always"
       xlink:href="#linearGradient962"
       id="linearGradient964"
       x1="160"
       y1="166"
       x2="160"
       y2="268"
       gradientUnits="userSpaceOnUse"
       gradientTransform="matrix(0.26457031,0,0,0.26457031,-6.2956421,-7.5125451)" />
    <linearGradient
       inkscape:collect="always"
       id="linearGradient962">
      <stop
         style="stop-color:#7b0619;stop-opacity:1;"
         offset="0"
         id="stop958" />
      <stop
         style="stop-color:#bb0212;stop-opacity:1"
         offset="1"
         id="stop960" />
    </linearGradient>
    <linearGradient
       inkscape:collect="always"
       xlink:href="#linearGradient962"
       id="linearGradient2907"
       gradientUnits="userSpaceOnUse"
       x1="160"
       y1="166"
       x2="160"
       y2="268"
       gradientTransform="matrix(0.26457031,0,0,0.26457031,-6.2956427,-7.5125451)" />
    <linearGradient
       inkscape:collect="always"
       xlink:href="#linearGradient4481"
       id="linearGradient1432"
       gradientUnits="userSpaceOnUse"
       x1="235.99998"
       y1="166"
       x2="3.0001907"
       y2="166.40036"
       gradientTransform="translate(0.0117391,-104)" />
    <linearGradient
       id="linearGradient4481">
      <stop
         id="stop4483"
         offset="0"
         style="stop-color:#a40000;stop-opacity:1" />
      <stop
         style="stop-color:#f57900;stop-opacity:1"
         offset="0.15978512"
         id="stop4491" />
      <stop
         style="stop-color:#edd400;stop-opacity:1"
         offset="0.34338808"
         id="stop4489" />
      <stop
         id="stop4495"
         offset="0.5544045"
         style="stop-color:#73d216;stop-opacity:1" />
      <stop
         style="stop-color:#3465a4;stop-opacity:1"
         offset="1"
         id="stop4499" />
      <stop
         id="stop4485"
         offset="1"
         style="stop-color:#5c3566;stop-opacity:1" />
    </linearGradient>
    <linearGradient
       inkscape:collect="always"
       xlink:href="#linearGradient1540"
       id="linearGradient1542"
       x1="149.11337"
       y1="209.56998"
       x2="152.06709"
       y2="104.61821"
       gradientUnits="userSpaceOnUse" />
    <linearGradient
       inkscape:collect="always"
       id="linearGradient1540">
      <stop
         style="stop-color:#ededed;stop-opacity:1"
         offset="0"
         id="stop1536" />
      <stop
         style="stop-color:#ffffff;stop-opacity:0;"
         offset="1"
         id="stop1538" />
    </linearGradient>
    <linearGradient
       inkscape:collect="always"
       xlink:href="#linearGradient4387"
       id="linearGradient1457"
       gradientUnits="userSpaceOnUse"
       gradientTransform="matrix(3.9439007,2.2388432,-2.2770121,3.8777903,162.07043,31.577026)"
       x1="19.5"
       y1="28.5"
       x2="23.5"
       y2="28.5" />
    <linearGradient
       id="linearGradient4387"
       inkscape:collect="always">
      <stop
         id="stop4389"
         offset="0"
         style="stop-color:#2e3436;stop-opacity:1" />
      <stop
         id="stop4391"
         offset="1"
         style="stop-color:#000000;stop-opacity:1" />
    </linearGradient>
    <filter
       inkscape:collect="always"
       style="color-interpolation-filters:sRGB"
       id="filter1459"
       x="-0.020109891"
       width="1.040205"
       y="-0.013072511"
       height="1.0261453">
      <feGaussianBlur
         inkscape:collect="always"
         stdDeviation="0.65095879"
         id="feGaussianBlur1461" />
    </filter>
    <linearGradient
       inkscape:collect="always"
       xlink:href="#linearGradient4387"
       id="linearGradient1075"
       gradientUnits="userSpaceOnUse"
       gradientTransform="matrix(1.043439,0.59233144,-0.6024298,1.0259482,36.292156,0.36861557)"
       x1="9.6967573"
       y1="24.661448"
       x2="33.232052"
       y2="24.661448" />
    <linearGradient
       inkscape:collect="always"
       xlink:href="#linearGradient4387"
       id="linearGradient1077"
       gradientUnits="userSpaceOnUse"
       gradientTransform="matrix(1.043439,0.59233144,-0.6024298,1.0259482,36.292156,0.36861557)"
       x1="19.5"
       y1="28.5"
       x2="23.5"
       y2="28.5" />
  </defs>
  <path
     style="color:#000000;display:inline;overflow:visible;visibility:visible;opacity:0.2;fill:#000000;fill-opacity:1;fill-rule:nonzero;stroke:#000000;stroke-width:1.05828;stroke-miterlimit:4;stroke-dasharray:none;marker:none;enable-background:accumulate"
     d="m 53.251983,4.1284665 c 9.338467,0 10.343273,0.9591785 10.297505,10.3165305 v 19.315344 19.315347 c 0.04577,9.357355 -0.959038,10.316531 -10.297505,10.316531 H 14.583246 c -9.3384613,0 -10.2975023,-0.959068 -10.2975023,-10.316531 V 33.760341 14.444997 c 0,-9.3574631 0.959041,-10.3165305 10.2975023,-10.3165305 z"
     id="rect4158-9"
     inkscape:connector-curvature="0"
     sodipodi:nodetypes="scccssscsss" />
  <path
     style="color:#000000;display:inline;overflow:visible;visibility:visible;opacity:0.1;fill:#000000;fill-opacity:1;fill-rule:nonzero;stroke:none;stroke-width:1;marker:none;filter:url(#filter58492);enable-background:accumulate"
     d="m 225.07297,44.99999 c 35.29673,0 39.09461,3.62542 38.92162,38.99353 v 73.00647 73.00648 C 264.16758,265.37459 260.3697,269 225.07297,269 H 78.916218 c -35.29671,0 -38.92161,-3.625 -38.92161,-38.99353 V 156.99999 83.99352 c 0,-35.36853 3.6249,-38.99353 38.92161,-38.99353 z"
     id="rect4158-7"
     inkscape:connector-curvature="0"
     sodipodi:nodetypes="scccssscsss"
     transform="matrix(0.26457031,0,0,0.26457031,-6.2956421,-7.5125451)" />
  <path
     style="color:#000000;display:inline;overflow:visible;visibility:visible;opacity:0.2;fill:#000000;fill-opacity:1;fill-rule:nonzero;stroke:none;stroke-width:1;marker:none;filter:url(#filter58449);enable-background:accumulate"
     d="m 225.07297,44.99999 c 35.29673,0 39.09461,3.62542 38.92162,38.99353 v 73.00647 73.00648 C 264.16758,265.37459 260.3697,269 225.07297,269 H 78.916218 c -35.29671,0 -38.92161,-3.625 -38.92161,-38.99353 V 156.99999 83.99352 c 0,-35.36853 3.6249,-38.99353 38.92161,-38.99353 z"
     id="rect4158-1"
     inkscape:connector-curvature="0"
     sodipodi:nodetypes="scccssscsss"
     transform="matrix(0.26457031,0,0,0.26457031,-6.2956421,-7.5125451)" />
  <path
     id="path938"
     style="color:#000000;display:inline;overflow:visible;visibility:visible;fill:url(#linearGradient943);fill-opacity:1;fill-rule:nonzero;stroke:none;stroke-width:0.26457;marker:none;enable-background:accumulate"
     d="m 14.581642,4.1285485 c -9.3384612,0 -10.2977003,0.9592291 -10.2975722,10.3166925 l 0.0062,36.247682 H 63.55092 L 63.54782,14.445241 C 63.59359,5.0878887 62.589232,4.1285485 53.250765,4.1285485 Z"
     sodipodi:nodetypes="sscccss" />
  <path
     id="path948"
     style="color:#000000;display:inline;overflow:visible;visibility:visible;fill:url(#linearGradient964);fill-opacity:1;fill-rule:nonzero;stroke:none;stroke-width:0.26457;marker:none;enable-background:accumulate"
     d="m 14.581642,63.392298 c -9.3384612,0 -10.3001224,-0.959229 -10.2975722,-10.316692 l 0.0031,-11.378073 c 0,0 6.3496872,7.407968 21.1656242,7.407968 14.815937,0 23.282187,-12.699375 30.690156,-12.699375 7.407969,0 7.404868,5.291407 7.404868,5.291407 v 11.378073 c 0.04577,9.357352 -0.958589,10.316692 -10.297056,10.316692 z"
     sodipodi:nodetypes="ssczzccss" />
  <path
     id="path948-74"
     style="color:#000000;display:inline;overflow:visible;visibility:visible;fill:url(#linearGradient2907);fill-opacity:1;fill-rule:nonzero;stroke:none;stroke-width:0.26457;marker:none;enable-background:accumulate"
     d="m 14.581642,63.392298 c -9.3384617,0 -10.3001229,-0.959229 -10.2975727,-10.316692 l 0.0031,-11.378073 c 0,0 6.3496867,7.407968 21.1656247,7.407968 14.815937,0 23.282187,-12.699375 30.690156,-12.699375 7.407969,0 7.404868,5.291407 7.404868,5.291407 v 11.378073 c 0.04577,9.357352 -0.958589,10.316692 -10.297056,10.316692 z"
     sodipodi:nodetypes="ssczzccss" />
  <path
     style="color:#000000;display:inline;overflow:visible;visibility:visible;opacity:0.15;fill:#ffffff;fill-opacity:1;fill-rule:nonzero;stroke:none;stroke-width:0.26457;marker:none;enable-background:accumulate"
     d="m 33.936797,63.655434 h 2.116566 17.19862 c 9.357463,0 10.316692,-0.959088 10.316692,-10.297325 V 14.690442 c 0,-9.3382447 -0.959337,-10.3430928 -10.316692,-10.2973258 h -17.19862 -2.116566 z"
     id="rect4158-5"
     inkscape:connector-curvature="0"
     sodipodi:nodetypes="ccssscccc" />
  <g
     id="g2697"
     style="display:inline;enable-background:new"
     transform="matrix(0.26457031,0,0,0.26457031,-6.2956421,-7.5125451)">
    <path
       id="path948-7"
       style="color:#000000;display:inline;overflow:visible;visibility:visible;opacity:0.7;fill:url(#linearGradient1432);fill-opacity:1;fill-rule:nonzero;stroke:none;stroke-width:1;marker:none;enable-background:accumulate"
       d="m 236.01172,62 c -28,0 -60,48 -116,48 C 64.011717,110 40.011719,82 40.011719,82 L 40,165.00586 c -5.6e-5,0.3969 0.007,0.73605 0.0078,1.125 L 40,197.00586 c -1.08e-4,0.3969 0.007,0.73605 0.0078,1.125 L 40.011719,186 c 0,0 23.999999,28 80.000001,28 56,0 88,-48 116,-48 28,0 27.98828,20 27.98828,20 V 114 82 c 0,0 0.0117,-20 -27.98828,-20 z"
       sodipodi:nodetypes="sscsccccsscccs" />
    <path
       id="path948-7-6"
       style="color:#000000;display:inline;overflow:visible;visibility:visible;opacity:0.3;fill:url(#linearGradient1542);fill-opacity:1;fill-rule:nonzero;stroke:none;stroke-width:1;marker:none;enable-background:accumulate"
       d="m 236.01172,61.999993 c -28,0 -60,48.000007 -116,48.000007 C 64.011716,110 40.011718,81.999995 40.011718,81.999995 l -0.01172,83.005865 c -5.6e-5,0.3969 0.007,0.73605 0.0078,1.125 l -0.0078,30.875 c -1.08e-4,0.3969 0.007,0.73605 0.0078,1.125 L 40.011698,186 c 0,0 23.999999,28 80.000002,28 56,0 88,-48 116,-48 28,0 27.98828,20 27.98828,20 V 114 81.999995 c 0,0 0.0117,-20.000002 -27.98828,-20.000002 z"
       sodipodi:nodetypes="sscsccccsscccs" />
  </g>
  <path
     style="color:#000000;display:inline;overflow:visible;visibility:visible;opacity:0.3;fill:#ffffff;fill-opacity:1;fill-rule:nonzero;stroke:none;stroke-width:0.26457;marker:none;enable-background:accumulate"
     d="m 14.584744,4.1284686 c -9.3384661,0 -10.3433417,0.9593399 -10.2975737,10.3166924 v 0.52914 C 4.2414023,5.6169491 5.2462779,4.6576093 14.584744,4.6576093 h 38.668602 c 9.338466,0 10.297574,0.9592287 10.297574,10.3166917 v -0.52914 c 0,-9.3574636 -0.959108,-10.3166924 -10.297574,-10.3166924 z"
     id="path931"
     inkscape:connector-curvature="0"
     sodipodi:nodetypes="sccsscsss" />
  <path
     style="color:#000000;display:inline;overflow:visible;visibility:visible;opacity:0.2;fill:#000000;fill-opacity:1;fill-rule:nonzero;stroke:none;stroke-width:0.26457;marker:none;enable-background:accumulate"
     d="m 14.586173,63.392219 c -9.3384672,0 -10.3433434,-0.95934 -10.2975753,-10.316692 v -0.529141 c -0.045768,9.357352 0.9591081,10.316692 10.2975753,10.316692 h 38.668601 c 9.338467,0 10.297574,-0.959229 10.297574,-10.316692 v 0.529141 c 0,9.357463 -0.959107,10.316692 -10.297574,10.316692 z"
     id="path931-8"
     inkscape:connector-curvature="0"
     sodipodi:nodetypes="sccsscsss" />
  <path
     inkscape:connector-curvature="0"
     id="path1453"
     d="M 226.45294,96.562301 139.92648,243.91836 c -1.2576,2.14163 1.25445,5.8825 5.61079,8.35544 4.35629,2.47298 8.90721,2.74156 10.1648,0.59992 l 86.52646,-147.35604 z"
     style="display:inline;opacity:0.1;fill:#000000;fill-opacity:1;fill-rule:nonzero;stroke:url(#linearGradient1457);stroke-width:1;stroke-linejoin:round;filter:url(#filter1459);enable-background:new"
     transform="matrix(0.26457031,0,0,0.26457031,-6.2956421,-7.5125451)" />
  <path
     inkscape:connector-curvature="0"
     id="path1067"
     d="M 53.325856,17.56179 30.433524,56.547827 c -0.332723,0.566612 0.33189,1.556335 1.484449,2.210601 1.152545,0.654278 2.356583,0.725336 2.689304,0.158721 l 22.892332,-38.98603 z"
     style="display:inline;fill:url(#linearGradient1075);fill-opacity:1;fill-rule:nonzero;stroke:url(#linearGradient1077);stroke-width:0.26457;stroke-linejoin:round;enable-background:new" />
  <path
     sodipodi:nodetypes="cssscc"
     inkscape:connector-curvature="0"
     style="display:inline;fill:#eeeeec;fill-opacity:1;fill-rule:nonzero;stroke:#eeeeec;stroke-width:0.26457;stroke-linejoin:round;stroke-opacity:1;enable-background:new"
     d="m 53.325856,17.56179 -6.0243,10.259488 c -0.332721,0.566611 0.331893,1.556337 1.484449,2.210604 1.152545,0.654277 2.356599,0.725335 2.689309,0.158723 l 6.024295,-10.259489 z"
     id="path1069" />
  <ellipse
     id="ellipse1071"
     style="display:inline;fill:#d3d7cf;fill-opacity:1;fill-rule:nonzero;stroke:#d3d7cf;stroke-width:0.264584;stroke-opacity:1;enable-background:new"
     transform="matrix(0.86964681,0.49367442,-0.50635237,0.86232667,0,0)"
     cx="57.282341"
     cy="-11.054236"
     rx="2.3996847"
     ry="1.189744" />
</svg>
