<?xml version="1.0" encoding="UTF-8" standalone="no"?>
<svg
   width="32"
   height="32"
   version="1.1"
   viewBox="0 0 32 32"
   id="svg9"
   sodipodi:docname="stock_folder.svg"
   inkscape:version="1.1.2 (0a00cf5339, 2022-02-04)"
   xmlns:inkscape="http://www.inkscape.org/namespaces/inkscape"
   xmlns:sodipodi="http://sodipodi.sourceforge.net/DTD/sodipodi-0.dtd"
   xmlns:xlink="http://www.w3.org/1999/xlink"
   xmlns="http://www.w3.org/2000/svg"
   xmlns:svg="http://www.w3.org/2000/svg"
   xmlns:rdf="http://www.w3.org/1999/02/22-rdf-syntax-ns#"
   xmlns:cc="http://creativecommons.org/ns#"
   xmlns:dc="http://purl.org/dc/elements/1.1/">
  <metadata
     id="metadata13">
    <rdf:RDF>
      <cc:Work
         rdf:about="">
        <dc:format>image/svg+xml</dc:format>
        <dc:type
           rdf:resource="http://purl.org/dc/dcmitype/StillImage" />
      </cc:Work>
    </rdf:RDF>
  </metadata>
  <sodipodi:namedview
     pagecolor="#ffffff"
     bordercolor="#666666"
     borderopacity="1"
     objecttolerance="10"
     gridtolerance="10"
     guidetolerance="10"
     inkscape:pageopacity="0"
     inkscape:pageshadow="2"
     inkscape:window-width="1920"
     inkscape:window-height="1020"
     id="namedview11"
     showgrid="true"
     inkscape:zoom="11.64"
     inkscape:cx="6.9158076"
     inkscape:cy="28.135739"
     inkscape:window-x="0"
     inkscape:window-y="32"
     inkscape:window-maximized="1"
     inkscape:current-layer="svg9"
     inkscape:pagecheckerboard="0">
    <inkscape:grid
       type="xygrid"
       id="grid822" />
  </sodipodi:namedview>
  <defs
     id="defs3">
    <linearGradient
       inkscape:collect="always"
       id="linearGradient961">
      <stop
         style="stop-color:#000722;stop-opacity:1;"
         offset="0"
         id="stop957" />
      <stop
         style="stop-color:#000722;stop-opacity:0;"
         offset="1"
         id="stop959" />
    </linearGradient>
    <linearGradient
       inkscape:collect="always"
       id="linearGradient2749">
      <stop
         style="stop-color:#ec976a;stop-opacity:1;"
         offset="0"
         id="stop2745" />
      <stop
         style="stop-color:#ec976a;stop-opacity:0;"
         offset="1"
         id="stop2747" />
    </linearGradient>
    <style
       id="current-color-scheme"
       type="text/css">.ColorScheme-Text {
        color:#31363b;
        stop-color:#31363b;
      }
      .ColorScheme-Background {
        color:#eff0f1;
        stop-color:#eff0f1;
      }
      .ColorScheme-Highlight {
        color:#3daee9;
        stop-color:#3daee9;
      }
      .ColorScheme-ViewText {
        color:#31363b;
        stop-color:#31363b;
      }
      .ColorScheme-ViewBackground {
        color:#fcfcfc;
        stop-color:#fcfcfc;
      }
      .ColorScheme-ViewHover {
        color:#93cee9;
        stop-color:#93cee9;
      }
      .ColorScheme-ViewFocus{
        color:#3daee9;
        stop-color:#3daee9;
      }
      .ColorScheme-ButtonText {
        color:#31363b;
        stop-color:#31363b;
      }
      .ColorScheme-ButtonBackground {
        color:#eff0f1;
        stop-color:#eff0f1;
      }
      .ColorScheme-ButtonHover {
        color:#93cee9;
        stop-color:#93cee9;
      }
      .ColorScheme-ButtonFocus{
        color:#3daee9;
        stop-color:#3daee9;
      }</style>
    <linearGradient
       inkscape:collect="always"
       id="linearGradient4906">
      <stop
         style="stop-color:#686868;stop-opacity:1"
         offset="0"
         id="stop4902" />
      <stop
         style="stop-color:#767676;stop-opacity:1"
         offset="0.70652163"
         id="stop8749" />
      <stop
         style="stop-color:#7d7d7d;stop-opacity:1"
         offset="0.70652163"
         id="stop8619" />
      <stop
         style="stop-color:#7f7f7f;stop-opacity:1"
         offset="1"
         id="stop4904" />
    </linearGradient>
    <linearGradient
       inkscape:collect="always"
       xlink:href="#linearGradient4906"
       id="linearGradient1147"
       x1="56"
       y1="17"
       x2="81"
       y2="42"
       gradientUnits="userSpaceOnUse"
       gradientTransform="matrix(0.94604657,0,0,0.94604657,-45.600934,-7.9748853)" />
    <linearGradient
       inkscape:collect="always"
       xlink:href="#linearGradient2749"
       id="linearGradient2751"
       x1="125.73547"
       y1="20"
       x2="50.315636"
       y2="20"
       gradientUnits="userSpaceOnUse"
       gradientTransform="matrix(0.94604657,0,0,0.94604657,-45.600934,-7.9748853)" />
    <linearGradient
       inkscape:collect="always"
       xlink:href="#linearGradient961"
       id="linearGradient963"
       x1="-75"
       y1="13.635619"
       x2="30"
       y2="13.635619"
       gradientUnits="userSpaceOnUse" />
  </defs>
  <path
     id="path1675"
     style="fill:none;fill-opacity:1;stroke-width:1.6;stroke-linecap:round;stroke-linejoin:round;stroke:#000000;stroke-opacity:0.27556235;stroke-miterlimit:4;stroke-dasharray:none"
     d="M 4.5625 3.0488281 C 2.6612548 3.0488281 1.1308594 4.5792225 1.1308594 6.4804688 L 1.1308594 8.2675781 L 1.1308594 13.433594 L 1.1308594 20.791016 L 1.1308594 25.957031 C 1.1308594 27.858276 2.6612539 29.388672 4.5625 29.388672 L 12.990234 29.388672 L 26.980469 29.388672 C 27.336329 29.388672 27.679668 29.334007 28.001953 29.234375 C 28.432277 29.101119 28.827359 28.886664 29.166016 28.607422 C 29.335379 28.467766 29.491202 28.311942 29.630859 28.142578 C 29.90974 27.80436 30.124518 27.410142 30.257812 26.980469 C 30.257812 26.980469 30.257812 26.978516 30.257812 26.978516 C 30.357453 26.656238 30.412109 26.312892 30.412109 25.957031 L 30.412109 20.791016 L 30.412109 13.433594 L 30.412109 11.646484 L 30.412109 8.2675781 C 30.412109 6.366332 28.881714 4.8339844 26.980469 4.8339844 L 14.019531 4.8339844 L 12.232422 3.0488281 L 4.5625 3.0488281 z " />
  <path
     id="path1390"
     style="fill:currentColor;stroke-width:1.51367;stroke-linecap:round;stroke-linejoin:round"
     d="m 12.232259,3.0480274 1.786771,1.7867707 h 12.961394 c 1.901245,0 3.431266,1.5318689 3.431266,3.433115 V 20.791943 c 0,1.901246 -1.530021,3.431267 -3.431266,3.431267 H 18.552849 4.5617064 c -0.3558601,0 -0.6995191,-0.05373 -1.0218041,-0.153363 C 3.1095779,23.936592 2.7144777,23.720854 2.3758214,23.441613 2.2064582,23.301956 2.0516945,23.147193 1.9120372,22.977828 1.6331559,22.63961 1.4170978,22.245269 1.2838036,21.815595 c -1.75e-4,-5.64e-4 1.741e-4,-0.0013 0,-0.0019 C 1.1841641,21.491463 1.13044,21.147804 1.13044,20.791943 V 8.2679131 6.4811415 c 0,-1.9012462 1.5300212,-3.4331141 3.4312664,-3.4331141 z"
     class="ColorScheme-Highlight" />
  <path
     id="path847"
     style="fill:url(#linearGradient963);fill-opacity:1;stroke-width:1.51367;stroke-linecap:round;stroke-linejoin:round"
     d="m 12.232259,3.0480274 1.786771,1.7867707 h 12.961394 c 1.901245,0 3.431266,1.5318689 3.431266,3.433115 V 20.791943 c 0,1.901246 -1.530021,3.431267 -3.431266,3.431267 H 18.552849 4.5617064 c -0.3558601,0 -0.6995191,-0.05373 -1.0218041,-0.153363 C 3.1095779,23.936592 2.7144777,23.720854 2.3758214,23.441613 2.2064582,23.301956 2.0516945,23.147193 1.9120372,22.977828 1.6331559,22.63961 1.4170978,22.245269 1.2838036,21.815595 c -1.75e-4,-5.64e-4 1.741e-4,-0.0013 0,-0.0019 C 1.1841641,21.491463 1.13044,21.147804 1.13044,20.791943 V 8.2679131 6.4811415 c 0,-1.9012462 1.5300212,-3.4331141 3.4312664,-3.4331141 z" />
  <path
     id="path2303"
     style="fill:url(#linearGradient2751);fill-opacity:1;stroke-width:1.51367;stroke-linecap:round;stroke-linejoin:round"
     d="m 12.232259,3.0480274 1.786771,1.7867707 h 12.961394 c 1.901245,0 3.431266,1.5318689 3.431266,3.433115 V 20.791943 c 0,1.901246 -1.530021,3.431267 -3.431266,3.431267 H 18.552849 4.5617064 c -0.3558601,0 -0.6995191,-0.05373 -1.0218041,-0.153363 C 3.1095779,23.936592 2.7144777,23.720854 2.3758214,23.441613 2.2064582,23.301956 2.0516945,23.147193 1.9120372,22.977828 1.6331559,22.63961 1.4170978,22.245269 1.2838036,21.815595 c -1.75e-4,-5.64e-4 1.741e-4,-0.0013 0,-0.0019 C 1.1841641,21.491463 1.13044,21.147804 1.13044,20.791943 V 8.2679131 6.4811415 c 0,-1.9012462 1.5300212,-3.4331141 3.4312664,-3.4331141 z" />
  <path
     id="rect886"
     style="fill:url(#linearGradient1147);fill-opacity:1;stroke-width:1.51367;stroke-linecap:round;stroke-linejoin:round"
     d="M 15.786771,8.2132288 14,10 H 4.5617064 C 2.6604603,10 1.13044,11.531868 1.13044,13.433115 v 12.52403 c 0,1.901245 1.5300203,3.431266 3.4312664,3.431266 h 8.4275746 13.991143 c 0.35586,0 0.699519,-0.05373 1.021804,-0.153362 0.430324,-0.133256 0.825424,-0.348993 1.164081,-0.628235 0.169363,-0.139656 0.324127,-0.29442 0.463784,-0.463784 0.278881,-0.338218 0.494939,-0.73256 0.628233,-1.162233 1.75e-4,-5.64e-4 -1.74e-4,-0.0013 0,-0.0019 0.09964,-0.322278 0.153364,-0.665936 0.153364,-1.021797 V 13.433115 11.646343 c 0,-1.9012463 -1.530021,-3.4331142 -3.431266,-3.4331142 z" />
  <path
     id="path3190"
     style="fill:#ffffff;fill-opacity:0.35430682;stroke-width:1.51367;stroke-linecap:round;stroke-linejoin:round"
     d="m 4.5617074,3.0487748 c -1.9012462,0 -3.4312674,1.5318679 -3.4312674,3.433114 l 0,1.3967147 c 0,-1.9012461 1.5300212,-3.433114 3.4312674,-3.433114 h 7.2283856 l 1.786772,1.7867716 h 13.403559 c 1.901245,0 3.431266,2.2996069 3.431266,4.2008529 l 0,-2.1480056 c 0,-1.9012461 -1.530021,-3.449562 -3.431266,-3.449562 H 14.018477 L 12.231705,3.0487748 Z"
     sodipodi:nodetypes="sscsccscssccs" />
  <path
     id="path2871"
     style="fill:#ffffff;fill-opacity:0.31301036;stroke-width:1.51367;stroke-linecap:round;stroke-linejoin:round"
     d="M 15.786771,8.2132278 14,10 H 4.5617074 C 2.6604603,10 1.13044,11.531867 1.13044,13.433114 l 0,1.353657 c 0,-1.901246 1.5300203,-3.433114 3.4312674,-3.433114 H 14.641168 l 1.786771,-1.786771 h 10.552485 c 1.901245,0 3.431266,1.531867 3.431266,3.433114 l 0,-1.353658 c 0,-1.9012462 -1.530021,-3.4331142 -3.431266,-3.4331142 z"
     sodipodi:nodetypes="ccsscsccscssc" />
  <path
     id="path1552"
     style="fill:none;stroke-width:1.51367;stroke-linecap:round;stroke-linejoin:round"
     d="m 4.5617074,3.0487748 c -1.9012462,0 -3.4312674,1.5318679 -3.4312674,3.433114 v 1.7867717 5.1644535 7.359577 5.164454 c 0,1.901244 1.5300203,3.431266 3.4312674,3.431266 h 8.4275746 13.991142 c 0.35586,0 0.699519,-0.05373 1.021804,-0.153363 0.430324,-0.133256 0.825424,-0.348992 1.164081,-0.628234 0.169363,-0.139656 0.324127,-0.294421 0.463784,-0.463785 0.278881,-0.338218 0.49494,-0.732559 0.628234,-1.162232 0,0 0,-0.0019 0,-0.0019 0.09964,-0.322278 0.153363,-0.665936 0.153363,-1.021797 V 20.792691 13.433114 11.646342 8.2686605 c 0,-1.9012461 -1.530021,-3.4331141 -3.431266,-3.4331141 H 14.018477 L 12.231705,3.0487748 Z" />
    <g transform="translate(8 12)">
            <path d="M8 2a6 6 0 1 0 0 12A6 6 0 0 0 8 2zm0 1c.173 0 .332.014.5.031.04.004.085-.005.125 0 .053.007.104.023.156.031.144.023.267.06.406.094.257.064.511.149.75.25.132.056.25.121.376.188v.031c.028.013.044.067.093.094.018.01.015.022.031.031.03.016.069.034.063.063-.008.04-.066.031-.094.062.004.058-.047.055-.062.094.009.025.058.032.062.062-.005.032-.074.03-.062.063.054.042.105.01.156 0 .112-.014.212-.006.281-.063-.009-.053.1-.045.094-.093.029.02.065.04.094.062-.011.01-.02.026-.031.031a.53.53 0 0 0-.063.032l-.094.062c-.023.016-.07.094-.094.094-.028 0-.072-.038-.093-.032-.03.01-.029.051-.063.063-.066.024-.196-.037-.219.063.029.057.138.03.188.062a.31.31 0 0 1 .094.125.59.59 0 0 1 0 .188c-.031.08-.127.063-.219.062h-.063c-.154-.01-.305-.08-.374.031.004.085.019.145 0 .219-.014.054-.097.11-.094.156 0 .024.056.06.062.094.004.018-.008.045 0 .063.026.049.08-.01.125 0 .044.01.094.075.094.125a.26.26 0 0 1-.031.125c-.044.066-.125.057-.188.093-.052.03-.062.105-.094.157-.032.056-.075.076-.062.156a.365.365 0 0 1-.188.187c-.027.012-.068.014-.093.032-.02.014-.035.061-.063.093-.035.04-.075.064-.094.094-.014.023-.016.062-.03.094-.023.042-.067.051-.095.093-.012.02-.017.068-.03.094-.033.058-.07.106-.063.157.005.048.06.05.062.093.003.024-.032.036-.031.063.001.038.028.063.031.093.007.074-.048.106-.062.157-.007.024.006.042 0 .062-.012.037-.062.081-.063.125 0 .031.06.05.063.094.002.029-.037.066-.031.094.01.054.114.114.156.156.057.057.131.096.156.156.021.051.024.15.063.188.028.028.088.032.124.062.035.027.057.033.094.063.061.048.153.163.25.156.051-.01.1-.053.156-.063.06-.01.128-.036.188-.03.046.01.108.034.156.03.05-.01.1-.006.156-.03.1-.044.263-.115.407-.095.11.017.11.139.187.188.088.01.149-.017.219 0 .053.013.12.083.125.125.005.043-.057.098-.063.125-.013.058.01.12 0 .156-.007.03-.032.065-.03.094 0 .026.035.09.062.125.033.042.085.08.125.125.073.084.105.17.156.281.013.028-.012.058 0 .094-.022.168-.078.283-.188.469-.051.06-.126.112-.124.187-.004.18.101.295.093.469-.018.234.018.25 0 .375.08.04.023.167 0 .25-.034.099-.075.121-.094.188.054.023.129.013.188 0l-.094.093a5.203 5.203 0 0 1-.75.625 4.94 4.94 0 0 1-1.719.75A4.985 4.985 0 0 1 8 13c-.19 0-.378-.01-.563-.031-.146-.017-.294-.034-.437-.063-.283-.058-.549-.177-.813-.281-.009-.017-.033-.042-.03-.063.051-.021.149.075.187 0 .019-.034-.025-.12 0-.156.018-.024.119-.024.156-.031.053-.01.126-.017.156-.031.033-.021.069-.095.063-.156-.003-.03-.04-.037-.063-.063-.019-.022.013-.041 0-.063-.024-.034-.084-.042-.093-.093.071-.014.177.06.28.031.05-.014.134-.11.157-.156.007-.014-.008-.045 0-.063.009-.018.028-.052.031-.062.007-.027-.006-.013 0-.031.018-.052.064-.09.094-.126.023-.027.073-.064.094-.093.024-.031.015-.035.031-.063.015-.09-.053-.17-.031-.25.024-.09.163-.146.25-.187.03-.014.069-.022.093-.031.06-.022.132-.043.188-.063.094-.034.11-.102.156-.188.022-.04.059-.095.063-.124.004-.027-.005-.032 0-.063.005-.029-.008-.06 0-.094.01-.043.031-.14.031-.187 0-.04-.03-.058-.031-.094-.007-.13.046-.117.093-.188.024-.034.046-.1.063-.124.081-.12.229-.162.219-.344-.004-.06-.05-.2-.094-.219-.025-.011-.057-.018-.094-.031-.118-.044-.22-.178-.344-.188H7.75c-.048 0-.102-.024-.156-.031-.034-.01-.105.01-.125 0-.031-.015-.038-.077-.063-.094-.02-.014-.063-.02-.093-.031-.05-.018-.069-.059-.125-.063-.018 0-.043.01-.063 0-.031-.01-.065-.013-.094-.03-.036-.023-.079-.032-.093-.063.033-.108-.072-.125-.094-.188-.01-.029.01-.099 0-.125-.013-.037-.053-.063-.094-.094a.374.374 0 0 0-.219-.093c-.046-.01-.101.01-.156 0a.356.356 0 0 1-.188-.094c-.042-.049-.056-.102-.093-.125-.035-.022-.07-.04-.094-.063-.011-.01-.021-.008-.031-.03-.018-.038-.054-.05-.032-.095-.04-.02-.019.039-.062.032-.039-.055-.068-.11-.156-.094-.04.01-.078.093-.125.094-.04 0-.074-.086-.125-.094-.04-.01-.098.036-.125.031-.043-.01-.055-.036-.094-.062-.029-.02-.078-.064-.094-.063-.05 0-.087.1-.156.063-.034-.043.071-.054.031-.094-.03-.029-.038.017-.062.031-.028.018-.063.02-.094.032-.069.026-.134.033-.188.062a.185.185 0 0 0-.093.094c-.023.042-.059.123-.094.125-.042 0-.056-.046-.094-.063-.115-.05-.186.03-.281.032-.088 0-.223-.136-.219-.22.003-.05.026-.124.031-.187.005-.05.062-.11.063-.156.001-.062-.116-.087-.156-.094-.094-.017-.206.042-.313 0-.02-.034.02-.06.031-.093.007-.018-.006-.042 0-.063.012-.032.08-.06.094-.094.011-.026-.01-.06 0-.093.013-.036.06-.068.063-.094.004-.034-.036-.072-.063-.094-.083.01-.14.007-.187.031-.108.05-.079.185-.188.219a.914.914 0 0 1-.125.031c-.018.01-.042-.002-.062 0 .002-.01-.002-.02 0-.031.004-.023.026-.04.031-.063A4.91 4.91 0 0 1 3.438 6h.03c.039.01.062.06.095.063.091.01.111-.085.187-.125.078.01.117-.01.188 0 .048.01.118.058.156.062.032 0 .032-.035.062-.031.03.01.089.058.094.093.005.045-.044.107-.031.157.047.048.152.066.218.093.044-.037.007-.104 0-.156 0-.023.003-.072 0-.093-.004-.036-.03-.063-.03-.094 0-.143.122-.194.218-.25.041-.024.089-.076.125-.094.051-.025.083-.007.125-.031.076-.043.129-.108.188-.157.027-.065-.003-.154 0-.218.027-.017.064 0 .093 0 .046-.01.068-.068.094-.094.015-.015.044-.016.063-.031.045-.036.053-.078.093-.094a.26.26 0 0 1 .063-.031c.03-.01.077-.014.125-.032.03-.01.113-.018.125-.03.015-.016-.004-.072 0-.095.024-.112.18-.118.281-.156.07-.026.14-.107.219-.093-.015.054-.076.06-.063.125.017.09.125-.019.157-.032.06-.026.17-.063.25-.093.07-.026.19-.045.125-.125-.055-.01-.078.042-.125.062-.034.01-.035-.028-.063-.031-.027 0-.035.036-.063.031-.027-.01-.058-.06-.062-.094-.011-.084.06-.094.094-.156-.023-.076-.124-.032-.188-.063a.113.113 0 0 1 .094-.093c.043-.01.162.008.188.031.015.013-.023.042 0 .063.026.022.06.01.093 0 .012-.058-.072-.026-.062-.063.068-.044.198-.02.281-.031a.68.68 0 0 0 .156-.063c.04-.023.052-.069.094-.031.012.041-.008.072-.031.094-.077.068-.159.14-.219.218.037.036.094.025.156.032.024.01.069-.005.094 0 .03.01.07-.01.094 0 .042.01.052.093.093.093.068 0 .04-.08 0-.125.012-.046.049-.091.032-.125-.031-.062-.15.019-.157-.062-.003-.05.045-.056.063-.094-.008-.096.072-.1.063-.187-.005-.036-.038-.029-.063-.063-.013-.018-.016-.08-.031-.094-.052-.043-.15-.009-.157-.093-.002-.05.007-.103 0-.156-.006-.052-.05-.21-.093-.22-.056-.011-.09.094-.157.126a.376.376 0 0 1-.156.031c-.024-.01-.06-.015-.062-.063-.004-.042.047-.06.062-.093.004-.008-.002-.02 0-.031.073-.02.145-.046.219-.063.042-.01.083-.023.125-.031.03-.006.064.005.094 0A5.008 5.008 0 0 1 8 3zm-2.031.469c-.032.182-.203.255-.407.25-.045.044-.006.126-.03.187-.022.051-.106.098-.157.094-.037 0-.094-.059-.094-.094 0-.043.069-.044.032-.094.001-.01.02-.02.03-.03.021-.013.043-.02.063-.032.181-.112.367-.193.563-.281zm4.187.187c-.018.01-.015.022-.031.031-.038.024-.065.052-.094.063-.04.015-.087.026-.094.063-.004.03.033.033.032.062-.015.037-.023.049-.031.094.05.083.155-.018.218-.031.028-.01.048-.008.063-.032.017-.027.018-.055.031-.094.014-.041.068-.056.063-.093-.004-.037-.095-.068-.157-.063zm-5.469.625c.048.038.115.12.032.157a.516.516 0 0 1-.157.03c-.01 0-.022-.023-.03-.03.05-.05.102-.109.155-.157zm.188.188c.024 0 .034.06.063.062.027 0 .046-.035.062-.031.042.011.071.094.031.125-.033.01-.038-.035-.062-.031-.068.012-.106.16-.157.156-.048-.01-.08-.121-.03-.156 0-.03-.003-.032 0-.063.014-.018.053-.065.093-.062zm-.25.031c.014 0 .026-.01.031 0-.007.053-.021.069-.062.094-.071.043-.133.096-.157.187-.006.027-.09.1-.125.094-.078-.017.045-.165.063-.188.02-.025.04-.033.063-.062.022-.028.04-.078.062-.094a.246.246 0 0 1 .125-.031zm6.781.156c.08-.01.12.078.156.125.03.04.108.098.157.125.028.015.063.049.094.063.064.029.184.123.187.187.001.032-.036.064-.031.094.049.01.093-.076.094-.125.091.13.17.268.25.406.037.066.09.12.124.188-.044.013-.055.02-.062.062-.01.056.021.147-.063.157-.052.01-.114-.046-.187-.063-.03-.01-.07.01-.094 0-.055-.018-.046-.092-.094-.125a.501.501 0 0 0-.156-.063c-.027 0-.034.01-.062 0-.034-.01-.097.014-.125 0a.321.321 0 0 1-.094-.093c-.011-.037.092-.063.094-.094.002-.024-.026-.057-.031-.094-.004-.022.004-.047 0-.062-.008-.026-.053-.03-.094-.032h-.094c-.044 0-.133-.003-.188 0-.032 0-.062-.003-.093 0-.087.01-.151-.01-.219 0a.628.628 0 0 0-.188.063l-.062.031a.411.411 0 0 1-.063.032c-.027.013-.066.054-.093.062-.04.01-.086-.01-.156 0-.051 0-.124-.033-.126-.094 0-.093.163-.045.25-.062.034-.01.054-.039.094-.063.02-.01.014-.019.031-.031.03-.021.09-.07.094-.094.004-.022-.003-.045 0-.062.004-.021.036-.035.063-.063.042-.042.073-.098.125-.125.035-.018.078-.033.094-.062.003-.032-.002-.033 0-.063A.13.13 0 0 1 11 4.75c.054-.012.093.003.156 0 .027 0 .065.013.094 0 .024-.016.039-.05.063-.063a.247.247 0 0 1 .093-.03zm.563.594h-.125c-.044 0-.1-.023-.125 0 .037.06.104.079.187.094a.193.193 0 0 0 .063-.094zm-6.844-.563h.094c.025 0 .052-.01.062 0-.016.066-.167.056-.218.032.002-.025.03-.028.062-.032zm-.219.125c-.043.032-.087.073-.156.094-.038.012-.087.011-.094-.031-.008-.052.06-.026.094-.031.044-.01.105-.03.156-.032zm6.5 0c-.033.011-.049.084 0 .094.023-.014.038-.05.031-.093-.012-.014-.02-.01-.03 0zm-.062.157c0 .056.01.107 0 .156.032.062.109.01.125-.031.019-.104-.015-.138-.063-.125-.016.01-.045-.013-.062 0zM3.063 7.312c.056.051.088.123.156.157a.47.47 0 0 0 .094.031c.026.01.037-.008.062 0 .053.018.114.043.156.063.064.027.133.124.188.156.002.032-.01.07 0 .093.026.035.051.07.094.094.05.028.077.072.124.094.017.01.037-.01.063 0 .066.02.1.11.156.094.037-.011.026-.058.032-.094.025-.027.054-.063.093-.063.062 0 .071.096.094.157.013.034.054.058.063.094a.943.943 0 0 1 0 .28c-.017.047-.088.044-.125.095-.018.023-.018.076-.032.093-.024.03-.044.035-.062.063a.45.45 0 0 0-.032.062c-.03.064-.087.11-.062.188.01.03.063.056.063.094 0 .043-.087.076-.094.124-.005.036.02.079.031.126.008.034.073.07.094.093.035.04.062.107.093.156.063.098.095.218.157.313.033.049.103.073.125.125.01.026-.01.07 0 .094.036.08.2.179.281.219.038.018.09.01.125.03.053.03.16.11.188.157.023.042.019.152.03.219.016.088-.003.155 0 .25.003.052.032.073.032.125 0 .018.001.075 0 .094-.001.061.005.124 0 .187a.592.592 0 0 0 0 .094c.003.03.03.034.031.062.002.03-.034.071-.031.094.007.063.05.098.063.156.01.046.037.164.03.219-.003.029-.026.06-.03.094-.003.026.003.038 0 .062-.003.023.005.044 0 .063-.032-.02-.063-.042-.094-.063a5.203 5.203 0 0 1-.75-.625c-.03-.03-.064-.062-.094-.094a5.2 5.2 0 0 1-.5-.624c-.014-.02-.018-.043-.031-.063a4.824 4.824 0 0 1-.438-.813c-.009-.02-.022-.04-.031-.062a5.018 5.018 0 0 1-.281-.969A5.008 5.008 0 0 1 3 8c0-.238.03-.459.063-.688zM5 7.845c.048-.022.039.055 0 .062-.037.01-.036-.044 0-.062z" fill="#bcbcb2" color="#bcbcb2"/>

    </g>
</svg>
