<?xml version="1.0" encoding="UTF-8" standalone="no"?>
<svg
   width="32"
   height="32"
   version="1.1"
   viewBox="0 0 32 32"
   id="svg9"
   sodipodi:docname="stock_folder.svg"
   inkscape:version="1.1.2 (0a00cf5339, 2022-02-04)"
   xmlns:inkscape="http://www.inkscape.org/namespaces/inkscape"
   xmlns:sodipodi="http://sodipodi.sourceforge.net/DTD/sodipodi-0.dtd"
   xmlns:xlink="http://www.w3.org/1999/xlink"
   xmlns="http://www.w3.org/2000/svg"
   xmlns:svg="http://www.w3.org/2000/svg"
   xmlns:rdf="http://www.w3.org/1999/02/22-rdf-syntax-ns#"
   xmlns:cc="http://creativecommons.org/ns#"
   xmlns:dc="http://purl.org/dc/elements/1.1/">
  <metadata
     id="metadata13">
    <rdf:RDF>
      <cc:Work
         rdf:about="">
        <dc:format>image/svg+xml</dc:format>
        <dc:type
           rdf:resource="http://purl.org/dc/dcmitype/StillImage" />
      </cc:Work>
    </rdf:RDF>
  </metadata>
  <sodipodi:namedview
     pagecolor="#ffffff"
     bordercolor="#666666"
     borderopacity="1"
     objecttolerance="10"
     gridtolerance="10"
     guidetolerance="10"
     inkscape:pageopacity="0"
     inkscape:pageshadow="2"
     inkscape:window-width="1920"
     inkscape:window-height="1020"
     id="namedview11"
     showgrid="true"
     inkscape:zoom="11.64"
     inkscape:cx="6.9158076"
     inkscape:cy="28.135739"
     inkscape:window-x="0"
     inkscape:window-y="32"
     inkscape:window-maximized="1"
     inkscape:current-layer="svg9"
     inkscape:pagecheckerboard="0">
    <inkscape:grid
       type="xygrid"
       id="grid822" />
  </sodipodi:namedview>
  <defs
     id="defs3">
    <linearGradient
       inkscape:collect="always"
       id="linearGradient961">
      <stop
         style="stop-color:#000722;stop-opacity:1;"
         offset="0"
         id="stop957" />
      <stop
         style="stop-color:#000722;stop-opacity:0;"
         offset="1"
         id="stop959" />
    </linearGradient>
    <linearGradient
       inkscape:collect="always"
       id="linearGradient2749">
      <stop
         style="stop-color:#ec976a;stop-opacity:1;"
         offset="0"
         id="stop2745" />
      <stop
         style="stop-color:#ec976a;stop-opacity:0;"
         offset="1"
         id="stop2747" />
    </linearGradient>
    <style
       id="current-color-scheme"
       type="text/css">.ColorScheme-Text {
        color:#31363b;
        stop-color:#31363b;
      }
      .ColorScheme-Background {
        color:#eff0f1;
        stop-color:#eff0f1;
      }
      .ColorScheme-Highlight {
        color:#3daee9;
        stop-color:#3daee9;
      }
      .ColorScheme-ViewText {
        color:#31363b;
        stop-color:#31363b;
      }
      .ColorScheme-ViewBackground {
        color:#fcfcfc;
        stop-color:#fcfcfc;
      }
      .ColorScheme-ViewHover {
        color:#93cee9;
        stop-color:#93cee9;
      }
      .ColorScheme-ViewFocus{
        color:#3daee9;
        stop-color:#3daee9;
      }
      .ColorScheme-ButtonText {
        color:#31363b;
        stop-color:#31363b;
      }
      .ColorScheme-ButtonBackground {
        color:#eff0f1;
        stop-color:#eff0f1;
      }
      .ColorScheme-ButtonHover {
        color:#93cee9;
        stop-color:#93cee9;
      }
      .ColorScheme-ButtonFocus{
        color:#3daee9;
        stop-color:#3daee9;
      }</style>
    <linearGradient
       inkscape:collect="always"
       id="linearGradient4906">
      <stop
         style="stop-color:#686868;stop-opacity:1"
         offset="0"
         id="stop4902" />
      <stop
         style="stop-color:#767676;stop-opacity:1"
         offset="0.70652163"
         id="stop8749" />
      <stop
         style="stop-color:#7d7d7d;stop-opacity:1"
         offset="0.70652163"
         id="stop8619" />
      <stop
         style="stop-color:#7f7f7f;stop-opacity:1"
         offset="1"
         id="stop4904" />
    </linearGradient>
    <linearGradient
       inkscape:collect="always"
       xlink:href="#linearGradient4906"
       id="linearGradient1147"
       x1="56"
       y1="17"
       x2="81"
       y2="42"
       gradientUnits="userSpaceOnUse"
       gradientTransform="matrix(0.94604657,0,0,0.94604657,-45.600934,-7.9748853)" />
    <linearGradient
       inkscape:collect="always"
       xlink:href="#linearGradient2749"
       id="linearGradient2751"
       x1="125.73547"
       y1="20"
       x2="50.315636"
       y2="20"
       gradientUnits="userSpaceOnUse"
       gradientTransform="matrix(0.94604657,0,0,0.94604657,-45.600934,-7.9748853)" />
    <linearGradient
       inkscape:collect="always"
       xlink:href="#linearGradient961"
       id="linearGradient963"
       x1="-75"
       y1="13.635619"
       x2="30"
       y2="13.635619"
       gradientUnits="userSpaceOnUse" />
  </defs>
  <path
     id="path1675"
     style="fill:none;fill-opacity:1;stroke-width:1.6;stroke-linecap:round;stroke-linejoin:round;stroke:#000000;stroke-opacity:0.27556235;stroke-miterlimit:4;stroke-dasharray:none"
     d="M 4.5625 3.0488281 C 2.6612548 3.0488281 1.1308594 4.5792225 1.1308594 6.4804688 L 1.1308594 8.2675781 L 1.1308594 13.433594 L 1.1308594 20.791016 L 1.1308594 25.957031 C 1.1308594 27.858276 2.6612539 29.388672 4.5625 29.388672 L 12.990234 29.388672 L 26.980469 29.388672 C 27.336329 29.388672 27.679668 29.334007 28.001953 29.234375 C 28.432277 29.101119 28.827359 28.886664 29.166016 28.607422 C 29.335379 28.467766 29.491202 28.311942 29.630859 28.142578 C 29.90974 27.80436 30.124518 27.410142 30.257812 26.980469 C 30.257812 26.980469 30.257812 26.978516 30.257812 26.978516 C 30.357453 26.656238 30.412109 26.312892 30.412109 25.957031 L 30.412109 20.791016 L 30.412109 13.433594 L 30.412109 11.646484 L 30.412109 8.2675781 C 30.412109 6.366332 28.881714 4.8339844 26.980469 4.8339844 L 14.019531 4.8339844 L 12.232422 3.0488281 L 4.5625 3.0488281 z " />
  <path
     id="path1390"
     style="fill:currentColor;stroke-width:1.51367;stroke-linecap:round;stroke-linejoin:round"
     d="m 12.232259,3.0480274 1.786771,1.7867707 h 12.961394 c 1.901245,0 3.431266,1.5318689 3.431266,3.433115 V 20.791943 c 0,1.901246 -1.530021,3.431267 -3.431266,3.431267 H 18.552849 4.5617064 c -0.3558601,0 -0.6995191,-0.05373 -1.0218041,-0.153363 C 3.1095779,23.936592 2.7144777,23.720854 2.3758214,23.441613 2.2064582,23.301956 2.0516945,23.147193 1.9120372,22.977828 1.6331559,22.63961 1.4170978,22.245269 1.2838036,21.815595 c -1.75e-4,-5.64e-4 1.741e-4,-0.0013 0,-0.0019 C 1.1841641,21.491463 1.13044,21.147804 1.13044,20.791943 V 8.2679131 6.4811415 c 0,-1.9012462 1.5300212,-3.4331141 3.4312664,-3.4331141 z"
     class="ColorScheme-Highlight" />
  <path
     id="path847"
     style="fill:url(#linearGradient963);fill-opacity:1;stroke-width:1.51367;stroke-linecap:round;stroke-linejoin:round"
     d="m 12.232259,3.0480274 1.786771,1.7867707 h 12.961394 c 1.901245,0 3.431266,1.5318689 3.431266,3.433115 V 20.791943 c 0,1.901246 -1.530021,3.431267 -3.431266,3.431267 H 18.552849 4.5617064 c -0.3558601,0 -0.6995191,-0.05373 -1.0218041,-0.153363 C 3.1095779,23.936592 2.7144777,23.720854 2.3758214,23.441613 2.2064582,23.301956 2.0516945,23.147193 1.9120372,22.977828 1.6331559,22.63961 1.4170978,22.245269 1.2838036,21.815595 c -1.75e-4,-5.64e-4 1.741e-4,-0.0013 0,-0.0019 C 1.1841641,21.491463 1.13044,21.147804 1.13044,20.791943 V 8.2679131 6.4811415 c 0,-1.9012462 1.5300212,-3.4331141 3.4312664,-3.4331141 z" />
  <path
     id="path2303"
     style="fill:url(#linearGradient2751);fill-opacity:1;stroke-width:1.51367;stroke-linecap:round;stroke-linejoin:round"
     d="m 12.232259,3.0480274 1.786771,1.7867707 h 12.961394 c 1.901245,0 3.431266,1.5318689 3.431266,3.433115 V 20.791943 c 0,1.901246 -1.530021,3.431267 -3.431266,3.431267 H 18.552849 4.5617064 c -0.3558601,0 -0.6995191,-0.05373 -1.0218041,-0.153363 C 3.1095779,23.936592 2.7144777,23.720854 2.3758214,23.441613 2.2064582,23.301956 2.0516945,23.147193 1.9120372,22.977828 1.6331559,22.63961 1.4170978,22.245269 1.2838036,21.815595 c -1.75e-4,-5.64e-4 1.741e-4,-0.0013 0,-0.0019 C 1.1841641,21.491463 1.13044,21.147804 1.13044,20.791943 V 8.2679131 6.4811415 c 0,-1.9012462 1.5300212,-3.4331141 3.4312664,-3.4331141 z" />
  <path
     id="rect886"
     style="fill:url(#linearGradient1147);fill-opacity:1;stroke-width:1.51367;stroke-linecap:round;stroke-linejoin:round"
     d="M 15.786771,8.2132288 14,10 H 4.5617064 C 2.6604603,10 1.13044,11.531868 1.13044,13.433115 v 12.52403 c 0,1.901245 1.5300203,3.431266 3.4312664,3.431266 h 8.4275746 13.991143 c 0.35586,0 0.699519,-0.05373 1.021804,-0.153362 0.430324,-0.133256 0.825424,-0.348993 1.164081,-0.628235 0.169363,-0.139656 0.324127,-0.29442 0.463784,-0.463784 0.278881,-0.338218 0.494939,-0.73256 0.628233,-1.162233 1.75e-4,-5.64e-4 -1.74e-4,-0.0013 0,-0.0019 0.09964,-0.322278 0.153364,-0.665936 0.153364,-1.021797 V 13.433115 11.646343 c 0,-1.9012463 -1.530021,-3.4331142 -3.431266,-3.4331142 z" />
  <path
     id="path3190"
     style="fill:#ffffff;fill-opacity:0.35430682;stroke-width:1.51367;stroke-linecap:round;stroke-linejoin:round"
     d="m 4.5617074,3.0487748 c -1.9012462,0 -3.4312674,1.5318679 -3.4312674,3.433114 l 0,1.3967147 c 0,-1.9012461 1.5300212,-3.433114 3.4312674,-3.433114 h 7.2283856 l 1.786772,1.7867716 h 13.403559 c 1.901245,0 3.431266,2.2996069 3.431266,4.2008529 l 0,-2.1480056 c 0,-1.9012461 -1.530021,-3.449562 -3.431266,-3.449562 H 14.018477 L 12.231705,3.0487748 Z"
     sodipodi:nodetypes="sscsccscssccs" />
  <path
     id="path2871"
     style="fill:#ffffff;fill-opacity:0.31301036;stroke-width:1.51367;stroke-linecap:round;stroke-linejoin:round"
     d="M 15.786771,8.2132278 14,10 H 4.5617074 C 2.6604603,10 1.13044,11.531867 1.13044,13.433114 l 0,1.353657 c 0,-1.901246 1.5300203,-3.433114 3.4312674,-3.433114 H 14.641168 l 1.786771,-1.786771 h 10.552485 c 1.901245,0 3.431266,1.531867 3.431266,3.433114 l 0,-1.353658 c 0,-1.9012462 -1.530021,-3.4331142 -3.431266,-3.4331142 z"
     sodipodi:nodetypes="ccsscsccscssc" />
  <path
     id="path1552"
     style="fill:none;stroke-width:1.51367;stroke-linecap:round;stroke-linejoin:round"
     d="m 4.5617074,3.0487748 c -1.9012462,0 -3.4312674,1.5318679 -3.4312674,3.433114 v 1.7867717 5.1644535 7.359577 5.164454 c 0,1.901244 1.5300203,3.431266 3.4312674,3.431266 h 8.4275746 13.991142 c 0.35586,0 0.699519,-0.05373 1.021804,-0.153363 0.430324,-0.133256 0.825424,-0.348992 1.164081,-0.628234 0.169363,-0.139656 0.324127,-0.294421 0.463784,-0.463785 0.278881,-0.338218 0.49494,-0.732559 0.628234,-1.162232 0,0 0,-0.0019 0,-0.0019 0.09964,-0.322278 0.153363,-0.665936 0.153363,-1.021797 V 20.792691 13.433114 11.646342 8.2686605 c 0,-1.9012461 -1.530021,-3.4331141 -3.431266,-3.4331141 H 14.018477 L 12.231705,3.0487748 Z" />
    <g transform="translate(8 12)">
            <path d="M7 2v8h2V2H7zm0 10v2h2v-2H7z" fill="#da4453"/>

    </g>
</svg>
