<?xml version="1.0" encoding="UTF-8" standalone="no"?>
<svg
   width="48"
   height="48"
   version="1.1"
   viewBox="0 0 48 48"
   id="svg9"
   sodipodi:docname="stock_folder.svg"
   inkscape:version="1.1.2 (0a00cf5339, 2022-02-04)"
   xmlns:inkscape="http://www.inkscape.org/namespaces/inkscape"
   xmlns:sodipodi="http://sodipodi.sourceforge.net/DTD/sodipodi-0.dtd"
   xmlns:xlink="http://www.w3.org/1999/xlink"
   xmlns="http://www.w3.org/2000/svg"
   xmlns:svg="http://www.w3.org/2000/svg"
   xmlns:rdf="http://www.w3.org/1999/02/22-rdf-syntax-ns#"
   xmlns:cc="http://creativecommons.org/ns#"
   xmlns:dc="http://purl.org/dc/elements/1.1/">
  <metadata
     id="metadata13">
    <rdf:RDF>
      <cc:Work
         rdf:about="">
        <dc:format>image/svg+xml</dc:format>
        <dc:type
           rdf:resource="http://purl.org/dc/dcmitype/StillImage" />
      </cc:Work>
    </rdf:RDF>
  </metadata>
  <sodipodi:namedview
     pagecolor="#ffffff"
     bordercolor="#666666"
     borderopacity="1"
     objecttolerance="10"
     gridtolerance="10"
     guidetolerance="10"
     inkscape:pageopacity="0"
     inkscape:pageshadow="2"
     inkscape:window-width="1920"
     inkscape:window-height="1020"
     id="namedview11"
     showgrid="true"
     inkscape:zoom="11.64"
     inkscape:cx="34.407215"
     inkscape:cy="34.321305"
     inkscape:window-x="0"
     inkscape:window-y="32"
     inkscape:window-maximized="1"
     inkscape:current-layer="svg9"
     inkscape:pagecheckerboard="0">
    <inkscape:grid
       type="xygrid"
       id="grid822" />
  </sodipodi:namedview>
  <defs
     id="defs3">
    <linearGradient
       inkscape:collect="always"
       id="linearGradient4122">
      <stop
         style="stop-color:#000000;stop-opacity:0.07909377"
         offset="0"
         id="stop4118" />
      <stop
         style="stop-color:#000000;stop-opacity:0;"
         offset="1"
         id="stop4120" />
    </linearGradient>
    <linearGradient
       inkscape:collect="always"
       id="linearGradient1450">
      <stop
         style="stop-color:#1d1f7f;stop-opacity:1;"
         offset="0"
         id="stop1446" />
      <stop
         style="stop-color:#1d1f7f;stop-opacity:0;"
         offset="1"
         id="stop1448" />
    </linearGradient>
    <style
       id="current-color-scheme"
       type="text/css">.ColorScheme-Text {
        color:#31363b;
        stop-color:#31363b;
      }
      .ColorScheme-Background {
        color:#eff0f1;
        stop-color:#eff0f1;
      }
      .ColorScheme-Highlight {
        color:#3daee9;
        stop-color:#3daee9;
      }
      .ColorScheme-ViewText {
        color:#31363b;
        stop-color:#31363b;
      }
      .ColorScheme-ViewBackground {
        color:#fcfcfc;
        stop-color:#fcfcfc;
      }
      .ColorScheme-ViewHover {
        color:#93cee9;
        stop-color:#93cee9;
      }
      .ColorScheme-ViewFocus{
        color:#3daee9;
        stop-color:#3daee9;
      }
      .ColorScheme-ButtonText {
        color:#31363b;
        stop-color:#31363b;
      }
      .ColorScheme-ButtonBackground {
        color:#eff0f1;
        stop-color:#eff0f1;
      }
      .ColorScheme-ButtonHover {
        color:#93cee9;
        stop-color:#93cee9;
      }
      .ColorScheme-ButtonFocus{
        color:#3daee9;
        stop-color:#3daee9;
      }</style>
    <linearGradient
       inkscape:collect="always"
       xlink:href="#linearGradient23491"
       id="linearGradient23493"
       x1="468.39737"
       y1="75.014999"
       x2="269.45798"
       y2="75.014999"
       gradientUnits="userSpaceOnUse"
       gradientTransform="matrix(0.1928515,0,0,0.1928515,-45.428898,5.2984037)" />
    <linearGradient
       inkscape:collect="always"
       id="linearGradient23491">
      <stop
         style="stop-color:#dd905a;stop-opacity:0.26666668"
         offset="0"
         id="stop23487" />
      <stop
         style="stop-color:#971400;stop-opacity:0;"
         offset="1"
         id="stop23489" />
    </linearGradient>
    <linearGradient
       inkscape:collect="always"
       xlink:href="#linearGradient23938"
       id="linearGradient23940"
       x1="340.8002"
       y1="247.97968"
       x2="340.8002"
       y2="20.230062"
       gradientUnits="userSpaceOnUse"
       gradientTransform="matrix(0.1928515,0,0,0.1928515,-45.428898,5.2984037)" />
    <linearGradient
       inkscape:collect="always"
       id="linearGradient23938">
      <stop
         style="stop-color:#283063;stop-opacity:1;"
         offset="0"
         id="stop23934" />
      <stop
         style="stop-color:#283063;stop-opacity:0;"
         offset="1"
         id="stop23936" />
    </linearGradient>
    <linearGradient
       inkscape:collect="always"
       xlink:href="#linearGradient4906"
       id="linearGradient8553"
       gradientUnits="userSpaceOnUse"
       x1="307.27316"
       y1="62.331623"
       x2="469.9902"
       y2="227.97437"
       gradientTransform="matrix(0.1928515,0,0,0.1928515,-45.428898,5.2984037)" />
    <linearGradient
       inkscape:collect="always"
       id="linearGradient4906">
      <stop
         style="stop-color:#686868;stop-opacity:1"
         offset="0"
         id="stop4902" />
      <stop
         style="stop-color:#767676;stop-opacity:1"
         offset="0.70652163"
         id="stop8749" />
      <stop
         style="stop-color:#7d7d7d;stop-opacity:1"
         offset="0.70652163"
         id="stop8619" />
      <stop
         style="stop-color:#7f7f7f;stop-opacity:1"
         offset="1"
         id="stop4904" />
    </linearGradient>
    <linearGradient
       inkscape:collect="always"
       xlink:href="#linearGradient1450"
       id="linearGradient1452"
       x1="-347.64877"
       y1="125.82983"
       x2="215"
       y2="125.82983"
       gradientUnits="userSpaceOnUse"
       gradientTransform="matrix(0.1928515,0,0,0.1928515,-0.82106675,-2.1873952)" />
    <linearGradient
       inkscape:collect="always"
       xlink:href="#linearGradient4122"
       id="linearGradient4124"
       x1="29"
       y1="47"
       x2="10"
       y2="6"
       gradientUnits="userSpaceOnUse" />
  </defs>
  <g
     id="g3733"
     style="opacity:0.47906581">
    <path
       id="path3282"
       style="fill:#000000;fill-opacity:0.08142198;stroke-width:0.322895;stroke-linecap:round;stroke-linejoin:round"
       d="m 5.9502154,3.3964508 c -2.3128283,0 -4.1755829,1.8627548 -4.1755829,4.175583 v 9.3873972 17.515783 6.151985 c 0,0.137361 0.0076,0.272838 0.020439,0.406725 6.199e-4,0.007 0.00125,0.01553 0.00204,0.02249 0.01421,0.140553 0.035669,0.278901 0.063359,0.414902 0.387819,1.90595 2.0658824,3.331473 4.0897414,3.331473 H 42.631167 c 1.15641,0 2.200775,-0.465644 2.955406,-1.220177 0.660266,-0.660266 1.098278,-1.541401 1.197695,-2.526198 0.01416,-0.140556 0.02249,-0.282743 0.02249,-0.427164 V 34.475214 13.791466 10.739999 c -8e-6,-2.3128283 -1.862761,-4.1755826 -4.17559,-4.1755826 H 23 L 19.913788,3.3964508 Z" />
    <path
       id="path3461"
       style="fill:#000000;fill-opacity:0.08142198;stroke-width:0.324454;stroke-linecap:round;stroke-linejoin:round"
       d="m 6.0455189,4.0335462 c -2.3352227,0 -4.2160138,1.8627548 -4.2160138,4.175583 v 9.3873978 17.515783 6.151985 c 0,0.137361 0.00767,0.272838 0.020637,0.406725 6.26e-4,0.007 0.00126,0.01553 0.00206,0.02249 0.014348,0.140553 0.036015,0.278901 0.063973,0.414902 0.3915742,1.90595 2.0858857,3.331473 4.1293411,3.331473 H 43.081639 c 1.167607,0 2.222084,-0.465644 2.984022,-1.220177 0.666659,-0.660266 1.108913,-1.541401 1.209292,-2.526198 0.01429,-0.140556 0.02271,-0.282743 0.02271,-0.427164 V 35.11231 14.428562 11.377095 c -5e-6,-2.3128289 -1.880794,-4.1755832 -4.216018,-4.1755832 H 23.260391 L 20.144297,4.0335462 Z" />
    <path
       id="path3463"
       style="fill:url(#linearGradient4124);fill-opacity:1;stroke-width:0.332006;stroke-linecap:round;stroke-linejoin:round"
       d="m 5.7624157,3.8105853 c -2.3812119,0 -4.2990426,1.9128151 -4.2990426,4.2877992 v 9.6396785 17.986509 6.317316 c 0,0.141053 0.00781,0.280171 0.021043,0.417655 6.383e-4,0.0072 0.00128,0.01595 0.0021,0.02309 0.014631,0.14433 0.036724,0.286396 0.065233,0.426052 0.3992857,1.957171 2.1269643,3.421004 4.2106629,3.421004 h 37.7655 c 1.190602,0 2.265846,-0.478158 3.042788,-1.252968 0.679788,-0.67801 1.130753,-1.582826 1.233108,-2.594088 0.01457,-0.144334 0.02316,-0.290341 0.02316,-0.438644 v -6.31942 -21.239611 -3.133473 c -5e-6,-2.3749853 -1.917834,-4.2878 -4.299047,-4.2878 H 23.316311 L 20.13885,3.8105853 Z" />
  </g>
  <g
     id="g3423"
     transform="translate(0.36784375,-0.9189836)">
    <path
       id="path21815"
       style="fill:currentColor;stroke-width:0.192851"
       d="m 19.740183,5.2347781 2.949272,3.026867 h 18.760116 c 2.210166,0 3.989614,1.7794489 3.989614,3.9896139 v 22.682488 c 0,0.131264 -0.0074,0.260777 -0.0196,0.388717 -4.56e-4,0.0067 -3.88e-4,0.01368 -0.0014,0.02033 -1.4e-5,1.22e-4 9e-6,1.91e-4 0,3.82e-4 -0.01358,0.134314 -0.03382,0.266662 -0.06027,0.39663 -0.370604,1.821345 -1.974612,3.183554 -3.908634,3.183554 H 6.3965397 c -1.1050834,0 -2.1023342,-0.444734 -2.8234672,-1.165771 C 2.9421141,37.126625 2.5226405,36.283876 2.4276403,35.342795 2.4140797,35.208482 2.4069284,35.072127 2.4069284,34.934117 V 9.2240097 c 0,-2.2101649 1.7794499,-3.9892408 3.9896148,-3.9892408 z"
       class="ColorScheme-Highlight" />
    <path
       id="path1300"
       style="fill:url(#linearGradient1452);fill-opacity:1;stroke-width:0.308562;stroke-linecap:round;stroke-linejoin:round"
       d="m 19.740183,5.2347781 2.949272,3.026867 h 18.760116 c 2.210166,0 3.989614,1.7794489 3.989614,3.9896139 v 22.682488 c 0,0.131264 -0.0074,0.260777 -0.0196,0.388717 -4.56e-4,0.0067 -3.88e-4,0.01368 -0.0014,0.02033 -1.4e-5,1.22e-4 9e-6,1.91e-4 0,3.82e-4 -0.01358,0.134314 -0.03382,0.266662 -0.06027,0.39663 -0.370604,1.821345 -1.974612,3.183554 -3.908634,3.183554 H 6.3965397 c -1.1050834,0 -2.1023342,-0.444734 -2.8234672,-1.165771 C 2.9421141,37.126625 2.5226405,36.283876 2.4276403,35.342795 2.4140797,35.208482 2.4069284,35.072127 2.4069284,34.934117 V 9.2240097 c 0,-2.2101649 1.7794499,-3.9892408 3.9896148,-3.9892408 z"
       sodipodi:nodetypes="ccssscsccsscssssc" />
    <path
       id="path23181"
       style="fill:url(#linearGradient23493);fill-opacity:1;stroke-width:0.308562;stroke-linecap:round;stroke-linejoin:round"
       d="m 19.740183,5.2347781 2.949272,3.026867 h 18.760116 c 2.210166,0 3.989614,1.7794489 3.989614,3.9896139 v 22.682488 c 0,0.131264 -0.0074,0.260777 -0.0196,0.388717 -4.56e-4,0.0067 -3.88e-4,0.01368 -0.0014,0.02033 -1.4e-5,1.22e-4 9e-6,1.91e-4 0,3.82e-4 -0.01358,0.134314 -0.03382,0.266662 -0.06027,0.39663 -0.370604,1.821345 -1.974612,3.183554 -3.908634,3.183554 H 6.3965397 c -1.1050834,0 -2.1023342,-0.444734 -2.8234672,-1.165771 C 2.9421141,37.126625 2.5226405,36.283876 2.4276403,35.342795 2.4140797,35.208482 2.4069284,35.072127 2.4069284,34.934117 V 9.2240097 c 0,-2.2101649 1.7794499,-3.9892408 3.9896148,-3.9892408 z"
       sodipodi:nodetypes="ccssscsccsscssssc" />
    <path
       id="path23841"
       style="fill:url(#linearGradient23940);fill-opacity:1;stroke-width:0.308562;stroke-linecap:round;stroke-linejoin:round"
       d="m 19.740183,5.2347781 2.949272,3.026867 h 18.760116 c 2.210166,0 3.989614,1.7794489 3.989614,3.9896139 v 22.682488 c 0,0.131264 -0.0074,0.260777 -0.0196,0.388717 -4.56e-4,0.0067 -3.88e-4,0.01368 -0.0014,0.02033 -1.4e-5,1.22e-4 9e-6,1.91e-4 0,3.82e-4 -0.01358,0.134314 -0.03382,0.266662 -0.06027,0.39663 -0.370604,1.821345 -1.974612,3.183554 -3.908634,3.183554 H 6.3965397 c -1.1050834,0 -2.1023342,-0.444734 -2.8234672,-1.165771 C 2.9421141,37.126625 2.5226405,36.283876 2.4276403,35.342795 2.4140797,35.208482 2.4069284,35.072127 2.4069284,34.934117 V 9.2240097 c 0,-2.2101649 1.7794499,-3.9892408 3.9896148,-3.9892408 z"
       sodipodi:nodetypes="ccssscsccsscssssc" />
    <path
       id="rect877"
       style="fill:url(#linearGradient8553);fill-opacity:1;stroke-width:0.308562;stroke-linecap:round;stroke-linejoin:round"
       d="M 22.377612,11.178117 19.42834,14.204982 H 6.396551 c -2.2101649,0 -3.9896154,1.77945 -3.9896154,3.989616 v 22.618617 c 0,0.131264 0.00731,0.260772 0.019586,0.388716 5.924e-4,0.0067 3.853e-4,0.01368 0.00114,0.02033 1.38e-5,1.28e-4 -1.13e-5,1.97e-4 0,3.88e-4 0.013579,0.134313 0.033806,0.266661 0.060267,0.396626 0.3706041,1.821347 1.9746102,3.183557 3.9086328,3.183557 H 41.44958 c 1.105079,0 2.102333,-0.444734 2.823466,-1.165774 0.630957,-0.630958 1.05043,-1.473706 1.145434,-2.414788 0.01353,-0.134317 0.02069,-0.270668 0.02069,-0.408678 V 15.167353 c 0,-2.210166 -1.77945,-3.989241 -3.989616,-3.989241 z" />
    <path
       id="path1058"
       style="fill:#ffffff;fill-opacity:0.211765;stroke-width:0.308562;stroke-linecap:round;stroke-linejoin:round"
       d="m 22.376953,11.177734 -2.949219,3.027344 H 6.3964844 c -2.2101649,0 -3.9902344,1.780069 -3.9902344,3.990234 v 1.148438 c 0,-2.210166 1.7800695,-3.990234 3.9902344,-3.990234 H 19.888672 l 2.949219,-3.027344 h 18.611328 c 2.210166,0 3.990234,1.780068 3.990234,3.990234 v -1.148437 c 0,-2.210166 -1.780068,-3.990235 -3.990234,-3.990235 z" />
    <path
       id="path2098"
       style="fill:#ffffff;fill-opacity:0.192157;stroke-width:0.308562;stroke-linecap:round;stroke-linejoin:round"
       d="m 6.3964844,5.234375 c -2.2101649,0 -3.9902344,1.7800695 -3.9902344,3.9902344 v 1.4277346 c 0,-2.2101649 1.7800695,-3.9902346 3.9902344,-3.9902346 H 19.050781 L 22,9.6894531 h 19.449219 c 2.210166,0 3.990234,1.7800689 3.990234,3.9902349 v -1.427735 c 0,-2.210165 -1.780068,-3.9902342 -3.990234,-3.9902342 H 22.689453 L 19.740234,5.234375 Z" />
    <path
       id="path2734"
       style="fill:#41323a;fill-opacity:0.380392;stroke-width:0.308562;stroke-linecap:round;stroke-linejoin:round"
       d="M 2.40625,39.183594 V 40.8125 c 0,0.131264 0.00726,0.260728 0.019531,0.388672 5.924e-4,0.0067 0.0012,0.01483 0.00195,0.02148 0.013579,0.134313 0.034086,0.26652 0.060547,0.396485 0.3706041,1.821347 1.9741806,3.183593 3.9082032,3.183593 H 41.449219 c 1.105079,0 2.103086,-0.444975 2.824219,-1.166015 0.630957,-0.630958 1.049527,-1.472981 1.144531,-2.414063 0.01353,-0.134317 0.02148,-0.270193 0.02148,-0.408203 V 39.18359 c 0,0.13801 -0.008,0.273886 -0.02148,0.408203 -0.095,0.941082 -0.513574,1.785058 -1.144531,2.416015 -0.721133,0.721041 -1.71914,1.166016 -2.824219,1.166016 H 6.3964844 c -1.9340226,0 -3.5375991,-1.362247 -3.9082032,-3.183594 -0.026461,-0.129965 -0.046968,-0.264124 -0.060547,-0.398437 -7.547e-4,-0.0067 -0.00136,-0.01283 -0.00195,-0.01953 C 2.4135052,39.444322 2.40625,39.314858 2.40625,39.183594 Z" />
  </g>
     <g transform="translate(13 18)">
            <path d="M3 3v3L1 9v10h20V9l-2-3V3H3zm1 1h14v4.799l-7 4.04L4 8.8V4zm1 1v.986L4.986 6h12.028L17 5.986V5H5zm0 2v1h7V7H5zm-3 3h2.078L11 13.996 17.922 10H20v8H2v-8z" fill="#bcbcb2" color="#bcbcb2"/>

    </g>
</svg>
